<svg width="146" height="53" viewBox="0 0 146 53" fill="none" xmlns="http://www.w3.org/2000/svg">
<path fill-rule="evenodd" clip-rule="evenodd" d="M140.81 38.3404C140.9 37.4007 140.945 36.508 141.036 35.5683C141.216 33.172 141.487 28.8023 141.487 26.5C141.442 24.1037 141.171 19.781 141.036 17.3847C140.99 16.445 140.9 15.5523 140.81 14.6126C131.648 12.9211 122.441 11.3706 113.235 9.914C99.8757 7.89361 86.4717 6.10815 73.0226 4.69858C59.5734 6.10815 46.1243 7.89361 32.7654 9.914C23.5586 11.3236 14.3518 12.8741 5.19011 14.6126C5.09985 15.5523 5.05471 16.492 4.96445 17.3847C4.82906 19.781 4.55827 24.1507 4.51314 26.453C4.55827 28.8493 4.82906 33.172 4.96445 35.5683C5.00958 36.508 5.09985 37.4007 5.19011 38.3404C14.3518 40.0319 23.5586 41.5824 32.7654 43.039C46.1694 45.1064 59.5734 46.8918 73.0226 48.2544C86.4717 46.8449 99.9209 45.0594 113.28 43.039C122.487 41.6294 131.648 40.0789 140.81 38.3404Z" fill="#999999"/>
<path fill-rule="evenodd" clip-rule="evenodd" d="M4.51314 26.453C4.55827 24.1507 4.82906 19.781 4.96445 17.3848C5.00958 16.445 5.09985 15.5523 5.19011 14.6126L0.99289 10.6658C0.947759 11.1826 0.902628 11.8404 0.857496 12.6392C1.35394 14.0488 1.21855 15.0355 0.586708 16.0692C0.270788 20.5798 0 25.8422 0 26.5L4.51314 26.453C4.51314 26.5 4.51314 26.5 4.51314 26.453Z" fill="url(#paint0_linear_51_1275)"/>
<path fill-rule="evenodd" clip-rule="evenodd" d="M5.19011 14.6126C14.3518 12.9211 23.5586 11.3706 32.7654 9.91401C46.1243 7.89362 59.5283 6.10816 73.0226 4.69858V0L72.5713 0.0469858C59.0318 1.45656 45.5376 3.24202 32.0884 5.3094C27.9815 5.92021 23.2878 7.23582 19.4065 8.64539C18.3233 9.06826 17.511 7.65869 16.3827 7.84663C11.2828 8.73936 6.13787 9.67908 0.992889 10.6658L5.19011 14.6126Z" fill="url(#paint1_linear_51_1275)"/>
<path fill-rule="evenodd" clip-rule="evenodd" d="M73.0226 4.69858C86.4717 6.10815 99.9209 7.89361 113.28 9.914C122.487 11.3236 131.693 12.8741 140.855 14.6126L145.052 10.6188C142.751 10.6658 139.546 10.4308 137.064 9.11524C135.936 8.9273 135.214 9.96099 134.085 9.77305C133.002 9.5851 131.513 8.12854 130.43 7.98759C124.969 7.04787 119.463 6.15514 114.002 5.30939C104.208 3.80585 94.4149 2.44326 84.6213 1.3156C80.1985 2.58422 76.0464 1.55053 73.0677 0.0469818V4.69858H73.0226Z" fill="url(#paint2_linear_51_1275)"/>
<path fill-rule="evenodd" clip-rule="evenodd" d="M146 26.5H141.487C141.487 26.5 141.487 26.5 141.487 26.547C141.442 28.8493 141.171 33.219 141.036 35.6152C140.99 36.555 140.9 37.4477 140.81 38.3874L145.007 42.3812C145.233 40.2199 145.549 35.0984 145.774 31.2926C144.691 30.0709 145.233 27.4397 146 26.5Z" fill="url(#paint3_linear_51_1275)"/>
<path fill-rule="evenodd" clip-rule="evenodd" d="M140.81 38.3404C131.648 40.0319 122.441 41.5824 113.235 43.039C99.8306 45.1064 86.4266 46.8918 72.9774 48.2544V52.953L73.4287 52.906C83.4028 51.8723 93.3768 50.6037 103.306 49.2411C106.826 47.7846 110.798 46.234 113.912 47.6906C124.292 46.0931 134.672 44.3076 144.962 42.3342L140.81 38.3404Z" fill="url(#paint4_linear_51_1275)"/>
<path fill-rule="evenodd" clip-rule="evenodd" d="M73.0226 53V48.3014C59.5734 46.8919 46.1243 45.1064 32.7654 43.086C23.5586 41.6764 14.3518 40.1259 5.19011 38.3874L0.992889 42.3342C11.328 44.3076 21.6631 46.0931 32.0433 47.6906C45.4924 49.758 58.9867 51.5435 72.5261 52.953L73.0226 53Z" fill="url(#paint5_linear_51_1275)"/>
<path fill-rule="evenodd" clip-rule="evenodd" d="M33.0813 12.2633C46.3499 10.2429 59.6637 8.45744 73.0226 7.04787V4.69858C59.5734 6.10815 46.1243 7.89361 32.7654 9.914C23.5586 11.3236 14.3518 12.8741 5.19011 14.6126L7.31128 16.586C15.8862 15.0355 24.4612 13.5789 33.0813 12.2633Z" fill="url(#paint6_linear_51_1275)"/>
<path fill-rule="evenodd" clip-rule="evenodd" d="M73.0226 7.09485C86.3815 8.50443 99.6952 10.2429 112.964 12.3103C121.584 13.6259 130.159 15.0824 138.734 16.68L140.855 14.7066C131.693 13.0151 122.487 11.4645 113.28 10.008C99.8757 7.89361 86.4717 6.10815 73.0226 4.69858V7.09485Z" fill="url(#paint7_linear_51_1275)"/>
<path fill-rule="evenodd" clip-rule="evenodd" d="M138.869 18.7473C139.05 20.7677 139.23 24.5266 139.23 26.547C139.23 26.9229 139.23 27.2518 139.185 27.6277C139.095 29.6481 138.914 33.4539 138.734 35.4743C138.689 35.8032 138.689 36.1321 138.644 36.414L138.824 36.555L140.765 38.3874C140.81 37.6356 140.855 36.8839 140.945 36.1791C140.945 35.9911 140.99 35.8032 140.99 35.6153C141.171 33.4539 141.397 29.3192 141.442 27.2048C141.442 26.9699 141.442 26.7819 141.442 26.547C141.442 26.547 141.442 26.547 141.442 26.5C141.487 24.4326 141.261 20.4388 141.126 18.3245C141.081 18.0426 141.081 17.7137 141.036 17.4317C141.036 17.3848 141.036 17.3378 141.036 17.2908C140.99 16.3981 140.9 15.5523 140.855 14.6596L138.734 16.633C138.779 16.9619 138.779 17.2908 138.824 17.5727C138.824 17.9486 138.824 18.3245 138.869 18.7473Z" fill="url(#paint8_linear_51_1275)"/>
<path fill-rule="evenodd" clip-rule="evenodd" d="M138.734 36.367C130.159 37.9645 121.584 39.3741 112.964 40.7367C99.6952 42.7571 86.3815 44.5425 73.0226 45.9521V46.1401V48.3484C86.4717 46.9388 99.9209 45.1534 113.28 43.133C122.487 41.7234 131.693 40.1729 140.855 38.4344L138.914 36.6019L138.734 36.367Z" fill="url(#paint9_linear_51_1275)"/>
<path fill-rule="evenodd" clip-rule="evenodd" d="M73.0226 45.9051C59.6637 44.4956 46.3499 42.7571 33.0813 40.6897C24.4612 39.3741 15.8862 37.9645 7.31128 36.367L7.13076 36.508L5.19011 38.3404C14.3518 40.0319 23.5586 41.5824 32.7654 43.039C46.1694 45.1064 59.5734 46.8918 73.0226 48.2544V46.0931V45.9051Z" fill="url(#paint10_linear_51_1275)"/>
<path fill-rule="evenodd" clip-rule="evenodd" d="M7.13076 18.7473C6.99536 20.7208 6.81484 24.5266 6.76971 26.5C6.76971 26.8759 6.76971 27.2048 6.81484 27.5807C6.85997 29.6011 7.08563 33.4069 7.22102 35.4273C7.26615 35.7562 7.26615 36.0851 7.31128 36.367L7.13076 36.508L5.19011 38.3404C5.14498 37.6357 5.05471 36.8839 5.00958 36.1321C5.00958 35.9442 4.96445 35.7562 4.96445 35.5683C4.82906 33.4069 4.6034 29.3192 4.51314 27.1578C4.51314 26.9229 4.51314 26.7349 4.51314 26.5C4.51314 26.5 4.51314 26.5 4.51314 26.453C4.55827 24.4326 4.73879 20.4388 4.91932 18.3245C4.91932 17.9956 4.96445 17.7137 4.96445 17.3848C4.96445 17.3378 4.96445 17.2908 4.96445 17.2438C5.05471 16.3511 5.09985 15.5053 5.19011 14.6126L7.31128 16.586C7.26615 16.9619 7.26615 17.2438 7.22102 17.5727C7.22102 17.9486 7.17589 18.3245 7.13076 18.7473Z" fill="url(#paint11_linear_51_1275)"/>
<path fill-rule="evenodd" clip-rule="evenodd" d="M4.51314 26.5C4.55827 28.8023 4.82906 33.172 4.96445 35.5683C5.00958 36.508 5.09985 37.4007 5.19011 38.3404L0.99289 42.3342C1.48934 39.4681 1.4442 28.5204 0 26.5H4.51314Z" fill="url(#paint12_linear_51_1275)"/>
<path fill-rule="evenodd" clip-rule="evenodd" d="M141.487 26.453C141.442 24.1507 141.171 19.781 141.036 17.3847C140.99 16.445 140.9 15.5523 140.81 14.6126L145.007 10.6188C145.368 14.1897 146 25.5133 146 26.453H141.487C141.487 26.5 141.487 26.5 141.487 26.453Z" fill="url(#paint13_linear_51_1275)"/>
<path fill-rule="evenodd" clip-rule="evenodd" d="M73.0226 10.6188C59.8442 11.9814 46.711 13.7199 33.5778 15.7402C25.8603 16.9619 18.1428 18.2305 10.4705 19.6401C10.3351 21.3316 10.1997 24.8085 10.1546 26.5C10.1997 28.1915 10.3351 31.6684 10.4705 33.3599C18.1428 34.7695 25.8603 36.0381 33.5778 37.2128C46.6659 39.2332 59.8442 40.9716 73.0226 42.3342C86.2009 40.9716 99.3342 39.2332 112.467 37.2128C120.185 36.0381 127.902 34.7225 135.575 33.3599C135.71 31.6684 135.845 28.1915 135.891 26.5C135.845 24.8085 135.71 21.2846 135.575 19.5931C127.902 18.1835 120.185 16.9149 112.467 15.7402C99.3342 13.7199 86.2009 11.9814 73.0226 10.6188Z" fill="url(#paint14_radial_51_1275)"/>
<path fill-rule="evenodd" clip-rule="evenodd" d="M33.5778 15.7402C46.6659 13.7198 59.8442 11.9814 73.0226 10.6188V7.09485C59.6637 8.50442 46.3499 10.2429 33.0813 12.3103C24.4612 13.5789 15.8863 15.0355 7.31129 16.633L8.52984 17.8076L10.0643 19.2642L10.4254 19.6401C10.7413 19.5931 11.0121 19.5461 11.2829 19.4991C12.5465 19.2642 13.8553 19.0292 15.1642 18.7943C21.302 17.7136 27.4399 16.7269 33.5778 15.7402Z" fill="url(#paint15_linear_51_1275)"/>
<path fill-rule="evenodd" clip-rule="evenodd" d="M73.0226 10.6188C86.2009 11.9814 99.3342 13.7199 112.467 15.7402C118.605 16.68 124.743 17.6667 130.836 18.7473C132.145 18.9823 133.454 19.2172 134.762 19.4521C135.033 19.4991 135.304 19.5461 135.575 19.5931L135.936 19.2172L137.47 17.7606L138.689 16.586C130.114 14.9885 121.539 13.5789 112.919 12.2163C99.6501 10.1959 86.3363 8.41046 72.9774 7.00089V10.6188H73.0226Z" fill="url(#paint16_linear_51_1275)"/>
<path fill-rule="evenodd" clip-rule="evenodd" d="M10.1546 26.453C10.1997 24.7615 10.3351 21.2846 10.4705 19.5931L10.0643 19.2642L8.52984 17.8076L7.31129 16.633C7.26616 16.9619 7.26616 17.2438 7.22103 17.5727C7.22103 17.9486 7.1759 18.3245 7.13077 18.7473C6.99537 20.7207 6.81485 24.4796 6.76971 26.453C6.76971 26.8289 6.76971 27.2048 6.81485 27.5807C6.90511 29.6011 7.08563 33.4069 7.22103 35.4273C7.26616 35.7562 7.26616 36.0851 7.31129 36.367L10.4705 33.3599C10.3802 32.2323 10.29 29.3192 10.1997 28.1915C10.1997 27.6277 10.1546 27.0638 10.1546 26.453Z" fill="url(#paint17_linear_51_1275)"/>
<path fill-rule="evenodd" clip-rule="evenodd" d="M135.53 19.6401C135.665 21.3316 135.8 24.8085 135.845 26.547C135.845 27.1108 135.8 27.6746 135.8 28.2385C135.755 29.3661 135.665 32.2793 135.53 33.4069L138.689 36.414C138.734 36.0851 138.734 35.7562 138.779 35.4743C138.914 33.4539 139.14 29.648 139.23 27.6277C139.23 27.2518 139.275 26.9229 139.275 26.547C139.23 24.5266 139.05 20.7677 138.914 18.7473C138.869 18.3715 138.869 17.9956 138.824 17.6197C138.779 17.2908 138.779 16.9619 138.734 16.68L137.515 17.8546L135.936 19.2642L135.53 19.6401Z" fill="url(#paint18_linear_51_1275)"/>
<path fill-rule="evenodd" clip-rule="evenodd" d="M33.5778 37.2128C46.6659 39.2332 59.8442 40.9716 73.0226 42.3342V45.8582C59.6637 44.4486 46.3499 42.7101 33.0813 40.6427C24.4612 39.3741 15.8863 37.9645 7.31129 36.367L8.52984 35.1924L10.0643 33.7358L10.4705 33.3599C10.7413 33.4069 11.0121 33.4539 11.2829 33.5009C12.5917 33.7358 13.9005 33.9707 15.2093 34.2057C21.302 35.2863 27.4399 36.273 33.5778 37.2128Z" fill="url(#paint19_linear_51_1275)"/>
<path fill-rule="evenodd" clip-rule="evenodd" d="M73.0226 42.3812C86.2009 41.0186 99.3342 39.2801 112.467 37.2597C118.605 36.32 124.743 35.3333 130.836 34.2527C132.145 34.0177 133.454 33.7828 134.762 33.5479C135.033 33.5009 135.304 33.4539 135.575 33.4069L135.936 33.7828L137.47 35.2394L138.689 36.414C130.114 38.0115 121.539 39.4211 112.919 40.7837C99.6501 42.8041 86.3363 44.5895 72.9774 45.9991V42.3812H73.0226Z" fill="url(#paint20_linear_51_1275)"/>
<path d="M52.5229 35.5093C51.8681 35.3734 51.324 35.189 50.8813 34.956C50.4387 34.7328 50.079 34.5096 49.7931 34.3057C49.5164 34.1019 49.2767 33.8884 49.0922 33.6846L49.4611 29.9089C49.8669 30.4816 50.4018 30.9766 51.0842 31.394C51.7667 31.8113 52.4952 32.0248 53.2791 32.0248C54.063 32.0248 54.6348 31.9375 54.9852 31.7628C55.3357 31.5881 55.5109 31.2678 55.5109 30.8019C55.5109 30.3069 55.308 29.8798 54.9114 29.5304C54.5149 29.181 53.8232 28.754 52.8549 28.259C52.5044 28.0745 52.2001 27.8998 51.9511 27.7542C51.7021 27.6086 51.3793 27.3563 50.9735 27.0068C50.5678 26.6574 50.2358 26.2983 49.9776 25.9198C49.7193 25.5412 49.498 25.056 49.2951 24.4639C49.1015 23.8718 49 23.2312 49 22.5421C49 18.8442 50.9828 17 54.9483 17C55.5755 17 56.1749 17.068 56.7282 17.2136C57.2816 17.3494 57.715 17.5047 58.0378 17.6697C58.3513 17.8347 58.6372 18.0289 58.9047 18.2521C59.1629 18.4753 59.3289 18.6306 59.4027 18.718C59.4672 18.8053 59.5226 18.8732 59.5502 18.9315L58.8124 21.9306C58.4251 21.4551 57.9455 21.0959 57.3738 20.863C56.802 20.63 56.2487 20.5136 55.7322 20.5136C54.4688 20.5136 53.8417 20.9309 53.8417 21.7559C53.8417 21.9695 53.8786 22.1733 53.9616 22.348C54.0446 22.5227 54.1644 22.6877 54.3489 22.8333C54.5241 22.9789 54.6901 23.1051 54.8469 23.2021C55.0037 23.3089 55.2066 23.4351 55.4832 23.5807C55.7507 23.7263 55.9536 23.8524 56.0919 23.9495C57.5306 24.5901 58.5819 25.3568 59.2551 26.2304C59.9283 27.1136 60.2696 28.1813 60.2696 29.4431C60.2696 31.491 59.79 33.0537 58.8309 34.1213C57.8718 35.189 56.4792 35.7325 54.6624 35.7325C53.8785 35.7228 53.1777 35.6452 52.5229 35.5093Z" fill="url(#paint21_linear_51_1275)"/>
<path d="M61.791 35.3928V17.1941H63.7369C64.2534 17.1941 65.0465 17.1747 66.0978 17.1262C67.1491 17.0776 68.016 17.0582 68.6985 17.0582C70.6075 17.0582 72.0554 17.5921 73.0329 18.6597C74.0197 19.7274 74.5085 21.3289 74.5085 23.4545C74.5085 24.7357 74.3517 25.9101 74.0289 26.9583C73.7061 28.0066 73.2819 28.8704 72.7378 29.5401C72.1937 30.2098 71.585 30.7339 70.8933 31.0931C70.2017 31.4522 69.4731 31.6366 68.7077 31.6366C68.6062 31.6366 68.5048 31.6366 68.4034 31.6366C68.3019 31.6366 68.2097 31.6366 68.1267 31.6269C68.0437 31.6269 67.9422 31.6172 67.8316 31.6074C67.7209 31.6074 67.6287 31.5978 67.5641 31.5881C67.4996 31.5881 67.4074 31.5784 67.2967 31.5686C67.186 31.5589 67.103 31.5589 67.0661 31.5589C67.0292 31.5589 66.9555 31.5492 66.8448 31.5395C66.7341 31.5298 66.6788 31.5201 66.6696 31.5201V35.3734H61.791V35.3928ZM69.0858 20.9018C68.6892 20.4262 68.1267 20.1836 67.3889 20.1836H66.6788V28.2589H67.2229C67.9976 28.2589 68.6062 27.9871 69.0305 27.4339C69.4547 26.8904 69.676 26.0945 69.676 25.0559V22.7556C69.676 21.9986 69.4731 21.3774 69.0858 20.9018Z" fill="url(#paint22_linear_51_1275)"/>
<path d="M75.6797 17.1943H80.715V35.393H75.6797V17.1943Z" fill="url(#paint23_linear_51_1275)"/>
<path d="M82.7164 35.393V18.6502L81.9971 17.1943H87.4289L90.1403 23.0956L92.741 28.9774L92.0216 22.0667V17.1943H96.725V35.393H92.2245L88.7108 28.2009L86.5436 23.6973L87.4105 29.6568V35.3833H82.7164V35.393Z" fill="url(#paint24_linear_51_1275)"/>
<defs>
<linearGradient id="paint0_linear_51_1275" x1="2.5937" y1="26.4967" x2="2.5937" y2="10.6442" gradientUnits="userSpaceOnUse">
<stop stop-color="#788896"/>
<stop offset="1" stop-color="#9FB1C4"/>
</linearGradient>
<linearGradient id="paint1_linear_51_1275" x1="37.0027" y1="14.6072" x2="37.0027" y2="-0.0154357" gradientUnits="userSpaceOnUse">
<stop stop-color="#3B3A52"/>
<stop offset="1" stop-color="#8292AB"/>
</linearGradient>
<linearGradient id="paint2_linear_51_1275" x1="109.032" y1="14.6073" x2="109.032" y2="0.0315958" gradientUnits="userSpaceOnUse">
<stop stop-color="#3B3A52"/>
<stop offset="1" stop-color="#8292AB"/>
</linearGradient>
<linearGradient id="paint3_linear_51_1275" x1="143.423" y1="42.3493" x2="143.423" y2="26.4967" gradientUnits="userSpaceOnUse">
<stop stop-color="#676B87"/>
<stop offset="1" stop-color="#5B597D"/>
</linearGradient>
<linearGradient id="paint4_linear_51_1275" x1="108.947" y1="52.9047" x2="108.947" y2="38.3427" gradientUnits="userSpaceOnUse">
<stop stop-color="#586478"/>
<stop offset="1" stop-color="#302E41"/>
</linearGradient>
<linearGradient id="paint5_linear_51_1275" x1="1.0132" y1="45.6787" x2="73.0086" y2="45.6787" gradientUnits="userSpaceOnUse">
<stop stop-color="#5A5D75"/>
<stop offset="1" stop-color="#5B597D"/>
</linearGradient>
<linearGradient id="paint6_linear_51_1275" x1="5.1874" y1="10.6714" x2="73.0086" y2="10.6714" gradientUnits="userSpaceOnUse">
<stop stop-color="#676B87"/>
<stop offset="1" stop-color="#5B597D"/>
</linearGradient>
<linearGradient id="paint7_linear_51_1275" x1="73.0086" y1="10.6714" x2="140.829" y2="10.6714" gradientUnits="userSpaceOnUse">
<stop stop-color="#46435E"/>
<stop offset="1" stop-color="#4A4D61"/>
</linearGradient>
<linearGradient id="paint8_linear_51_1275" x1="140.111" y1="38.3639" x2="140.111" y2="14.6295" gradientUnits="userSpaceOnUse">
<stop stop-color="#777B9C"/>
<stop offset="1" stop-color="#525673"/>
</linearGradient>
<linearGradient id="paint9_linear_51_1275" x1="73.0086" y1="42.322" x2="140.829" y2="42.322" gradientUnits="userSpaceOnUse">
<stop stop-color="#99AAC9"/>
<stop offset="1" stop-color="#515D7D"/>
</linearGradient>
<linearGradient id="paint10_linear_51_1275" x1="5.1874" y1="42.322" x2="73.0086" y2="42.322" gradientUnits="userSpaceOnUse">
<stop stop-color="#788896"/>
<stop offset="1" stop-color="#BCD1E8"/>
</linearGradient>
<linearGradient id="paint11_linear_51_1275" x1="5.90589" y1="38.3639" x2="5.90589" y2="14.6295" gradientUnits="userSpaceOnUse">
<stop stop-color="#777B9C"/>
<stop offset="1" stop-color="#525673"/>
</linearGradient>
<linearGradient id="paint12_linear_51_1275" x1="2.5937" y1="42.3497" x2="2.5937" y2="26.4972" gradientUnits="userSpaceOnUse">
<stop stop-color="#676B87"/>
<stop offset="1" stop-color="#5B597D"/>
</linearGradient>
<linearGradient id="paint13_linear_51_1275" x1="143.423" y1="26.4967" x2="143.423" y2="10.6442" gradientUnits="userSpaceOnUse">
<stop stop-color="#788896"/>
<stop offset="1" stop-color="#9FB1C4"/>
</linearGradient>
<radialGradient id="paint14_radial_51_1275" cx="0" cy="0" r="1" gradientUnits="userSpaceOnUse" gradientTransform="translate(73.0081 10.6568) scale(70.2519 73.1386)">
<stop stop-color="#A47AFF"/>
<stop offset="1" stop-color="#4F1DA3"/>
</radialGradient>
<linearGradient id="paint15_linear_51_1275" x1="7.30001" y1="13.3505" x2="73.0082" y2="13.3505" gradientUnits="userSpaceOnUse">
<stop stop-color="#752CF2"/>
<stop offset="1" stop-color="#C1ABFF"/>
</linearGradient>
<linearGradient id="paint16_linear_51_1275" x1="73.0081" y1="13.3505" x2="138.717" y2="13.3505" gradientUnits="userSpaceOnUse">
<stop stop-color="#B094FF"/>
<stop offset="1" stop-color="#7029E8"/>
</linearGradient>
<linearGradient id="paint17_linear_51_1275" x1="8.61559" y1="36.3703" x2="8.61559" y2="16.6236" gradientUnits="userSpaceOnUse">
<stop stop-color="#4C10B3"/>
<stop offset="1" stop-color="#9D7AFF"/>
</linearGradient>
<linearGradient id="paint18_linear_51_1275" x1="137.401" y1="36.3703" x2="137.401" y2="16.6236" gradientUnits="userSpaceOnUse">
<stop stop-color="#4C10B3"/>
<stop offset="1" stop-color="#9D7AFF"/>
</linearGradient>
<linearGradient id="paint19_linear_51_1275" x1="7.30001" y1="39.6433" x2="73.0082" y2="39.6433" gradientUnits="userSpaceOnUse">
<stop stop-color="#7029E8"/>
<stop offset="1" stop-color="#B094FF"/>
</linearGradient>
<linearGradient id="paint20_linear_51_1275" x1="73.0081" y1="39.6433" x2="138.717" y2="39.6433" gradientUnits="userSpaceOnUse">
<stop stop-color="#9A75FF"/>
<stop offset="1" stop-color="#752CF2"/>
</linearGradient>
<linearGradient id="paint21_linear_51_1275" x1="54.5492" y1="41" x2="54.5492" y2="17" gradientUnits="userSpaceOnUse">
<stop stop-color="#FFC700"/>
<stop offset="1" stop-color="#FFFBC9"/>
</linearGradient>
<linearGradient id="paint22_linear_51_1275" x1="68.0532" y1="40.5484" x2="68.0532" y2="17.0582" gradientUnits="userSpaceOnUse">
<stop stop-color="#FFC700"/>
<stop offset="1" stop-color="#FFFBC9"/>
</linearGradient>
<linearGradient id="paint23_linear_51_1275" x1="78.1591" y1="40.5104" x2="78.1591" y2="17.1943" gradientUnits="userSpaceOnUse">
<stop stop-color="#FFC700"/>
<stop offset="1" stop-color="#FFFBC9"/>
</linearGradient>
<linearGradient id="paint24_linear_51_1275" x1="89.2492" y1="40.5104" x2="89.2492" y2="17.1943" gradientUnits="userSpaceOnUse">
<stop stop-color="#FFC700"/>
<stop offset="1" stop-color="#FFFBC9"/>
</linearGradient>
</defs>
</svg>
