<svg width="360" height="464" viewBox="0 0 360 464" fill="none" xmlns="http://www.w3.org/2000/svg">
<path fill-rule="evenodd" clip-rule="evenodd" d="M359.462 26.7378C359.778 33.393 360 217.989 360 232C360 246.011 359.778 430.607 359.462 437.262C358.324 440.239 355.921 445.202 353.044 450.572C350.135 455.943 347.447 460.322 345.835 462.423C327.117 463.358 219.49 464 180 464C140.509 464 32.9141 463.358 14.1647 462.423C12.5522 460.322 9.86473 455.885 6.9559 450.572C4.04707 445.202 1.67574 440.239 0.537502 437.262C0.221324 430.607 0 246.011 0 232C0 217.989 0.221324 33.393 0.537502 26.7378C1.70736 23.7604 4.07869 18.7982 6.98752 13.4273C9.89635 8.05636 12.5839 3.6779 14.1964 1.57624C32.9141 0.642174 140.541 0 180.031 0C219.522 0 327.117 0.642174 345.866 1.57624C347.479 3.6779 350.166 8.05636 353.075 13.4273C355.953 18.7982 358.324 23.7604 359.462 26.7378Z" fill="url(#paint0_radial_14_3131)"/>
<path fill-rule="evenodd" clip-rule="evenodd" d="M7.77796 232C7.77796 223.01 7.77796 41.2162 8.12576 32.1674L0.537502 26.7381C0.221324 33.3934 0 217.989 0 232C0 246.011 0.221324 430.607 0.537502 437.262L8.12576 431.833C7.80958 422.784 7.77796 240.932 7.77796 232Z" fill="url(#paint1_radial_14_3131)"/>
<path opacity="0.5" fill-rule="evenodd" clip-rule="evenodd" d="M8.12532 32.1667C9.48488 29.131 11.129 26.1537 12.4886 23.585C13.8165 21.133 15.3974 18.2724 16.9467 15.8205L14.1959 1.57593C12.5834 3.67759 9.89591 8.05604 6.98708 13.427C4.07825 18.7979 1.70692 23.7601 0.537064 26.7375L8.12532 32.1667Z" fill="url(#paint2_radial_14_3131)"/>
<path fill-rule="evenodd" clip-rule="evenodd" d="M16.9475 15.8208C28.899 15.237 40.8821 15.0035 52.8336 14.8284C70.8557 14.5365 161.978 14.4197 180 14.4197C198.022 14.4197 289.145 14.5365 307.167 14.8284C319.118 15.0619 331.101 15.2954 343.053 15.8208L345.835 1.57624C327.118 0.642174 219.491 0 180 0C140.51 0 32.9145 0.583794 14.1968 1.57624L16.9475 15.8208Z" fill="url(#paint3_radial_14_3131)"/>
<path opacity="0.5" fill-rule="evenodd" clip-rule="evenodd" d="M343.053 15.821C344.633 18.273 346.183 21.1919 347.511 23.5855C348.87 26.0958 350.514 29.1315 351.874 32.1089L359.462 26.6796C358.324 23.7022 355.921 18.74 353.044 13.3691C350.135 7.99818 347.447 3.61973 345.835 1.51807L343.053 15.821Z" fill="url(#paint4_radial_14_3131)"/>
<path fill-rule="evenodd" clip-rule="evenodd" d="M351.874 32.1673C352.222 41.2161 352.222 223.068 352.222 232C352.222 240.991 352.222 422.784 351.874 431.833L359.463 437.262C359.779 430.607 360 246.011 360 232C360 217.989 359.779 33.3933 359.463 26.738L351.874 32.1673Z" fill="url(#paint5_radial_14_3131)"/>
<path opacity="0.5" fill-rule="evenodd" clip-rule="evenodd" d="M351.874 431.833C350.514 434.81 348.902 437.846 347.511 440.356C346.183 442.808 344.602 445.668 343.053 448.12L345.835 462.365C347.447 460.263 350.135 455.826 353.044 450.514C355.953 445.143 358.324 440.181 359.462 437.203L351.874 431.833Z" fill="url(#paint6_radial_14_3131)"/>
<path opacity="0.35" fill-rule="evenodd" clip-rule="evenodd" d="M343.052 448.179C331.101 448.763 319.118 448.997 307.166 449.172C289.144 449.464 198.022 449.58 180 449.58C161.978 449.58 70.8553 449.464 52.8332 449.172C40.8817 448.938 28.8985 448.705 16.947 448.179L14.1647 462.424C32.8824 463.358 140.509 464 180 464C219.49 464 327.085 463.358 345.835 462.424L343.052 448.179Z" fill="url(#paint7_radial_14_3131)"/>
<path opacity="0.5" fill-rule="evenodd" clip-rule="evenodd" d="M16.9467 448.179C15.3658 445.727 13.8165 442.808 12.4886 440.414C11.129 437.846 9.48488 434.81 8.12532 431.833L0.537064 437.262C1.6753 440.239 4.04663 445.201 6.95546 450.572C9.8643 455.943 12.5518 460.322 14.1643 462.423L16.9467 448.179Z" fill="url(#paint8_radial_14_3131)"/>
<path fill-rule="evenodd" clip-rule="evenodd" d="M14.1968 1.57624C14.6078 2.62707 129.064 3.50277 180.032 3.50277C231 3.50277 345.456 2.62707 345.867 1.57624C327.149 0.642174 219.522 0 180.032 0C140.541 0 32.9145 0.583794 14.1968 1.57624Z" fill="url(#paint9_radial_14_3131)"/>
<path fill-rule="evenodd" clip-rule="evenodd" d="M180 459.155C130.297 459.155 16.947 454.251 16.947 448.179L14.1647 462.424C32.8824 463.358 140.509 464 180 464C219.49 464 327.085 463.358 345.835 462.424L343.052 448.179C343.052 454.251 229.703 459.155 180 459.155Z" fill="url(#paint10_radial_14_3131)"/>
<path opacity="0.69" fill-rule="evenodd" clip-rule="evenodd" d="M18.9702 50.3232H338.309V423.952H18.9702V50.3232Z" fill="url(#paint11_radial_14_3131)"/>
<path fill-rule="evenodd" clip-rule="evenodd" d="M18.9699 237.137V50.1355L16.7396 44.4849V221.581C16.7396 229.625 15.0341 234.677 12.6463 237.137H18.9699Z" fill="url(#paint12_linear_14_3131)"/>
<path fill-rule="evenodd" clip-rule="evenodd" d="M20.203 258.388V422.142L17.5154 427.105V272.049C17.5154 264.985 15.4603 260.548 12.5831 258.388H20.203Z" fill="url(#paint13_linear_14_3131)"/>
<path fill-rule="evenodd" clip-rule="evenodd" d="M179.999 422.143H20.203L17.5155 427.105H172.6C176.426 427.105 178.829 430.9 179.999 436.212V422.143Z" fill="url(#paint14_linear_14_3131)"/>
<path fill-rule="evenodd" clip-rule="evenodd" d="M179.999 422.143H339.795L342.483 427.105H187.398C183.572 427.105 181.169 430.9 179.999 436.212V422.143Z" fill="url(#paint15_linear_14_3131)"/>
<path fill-rule="evenodd" clip-rule="evenodd" d="M338.309 237.137V50.1355L341.654 44.4849V221.581C341.654 229.625 344.213 234.677 347.794 237.137H338.309Z" fill="url(#paint16_linear_14_3131)"/>
<path fill-rule="evenodd" clip-rule="evenodd" d="M338.309 260.489V424.243L340.996 429.206V274.15C340.996 267.086 343.052 262.649 345.929 260.489H338.309Z" fill="url(#paint17_linear_14_3131)"/>
<path fill-rule="evenodd" clip-rule="evenodd" d="M180.412 50.5138H18.7194L15.9999 44.3367H172.926C176.797 44.3367 179.228 39.6131 180.412 33V50.5138Z" fill="url(#paint18_linear_14_3131)"/>
<path fill-rule="evenodd" clip-rule="evenodd" d="M180.22 50.3232H338.804L341.471 44.1461H187.563C183.766 44.1461 181.381 39.4224 180.22 32.8093V50.3232Z" fill="url(#paint19_linear_14_3131)"/>
<path fill-rule="evenodd" clip-rule="evenodd" d="M21.6553 56.1612H335.624L338.309 50.3232H18.9702L21.6553 56.1612Z" fill="url(#paint20_linear_14_3131)"/>
<path fill-rule="evenodd" clip-rule="evenodd" d="M22.132 418.299V55.9762L18.9702 50.3232V133.389V423.952L22.132 418.299Z" fill="url(#paint21_linear_14_3131)"/>
<path fill-rule="evenodd" clip-rule="evenodd" d="M337.14 417.18H22.8908L20.2033 422.142H339.827L337.14 417.18Z" fill="url(#paint22_linear_14_3131)"/>
<defs>
<radialGradient id="paint0_radial_14_3131" cx="0" cy="0" r="1" gradientUnits="userSpaceOnUse" gradientTransform="translate(-336.23 -275.395) rotate(180) scale(1245.97 2385.93)">
<stop stop-color="#896BD6"/>
<stop offset="1" stop-color="#5F00D6"/>
</radialGradient>
<radialGradient id="paint1_radial_14_3131" cx="0" cy="0" r="1" gradientUnits="userSpaceOnUse" gradientTransform="translate(3.7313 59.2494) scale(18.4847 933.873)">
<stop stop-color="#BF91FF"/>
<stop offset="1" stop-color="#7C56D6"/>
</radialGradient>
<radialGradient id="paint2_radial_14_3131" cx="0" cy="0" r="1" gradientUnits="userSpaceOnUse" gradientTransform="translate(-3.14532 75.0946) scale(29.1137 94.1203)">
<stop stop-color="#9C71E3"/>
<stop offset="1" stop-color="white"/>
</radialGradient>
<radialGradient id="paint3_radial_14_3131" cx="0" cy="0" r="1" gradientUnits="userSpaceOnUse" gradientTransform="translate(166.483 1.25292) scale(754.422 35.9897)">
<stop stop-color="#BF91FF"/>
<stop offset="1" stop-color="#7C56D6"/>
</radialGradient>
<radialGradient id="paint4_radial_14_3131" cx="0" cy="0" r="1" gradientUnits="userSpaceOnUse" gradientTransform="translate(339.37 75.0367) scale(29.1137 94.1203)">
<stop stop-color="#9C71E3"/>
<stop offset="1" stop-color="white"/>
</radialGradient>
<radialGradient id="paint5_radial_14_3131" cx="0" cy="0" r="1" gradientUnits="userSpaceOnUse" gradientTransform="translate(355.606 59.2494) scale(18.4847 933.873)">
<stop stop-color="#BF91FF"/>
<stop offset="1" stop-color="#7C56D6"/>
</radialGradient>
<radialGradient id="paint6_radial_14_3131" cx="0" cy="0" r="1" gradientUnits="userSpaceOnUse" gradientTransform="translate(339.37 505.211) scale(29.1137 93.9408)">
<stop stop-color="#9C71E3"/>
<stop offset="1" stop-color="white"/>
</radialGradient>
<radialGradient id="paint7_radial_14_3131" cx="0" cy="0" r="1" gradientUnits="userSpaceOnUse" gradientTransform="translate(179.729 455.983) scale(253.991 213.536)">
<stop stop-color="#986FBF"/>
<stop offset="1"/>
</radialGradient>
<radialGradient id="paint8_radial_14_3131" cx="0" cy="0" r="1" gradientUnits="userSpaceOnUse" gradientTransform="translate(-3.14532 505.351) scale(29.1137 94.1203)">
<stop stop-color="#9C71E3"/>
<stop offset="1" stop-color="white"/>
</radialGradient>
<radialGradient id="paint9_radial_14_3131" cx="0" cy="0" r="1" gradientUnits="userSpaceOnUse" gradientTransform="translate(195.528 46.7012) scale(312.288 127.663)">
<stop stop-color="#B4DDFF"/>
<stop offset="1" stop-color="#0E1273"/>
</radialGradient>
<radialGradient id="paint10_radial_14_3131" cx="0" cy="0" r="1" gradientUnits="userSpaceOnUse" gradientTransform="translate(166.466 449.432) scale(754.494 35.9897)">
<stop stop-color="#BF91FF"/>
<stop offset="1" stop-color="#7C56D6"/>
</radialGradient>
<radialGradient id="paint11_radial_14_3131" cx="0" cy="0" r="1" gradientUnits="userSpaceOnUse" gradientTransform="translate(330.357 1942.85) scale(406.322 3835.97)">
<stop stop-color="#8A5CFD"/>
<stop offset="0.461458"/>
</radialGradient>
<linearGradient id="paint12_linear_14_3131" x1="13" y1="68.5" x2="16" y2="204" gradientUnits="userSpaceOnUse">
<stop stop-color="#3B3A52"/>
<stop offset="1" stop-color="#8292AB"/>
</linearGradient>
<linearGradient id="paint13_linear_14_3131" x1="16.3925" y1="427.043" x2="16.3925" y2="258.21" gradientUnits="userSpaceOnUse">
<stop stop-color="#3B3A52"/>
<stop offset="1" stop-color="#8292AB"/>
</linearGradient>
<linearGradient id="paint14_linear_14_3131" x1="98.7058" y1="436.166" x2="98.7058" y2="422.145" gradientUnits="userSpaceOnUse">
<stop stop-color="#707E94"/>
<stop offset="1" stop-color="#3E3C54"/>
</linearGradient>
<linearGradient id="paint15_linear_14_3131" x1="261.19" y1="436.166" x2="261.19" y2="422.145" gradientUnits="userSpaceOnUse">
<stop stop-color="#586478"/>
<stop offset="1" stop-color="#302E41"/>
</linearGradient>
<linearGradient id="paint16_linear_14_3131" x1="338.839" y1="68.5" x2="340.84" y2="204.037" gradientUnits="userSpaceOnUse">
<stop stop-color="#3B3A52"/>
<stop offset="1" stop-color="#8292AB"/>
</linearGradient>
<linearGradient id="paint17_linear_14_3131" x1="342.118" y1="429.144" x2="342.118" y2="260.311" gradientUnits="userSpaceOnUse">
<stop stop-color="#3B3A52"/>
<stop offset="1" stop-color="#8292AB"/>
</linearGradient>
<linearGradient id="paint18_linear_14_3131" x1="98.154" y1="50.4559" x2="98.154" y2="33.0027" gradientUnits="userSpaceOnUse">
<stop stop-color="#707E94"/>
<stop offset="1" stop-color="#3E3C54"/>
</linearGradient>
<linearGradient id="paint19_linear_14_3131" x1="260.795" y1="50.2652" x2="260.795" y2="32.812" gradientUnits="userSpaceOnUse">
<stop stop-color="#586478"/>
<stop offset="1" stop-color="#302E41"/>
</linearGradient>
<linearGradient id="paint20_linear_14_3131" x1="178.539" y1="56.1419" x2="178.539" y2="50.3241" gradientUnits="userSpaceOnUse">
<stop stop-color="#707E94"/>
<stop offset="1" stop-color="#3E3C54"/>
</linearGradient>
<linearGradient id="paint21_linear_14_3131" x1="20.5501" y1="422.716" x2="20.5501" y2="50.3802" gradientUnits="userSpaceOnUse">
<stop stop-color="#707E94"/>
<stop offset="1" stop-color="#3E3C54"/>
</linearGradient>
<linearGradient id="paint22_linear_14_3131" x1="179.993" y1="422.141" x2="179.993" y2="417.175" gradientUnits="userSpaceOnUse">
<stop stop-color="#3B3A52"/>
<stop offset="1" stop-color="#8292AB"/>
</linearGradient>
</defs>
</svg>
