<svg width="84" height="42" viewBox="0 0 84 42" fill="none" xmlns="http://www.w3.org/2000/svg">
<path opacity="0.2" fill-rule="evenodd" clip-rule="evenodd" d="M13.8874 41.6054C20.3336 41.8309 28.3715 42 41.9802 42C55.6286 42 63.7063 41.8309 70.1525 41.6054C77.7925 41.6054 84 32.8108 84 21.9866C84 11.1625 77.7925 2.36784 70.1525 2.36784C63.7063 2.14234 55.5889 1.97319 41.9802 1.97319C28.3317 1.97319 20.3336 2.14234 13.8874 2.36784C6.24745 2.36784 0.0399852 11.1625 0.0399852 21.9866C0.000193711 32.8108 6.20766 41.6054 13.8874 41.6054Z" fill="#33233D"/>
<path fill-rule="evenodd" clip-rule="evenodd" d="M13.8874 39.6322C20.3336 39.8577 28.3715 40.0268 41.9802 40.0268C55.6286 40.0268 63.7063 39.8577 70.1525 39.6322C77.7925 39.6322 84 30.8376 84 20.0134C84 9.18926 77.7925 0.394629 70.1525 0.394629C63.7063 0.169126 55.5889 0 41.9802 0C28.3317 0 20.3336 0.169126 13.8874 0.394629C6.24745 0.394629 0.0399852 9.18926 0.0399852 20.0134C0.000193711 30.8376 6.20766 39.6322 13.8874 39.6322Z" fill="url(#paint0_linear_51_1305)"/>
<path fill-rule="evenodd" clip-rule="evenodd" d="M41.98 38.4484C31.6342 38.4484 19.7366 39.2377 10.0672 33.9383C9.11224 33.431 8.19704 32.6417 7.36142 31.7397C6.28705 30.5558 5.41164 29.09 4.73518 27.3987C4.33727 26.4403 4.05873 25.4256 3.81998 24.3544C3.50165 22.945 3.34248 21.4793 3.34248 19.9571C2.86499 17.984 0.596872 17.5893 0 19.9571C0 30.7813 6.20747 39.5759 13.8474 39.5759C20.2936 39.8014 28.3315 39.9705 41.9402 39.9705C55.5887 39.9705 63.6663 39.8014 70.1125 39.5759C77.7525 39.5759 83.96 30.7813 83.96 19.9571C83.3631 17.5893 81.095 17.984 80.6175 19.9571C80.6175 21.4229 80.4583 22.8887 80.14 24.3544C79.9012 25.4256 79.6227 26.4403 79.2248 27.3987C78.5483 29.09 77.6729 30.5558 76.5986 31.7397C75.8027 32.6417 74.8875 33.3746 73.8927 33.9383C64.303 39.2377 52.3258 38.4484 41.98 38.4484Z" fill="url(#paint1_linear_51_1305)"/>
<path fill-rule="evenodd" clip-rule="evenodd" d="M13.8874 39.1248C18.3043 39.2939 22.7609 39.3503 27.2175 39.4067C33.4648 39.4631 35.7727 39.5194 42.02 39.5194C48.2672 39.5194 50.6547 39.4631 56.902 39.4067C61.3188 39.3503 65.7755 39.2939 70.2321 39.1248C77.7129 39.1248 83.7612 30.5557 83.7612 19.9571C83.7612 9.35839 77.7129 0.789258 70.2321 0.789258C65.8153 0.620131 61.3586 0.563759 56.902 0.507383C50.6547 0.451008 48.2672 0.394629 42.02 0.394629C35.7727 0.394629 33.4648 0.451008 27.2175 0.507383C22.8007 0.563759 18.3441 0.620131 13.8874 0.789258C6.40662 0.789258 0.35832 9.35839 0.35832 19.9571C0.35832 30.5557 6.40662 39.1248 13.8874 39.1248ZM13.8874 39.6322C20.3336 39.8577 28.3715 40.0268 41.9802 40.0268C55.6286 40.0268 63.7063 39.8577 70.1525 39.6322C77.7925 39.6322 84 30.8376 84 20.0134C84 9.18926 77.7925 0.394629 70.1525 0.394629C63.7063 0.169126 55.5889 0 41.9802 0C28.3317 0 20.3336 0.169126 13.8874 0.394629C6.24745 0.394629 0.0399852 9.18926 0.0399852 20.0134C0.000193711 30.8376 6.20766 39.6322 13.8874 39.6322Z" fill="url(#paint2_linear_51_1305)"/>
<path d="M42.02 1.57851C30.5601 1.57851 19.8164 1.69127 13.967 1.91677C13.211 1.97315 12.0172 2.3114 10.7439 2.81878C9.4308 3.32616 8.27685 3.88993 7.64019 4.34093C6.96373 4.96107 6.04853 6.08858 5.09353 7.4416C4.13854 8.79462 3.34271 10.0913 2.94479 10.9369C2.58667 11.9517 2.18876 13.5866 1.83063 15.447C1.47251 17.3074 1.23376 18.9986 1.19397 20.0134C1.23376 21.1409 1.47251 22.8322 1.83063 24.6926C2.18876 26.553 2.58667 28.1879 2.905 29.0899C3.34271 30.0483 4.13854 31.3449 5.09353 32.698C6.04853 34.051 6.96373 35.1785 7.5606 35.7423C8.27685 36.2497 9.4308 36.8134 10.7439 37.3208C12.057 37.8282 13.2508 38.1664 13.967 38.2228C19.8164 38.4483 30.5999 38.5611 42.0598 38.5611C53.5197 38.5611 64.2634 38.4483 70.1128 38.2228C70.8688 38.1664 72.0626 37.8282 73.3359 37.3208C74.649 36.8134 75.803 36.2496 76.4396 35.7986C77.1161 35.1785 78.0313 34.051 78.9863 32.698C79.9413 31.3449 80.7371 30.0483 81.135 29.2027C81.4931 28.1879 81.891 26.553 82.2492 24.6926C82.6073 22.8322 82.846 21.1409 82.8858 20.1262C82.846 18.9986 82.6073 17.3074 82.2492 15.447C81.891 13.5866 81.4931 11.9517 81.1748 11.0496C80.7371 10.0913 79.9413 8.79462 78.9863 7.4416C78.0313 6.08858 77.1161 4.96106 76.5192 4.3973C75.803 3.88992 74.649 3.32616 73.3359 2.81878C72.0228 2.3114 70.829 1.97315 70.1128 1.91677C64.2236 1.69127 53.4799 1.57851 42.02 1.57851Z" fill="url(#paint3_linear_51_1305)"/>
<path fill-rule="evenodd" clip-rule="evenodd" d="M13.9667 2.81879C13.33 2.87517 12.1761 3.21343 10.863 3.66444C9.54986 4.17182 8.47549 4.67919 7.87862 5.1302C7.32154 5.63758 6.44613 6.70873 5.49113 8.06175C4.53614 9.41477 3.7801 10.655 3.42198 11.4443C3.14344 12.2899 2.74552 13.8121 2.3874 15.6725C2.02927 17.5329 1.83032 19.1114 1.79053 20.0698C1.83032 20.9718 2.06907 22.6067 2.3874 24.4671C2.74552 26.3275 3.10364 27.8497 3.42198 28.6953C3.7801 29.4846 4.53614 30.7248 5.49113 32.0778C6.44613 33.4309 7.32154 34.502 7.87862 35.0094C8.47549 35.404 9.54986 35.9678 10.863 36.4752C12.1363 36.9826 13.2903 37.2644 13.9667 37.3208C19.6171 37.5463 30.0823 37.6591 42.0197 37.6591C53.9571 37.6591 64.4223 37.5463 70.0727 37.3208C70.7093 37.2644 71.8633 36.9262 73.1764 36.4752C74.4497 35.9678 75.5639 35.4604 76.1608 35.0094C76.7178 34.502 77.5933 33.4309 78.5482 32.0778C79.5032 30.7248 80.2593 29.4846 80.6174 28.6953C80.896 27.8497 81.2939 26.3275 81.652 24.4671C82.0101 22.6067 82.2091 21.0282 82.2489 20.0698C82.2091 19.1678 81.9703 17.5329 81.652 15.6725C81.2939 13.8121 80.9357 12.2899 80.6174 11.4443C80.2593 10.655 79.5032 9.41477 78.5482 8.06175C77.5933 6.70873 76.7178 5.63758 76.1608 5.1302C75.5639 4.73557 74.4895 4.17182 73.1764 3.66444C71.8633 3.15706 70.7491 2.87517 70.0727 2.81879C64.4223 2.59329 53.9571 2.48053 42.0197 2.48053C30.0823 2.48053 19.6171 2.59329 13.9667 2.81879Z" fill="#8E37E2"/>
<path fill-rule="evenodd" clip-rule="evenodd" d="M69.9139 33.0926L70.0333 37.2644C70.67 37.208 71.8239 36.8698 73.137 36.4188C74.4104 35.9114 75.5245 35.404 76.1214 34.953L74.6491 31.3449C73.9727 31.7959 73.0575 32.1342 72.381 32.3597C71.6648 32.6416 70.67 32.9798 69.9139 33.0926Z" fill="url(#paint4_radial_51_1305)"/>
<path fill-rule="evenodd" clip-rule="evenodd" d="M74.6489 31.2886L76.1212 34.8967C76.6783 34.3893 77.5537 33.3182 78.5087 31.9652C79.4637 30.6121 80.2197 29.3719 80.5778 28.5826L78.0312 26.4967C77.5935 27.3423 76.917 28.3007 76.4395 29.0336C75.9222 29.7665 75.2458 30.7249 74.6489 31.2886Z" fill="url(#paint5_radial_51_1305)"/>
<path fill-rule="evenodd" clip-rule="evenodd" d="M78.0316 26.5529L80.5783 28.6389C80.8568 27.7932 81.2547 26.2711 81.6129 24.4107C81.971 22.5503 82.17 20.9717 82.2097 20.0133H79.2652C79.1856 21.0281 78.9468 22.3811 78.7479 23.3395C78.5887 24.2979 78.35 25.5945 78.0316 26.5529Z" fill="url(#paint6_radial_51_1305)"/>
<path fill-rule="evenodd" clip-rule="evenodd" d="M79.2652 20.0133H82.2097C82.17 19.1113 81.9312 17.4764 81.6129 15.616C81.2547 13.7556 80.8966 12.2335 80.5783 11.3878L78.0316 13.4737C78.35 14.4321 78.5887 15.7288 78.7479 16.6872C78.9468 17.6455 79.1856 18.9986 79.2652 20.0133Z" fill="url(#paint7_radial_51_1305)"/>
<path fill-rule="evenodd" clip-rule="evenodd" d="M78.0312 13.4738L80.5778 11.3879C80.2197 10.5986 79.4637 9.35834 78.5087 8.00532C77.5537 6.6523 76.6783 5.58116 76.1212 5.07378L74.6489 8.68183C75.2458 9.30196 75.9222 10.2603 76.4395 10.9368C76.917 11.6697 77.5935 12.6281 78.0312 13.4738Z" fill="url(#paint8_radial_51_1305)"/>
<path fill-rule="evenodd" clip-rule="evenodd" d="M74.6492 8.73825L76.1215 5.1302C75.5246 4.73556 74.4502 4.17182 73.1371 3.66443C71.824 3.15705 70.7098 2.87516 70.0334 2.81879L69.914 6.99061C70.67 7.04698 71.6648 7.4416 72.3811 7.72348C73.0575 7.94898 73.9727 8.28724 74.6492 8.73825Z" fill="url(#paint9_radial_51_1305)"/>
<path fill-rule="evenodd" clip-rule="evenodd" d="M9.35095 8.7382C8.75407 9.35833 8.07762 10.3167 7.56033 10.9932C7.08283 11.6698 6.40638 12.6281 5.96867 13.5302C5.65034 14.4885 5.41159 15.7852 5.25243 16.7436C5.05347 17.702 4.81472 18.9986 4.73514 20.0698C4.81472 21.0845 5.05347 22.4375 5.25243 23.3959C5.45138 24.3543 5.69013 25.651 5.96867 26.6094C6.40638 27.455 7.08283 28.4134 7.56033 29.1463C8.03783 29.8228 8.71428 30.7812 9.35095 31.4013C10.0274 31.8523 10.9426 32.1905 11.6191 32.4161C12.3353 32.6979 13.3301 33.0362 14.0861 33.1489C17.9459 33.2617 21.8057 33.3181 25.6257 33.3745C31.0771 33.4308 36.5285 33.4872 41.9799 33.4872C47.4314 33.4872 52.8828 33.4872 58.3342 33.3745C62.194 33.3181 66.0538 33.2617 69.8738 33.1489C70.6298 33.0926 71.6246 32.6979 72.3408 32.4161C73.0173 32.1342 73.9325 31.7959 74.6089 31.4013C75.2058 30.7812 75.8823 29.8228 76.3995 29.1463C76.877 28.4698 77.5535 27.5114 77.9912 26.6094C78.3095 25.651 78.5483 24.3543 78.7075 23.3959C78.9064 22.4375 79.1452 21.1409 79.2247 20.0698C79.1452 19.055 78.9064 17.702 78.7075 16.7436C78.5085 15.7852 78.2697 14.4885 77.9912 13.5302C77.5535 12.6845 76.877 11.7261 76.3995 10.9932C75.922 10.3167 75.2456 9.35833 74.6089 8.7382C73.9325 8.28719 73.0173 7.94893 72.3408 7.72343C71.6246 7.44155 70.6298 7.10331 69.8738 6.99056C66.014 6.87781 62.1542 6.82143 58.3342 6.76505C52.8828 6.70868 47.4314 6.6523 41.9799 6.6523C36.5285 6.6523 31.0771 6.6523 25.6257 6.76505C21.7659 6.82143 17.9061 6.87781 14.0861 6.99056C13.3301 7.04694 12.3353 7.44155 11.6191 7.72343C10.9426 7.94893 10.0274 8.28719 9.35095 8.7382Z" fill="url(#paint10_radial_51_1305)"/>
<path fill-rule="evenodd" clip-rule="evenodd" d="M14.0862 6.93414L13.9668 2.76234C13.3301 2.81872 12.1762 3.15696 10.8631 3.60797C9.54993 4.11535 8.47556 4.62275 7.87869 5.07375L9.35098 8.6818C10.0274 8.2308 10.9426 7.89254 11.6191 7.66704C12.3353 7.38516 13.3301 7.0469 14.0862 6.93414Z" fill="url(#paint11_radial_51_1305)"/>
<path fill-rule="evenodd" clip-rule="evenodd" d="M9.35065 8.73809L7.87837 5.13004C7.32129 5.63742 6.44588 6.70856 5.49088 8.06158C4.53589 9.4146 3.77985 10.6549 3.42172 11.4441L5.96838 13.53C6.40608 12.6844 7.08254 11.726 7.56003 10.9931C8.07732 10.2602 8.75378 9.30184 9.35065 8.73809Z" fill="url(#paint12_radial_51_1305)"/>
<path fill-rule="evenodd" clip-rule="evenodd" d="M6.00842 13.4737L3.46177 11.3878C3.18323 12.2335 2.78532 13.7556 2.42719 15.616C2.06907 17.4764 1.87011 19.0549 1.83032 20.0133H4.77489C4.85447 18.9986 5.09322 17.6455 5.29218 16.6872C5.45134 15.7288 5.69009 14.4321 6.00842 13.4737Z" fill="url(#paint13_radial_51_1305)"/>
<path fill-rule="evenodd" clip-rule="evenodd" d="M4.77489 20.0133H1.83032C1.87011 20.9153 2.10886 22.5503 2.42719 24.4107C2.78532 26.2711 3.14344 27.7932 3.46177 28.6389L6.00842 26.5529C5.69009 25.5945 5.45134 24.2979 5.29218 23.3395C5.09322 22.3811 4.81468 21.0281 4.77489 20.0133Z" fill="url(#paint14_radial_51_1305)"/>
<path fill-rule="evenodd" clip-rule="evenodd" d="M6.00817 26.5529L3.46152 28.6389C3.81964 29.4281 4.57568 30.6684 5.53067 32.0214C6.48567 33.3744 7.36108 34.4456 7.91816 34.953L9.39044 31.3449C8.79357 30.7248 8.11712 29.7664 7.59983 29.0899C7.08254 28.357 6.40608 27.3986 6.00817 26.5529Z" fill="url(#paint15_radial_51_1305)"/>
<path fill-rule="evenodd" clip-rule="evenodd" d="M9.35098 31.2885L7.87869 34.8965C8.47556 35.2912 9.54993 35.8549 10.8631 36.3623C12.1364 36.8697 13.2903 37.1516 13.9668 37.2079L14.0862 33.0361C13.3301 32.9798 12.3353 32.5851 11.6191 32.3032C10.9426 32.0777 10.0274 31.7395 9.35098 31.2885Z" fill="url(#paint16_radial_51_1305)"/>
<path fill-rule="evenodd" clip-rule="evenodd" d="M14.0862 6.93417C17.946 6.82141 21.8058 6.76503 25.6258 6.70866C31.0772 6.65228 36.5286 6.59592 41.98 6.59592C47.4315 6.59592 52.8829 6.5959 58.3343 6.70866C62.1941 6.76503 66.0539 6.82141 69.8739 6.93417L69.9932 2.76237C64.3428 2.53686 53.8777 2.4241 41.9402 2.4241C30.0028 2.4241 19.5377 2.53686 13.8873 2.76237L14.0862 6.93417Z" fill="url(#paint17_radial_51_1305)"/>
<path fill-rule="evenodd" clip-rule="evenodd" d="M25.6656 33.3181C21.8059 33.2617 17.9461 33.2053 14.1261 33.0926L14.0067 37.2644C19.6571 37.4899 30.1223 37.6027 42.0597 37.6027C53.9972 37.6027 64.4623 37.4899 70.1127 37.2644L69.9933 33.0926C66.1335 33.2053 62.2738 33.2617 58.4538 33.3181C53.0024 33.3745 47.5509 33.4309 42.0995 33.4309C36.5685 33.4309 31.1171 33.3745 25.6656 33.3181Z" fill="url(#paint18_radial_51_1305)"/>
<path opacity="0.35" fill-rule="evenodd" clip-rule="evenodd" d="M42.0199 36.2496C26.6206 36.2496 14.1261 34.8402 14.1261 33.0926L14.0067 37.2644C19.6571 37.4899 30.1223 37.6027 42.0597 37.6027C53.9972 37.6027 64.4623 37.4899 70.1127 37.2644L69.9933 33.0926C69.9137 34.8402 57.4192 36.2496 42.0199 36.2496Z" fill="url(#paint19_radial_51_1305)"/>
<path fill-rule="evenodd" clip-rule="evenodd" d="M7.87837 5.13022C9.35065 8.73827 5.96838 13.5302 3.42172 11.4443L5.96838 13.5302C6.40608 12.6846 7.08254 11.7262 7.56003 10.9933C8.03753 10.3168 8.71399 9.3584 9.35065 8.73827L7.87837 5.13022Z" fill="#AC73EF"/>
<path fill-rule="evenodd" clip-rule="evenodd" d="M3.46177 11.3878C6.00842 13.4737 4.77489 20.0133 1.83032 20.0133H4.77489C4.85447 18.9986 5.09322 17.6455 5.29218 16.6872C5.49114 15.7288 5.72988 14.4321 6.00842 13.4737L3.46177 11.3878Z" fill="#AC73EF"/>
<path fill-rule="evenodd" clip-rule="evenodd" d="M1.83032 20.0133C4.77489 20.0133 6.64509 25.9892 4.21781 28.0187L6.00842 26.5529C5.69009 25.5945 5.45134 24.2979 5.29218 23.3395C5.09322 22.3811 4.85447 21.0845 4.77489 20.0133H1.83032Z" fill="#AC73EF"/>
<path fill-rule="evenodd" clip-rule="evenodd" d="M76.1211 34.8965C74.6489 31.2885 78.0311 26.4965 80.5778 28.5824L78.0311 26.4965C77.5934 27.3422 76.917 28.3006 76.4395 29.0334C75.962 29.7099 75.2855 30.6683 74.6489 31.2885L76.1211 34.8965Z" fill="#AC73EF"/>
<path fill-rule="evenodd" clip-rule="evenodd" d="M80.5774 28.6389C78.0307 26.5529 79.2642 20.0133 82.2088 20.0133H79.2642C79.1846 21.0281 78.9459 22.3811 78.7469 23.3395C78.548 24.2979 78.3092 25.5945 78.0307 26.5529L80.5774 28.6389Z" fill="#AC73EF"/>
<path fill-rule="evenodd" clip-rule="evenodd" d="M82.2088 20.0134C79.2642 20.0134 77.394 14.0376 79.8213 12.0081L78.0307 13.4738C78.349 14.4322 78.5878 15.7289 78.7469 16.6872C78.9459 17.6456 79.1846 18.9423 79.2642 20.0134H82.2088Z" fill="#AC73EF"/>
<path fill-rule="evenodd" clip-rule="evenodd" d="M3.85981 11.7261C4.41689 12.3462 4.93418 12.9664 5.49127 13.5865L5.57085 13.9248C5.13314 15.7852 4.81481 17.7019 4.53627 19.5623L4.3771 19.7878C3.8996 19.8442 3.42211 19.957 2.94461 20.0133C3.42211 20.0697 3.8996 20.1261 4.3771 20.1825L4.57606 20.408C4.81481 21.4791 5.09335 22.5502 5.37189 23.6214C5.3321 23.5086 5.3321 23.3959 5.29231 23.2831C5.09335 22.3247 4.8546 21.0281 4.77502 19.957C4.8546 18.9422 5.09335 17.5892 5.29231 16.6308C5.49126 15.6724 5.73001 14.3758 6.00855 13.4174C6.44626 12.5717 7.12271 11.6133 7.60021 10.8805C8.07771 10.2039 8.75416 9.24554 9.39083 8.62541C10.0673 8.1744 10.9825 7.83615 11.6589 7.61064C12.3752 7.32876 13.37 6.99052 14.126 6.87777C17.9858 6.76502 21.8456 6.70864 25.6655 6.65226C31.117 6.59589 36.5684 6.53951 42.0198 6.53951C47.4713 6.53951 52.9227 6.53951 58.3741 6.65226C62.2339 6.70864 66.0937 6.76502 69.9136 6.87777C70.6697 6.93415 71.6645 7.32876 72.3807 7.61064C72.699 7.72339 73.0174 7.83617 73.3755 8.00529C72.3011 7.49791 71.187 6.99052 70.033 6.65226C69.9932 6.03213 69.9932 5.46837 69.9534 4.84824C69.8738 5.46837 69.8341 6.0885 69.7545 6.70863C51.2912 6.37037 32.7882 5.97575 14.4046 6.65226L14.2454 6.42675C14.1658 5.41199 14.0464 4.45361 13.9668 3.43884C13.9271 4.45361 13.927 5.41199 13.8873 6.42675L13.7281 6.65226C12.3354 6.99052 10.9427 7.55428 9.58978 8.17441L9.35103 8.06166C8.87354 7.10327 8.39604 6.14488 7.91854 5.24287C8.23687 6.31401 8.595 7.38514 8.91333 8.51265L8.87354 8.85092C7.83896 10.0912 6.92375 11.4442 6.00855 12.7972L5.7698 12.8536C5.17293 12.459 4.53627 12.1207 3.85981 11.7261Z" fill="#AC73EF"/>
<path fill-rule="evenodd" clip-rule="evenodd" d="M69.6355 33.7127C69.7548 34.5583 69.914 35.4603 70.0334 36.306C70.0732 35.4039 70.113 34.5583 70.1925 33.6563L70.3517 33.4308C71.7046 33.0362 73.0575 32.4724 74.4502 31.7959L74.689 31.9086C75.1665 32.867 75.6042 33.7691 76.0817 34.7274C75.7236 33.7127 75.4052 32.6979 75.0471 31.6831L75.0869 31.3449C76.1215 29.9919 77.1163 28.5825 78.0713 27.0603L78.31 27.004C78.7875 27.3422 79.3048 27.6241 79.7823 27.9623C79.3446 27.5677 78.9069 27.1167 78.509 26.7221L78.4294 26.3838C78.7079 24.918 78.9069 23.4523 79.066 21.9865C78.9865 22.4375 78.9069 22.9449 78.8273 23.3395C78.6283 24.2979 78.3896 25.5946 78.111 26.5529C77.6733 27.3986 76.9969 28.357 76.5194 29.0899C76.0419 29.7664 75.3654 30.7248 74.7288 31.3449C74.0523 31.7959 73.1371 32.1342 72.4607 32.3597C71.7444 32.6415 70.7496 32.9798 69.9936 33.0925C66.1338 33.2053 62.274 33.2617 58.4541 33.318C53.6393 33.3744 48.8245 33.4308 44.0098 33.4308C52.5251 33.7127 61.1599 33.5999 69.5559 33.4872L69.6355 33.7127Z" fill="#AC73EF"/>
<path fill-rule="evenodd" clip-rule="evenodd" d="M70.0729 2.81879C64.4225 2.59329 53.9574 2.48053 42.0199 2.48053C30.0825 2.48053 19.6173 2.59329 13.9669 2.81879C13.9669 3.10067 26.5411 3.32618 42.0199 3.32618C57.2203 3.32618 69.5556 3.10067 70.0729 2.81879Z" fill="url(#paint20_radial_51_1305)"/>
<path d="M24.6874 22.8821H9.0021V25.1763C8.99942 25.1987 8.99942 25.2214 9.0021 25.2438C9.0021 27.839 12.5078 29.9723 16.8448 29.9723C21.1818 29.9723 24.6874 27.8546 24.6874 25.2438C24.6874 25.2178 24.6874 25.1971 24.6874 25.1763V22.8821Z" fill="url(#paint21_linear_51_1305)"/>
<g style="mix-blend-mode:multiply">
<path style="mix-blend-mode:multiply" d="M9.00218 24.8752V24.9373C8.99952 24.9167 8.99952 24.8958 9.00218 24.8752H9.00218Z" fill="url(#paint22_linear_51_1305)"/>
<path opacity="0.5" d="M16.8447 29.4688C12.5077 29.4688 9.002 27.3511 9.002 24.7351V25.1763C8.99933 25.1987 8.99933 25.2213 9.002 25.2437C9.002 27.839 12.5077 29.9723 16.8447 29.9723C21.1817 29.9723 24.6873 27.8546 24.6873 25.2437C24.6873 25.2178 24.6873 25.197 24.6873 25.1763V24.7351C24.6873 27.3511 21.1767 29.4688 16.8447 29.4688Z" fill="url(#paint23_linear_51_1305)"/>
</g>
<g style="mix-blend-mode:multiply">
<g style="mix-blend-mode:multiply">
<path d="M19.2488 29.7236L19.4641 29.6769V23.6871H19.2488V29.7236Z" fill="#FDD65B"/>
</g>
<g style="mix-blend-mode:multiply">
<path d="M20.2304 29.5056L20.4507 29.4434V23.6871H20.2304V29.5056Z" fill="#FDD65B"/>
</g>
<g style="mix-blend-mode:multiply">
<path d="M21.217 29.1734L21.4374 29.0748V23.6871H21.217V29.1734Z" fill="#FDD65B"/>
</g>
<g style="mix-blend-mode:multiply">
<path d="M18.2623 29.8949H18.4827V23.6871H18.2623V29.8949Z" fill="#FDD65B"/>
</g>
<g style="mix-blend-mode:multiply">
<path d="M23.1851 28.0153L23.4054 27.8284V23.6761H23.1851V28.0153Z" fill="#FDD65B"/>
</g>
<g style="mix-blend-mode:multiply">
<path d="M24.1718 26.9156C24.2549 26.7865 24.3286 26.6512 24.3922 26.5107V23.6871H24.1718V26.9156Z" fill="#FDD65B"/>
</g>
<g style="mix-blend-mode:multiply">
<path d="M22.2036 28.685L22.424 28.5604V23.6814H22.2036V28.685Z" fill="#FDD65B"/>
</g>
<g style="mix-blend-mode:multiply">
<path d="M17.2757 29.9624H17.5161V23.6871H17.2957L17.2757 29.9624Z" fill="#FDD65B"/>
</g>
<g style="mix-blend-mode:multiply">
<path d="M16.2891 29.9572H16.5094V23.6871H16.2891V29.9572Z" fill="#FDD65B"/>
</g>
<g style="mix-blend-mode:multiply">
<path d="M14.3209 29.7236C14.396 29.7236 14.4661 29.7599 14.5412 29.7703V23.6871H14.3209V29.7236Z" fill="#FDD65B"/>
</g>
<g style="mix-blend-mode:multiply">
<path d="M15.3075 29.884H15.5279V23.6554H15.3075V29.884Z" fill="#FDD65B"/>
</g>
<g style="mix-blend-mode:multiply">
<path d="M13.3344 29.4693L13.5547 29.5368V23.6871H13.3344V29.4693Z" fill="#FDD65B"/>
</g>
<g style="mix-blend-mode:multiply">
<path d="M9.39291 26.7131C9.46303 26.8377 9.53314 26.9623 9.61327 27.0765V23.6871H9.39291V26.7131Z" fill="#FDD65B"/>
</g>
<g style="mix-blend-mode:multiply">
<path d="M10.3795 27.9174L10.5999 28.099V23.6871H10.3795V27.9174Z" fill="#FDD65B"/>
</g>
<g style="mix-blend-mode:multiply">
<path d="M12.3526 29.1164L12.568 29.2098V23.6871H12.3526V29.1164Z" fill="#FDD65B"/>
</g>
<g style="mix-blend-mode:multiply">
<path d="M11.3662 28.6232L11.5865 28.7478V23.6871H11.3662V28.6232Z" fill="#FDD65B"/>
</g>
</g>
<path d="M16.8451 27.6521C21.1764 27.6521 24.6877 25.5327 24.6877 22.9184C24.6877 20.304 21.1764 18.1847 16.8451 18.1847C12.5137 18.1847 9.00238 20.304 9.00238 22.9184C9.00238 25.5327 12.5137 27.6521 16.8451 27.6521Z" fill="url(#paint24_linear_51_1305)"/>
<path style="mix-blend-mode:screen" d="M16.8448 27.5224C12.6029 27.5224 9.16238 25.4929 9.00212 22.9755C8.99941 23.0309 8.99941 23.0863 9.00212 23.1416C9.00212 25.7369 12.5078 27.8702 16.8448 27.8702C21.1818 27.8702 24.6874 25.7524 24.6874 23.1416C24.6902 23.0863 24.6902 23.0309 24.6874 22.9755C24.5272 25.4929 21.0816 27.5224 16.8448 27.5224Z" fill="url(#paint25_radial_51_1305)"/>
<path d="M22.7043 22.9184C22.7043 24.87 20.0801 26.4531 16.8449 26.4531C13.6096 26.4531 11.0054 24.87 11.0054 22.9184C11.0054 20.9668 13.6297 19.3785 16.8699 19.3785C20.1102 19.3785 22.7043 20.9616 22.7043 22.9184Z" fill="url(#paint26_linear_51_1305)"/>
<path style="mix-blend-mode:screen" d="M17.0401 19.555C20.1702 19.555 22.7193 21.0395 22.8846 22.9028C22.8846 22.8406 22.8846 22.7783 22.8846 22.7108C22.8846 20.7592 20.2603 19.1761 17.0251 19.1761C13.7899 19.1761 11.1756 20.7592 11.1756 22.7108C11.1705 22.7747 11.1705 22.8389 11.1756 22.9028C11.3559 21.0395 13.9101 19.555 17.0401 19.555Z" fill="url(#paint27_radial_51_1305)"/>
<path style="mix-blend-mode:multiply" d="M16.8448 19.7574C19.9748 19.7574 22.5239 21.2419 22.6892 23.1053C22.6892 23.043 22.6892 22.9807 22.6892 22.9132C22.6892 20.9616 20.065 19.3785 16.8297 19.3785C13.5945 19.3785 11.0053 20.9616 11.0053 22.9132C11.0001 22.9771 11.0001 23.0414 11.0053 23.1053C11.1606 21.2419 13.7147 19.7574 16.8448 19.7574Z" fill="url(#paint28_linear_51_1305)"/>
<path style="mix-blend-mode:color-dodge" d="M20.9615 18.356C22.7244 18.9789 23.9113 20.2142 23.6158 21.1225C23.3203 22.0309 21.6476 22.2541 19.8848 21.6416C18.1219 21.0291 16.935 19.7834 17.2355 18.8802C17.536 17.9771 19.1987 17.7331 20.9615 18.356Z" fill="url(#paint29_radial_51_1305)"/>
<g style="mix-blend-mode:multiply">
<path style="mix-blend-mode:multiply" d="M17.2954 21.8024L16.8447 21.9114C16.7095 21.9478 16.5642 21.9893 16.409 22.0412C16.2537 22.0931 16.1085 22.1554 15.9683 22.2177L16.439 22.4979L16.5943 22.4408L16.7696 22.3786C17.035 22.2799 17.2704 22.1969 17.5208 22.1346C17.7404 22.0701 17.9649 22.0249 18.1919 21.9997C18.388 21.9735 18.5867 21.9735 18.7828 21.9997C18.9749 22.0361 19.1595 22.1063 19.3287 22.2073C19.4965 22.2918 19.6335 22.4301 19.7193 22.6018C19.7466 22.6691 19.7607 22.7415 19.7607 22.8146C19.7607 22.8876 19.7466 22.96 19.7193 23.0274C19.6534 23.1922 19.5524 23.3395 19.4239 23.4582C19.2713 23.6097 19.1034 23.7437 18.9231 23.8578L19.5591 24.2368L19.0583 24.5534L18.4122 24.1693C18.0744 24.3422 17.7265 24.493 17.3705 24.6208C17.0175 24.7524 16.6561 24.8582 16.2888 24.9375L15.9482 24.0707C16.1235 24.0343 16.3088 23.9928 16.4991 23.9409L17.03 23.7852C17.219 23.7211 17.4046 23.6466 17.5859 23.562L17.1251 23.2869C16.9599 23.3492 16.7896 23.4115 16.6243 23.4686C16.3909 23.5517 16.1535 23.6228 15.9132 23.6814C15.7195 23.731 15.5216 23.7606 15.3222 23.7696C15.1545 23.7801 14.9861 23.7678 14.8214 23.7333C14.6699 23.6979 14.5246 23.6383 14.3907 23.5568C14.2329 23.4735 14.101 23.3458 14.0101 23.1883C13.9427 23.0599 13.9231 22.9103 13.955 22.7678C13.998 22.607 14.075 22.4581 14.1804 22.3318C14.3173 22.1713 14.4739 22.0299 14.6461 21.9114L14.1153 21.5948L14.6411 21.2834L15.177 21.6C15.3373 21.5221 15.4975 21.4495 15.6778 21.3872C15.8581 21.3249 16.0033 21.2626 16.1786 21.2107L16.6444 21.0654L17.06 20.9564L17.2954 21.8024ZM15.5125 22.6744C15.5718 22.7091 15.6407 22.7219 15.7079 22.7108C15.8049 22.7009 15.9007 22.68 15.9933 22.6485L15.5977 22.4097C15.4524 22.5291 15.4274 22.6173 15.5125 22.6744ZM18.0166 23.1104C17.9508 23.0793 17.8778 23.0685 17.8062 23.0793C17.7025 23.0939 17.6003 23.1182 17.5008 23.1519L17.8864 23.3803C17.9865 23.3128 18.0416 23.2609 18.0567 23.2142C18.0717 23.1675 18.0917 23.1364 18.0466 23.1104H18.0166Z" fill="url(#paint30_linear_51_1305)"/>
</g>
<path d="M17.2955 21.6L16.8447 21.709C16.7095 21.7454 16.5643 21.7869 16.409 21.8388C16.2538 21.8907 16.1085 21.953 15.9683 22.0153L16.4391 22.2955L16.5943 22.2384L16.7696 22.1762C17.035 22.0775 17.2704 21.9945 17.5208 21.9322C17.7404 21.8677 17.9649 21.8225 18.1919 21.7973C18.3881 21.7711 18.5867 21.7711 18.7829 21.7973C18.9749 21.8337 19.1595 21.9039 19.3287 22.0049C19.4965 22.0894 19.6335 22.2277 19.7194 22.3994C19.7466 22.4667 19.7607 22.5391 19.7607 22.6122C19.7607 22.6852 19.7466 22.7576 19.7194 22.825C19.6522 22.9891 19.5513 23.1361 19.4239 23.2558C19.2714 23.4073 19.1034 23.5413 18.9231 23.6555L19.5591 24.0344L19.0583 24.351L18.4123 23.9669C18.0745 24.1398 17.7266 24.2906 17.3706 24.4185C17.0176 24.55 16.6561 24.6558 16.2888 24.7351L15.9483 23.8683C16.1236 23.8319 16.3089 23.7904 16.4992 23.7385L17.015 23.5984C17.204 23.5343 17.3896 23.4598 17.5709 23.3752L17.1102 23.1001C16.9449 23.1624 16.7746 23.2246 16.6093 23.2817C16.3759 23.3649 16.1385 23.4359 15.8982 23.4945C15.7045 23.5442 15.5066 23.5738 15.3072 23.5828C15.1395 23.5932 14.9711 23.581 14.8064 23.5465C14.6549 23.5111 14.5096 23.4515 14.3757 23.37C14.218 23.2867 14.086 23.1589 13.9951 23.0015C13.9277 22.873 13.9081 22.7234 13.94 22.581C13.9831 22.4202 14.06 22.2713 14.1654 22.145C14.3023 21.9845 14.4589 21.8431 14.6312 21.7246L14.0903 21.4184L14.6161 21.1069L15.152 21.4235C15.3123 21.3457 15.4725 21.273 15.6528 21.2107C15.8331 21.1484 15.9783 21.0862 16.1536 21.0343L16.6194 20.8889L17.035 20.7799L17.2955 21.6ZM15.5126 22.4564C15.5718 22.4911 15.6407 22.5039 15.7079 22.4928C15.8107 22.493 15.9133 22.4808 16.0134 22.4564L15.6177 22.2177C15.4525 22.3267 15.4274 22.4149 15.5126 22.4564ZM18.0166 22.8925C17.9509 22.8613 17.8778 22.8505 17.8063 22.8613C17.7064 22.8903 17.6092 22.9285 17.5158 22.9755L17.9014 23.2039C18.0016 23.1364 18.0567 23.0845 18.0717 23.0378C18.0867 22.9911 18.0917 22.934 18.0467 22.908L18.0166 22.8925Z" fill="url(#paint31_linear_51_1305)"/>
<path style="mix-blend-mode:color-dodge" d="M17.2955 21.6L16.8447 21.709C16.7095 21.7454 16.5643 21.7869 16.409 21.8388C16.2538 21.8907 16.1085 21.953 15.9683 22.0153L16.4391 22.2955L16.5943 22.2384L16.7696 22.1762C17.035 22.0775 17.2704 21.9945 17.5208 21.9322C17.7404 21.8677 17.9649 21.8225 18.1919 21.7973C18.3881 21.7711 18.5867 21.7711 18.7829 21.7973C18.9749 21.8337 19.1595 21.9039 19.3287 22.0049C19.4965 22.0894 19.6335 22.2277 19.7194 22.3994C19.7466 22.4667 19.7607 22.5391 19.7607 22.6122C19.7607 22.6852 19.7466 22.7576 19.7194 22.825C19.6522 22.9891 19.5513 23.1361 19.4239 23.2558C19.2714 23.4073 19.1034 23.5413 18.9231 23.6555L19.5591 24.0344L19.0583 24.351L18.4123 23.9669C18.0745 24.1398 17.7266 24.2906 17.3706 24.4185C17.0176 24.55 16.6561 24.6558 16.2888 24.7351L15.9483 23.8683C16.1236 23.8319 16.3089 23.7904 16.4992 23.7385L17.015 23.5984C17.204 23.5343 17.3896 23.4598 17.5709 23.3752L17.1102 23.1001C16.9449 23.1624 16.7746 23.2246 16.6093 23.2817C16.3759 23.3649 16.1385 23.4359 15.8982 23.4945C15.7045 23.5442 15.5066 23.5738 15.3072 23.5828C15.1395 23.5932 14.9711 23.581 14.8064 23.5465C14.6549 23.5111 14.5096 23.4515 14.3757 23.37C14.218 23.2867 14.086 23.1589 13.9951 23.0015C13.9277 22.873 13.9081 22.7234 13.94 22.581C13.9831 22.4202 14.06 22.2713 14.1654 22.145C14.3023 21.9845 14.4589 21.8431 14.6312 21.7246L14.0903 21.4184L14.6161 21.1069L15.152 21.4235C15.3123 21.3457 15.4725 21.273 15.6528 21.2107C15.8331 21.1484 15.9783 21.0862 16.1536 21.0343L16.6194 20.8889L17.035 20.7799L17.2955 21.6ZM15.5126 22.4564C15.5718 22.4911 15.6407 22.5039 15.7079 22.4928C15.8107 22.493 15.9133 22.4808 16.0134 22.4564L15.6177 22.2177C15.4525 22.3267 15.4274 22.4149 15.5126 22.4564ZM18.0166 22.8925C17.9509 22.8613 17.8778 22.8505 17.8063 22.8613C17.7064 22.8903 17.6092 22.9285 17.5158 22.9755L17.9014 23.2039C18.0016 23.1364 18.0567 23.0845 18.0717 23.0378C18.0867 22.9911 18.0917 22.934 18.0467 22.908L18.0166 22.8925Z" fill="url(#paint32_radial_51_1305)"/>
<path d="M24.6875 20.3179H9.00212V22.6121C8.99966 22.6328 8.99966 22.6537 9.00212 22.6744C9.00212 25.2696 12.5078 27.4081 16.8448 27.4081C21.1818 27.4081 24.6875 25.2904 24.6875 22.6744C24.6875 22.6744 24.6875 22.6329 24.6875 22.6121V20.3179Z" fill="url(#paint33_linear_51_1305)"/>
<g style="mix-blend-mode:multiply">
<path style="mix-blend-mode:multiply" d="M9.00235 22.307V22.375C8.99966 22.3524 8.99966 22.3296 9.00235 22.307Z" fill="url(#paint34_linear_51_1305)"/>
<path opacity="0.5" d="M16.8448 26.9047C12.5078 26.9047 9.00212 24.7817 9.00212 22.1709V22.6121C8.99966 22.6328 8.99966 22.6537 9.00212 22.6744C9.00212 25.2697 12.5078 27.4082 16.8448 27.4082C21.1818 27.4082 24.6875 25.2904 24.6875 22.6744C24.6875 22.6744 24.6875 22.6329 24.6875 22.6121V22.1709C24.6875 24.7817 21.1768 26.9047 16.8448 26.9047Z" fill="url(#paint35_linear_51_1305)"/>
</g>
<g style="mix-blend-mode:multiply">
<g style="mix-blend-mode:multiply">
<path d="M19.2488 27.1792L19.4641 27.1325V21.1219H19.2488V27.1792Z" fill="#FDD65B"/>
</g>
<g style="mix-blend-mode:multiply">
<path d="M20.2304 26.9405L20.4507 26.8782V21.1219H20.2304V26.9405Z" fill="#FDD65B"/>
</g>
<g style="mix-blend-mode:multiply">
<path d="M21.217 26.6083L21.4374 26.5097V21.1219H21.217V26.6083Z" fill="#FDD65B"/>
</g>
<g style="mix-blend-mode:multiply">
<path d="M18.2623 27.3298H18.4827V21.1219H18.2623V27.3298Z" fill="#FDD65B"/>
</g>
<g style="mix-blend-mode:multiply">
<path d="M23.1851 25.4513L23.4054 25.2645V21.1121H23.1851V25.4513Z" fill="#FDD65B"/>
</g>
<g style="mix-blend-mode:multiply">
<path d="M24.1718 24.3504C24.2539 24.2207 24.3275 24.0854 24.3922 23.9456V21.1219H24.1718V24.3504Z" fill="#FDD65B"/>
</g>
<g style="mix-blend-mode:multiply">
<path d="M22.2036 26.1256L22.424 26.001V21.1219H22.2036V26.1256Z" fill="#FDD65B"/>
</g>
<g style="mix-blend-mode:multiply">
<path d="M17.2757 27.3972H17.496V21.1219H17.2757V27.3972Z" fill="#FDD65B"/>
</g>
<g style="mix-blend-mode:multiply">
<path d="M16.2891 27.392H16.5144V21.1219H16.2941L16.2891 27.392Z" fill="#FDD65B"/>
</g>
<g style="mix-blend-mode:multiply">
<path d="M14.3209 27.1533L14.5412 27.2V21.1219H14.3209V27.1533Z" fill="#FDD65B"/>
</g>
<g style="mix-blend-mode:multiply">
<path d="M15.3075 27.3148H15.5279V21.0862H15.3075V27.3148Z" fill="#FDD65B"/>
</g>
<g style="mix-blend-mode:multiply">
<path d="M13.3344 26.9041L13.5547 26.9664V21.1219H13.3344V26.9041Z" fill="#FDD65B"/>
</g>
<g style="mix-blend-mode:multiply">
<path d="M9.39291 24.148C9.46303 24.2726 9.53314 24.3919 9.61327 24.5113V21.1219H9.39291V24.148Z" fill="#FDD65B"/>
</g>
<g style="mix-blend-mode:multiply">
<path d="M10.3795 25.3522C10.4497 25.4145 10.5248 25.4716 10.5999 25.5287V21.1219H10.3795V25.3522Z" fill="#FDD65B"/>
</g>
<g style="mix-blend-mode:multiply">
<path d="M12.3526 26.5512L12.568 26.6395V21.1219H12.3526V26.5512Z" fill="#FDD65B"/>
</g>
<g style="mix-blend-mode:multiply">
<path d="M11.3662 26.0581L11.5865 26.1775V21.1219H11.3662V26.0581Z" fill="#FDD65B"/>
</g>
</g>
<path d="M16.8451 25.0828C21.1764 25.0828 24.6877 22.9635 24.6877 20.3491C24.6877 17.7348 21.1764 15.6154 16.8451 15.6154C12.5137 15.6154 9.00238 17.7348 9.00238 20.3491C9.00238 22.9635 12.5137 25.0828 16.8451 25.0828Z" fill="url(#paint36_linear_51_1305)"/>
<path style="mix-blend-mode:screen" d="M16.8451 24.9583C12.6032 24.9583 9.16264 22.9236 9.00238 20.3803C9.00238 20.4322 9.00238 20.4893 9.00238 20.5412C9.00238 23.1364 12.508 25.2749 16.8451 25.2749C21.1821 25.2749 24.6877 23.1572 24.6877 20.5412C24.6877 20.4893 24.6877 20.4322 24.6877 20.3803C24.5275 22.9236 21.0819 24.9583 16.8451 24.9583Z" fill="url(#paint37_radial_51_1305)"/>
<path d="M22.7043 20.3491C22.7043 22.3059 20.0801 23.889 16.8449 23.889C13.6096 23.889 11.0054 22.3059 11.0054 20.3491C11.0054 18.3923 13.6297 16.8143 16.8699 16.8143C20.1102 16.8143 22.7043 18.3974 22.7043 20.3491Z" fill="url(#paint38_linear_51_1305)"/>
<path style="mix-blend-mode:screen" d="M17.0401 16.9909C20.1702 16.9909 22.7193 18.4702 22.8846 20.3387C22.8846 20.2764 22.8846 20.2141 22.8846 20.1467C22.8846 18.1951 20.2603 16.612 17.0251 16.612C13.7899 16.612 11.1606 18.1691 11.1606 20.1467C11.1554 20.2106 11.1554 20.2748 11.1606 20.3387C11.3559 18.4702 13.9101 16.9909 17.0401 16.9909Z" fill="url(#paint39_radial_51_1305)"/>
<path style="mix-blend-mode:multiply" d="M16.8448 17.1933C19.9748 17.1933 22.5239 18.6777 22.6892 20.5412C22.6892 20.4789 22.6892 20.4166 22.6892 20.3491C22.6892 18.3975 20.065 16.8143 16.8297 16.8143C13.5945 16.8143 11.0053 18.3975 11.0053 20.3491C11.0001 20.413 11.0001 20.4772 11.0053 20.5412C11.1606 18.6777 13.7147 17.1933 16.8448 17.1933Z" fill="url(#paint40_linear_51_1305)"/>
<path style="mix-blend-mode:color-dodge" d="M20.9615 15.7919C22.7244 16.4148 23.9113 17.6501 23.6158 18.5532C23.3203 19.4564 21.6476 19.6899 19.8848 19.0723C18.1219 18.4546 16.935 17.2141 17.2355 16.3109C17.536 15.4078 19.1987 15.1898 20.9615 15.7919Z" fill="url(#paint41_radial_51_1305)"/>
<g style="mix-blend-mode:multiply">
<path style="mix-blend-mode:multiply" d="M17.2955 19.2383L16.8448 19.3473C16.7095 19.3837 16.5643 19.4252 16.4091 19.4771C16.2591 19.5274 16.112 19.5863 15.9683 19.6536L16.4391 19.9339L16.5944 19.8768L16.7696 19.8145C17.0367 19.7141 17.2871 19.6311 17.5208 19.5653C17.7411 19.5048 17.9654 19.4615 18.1919 19.4356C18.3881 19.4094 18.5867 19.4094 18.7829 19.4356C18.9749 19.472 19.1596 19.5422 19.3288 19.6432C19.4966 19.7277 19.6336 19.866 19.7194 20.0377C19.7467 20.1051 19.7607 20.1774 19.7607 20.2505C19.7607 20.3236 19.7467 20.3959 19.7194 20.4633C19.6532 20.6264 19.5521 20.772 19.4239 20.8889C19.2716 21.0422 19.1036 21.1779 18.9231 21.2938L19.5591 21.6727L19.0583 21.9893L18.4123 21.6C18.0756 21.7768 17.7275 21.9294 17.3706 22.0568C17.0169 22.1859 16.6555 22.2917 16.2889 22.3734L15.9483 21.5066C16.1236 21.4702 16.3089 21.4287 16.4992 21.3768L17.0301 21.2211C17.2191 21.157 17.4046 21.0825 17.586 20.9979L17.1252 20.7228C16.9599 20.7851 16.7897 20.8474 16.6244 20.9045C16.3909 20.9877 16.1536 21.0587 15.9133 21.1173C15.7191 21.1645 15.5214 21.194 15.3223 21.2055C15.1543 21.217 14.9856 21.2031 14.8215 21.164C14.6703 21.1302 14.525 21.0724 14.3908 20.9927C14.2315 20.9092 14.0992 20.7793 14.0102 20.619C13.9422 20.4927 13.9225 20.3444 13.9551 20.2038C13.9952 20.0417 14.0725 19.8922 14.1805 19.7678C14.3174 19.6072 14.474 19.4659 14.6462 19.3473L14.1154 19.0307L14.6412 18.7141L15.1771 19.0359C15.3373 18.9581 15.4976 18.8854 15.6779 18.8231C15.8582 18.7608 16.0034 18.6985 16.1787 18.6466C16.354 18.5947 16.4992 18.5428 16.6444 18.5013L17.0601 18.3871L17.2955 19.2383ZM15.5126 20.1103C15.5727 20.1426 15.6408 20.1552 15.7079 20.1467C15.805 20.1368 15.9007 20.116 15.9934 20.0844L15.6128 19.8612C15.4525 19.9598 15.4275 20.048 15.5126 20.1103ZM18.0166 20.5463C17.9516 20.5126 17.8778 20.5017 17.8063 20.5152C17.7027 20.5278 17.6004 20.5504 17.5008 20.5827L17.8864 20.8162C17.9567 20.778 18.0156 20.7206 18.0567 20.6501C18.1068 20.6086 18.0918 20.5723 18.0467 20.5463H18.0166Z" fill="url(#paint42_linear_51_1305)"/>
</g>
<path d="M17.2955 19.0359L16.8448 19.1449C16.7095 19.1812 16.5643 19.2228 16.4091 19.2747C16.2538 19.3266 16.1086 19.3837 15.9683 19.446L16.4391 19.7314L16.5944 19.6743L16.7696 19.612C17.0367 19.5117 17.2871 19.4287 17.5208 19.3629C17.7411 19.3024 17.9654 19.259 18.1919 19.2331C18.3881 19.207 18.5867 19.207 18.7829 19.2331C18.9749 19.2696 19.1596 19.3398 19.3288 19.4408C19.4966 19.5252 19.6336 19.6636 19.7194 19.8352C19.7467 19.9026 19.7607 19.975 19.7607 20.0481C19.7607 20.1211 19.7467 20.1935 19.7194 20.2609C19.6532 20.424 19.5521 20.5695 19.4239 20.6865C19.2716 20.8398 19.1036 20.9755 18.9231 21.0914L19.5591 21.4703L19.0583 21.7869L18.3872 21.4184C18.0505 21.5952 17.7025 21.7478 17.3456 21.8751C16.9918 22.0043 16.6305 22.11 16.2638 22.1917L15.9233 21.3249C16.0986 21.2886 16.2839 21.2471 16.4742 21.1952L17.005 21.0394C17.194 20.9754 17.3796 20.9009 17.5609 20.8163L17.1002 20.5412C16.9349 20.6034 16.7646 20.6657 16.5994 20.7228C16.3389 20.8111 16.0986 20.8837 15.8882 20.9356C15.6941 20.9828 15.4963 21.0123 15.2973 21.0239C15.1293 21.0354 14.9605 21.0214 14.7965 20.9823C14.6452 20.9486 14.5 20.8908 14.3658 20.8111C14.215 20.7222 14.0917 20.5908 14.0102 20.4322C13.9422 20.3058 13.9225 20.1576 13.9551 20.0169C13.9952 19.8549 14.0725 19.7053 14.1805 19.5809C14.3174 19.4203 14.474 19.279 14.6462 19.1605L14.0903 18.8231L14.6162 18.5065L15.152 18.8283C15.3123 18.7504 15.4725 18.6778 15.6528 18.6155C15.8331 18.5532 15.9784 18.4909 16.1536 18.439C16.3289 18.3871 16.4742 18.3352 16.6194 18.2937L17.015 18.2002L17.2955 19.0359ZM15.5126 19.9079C15.5727 19.9402 15.6408 19.9528 15.7079 19.9442C15.8126 19.9293 15.9151 19.9014 16.0134 19.8612L15.6178 19.6224C15.4525 19.7574 15.4275 19.8612 15.5126 19.9079ZM18.0166 20.3439C17.9516 20.3102 17.8778 20.2993 17.8063 20.3128C17.7078 20.3263 17.6105 20.3489 17.5158 20.3802L17.9015 20.6138C17.9718 20.5756 18.0306 20.5181 18.0717 20.4477C18.1068 20.4062 18.0918 20.3802 18.0467 20.3439H18.0166Z" fill="url(#paint43_linear_51_1305)"/>
<path style="mix-blend-mode:color-dodge" d="M17.2955 19.0359L16.8448 19.1449C16.7095 19.1812 16.5643 19.2228 16.4091 19.2747C16.2538 19.3266 16.1086 19.3837 15.9683 19.446L16.4391 19.7314L16.5944 19.6743L16.7696 19.612C17.0367 19.5117 17.2871 19.4287 17.5208 19.3629C17.7411 19.3024 17.9654 19.259 18.1919 19.2331C18.3881 19.207 18.5867 19.207 18.7829 19.2331C18.9749 19.2696 19.1596 19.3398 19.3288 19.4408C19.4966 19.5252 19.6336 19.6636 19.7194 19.8352C19.7467 19.9026 19.7607 19.975 19.7607 20.0481C19.7607 20.1211 19.7467 20.1935 19.7194 20.2609C19.6532 20.424 19.5521 20.5695 19.4239 20.6865C19.2716 20.8398 19.1036 20.9755 18.9231 21.0914L19.5591 21.4703L19.0583 21.7869L18.3872 21.4184C18.0505 21.5952 17.7025 21.7478 17.3456 21.8751C16.9918 22.0043 16.6305 22.11 16.2638 22.1917L15.9233 21.3249C16.0986 21.2886 16.2839 21.2471 16.4742 21.1952L17.005 21.0394C17.194 20.9754 17.3796 20.9009 17.5609 20.8163L17.1002 20.5412C16.9349 20.6034 16.7646 20.6657 16.5994 20.7228C16.3389 20.8111 16.0986 20.8837 15.8882 20.9356C15.6941 20.9828 15.4963 21.0123 15.2973 21.0239C15.1293 21.0354 14.9605 21.0214 14.7965 20.9823C14.6452 20.9486 14.5 20.8908 14.3658 20.8111C14.215 20.7222 14.0917 20.5908 14.0102 20.4322C13.9422 20.3058 13.9225 20.1576 13.9551 20.0169C13.9952 19.8549 14.0725 19.7053 14.1805 19.5809C14.3174 19.4203 14.474 19.279 14.6462 19.1605L14.0903 18.8231L14.6162 18.5065L15.152 18.8283C15.3123 18.7504 15.4725 18.6778 15.6528 18.6155C15.8331 18.5532 15.9784 18.4909 16.1536 18.439C16.3289 18.3871 16.4742 18.3352 16.6194 18.2937L17.015 18.2002L17.2955 19.0359ZM15.5126 19.9079C15.5727 19.9402 15.6408 19.9528 15.7079 19.9442C15.8126 19.9293 15.9151 19.9014 16.0134 19.8612L15.6178 19.6224C15.4525 19.7574 15.4275 19.8612 15.5126 19.9079ZM18.0166 20.3439C17.9516 20.3102 17.8778 20.2993 17.8063 20.3128C17.7078 20.3263 17.6105 20.3489 17.5158 20.3802L17.9015 20.6138C17.9718 20.5756 18.0306 20.5181 18.0717 20.4477C18.1068 20.4062 18.0918 20.3802 18.0467 20.3439H18.0166Z" fill="url(#paint44_radial_51_1305)"/>
<path d="M24.6875 17.6189H9.00212V19.9131C8.99966 19.9338 8.99966 19.9547 9.00212 19.9754C9.00212 22.5706 12.5078 24.7091 16.8448 24.7091C21.1818 24.7091 24.6875 22.5914 24.6875 19.9754C24.6875 19.9754 24.6875 19.9338 24.6875 19.9131V17.6189Z" fill="url(#paint45_linear_51_1305)"/>
<g style="mix-blend-mode:multiply">
<path style="mix-blend-mode:multiply" d="M9.00217 19.6069V19.6749C8.99928 19.6523 8.99928 19.6295 9.00217 19.6069Z" fill="url(#paint46_linear_51_1305)"/>
<path opacity="0.5" d="M16.8449 24.2004C12.5079 24.2004 9.00224 22.0827 9.00224 19.4719V19.9131C8.99978 19.9338 8.99978 19.9547 9.00224 19.9754C9.00224 22.5706 12.5079 24.7091 16.8449 24.7091C21.1819 24.7091 24.6876 22.5914 24.6876 19.9754C24.6876 19.9754 24.6876 19.9339 24.6876 19.9131V19.4719C24.6876 22.0827 21.1769 24.2004 16.8449 24.2004Z" fill="url(#paint47_linear_51_1305)"/>
</g>
<g style="mix-blend-mode:multiply">
<g style="mix-blend-mode:multiply">
<path d="M19.2488 24.481L19.4641 24.4343V18.4237H19.2488V24.481Z" fill="#FDD65B"/>
</g>
<g style="mix-blend-mode:multiply">
<path d="M20.2304 24.2422L20.4507 24.1748V18.4237H20.2304V24.2422Z" fill="#FDD65B"/>
</g>
<g style="mix-blend-mode:multiply">
<path d="M21.217 23.9049L21.4374 23.8063V18.4237H21.217V23.9049Z" fill="#FDD65B"/>
</g>
<g style="mix-blend-mode:multiply">
<path d="M18.2623 24.6263H18.4827V18.4237H18.2623V24.6263Z" fill="#FDD65B"/>
</g>
<g style="mix-blend-mode:multiply">
<path d="M23.1851 22.7522L23.4054 22.5654V18.413H23.1851V22.7522Z" fill="#FDD65B"/>
</g>
<g style="mix-blend-mode:multiply">
<path d="M24.1718 21.6522C24.2528 21.5218 24.3264 21.3867 24.3922 21.2474V18.4237H24.1718V21.6522Z" fill="#FDD65B"/>
</g>
<g style="mix-blend-mode:multiply">
<path d="M22.2036 23.4273L22.424 23.3028V18.4237H22.2036V23.4273Z" fill="#FDD65B"/>
</g>
<g style="mix-blend-mode:multiply">
<path d="M17.2757 24.6938H17.5161V18.4237H17.2957L17.2757 24.6938Z" fill="#FDD65B"/>
</g>
<g style="mix-blend-mode:multiply">
<path d="M16.2891 24.6938H16.5144V18.4237H16.2941L16.2891 24.6938Z" fill="#FDD65B"/>
</g>
<g style="mix-blend-mode:multiply">
<path d="M14.3209 24.455L14.5412 24.5018V18.4237H14.3209V24.455Z" fill="#FDD65B"/>
</g>
<g style="mix-blend-mode:multiply">
<path d="M15.3075 24.6156H15.5279V18.3871H15.3075V24.6156Z" fill="#FDD65B"/>
</g>
<g style="mix-blend-mode:multiply">
<path d="M13.3344 24.2059L13.5547 24.2682V18.4237H13.3344V24.2059Z" fill="#FDD65B"/>
</g>
<g style="mix-blend-mode:multiply">
<path d="M9.39291 21.4498C9.46303 21.5743 9.53314 21.6937 9.61327 21.8131V18.4237H9.39291V21.4498Z" fill="#FDD65B"/>
</g>
<g style="mix-blend-mode:multiply">
<path d="M10.3795 22.654C10.4497 22.7162 10.5248 22.7733 10.5999 22.8304V18.4237H10.3795V22.654Z" fill="#FDD65B"/>
</g>
<g style="mix-blend-mode:multiply">
<path d="M12.3526 23.8529L12.568 23.9412V18.4237H12.3526V23.8529Z" fill="#FDD65B"/>
</g>
<g style="mix-blend-mode:multiply">
<path d="M11.3662 23.3598L11.5865 23.4792V18.4237H11.3662V23.3598Z" fill="#FDD65B"/>
</g>
</g>
<path d="M16.8451 22.3838C21.1764 22.3838 24.6877 20.2644 24.6877 17.6501C24.6877 15.0357 21.1764 12.9163 16.8451 12.9163C12.5137 12.9163 9.00238 15.0357 9.00238 17.6501C9.00238 20.2644 12.5137 22.3838 16.8451 22.3838Z" fill="url(#paint48_linear_51_1305)"/>
<path style="mix-blend-mode:screen" d="M16.8451 22.254C12.6032 22.254 9.16264 20.2245 9.00238 17.6864C9.00238 17.7435 9.00238 17.7954 9.00238 17.8525C9.00238 20.4477 12.508 22.5862 16.8451 22.5862C21.1821 22.5862 24.6877 20.4685 24.6877 17.8525C24.6877 17.7954 24.6877 17.7435 24.6877 17.6864C24.5275 20.2245 21.0819 22.254 16.8451 22.254Z" fill="url(#paint49_radial_51_1305)"/>
<path d="M22.7043 17.6501C22.7043 19.6017 20.0801 21.19 16.8449 21.19C13.6096 21.19 11.0054 19.6017 11.0054 17.6501C11.0054 15.6985 13.6046 14.1102 16.8449 14.1102C20.0851 14.1102 22.7043 15.7088 22.7043 17.6501Z" fill="url(#paint50_linear_51_1305)"/>
<path style="mix-blend-mode:screen" d="M17.04 14.2918C20.1701 14.2918 22.7192 15.7711 22.8845 17.6397C22.8845 17.5722 22.8845 17.5099 22.8845 17.4476C22.8845 15.496 20.2602 13.9077 17.025 13.9077C13.7898 13.9077 11.1756 15.496 11.1756 17.4476C11.1709 17.5116 11.1709 17.5757 11.1756 17.6397C11.3559 15.7711 13.91 14.2918 17.04 14.2918Z" fill="url(#paint51_radial_51_1305)"/>
<path style="mix-blend-mode:multiply" d="M16.8447 14.4943C19.9748 14.4943 22.5239 15.9736 22.6891 17.8421C22.6891 17.7746 22.6891 17.7123 22.6891 17.6501C22.6891 15.6985 20.0649 14.1102 16.8297 14.1102C13.5944 14.1102 11.0053 15.7088 11.0053 17.6501C11.0006 17.714 11.0006 17.7782 11.0053 17.8421C11.1605 15.9736 13.7146 14.4943 16.8447 14.4943Z" fill="url(#paint52_linear_51_1305)"/>
<path style="mix-blend-mode:color-dodge" d="M23.6135 15.855C23.9103 14.9513 22.7224 13.7147 20.9603 13.093C19.1982 12.4713 17.5291 12.6998 17.2322 13.6035C16.9354 14.5071 18.1233 15.7437 19.8854 16.3654C21.6476 16.9872 23.3167 16.7586 23.6135 15.855Z" fill="url(#paint53_radial_51_1305)"/>
<g style="mix-blend-mode:multiply">
<path style="mix-blend-mode:multiply" d="M17.2955 16.5393C17.1434 16.5669 16.9929 16.6033 16.8447 16.6483C16.7095 16.6795 16.5643 16.7262 16.409 16.7781C16.2538 16.83 16.1085 16.8871 15.9683 16.9494L16.4391 17.2348L16.5943 17.1726L16.7696 17.1103C17.035 17.0168 17.2704 16.9338 17.5208 16.8663C17.7408 16.8069 17.9653 16.7669 18.1919 16.7469C18.3877 16.7155 18.587 16.7155 18.7829 16.7469C18.9755 16.7811 19.1605 16.8514 19.3287 16.9546C19.4965 17.039 19.6335 17.1774 19.7194 17.349C19.7466 17.4164 19.7607 17.4888 19.7607 17.5618C19.7607 17.6349 19.7466 17.7073 19.7194 17.7746C19.6531 17.9378 19.5521 18.0833 19.4239 18.2003C19.2702 18.352 19.1025 18.4876 18.9231 18.6051L19.5591 18.984L19.0583 19.2954L18.4123 18.9113C18.0755 19.0882 17.7275 19.2408 17.3706 19.3681C17.0168 19.4973 16.6555 19.603 16.2888 19.6847L15.9232 18.8231C16.0985 18.7868 16.2838 18.7453 16.4741 18.6933C16.6644 18.6414 16.8097 18.5999 17.005 18.5324C17.1957 18.4713 17.3815 18.3949 17.5609 18.3041L17.1001 18.029C16.9332 18.0947 16.7663 18.157 16.5993 18.2158C16.3389 18.3041 16.0985 18.3767 15.8882 18.4286C15.6936 18.4732 15.4961 18.5027 15.2972 18.5169C15.1293 18.5257 14.9609 18.5117 14.7964 18.4754C14.6449 18.44 14.4996 18.3804 14.3657 18.2989C14.2059 18.2186 14.0733 18.0901 13.9851 17.9304C13.9176 17.8039 13.8979 17.6558 13.93 17.5151C13.9702 17.3531 14.0475 17.2035 14.1554 17.0791C14.2923 16.9186 14.4489 16.7772 14.6211 16.6587L14.0903 16.3421L14.6161 16.0255L15.152 16.3473C15.3123 16.2694 15.4725 16.1967 15.6528 16.1293L16.1536 15.9528L16.6194 15.8127L17.015 15.7088L17.2955 16.5393ZM15.5126 17.4113C15.5727 17.4436 15.6407 17.4562 15.7079 17.4476C15.805 17.4378 15.9007 17.4169 15.9934 17.3854L15.5977 17.1466C15.4525 17.266 15.4274 17.349 15.5126 17.4113ZM18.0166 17.8473C17.9516 17.8136 17.8778 17.8027 17.8063 17.8162C17.7027 17.8288 17.6004 17.8514 17.5008 17.8836L17.8864 18.1172C17.9567 18.079 18.0156 18.0215 18.0567 17.9511C18.1068 17.9096 18.0917 17.8733 18.0467 17.8473H18.0166Z" fill="url(#paint54_linear_51_1305)"/>
</g>
<path d="M17.2955 16.3369C17.1434 16.3645 16.993 16.4009 16.8448 16.4459C16.7096 16.477 16.5643 16.5238 16.4091 16.5757C16.2538 16.6276 16.1086 16.6847 15.9684 16.7469L16.4391 17.0324L16.5944 16.9701L16.7697 16.9078C17.0351 16.8144 17.2705 16.7314 17.5209 16.6639C17.7406 16.6009 17.9651 16.5575 18.192 16.5341C18.3878 16.5027 18.5871 16.5027 18.7829 16.5341C18.9756 16.5683 19.1606 16.6386 19.3288 16.7418C19.4966 16.8262 19.6336 16.9646 19.7194 17.1362C19.7467 17.2036 19.7608 17.276 19.7608 17.349C19.7608 17.4221 19.7467 17.4945 19.7194 17.5618C19.6532 17.725 19.5522 17.8705 19.424 17.9875C19.2703 18.1392 19.1025 18.2748 18.9231 18.3923L19.5592 18.7712L19.0584 19.0826L18.4123 18.6986C18.0756 18.8754 17.7276 19.028 17.3706 19.1553C17.0169 19.2845 16.6556 19.3902 16.2889 19.4719L15.9483 18.6051C16.1236 18.5688 16.3089 18.5273 16.4992 18.4754C16.6895 18.4235 16.8348 18.3819 17.0301 18.3145C17.2206 18.255 17.4065 18.1803 17.586 18.0913L17.1252 17.8162C16.9583 17.8854 16.7914 17.9477 16.6244 18.003C16.364 18.0913 16.1236 18.1639 15.9133 18.2158C15.7187 18.2604 15.5212 18.2899 15.3223 18.3041C15.1544 18.3129 14.986 18.2989 14.8215 18.2626C14.67 18.2272 14.5247 18.1676 14.3908 18.0861C14.2331 18.0099 14.1007 17.8871 14.0102 17.7331C13.9427 17.6066 13.923 17.4586 13.9551 17.3179C13.9952 17.1559 14.0726 17.0063 14.1805 16.8819C14.3174 16.7213 14.474 16.58 14.6462 16.4615L14.1154 16.1449L14.6412 15.8282L15.1771 16.15C15.3373 16.0722 15.4976 15.9995 15.6779 15.932C15.8582 15.8646 16.0034 15.8075 16.1787 15.7556L16.6445 15.6154L17.0151 15.5012L17.2955 16.3369ZM15.5126 17.2089C15.5727 17.2411 15.6408 17.2538 15.7079 17.2452C15.805 17.2354 15.9008 17.2145 15.9934 17.1829L15.5978 16.9442C15.4525 17.0584 15.4275 17.1466 15.5126 17.2089ZM18.0167 17.6449C17.9517 17.6112 17.8779 17.6002 17.8063 17.6137C17.7027 17.6264 17.6004 17.649 17.5008 17.6812L17.8865 17.9148C17.9568 17.8765 18.0157 17.8191 18.0567 17.7487C18.1068 17.7072 18.0918 17.6708 18.0467 17.6449H18.0167Z" fill="url(#paint55_linear_51_1305)"/>
<path style="mix-blend-mode:color-dodge" d="M17.2955 16.3369C17.1434 16.3645 16.993 16.4009 16.8448 16.4459C16.7096 16.477 16.5643 16.5238 16.4091 16.5757C16.2538 16.6276 16.1086 16.6847 15.9684 16.7469L16.4391 17.0324L16.5944 16.9701L16.7697 16.9078C17.0351 16.8144 17.2705 16.7314 17.5209 16.6639C17.7406 16.6009 17.9651 16.5575 18.192 16.5341C18.3878 16.5027 18.5871 16.5027 18.7829 16.5341C18.9756 16.5683 19.1606 16.6386 19.3288 16.7418C19.4966 16.8262 19.6336 16.9646 19.7194 17.1362C19.7467 17.2036 19.7608 17.276 19.7608 17.349C19.7608 17.4221 19.7467 17.4945 19.7194 17.5618C19.6532 17.725 19.5522 17.8705 19.424 17.9875C19.2703 18.1392 19.1025 18.2748 18.9231 18.3923L19.5592 18.7712L19.0584 19.0826L18.4123 18.6986C18.0756 18.8754 17.7276 19.028 17.3706 19.1553C17.0169 19.2845 16.6556 19.3902 16.2889 19.4719L15.9483 18.6051C16.1236 18.5688 16.3089 18.5273 16.4992 18.4754C16.6895 18.4235 16.8348 18.3819 17.0301 18.3145C17.2206 18.255 17.4065 18.1803 17.586 18.0913L17.1252 17.8162C16.9583 17.8854 16.7914 17.9477 16.6244 18.003C16.364 18.0913 16.1236 18.1639 15.9133 18.2158C15.7187 18.2604 15.5212 18.2899 15.3223 18.3041C15.1544 18.3129 14.986 18.2989 14.8215 18.2626C14.67 18.2272 14.5247 18.1676 14.3908 18.0861C14.2331 18.0099 14.1007 17.8871 14.0102 17.7331C13.9427 17.6066 13.923 17.4586 13.9551 17.3179C13.9952 17.1559 14.0726 17.0063 14.1805 16.8819C14.3174 16.7213 14.474 16.58 14.6462 16.4615L14.1154 16.1449L14.6412 15.8282L15.1771 16.15C15.3373 16.0722 15.4976 15.9995 15.6779 15.932C15.8582 15.8646 16.0034 15.8075 16.1787 15.7556L16.6445 15.6154L17.0151 15.5012L17.2955 16.3369ZM15.5126 17.2089C15.5727 17.2411 15.6408 17.2538 15.7079 17.2452C15.805 17.2354 15.9008 17.2145 15.9934 17.1829L15.5978 16.9442C15.4525 17.0584 15.4275 17.1466 15.5126 17.2089ZM18.0167 17.6449C17.9517 17.6112 17.8779 17.6002 17.8063 17.6137C17.7027 17.6264 17.6004 17.649 17.5008 17.6812L17.8865 17.9148C17.9568 17.8765 18.0157 17.8191 18.0567 17.7487C18.1068 17.7072 18.0918 17.6708 18.0467 17.6449H18.0167Z" fill="url(#paint56_radial_51_1305)"/>
<path d="M24.6875 14.8731H9.00214V17.1673C8.99965 17.1897 8.99965 17.2123 9.00214 17.2348C9.00214 19.83 12.5078 21.9685 16.8448 21.9685C21.1818 21.9685 24.6875 19.8611 24.6875 17.2348C24.6875 17.2348 24.6875 17.188 24.6875 17.1673V14.8731Z" fill="url(#paint57_linear_51_1305)"/>
<g style="mix-blend-mode:multiply">
<path style="mix-blend-mode:multiply" d="M9.00233 16.8672V16.9294C8.99967 16.9088 8.99967 16.8879 9.00233 16.8672H9.00233Z" fill="url(#paint58_linear_51_1305)"/>
<path opacity="0.5" d="M16.8448 21.4599C12.5078 21.4599 9.00214 19.3422 9.00214 16.7469V17.1881C8.99965 17.2105 8.99965 17.2332 9.00214 17.2556C9.00214 19.8509 12.5078 21.9894 16.8448 21.9894C21.1818 21.9894 24.6875 19.8612 24.6875 17.2348C24.6875 17.2348 24.6875 17.1881 24.6875 17.1674V16.7469C24.6875 19.3422 21.1768 21.4599 16.8448 21.4599Z" fill="url(#paint59_linear_51_1305)"/>
</g>
<g style="mix-blend-mode:multiply">
<g style="mix-blend-mode:multiply">
<path d="M19.2488 21.7407L19.4641 21.6888V15.6783H19.2488V21.7407Z" fill="#FDD65B"/>
</g>
<g style="mix-blend-mode:multiply">
<path d="M20.2304 21.4968L20.4507 21.4345V15.6783H20.2304V21.4968Z" fill="#FDD65B"/>
</g>
<g style="mix-blend-mode:multiply">
<path d="M21.217 21.1646L21.4374 21.066V15.6783H21.217V21.1646Z" fill="#FDD65B"/>
</g>
<g style="mix-blend-mode:multiply">
<path d="M18.2623 21.8861H18.4827V15.6783H18.2623V21.8861Z" fill="#FDD65B"/>
</g>
<g style="mix-blend-mode:multiply">
<path d="M23.1851 20.0064C23.2619 19.9485 23.3355 19.8861 23.4054 19.8195V15.6671H23.1851V20.0064Z" fill="#FDD65B"/>
</g>
<g style="mix-blend-mode:multiply">
<path d="M24.1718 18.9067C24.2538 18.7788 24.3274 18.6453 24.3922 18.5071V15.6783H24.1718V18.9067Z" fill="#FDD65B"/>
</g>
<g style="mix-blend-mode:multiply">
<path d="M22.2036 20.6819L22.424 20.5574V15.6783H22.2036V20.6819Z" fill="#FDD65B"/>
</g>
<g style="mix-blend-mode:multiply">
<path d="M17.2757 21.938H17.5161V15.6783H17.2957L17.2757 21.938Z" fill="#FDD65B"/>
</g>
<g style="mix-blend-mode:multiply">
<path d="M16.2891 21.938H16.5144V15.6783H16.2941L16.2891 21.938Z" fill="#FDD65B"/>
</g>
<g style="mix-blend-mode:multiply">
<path d="M14.3209 21.7096C14.396 21.7096 14.4661 21.746 14.5412 21.7563V15.6783H14.3209V21.7096Z" fill="#FDD65B"/>
</g>
<g style="mix-blend-mode:multiply">
<path d="M15.3075 21.8751H15.5279V15.6465H15.3075V21.8751Z" fill="#FDD65B"/>
</g>
<g style="mix-blend-mode:multiply">
<path d="M13.3344 21.4604L13.5547 21.5279V15.6783H13.3344V21.4604Z" fill="#FDD65B"/>
</g>
<g style="mix-blend-mode:multiply">
<path d="M9.39291 18.7095C9.46303 18.8289 9.53314 18.9535 9.61327 19.0677V15.6783H9.39291V18.7095Z" fill="#FDD65B"/>
</g>
<g style="mix-blend-mode:multiply">
<path d="M10.3795 19.9137L10.5999 20.0902V15.6783H10.3795V19.9137Z" fill="#FDD65B"/>
</g>
<g style="mix-blend-mode:multiply">
<path d="M12.3526 21.1075L12.568 21.2009V15.6783H12.3526V21.1075Z" fill="#FDD65B"/>
</g>
<g style="mix-blend-mode:multiply">
<path d="M11.3662 20.6196L11.5865 20.739V15.6783H11.3662V20.6196Z" fill="#FDD65B"/>
</g>
</g>
<path d="M16.8451 19.6435C21.1764 19.6435 24.6877 17.5241 24.6877 14.9097C24.6877 12.2953 21.1764 10.176 16.8451 10.176C12.5137 10.176 9.00238 12.2953 9.00238 14.9097C9.00238 17.5241 12.5137 19.6435 16.8451 19.6435Z" fill="url(#paint60_linear_51_1305)"/>
<path style="mix-blend-mode:screen" d="M16.8451 19.5134C12.6032 19.5134 9.16264 17.4839 9.00238 14.9457C9.00238 15.0028 9.00238 15.0547 9.00238 15.1118C9.00238 17.7227 12.508 19.8612 16.8451 19.8612C21.1821 19.8612 24.6877 17.7382 24.6877 15.1274C24.6877 15.0703 24.6877 15.0184 24.6877 14.9613C24.5275 17.4839 21.0819 19.5134 16.8451 19.5134Z" fill="url(#paint61_radial_51_1305)"/>
<path d="M22.7043 14.9095C22.7043 16.8611 20.0801 18.4442 16.8449 18.4442C13.6096 18.4442 11.0054 16.8611 11.0054 14.9095C11.0054 12.9578 13.6046 11.3696 16.8449 11.3696C20.0851 11.3696 22.7043 12.9526 22.7043 14.9095Z" fill="url(#paint62_linear_51_1305)"/>
<path style="mix-blend-mode:screen" d="M17.0401 11.5565C20.1701 11.5565 22.7192 13.0305 22.8845 14.8939C22.8845 14.8316 22.8845 14.7693 22.8845 14.707C22.8845 12.7502 20.2603 11.1672 17.025 11.1672C13.7898 11.1672 11.1756 12.7502 11.1756 14.707C11.1707 14.7692 11.1707 14.8317 11.1756 14.8939C11.3559 13.0305 13.91 11.5565 17.0401 11.5565Z" fill="url(#paint63_radial_51_1305)"/>
<path style="mix-blend-mode:multiply" d="M16.8447 11.7485C19.9748 11.7485 22.5239 13.233 22.6892 15.0964C22.6892 15.0341 22.6892 14.9718 22.6892 14.9095C22.6892 12.9527 20.0649 11.3696 16.8297 11.3696C13.5945 11.3696 11.0053 12.9527 11.0053 14.9095C11.0004 14.9717 11.0004 15.0342 11.0053 15.0964C11.1606 13.233 13.7147 11.7485 16.8447 11.7485Z" fill="url(#paint64_linear_51_1305)"/>
<path style="mix-blend-mode:color-dodge" d="M13.5094 14.8576C15.0769 15.3039 15.773 17.868 15.0619 20.5671C14.3507 23.2661 12.4977 25.1399 10.9252 24.7195C9.35263 24.299 8.66151 21.709 9.37266 19.0099C10.0838 16.3109 11.9568 14.4164 13.5094 14.8576Z" fill="url(#paint65_radial_51_1305)"/>
<path style="mix-blend-mode:color-dodge" d="M20.9615 10.347C22.7244 10.9699 23.9113 12.2104 23.6158 13.1136C23.3203 14.0167 21.6476 14.2451 19.8848 13.6326C18.1219 13.0202 16.935 11.764 17.2355 10.8609C17.536 9.95775 19.1987 9.72936 20.9615 10.347Z" fill="url(#paint66_radial_51_1305)"/>
<g style="mix-blend-mode:multiply">
<path style="mix-blend-mode:multiply" d="M17.2954 13.7987C17.1502 13.7987 16.9999 13.861 16.8447 13.9025C16.6894 13.9441 16.5642 13.9804 16.409 14.0375C16.2537 14.0946 16.1085 14.1465 15.9683 14.2088L16.439 14.4891L16.5943 14.432L16.7696 14.3697C17.035 14.2711 17.2704 14.1932 17.5208 14.1257C17.741 14.0637 17.9653 14.0186 18.1919 13.9908C18.3879 13.9619 18.5868 13.9619 18.7828 13.9908C18.9752 14.023 19.1603 14.0916 19.3287 14.1932C19.4971 14.2793 19.6341 14.4195 19.7193 14.5929C19.7466 14.6603 19.7607 14.7326 19.7607 14.8057C19.7607 14.8788 19.7466 14.9511 19.7193 15.0185C19.6519 15.181 19.5511 15.3262 19.4239 15.4441C19.2713 15.5957 19.1034 15.7297 18.9231 15.8438L19.5591 16.2227L19.0583 16.5393L18.4122 16.1552C18.0745 16.3299 17.7266 16.4824 17.3705 16.612C17.0174 16.7419 16.656 16.846 16.2888 16.9234L15.9482 16.0566L16.4991 15.932C16.6544 15.8905 16.8347 15.8334 17.03 15.7711C17.2198 15.7093 17.4055 15.6348 17.5859 15.5479L17.1251 15.2728L16.6243 15.4597C16.3639 15.5479 16.1235 15.6154 15.9132 15.6673C15.7195 15.717 15.5216 15.7465 15.3222 15.7556C15.1545 15.7687 14.9858 15.7565 14.8214 15.7192C14.6699 15.6838 14.5246 15.6243 14.3907 15.5427C14.234 15.4651 14.1019 15.3426 14.0101 15.1898C13.9427 15.0614 13.9231 14.9118 13.955 14.7694C13.998 14.6085 14.075 14.4596 14.1804 14.3334C14.3173 14.1728 14.4739 14.0314 14.6461 13.9129L14.1153 13.5963L14.6411 13.2849L15.152 13.6326C15.3122 13.5548 15.4725 13.4821 15.6528 13.4198C15.8331 13.3575 15.9783 13.2953 16.1536 13.2433L16.6193 13.1032L17.015 12.9631L17.2954 13.7987ZM15.5125 14.6707C15.5721 14.7048 15.6402 14.7193 15.7079 14.7123C15.8115 14.6972 15.9137 14.6729 16.0133 14.6396L15.6177 14.406C15.4524 14.5202 15.4274 14.6085 15.5125 14.6707ZM18.0166 15.1067C17.9503 15.0776 17.8773 15.0686 17.8062 15.0808C17.7022 15.0909 17.5997 15.1135 17.5008 15.1483L17.8864 15.3766C17.9865 15.3092 18.0416 15.2573 18.0567 15.2157C18.0717 15.1742 18.0917 15.1327 18.0466 15.1016L18.0166 15.1067Z" fill="url(#paint67_linear_51_1305)"/>
</g>
<path d="M17.2954 13.5963C17.1502 13.6222 16.9999 13.6586 16.8447 13.7001C16.6894 13.7416 16.5642 13.778 16.409 13.835C16.2537 13.8921 16.1085 13.944 15.9683 14.0063L16.439 14.2866L16.5943 14.2295L16.7696 14.1517C17.035 14.053 17.2704 13.9752 17.5208 13.9077C17.741 13.8457 17.9653 13.8006 18.1919 13.7728C18.3879 13.7439 18.5868 13.7439 18.7828 13.7728C18.9752 13.8049 19.1603 13.8736 19.3287 13.9752C19.4971 14.0613 19.6341 14.2015 19.7193 14.3749C19.7466 14.4422 19.7607 14.5146 19.7607 14.5877C19.7607 14.6607 19.7466 14.7331 19.7193 14.8005C19.6519 14.963 19.5511 15.1082 19.4239 15.2261C19.2713 15.3776 19.1034 15.5116 18.9231 15.6258L19.5591 16.0047L19.0583 16.3213L18.4122 15.9372C18.0745 16.1118 17.7266 16.2644 17.3705 16.3939C17.0174 16.5238 16.656 16.6279 16.2888 16.7054L15.9482 15.8386L16.4991 15.714C16.6544 15.6725 16.8347 15.6154 17.03 15.5531C17.2198 15.4913 17.4055 15.4167 17.5859 15.3299L17.1251 15.0548L16.6243 15.2417C16.3639 15.3299 16.1235 15.3974 15.9132 15.4493C15.7195 15.499 15.5216 15.5285 15.3222 15.5375C15.1545 15.548 14.9861 15.5357 14.8214 15.5012C14.6699 15.4658 14.5246 15.4063 14.3907 15.3247C14.2366 15.2527 14.1048 15.1377 14.0101 14.9925C13.9427 14.8641 13.9231 14.7145 13.955 14.5721C13.9926 14.4189 14.0608 14.2757 14.1553 14.1517C14.2923 13.9911 14.4488 13.8498 14.6211 13.7312L14.0902 13.4146L14.6161 13.1136L15.152 13.4302C15.3122 13.3523 15.4725 13.2797 15.6528 13.2174C15.8331 13.1551 15.9783 13.0928 16.1536 13.0409L16.6193 12.9008L17.015 12.7606L17.2954 13.5963ZM15.5125 14.4631C15.5721 14.4971 15.6402 14.5116 15.7079 14.5046C15.8114 14.4912 15.9136 14.4687 16.0133 14.4371L15.6127 14.2036C15.4524 14.3178 15.4274 14.406 15.5125 14.4631ZM18.0166 14.8991C17.9479 14.8786 17.875 14.8786 17.8062 14.8991C17.7022 14.9092 17.5997 14.9318 17.5008 14.9666L17.8864 15.1949C17.9865 15.1275 18.0416 15.0756 18.0567 15.034C18.0717 14.9925 18.0917 14.9302 18.0466 14.8991H18.0166Z" fill="url(#paint68_linear_51_1305)"/>
<path style="mix-blend-mode:color-dodge" d="M17.2954 13.5963C17.1502 13.6222 16.9999 13.6586 16.8447 13.7001C16.6894 13.7416 16.5642 13.778 16.409 13.835C16.2537 13.8921 16.1085 13.944 15.9683 14.0063L16.439 14.2866L16.5943 14.2295L16.7696 14.1517C17.035 14.053 17.2704 13.9752 17.5208 13.9077C17.741 13.8457 17.9653 13.8006 18.1919 13.7728C18.3879 13.7439 18.5868 13.7439 18.7828 13.7728C18.9752 13.8049 19.1603 13.8736 19.3287 13.9752C19.4971 14.0613 19.6341 14.2015 19.7193 14.3749C19.7466 14.4422 19.7607 14.5146 19.7607 14.5877C19.7607 14.6607 19.7466 14.7331 19.7193 14.8005C19.6519 14.963 19.5511 15.1082 19.4239 15.2261C19.2713 15.3776 19.1034 15.5116 18.9231 15.6258L19.5591 16.0047L19.0583 16.3213L18.4122 15.9372C18.0745 16.1118 17.7266 16.2644 17.3705 16.3939C17.0174 16.5238 16.656 16.6279 16.2888 16.7054L15.9482 15.8386L16.4991 15.714C16.6544 15.6725 16.8347 15.6154 17.03 15.5531C17.2198 15.4913 17.4055 15.4167 17.5859 15.3299L17.1251 15.0548L16.6243 15.2417C16.3639 15.3299 16.1235 15.3974 15.9132 15.4493C15.7195 15.499 15.5216 15.5285 15.3222 15.5375C15.1545 15.548 14.9861 15.5357 14.8214 15.5012C14.6699 15.4658 14.5246 15.4063 14.3907 15.3247C14.2366 15.2527 14.1048 15.1377 14.0101 14.9925C13.9427 14.8641 13.9231 14.7145 13.955 14.5721C13.9926 14.4189 14.0608 14.2757 14.1553 14.1517C14.2923 13.9911 14.4488 13.8498 14.6211 13.7312L14.0902 13.4146L14.6161 13.1136L15.152 13.4302C15.3122 13.3523 15.4725 13.2797 15.6528 13.2174C15.8331 13.1551 15.9783 13.0928 16.1536 13.0409L16.6193 12.9008L17.015 12.7606L17.2954 13.5963ZM15.5125 14.4631C15.5721 14.4971 15.6402 14.5116 15.7079 14.5046C15.8114 14.4912 15.9136 14.4687 16.0133 14.4371L15.6127 14.2036C15.4524 14.3178 15.4274 14.406 15.5125 14.4631ZM18.0166 14.8991C17.9479 14.8786 17.875 14.8786 17.8062 14.8991C17.7022 14.9092 17.5997 14.9318 17.5008 14.9666L17.8864 15.1949C17.9865 15.1275 18.0416 15.0756 18.0567 15.034C18.0717 14.9925 18.0917 14.9302 18.0466 14.8991H18.0166Z" fill="url(#paint69_radial_51_1305)"/>
<defs>
<linearGradient id="paint0_linear_51_1305" x1="42.014" y1="40.0122" x2="42.014" y2="-0.0422814" gradientUnits="userSpaceOnUse">
<stop stop-color="#3B3A52"/>
<stop offset="1" stop-color="#8292AB"/>
</linearGradient>
<linearGradient id="paint1_linear_51_1305" x1="41.9741" y1="39.9626" x2="41.9741" y2="18.3031" gradientUnits="userSpaceOnUse">
<stop stop-color="#3B3A52"/>
<stop offset="1" stop-color="#8292AB"/>
</linearGradient>
<linearGradient id="paint2_linear_51_1305" x1="42.014" y1="40.0122" x2="42.014" y2="-0.0422814" gradientUnits="userSpaceOnUse">
<stop stop-color="#4A4D61"/>
<stop offset="1" stop-color="#46435E"/>
</linearGradient>
<linearGradient id="paint3_linear_51_1305" x1="42.014" y1="38.4387" x2="42.014" y2="1.58414" gradientUnits="userSpaceOnUse">
<stop stop-color="#707E94"/>
<stop offset="1" stop-color="#3E3C54"/>
</linearGradient>
<radialGradient id="paint4_radial_51_1305" cx="0" cy="0" r="1" gradientUnits="userSpaceOnUse" gradientTransform="translate(76.9327 44.0351) rotate(180) scale(13.5892 19.2529)">
<stop stop-color="#7C83D6"/>
<stop offset="1" stop-color="#7B24D6"/>
</radialGradient>
<radialGradient id="paint5_radial_51_1305" cx="0" cy="0" r="1" gradientUnits="userSpaceOnUse" gradientTransform="translate(77.8831 34.2275) rotate(180) scale(13.4869 19.108)">
<stop stop-color="#BF91FF"/>
<stop offset="1" stop-color="#7C56D6"/>
</radialGradient>
<radialGradient id="paint6_radial_51_1305" cx="0" cy="0" r="1" gradientUnits="userSpaceOnUse" gradientTransform="translate(93.3299 30.2129) rotate(180) scale(15.6675 22.1975)">
<stop stop-color="#A38FD6"/>
<stop offset="1" stop-color="#7C56D6"/>
</radialGradient>
<radialGradient id="paint7_radial_51_1305" cx="0" cy="0" r="1" gradientUnits="userSpaceOnUse" gradientTransform="translate(98.4697 9.53307) rotate(180) scale(28.8221 40.8347)">
<stop stop-color="#7C83D6"/>
<stop offset="1" stop-color="#7B24D6"/>
</radialGradient>
<radialGradient id="paint8_radial_51_1305" cx="0" cy="0" r="1" gradientUnits="userSpaceOnUse" gradientTransform="translate(73.7194 -2.9609) rotate(180) scale(13.5693 19.2247)">
<stop stop-color="#907CD6"/>
<stop offset="1" stop-color="#7230E3"/>
</radialGradient>
<radialGradient id="paint9_radial_51_1305" cx="0" cy="0" r="1" gradientUnits="userSpaceOnUse" gradientTransform="translate(64.1164 -0.694553) rotate(180) scale(21.4842 30.4384)">
<stop stop-color="#896BD6"/>
<stop offset="1" stop-color="#5F00D6"/>
</radialGradient>
<radialGradient id="paint10_radial_51_1305" cx="0" cy="0" r="1" gradientUnits="userSpaceOnUse" gradientTransform="translate(16.7132 -3.69548) scale(84.5155 119.74)">
<stop stop-color="#9F73FF"/>
<stop offset="1" stop-color="#4F1DA3"/>
</radialGradient>
<radialGradient id="paint11_radial_51_1305" cx="0" cy="0" r="1" gradientUnits="userSpaceOnUse" gradientTransform="translate(7.0956 -4.0129) scale(13.5892 19.2529)">
<stop stop-color="#907CD6"/>
<stop offset="1" stop-color="#7230E3"/>
</radialGradient>
<radialGradient id="paint12_radial_51_1305" cx="0" cy="0" r="1" gradientUnits="userSpaceOnUse" gradientTransform="translate(6.14425 5.79527) scale(13.4873 19.1086)">
<stop stop-color="#BF91FF"/>
<stop offset="1" stop-color="#7C56D6"/>
</radialGradient>
<radialGradient id="paint13_radial_51_1305" cx="0" cy="0" r="1" gradientUnits="userSpaceOnUse" gradientTransform="translate(-9.30173 9.80988) scale(15.6675 22.1974)">
<stop stop-color="#A38FD6"/>
<stop offset="1" stop-color="#7C56D6"/>
</radialGradient>
<radialGradient id="paint14_radial_51_1305" cx="0" cy="0" r="1" gradientUnits="userSpaceOnUse" gradientTransform="translate(-14.4416 30.4897) scale(28.8221 40.8348)">
<stop stop-color="#7C83D6"/>
<stop offset="1" stop-color="#7B24D6"/>
</radialGradient>
<radialGradient id="paint15_radial_51_1305" cx="0" cy="0" r="1" gradientUnits="userSpaceOnUse" gradientTransform="translate(-3.80997 37.9144) scale(13.5705 19.2264)">
<stop stop-color="#A57CD6"/>
<stop offset="1" stop-color="#6F36BA"/>
</radialGradient>
<radialGradient id="paint16_radial_51_1305" cx="0" cy="0" r="1" gradientUnits="userSpaceOnUse" gradientTransform="translate(4.52825 55.0503) scale(21.4842 30.4384)">
<stop stop-color="#896BD6"/>
<stop offset="1" stop-color="#511F82"/>
</radialGradient>
<radialGradient id="paint17_radial_51_1305" cx="0" cy="0" r="1" gradientUnits="userSpaceOnUse" gradientTransform="translate(30.4334 -53.5446) scale(49.4309 70.0328)">
<stop stop-color="#D9B8FF"/>
<stop offset="1" stop-color="#C194FF"/>
</radialGradient>
<radialGradient id="paint18_radial_51_1305" cx="0" cy="0" r="1" gradientUnits="userSpaceOnUse" gradientTransform="translate(32.7756 -13.7165) scale(50.7516 71.9043)">
<stop stop-color="#8259B5"/>
<stop offset="1" stop-color="#5522A3"/>
</radialGradient>
<radialGradient id="paint19_radial_51_1305" cx="0" cy="0" r="1" gradientUnits="userSpaceOnUse" gradientTransform="translate(42.014 35.3172) scale(42.9656 60.8732)">
<stop stop-color="#986FBF"/>
<stop offset="1"/>
</radialGradient>
<radialGradient id="paint20_radial_51_1305" cx="0" cy="0" r="1" gradientUnits="userSpaceOnUse" gradientTransform="translate(42.014 2.88588) scale(55.2548 78.2848)">
<stop stop-color="#9C3AFF"/>
<stop offset="1"/>
</radialGradient>
<linearGradient id="paint21_linear_51_1305" x1="10.4044" y1="24.4026" x2="16.0769" y2="33.1334" gradientUnits="userSpaceOnUse">
<stop stop-color="#F5CB16"/>
<stop offset="0.2764" stop-color="#FEF687"/>
<stop offset="0.338" stop-color="#F5E063"/>
<stop offset="0.4168" stop-color="#EBC83C"/>
<stop offset="0.4796" stop-color="#E5B924"/>
<stop offset="0.5182" stop-color="#E3B31B"/>
<stop offset="0.6535" stop-color="#F0D24E"/>
<stop offset="0.7911" stop-color="#FFF585"/>
<stop offset="0.8728" stop-color="#FBE254"/>
<stop offset="0.9573" stop-color="#F7D227"/>
<stop offset="1" stop-color="#F5CB16"/>
</linearGradient>
<linearGradient id="paint22_linear_51_1305" x1="9.00018" y1="26.661" x2="9.0002" y2="26.661" gradientUnits="userSpaceOnUse">
<stop stop-color="#FFBB96"/>
<stop offset="0.23" stop-color="#FFFBC9"/>
<stop offset="0.54" stop-color="#F9B673"/>
<stop offset="0.64" stop-color="#F9B876"/>
<stop offset="0.72" stop-color="#FABE81"/>
<stop offset="0.81" stop-color="#FCC993"/>
<stop offset="0.86" stop-color="#FED2A3"/>
<stop offset="0.97" stop-color="#FFC28C"/>
</linearGradient>
<linearGradient id="paint23_linear_51_1305" x1="16.0863" y1="27.4707" x2="16.3002" y2="26.8828" gradientUnits="userSpaceOnUse">
<stop stop-color="#A37903"/>
<stop offset="0.0669" stop-color="#B28E2B"/>
<stop offset="0.1603" stop-color="#C4A95C"/>
<stop offset="0.2587" stop-color="#D4C088"/>
<stop offset="0.3602" stop-color="#E1D3AD"/>
<stop offset="0.4659" stop-color="#ECE3CB"/>
<stop offset="0.5769" stop-color="#F4EFE2"/>
<stop offset="0.6958" stop-color="#FAF8F2"/>
<stop offset="0.8279" stop-color="#FEFDFC"/>
<stop offset="1" stop-color="white"/>
</linearGradient>
<linearGradient id="paint24_linear_51_1305" x1="31.3335" y1="7.80371" x2="15.4417" y2="23.2322" gradientUnits="userSpaceOnUse">
<stop offset="0.04" stop-color="#FFBA78"/>
<stop offset="0.4" stop-color="#FFC987"/>
<stop offset="1" stop-color="#FEECA8"/>
</linearGradient>
<radialGradient id="paint25_radial_51_1305" cx="0" cy="0" r="1" gradientUnits="userSpaceOnUse" gradientTransform="translate(13.4743 26.3961) scale(9.85591 10.2149)">
<stop stop-color="white"/>
<stop offset="1"/>
</radialGradient>
<linearGradient id="paint26_linear_51_1305" x1="341.383" y1="105.83" x2="198.406" y2="343.813" gradientUnits="userSpaceOnUse">
<stop offset="0.04" stop-color="#FFBA78"/>
<stop offset="0.4" stop-color="#FFC987"/>
<stop offset="1" stop-color="#FEECA8"/>
</linearGradient>
<radialGradient id="paint27_radial_51_1305" cx="0" cy="0" r="1" gradientUnits="userSpaceOnUse" gradientTransform="translate(259.132 84.0965) scale(101.433 32.2739)">
<stop stop-color="white"/>
<stop offset="1"/>
</radialGradient>
<linearGradient id="paint28_linear_51_1305" x1="390.386" y1="46.3231" x2="344.011" y2="192.706" gradientUnits="userSpaceOnUse">
<stop stop-color="#FFBB96"/>
<stop offset="0.23" stop-color="#FFFBC9"/>
<stop offset="0.54" stop-color="#F9B673"/>
<stop offset="0.64" stop-color="#F9B876"/>
<stop offset="0.72" stop-color="#FABE81"/>
<stop offset="0.81" stop-color="#FCC993"/>
<stop offset="0.86" stop-color="#FED2A3"/>
<stop offset="0.97" stop-color="#FFC28C"/>
</linearGradient>
<radialGradient id="paint29_radial_51_1305" cx="0" cy="0" r="1" gradientUnits="userSpaceOnUse" gradientTransform="translate(17.4506 24.0859) rotate(-70.9864) scale(1.70783 3.42679)">
<stop stop-color="#F49587"/>
<stop offset="0.12" stop-color="#BD7368"/>
<stop offset="0.24" stop-color="#8B554D"/>
<stop offset="0.36" stop-color="#603B35"/>
<stop offset="0.48" stop-color="#3E2622"/>
<stop offset="0.61" stop-color="#231513"/>
<stop offset="0.74" stop-color="#0F0908"/>
<stop offset="0.86" stop-color="#040202"/>
<stop offset="1"/>
</radialGradient>
<linearGradient id="paint30_linear_51_1305" x1="71.0401" y1="120.364" x2="138.967" y2="120.364" gradientUnits="userSpaceOnUse">
<stop stop-color="#FFBB96"/>
<stop offset="0.23" stop-color="#FFFBC9"/>
<stop offset="0.54" stop-color="#F9B673"/>
<stop offset="0.64" stop-color="#F9B876"/>
<stop offset="0.72" stop-color="#FABE81"/>
<stop offset="0.81" stop-color="#FCC993"/>
<stop offset="0.86" stop-color="#FED2A3"/>
<stop offset="0.97" stop-color="#FFC28C"/>
</linearGradient>
<linearGradient id="paint31_linear_51_1305" x1="171.953" y1="93.0405" x2="126.236" y2="129.852" gradientUnits="userSpaceOnUse">
<stop offset="0.04" stop-color="#FFBA78"/>
<stop offset="0.4" stop-color="#FFC987"/>
<stop offset="1" stop-color="#FEECA8"/>
</linearGradient>
<radialGradient id="paint32_radial_51_1305" cx="0" cy="0" r="1" gradientUnits="userSpaceOnUse" gradientTransform="translate(58.6259 121.043) scale(60.9238 41.2918)">
<stop stop-color="#F49587"/>
<stop offset="0.12" stop-color="#BD7368"/>
<stop offset="0.24" stop-color="#8B554D"/>
<stop offset="0.36" stop-color="#603B35"/>
<stop offset="0.48" stop-color="#3E2622"/>
<stop offset="0.61" stop-color="#231513"/>
<stop offset="0.74" stop-color="#0F0908"/>
<stop offset="0.86" stop-color="#040202"/>
<stop offset="1"/>
</radialGradient>
<linearGradient id="paint33_linear_51_1305" x1="10.4045" y1="21.8385" x2="16.0771" y2="30.5692" gradientUnits="userSpaceOnUse">
<stop stop-color="#F5CB16"/>
<stop offset="0.2764" stop-color="#FEF687"/>
<stop offset="0.338" stop-color="#F5E063"/>
<stop offset="0.4168" stop-color="#EBC83C"/>
<stop offset="0.4796" stop-color="#E5B924"/>
<stop offset="0.5182" stop-color="#E3B31B"/>
<stop offset="0.6535" stop-color="#F0D24E"/>
<stop offset="0.7911" stop-color="#FFF585"/>
<stop offset="0.8728" stop-color="#FBE254"/>
<stop offset="0.9573" stop-color="#F7D227"/>
<stop offset="1" stop-color="#F5CB16"/>
</linearGradient>
<linearGradient id="paint34_linear_51_1305" x1="9.00034" y1="23.9245" x2="9.00036" y2="23.9245" gradientUnits="userSpaceOnUse">
<stop stop-color="#FFBB96"/>
<stop offset="0.23" stop-color="#FFFBC9"/>
<stop offset="0.54" stop-color="#F9B673"/>
<stop offset="0.64" stop-color="#F9B876"/>
<stop offset="0.72" stop-color="#FABE81"/>
<stop offset="0.81" stop-color="#FCC993"/>
<stop offset="0.86" stop-color="#FED2A3"/>
<stop offset="0.97" stop-color="#FFC28C"/>
</linearGradient>
<linearGradient id="paint35_linear_51_1305" x1="16.0865" y1="24.9066" x2="16.3004" y2="24.3187" gradientUnits="userSpaceOnUse">
<stop stop-color="#A37903"/>
<stop offset="0.0669" stop-color="#B28E2B"/>
<stop offset="0.1603" stop-color="#C4A95C"/>
<stop offset="0.2587" stop-color="#D4C088"/>
<stop offset="0.3602" stop-color="#E1D3AD"/>
<stop offset="0.4659" stop-color="#ECE3CB"/>
<stop offset="0.5769" stop-color="#F4EFE2"/>
<stop offset="0.6958" stop-color="#FAF8F2"/>
<stop offset="0.8279" stop-color="#FEFDFC"/>
<stop offset="1" stop-color="white"/>
</linearGradient>
<linearGradient id="paint36_linear_51_1305" x1="708.412" y1="-71.2012" x2="452.562" y2="355.311" gradientUnits="userSpaceOnUse">
<stop offset="0.04" stop-color="#FFBA78"/>
<stop offset="0.4" stop-color="#FFC987"/>
<stop offset="1" stop-color="#FEECA8"/>
</linearGradient>
<radialGradient id="paint37_radial_51_1305" cx="0" cy="0" r="1" gradientUnits="userSpaceOnUse" gradientTransform="translate(149.072 150.823) scale(308.688 96.3267)">
<stop stop-color="white"/>
<stop offset="1"/>
</radialGradient>
<linearGradient id="paint38_linear_51_1305" x1="341.383" y1="68.3178" x2="198.404" y2="306.302" gradientUnits="userSpaceOnUse">
<stop offset="0.04" stop-color="#FFBA78"/>
<stop offset="0.4" stop-color="#FFC987"/>
<stop offset="1" stop-color="#FEECA8"/>
</linearGradient>
<radialGradient id="paint39_radial_51_1305" cx="0" cy="0" r="1" gradientUnits="userSpaceOnUse" gradientTransform="translate(259.435 63.0845) scale(101.563 32.2736)">
<stop stop-color="white"/>
<stop offset="1"/>
</radialGradient>
<linearGradient id="paint40_linear_51_1305" x1="390.386" y1="25.3487" x2="343.993" y2="171.72" gradientUnits="userSpaceOnUse">
<stop stop-color="#FFBB96"/>
<stop offset="0.23" stop-color="#FFFBC9"/>
<stop offset="0.54" stop-color="#F9B673"/>
<stop offset="0.64" stop-color="#F9B876"/>
<stop offset="0.72" stop-color="#FABE81"/>
<stop offset="0.81" stop-color="#FCC993"/>
<stop offset="0.86" stop-color="#FED2A3"/>
<stop offset="0.97" stop-color="#FFC28C"/>
</linearGradient>
<radialGradient id="paint41_radial_51_1305" cx="0" cy="0" r="1" gradientUnits="userSpaceOnUse" gradientTransform="translate(97958.9 -36867.2) scale(143.806 88.086)">
<stop stop-color="#F49587"/>
<stop offset="0.12" stop-color="#BD7368"/>
<stop offset="0.24" stop-color="#8B554D"/>
<stop offset="0.36" stop-color="#603B35"/>
<stop offset="0.48" stop-color="#3E2622"/>
<stop offset="0.61" stop-color="#231513"/>
<stop offset="0.74" stop-color="#0F0908"/>
<stop offset="0.86" stop-color="#040202"/>
<stop offset="1"/>
</radialGradient>
<linearGradient id="paint42_linear_51_1305" x1="71.0436" y1="98.2321" x2="138.975" y2="98.2321" gradientUnits="userSpaceOnUse">
<stop stop-color="#FFBB96"/>
<stop offset="0.23" stop-color="#FFFBC9"/>
<stop offset="0.54" stop-color="#F9B673"/>
<stop offset="0.64" stop-color="#F9B876"/>
<stop offset="0.72" stop-color="#FABE81"/>
<stop offset="0.81" stop-color="#FCC993"/>
<stop offset="0.86" stop-color="#FED2A3"/>
<stop offset="0.97" stop-color="#FFC28C"/>
</linearGradient>
<linearGradient id="paint43_linear_51_1305" x1="171.572" y1="71.4071" x2="125.552" y2="108.032" gradientUnits="userSpaceOnUse">
<stop offset="0.04" stop-color="#FFBA78"/>
<stop offset="0.4" stop-color="#FFC987"/>
<stop offset="1" stop-color="#FEECA8"/>
</linearGradient>
<radialGradient id="paint44_radial_51_1305" cx="0" cy="0" r="1" gradientUnits="userSpaceOnUse" gradientTransform="translate(58.5285 99.6671) scale(60.7711 41.6714)">
<stop stop-color="#F49587"/>
<stop offset="0.12" stop-color="#BD7368"/>
<stop offset="0.24" stop-color="#8B554D"/>
<stop offset="0.36" stop-color="#603B35"/>
<stop offset="0.48" stop-color="#3E2622"/>
<stop offset="0.61" stop-color="#231513"/>
<stop offset="0.74" stop-color="#0F0908"/>
<stop offset="0.86" stop-color="#040202"/>
<stop offset="1"/>
</radialGradient>
<linearGradient id="paint45_linear_51_1305" x1="10.4045" y1="19.1394" x2="16.0771" y2="27.8702" gradientUnits="userSpaceOnUse">
<stop stop-color="#F5CB16"/>
<stop offset="0.2764" stop-color="#FEF687"/>
<stop offset="0.338" stop-color="#F5E063"/>
<stop offset="0.4168" stop-color="#EBC83C"/>
<stop offset="0.4796" stop-color="#E5B924"/>
<stop offset="0.5182" stop-color="#E3B31B"/>
<stop offset="0.6535" stop-color="#F0D24E"/>
<stop offset="0.7911" stop-color="#FFF585"/>
<stop offset="0.8728" stop-color="#FBE254"/>
<stop offset="0.9573" stop-color="#F7D227"/>
<stop offset="1" stop-color="#F5CB16"/>
</linearGradient>
<linearGradient id="paint46_linear_51_1305" x1="9" y1="20.8694" x2="9.00002" y2="20.8694" gradientUnits="userSpaceOnUse">
<stop stop-color="#FFBB96"/>
<stop offset="0.23" stop-color="#FFFBC9"/>
<stop offset="0.54" stop-color="#F9B673"/>
<stop offset="0.64" stop-color="#F9B876"/>
<stop offset="0.72" stop-color="#FABE81"/>
<stop offset="0.81" stop-color="#FCC993"/>
<stop offset="0.86" stop-color="#FED2A3"/>
<stop offset="0.97" stop-color="#FFC28C"/>
</linearGradient>
<linearGradient id="paint47_linear_51_1305" x1="16.0866" y1="22.2075" x2="16.3005" y2="21.6196" gradientUnits="userSpaceOnUse">
<stop stop-color="#A37903"/>
<stop offset="0.0669" stop-color="#B28E2B"/>
<stop offset="0.1603" stop-color="#C4A95C"/>
<stop offset="0.2587" stop-color="#D4C088"/>
<stop offset="0.3602" stop-color="#E1D3AD"/>
<stop offset="0.4659" stop-color="#ECE3CB"/>
<stop offset="0.5769" stop-color="#F4EFE2"/>
<stop offset="0.6958" stop-color="#FAF8F2"/>
<stop offset="0.8279" stop-color="#FEFDFC"/>
<stop offset="1" stop-color="white"/>
</linearGradient>
<linearGradient id="paint48_linear_51_1305" x1="708.412" y1="-123.226" x2="452.6" y2="303.361" gradientUnits="userSpaceOnUse">
<stop offset="0.04" stop-color="#FFBA78"/>
<stop offset="0.4" stop-color="#FFC987"/>
<stop offset="1" stop-color="#FEECA8"/>
</linearGradient>
<radialGradient id="paint49_radial_51_1305" cx="0" cy="0" r="1" gradientUnits="userSpaceOnUse" gradientTransform="translate(149.072 122.788) scale(308.688 96.4293)">
<stop stop-color="white"/>
<stop offset="1"/>
</radialGradient>
<linearGradient id="paint50_linear_51_1305" x1="341.383" y1="28.8362" x2="198.251" y2="266.902" gradientUnits="userSpaceOnUse">
<stop offset="0.04" stop-color="#FFBA78"/>
<stop offset="0.4" stop-color="#FFC987"/>
<stop offset="1" stop-color="#FEECA8"/>
</linearGradient>
<radialGradient id="paint51_radial_51_1305" cx="0" cy="0" r="1" gradientUnits="userSpaceOnUse" gradientTransform="translate(259.123 41.0389) scale(101.429 32.3185)">
<stop stop-color="white"/>
<stop offset="1"/>
</radialGradient>
<linearGradient id="paint52_linear_51_1305" x1="390.374" y1="3.25028" x2="343.864" y2="149.785" gradientUnits="userSpaceOnUse">
<stop stop-color="#FFBB96"/>
<stop offset="0.23" stop-color="#FFFBC9"/>
<stop offset="0.54" stop-color="#F9B673"/>
<stop offset="0.64" stop-color="#F9B876"/>
<stop offset="0.72" stop-color="#FABE81"/>
<stop offset="0.81" stop-color="#FCC993"/>
<stop offset="0.86" stop-color="#FED2A3"/>
<stop offset="0.97" stop-color="#FFC28C"/>
</linearGradient>
<radialGradient id="paint53_radial_51_1305" cx="0" cy="0" r="1" gradientUnits="userSpaceOnUse" gradientTransform="translate(-14385.8 -12129.6) rotate(-71.8164) scale(11.4803 45.0968)">
<stop stop-color="#F49587"/>
<stop offset="0.12" stop-color="#BD7368"/>
<stop offset="0.24" stop-color="#8B554D"/>
<stop offset="0.36" stop-color="#603B35"/>
<stop offset="0.48" stop-color="#3E2622"/>
<stop offset="0.61" stop-color="#231513"/>
<stop offset="0.74" stop-color="#0F0908"/>
<stop offset="0.86" stop-color="#040202"/>
<stop offset="1"/>
</radialGradient>
<linearGradient id="paint54_linear_51_1305" x1="71.2614" y1="74.6711" x2="139.481" y2="74.6711" gradientUnits="userSpaceOnUse">
<stop stop-color="#FFBB96"/>
<stop offset="0.23" stop-color="#FFFBC9"/>
<stop offset="0.54" stop-color="#F9B673"/>
<stop offset="0.64" stop-color="#F9B876"/>
<stop offset="0.72" stop-color="#FABE81"/>
<stop offset="0.81" stop-color="#FCC993"/>
<stop offset="0.86" stop-color="#FED2A3"/>
<stop offset="0.97" stop-color="#FFC28C"/>
</linearGradient>
<linearGradient id="paint55_linear_51_1305" x1="171.564" y1="47.783" x2="125.732" y2="84.4484" gradientUnits="userSpaceOnUse">
<stop offset="0.04" stop-color="#FFBA78"/>
<stop offset="0.4" stop-color="#FFC987"/>
<stop offset="1" stop-color="#FEECA8"/>
</linearGradient>
<radialGradient id="paint56_radial_51_1305" cx="0" cy="0" r="1" gradientUnits="userSpaceOnUse" gradientTransform="translate(58.5266 75.8558) scale(60.768 41.4541)">
<stop stop-color="#F49587"/>
<stop offset="0.12" stop-color="#BD7368"/>
<stop offset="0.24" stop-color="#8B554D"/>
<stop offset="0.36" stop-color="#603B35"/>
<stop offset="0.48" stop-color="#3E2622"/>
<stop offset="0.61" stop-color="#231513"/>
<stop offset="0.74" stop-color="#0F0908"/>
<stop offset="0.86" stop-color="#040202"/>
<stop offset="1"/>
</radialGradient>
<linearGradient id="paint57_linear_51_1305" x1="10.4045" y1="16.3947" x2="16.083" y2="25.1281" gradientUnits="userSpaceOnUse">
<stop stop-color="#F5CB16"/>
<stop offset="0.2764" stop-color="#FEF687"/>
<stop offset="0.338" stop-color="#F5E063"/>
<stop offset="0.4168" stop-color="#EBC83C"/>
<stop offset="0.4796" stop-color="#E5B924"/>
<stop offset="0.5182" stop-color="#E3B31B"/>
<stop offset="0.6535" stop-color="#F0D24E"/>
<stop offset="0.7911" stop-color="#FFF585"/>
<stop offset="0.8728" stop-color="#FBE254"/>
<stop offset="0.9573" stop-color="#F7D227"/>
<stop offset="1" stop-color="#F5CB16"/>
</linearGradient>
<linearGradient id="paint58_linear_51_1305" x1="9.00034" y1="17.6944" x2="9.00036" y2="17.6944" gradientUnits="userSpaceOnUse">
<stop stop-color="#FFBB96"/>
<stop offset="0.23" stop-color="#FFFBC9"/>
<stop offset="0.54" stop-color="#F9B673"/>
<stop offset="0.64" stop-color="#F9B876"/>
<stop offset="0.72" stop-color="#FABE81"/>
<stop offset="0.81" stop-color="#FCC993"/>
<stop offset="0.86" stop-color="#FED2A3"/>
<stop offset="0.97" stop-color="#FFC28C"/>
</linearGradient>
<linearGradient id="paint59_linear_51_1305" x1="16.0865" y1="19.4853" x2="16.3008" y2="18.8969" gradientUnits="userSpaceOnUse">
<stop stop-color="#A37903"/>
<stop offset="0.0669" stop-color="#B28E2B"/>
<stop offset="0.1603" stop-color="#C4A95C"/>
<stop offset="0.2587" stop-color="#D4C088"/>
<stop offset="0.3602" stop-color="#E1D3AD"/>
<stop offset="0.4659" stop-color="#ECE3CB"/>
<stop offset="0.5769" stop-color="#F4EFE2"/>
<stop offset="0.6958" stop-color="#FAF8F2"/>
<stop offset="0.8279" stop-color="#FEFDFC"/>
<stop offset="1" stop-color="white"/>
</linearGradient>
<linearGradient id="paint60_linear_51_1305" x1="10.4065" y1="12.2063" x2="18.6134" y2="21.6649" gradientUnits="userSpaceOnUse">
<stop stop-color="#F5CB16"/>
<stop offset="0.2764" stop-color="#FEF687"/>
<stop offset="0.338" stop-color="#F5E063"/>
<stop offset="0.4168" stop-color="#EBC83C"/>
<stop offset="0.4796" stop-color="#E5B924"/>
<stop offset="0.5182" stop-color="#E3B31B"/>
<stop offset="0.6535" stop-color="#F0D24E"/>
<stop offset="0.7911" stop-color="#FFF585"/>
<stop offset="0.8728" stop-color="#FBE254"/>
<stop offset="0.9573" stop-color="#F7D227"/>
<stop offset="1" stop-color="#F5CB16"/>
</linearGradient>
<radialGradient id="paint61_radial_51_1305" cx="0" cy="0" r="1" gradientUnits="userSpaceOnUse" gradientTransform="translate(149.072 94.3792) scale(308.688 96.7358)">
<stop stop-color="white"/>
<stop offset="1"/>
</radialGradient>
<linearGradient id="paint62_linear_51_1305" x1="19.3407" y1="18.1088" x2="17.2851" y2="10.8765" gradientUnits="userSpaceOnUse">
<stop stop-color="#E8BC03"/>
<stop offset="0.1099" stop-color="#DBAC02"/>
<stop offset="0.2171" stop-color="#D3A102"/>
<stop offset="0.3653" stop-color="#E4BB1F"/>
<stop offset="0.5691" stop-color="#F7D942"/>
<stop offset="0.6791" stop-color="#FFE54F"/>
<stop offset="0.7447" stop-color="#FDE24A"/>
<stop offset="0.8267" stop-color="#F9DA3A"/>
<stop offset="0.9172" stop-color="#F1CC21"/>
<stop offset="1" stop-color="#E8BC03"/>
</linearGradient>
<radialGradient id="paint63_radial_51_1305" cx="0" cy="0" r="1" gradientUnits="userSpaceOnUse" gradientTransform="translate(259.128 18.5833) scale(101.431 32.2733)">
<stop stop-color="white"/>
<stop offset="1"/>
</radialGradient>
<linearGradient id="paint64_linear_51_1305" x1="390.38" y1="-19.1903" x2="344.003" y2="127.193" gradientUnits="userSpaceOnUse">
<stop stop-color="#FFBB96"/>
<stop offset="0.23" stop-color="#FFFBC9"/>
<stop offset="0.54" stop-color="#F9B673"/>
<stop offset="0.64" stop-color="#F9B876"/>
<stop offset="0.72" stop-color="#FABE81"/>
<stop offset="0.81" stop-color="#FCC993"/>
<stop offset="0.86" stop-color="#FED2A3"/>
<stop offset="0.97" stop-color="#FFC28C"/>
</linearGradient>
<radialGradient id="paint65_radial_51_1305" cx="0" cy="0" r="1" gradientUnits="userSpaceOnUse" gradientTransform="translate(-20403.6 -26986.5) rotate(-74.9298) scale(64.1007 57.8067)">
<stop stop-color="#F49587"/>
<stop offset="0.12" stop-color="#BD7368"/>
<stop offset="0.24" stop-color="#8B554D"/>
<stop offset="0.36" stop-color="#603B35"/>
<stop offset="0.48" stop-color="#3E2622"/>
<stop offset="0.61" stop-color="#231513"/>
<stop offset="0.74" stop-color="#0F0908"/>
<stop offset="0.86" stop-color="#040202"/>
<stop offset="1"/>
</radialGradient>
<radialGradient id="paint66_radial_51_1305" cx="0" cy="0" r="1" gradientUnits="userSpaceOnUse" gradientTransform="translate(98387.2 -37023.6) scale(143.806 88.3405)">
<stop stop-color="#F49587"/>
<stop offset="0.12" stop-color="#BD7368"/>
<stop offset="0.24" stop-color="#8B554D"/>
<stop offset="0.36" stop-color="#603B35"/>
<stop offset="0.48" stop-color="#3E2622"/>
<stop offset="0.61" stop-color="#231513"/>
<stop offset="0.74" stop-color="#0F0908"/>
<stop offset="0.86" stop-color="#040202"/>
<stop offset="1"/>
</radialGradient>
<linearGradient id="paint67_linear_51_1305" x1="71.0401" y1="50.7449" x2="138.967" y2="50.7449" gradientUnits="userSpaceOnUse">
<stop stop-color="#FFBB96"/>
<stop offset="0.23" stop-color="#FFFBC9"/>
<stop offset="0.54" stop-color="#F9B673"/>
<stop offset="0.64" stop-color="#F9B876"/>
<stop offset="0.72" stop-color="#FABE81"/>
<stop offset="0.81" stop-color="#FCC993"/>
<stop offset="0.86" stop-color="#FED2A3"/>
<stop offset="0.97" stop-color="#FFC28C"/>
</linearGradient>
<linearGradient id="paint68_linear_51_1305" x1="171.562" y1="23.9637" x2="125.964" y2="60.6805" gradientUnits="userSpaceOnUse">
<stop offset="0.04" stop-color="#FFBA78"/>
<stop offset="0.4" stop-color="#FFC987"/>
<stop offset="1" stop-color="#FEECA8"/>
</linearGradient>
<radialGradient id="paint69_radial_51_1305" cx="0" cy="0" r="1" gradientUnits="userSpaceOnUse" gradientTransform="translate(58.5258 51.8926) scale(60.767 41.1832)">
<stop stop-color="#F49587"/>
<stop offset="0.12" stop-color="#BD7368"/>
<stop offset="0.24" stop-color="#8B554D"/>
<stop offset="0.36" stop-color="#603B35"/>
<stop offset="0.48" stop-color="#3E2622"/>
<stop offset="0.61" stop-color="#231513"/>
<stop offset="0.74" stop-color="#0F0908"/>
<stop offset="0.86" stop-color="#040202"/>
<stop offset="1"/>
</radialGradient>
</defs>
</svg>
