<svg width="84" height="42" viewBox="0 0 84 42" fill="none" xmlns="http://www.w3.org/2000/svg">
<path opacity="0.2" fill-rule="evenodd" clip-rule="evenodd" d="M13.8874 41.6054C20.3336 41.8309 28.3715 42 41.9802 42C55.6286 42 63.7063 41.8309 70.1525 41.6054C77.7925 41.6054 84 32.8108 84 21.9866C84 11.1625 77.7925 2.36784 70.1525 2.36784C63.7063 2.14234 55.5888 1.97319 41.9802 1.97319C28.3317 1.97319 20.3336 2.14234 13.8874 2.36784C6.24744 2.36784 0.0399775 11.1625 0.0399775 21.9866C0.000186082 32.8108 6.20765 41.6054 13.8874 41.6054Z" fill="#33233D"/>
<path fill-rule="evenodd" clip-rule="evenodd" d="M13.8874 39.6322C20.3336 39.8577 28.3715 40.0268 41.9802 40.0268C55.6286 40.0268 63.7063 39.8577 70.1525 39.6322C77.7925 39.6322 84 30.8376 84 20.0134C84 9.18926 77.7925 0.394629 70.1525 0.394629C63.7063 0.169126 55.5888 0 41.9802 0C28.3317 0 20.3336 0.169126 13.8874 0.394629C6.24744 0.394629 0.0399775 9.18926 0.0399775 20.0134C0.000186082 30.8376 6.20765 39.6322 13.8874 39.6322Z" fill="url(#paint0_linear_47_1010)"/>
<path fill-rule="evenodd" clip-rule="evenodd" d="M41.98 38.4484C31.6342 38.4484 19.7366 39.2377 10.0672 33.9383C9.11224 33.431 8.19704 32.6417 7.36142 31.7397C6.28705 30.5558 5.41164 29.09 4.73518 27.3987C4.33727 26.4403 4.05873 25.4256 3.81998 24.3544C3.50165 22.945 3.34248 21.4793 3.34248 19.9571C2.86499 17.984 0.596872 17.5893 0 19.9571C0 30.7813 6.20747 39.5759 13.8474 39.5759C20.2936 39.8014 28.3315 39.9705 41.9402 39.9705C55.5887 39.9705 63.6663 39.8014 70.1125 39.5759C77.7525 39.5759 83.96 30.7813 83.96 19.9571C83.3631 17.5893 81.095 17.984 80.6175 19.9571C80.6175 21.4229 80.4583 22.8887 80.14 24.3544C79.9012 25.4256 79.6227 26.4403 79.2248 27.3987C78.5483 29.09 77.6729 30.5558 76.5986 31.7397C75.8027 32.6417 74.8875 33.3746 73.8927 33.9383C64.303 39.2377 52.3258 38.4484 41.98 38.4484Z" fill="url(#paint1_linear_47_1010)"/>
<path fill-rule="evenodd" clip-rule="evenodd" d="M13.8874 39.1248C18.3043 39.2939 22.7609 39.3503 27.2175 39.4067C33.4648 39.4631 35.7727 39.5194 42.02 39.5194C48.2672 39.5194 50.6547 39.4631 56.902 39.4067C61.3188 39.3503 65.7755 39.2939 70.2321 39.1248C77.7129 39.1248 83.7612 30.5557 83.7612 19.9571C83.7612 9.35839 77.7129 0.789258 70.2321 0.789258C65.8153 0.620131 61.3586 0.563759 56.902 0.507383C50.6547 0.451008 48.2672 0.394629 42.02 0.394629C35.7727 0.394629 33.4648 0.451008 27.2175 0.507383C22.8007 0.563759 18.344 0.620131 13.8874 0.789258C6.40661 0.789258 0.358313 9.35839 0.358313 19.9571C0.358313 30.5557 6.40661 39.1248 13.8874 39.1248ZM13.8874 39.6322C20.3336 39.8577 28.3715 40.0268 41.9802 40.0268C55.6286 40.0268 63.7063 39.8577 70.1525 39.6322C77.7925 39.6322 84 30.8376 84 20.0134C84 9.18926 77.7925 0.394629 70.1525 0.394629C63.7063 0.169126 55.5888 0 41.9802 0C28.3317 0 20.3336 0.169126 13.8874 0.394629C6.24744 0.394629 0.0399775 9.18926 0.0399775 20.0134C0.000186082 30.8376 6.20765 39.6322 13.8874 39.6322Z" fill="url(#paint2_linear_47_1010)"/>
<path d="M42.02 1.57851C30.5601 1.57851 19.8164 1.69127 13.967 1.91677C13.211 1.97315 12.0172 2.3114 10.7439 2.81878C9.43079 3.32616 8.27684 3.88993 7.64018 4.34093C6.96372 4.96107 6.04852 6.08858 5.09352 7.4416C4.13853 8.79462 3.3427 10.0913 2.94478 10.9369C2.58666 11.9517 2.18875 13.5866 1.83062 15.447C1.4725 17.3074 1.23375 18.9986 1.19396 20.0134C1.23375 21.1409 1.4725 22.8322 1.83062 24.6926C2.18875 26.553 2.58666 28.1879 2.90499 29.0899C3.3427 30.0483 4.13853 31.3449 5.09352 32.698C6.04852 34.051 6.96372 35.1785 7.56059 35.7423C8.27684 36.2497 9.43079 36.8134 10.7439 37.3208C12.057 37.8282 13.2508 38.1664 13.967 38.2228C19.8164 38.4483 30.5999 38.5611 42.0598 38.5611C53.5197 38.5611 64.2634 38.4483 70.1128 38.2228C70.8688 38.1664 72.0625 37.8282 73.3359 37.3208C74.649 36.8134 75.8029 36.2496 76.4396 35.7986C77.1161 35.1785 78.0313 34.051 78.9863 32.698C79.9413 31.3449 80.7371 30.0483 81.135 29.2027C81.4931 28.1879 81.891 26.553 82.2492 24.6926C82.6073 22.8322 82.846 21.1409 82.8858 20.1262C82.846 18.9986 82.6073 17.3074 82.2492 15.447C81.891 13.5866 81.4931 11.9517 81.1748 11.0496C80.7371 10.0913 79.9413 8.79462 78.9863 7.4416C78.0313 6.08858 77.1161 4.96106 76.5192 4.3973C75.8029 3.88992 74.649 3.32616 73.3359 2.81878C72.0228 2.3114 70.829 1.97315 70.1128 1.91677C64.2236 1.69127 53.4799 1.57851 42.02 1.57851Z" fill="url(#paint3_linear_47_1010)"/>
<path fill-rule="evenodd" clip-rule="evenodd" d="M13.9667 2.81879C13.3301 2.87517 12.1761 3.21343 10.863 3.66444C9.54988 4.17182 8.47551 4.67919 7.87863 5.1302C7.32155 5.63758 6.44614 6.70873 5.49115 8.06175C4.53615 9.41477 3.78012 10.655 3.42199 11.4443C3.14345 12.2899 2.74554 13.8121 2.38741 15.6725C2.02929 17.5329 1.83033 19.1114 1.79054 20.0698C1.83033 20.9718 2.06908 22.6067 2.38741 24.4671C2.74554 26.3275 3.10366 27.8497 3.42199 28.6953C3.78012 29.4846 4.53615 30.7248 5.49115 32.0778C6.44614 33.4309 7.32155 34.502 7.87863 35.0094C8.47551 35.404 9.54988 35.9678 10.863 36.4752C12.1363 36.9826 13.2903 37.2644 13.9667 37.3208C19.6171 37.5463 30.0823 37.6591 42.0197 37.6591C53.9571 37.6591 64.4223 37.5463 70.0727 37.3208C70.7094 37.2644 71.8633 36.9262 73.1764 36.4752C74.4498 35.9678 75.5639 35.4604 76.1608 35.0094C76.7179 34.502 77.5933 33.4309 78.5483 32.0778C79.5033 30.7248 80.2593 29.4846 80.6174 28.6953C80.896 27.8497 81.2939 26.3275 81.652 24.4671C82.0101 22.6067 82.2091 21.0282 82.2489 20.0698C82.2091 19.1678 81.9703 17.5329 81.652 15.6725C81.2939 13.8121 80.9358 12.2899 80.6174 11.4443C80.2593 10.655 79.5033 9.41477 78.5483 8.06175C77.5933 6.70873 76.7179 5.63758 76.1608 5.1302C75.5639 4.73557 74.4895 4.17182 73.1764 3.66444C71.8633 3.15706 70.7491 2.87517 70.0727 2.81879C64.4223 2.59329 53.9571 2.48053 42.0197 2.48053C30.0823 2.48053 19.6171 2.59329 13.9667 2.81879Z" fill="#8E37E2"/>
<path fill-rule="evenodd" clip-rule="evenodd" d="M69.9139 33.0926L70.0333 37.2644C70.67 37.208 71.8239 36.8698 73.137 36.4188C74.4104 35.9114 75.5245 35.404 76.1214 34.953L74.6491 31.3449C73.9727 31.7959 73.0575 32.1342 72.381 32.3597C71.6648 32.6416 70.67 32.9798 69.9139 33.0926Z" fill="url(#paint4_radial_47_1010)"/>
<path fill-rule="evenodd" clip-rule="evenodd" d="M74.6489 31.2886L76.1212 34.8967C76.6783 34.3893 77.5537 33.3182 78.5087 31.9652C79.4637 30.6121 80.2197 29.3719 80.5778 28.5826L78.0312 26.4967C77.5935 27.3423 76.917 28.3007 76.4395 29.0336C75.9222 29.7665 75.2458 30.7249 74.6489 31.2886Z" fill="url(#paint5_radial_47_1010)"/>
<path fill-rule="evenodd" clip-rule="evenodd" d="M78.0316 26.5529L80.5783 28.6389C80.8568 27.7932 81.2547 26.2711 81.6129 24.4107C81.971 22.5503 82.17 20.9717 82.2097 20.0133H79.2652C79.1856 21.0281 78.9468 22.3811 78.7479 23.3395C78.5887 24.2979 78.35 25.5945 78.0316 26.5529Z" fill="url(#paint6_radial_47_1010)"/>
<path fill-rule="evenodd" clip-rule="evenodd" d="M79.2652 20.0133H82.2097C82.17 19.1113 81.9312 17.4764 81.6129 15.616C81.2547 13.7556 80.8966 12.2335 80.5783 11.3878L78.0316 13.4737C78.35 14.4321 78.5887 15.7288 78.7479 16.6872C78.9468 17.6455 79.1856 18.9986 79.2652 20.0133Z" fill="url(#paint7_radial_47_1010)"/>
<path fill-rule="evenodd" clip-rule="evenodd" d="M78.0312 13.4738L80.5778 11.3879C80.2197 10.5986 79.4637 9.35834 78.5087 8.00532C77.5537 6.6523 76.6783 5.58116 76.1212 5.07378L74.6489 8.68183C75.2458 9.30196 75.9222 10.2603 76.4395 10.9368C76.917 11.6697 77.5935 12.6281 78.0312 13.4738Z" fill="url(#paint8_radial_47_1010)"/>
<path fill-rule="evenodd" clip-rule="evenodd" d="M74.6492 8.73825L76.1215 5.1302C75.5246 4.73556 74.4502 4.17182 73.1371 3.66443C71.824 3.15705 70.7098 2.87516 70.0334 2.81879L69.914 6.99061C70.67 7.04698 71.6648 7.4416 72.3811 7.72348C73.0575 7.94898 73.9727 8.28724 74.6492 8.73825Z" fill="url(#paint9_radial_47_1010)"/>
<path fill-rule="evenodd" clip-rule="evenodd" d="M9.35097 8.7382C8.7541 9.35833 8.07764 10.3167 7.56035 10.9932C7.08286 11.6698 6.4064 12.6281 5.9687 13.5302C5.65037 14.4885 5.41162 15.7852 5.25245 16.7436C5.05349 17.702 4.81474 18.9986 4.73516 20.0698C4.81474 21.0845 5.05349 22.4375 5.25245 23.3959C5.45141 24.3543 5.69016 25.651 5.9687 26.6094C6.4064 27.455 7.08286 28.4134 7.56035 29.1463C8.03785 29.8228 8.71431 30.7812 9.35097 31.4013C10.0274 31.8523 10.9426 32.1905 11.6191 32.4161C12.3353 32.6979 13.3301 33.0362 14.0862 33.1489C17.9459 33.2617 21.8057 33.3181 25.6257 33.3745C31.0771 33.4308 36.5285 33.4872 41.98 33.4872C47.4314 33.4872 52.8828 33.4872 58.3342 33.3745C62.194 33.3181 66.0538 33.2617 69.8738 33.1489C70.6298 33.0926 71.6246 32.6979 72.3408 32.4161C73.0173 32.1342 73.9325 31.7959 74.609 31.4013C75.2058 30.7812 75.8823 29.8228 76.3996 29.1463C76.8771 28.4698 77.5535 27.5114 77.9912 26.6094C78.3096 25.651 78.5483 24.3543 78.7075 23.3959C78.9064 22.4375 79.1452 21.1409 79.2248 20.0698C79.1452 19.055 78.9064 17.702 78.7075 16.7436C78.5085 15.7852 78.2698 14.4885 77.9912 13.5302C77.5535 12.6845 76.8771 11.7261 76.3996 10.9932C75.9221 10.3167 75.2456 9.35833 74.609 8.7382C73.9325 8.28719 73.0173 7.94893 72.3408 7.72343C71.6246 7.44155 70.6298 7.10331 69.8738 6.99056C66.014 6.87781 62.1542 6.82143 58.3342 6.76505C52.8828 6.70868 47.4314 6.6523 41.98 6.6523C36.5285 6.6523 31.0771 6.6523 25.6257 6.76505C21.7659 6.82143 17.9061 6.87781 14.0862 6.99056C13.3301 7.04694 12.3353 7.44155 11.6191 7.72343C10.9426 7.94893 10.0274 8.28719 9.35097 8.7382Z" fill="url(#paint10_radial_47_1010)"/>
<path fill-rule="evenodd" clip-rule="evenodd" d="M14.0862 6.93414L13.9668 2.76234C13.3301 2.81872 12.1762 3.15696 10.8631 3.60797C9.54994 4.11535 8.47557 4.62275 7.8787 5.07375L9.35098 8.6818C10.0274 8.2308 10.9426 7.89254 11.6191 7.66704C12.3353 7.38516 13.3301 7.0469 14.0862 6.93414Z" fill="url(#paint11_radial_47_1010)"/>
<path fill-rule="evenodd" clip-rule="evenodd" d="M9.35066 8.73809L7.87838 5.13004C7.3213 5.63742 6.44589 6.70856 5.4909 8.06158C4.5359 9.4146 3.77986 10.6549 3.42174 11.4441L5.96839 13.53C6.4061 12.6844 7.08255 11.726 7.56005 10.9931C8.07734 10.2602 8.75379 9.30184 9.35066 8.73809Z" fill="url(#paint12_radial_47_1010)"/>
<path fill-rule="evenodd" clip-rule="evenodd" d="M6.00843 13.4737L3.46178 11.3878C3.18324 12.2335 2.78532 13.7556 2.4272 15.616C2.06908 17.4764 1.87012 19.0549 1.83033 20.0133H4.7749C4.85448 18.9986 5.09323 17.6455 5.29219 16.6872C5.45135 15.7288 5.6901 14.4321 6.00843 13.4737Z" fill="url(#paint13_radial_47_1010)"/>
<path fill-rule="evenodd" clip-rule="evenodd" d="M4.7749 20.0133H1.83033C1.87012 20.9153 2.10887 22.5503 2.4272 24.4107C2.78532 26.2711 3.14345 27.7932 3.46178 28.6389L6.00843 26.5529C5.6901 25.5945 5.45135 24.2979 5.29219 23.3395C5.09323 22.3811 4.81469 21.0281 4.7749 20.0133Z" fill="url(#paint14_radial_47_1010)"/>
<path fill-rule="evenodd" clip-rule="evenodd" d="M6.00818 26.5529L3.46152 28.6389C3.81965 29.4281 4.57568 30.6684 5.53068 32.0214C6.48567 33.3744 7.36109 34.4456 7.91817 34.953L9.39045 31.3449C8.79358 30.7248 8.11713 29.7664 7.59984 29.0899C7.08255 28.357 6.40609 27.3986 6.00818 26.5529Z" fill="url(#paint15_radial_47_1010)"/>
<path fill-rule="evenodd" clip-rule="evenodd" d="M9.35098 31.2885L7.8787 34.8965C8.47557 35.2912 9.54994 35.8549 10.8631 36.3623C12.1364 36.8697 13.2903 37.1516 13.9668 37.2079L14.0862 33.0361C13.3301 32.9798 12.3353 32.5851 11.6191 32.3032C10.9426 32.0777 10.0274 31.7395 9.35098 31.2885Z" fill="url(#paint16_radial_47_1010)"/>
<path fill-rule="evenodd" clip-rule="evenodd" d="M14.0862 6.93417C17.946 6.82141 21.8058 6.76503 25.6258 6.70866C31.0772 6.65228 36.5286 6.59592 41.9801 6.59592C47.4315 6.59592 52.8829 6.5959 58.3343 6.70866C62.1941 6.76503 66.0539 6.82141 69.8739 6.93417L69.9932 2.76237C64.3428 2.53686 53.8777 2.4241 41.9403 2.4241C30.0028 2.4241 19.5377 2.53686 13.8873 2.76237L14.0862 6.93417Z" fill="url(#paint17_radial_47_1010)"/>
<path fill-rule="evenodd" clip-rule="evenodd" d="M25.6656 33.3181C21.8059 33.2617 17.9461 33.2053 14.1261 33.0926L14.0067 37.2644C19.6571 37.4899 30.1223 37.6027 42.0597 37.6027C53.9972 37.6027 64.4623 37.4899 70.1127 37.2644L69.9933 33.0926C66.1335 33.2053 62.2738 33.2617 58.4538 33.3181C53.0024 33.3745 47.5509 33.4309 42.0995 33.4309C36.5685 33.4309 31.1171 33.3745 25.6656 33.3181Z" fill="url(#paint18_radial_47_1010)"/>
<path opacity="0.35" fill-rule="evenodd" clip-rule="evenodd" d="M42.0199 36.2496C26.6206 36.2496 14.1261 34.8402 14.1261 33.0926L14.0067 37.2644C19.6571 37.4899 30.1223 37.6027 42.0597 37.6027C53.9972 37.6027 64.4623 37.4899 70.1127 37.2644L69.9933 33.0926C69.9137 34.8402 57.4192 36.2496 42.0199 36.2496Z" fill="url(#paint19_radial_47_1010)"/>
<path fill-rule="evenodd" clip-rule="evenodd" d="M7.87838 5.13022C9.35066 8.73827 5.96839 13.5302 3.42174 11.4443L5.96839 13.5302C6.4061 12.6846 7.08255 11.7262 7.56005 10.9933C8.03755 10.3168 8.714 9.3584 9.35066 8.73827L7.87838 5.13022Z" fill="#AC73EF"/>
<path fill-rule="evenodd" clip-rule="evenodd" d="M3.46178 11.3878C6.00843 13.4737 4.7749 20.0133 1.83033 20.0133H4.7749C4.85448 18.9986 5.09323 17.6455 5.29219 16.6872C5.49114 15.7288 5.72989 14.4321 6.00843 13.4737L3.46178 11.3878Z" fill="#AC73EF"/>
<path fill-rule="evenodd" clip-rule="evenodd" d="M1.83033 20.0133C4.7749 20.0133 6.64509 25.9892 4.21782 28.0187L6.00843 26.5529C5.6901 25.5945 5.45135 24.2979 5.29219 23.3395C5.09323 22.3811 4.85448 21.0845 4.7749 20.0133H1.83033Z" fill="#AC73EF"/>
<path fill-rule="evenodd" clip-rule="evenodd" d="M76.1211 34.8965C74.6489 31.2885 78.0311 26.4965 80.5778 28.5824L78.0311 26.4965C77.5934 27.3422 76.917 28.3006 76.4395 29.0334C75.962 29.7099 75.2855 30.6683 74.6489 31.2885L76.1211 34.8965Z" fill="#AC73EF"/>
<path fill-rule="evenodd" clip-rule="evenodd" d="M80.5774 28.6389C78.0307 26.5529 79.2642 20.0133 82.2088 20.0133H79.2642C79.1846 21.0281 78.9459 22.3811 78.7469 23.3395C78.548 24.2979 78.3092 25.5945 78.0307 26.5529L80.5774 28.6389Z" fill="#AC73EF"/>
<path fill-rule="evenodd" clip-rule="evenodd" d="M82.2088 20.0134C79.2642 20.0134 77.394 14.0376 79.8213 12.0081L78.0307 13.4738C78.349 14.4322 78.5878 15.7289 78.7469 16.6872C78.9459 17.6456 79.1846 18.9423 79.2642 20.0134H82.2088Z" fill="#AC73EF"/>
<path fill-rule="evenodd" clip-rule="evenodd" d="M3.85982 11.7261C4.4169 12.3462 4.93419 12.9664 5.49127 13.5865L5.57085 13.9248C5.13315 15.7852 4.81482 17.7019 4.53627 19.5623L4.37711 19.7878C3.89961 19.8442 3.42212 19.957 2.94462 20.0133C3.42212 20.0697 3.89961 20.1261 4.37711 20.1825L4.57607 20.408C4.81482 21.4791 5.09336 22.5502 5.3719 23.6214C5.3321 23.5086 5.33211 23.3959 5.29231 23.2831C5.09336 22.3247 4.85461 21.0281 4.77503 19.957C4.85461 18.9422 5.09336 17.5892 5.29231 16.6308C5.49127 15.6724 5.73002 14.3758 6.00856 13.4174C6.44626 12.5717 7.12272 11.6133 7.60022 10.8805C8.07772 10.2039 8.75417 9.24554 9.39083 8.62541C10.0673 8.1744 10.9825 7.83615 11.6589 7.61064C12.3752 7.32876 13.37 6.99052 14.126 6.87777C17.9858 6.76502 21.8456 6.70864 25.6655 6.65226C31.117 6.59589 36.5684 6.53951 42.0198 6.53951C47.4713 6.53951 52.9227 6.53951 58.3741 6.65226C62.2339 6.70864 66.0937 6.76502 69.9136 6.87777C70.6697 6.93415 71.6645 7.32876 72.3807 7.61064C72.699 7.72339 73.0174 7.83617 73.3755 8.00529C72.3011 7.49791 71.187 6.99052 70.033 6.65226C69.9932 6.03213 69.9932 5.46837 69.9534 4.84824C69.8738 5.46837 69.8341 6.0885 69.7545 6.70863C51.2912 6.37037 32.7882 5.97575 14.4046 6.65226L14.2454 6.42675C14.1658 5.41199 14.0464 4.45361 13.9668 3.43884C13.9271 4.45361 13.9271 5.41199 13.8873 6.42675L13.7281 6.65226C12.3354 6.99052 10.9427 7.55428 9.58979 8.17441L9.35104 8.06166C8.87354 7.10327 8.39605 6.14488 7.91855 5.24287C8.23688 6.31401 8.59501 7.38514 8.91334 8.51265L8.87354 8.85092C7.83897 10.0912 6.92376 11.4442 6.00856 12.7972L5.76981 12.8536C5.17294 12.459 4.53627 12.1207 3.85982 11.7261Z" fill="#AC73EF"/>
<path fill-rule="evenodd" clip-rule="evenodd" d="M69.6355 33.7127C69.7548 34.5583 69.914 35.4603 70.0334 36.306C70.0732 35.4039 70.113 34.5583 70.1925 33.6563L70.3517 33.4308C71.7046 33.0362 73.0575 32.4724 74.4502 31.7959L74.689 31.9086C75.1665 32.867 75.6042 33.7691 76.0817 34.7274C75.7236 33.7127 75.4052 32.6979 75.0471 31.6831L75.0869 31.3449C76.1215 29.9919 77.1163 28.5825 78.0713 27.0603L78.31 27.004C78.7875 27.3422 79.3048 27.6241 79.7823 27.9623C79.3446 27.5677 78.9069 27.1167 78.509 26.7221L78.4294 26.3838C78.7079 24.918 78.9069 23.4523 79.066 21.9865C78.9865 22.4375 78.9069 22.9449 78.8273 23.3395C78.6283 24.2979 78.3896 25.5946 78.111 26.5529C77.6733 27.3986 76.9969 28.357 76.5194 29.0899C76.0419 29.7664 75.3654 30.7248 74.7288 31.3449C74.0523 31.7959 73.1371 32.1342 72.4607 32.3597C71.7444 32.6415 70.7496 32.9798 69.9936 33.0925C66.1338 33.2053 62.274 33.2617 58.4541 33.318C53.6393 33.3744 48.8245 33.4308 44.0098 33.4308C52.5251 33.7127 61.1599 33.5999 69.5559 33.4872L69.6355 33.7127Z" fill="#AC73EF"/>
<path fill-rule="evenodd" clip-rule="evenodd" d="M70.0729 2.81879C64.4225 2.59329 53.9574 2.48053 42.0199 2.48053C30.0825 2.48053 19.6173 2.59329 13.967 2.81879C13.967 3.10067 26.5411 3.32618 42.0199 3.32618C57.2203 3.32618 69.5556 3.10067 70.0729 2.81879Z" fill="url(#paint20_radial_47_1010)"/>
<path d="M12.3027 20.2559H10.1113L10.0996 19.0488H11.9395C12.2637 19.0488 12.5293 19.0078 12.7363 18.9258C12.9434 18.8398 13.0977 18.7168 13.1992 18.5566C13.3047 18.3926 13.3574 18.1934 13.3574 17.959C13.3574 17.6934 13.3066 17.4785 13.2051 17.3145C13.1074 17.1504 12.9531 17.0312 12.7422 16.957C12.5352 16.8828 12.2676 16.8457 11.9395 16.8457H10.7207V24H8.96289V15.4688H11.9395C12.4355 15.4688 12.8789 15.5156 13.2695 15.6094C13.6641 15.7031 13.998 15.8457 14.2715 16.0371C14.5449 16.2285 14.7539 16.4707 14.8984 16.7637C15.043 17.0527 15.1152 17.3965 15.1152 17.7949C15.1152 18.1465 15.0352 18.4707 14.875 18.7676C14.7188 19.0645 14.4707 19.3066 14.1309 19.4941C13.7949 19.6816 13.3555 19.7852 12.8125 19.8047L12.3027 20.2559ZM12.2266 24H9.63086L10.3164 22.6289H12.2266C12.5352 22.6289 12.7871 22.5801 12.9824 22.4824C13.1777 22.3809 13.3223 22.2441 13.416 22.0723C13.5098 21.9004 13.5566 21.7031 13.5566 21.4805C13.5566 21.2305 13.5137 21.0137 13.4277 20.8301C13.3457 20.6465 13.2129 20.5059 13.0293 20.4082C12.8457 20.3066 12.6035 20.2559 12.3027 20.2559H10.6094L10.6211 19.0488H12.7305L13.1348 19.5234C13.6543 19.5156 14.0723 19.6074 14.3887 19.7988C14.709 19.9863 14.9414 20.2305 15.0859 20.5312C15.2344 20.832 15.3086 21.1543 15.3086 21.498C15.3086 22.0449 15.1895 22.5059 14.9512 22.8809C14.7129 23.252 14.3633 23.5312 13.9023 23.7188C13.4453 23.9062 12.8867 24 12.2266 24ZM19.4395 24.1172C18.9473 24.1172 18.5059 24.0391 18.1152 23.8828C17.7246 23.7227 17.3926 23.502 17.1191 23.2207C16.8496 22.9395 16.6426 22.6133 16.498 22.2422C16.3535 21.8672 16.2812 21.4688 16.2812 21.0469V20.8125C16.2812 20.332 16.3496 19.8926 16.4863 19.4941C16.623 19.0957 16.8184 18.75 17.0723 18.457C17.3301 18.1641 17.6426 17.9395 18.0098 17.7832C18.377 17.623 18.791 17.543 19.252 17.543C19.7012 17.543 20.0996 17.6172 20.4473 17.7656C20.7949 17.9141 21.0859 18.125 21.3203 18.3984C21.5586 18.6719 21.7383 19 21.8594 19.3828C21.9805 19.7617 22.041 20.1836 22.041 20.6484V21.3516H17.002V20.2266H20.3828V20.0977C20.3828 19.8633 20.3398 19.6543 20.2539 19.4707C20.1719 19.2832 20.0469 19.1348 19.8789 19.0254C19.7109 18.916 19.4961 18.8613 19.2344 18.8613C19.0117 18.8613 18.8203 18.9102 18.6602 19.0078C18.5 19.1055 18.3691 19.2422 18.2676 19.418C18.1699 19.5938 18.0957 19.8008 18.0449 20.0391C17.998 20.2734 17.9746 20.5312 17.9746 20.8125V21.0469C17.9746 21.3008 18.0098 21.5352 18.0801 21.75C18.1543 21.9648 18.2578 22.1504 18.3906 22.3066C18.5273 22.4629 18.6914 22.584 18.8828 22.6699C19.0781 22.7559 19.2988 22.7988 19.5449 22.7988C19.8496 22.7988 20.1328 22.7402 20.3945 22.623C20.6602 22.502 20.8887 22.3203 21.0801 22.0781L21.9004 22.9688C21.7676 23.1602 21.5859 23.3438 21.3555 23.5195C21.1289 23.6953 20.8555 23.8398 20.5352 23.9531C20.2148 24.0625 19.8496 24.1172 19.4395 24.1172ZM26.1074 17.6602V18.8555H22.416V17.6602H26.1074ZM23.3301 16.0957H25.0176V22.0898C25.0176 22.2734 25.041 22.4141 25.0879 22.5117C25.1387 22.6094 25.2129 22.6777 25.3105 22.7168C25.4082 22.752 25.5312 22.7695 25.6797 22.7695C25.7852 22.7695 25.8789 22.7656 25.9609 22.7578C26.0469 22.7461 26.1191 22.7344 26.1777 22.7227L26.1836 23.9648C26.0391 24.0117 25.8828 24.0488 25.7148 24.0762C25.5469 24.1035 25.3613 24.1172 25.1582 24.1172C24.7871 24.1172 24.4629 24.0566 24.1855 23.9355C23.9121 23.8105 23.7012 23.6113 23.5527 23.3379C23.4043 23.0645 23.3301 22.7051 23.3301 22.2598V16.0957ZM27.1328 23.1855C27.1328 22.9355 27.2188 22.7266 27.3906 22.5586C27.5664 22.3906 27.7988 22.3066 28.0879 22.3066C28.377 22.3066 28.6074 22.3906 28.7793 22.5586C28.9551 22.7266 29.043 22.9355 29.043 23.1855C29.043 23.4355 28.9551 23.6445 28.7793 23.8125C28.6074 23.9805 28.377 24.0645 28.0879 24.0645C27.7988 24.0645 27.5664 23.9805 27.3906 23.8125C27.2188 23.6445 27.1328 23.4355 27.1328 23.1855ZM27.1328 18.3516C27.1328 18.1016 27.2188 17.8926 27.3906 17.7246C27.5664 17.5566 27.7988 17.4727 28.0879 17.4727C28.377 17.4727 28.6074 17.5566 28.7793 17.7246C28.9551 17.8926 29.043 18.1016 29.043 18.3516C29.043 18.6016 28.9551 18.8105 28.7793 18.9785C28.6074 19.1465 28.377 19.2305 28.0879 19.2305C27.7988 19.2305 27.5664 19.1465 27.3906 18.9785C27.2188 18.8105 27.1328 18.6016 27.1328 18.3516Z" fill="white"/>
<defs>
<linearGradient id="paint0_linear_47_1010" x1="42.014" y1="40.0122" x2="42.014" y2="-0.0422814" gradientUnits="userSpaceOnUse">
<stop stop-color="#3B3A52"/>
<stop offset="1" stop-color="#8292AB"/>
</linearGradient>
<linearGradient id="paint1_linear_47_1010" x1="41.9741" y1="39.9626" x2="41.9741" y2="18.3031" gradientUnits="userSpaceOnUse">
<stop stop-color="#3B3A52"/>
<stop offset="1" stop-color="#8292AB"/>
</linearGradient>
<linearGradient id="paint2_linear_47_1010" x1="42.014" y1="40.0122" x2="42.014" y2="-0.0422814" gradientUnits="userSpaceOnUse">
<stop stop-color="#4A4D61"/>
<stop offset="1" stop-color="#46435E"/>
</linearGradient>
<linearGradient id="paint3_linear_47_1010" x1="42.014" y1="38.4387" x2="42.014" y2="1.58414" gradientUnits="userSpaceOnUse">
<stop stop-color="#707E94"/>
<stop offset="1" stop-color="#3E3C54"/>
</linearGradient>
<radialGradient id="paint4_radial_47_1010" cx="0" cy="0" r="1" gradientUnits="userSpaceOnUse" gradientTransform="translate(76.9327 44.0351) rotate(180) scale(13.5892 19.2529)">
<stop stop-color="#7C83D6"/>
<stop offset="1" stop-color="#7B24D6"/>
</radialGradient>
<radialGradient id="paint5_radial_47_1010" cx="0" cy="0" r="1" gradientUnits="userSpaceOnUse" gradientTransform="translate(77.8831 34.2275) rotate(180) scale(13.4869 19.108)">
<stop stop-color="#BF91FF"/>
<stop offset="1" stop-color="#7C56D6"/>
</radialGradient>
<radialGradient id="paint6_radial_47_1010" cx="0" cy="0" r="1" gradientUnits="userSpaceOnUse" gradientTransform="translate(93.3299 30.2129) rotate(180) scale(15.6675 22.1975)">
<stop stop-color="#A38FD6"/>
<stop offset="1" stop-color="#7C56D6"/>
</radialGradient>
<radialGradient id="paint7_radial_47_1010" cx="0" cy="0" r="1" gradientUnits="userSpaceOnUse" gradientTransform="translate(98.4697 9.53307) rotate(180) scale(28.8221 40.8347)">
<stop stop-color="#7C83D6"/>
<stop offset="1" stop-color="#7B24D6"/>
</radialGradient>
<radialGradient id="paint8_radial_47_1010" cx="0" cy="0" r="1" gradientUnits="userSpaceOnUse" gradientTransform="translate(73.7194 -2.9609) rotate(180) scale(13.5693 19.2247)">
<stop stop-color="#907CD6"/>
<stop offset="1" stop-color="#7230E3"/>
</radialGradient>
<radialGradient id="paint9_radial_47_1010" cx="0" cy="0" r="1" gradientUnits="userSpaceOnUse" gradientTransform="translate(64.1164 -0.694553) rotate(180) scale(21.4842 30.4384)">
<stop stop-color="#896BD6"/>
<stop offset="1" stop-color="#5F00D6"/>
</radialGradient>
<radialGradient id="paint10_radial_47_1010" cx="0" cy="0" r="1" gradientUnits="userSpaceOnUse" gradientTransform="translate(16.7132 -3.69548) scale(84.5155 119.74)">
<stop stop-color="#9F73FF"/>
<stop offset="1" stop-color="#4F1DA3"/>
</radialGradient>
<radialGradient id="paint11_radial_47_1010" cx="0" cy="0" r="1" gradientUnits="userSpaceOnUse" gradientTransform="translate(7.0956 -4.0129) scale(13.5892 19.2529)">
<stop stop-color="#907CD6"/>
<stop offset="1" stop-color="#7230E3"/>
</radialGradient>
<radialGradient id="paint12_radial_47_1010" cx="0" cy="0" r="1" gradientUnits="userSpaceOnUse" gradientTransform="translate(6.14427 5.79527) scale(13.4873 19.1086)">
<stop stop-color="#BF91FF"/>
<stop offset="1" stop-color="#7C56D6"/>
</radialGradient>
<radialGradient id="paint13_radial_47_1010" cx="0" cy="0" r="1" gradientUnits="userSpaceOnUse" gradientTransform="translate(-9.30172 9.80988) scale(15.6675 22.1974)">
<stop stop-color="#A38FD6"/>
<stop offset="1" stop-color="#7C56D6"/>
</radialGradient>
<radialGradient id="paint14_radial_47_1010" cx="0" cy="0" r="1" gradientUnits="userSpaceOnUse" gradientTransform="translate(-14.4416 30.4897) scale(28.8221 40.8348)">
<stop stop-color="#7C83D6"/>
<stop offset="1" stop-color="#7B24D6"/>
</radialGradient>
<radialGradient id="paint15_radial_47_1010" cx="0" cy="0" r="1" gradientUnits="userSpaceOnUse" gradientTransform="translate(-3.80997 37.9144) scale(13.5705 19.2264)">
<stop stop-color="#A57CD6"/>
<stop offset="1" stop-color="#6F36BA"/>
</radialGradient>
<radialGradient id="paint16_radial_47_1010" cx="0" cy="0" r="1" gradientUnits="userSpaceOnUse" gradientTransform="translate(4.52826 55.0503) scale(21.4842 30.4384)">
<stop stop-color="#896BD6"/>
<stop offset="1" stop-color="#511F82"/>
</radialGradient>
<radialGradient id="paint17_radial_47_1010" cx="0" cy="0" r="1" gradientUnits="userSpaceOnUse" gradientTransform="translate(30.4334 -53.5446) scale(49.4309 70.0328)">
<stop stop-color="#D9B8FF"/>
<stop offset="1" stop-color="#C194FF"/>
</radialGradient>
<radialGradient id="paint18_radial_47_1010" cx="0" cy="0" r="1" gradientUnits="userSpaceOnUse" gradientTransform="translate(32.7756 -13.7165) scale(50.7516 71.9043)">
<stop stop-color="#8259B5"/>
<stop offset="1" stop-color="#5522A3"/>
</radialGradient>
<radialGradient id="paint19_radial_47_1010" cx="0" cy="0" r="1" gradientUnits="userSpaceOnUse" gradientTransform="translate(42.014 35.3172) scale(42.9656 60.8732)">
<stop stop-color="#986FBF"/>
<stop offset="1"/>
</radialGradient>
<radialGradient id="paint20_radial_47_1010" cx="0" cy="0" r="1" gradientUnits="userSpaceOnUse" gradientTransform="translate(42.014 2.88588) scale(55.2548 78.2848)">
<stop stop-color="#9C3AFF"/>
<stop offset="1"/>
</radialGradient>
</defs>
</svg>
