<svg width="316" height="483" viewBox="0 0 316 483" fill="none" xmlns="http://www.w3.org/2000/svg">
<path fill-rule="evenodd" clip-rule="evenodd" d="M288.893 482.22C267.741 481.636 246.842 480.663 224.465 478.911C211.529 479.495 198.52 480.533 185.476 482.869C150.595 483.323 119.102 482.674 84.4731 479.69C62.5285 482.155 40.8721 482.869 19.1797 482.739C14.0629 479.236 9.48659 469.309 5.4508 463.729C4.87426 442.901 4.26168 422.204 3.541 401.636C2.85636 381.069 1.77534 360.566 0.333984 340.193C2.60412 306.844 3.3248 273.754 1.99154 240.794C4.91029 222.043 6.96422 202.838 8.11731 183.113C5.63097 147.753 3.2167 112.522 1.45104 77.5502C4.22565 58.0855 6.45975 38.556 8.40558 19.0265C11.3243 14.0306 15.3601 5.01195 19.0716 1.5732C39.7911 1.31367 61.6637 3.13037 83.0678 5.33636C106.418 5.33636 126.236 3.84407 149.298 1.24878C160.937 1.44343 170.81 2.54643 180.828 4.42801C209.979 5.07683 239.022 3.77919 267.958 0.989255C275.092 1.57319 282.011 2.02737 288.857 2.48155C292.353 2.09225 295.884 1.5732 299.379 0.924377C302.19 1.18391 312.243 12.4085 312.964 15.977C313.685 31.2892 312.676 60.6159 310.982 82.611C310.838 112.651 312.64 142.951 314.91 173.446C315.09 195.506 314.838 217.306 314.261 238.847C313.721 260.388 312.748 281.799 311.559 302.951C311.595 317.03 313.577 331.11 315.45 345.254C313.432 382.95 312.568 421.62 313 461.458C311.523 465.416 302.622 480.468 299.415 480.858C296.569 481.441 292.893 481.896 288.893 482.22Z" fill="#75BDEF"/>
<path fill-rule="evenodd" clip-rule="evenodd" d="M22.6028 464.572C20.3687 462.756 18.2067 460.744 16.3329 458.408C12.6935 460.29 9.09011 462.172 5.45068 464.053C9.45045 469.698 14.0988 479.236 19.2156 482.804C20.2966 478.457 21.4497 468.919 22.6028 464.572Z" fill="#739FF4"/>
<path fill-rule="evenodd" clip-rule="evenodd" d="M16.2964 458.408C16.5847 437.646 17.5936 414.872 17.8819 392.553C18.2062 370.233 17.6297 348.173 14.9632 328.709C10.0986 332.602 5.23401 336.559 0.297363 340.452C1.77475 360.825 2.81974 381.393 3.50438 401.961C4.18902 422.528 4.8016 443.226 5.41418 464.053C9.0536 462.171 12.693 460.29 16.2964 458.408Z" fill="url(#paint0_radial_55_527)"/>
<path fill-rule="evenodd" clip-rule="evenodd" d="M14.9998 328.708C16.7654 296.527 17.3059 274.662 15.1439 246.049C10.7478 244.362 6.42371 242.675 2.02758 240.923C3.28876 273.883 2.60412 307.038 0.333984 340.452C5.27063 336.559 10.1352 332.666 14.9998 328.708Z" fill="url(#paint1_radial_55_527)"/>
<path fill-rule="evenodd" clip-rule="evenodd" d="M15.1437 246.049C15.6482 225.222 16.8733 209.78 19.3596 191.353C15.6482 188.628 11.9006 185.968 8.18914 183.243C7.00002 202.902 4.94609 222.107 2.02734 240.923C6.38744 242.675 10.7475 244.362 15.1437 246.049Z" fill="url(#paint2_radial_55_527)"/>
<path fill-rule="evenodd" clip-rule="evenodd" d="M8.15299 183.243C11.8645 185.968 15.612 188.693 19.3235 191.354C15.648 156.771 12.3329 110.9 10.6754 76.4473C7.61248 76.8366 4.51356 77.2259 1.45068 77.5503C3.28841 112.587 5.63061 147.818 8.15299 183.243Z" fill="url(#paint3_radial_55_527)"/>
<path fill-rule="evenodd" clip-rule="evenodd" d="M10.7115 76.5122C12.6934 58.0857 15.9004 41.8003 20.3325 26.553C16.3688 24.0226 12.3691 21.557 8.44136 19.0266C6.49553 38.5562 4.26143 58.0208 1.48682 77.5503C4.5497 77.2908 7.61258 76.9015 10.7115 76.5122Z" fill="url(#paint4_radial_55_527)"/>
<path fill-rule="evenodd" clip-rule="evenodd" d="M8.40625 19.0263C12.3339 21.5567 16.3337 24.0222 20.2974 26.5526C21.7748 24.2818 23.5044 22.0758 25.2701 20.1293C23.1441 15.2631 21.1262 6.50404 19.0723 1.573C15.3968 5.01175 11.325 14.0304 8.40625 19.0263Z" fill="url(#paint5_radial_55_527)"/>
<path fill-rule="evenodd" clip-rule="evenodd" d="M19.1079 1.57341C21.1618 6.50446 23.2158 15.2635 25.3057 20.1297C44.8721 20.1297 59.6821 22.4655 79.4286 24.5417C80.6178 19.416 81.8789 10.4623 83.1041 5.33658C61.6639 3.13059 39.8274 1.37877 19.1079 1.57341Z" fill="url(#paint6_radial_55_527)"/>
<path fill-rule="evenodd" clip-rule="evenodd" d="M83.1042 5.33611C81.879 10.4618 80.6178 19.4155 79.4287 24.5412C101.301 21.6215 129.047 18.7667 151.172 16.2363C150.596 12.538 149.947 5.0117 149.37 1.24854C126.273 3.84382 106.454 5.33611 83.1042 5.33611Z" fill="url(#paint7_radial_55_527)"/>
<path fill-rule="evenodd" clip-rule="evenodd" d="M149.37 1.24854C149.946 5.0117 150.595 12.538 151.171 16.2363C161.117 16.5607 164.684 16.8851 174.846 18.7667C176.827 15.328 178.845 7.9314 180.863 4.42776C170.882 2.54618 161.009 1.44318 149.37 1.24854Z" fill="url(#paint8_radial_55_527)"/>
<path fill-rule="evenodd" clip-rule="evenodd" d="M180.863 4.42762C178.845 7.93125 176.828 15.3278 174.846 18.7666C204.934 20.7779 249.832 21.7511 279.2 17.2743C275.452 13.1867 271.705 5.14132 268.029 0.988861C239.058 3.77879 210.015 5.07644 180.863 4.42762Z" fill="url(#paint9_radial_55_527)"/>
<path fill-rule="evenodd" clip-rule="evenodd" d="M299.451 0.859619C298.37 5.46625 297.325 13.9009 296.316 18.5076C297.253 19.0915 298.298 19.8701 299.199 20.5838C303.811 19.0266 308.388 17.4694 313.036 15.9123C312.315 12.3438 302.262 1.11915 299.451 0.859619Z" fill="#9BC9FF"/>
<path fill-rule="evenodd" clip-rule="evenodd" d="M313.036 15.912C308.388 17.4692 303.812 19.0264 299.199 20.5836C299.884 42.8381 298.947 63.1463 296.533 86.1794C301.433 84.1681 306.262 82.0918 311.126 80.0805C312.784 58.345 313.757 30.8349 313.036 15.912Z" fill="url(#paint10_radial_55_527)"/>
<path fill-rule="evenodd" clip-rule="evenodd" d="M311.126 80.0806C306.262 82.0919 301.433 84.1681 296.533 86.1795C298.911 116.415 302.875 153.268 305.181 184.022C308.424 180.259 311.667 176.431 314.982 172.602C312.712 142.173 310.946 111.808 311.054 81.7675C311.09 81.2484 311.126 80.6645 311.126 80.0806Z" fill="url(#paint11_radial_55_527)"/>
<path fill-rule="evenodd" clip-rule="evenodd" d="M314.982 172.602C311.703 176.43 308.424 180.258 305.181 184.022C305.577 226.844 302.767 254.808 298.767 295.229C303.019 297.565 307.343 299.836 311.631 302.172C312.82 280.955 313.793 259.544 314.334 238.003C314.874 216.463 315.126 194.662 314.982 172.602Z" fill="url(#paint12_radial_55_527)"/>
<path fill-rule="evenodd" clip-rule="evenodd" d="M311.631 302.237C307.343 299.902 303.019 297.631 298.767 295.295C298.767 310.088 301.001 340.453 302.875 355.051C307.055 351.613 311.307 348.174 315.523 344.67C313.649 330.461 311.667 316.382 311.631 302.237Z" fill="url(#paint13_radial_55_527)"/>
<path fill-rule="evenodd" clip-rule="evenodd" d="M315.522 344.605C311.306 348.109 307.054 351.548 302.874 354.986C300.856 391.515 302.838 419.609 303.018 456.267C306.405 457.825 309.721 459.901 313.108 461.393C312.639 421.555 313.504 382.302 315.522 344.605Z" fill="url(#paint14_radial_55_527)"/>
<path fill-rule="evenodd" clip-rule="evenodd" d="M313.072 461.393C309.685 459.901 306.37 457.824 302.982 456.267C301.721 457.37 300.208 458.473 299.271 458.992C299.343 463.469 299.415 476.446 299.523 480.858C302.73 480.403 311.595 465.351 313.072 461.393Z" fill="url(#paint15_radial_55_527)"/>
<path fill-rule="evenodd" clip-rule="evenodd" d="M224.502 478.976C224.718 473.656 225.006 463.145 225.258 457.824C215.349 459.576 196.071 463.664 181.477 467.297C182.774 470.801 184.144 479.495 185.477 482.934C198.557 480.533 211.565 479.495 224.502 478.976Z" fill="url(#paint16_radial_55_527)"/>
<path fill-rule="evenodd" clip-rule="evenodd" d="M185.475 482.869C184.07 479.43 182.773 470.412 181.475 466.908C149.802 464.378 117.371 461.912 85.7334 458.214C85.2649 463.534 84.8325 474.434 84.4722 479.69C119.101 482.674 150.594 483.323 185.475 482.869Z" fill="url(#paint17_radial_55_527)"/>
<path fill-rule="evenodd" clip-rule="evenodd" d="M84.4721 479.69C84.8685 474.369 85.2649 463.858 85.6973 458.473C67.5362 461.004 43.2493 463.858 22.6019 464.507C21.4488 468.854 20.2958 478.392 19.1787 482.739C40.8711 482.869 62.5635 482.155 84.4721 479.69Z" fill="url(#paint18_radial_55_527)"/>
<path fill-rule="evenodd" clip-rule="evenodd" d="M14.9995 328.709C17.666 348.174 18.2426 370.234 17.9183 392.553C17.594 414.872 16.621 437.646 16.2967 458.408C18.2065 460.744 20.3325 462.756 22.5666 464.572C41.9889 463.988 64.6902 461.393 82.3468 458.992C83.0675 458.863 83.6441 458.473 84.1125 457.824C84.5809 457.111 84.8332 456.397 84.7971 455.554C84.7611 454.645 84.5089 453.672 84.2927 452.374C81.1217 432.975 77.5543 413.64 72.6537 394.694C72.6177 374.775 70.6719 355.246 66.6361 336.17C59.9338 321.832 55.0692 307.103 51.646 291.921C43.4663 281.345 35.8992 269.212 28.6564 256.041C25.6295 253.511 22.4946 250.202 19.6839 250.202C18.6029 250.202 17.63 250.656 16.9093 251.694C16.1886 252.732 15.8283 253.965 15.9364 255.327C17.2696 279.593 16.6571 300.096 14.9995 328.709Z" fill="url(#paint19_radial_55_527)"/>
<path fill-rule="evenodd" clip-rule="evenodd" d="M56.7625 297.825C59.1408 310.282 62.7802 321.442 67.1043 332.018C68.1853 332.796 68.7979 332.991 69.3384 332.796C70.5275 332.407 84.2204 309.828 86.0221 306.908C91.1389 303.145 95.1026 297.955 99.2825 290.947C101.228 287.898 100.328 288.093 97.7331 288.352C95.3188 288.547 84.2204 289.909 74.3831 290.688C68.942 291.077 63.5729 291.337 60.2578 291.402C57.6634 291.531 55.8977 292.05 56.7625 297.825Z" fill="url(#paint20_radial_55_527)"/>
<path fill-rule="evenodd" clip-rule="evenodd" d="M29.9894 249.877C30.9623 243.843 26.9265 211.337 22.8186 198.231C21.3773 193.624 19.2152 191.483 18.8188 197.452C17.7378 210.494 16.3325 222.432 15.4677 235.992C15.5037 236.447 15.4677 236.966 15.4317 237.485C15.3956 239.691 15.756 240.988 16.4766 242.351C18.5306 246.114 22.5303 247.801 26.4941 250.396C27.7552 251.175 29.5209 252.862 29.9894 249.877Z" fill="url(#paint21_radial_55_527)"/>
<path fill-rule="evenodd" clip-rule="evenodd" d="M20.729 190.121C26.7827 204.2 29.1609 220.226 30.8905 235.927C31.5031 241.572 31.395 246.893 32.1157 252.537C32.6562 256.884 33.7733 260.128 35.647 263.567C40.6197 272.716 46.2049 280.566 52.2226 287.574C54.6729 290.428 55.8981 290.104 59.2132 290.104C71.1404 290.104 84.7252 288.287 96.4722 287.055C99.7873 286.73 101.265 286.341 104.544 285.238C111.102 286.6 117.264 287.184 123.858 287.833C129.515 288.352 135.389 288.287 139.605 287.768C142.668 287.379 144.83 286.795 145.442 286.146C146.992 284.459 148.397 283.551 149.406 279.593C153.045 265.254 155.784 245.725 157.153 224.703C158.523 203.746 158.703 181.232 158.162 161.053C158.018 155.474 157.081 153.138 155.099 147.817C147.532 128.158 128.506 92.473 120.219 79.4966C97.9136 57.8908 84.7252 35.8958 78.8156 27.3314C77.6986 25.7093 75.8248 25.0605 73.0862 23.9575C66.42 23.2438 60.1861 22.4652 54.0603 21.8813C53.8081 21.8813 53.5919 21.8164 53.3757 21.8164C49.3759 21.3622 49.0156 21.5568 47.6463 26.0986C45.9167 31.938 43.9348 37.453 41.8088 42.9031C33.3408 54.3223 24.0801 64.6386 14.7113 74.5007C11.2521 78.1341 10.7476 78.718 11.18 85.1413C12.9096 116.609 15.7203 155.409 18.9273 186.422C19.5038 187.525 20.1885 188.823 20.729 190.121Z" fill="url(#paint22_radial_55_527)"/>
<path fill-rule="evenodd" clip-rule="evenodd" d="M14.783 71.8403C23.8996 62.6919 32.7639 53.0894 40.9797 42.1243C41.9886 39.6588 46.7811 24.9305 45.8082 22.5299C45.4118 21.5566 44.6551 20.8429 42.6732 20.7132C37.1601 20.3239 31.4667 20.1292 25.3049 20.1292C23.5393 22.0757 21.8096 24.2817 20.3322 26.5526C16.4406 39.9183 13.5579 54.0626 11.54 69.7641C10.8914 74.8898 11.6481 75.0195 14.783 71.8403Z" fill="url(#paint23_radial_55_527)"/>
<path fill-rule="evenodd" clip-rule="evenodd" d="M107.967 287.898C105.156 287.638 102.598 289.001 100.652 291.661C96.0397 298.02 91.5355 303.729 87.1033 308.401C82.7432 314.565 75.032 325.984 71.1403 335.716C69.9512 338.701 69.5548 341.62 69.9872 344.735C72.3294 360.89 73.8429 377.176 74.2753 393.786C79.5002 412.212 82.9234 431.936 85.7701 452.115C85.9863 453.737 86.2745 455.164 86.779 456.332C87.4637 457.954 88.6528 458.927 90.2022 459.057C118.309 462.236 146.956 464.572 175.062 466.778C175.206 466.778 175.35 466.843 175.603 466.843C177.08 466.908 180.395 467.167 180.791 466.583C181.981 464.961 180.791 461.587 180.107 457.824C174.702 427.33 171.026 396.77 170.089 366.276C161.802 345.059 155.388 322.675 150.018 299.512C148.433 292.829 147.46 292.05 141.803 291.142C137.551 290.493 130.668 290.039 123.714 289.455C118.128 288.936 112.435 288.352 107.967 287.898Z" fill="url(#paint24_radial_55_527)"/>
<path fill-rule="evenodd" clip-rule="evenodd" d="M172.9 370.558C174.162 399.365 177.513 428.432 181.729 457.564C182.161 460.484 182.269 462.69 182.702 464.183C183.422 466.713 184.72 466.518 186.665 465.999C198.557 463.209 212.177 460.29 221.402 458.538C221.474 458.538 221.618 458.538 221.726 458.473C223.276 458.213 224.249 457.954 225.51 456.202C226.086 455.423 226.699 454.191 227.816 452.179C233.437 442.123 239.023 432.196 244.572 422.139C246.085 419.414 246.482 417.208 245.112 415.651C231.347 399.69 178.414 368.352 174.99 368.936C174.27 369.065 173.585 369.519 172.9 370.558Z" fill="url(#paint25_radial_55_527)"/>
<path fill-rule="evenodd" clip-rule="evenodd" d="M154.343 143.081C157.442 150.932 158.451 149.31 160.253 143.535C168.072 118.037 174.522 91.7593 178.99 64.0546C179.135 55.8146 177.369 24.736 175.063 20.4538C174.666 19.6752 174.342 19.0913 173.874 18.5073C164.469 16.8204 160.829 16.496 151.172 16.1716C131.101 18.4424 106.346 20.9729 85.6266 23.5681C83.897 25.2551 83.3565 26.6176 83.2484 27.9152C82.9241 32.3921 107.031 65.9362 121.336 78.0691C133.335 97.5987 145.155 119.983 154.343 143.081Z" fill="url(#paint26_radial_55_527)"/>
<path fill-rule="evenodd" clip-rule="evenodd" d="M183.062 61.3948C185.512 61.6543 204.79 55.0363 208.43 53.9333C223.564 41.995 239.563 32.0031 257.364 25.1905C259.381 24.4119 270.84 21.1029 271.381 18.897C271.453 18.5725 270.372 18.4428 269.867 18.4428C242.878 21.2976 206.952 20.6488 180.287 19.0267C180.251 19.0267 180.215 19.0267 180.215 19.0267C179.566 18.9618 177.657 18.897 177.404 19.0916C176.936 19.416 177.08 21.8167 177.116 22.4655C177.332 25.9042 178.449 32.5871 178.99 37.8425C179.602 44.0712 179.927 51.0136 180.251 56.7232C180.359 59.4483 180.107 61.1352 183.062 61.3948Z" fill="url(#paint27_radial_55_527)"/>
<path fill-rule="evenodd" clip-rule="evenodd" d="M56.7627 297.825C59.1409 310.282 62.7803 321.442 67.1044 332.018C68.1854 332.796 68.798 332.991 69.3385 332.796C70.5276 332.407 84.2205 309.828 86.0222 306.908C91.139 303.145 95.1027 297.955 99.2827 290.947C101.229 287.898 100.328 288.093 97.7332 288.352C95.3189 288.547 84.2205 289.909 74.3832 290.688C68.9421 291.077 63.5731 291.337 60.258 291.402C57.6635 291.531 55.8979 292.05 56.7627 297.825ZM288.893 460.485C290.839 460.549 292.821 460.679 294.767 460.744C297.001 460.809 298.154 460.614 298.73 463.469C299.199 465.87 299.127 469.049 299.379 471.514C299.631 468.205 299.847 464.183 300.208 460.939C300.316 459.966 302.658 457.889 303.703 458.019C306.658 458.408 309.468 460.16 312.351 461.068C309.18 458.992 305.721 456.786 304.712 454.775C304.279 453.931 304.207 452.958 304.171 451.661C303.487 422.853 302.91 394.11 302.406 365.302L302.946 358.814C303.198 353.689 307.45 351.872 310.009 349.147C306.514 350.704 303.487 353.883 302.73 348.303C300.316 330.655 299.235 317.16 299.307 300.161C299.343 295.684 301.721 297.76 305.901 299.123C303.198 296.852 300.46 294.776 299.847 293.543C299.451 292.764 299.811 291.272 300.064 289.78C304.856 259.545 306.658 220.94 306.658 187.525C306.658 181.426 309.829 179.934 312.207 175.782C309.144 177.923 306.405 180.453 305.793 175.587C301.613 146.131 299.703 113.56 296.676 87.6717C296.28 87.6717 304.243 171.37 304.82 179.026C305 198.815 304.496 215.035 303.162 234.76C301.937 251.888 299.991 278.944 298.226 296.008C298.19 316.057 299.991 333.316 302.334 353.105C294.082 363.161 261.291 404.037 255.886 409.293C253.976 411.109 248.607 415.262 246.301 413.25C236.392 404.686 226.194 398.457 213.474 389.244C197.115 377.435 187.349 373.867 170.522 358.944C170.522 359.009 170.558 359.139 170.558 359.203C163.243 337.663 156.541 315.732 151.063 287.833C154.919 265.773 157.802 243.064 159.063 220.226C160.36 197.387 160.324 174.419 159.531 151.905C168.071 125.758 174.99 98.9612 179.602 71.3214C180.431 66.3904 181.008 65.0927 185.007 63.4707C191.385 60.8754 204.826 58.5396 210.195 56.9176C223.6 43.2923 247.958 31.8082 267.777 23.6979C271.561 22.1407 274.876 19.9347 277.506 19.221C280.785 18.3776 294.046 17.5341 296.28 18.5073C297.217 19.0913 298.262 19.8699 299.163 20.5836C299.667 37.3232 299.307 52.9597 298.01 69.5047C299.595 56.5283 300.027 44.6548 300.676 30.3159C301.181 18.4424 301.649 20.908 311.522 16.3662C308.027 17.1448 304.604 18.4425 301.108 18.702C299.811 18.8317 297.829 17.015 298.046 14.4198C298.226 11.7596 298.334 6.82855 298.73 4.36302C297.325 8.25595 296.1 12.0191 294.875 14.809C293.902 17.015 285.758 15.6525 283.776 15.393C282.083 15.1335 280.677 14.29 279.308 13.5114C275.849 11.4352 272.966 7.41248 269.399 2.67609C273.507 10.0078 277.831 16.3662 270.299 16.8204C241.328 18.5073 212.105 19.3508 182.629 18.1829C179.999 18.0532 177.368 17.7936 177.188 17.0799C177.116 16.7555 177.656 15.1983 178.413 13.4465C178.954 12.1489 179.566 10.9161 180.107 9.68336C176.143 15.1983 176.179 17.7936 170.053 16.7555C167.243 16.3013 164.36 15.8472 161.477 15.393C152.252 13.9007 152.144 16.3013 149.622 6.69878C149.874 12.2138 150.379 14.3549 145.586 14.809C125.876 16.6257 106.309 18.9615 86.851 22.3354C83.9683 22.8544 82.5269 22.4003 81.9143 21.427C80.9054 19.8699 81.9143 15.9769 82.635 11.0459C81.8423 14.0953 81.0135 16.1716 80.1487 17.9883C77.9866 22.5949 67.3566 21.2973 56.006 20.1943C45.7003 19.1562 35.1784 18.6371 30.3138 18.1829C28.0797 17.9883 26.7464 18.3127 25.5934 17.2746C24.2961 16.1067 21.99 9.09942 20.4045 5.01185C21.4855 9.16431 22.6025 14.6793 22.6746 18.3127C22.6746 19.1562 19.5757 24.5414 16.4408 22.9193C14.4229 21.8812 12.3329 21.1026 10.2069 20.1294C12.1167 21.6217 14.0265 23.1788 15.9002 24.6711C19.3595 27.4611 18.6749 27.7855 17.6299 31.8082C14.2427 44.9792 11.6843 56.2039 9.55828 70.1535C8.6214 76.1876 8.29709 75.9929 3.64872 77.2257C6.85574 77.2906 8.04486 77.2257 8.87363 78.5233C9.48621 79.4317 9.63035 81.6377 9.77448 84.6871C11.1077 118.426 13.9184 147.363 17.4857 181.751C18.4226 190.705 14.4589 187.071 9.19794 183.892C12.7293 186.877 15.7201 188.304 16.8371 191.483C17.1975 192.521 17.1975 193.819 17.1254 195.636C16.729 209.196 15.8642 222.886 13.8463 236.576C12.6932 244.232 8.00882 242.221 3.39648 241.507C10.6393 245.465 12.7293 244.622 13.9184 256.171C15.3597 275.181 15.648 294.516 14.0985 314.305C13.0175 327.995 12.2969 329.358 4.08113 337.533C7.14401 335.522 9.27001 334.873 10.9636 334.743C11.396 334.678 12.7653 337.598 13.1256 342.529C15.612 378.928 17.0533 416.689 14.6751 453.867C14.3148 459.641 10.0628 461.328 6.13506 463.729C9.48621 462.301 12.5131 461.523 15.2877 461.393C17.5938 461.263 20.7288 464.702 20.909 466.713C21.1612 469.763 20.0081 477.224 19.7559 480.144C20.5126 477.938 22.3503 467.232 23.8998 466C24.8366 465.286 27.8275 465.74 30.7822 465.61C48.0425 465.026 62.1317 464.961 79.6802 462.107C82.3467 461.652 83.6079 461.652 84.1845 462.431C85.0132 463.534 84.761 471.839 84.761 474.11C85.0853 471.644 85.6979 463.21 87.0312 461.782C87.8239 460.874 89.1932 460.679 91.4994 461.004C119.606 464.442 147.1 468.076 175.674 468.595C178.089 468.66 179.458 468.919 180.431 469.568C182.089 470.606 183.314 475.602 184.467 479.819C183.674 475.083 183.206 470.671 183.998 469.179C184.395 468.465 185.404 467.881 187.169 467.492C197.871 465.091 208.682 462.755 219.456 460.355C222.194 459.771 223.455 459.511 223.96 460.225C224.645 461.133 224.609 470.476 224.645 472.553C224.933 470.282 225.473 461.652 226.554 460.42C227.275 459.641 228.284 459.446 230.302 459.771C249.796 462.95 269.291 459.511 288.893 460.485ZM302.334 365.302C301.108 397.03 302.802 423.112 302.982 456.267C301.721 457.37 300.208 458.473 299.271 458.992C296.893 459.187 293.181 459.252 288.893 459.252C269.002 457.695 249.112 459.771 229.329 458.149C228.824 458.084 228.14 458.214 227.852 457.695C227.563 457.176 227.816 456.267 227.996 455.683C230.59 446.73 246.589 422.269 248.967 417.987C251.418 415.975 253.868 413.769 256.318 411.499C269.507 399.106 292.064 364.978 302.334 356.219V365.302ZM175.098 466.713C146.992 464.442 118.345 462.171 90.2382 458.992C88.6887 458.798 87.4996 457.889 86.8149 456.267C86.3105 455.099 86.0222 453.737 85.806 452.05C82.9593 431.871 79.5721 412.147 74.3112 393.721C73.8427 377.111 72.3653 360.826 70.0231 344.67C69.5907 341.62 69.9871 338.636 71.1762 335.651C75.0679 325.984 82.7791 314.5 87.1392 308.336C91.5714 303.664 96.0757 297.955 100.688 291.596C102.634 288.871 105.156 287.574 108.003 287.833C112.471 288.222 118.164 288.871 123.786 289.325C130.74 289.909 137.623 290.299 141.875 291.012C147.532 291.921 148.505 292.699 150.09 299.382C155.496 322.545 161.91 344.994 170.161 366.146C171.098 396.641 174.774 427.2 180.179 457.695C180.863 461.458 182.053 464.832 180.863 466.454C180.359 467.167 175.999 466.778 175.098 466.713ZM221.365 458.538C212.249 460.29 198.7 463.145 186.845 465.935C184.827 466.389 183.422 466.713 182.665 464.118C182.233 462.626 182.125 460.42 181.692 457.5C177.476 428.368 174.125 399.301 172.864 370.493C173.549 369.52 174.233 369.001 174.99 368.871C178.413 368.287 231.347 399.69 245.112 415.586C246.445 417.143 246.085 419.349 244.571 422.074C239.058 432.131 233.437 442.058 227.816 452.115C226.662 454.126 226.086 455.359 225.509 456.137C224.176 458.019 223.167 458.149 221.365 458.538ZM180.287 19.0913C206.916 20.6484 242.77 21.2973 269.831 18.5073C270.3 18.4425 271.453 18.6371 271.381 18.9615C270.876 21.1675 259.381 24.4765 257.363 25.2551C239.563 32.0677 223.564 42.1244 208.429 53.9979C204.79 55.1009 185.512 61.7188 183.061 61.4593C180.107 61.1998 180.323 59.5129 180.179 56.8527C179.854 51.1431 179.53 44.2007 178.918 37.972C178.413 32.7165 177.26 26.0337 177.044 22.5949C177.008 21.8812 176.9 19.6103 177.332 19.221C177.62 18.9615 179.746 19.0264 180.287 19.0913ZM88.977 23.3086C108.976 20.8431 132.146 18.4424 151.171 16.2365C160.829 16.5609 164.468 16.8853 173.873 18.5722C174.341 19.1562 174.63 19.7401 175.062 20.5187C177.368 24.8009 179.098 55.8794 178.99 64.1195C174.521 91.7593 168.071 118.101 160.252 143.6C158.45 149.375 157.441 150.932 154.342 143.146C145.154 119.983 133.335 97.6636 121.371 78.2638C107.066 66.1308 82.9953 32.5868 83.2836 28.1099C83.5359 23.8925 86.2384 23.633 88.977 23.3086ZM23.3232 199.788C23.3953 200.826 23.4674 201.864 23.5394 202.902C21.8458 215.554 20.945 229.18 20.8729 243C20.8729 243.973 20.8009 245.206 20.4405 245.4C19.1793 246.179 17.1975 243.583 16.4768 242.351C15.5399 240.729 15.2877 239.107 15.4678 235.992C16.2966 222.432 17.7019 210.494 18.819 197.452C19.2514 191.548 21.3414 193.689 22.8187 198.231C22.9629 198.75 23.107 199.269 23.3232 199.788ZM17.7019 71.1916C18.6028 90.6563 18.7469 109.537 19.5036 128.028C19.8279 135.49 20.6927 142.627 21.0171 150.023C21.7017 165.076 21.7738 180.129 22.9629 195.765C22.2782 193.819 21.5215 191.937 20.7288 190.121C20.1883 188.823 19.5036 187.59 18.9631 186.293C15.7561 155.279 12.9815 116.479 11.2158 84.9467C10.8555 78.5233 11.2879 77.9394 14.7472 74.306C15.7561 73.2679 16.729 72.2297 17.7019 71.1916ZM14.7832 71.8405C11.6843 75.0197 10.8915 74.8899 11.5401 69.7642C13.558 54.0627 16.4408 39.9184 20.3324 26.5527C21.8098 24.2818 23.5394 22.0759 25.3051 20.1294C31.4669 20.1294 37.1602 20.3889 42.6734 20.7133C44.6553 20.8431 45.376 21.4919 45.8084 22.53C46.7813 24.9307 42.0248 39.6589 40.9798 42.1244C32.62 53.349 23.7917 62.6921 14.7832 71.8405ZM24.152 199.269C22.8187 179.934 22.8548 152.229 21.5936 134.127C20.0802 115.571 20.0441 88.3854 19.0352 69.8291C26.9266 61.3296 34.6739 52.4407 41.8807 42.7084C44.0067 37.2583 45.9885 31.7433 47.7182 25.9039C49.1595 21.1026 49.4838 21.2324 54.1322 21.6866C60.258 22.2705 66.4918 23.0491 73.1581 23.7628C75.8967 24.8658 77.8065 25.5795 78.8875 27.1367C84.797 35.7011 97.9494 57.6961 120.29 79.3019C128.614 92.2783 147.64 127.964 155.171 147.623C157.153 152.943 158.09 155.279 158.234 160.859C158.775 181.037 158.594 203.551 157.225 224.508C155.856 245.53 153.117 265.06 149.478 279.398C148.469 283.356 147.064 284.265 145.514 285.952C144.902 286.6 142.776 287.184 139.677 287.574C135.461 288.093 129.587 288.158 123.93 287.638C117.3 286.99 111.138 286.406 104.616 285.043C101.373 286.146 99.8952 286.535 96.5441 286.86C84.797 288.028 71.2123 289.909 59.285 289.909C55.9339 289.909 54.7087 290.234 52.2945 287.379C46.2408 280.372 40.6916 272.521 35.7189 263.373C33.8091 259.934 32.7281 256.69 32.1876 252.343C31.4669 246.698 31.575 241.442 30.9624 235.733C29.5931 223.47 27.8275 210.948 24.152 199.269ZM22.062 247.606C22.026 246.957 21.99 246.309 21.8819 245.595C21.9179 229.504 22.7827 220.485 24.3682 204.005C27.8995 219.058 30.7822 244.557 29.9895 249.877C29.5211 252.862 27.7554 251.175 26.4942 250.331C24.9808 249.358 23.5034 248.515 22.062 247.606ZM16.2966 458.408C16.5849 437.646 17.5938 414.872 17.8821 392.553C18.2064 370.233 17.6299 348.174 14.9634 328.709C16.657 300.096 17.3416 279.658 15.9363 255.327C15.8642 253.965 16.1525 252.667 16.9092 251.629C17.6299 250.591 18.6028 250.072 19.6838 250.137C19.8279 250.137 26.242 252.862 28.6562 255.976C35.8991 269.147 43.4662 281.28 51.6459 291.856C55.0691 307.038 59.9337 321.766 66.636 336.105C70.6718 355.181 72.6176 374.71 72.6536 394.629C77.5542 413.575 81.1216 432.91 84.2926 452.309C84.5088 453.607 84.761 454.58 84.797 455.489C84.8331 456.332 84.6169 457.046 84.1124 457.759C83.644 458.473 83.0674 458.863 82.3467 458.927C64.6541 461.328 41.9527 463.923 22.5665 464.507C20.3684 462.755 18.2064 460.744 16.2966 458.408Z" fill="url(#paint28_radial_55_527)"/>
<path fill-rule="evenodd" clip-rule="evenodd" d="M279.308 13.5111C280.677 14.3546 282.082 15.1981 283.776 15.3927C285.758 15.6523 293.902 17.0148 294.875 14.8088C296.1 12.0189 297.325 8.2557 298.73 4.36277C298.982 3.06513 299.199 1.83236 299.451 0.79425C295.919 1.44307 292.424 1.96213 288.929 2.35142C282.082 1.96213 275.164 1.44307 268.029 0.859134C268.498 1.37819 268.966 1.96213 269.435 2.61095C272.966 7.41222 275.849 11.4349 279.308 13.5111Z" fill="url(#paint29_radial_55_527)"/>
<path fill-rule="evenodd" clip-rule="evenodd" d="M296.317 18.5072C294.083 17.5339 280.822 18.3774 277.543 19.2209C274.913 19.9346 271.597 22.1406 267.814 23.6977C247.959 31.808 223.636 43.2921 210.232 56.9174C204.863 58.6043 191.422 60.8752 185.044 63.4705C181.044 65.0925 180.468 66.3902 179.639 71.3212C175.027 99.0259 168.072 125.757 159.568 151.905C160.361 174.354 160.397 197.387 159.1 220.226C157.802 243.064 154.92 265.838 151.1 287.833C156.577 315.732 163.28 337.662 170.594 359.203C170.594 359.138 170.558 359.074 170.558 358.944C187.386 373.867 197.151 377.435 213.511 389.244C226.231 398.457 236.428 404.686 246.338 413.25C248.644 415.261 254.013 411.109 255.923 409.292C261.292 404.037 294.119 363.161 302.37 353.104C300.028 333.315 298.226 316.057 298.263 296.008C300.028 278.944 301.974 251.888 303.199 234.759C304.532 215.1 305.037 198.88 304.857 179.155C304.785 178.312 304.713 177.468 304.641 176.625C303.271 160.923 296.317 87.6715 296.677 87.6715C296.641 87.1525 296.605 86.6334 296.569 86.1144C298.803 64.7681 299.776 45.7577 299.344 25.3847C299.307 23.7626 299.271 22.1406 299.235 20.5185C298.299 19.8697 297.254 19.0911 296.317 18.5072Z" fill="url(#paint30_radial_55_527)"/>
<path fill-rule="evenodd" clip-rule="evenodd" d="M302.334 356.154C292.064 364.914 269.507 399.042 256.318 411.434C253.904 413.705 251.454 415.911 248.967 417.922C246.589 422.205 230.59 446.665 227.996 455.619C227.816 456.203 227.599 457.111 227.852 457.63C228.14 458.149 228.825 458.084 229.329 458.084C249.076 459.706 268.966 457.63 288.893 459.187C293.145 459.187 296.893 459.122 299.271 458.928C300.208 458.474 301.721 457.306 302.982 456.203C302.802 423.113 301.109 396.965 302.334 365.238V356.154Z" fill="url(#paint31_radial_55_527)"/>
<path fill-rule="evenodd" clip-rule="evenodd" d="M288.894 460.485C269.255 459.447 249.761 462.885 230.411 459.706C228.393 459.382 227.348 459.576 226.663 460.355C225.546 461.588 225.041 470.217 224.753 472.488C224.681 474.953 224.609 477.224 224.537 478.911C224.537 478.911 224.537 478.911 224.501 478.911C246.878 480.598 267.778 481.636 288.93 482.22C292.929 481.896 296.569 481.377 299.487 480.793H299.524C299.451 478.846 299.415 475.148 299.379 471.32C299.163 468.919 299.199 465.87 298.767 463.534C298.19 460.614 297.037 460.874 294.803 460.809C292.821 460.679 290.875 460.614 288.894 460.485Z" fill="url(#paint32_radial_55_527)"/>
<defs>
<radialGradient id="paint0_radial_55_527" cx="0" cy="0" r="1" gradientUnits="userSpaceOnUse" gradientTransform="translate(-12.1354 412.302) scale(73.3967 132.157)">
<stop stop-color="#B0E4FF"/>
<stop offset="1" stop-color="#739FF4"/>
</radialGradient>
<radialGradient id="paint1_radial_55_527" cx="0" cy="0" r="1" gradientUnits="userSpaceOnUse" gradientTransform="translate(-14.4561 296.493) scale(65.1057 117.228)">
<stop stop-color="#B0E4FF"/>
<stop offset="1" stop-color="#739FF4"/>
</radialGradient>
<radialGradient id="paint2_radial_55_527" cx="0" cy="0" r="1" gradientUnits="userSpaceOnUse" gradientTransform="translate(-4.18562 227.676) scale(65.9359 118.723)">
<stop stop-color="#B0E4FF"/>
<stop offset="1" stop-color="#739FF4"/>
</radialGradient>
<radialGradient id="paint3_radial_55_527" cx="0" cy="0" r="1" gradientUnits="userSpaceOnUse" gradientTransform="translate(-39.8142 90.5417) scale(92.197 166.009)">
<stop stop-color="#B0E4FF"/>
<stop offset="1" stop-color="#739FF4"/>
</radialGradient>
<radialGradient id="paint4_radial_55_527" cx="0" cy="0" r="1" gradientUnits="userSpaceOnUse" gradientTransform="translate(-6.78657 79.4235) scale(52.9651 95.3683)">
<stop stop-color="#B0E4FF"/>
<stop offset="1" stop-color="#739FF4"/>
</radialGradient>
<radialGradient id="paint5_radial_55_527" cx="0" cy="0" r="1" gradientUnits="userSpaceOnUse" gradientTransform="translate(21.0722 28.3933) scale(15.0679 27.1311)">
<stop stop-color="#C8FAFF"/>
<stop offset="1" stop-color="#9BC9FF"/>
</radialGradient>
<radialGradient id="paint6_radial_55_527" cx="0" cy="0" r="1" gradientUnits="userSpaceOnUse" gradientTransform="translate(22.5697 -13.0614) scale(59.3658 106.893)">
<stop stop-color="#E5FAFF"/>
<stop offset="1" stop-color="#B7ECFF"/>
</radialGradient>
<radialGradient id="paint7_radial_55_527" cx="0" cy="0" r="1" gradientUnits="userSpaceOnUse" gradientTransform="translate(135.185 -11.1115) scale(53.7964 96.8651)">
<stop stop-color="#E5FAFF"/>
<stop offset="1" stop-color="#B7ECFF"/>
</radialGradient>
<radialGradient id="paint8_radial_55_527" cx="0" cy="0" r="1" gradientUnits="userSpaceOnUse" gradientTransform="translate(152.485 -7.25881) scale(36.147 65.0859)">
<stop stop-color="#C8FAFF"/>
<stop offset="1" stop-color="#9BC9FF"/>
</radialGradient>
<radialGradient id="paint9_radial_55_527" cx="0" cy="0" r="1" gradientUnits="userSpaceOnUse" gradientTransform="translate(250.171 -24.2457) scale(75.789 136.465)">
<stop stop-color="#C8FAFF"/>
<stop offset="1" stop-color="#9BC9FF"/>
</radialGradient>
<radialGradient id="paint10_radial_55_527" cx="0" cy="0" r="1" gradientUnits="userSpaceOnUse" gradientTransform="translate(318.131 -2.5826) scale(67.5696 121.665)">
<stop stop-color="#B0E4FF"/>
<stop offset="1" stop-color="#739FF4"/>
</radialGradient>
<radialGradient id="paint11_radial_55_527" cx="0" cy="0" r="1" gradientUnits="userSpaceOnUse" gradientTransform="translate(344.794 123.72) scale(71.3046 128.39)">
<stop stop-color="#B0E4FF"/>
<stop offset="1" stop-color="#739FF4"/>
</radialGradient>
<radialGradient id="paint12_radial_55_527" cx="0" cy="0" r="1" gradientUnits="userSpaceOnUse" gradientTransform="translate(324.097 179.018) scale(80.9357 145.732)">
<stop stop-color="#B0E4FF"/>
<stop offset="1" stop-color="#739FF4"/>
</radialGradient>
<radialGradient id="paint13_radial_55_527" cx="0" cy="0" r="1" gradientUnits="userSpaceOnUse" gradientTransform="translate(335.597 325.145) scale(46.7662 84.2067)">
<stop stop-color="#B0E4FF"/>
<stop offset="1" stop-color="#739FF4"/>
</radialGradient>
<radialGradient id="paint14_radial_55_527" cx="0" cy="0" r="1" gradientUnits="userSpaceOnUse" gradientTransform="translate(346.456 429.219) scale(71.7054 129.112)">
<stop stop-color="#B0E4FF"/>
<stop offset="1" stop-color="#739FF4"/>
</radialGradient>
<radialGradient id="paint15_radial_55_527" cx="0" cy="0" r="1" gradientUnits="userSpaceOnUse" gradientTransform="translate(318.636 495.98) scale(57.7104 103.913)">
<stop stop-color="#B0E4FF"/>
<stop offset="1" stop-color="#739FF4"/>
</radialGradient>
<radialGradient id="paint16_radial_55_527" cx="0" cy="0" r="1" gradientUnits="userSpaceOnUse" gradientTransform="translate(227.613 504.021) scale(59.9053 107.865)">
<stop stop-color="#B0E4FF"/>
<stop offset="1" stop-color="#739FF4"/>
</radialGradient>
<radialGradient id="paint17_radial_55_527" cx="0" cy="0" r="1" gradientUnits="userSpaceOnUse" gradientTransform="translate(177.225 518.016) scale(105.601 190.142)">
<stop stop-color="#B0E4FF"/>
<stop offset="1" stop-color="#739FF4"/>
</radialGradient>
<radialGradient id="paint18_radial_55_527" cx="0" cy="0" r="1" gradientUnits="userSpaceOnUse" gradientTransform="translate(13.6374 505.579) scale(110.318 198.637)">
<stop stop-color="#B0E4FF"/>
<stop offset="1" stop-color="#739FF4"/>
</radialGradient>
<radialGradient id="paint19_radial_55_527" cx="0" cy="0" r="1" gradientUnits="userSpaceOnUse" gradientTransform="translate(61.2836 484.453) scale(137.88 248.265)">
<stop stop-color="#D9F3FF"/>
<stop offset="1" stop-color="#73AEF5"/>
</radialGradient>
<radialGradient id="paint20_radial_55_527" cx="0" cy="0" r="1" gradientUnits="userSpaceOnUse" gradientTransform="translate(65.4503 234.64) scale(94.8344 170.758)">
<stop stop-color="#8FBCFF"/>
<stop offset="1" stop-color="#B0E4FF"/>
</radialGradient>
<radialGradient id="paint21_radial_55_527" cx="0" cy="0" r="1" gradientUnits="userSpaceOnUse" gradientTransform="translate(13.8498 167.189) scale(52.7298 94.9447)">
<stop stop-color="#8FBCFF"/>
<stop offset="1" stop-color="#B0E4FF"/>
</radialGradient>
<radialGradient id="paint22_radial_55_527" cx="0" cy="0" r="1" gradientUnits="userSpaceOnUse" gradientTransform="translate(41.7829 28.6614) scale(170.638 307.249)">
<stop stop-color="#8FBCFF"/>
<stop offset="1" stop-color="#B0E4FF"/>
</radialGradient>
<radialGradient id="paint23_radial_55_527" cx="0" cy="0" r="1" gradientUnits="userSpaceOnUse" gradientTransform="translate(40.8024 95.2679) scale(67.97 122.386)">
<stop stop-color="#D9F3FF"/>
<stop offset="1" stop-color="#73AEF5"/>
</radialGradient>
<radialGradient id="paint24_radial_55_527" cx="0" cy="0" r="1" gradientUnits="userSpaceOnUse" gradientTransform="translate(88.2715 264.897) scale(162.413 292.439)">
<stop stop-color="#8FBCFF"/>
<stop offset="1" stop-color="#B0E4FF"/>
</radialGradient>
<radialGradient id="paint25_radial_55_527" cx="0" cy="0" r="1" gradientUnits="userSpaceOnUse" gradientTransform="translate(189.961 319.71) scale(98.9642 178.194)">
<stop stop-color="#8FBCFF"/>
<stop offset="1" stop-color="#B0E4FF"/>
</radialGradient>
<radialGradient id="paint26_radial_55_527" cx="0" cy="0" r="1" gradientUnits="userSpaceOnUse" gradientTransform="translate(183.06 171.47) scale(141.014 253.908)">
<stop stop-color="#B4E5FF"/>
<stop offset="1" stop-color="#9BC9FF"/>
</radialGradient>
<radialGradient id="paint27_radial_55_527" cx="0" cy="0" r="1" gradientUnits="userSpaceOnUse" gradientTransform="translate(226.642 88.1586) scale(86.8424 156.367)">
<stop stop-color="#D9F3FF"/>
<stop offset="1" stop-color="#73AEF5"/>
</radialGradient>
<radialGradient id="paint28_radial_55_527" cx="0" cy="0" r="1" gradientUnits="userSpaceOnUse" gradientTransform="translate(40.7561 26.9238) scale(287.549 517.758)">
<stop stop-color="#FFFAFF"/>
<stop offset="1" stop-color="#CFF2FF"/>
</radialGradient>
<radialGradient id="paint29_radial_55_527" cx="0" cy="0" r="1" gradientUnits="userSpaceOnUse" gradientTransform="translate(292.61 -18.0521) scale(38.1955 68.7744)">
<stop stop-color="#C8FAFF"/>
<stop offset="1" stop-color="#9BC9FF"/>
</radialGradient>
<radialGradient id="paint30_radial_55_527" cx="0" cy="0" r="1" gradientUnits="userSpaceOnUse" gradientTransform="translate(164.648 -30.9616) scale(292.837 527.278)">
<stop stop-color="#8FBCFF"/>
<stop offset="1" stop-color="#B0E4FF"/>
</radialGradient>
<radialGradient id="paint31_radial_55_527" cx="0" cy="0" r="1" gradientUnits="userSpaceOnUse" gradientTransform="translate(254.818 317.105) scale(133.446 240.282)">
<stop stop-color="#8FBCFF"/>
<stop offset="1" stop-color="#B0E4FF"/>
</radialGradient>
<radialGradient id="paint32_radial_55_527" cx="0" cy="0" r="1" gradientUnits="userSpaceOnUse" gradientTransform="translate(309.8 498.357) scale(93.4214 168.214)">
<stop stop-color="#B0E4FF"/>
<stop offset="1" stop-color="#739FF4"/>
</radialGradient>
</defs>
</svg>
