<svg width="188" height="80" viewBox="0 0 188 80" fill="none" xmlns="http://www.w3.org/2000/svg">
<path fill-rule="evenodd" clip-rule="evenodd" d="M179.69 8.98837C180.913 9.20985 183.697 11.1398 184.24 12.3105C185.157 16.0756 186.006 19.2395 186.685 22.4983C186.854 24.7447 187.466 31.6104 187.466 36.1665C186.685 50.0877 185.496 63.4395 184.919 73.6273C184.24 74.7347 178.909 77.2342 175.854 78.0884C134.94 79.4805 94.5693 78.563 53.8254 79.0376C38.0371 78.1517 23.6409 77.7404 10.8744 77.8353C9.44837 77.2658 7.03769 75.1776 6.52839 74.3234C5.1363 60.497 4.5591 47.6515 3.94794 33.8252C4.38933 25.599 5.95118 19.8723 6.46048 13.0698C7.07164 11.9941 10.7386 9.17821 12.1307 8.67198C28.7339 8.22903 43.7073 6.74199 60.5142 6.1092C100.307 6.86854 139.897 7.881 179.69 8.98837Z" fill="#75BDEF"/>
<path fill-rule="evenodd" clip-rule="evenodd" d="M9.48233 32.3065C10.3991 27.4974 12.2325 23.2261 13.4888 17.4044L6.46048 13.0699C5.95118 19.8407 4.38933 25.599 3.94794 33.8252L9.48233 32.3065Z" fill="url(#paint0_radial_14_2442)"/>
<path fill-rule="evenodd" clip-rule="evenodd" d="M6.46027 13.0699L13.4886 17.4045C13.7263 17.2146 15.4239 15.6327 15.6616 15.4745L12.1305 8.67203C10.7384 9.17826 7.07143 11.9941 6.46027 13.0699Z" fill="url(#paint1_radial_14_2442)"/>
<path fill-rule="evenodd" clip-rule="evenodd" d="M12.1305 8.67198L15.6616 15.4744C31.1104 14.9682 50.5317 12.9433 64.7242 11.6777L60.48 6.1092C43.7071 6.74199 28.7337 8.22903 12.1305 8.67198Z" fill="url(#paint2_radial_14_2442)"/>
<path fill-rule="evenodd" clip-rule="evenodd" d="M60.5143 6.1408L64.7585 11.7093C75.6575 11.6144 88.6956 10.855 99.9002 12.2155C124.482 13.576 152.29 14.5252 176.227 15.8224L179.69 9.01997C139.897 7.88096 100.308 6.86851 60.5143 6.1408Z" fill="url(#paint3_radial_14_2442)"/>
<path fill-rule="evenodd" clip-rule="evenodd" d="M179.69 8.98833L176.227 15.7591C176.737 16.0755 177.212 16.4868 177.619 16.9931L184.206 12.2788C183.697 11.1082 180.913 9.2098 179.69 8.98833Z" fill="url(#paint4_radial_14_2442)"/>
<path fill-rule="evenodd" clip-rule="evenodd" d="M184.206 12.2789L177.619 16.9931C177.891 19.2078 178.027 21.391 178.468 23.5424C179.656 27.877 181.388 34.015 181.728 36.1981L187.432 36.1665C187.432 31.6104 186.821 24.7764 186.651 22.4983C186.006 19.2079 185.123 16.0439 184.206 12.2789Z" fill="url(#paint5_radial_14_2442)"/>
<path fill-rule="evenodd" clip-rule="evenodd" d="M187.432 36.1348L181.727 36.1664C180.777 47.082 180.709 59.4529 179.996 70.7797L184.885 73.5956C185.462 63.4078 186.651 50.056 187.432 36.1348Z" fill="url(#paint6_radial_14_2442)"/>
<path fill-rule="evenodd" clip-rule="evenodd" d="M179.996 70.7798C178.943 71.286 177.721 71.7606 176.804 72.077L175.82 78.0568C178.842 77.2026 184.206 74.7031 184.885 73.5957L179.996 70.7798Z" fill="url(#paint7_radial_14_2442)"/>
<path fill-rule="evenodd" clip-rule="evenodd" d="M99.9 72.6465C88.6954 72.4883 73.5862 72.8996 58.5109 73.0894L54.1649 79.0376C94.7731 78.563 135.042 79.4805 175.82 78.0884L176.804 72.1086C151.917 72.9312 125.399 71.7289 99.9 72.6465Z" fill="url(#paint8_radial_14_2442)"/>
<path fill-rule="evenodd" clip-rule="evenodd" d="M54.1648 79.006L58.5108 73.0578C46.1179 72.3617 26.7984 70.5267 14.2697 70.4001L10.8743 77.8037C23.6408 77.7404 38.037 78.1201 53.8253 79.006C53.9271 79.006 54.0629 79.006 54.1648 79.006Z" fill="#739FF4"/>
<path fill-rule="evenodd" clip-rule="evenodd" d="M10.8743 77.8353L14.2696 70.4317C13.6245 70.3368 12.6399 69.8306 12.3343 69.5142L6.49432 74.355C7.03758 75.1776 9.44826 77.2342 10.8743 77.8353Z" fill="url(#paint9_radial_14_2442)"/>
<path fill-rule="evenodd" clip-rule="evenodd" d="M6.52839 74.3234L12.3684 69.4826C11.2139 57.1433 10.0256 44.7091 9.48233 32.3381L3.94794 33.8252C4.5591 47.6515 5.1363 60.4971 6.52839 74.3234Z" fill="url(#paint10_radial_14_2442)"/>
<path fill-rule="evenodd" clip-rule="evenodd" d="M48.7322 26.3899C51.8559 24.5232 54.9796 22.4983 57.9335 20.0937C59.3256 18.0372 60.7177 15.9806 62.1098 13.9241C62.7888 12.9432 63.0265 12.3421 62.3474 11.8992C48.3926 13.1647 30.2276 14.9998 15.6277 15.4744C15.424 15.6326 13.7263 17.2145 13.4886 17.4044C12.3342 22.8147 10.6365 26.8961 9.68585 31.3256C9.85562 31.5155 9.99143 31.642 10.1612 31.7369C11.5193 32.3381 37.5276 27.7504 43.8089 26.7696C45.0992 26.5798 47.7136 26.6114 48.7322 26.3899Z" fill="url(#paint11_radial_14_2442)"/>
<path fill-rule="evenodd" clip-rule="evenodd" d="M180.539 68.8498C180.641 66.5717 180.845 64.2937 181.015 62.0473C181.015 54.011 181.286 46.7656 181.999 38.7609C182.067 38.0015 182.067 36.9574 182.475 36.5778C182.644 36.4196 186.345 36.2297 186.821 36.1348C186.447 36.1032 182.509 35.8501 182.441 35.7868C181.863 35.0591 181.354 32.2748 180.947 30.9776C180.607 29.4906 180.268 28.0352 179.928 26.5481C179.724 25.6306 179.521 24.6498 179.792 24.3967C179.894 24.3017 180.437 23.9854 181.082 23.8272C182.135 23.5424 183.222 23.226 184.274 22.9729C182.78 23.226 181.592 23.5108 180.098 23.4475C178.74 23.3842 178.977 22.8147 178.842 21.5491C178.774 20.7582 178.298 19.9039 178.23 19.0813C178.095 17.879 177.857 17.4677 178.876 16.6451C180.369 15.4111 181.863 14.1772 183.357 12.9433C181.897 13.9241 180.437 14.9049 178.943 15.9174C177.314 17.0247 176.702 15.7908 177.416 14.1139C178.061 12.5952 178.74 11.1082 179.385 9.58951C178.502 11.0133 177.653 12.4687 176.77 13.8924C175.752 15.601 175.276 15.2213 173.171 15.158C159.658 14.81 146.212 13.9557 132.699 12.9116C128.659 12.8167 110.426 12.5003 99.9001 11.9308C96.5727 11.6144 93.2113 11.6144 89.8839 11.298C84.4513 11.1082 79.0867 11.0449 73.6542 10.9816C70.87 10.9184 66.6258 11.4562 64.4528 10.7602C64.317 10.6652 61.5328 7.34312 61.1254 6.93181C61.4989 7.59624 62.9249 9.93754 62.7552 10.5387C62.5514 11.2031 61.2612 11.1715 60.1408 11.2347C57.051 11.4246 54.3347 11.6461 51.245 11.741C40.0064 13.0698 29.5149 13.9241 18.1745 14.6201C16.6466 14.7151 16.2391 15.1264 15.4582 13.8924C14.4396 12.3421 13.4549 10.8234 12.4363 9.27311C13.2852 11.3929 14.0661 13.0698 14.6773 15.2529C14.7791 15.6642 13.2512 16.4236 12.674 16.1705C10.6368 15.2213 8.97311 14.4619 7.00382 13.4179C8.328 14.4303 9.27869 15.3478 10.6029 16.3603C12.6061 17.879 12.3684 17.2778 11.7912 19.5875C10.8405 23.226 9.88985 26.8645 8.93916 30.503C8.53172 32.0217 8.49776 32.0217 6.93591 32.5596C5.98522 32.9076 5.44196 33.3189 4.49127 33.667C5.44196 33.4771 6.39266 33.3189 7.34335 33.1291C8.36195 32.9393 9.04102 32.6861 9.04102 33.7935C9.07497 35.3122 9.10892 36.8309 9.10892 38.3496C9.55032 43.7915 10.0257 49.2335 10.4671 54.6754C10.8745 59.1682 11.3159 63.6926 11.7233 68.1853C11.7573 68.5334 11.6554 68.913 11.4857 69.2611C11.0103 70.2419 8.53172 72.4566 7.61498 73.3742C9.14288 72.3301 10.6368 71.3176 12.1647 70.2735C12.2666 70.1153 13.5568 70.4634 13.6926 70.8747C13.3531 71.8555 13.0136 72.8047 12.674 73.7855C13.2173 72.8679 13.7945 71.9504 14.3377 71.0012C14.5415 70.8114 14.8131 70.6848 15.1866 70.6532C16.7484 70.6532 18.3103 70.6532 19.8382 70.6532C21.1284 70.6848 22.4526 70.6848 23.7428 70.6848C20.3475 70.495 17.1219 70.4001 14.2359 70.3684C13.5908 70.2735 12.6061 69.7673 12.3005 69.4509C11.1801 57.3647 10.0257 45.1203 9.44846 33.0025C9.58427 32.8443 9.72008 32.7494 9.8559 32.7178C11.2819 32.2432 28.0888 30.0284 39.4292 28.4465C45.7446 27.5606 47.0008 26.9594 53.3501 28.2883C64.6905 30.6296 83.3648 36.7043 99.8322 42.6525C107.845 37.875 118.744 21.3593 122.92 13.8292C124.448 13.1964 126.01 13.4495 127.64 13.5128C144.175 14.2405 160.948 14.9365 176.159 15.7592C176.669 16.0755 177.144 16.4869 177.551 16.9931C177.823 19.2078 177.959 21.3909 178.4 23.5424C179.351 27.0544 180.573 31.7053 181.32 34.5212C181.66 35.7551 181.66 36.1981 180.641 38.0648C179.419 40.2796 178.129 42.4627 176.499 44.2028C170.183 49.2967 163.597 54.0743 156.84 58.6303C152.086 61.636 146.858 64.0722 141.289 66.0022C130.051 69.7989 111.037 71.0961 99.7982 72.6465C110.527 71.8555 130.424 70.4001 141.765 67.1412C146.145 64.8949 150.626 62.7434 155.278 60.8134C159.454 59.1049 163.698 62.7434 167.705 64.8949C165.668 63.3762 163.8 62.1106 161.729 60.7818C159.386 59.2631 158.028 59.2314 160.473 57.2382C166.211 52.5556 170.93 49.1385 177.178 45.0254C177.619 43.6966 180.607 38.2546 181.049 38.4445C181.15 38.4761 181.286 38.6659 181.422 39.0456C180.675 49.2334 180.573 60.4337 179.928 70.7798C178.876 71.286 177.653 71.7606 176.736 72.077C168.112 72.3617 159.047 72.2984 150.355 72.3934C155.991 72.5832 162.272 72.8047 168.18 72.6465C170.727 72.6465 173.307 72.4883 175.854 72.6465C176.057 72.6465 176.261 72.9312 176.261 73.1211C176.295 74.3234 176.125 75.5889 175.989 76.7596C176.295 75.3991 176.431 73.9753 176.94 72.6465C177.144 72.077 179.589 71.1278 180.268 71.3809C181.66 71.8871 182.916 72.6148 184.24 73.2476C183.323 72.5832 182.407 71.9188 181.49 71.2227C180.302 70.3685 180.437 70.2735 180.539 68.8498ZM43.8432 26.7696C37.5278 27.7504 11.5196 32.3381 10.1954 31.737C9.99171 31.642 9.8559 31.5155 9.68613 31.3256C10.6368 26.8962 12.3005 22.8463 13.4889 17.4044C13.7266 17.2146 15.4242 15.6326 15.6619 15.4744C30.2618 14.9998 48.4269 13.1647 62.3817 11.8992C63.0607 12.3421 62.7891 12.9433 62.144 13.9241C60.7519 15.9806 59.3598 18.0372 57.9677 20.0937C54.9799 22.4983 51.8901 24.5232 48.7664 26.3899C47.7138 26.6114 45.0994 26.5798 43.8432 26.7696ZM120.883 15.7908C118.337 21.2327 106.827 38.3496 99.9001 41.4186C84.6551 36.0399 68.7989 31.4522 52.4334 27.4657C50.9394 27.1176 50.2603 26.7063 50.2603 26.5481C50.2603 26.3583 50.9394 25.7255 52.1278 24.9029C54.3347 23.3526 56.6096 21.8655 58.9184 20.4734C60.2087 17.7524 62.6873 13.3229 64.9282 11.6777C75.8272 11.5828 88.7974 10.8551 99.934 12.1839C106.419 12.532 113.108 12.88 119.933 13.1964C121.019 13.228 121.664 14.1139 120.883 15.7908Z" fill="url(#paint12_radial_14_2442)"/>
<path fill-rule="evenodd" clip-rule="evenodd" d="M54.5382 78.5314C55.4889 76.8545 56.4736 75.1776 57.4242 73.5007C49.581 72.8047 41.7378 72.077 33.8946 71.3809C41.9755 71.7922 50.0903 72.2352 58.1712 72.6465C72.0581 64.2304 87.4729 52.1759 99.8998 42.6841C88.6273 52.6189 73.2125 64.6418 59.2917 72.868C70.1228 72.773 80.9199 72.7098 91.7511 72.6148C80.7502 72.9629 69.7833 73.3109 58.7824 73.6906C57.3563 75.2725 55.9643 76.8861 54.5382 78.5314Z" fill="url(#paint13_radial_14_2442)"/>
<path fill-rule="evenodd" clip-rule="evenodd" d="M52.3994 27.4657C68.7989 31.4522 84.6211 36.0399 99.8661 41.4186C106.793 38.3179 118.303 21.2327 120.849 15.7908C121.63 14.0823 120.985 13.228 119.865 13.1647C113.074 12.8484 106.351 12.532 99.8661 12.1523C88.6955 10.8234 75.7253 11.5828 64.8603 11.6461C62.6533 13.2597 60.1408 17.7208 58.8505 20.4418C56.5417 21.8339 54.3008 23.3209 52.0599 24.8713C50.8715 25.6939 50.1924 26.3267 50.1924 26.5165C50.2264 26.7063 50.9394 27.1176 52.3994 27.4657Z" fill="url(#paint14_radial_14_2442)"/>
<path fill-rule="evenodd" clip-rule="evenodd" d="M99.9001 42.6525C83.4327 36.7043 64.7584 30.6296 53.418 28.2883C47.0687 26.9595 45.8125 27.5923 39.4971 28.4465C28.1567 30.0285 11.3498 32.2116 9.9238 32.7178C9.75403 32.7811 9.61822 32.876 9.51636 33.0026C10.0596 45.152 11.248 57.3648 12.3684 69.4509C12.6401 69.799 13.6247 70.3052 14.3038 70.3685C17.1559 70.4001 20.3814 70.5267 23.8107 70.6849C27.0702 70.8431 30.4995 71.0645 33.9288 71.3177C42.0097 71.729 50.1245 72.1719 58.2054 72.5832C72.0584 64.1988 87.5071 52.1443 99.9001 42.6525Z" fill="url(#paint15_radial_14_2442)"/>
<path fill-rule="evenodd" clip-rule="evenodd" d="M99.9 42.6525C88.6275 52.5872 73.2127 64.6101 59.2918 72.8363C68.9006 72.773 78.5094 72.6781 88.1182 72.6148C89.3405 72.6148 90.5628 72.5832 91.7512 72.5832C94.6372 72.5832 97.3874 72.5832 99.9 72.6148C111.139 71.0645 130.152 69.7673 141.391 65.9706C146.959 64.009 152.188 61.6044 156.942 58.5987C163.664 54.0426 170.251 49.2651 176.601 44.1712C178.23 42.3994 179.521 40.2479 180.743 38.0332C181.524 36.5778 181.694 36.0083 181.592 35.2173C181.558 34.9958 181.49 34.7427 181.422 34.4896C180.675 31.7053 179.453 27.0227 178.502 23.5424C178.061 21.391 177.925 19.2078 177.653 16.9931C177.212 16.4869 176.736 16.0756 176.261 15.7592C161.05 14.9366 144.243 14.2721 127.742 13.5128C126.961 13.4811 126.146 13.4495 125.365 13.4179C124.584 13.4179 123.803 13.5128 123.022 13.8292C118.812 21.3593 107.913 37.9066 99.9 42.6525Z" fill="url(#paint16_radial_14_2442)"/>
<path fill-rule="evenodd" clip-rule="evenodd" d="M155.38 60.8134C150.728 62.7118 146.28 64.8632 141.866 67.1413C130.526 70.3685 110.595 71.8555 99.9001 72.6465C116.571 72.077 133.65 72.3617 150.423 72.425C159.115 72.3301 168.214 72.3934 176.804 72.1086C177.721 71.7922 178.943 71.286 179.996 70.8114C180.641 60.497 180.743 49.2651 181.49 39.0773C181.32 38.6976 181.218 38.5078 181.116 38.4761C180.675 38.2863 177.687 43.7282 177.246 45.0571C170.998 49.1385 166.313 52.5872 160.541 57.2698C158.096 59.2631 159.454 59.2947 161.797 60.8134C163.834 62.1423 165.702 63.4078 167.773 64.9265C163.8 62.775 159.556 59.1049 155.38 60.8134Z" fill="url(#paint17_radial_14_2442)"/>
<path opacity="0.25" fill-rule="evenodd" clip-rule="evenodd" d="M109.984 4.43231C114.127 0.635606 124.924 4.021 129.847 4.78034C132.495 5.19165 135.178 5.60296 137.86 5.57132C148.453 5.50805 163.393 -1.7057 173.104 6.86853C174.665 8.22902 175.344 10.159 174.699 12.2788C172.323 20.3785 161.356 23.9221 155.686 24.9978C151.883 25.7255 147.265 25.9786 142.07 22.7831C138.471 20.5367 135.721 16.9298 129.677 17.5309C124.143 18.1005 121.698 20.4101 115.587 18.575C110.154 16.8982 105.978 8.07082 109.984 4.43231Z" fill="#37506B"/>
<path opacity="0.25" fill-rule="evenodd" clip-rule="evenodd" d="M85.9452 6.5838C85.6057 1.55316 80.3429 -0.629943 74.5709 0.44579C64.6565 2.34414 58.1375 3.83119 48.0194 2.97693C38.6483 2.21759 29.413 -0.0920764 20.0079 0.00284123C10.467 0.0977589 -0.364091 3.79955 0.00939583 14.2721C0.348929 22.878 2.58985 24.2701 1.6052 35.9134C1.16381 41.1655 -1.4506 50.4674 4.79681 53.2833C4.59309 49.2651 4.38937 45.2469 4.18565 41.1971C4.38937 39.5519 4.42333 37.875 4.83077 36.2614C8.05633 24.3018 12.3005 25.156 24.7274 26.8962C31.1106 27.7821 39.0218 28.0985 44.9636 25.2826C49.004 23.3842 55.9305 16.9615 61.0235 13.4179C70.2928 6.90019 75.7253 6.39396 85.9452 6.5838Z" fill="#37506B"/>
<path fill-rule="evenodd" clip-rule="evenodd" d="M85.9452 6.5838C85.6057 1.55316 80.3429 -0.629943 74.5709 0.44579C64.6565 2.34414 58.1375 3.83119 48.0194 2.97693C38.6483 2.21759 29.413 -0.0920764 20.0079 0.00284123C10.467 0.0977589 -0.364091 3.79955 0.00939583 14.2721C0.348929 22.878 2.58985 24.2701 1.6052 35.9134C1.16381 41.1655 -1.4506 50.4674 4.79681 53.2833C4.59309 49.2651 4.38937 45.2469 4.18565 41.1971C4.38937 39.5519 4.42333 37.875 4.83077 36.2614C8.05633 24.3018 12.4024 22.3085 24.8293 24.0486C31.2125 24.9345 39.1236 25.2509 45.0654 22.435C49.1059 20.5367 55.1835 15.2529 60.1407 12.532C70.1569 7.02675 75.7253 6.39396 85.9452 6.5838Z" fill="url(#paint18_radial_14_2442)"/>
<path fill-rule="evenodd" clip-rule="evenodd" d="M109.984 4.43231C114.126 0.635606 124.924 4.021 129.847 4.78034C132.495 5.19165 135.178 5.60296 137.86 5.57132C148.453 5.50805 163.393 -1.7057 173.103 6.86853C174.665 8.22902 175.48 9.96917 175.005 12.1206C173.613 18.3536 160.676 22.2136 154.87 22.9729C151.034 23.4791 147.265 22.8147 141.527 20.5367C136.196 18.4168 135.347 16.2337 129.304 16.8665C123.769 17.436 121.834 18.8282 115.722 16.9931C110.29 15.3162 105.978 8.07082 109.984 4.43231Z" fill="url(#paint19_radial_14_2442)"/>
<path fill-rule="evenodd" clip-rule="evenodd" d="M64.0115 2.40743C67.8822 3.10349 70.225 5.34987 66.4222 7.50134C61.3631 10.3489 57.5604 13.1964 52.8409 16.5818C46.0502 21.4859 39.1577 26.1052 29.9903 23.7639C28.3605 23.3209 26.6629 22.6565 24.1164 21.739C19.5327 20.1254 14.9829 19.1762 10.8406 22.1503C8.90527 23.5424 6.86807 27.5606 3.43879 24.2068C1.74112 22.53 0.960194 20.0305 0.281128 17.7524C0.960194 23.5424 2.45414 26.0103 1.63926 35.8817C1.19787 41.1338 -1.41654 50.4358 4.83087 53.2516C4.62715 49.2335 4.42343 45.2153 4.21971 41.1655C4.42343 39.5202 4.45739 37.8433 4.86483 36.2297C8.05644 24.3018 12.4025 22.3085 24.8294 24.0486C31.2126 24.9345 39.1237 25.2509 45.0656 22.435C49.106 20.5367 55.1836 15.2529 60.1408 12.532C70.1571 6.99511 75.7254 6.36233 85.9453 6.5838C85.6058 1.55317 80.343 -0.629939 74.571 0.445794C70.6664 1.20514 67.305 1.9012 64.0115 2.40743Z" fill="url(#paint20_radial_14_2442)"/>
<path fill-rule="evenodd" clip-rule="evenodd" d="M137.113 15.2529C131.816 13.8608 128.387 15.949 123.532 16.9298C118.235 18.0055 113.447 16.74 111.308 11.7726C110.426 9.71606 109.984 7.34312 110.392 5.76116C110.697 4.59051 111.41 3.76789 112.497 3.1351C111.512 3.41985 110.663 3.83116 109.984 4.46395C105.978 8.10246 110.256 15.3478 115.79 16.9931C121.902 18.8282 123.837 17.436 129.372 16.8665C135.415 16.2337 136.264 18.4168 141.595 20.5367C147.333 22.8147 151.102 23.4791 154.938 22.9729C160.71 22.2136 173.681 18.3852 175.073 12.1206C175.548 9.96917 174.733 8.22902 173.171 6.86853C171.677 5.53968 170.048 4.59051 168.35 3.95772C169.98 4.71706 171.474 5.7928 172.255 7.31148C173.171 9.05164 173.273 10.7602 172.866 12.3105C171.983 15.601 168.622 18.3219 165.023 19.6824C158.13 22.3401 152.188 23.8272 145.499 20.0304C142.545 18.3219 140.712 16.1705 137.113 15.2529Z" fill="url(#paint21_radial_14_2442)"/>
<path fill-rule="evenodd" clip-rule="evenodd" d="M2.01254 8.60875C0.926035 10.6969 0.858129 13.7659 1.16371 16.392C1.70696 20.7266 6.32461 22.4035 10.0934 20.7898C14.779 18.7649 17.7669 17.183 24.3538 13.7976C28.2924 11.7727 38.8179 10.9501 41.7379 8.35564C43.4695 6.83695 42.383 4.97024 35.3207 2.5973C26.1873 -0.503345 7.24135 -1.3576 2.01254 8.60875Z" fill="white"/>
<path fill-rule="evenodd" clip-rule="evenodd" d="M49.7512 14.1139C42.553 16.4236 38.0033 18.1954 30.6694 20.7581C26.3913 22.2135 29.7187 23.3842 32.1633 23.7639C37.8335 24.6814 41.6363 23.2576 46.3558 20.4417C47.9516 19.4926 49.4795 18.4485 50.9395 17.3411C53.52 15.2845 54.233 12.6901 49.7512 14.1139Z" fill="white"/>
<path fill-rule="evenodd" clip-rule="evenodd" d="M114.16 3.45156C113.346 3.57812 112.497 3.92615 111.954 4.49566C109.101 7.31155 112.429 13.8925 117.013 15.0948C123.226 16.74 126.519 14.0507 131.443 12.0891C133.072 11.4563 142.342 9.90596 136.875 6.96351C133.887 5.34991 118.337 2.7555 114.16 3.45156Z" fill="white"/>
<path fill-rule="evenodd" clip-rule="evenodd" d="M144.413 7.02673C136.094 11.2031 147.706 14.2405 152.018 14.2088C159.658 14.1772 159.182 11.8043 163.189 9.62115C164.649 8.83017 166.55 8.83017 168.01 8.00755C171.508 6.04591 166.516 3.79953 164.072 3.4515C157.383 2.53396 150.321 4.05264 144.413 7.02673Z" fill="white"/>
<g filter="url(#filter0_di_14_2442)">
<path d="M55.3596 53V32.6364H64.1494C65.6607 32.6364 66.9832 32.9347 68.1167 33.5312C69.2502 34.1278 70.1318 34.9664 70.7616 36.0469C71.3913 37.1274 71.7062 38.3902 71.7062 39.8352C71.7062 41.2936 71.3814 42.5563 70.7317 43.6236C70.0888 44.6908 69.1839 45.5128 68.0173 46.0895C66.8572 46.6662 65.5016 46.9545 63.9505 46.9545H58.7005V42.6591H62.8369C63.4865 42.6591 64.04 42.5464 64.4974 42.321C64.9614 42.089 65.316 41.7609 65.5613 41.3366C65.8132 40.9124 65.9391 40.4119 65.9391 39.8352C65.9391 39.2519 65.8132 38.7547 65.5613 38.3438C65.316 37.9261 64.9614 37.608 64.4974 37.3892C64.04 37.1638 63.4865 37.0511 62.8369 37.0511H60.888V53H55.3596ZM74.7146 53V32.6364H80.243V48.5455H88.476V53H74.7146ZM96.9805 53H91.0145L97.7361 32.6364H105.293L112.015 53H106.049L101.594 38.2443H101.435L96.9805 53ZM95.8668 44.9659H107.083V49.1023H95.8668V44.9659ZM112.042 32.6364H118.207L122.185 40.9091H122.344L126.321 32.6364H132.486L125.008 46.5966V53H119.52V46.5966L112.042 32.6364Z" fill="#000080"/>
</g>
<defs>
<filter id="filter0_di_14_2442" x="50.3596" y="28.6364" width="87.126" height="30.3636" filterUnits="userSpaceOnUse" color-interpolation-filters="sRGB">
<feFlood flood-opacity="0" result="BackgroundImageFix"/>
<feColorMatrix in="SourceAlpha" type="matrix" values="0 0 0 0 0 0 0 0 0 0 0 0 0 0 0 0 0 0 127 0" result="hardAlpha"/>
<feOffset dy="1"/>
<feGaussianBlur stdDeviation="2.5"/>
<feComposite in2="hardAlpha" operator="out"/>
<feColorMatrix type="matrix" values="0 0 0 0 0 0 0 0 0 0 0 0 0 0 0.501961 0 0 0 0.58 0"/>
<feBlend mode="normal" in2="BackgroundImageFix" result="effect1_dropShadow_14_2442"/>
<feBlend mode="normal" in="SourceGraphic" in2="effect1_dropShadow_14_2442" result="shape"/>
<feColorMatrix in="SourceAlpha" type="matrix" values="0 0 0 0 0 0 0 0 0 0 0 0 0 0 0 0 0 0 127 0" result="hardAlpha"/>
<feOffset dy="4"/>
<feGaussianBlur stdDeviation="2"/>
<feComposite in2="hardAlpha" operator="arithmetic" k2="-1" k3="1"/>
<feColorMatrix type="matrix" values="0 0 0 0 0.11875 0 0 0 0 0.412554 0 0 0 0 0.95 0 0 0 1 0"/>
<feBlend mode="normal" in2="shape" result="effect2_innerShadow_14_2442"/>
</filter>
<radialGradient id="paint0_radial_14_2442" cx="0" cy="0" r="1" gradientUnits="userSpaceOnUse" gradientTransform="translate(-4.97771 31.5709) scale(33.6756 31.3804)">
<stop stop-color="#B0E4FF"/>
<stop offset="1" stop-color="#739FF4"/>
</radialGradient>
<radialGradient id="paint1_radial_14_2442" cx="0" cy="0" r="1" gradientUnits="userSpaceOnUse" gradientTransform="translate(19.8229 21.4018) scale(23.6733 22.0598)">
<stop stop-color="#C8FAFF"/>
<stop offset="1" stop-color="#9BC9FF"/>
</radialGradient>
<radialGradient id="paint2_radial_14_2442" cx="0" cy="0" r="1" gradientUnits="userSpaceOnUse" gradientTransform="translate(42.8046 -24.0664) scale(62.2086 57.9687)">
<stop stop-color="#E5FAFF"/>
<stop offset="1" stop-color="#B7ECFF"/>
</radialGradient>
<radialGradient id="paint3_radial_14_2442" cx="0" cy="0" r="1" gradientUnits="userSpaceOnUse" gradientTransform="translate(116.352 -23.9193) scale(98.4334 91.7246)">
<stop stop-color="#E5FAFF"/>
<stop offset="1" stop-color="#B7ECFF"/>
</radialGradient>
<radialGradient id="paint4_radial_14_2442" cx="0" cy="0" r="1" gradientUnits="userSpaceOnUse" gradientTransform="translate(176.93 20.1263) scale(16.0898 14.9932)">
<stop stop-color="#C8FAFF"/>
<stop offset="1" stop-color="#9BC9FF"/>
</radialGradient>
<radialGradient id="paint5_radial_14_2442" cx="0" cy="0" r="1" gradientUnits="userSpaceOnUse" gradientTransform="translate(194.671 35.8377) scale(29.5686 27.5533)">
<stop stop-color="#B0E4FF"/>
<stop offset="1" stop-color="#79A7FC"/>
</radialGradient>
<radialGradient id="paint6_radial_14_2442" cx="0" cy="0" r="1" gradientUnits="userSpaceOnUse" gradientTransform="translate(190.882 70.5298) scale(41.562 38.7293)">
<stop stop-color="#B0E4FF"/>
<stop offset="1" stop-color="#79A7FC"/>
</radialGradient>
<radialGradient id="paint7_radial_14_2442" cx="0" cy="0" r="1" gradientUnits="userSpaceOnUse" gradientTransform="translate(174.448 60.7916) scale(26.0985 24.3198)">
<stop stop-color="#B0E4FF"/>
<stop offset="1" stop-color="#739FF4"/>
</radialGradient>
<radialGradient id="paint8_radial_14_2442" cx="0" cy="0" r="1" gradientUnits="userSpaceOnUse" gradientTransform="translate(116.12 145.761) scale(112.578 104.905)">
<stop stop-color="#B0E4FF"/>
<stop offset="1" stop-color="#739FF4"/>
</radialGradient>
<radialGradient id="paint9_radial_14_2442" cx="0" cy="0" r="1" gradientUnits="userSpaceOnUse" gradientTransform="translate(18.4992 64.6528) scale(26.3824 24.5843)">
<stop stop-color="#B0E4FF"/>
<stop offset="1" stop-color="#739FF4"/>
</radialGradient>
<radialGradient id="paint10_radial_14_2442" cx="0" cy="0" r="1" gradientUnits="userSpaceOnUse" gradientTransform="translate(-7.10081 66.3687) scale(40.4808 37.7219)">
<stop stop-color="#B0E4FF"/>
<stop offset="1" stop-color="#739FF4"/>
</radialGradient>
<radialGradient id="paint11_radial_14_2442" cx="0" cy="0" r="1" gradientUnits="userSpaceOnUse" gradientTransform="translate(49.3287 41.5983) scale(67.6561 63.045)">
<stop stop-color="#D6F1FF"/>
<stop offset="1" stop-color="#9BCEFF"/>
</radialGradient>
<radialGradient id="paint12_radial_14_2442" cx="0" cy="0" r="1" gradientUnits="userSpaceOnUse" gradientTransform="translate(43.8805 1.75501) scale(153.88 143.392)">
<stop stop-color="#FFFAFF"/>
<stop offset="1" stop-color="#CFF2FF"/>
</radialGradient>
<radialGradient id="paint13_radial_14_2442" cx="0" cy="0" r="1" gradientUnits="userSpaceOnUse" gradientTransform="translate(60.3537 16.4192) scale(76.7759 71.5432)">
<stop stop-color="#FFFAFF"/>
<stop offset="1" stop-color="#CFF2FF"/>
</radialGradient>
<radialGradient id="paint14_radial_14_2442" cx="0" cy="0" r="1" gradientUnits="userSpaceOnUse" gradientTransform="translate(106.934 51.9876) scale(84.3787 78.6279)">
<stop stop-color="#D1EFFF"/>
<stop offset="1" stop-color="#B8D8FF"/>
</radialGradient>
<radialGradient id="paint15_radial_14_2442" cx="0" cy="0" r="1" gradientUnits="userSpaceOnUse" gradientTransform="translate(32.8779 15.7832) scale(108.792 101.377)">
<stop stop-color="#9BCEFF"/>
<stop offset="1" stop-color="#D6F1FF"/>
</radialGradient>
<radialGradient id="paint16_radial_14_2442" cx="0" cy="0" r="1" gradientUnits="userSpaceOnUse" gradientTransform="translate(146.006 82.6575) scale(130.012 121.151)">
<stop stop-color="#D6F1FF"/>
<stop offset="1" stop-color="#9BCEFF"/>
</radialGradient>
<radialGradient id="paint17_radial_14_2442" cx="0" cy="0" r="1" gradientUnits="userSpaceOnUse" gradientTransform="translate(150.676 39.2693) scale(59.8913 55.8094)">
<stop stop-color="#9BCEFF"/>
<stop offset="1" stop-color="#D6F1FF"/>
</radialGradient>
<radialGradient id="paint18_radial_14_2442" cx="0" cy="0" r="1" gradientUnits="userSpaceOnUse" gradientTransform="translate(24.2891 2.5479) scale(70.316 65.5236)">
<stop stop-color="#E8FBFF"/>
<stop offset="0.9331" stop-color="#C9F6FF"/>
</radialGradient>
<radialGradient id="paint19_radial_14_2442" cx="0" cy="0" r="1" gradientUnits="userSpaceOnUse" gradientTransform="translate(135.444 -1.17226) scale(55.7717 51.9706)">
<stop stop-color="#E8FBFF"/>
<stop offset="0.9331" stop-color="#C9F6FF"/>
</radialGradient>
<radialGradient id="paint20_radial_14_2442" cx="0" cy="0" r="1" gradientUnits="userSpaceOnUse" gradientTransform="translate(34.3675 7.08908) scale(74.1639 69.1092)">
<stop stop-color="white"/>
<stop offset="1" stop-color="#91D7FF"/>
</radialGradient>
<radialGradient id="paint21_radial_14_2442" cx="0" cy="0" r="1" gradientUnits="userSpaceOnUse" gradientTransform="translate(143.398 -15.0353) scale(59.4733 55.4199)">
<stop stop-color="white"/>
<stop offset="1" stop-color="#91D7FF"/>
</radialGradient>
</defs>
</svg>
