<svg width="253" height="80" viewBox="0 0 253 80" fill="none" xmlns="http://www.w3.org/2000/svg">
<path fill-rule="evenodd" clip-rule="evenodd" d="M40.5058 1.33044L89.57 0L112.373 2.14027L181.485 0.636298L212.494 1.33044L220.349 2.37166L241.1 12.7838L246.845 20.188L253 40.3181L249.776 51.7137L241.1 67.9103L221.053 78.4382L212.494 79.248L188.636 80L164.133 77.8019L95.4905 79.3637L86.8735 77.4548L75.0324 79.3637L41.7368 79.9422L28.2544 77.9754L11.8997 67.9103L3.57576 54.0853L0 40.3181L2.7551 29.0962L11.8997 12.6681L24.7959 4.39624L40.5058 1.33044Z" fill="#B3DEFF"/>
<path fill-rule="evenodd" clip-rule="evenodd" d="M41.385 6.7679L27.4337 9.48662L16.8236 17.18L6.79977 30.7158L4.63086 39.5662L8.55834 51.945L15.9443 64.9602L29.8371 73.4635L42.2057 73.5213L74.329 75.2567L87.0493 73.3478L96.1353 74.5047L164.368 71.3811L188.812 73.5792L212.025 72.8272L219.118 72.133L236.294 63.167L245.321 49.3999L247.841 40.5495L243.152 23.6587L236.176 15.6761L219.353 8.09834L212.318 6.24729L181.895 5.61099L111.904 9.42878L89.101 7.51989L41.385 6.7679Z" fill="#B3DEFF"/>
<path fill-rule="evenodd" clip-rule="evenodd" d="M4.63091 39.5662L6.79981 30.7158L2.7551 29.0962L0 40.3181L4.63091 39.5662Z" fill="url(#paint0_radial_2_86)"/>
<path fill-rule="evenodd" clip-rule="evenodd" d="M6.79984 30.7158L16.8237 17.1801L11.8997 12.6681L2.75513 29.0962L6.79984 30.7158Z" fill="url(#paint1_radial_2_86)"/>
<path fill-rule="evenodd" clip-rule="evenodd" d="M11.8997 12.6681L16.8237 17.18L27.4337 9.48662L24.7959 4.39624L11.8997 12.6681Z" fill="url(#paint2_radial_2_86)"/>
<path fill-rule="evenodd" clip-rule="evenodd" d="M27.4338 9.48663L41.3851 6.7679L40.5058 1.33044L24.7959 4.39624L27.4338 9.48663Z" fill="url(#paint3_radial_2_86)"/>
<path fill-rule="evenodd" clip-rule="evenodd" d="M40.5057 1.33044L41.385 6.7679L89.101 7.51988L89.5699 0L40.5057 1.33044Z" fill="url(#paint4_radial_2_86)"/>
<path fill-rule="evenodd" clip-rule="evenodd" d="M89.57 0L89.1011 7.51988L111.904 9.42878L112.373 2.14028L89.57 0Z" fill="url(#paint5_radial_2_86)"/>
<path fill-rule="evenodd" clip-rule="evenodd" d="M112.373 2.14027L111.904 9.42877L181.895 5.61098L181.485 0.636292L112.373 2.14027Z" fill="url(#paint6_radial_2_86)"/>
<path fill-rule="evenodd" clip-rule="evenodd" d="M181.485 0.636292L181.895 5.61098L212.318 6.24728L212.494 1.33043L181.485 0.636292Z" fill="url(#paint7_radial_2_86)"/>
<path fill-rule="evenodd" clip-rule="evenodd" d="M212.494 1.33044L212.318 6.24729L219.353 8.09834L220.349 2.37166L212.494 1.33044Z" fill="url(#paint8_radial_2_86)"/>
<path fill-rule="evenodd" clip-rule="evenodd" d="M220.349 2.37166L219.353 8.09834L236.176 15.6761L241.1 12.7838L220.349 2.37166Z" fill="url(#paint9_radial_2_86)"/>
<path fill-rule="evenodd" clip-rule="evenodd" d="M241.1 12.7838L236.176 15.6761L243.152 23.6587L246.845 20.188L241.1 12.7838Z" fill="url(#paint10_radial_2_86)"/>
<path fill-rule="evenodd" clip-rule="evenodd" d="M246.845 20.188L243.152 23.6587L247.842 40.5495L253 40.3182L246.845 20.188Z" fill="url(#paint11_radial_2_86)"/>
<path fill-rule="evenodd" clip-rule="evenodd" d="M253 40.3181L247.841 40.5495L245.321 49.3999L249.776 51.7137L253 40.3181Z" fill="url(#paint12_radial_2_86)"/>
<path fill-rule="evenodd" clip-rule="evenodd" d="M249.776 51.7137L245.321 49.3999L236.294 63.167L241.1 67.9103L249.776 51.7137Z" fill="url(#paint13_radial_2_86)"/>
<path fill-rule="evenodd" clip-rule="evenodd" d="M236.294 63.167L219.118 72.133L221.053 78.4382L241.1 67.9103L236.294 63.167Z" fill="url(#paint14_radial_2_86)"/>
<path fill-rule="evenodd" clip-rule="evenodd" d="M219.118 72.1331L212.025 72.8272L188.812 73.5792L188.636 80L212.494 79.248L221.053 78.4382L219.118 72.1331Z" fill="url(#paint15_radial_2_86)"/>
<path fill-rule="evenodd" clip-rule="evenodd" d="M188.636 80L188.812 73.5792L164.368 71.381L164.133 77.8019L188.636 80Z" fill="url(#paint16_radial_2_86)"/>
<path fill-rule="evenodd" clip-rule="evenodd" d="M164.133 77.8019L164.368 71.381L96.1353 74.5047L95.4905 79.3637L164.133 77.8019Z" fill="url(#paint17_radial_2_86)"/>
<path fill-rule="evenodd" clip-rule="evenodd" d="M95.4905 79.3637L96.1353 74.5047L87.0494 73.3478L86.8735 77.4548L95.4905 79.3637Z" fill="url(#paint18_radial_2_86)"/>
<path fill-rule="evenodd" clip-rule="evenodd" d="M86.8735 77.4548L87.0493 73.3478L74.329 75.2567L75.0324 79.3637L86.8735 77.4548Z" fill="url(#paint19_radial_2_86)"/>
<path fill-rule="evenodd" clip-rule="evenodd" d="M75.0325 79.3637L74.329 75.2567L42.2058 73.5213L41.7368 79.9421L75.0325 79.3637Z" fill="url(#paint20_radial_2_86)"/>
<path fill-rule="evenodd" clip-rule="evenodd" d="M41.7368 79.9422L42.2057 73.5213L29.8371 73.4635L28.2544 77.9754L41.7368 79.9422Z" fill="url(#paint21_radial_2_86)"/>
<path fill-rule="evenodd" clip-rule="evenodd" d="M28.2544 77.9754L29.8371 73.4635L15.9444 64.9602L11.8997 67.9103L28.2544 77.9754Z" fill="url(#paint22_radial_2_86)"/>
<path fill-rule="evenodd" clip-rule="evenodd" d="M15.9444 64.9602L8.55843 51.945L3.57581 54.0853L11.8997 67.9103L15.9444 64.9602Z" fill="url(#paint23_radial_2_86)"/>
<path fill-rule="evenodd" clip-rule="evenodd" d="M8.55839 51.9451L4.63091 39.5662L0 40.3181L3.57576 54.0853L8.55839 51.9451Z" fill="url(#paint24_radial_2_86)"/>
<path fill-rule="evenodd" clip-rule="evenodd" d="M8.20661 50.846C8.44109 51.0774 8.61695 51.1931 8.85142 51.3087C10.0824 51.7137 24.3269 45.8713 26.6716 45.0036C37.2817 41.128 48.1262 37.5994 59.3811 34.8228C64.3637 31.5835 69.5222 28.5756 75.6186 26.3196C77.9633 25.2784 88.1044 11.4534 87.4596 9.54446C87.3424 8.90816 87.401 8.21402 86.7562 7.51988L41.385 6.76789L27.4337 9.48662L16.8236 17.18L6.79975 30.7158L4.63085 39.5662L8.20661 50.846ZM91.1526 7.69341C90.1561 8.04049 89.101 8.67678 88.3975 9.83369C86.17 13.5936 83.0046 19.4938 79.4874 23.9479C76.9082 27.1873 76.9668 26.3196 79.7219 27.1294C85.9355 28.9226 108.094 37.4837 125.679 45.5821C130.662 47.8959 140.744 52.8127 149.186 58.0188C150.299 58.7129 151.765 59.2335 153.172 58.5972C164.368 53.3333 177.147 48.7057 189.691 47.1439C192.857 46.739 193.502 46.1605 194.615 42.632C197.253 34.1287 200.888 25.7411 205.05 17.8742C206.925 17.2379 217.066 11.222 218.063 8.09833C218.239 7.57772 212.904 6.36297 212.26 6.18944L181.836 5.49529L111.904 9.42877L91.1526 7.69341ZM196.608 47.1439C209.739 49.8626 232.249 60.2169 234.945 61.663C235.531 62.0101 236.528 61.663 237.642 61.1424L245.379 49.3998L247.9 40.4917L243.269 23.6009L236.294 15.6182L221.756 9.13955C220.994 8.73463 219.704 8.79247 218.239 9.718C217.36 10.2964 216.597 10.9327 216.011 11.4534C215.132 12.2053 214.253 12.8995 213.373 13.5936C211.087 15.3868 208.625 17.0065 205.929 18.5683C200.829 26.7824 197.664 35.517 195.202 44.1938C194.439 46.739 194.029 46.6233 196.608 47.1439ZM233.949 64.3818C234.242 63.8612 234.242 63.4562 234.066 63.1092C231.838 59.5806 200.594 48.0694 194.264 47.7223C180.723 47.8959 165.951 53.3333 153.523 59.4649C152.468 59.9855 155.106 61.8366 155.692 62.2993C159.092 64.7289 162.14 67.2162 165.423 69.53C167.416 70.9183 173.278 71.6124 180.312 72.7693C174.978 72.3066 169.585 71.8438 164.251 71.3232C158.565 71.6124 152.82 71.8438 147.134 72.133C150.358 71.8438 162.14 71.034 162.258 69.9928C162.316 69.53 162.023 68.9516 161.261 68.2574C152.116 59.3492 136.758 51.6558 125.093 46.1027C107.8 37.8308 87.1079 30.2531 77.2599 27.7657C75.3841 27.303 74.1531 27.7657 72.5118 28.5177C68.3498 30.3688 64.6568 32.8561 61.1983 35.6327C49.5917 38.2936 38.2196 41.7643 26.9061 45.6978C24.3855 46.5654 10.141 51.1931 9.20314 52.4656C9.14452 52.5235 9.0859 52.6392 9.02728 52.8127L15.9443 64.9602L29.7784 73.4635L42.1471 73.5213C39.0989 73.5792 35.1714 73.4635 32.1818 73.8106C30.1888 74.0419 29.4853 75.7194 28.4888 77.1656C28.6061 76.645 29.3095 73.8684 28.6647 73.4056C24.9717 70.9761 21.2201 68.7202 17.4684 66.4642C15.5926 65.3651 14.3616 66.5799 12.6617 67.3897C13.4823 66.5799 15.4168 65.3073 14.6547 63.8612C12.8375 60.3904 10.9031 56.9197 8.91004 53.5069C8.14799 52.1186 5.68599 53.3912 4.45499 53.6804C5.45152 53.0441 7.97214 51.8294 7.79628 50.9617C7.15147 47.8959 5.92047 44.9458 4.92394 41.9378C4.04466 39.3348 3.22399 40.1446 0.703369 40.2024C1.75851 39.9132 2.81366 39.6818 3.81018 39.3348C4.98256 38.872 5.51013 32.8561 5.62737 31.6992C5.68599 31.41 5.68599 31.0051 5.45152 30.7737C4.86532 30.1952 4.10328 29.7903 3.39985 29.3275C4.27913 29.5011 5.15842 29.7325 6.03771 29.7903C7.5618 29.906 15.8857 17.8742 14.8892 16.3124C14.1271 15.0976 13.1892 14.1142 12.3099 13.0152C13.7168 13.9407 14.9478 15.1555 16.4719 15.7918C17.996 16.428 26.613 9.77584 26.2027 7.8091C25.9096 6.76789 25.382 5.78452 24.9717 4.80115C25.851 5.90021 26.5544 7.11496 27.5509 8.15618C28.4302 9.13955 40.154 7.34634 40.4471 5.14822C40.5644 4.04916 40.5644 2.9501 40.623 1.85104C41.0333 3.18148 41.1505 4.62761 41.9126 5.72667C42.5574 6.6522 82.5942 6.36297 86.8148 6.6522C87.2838 6.71004 88.3975 6.36297 88.7492 5.32176C89.2182 3.81778 89.2768 2.19811 89.5113 0.636292C89.5699 2.25596 89.6285 3.81778 89.7458 5.43745C89.863 6.42082 90.4492 6.88358 91.0354 6.94143C97.4835 7.69341 103.99 8.09833 110.497 8.56109C110.907 8.61894 111.552 8.4454 111.669 7.98264C111.962 6.30513 112.138 4.56977 112.314 2.83441C112.431 4.56977 112.49 6.30513 112.724 7.98264C112.783 8.61894 113.252 8.79247 113.838 8.73463C135.938 6.6522 158.037 5.26391 180.078 5.14822C180.723 5.14822 181.309 4.51192 181.367 3.93347C181.485 2.9501 181.426 1.96673 181.485 0.983363C181.719 2.08242 181.895 3.18148 182.247 4.2227C182.364 4.56977 182.891 4.97469 183.302 4.97469C192.798 4.39623 201.884 4.80115 210.736 5.72667C211.029 5.78452 211.673 5.72667 211.849 5.14822C212.201 3.99132 212.26 2.71872 212.436 1.56182C212.553 2.77657 212.611 4.04916 212.787 5.26391C212.846 5.49529 212.787 5.95806 213.432 6.13159C214.898 6.53651 216.422 6.94143 217.887 7.23065C219.704 7.57772 219.88 4.04916 220.232 2.77657C220.173 3.70209 219.294 7.75126 220.408 8.09833C225.859 9.77584 230.959 11.974 235.649 14.6348C236.997 15.3868 239.4 13.6515 240.69 13.0152C239.752 13.7672 238.814 14.4035 237.935 15.2133C237.583 15.5604 237.525 16.3124 237.876 16.6016C239.752 18.2213 241.335 20.0145 242.566 22.0969C242.8 22.5018 243.562 22.6175 243.973 22.3861C244.793 21.9233 245.497 21.3449 246.2 20.8243C245.555 21.692 244.735 22.5596 244.207 23.4852C244.031 23.7744 243.973 24.1215 244.031 24.4107C245.848 29.2697 247.138 34.013 247.9 38.6985C248.193 40.4917 250.538 40.2024 252.003 40.4338C249.717 41.0123 247.9 40.5495 247.548 43.0947C247.314 44.7722 246.728 46.5076 246.142 48.2429C246.083 48.4743 246.141 48.7635 246.259 49.0528C246.317 49.2842 246.376 49.5155 246.552 49.6891C247.138 50.2097 247.9 50.6146 248.545 51.1352C247.783 50.9038 247.079 50.5568 246.317 50.4989C246.024 50.4411 245.673 50.5568 245.497 50.7881C242.449 54.5481 239.869 58.4816 237.583 62.5307C237.349 62.9935 237.407 63.8612 237.759 64.2661C238.521 65.2495 239.342 66.175 240.162 67.1583C239.049 66.3485 237.993 65.423 236.821 64.671C236.411 64.4396 235.356 64.3239 234.945 64.4975C230.139 66.8691 225.39 69.2986 220.701 71.8438C219.294 72.5958 220.29 75.6616 220.525 76.9342C219.353 74.5047 219.587 72.7693 216.656 72.7693C215.073 72.7693 213.549 72.885 211.967 72.9429L219.059 72.2487L233.949 64.3818Z" fill="url(#paint25_radial_2_86)"/>
<path fill-rule="evenodd" clip-rule="evenodd" d="M8.20662 50.846C8.4411 51.0774 8.61696 51.1931 8.85143 51.3088C10.0824 51.7137 24.3269 45.8713 26.6716 45.0036C37.2817 41.128 48.1262 37.5994 59.3811 34.8229C64.3637 31.5835 69.5222 28.5756 75.6186 26.3196C77.9633 25.2784 88.1045 11.4534 87.4596 9.54447C87.3424 8.90817 87.401 8.21403 86.7562 7.51989L41.385 6.7679L27.4337 9.48663L16.8236 17.18L6.79977 30.7158L4.63086 39.5662L8.20662 50.846Z" fill="url(#paint26_radial_2_86)"/>
<path fill-rule="evenodd" clip-rule="evenodd" d="M26.9062 45.6978C24.3855 46.5654 10.1411 51.1931 9.2032 52.4657C9.14458 52.5235 9.08596 52.6392 9.02734 52.8127L15.9444 64.9602L29.7785 73.4635L42.1471 73.5213L74.2704 75.2567L86.9907 73.3478L96.0767 74.5047L147.193 72.1909C150.417 71.9017 162.199 71.0918 162.316 70.0506C162.375 69.5878 162.082 69.0094 161.32 68.3153C152.175 59.4071 136.817 51.7137 125.152 46.1605C107.859 37.8886 87.1666 30.3109 77.3186 27.8236C75.4428 27.3608 74.2118 27.8236 72.5704 28.5756C68.4085 30.4266 64.7155 32.914 61.257 35.6905C49.5918 38.2936 38.2197 41.7643 26.9062 45.6978Z" fill="url(#paint27_radial_2_86)"/>
<path fill-rule="evenodd" clip-rule="evenodd" d="M79.7806 27.1873C85.9942 28.9805 108.152 37.5416 125.738 45.6399C130.721 47.9537 140.803 52.8706 149.244 58.0766C150.358 58.7708 151.823 59.2914 153.23 58.6551C164.427 53.3912 177.206 48.7636 189.75 47.2017C192.915 46.7968 193.56 46.2184 194.674 42.6898C197.312 34.1866 200.946 25.799 205.108 17.932C206.984 17.2957 217.125 11.2798 218.122 8.15618C218.18 7.98265 217.477 7.69342 216.539 7.34635L212.318 6.24729L181.895 5.55315L111.904 9.42878L91.1527 7.69342C90.1562 8.04049 89.101 8.67679 88.3976 9.8337C86.1701 13.5936 83.0046 19.4939 79.4875 23.9479C76.9669 27.1873 77.0255 26.3774 79.7806 27.1873Z" fill="url(#paint28_radial_2_86)"/>
<path fill-rule="evenodd" clip-rule="evenodd" d="M194.264 47.7224C180.723 47.8959 165.951 53.3333 153.523 59.4649C152.468 59.9855 155.106 61.8366 155.692 62.2994C159.092 64.7289 162.14 67.2162 165.423 69.53C167.416 70.9183 173.278 71.6125 180.312 72.7694L188.753 73.5213L211.967 72.7694L219.06 72.0752L233.89 64.2661C234.183 63.7455 234.183 63.3406 234.007 62.9935C231.839 59.5806 200.595 48.0694 194.264 47.7224Z" fill="url(#paint29_radial_2_86)"/>
<path fill-rule="evenodd" clip-rule="evenodd" d="M195.143 44.2516C194.44 46.739 194.088 46.6233 196.608 47.2017C209.739 49.9205 232.249 60.2748 234.945 61.7209C235.532 62.068 236.528 61.7209 237.642 61.2003L245.38 49.4577L247.9 40.5495L243.269 23.6587L236.294 15.6761L221.756 9.1974L221.522 9.08171C220.759 8.79248 219.587 8.90818 218.239 9.77585C217.36 10.3543 216.598 10.9906 216.011 11.5112C215.132 12.2632 214.253 12.9573 213.373 13.6515C211.087 15.4447 208.625 17.0644 205.929 18.6262C200.712 26.8402 197.546 35.5748 195.143 44.2516Z" fill="url(#paint30_radial_2_86)"/>
<path fill-rule="evenodd" clip-rule="evenodd" d="M212.084 67.1583C197.136 66.5799 175.271 65.8858 159.854 66.2328C136.055 67.8525 111.845 68.026 87.1079 67.5054C81.8908 67.3897 76.6737 67.6211 72.3945 68.778C62.4879 67.679 51.4675 65.7122 41.2678 66.0593C31.3612 66.4064 20.6339 58.8286 16.1788 51.945C20.1063 59.2335 31.3612 67.9103 41.7368 67.5633C53.1089 66.2907 63.7775 69.1251 72.8049 70.9761C77.3185 69.0672 82.1253 68.9515 87.3424 69.0672C111.962 69.5878 135.703 68.8937 159.385 67.2162C174.685 66.927 196.784 68.1417 211.615 68.7202C216.598 67.3897 223.632 64.7288 228.673 60.8532C230.373 59.5806 231.956 57.9609 233.363 56.1677C234.125 55.2422 234.828 54.0853 235.473 52.8706C235.004 53.6226 234.535 54.3167 234.007 54.953C232.601 56.6884 231.018 58.2502 229.318 59.4649C224.159 63.2827 217.066 65.8279 212.084 67.1583Z" fill="url(#paint31_radial_2_86)"/>
<path fill-rule="evenodd" clip-rule="evenodd" d="M41.1506 12.4367C52.7572 12.8416 70.8705 13.1887 86.2873 12.8995C116.3 13.4779 152.761 11.8583 183.067 10.1229C192.153 11.9161 215.601 13.1309 222.577 14.8084C226.973 16.3702 232.483 21.7498 236.235 27.65C236.469 28.055 236.704 28.4599 236.938 28.8648C236.587 28.1128 236.176 27.4187 235.825 26.7824C232.132 20.8243 226.621 15.2711 222.225 13.7093C215.308 12.0318 191.919 11.3377 182.892 8.50325C152.937 11.5112 116.359 12.3789 86.4632 11.8004C71.105 12.0897 53.1089 11.7426 41.5023 11.3377C30.6578 11.8004 20.1064 17.8742 15.4755 27.65C20.2822 18.5683 30.5992 12.8995 41.1506 12.4367Z" fill="url(#paint32_radial_2_86)"/>
<path opacity="0.5" fill-rule="evenodd" clip-rule="evenodd" d="M89.4527 1.96674C97.4249 2.83442 105.514 4.62762 112.08 6.59436C134.062 4.62762 158.799 3.64425 181.66 3.12364C191.919 2.77657 202.353 3.00795 212.377 3.81779C215.073 3.47072 217.594 3.75994 219.939 4.56978C226.445 7.05712 233.363 10.47 238.638 14.2299C240.983 15.8496 243.738 19.3203 244.969 21.9234C247.607 27.0716 250.362 34.8807 251.71 40.376C251.769 42.0535 251.652 43.7889 251.476 45.4664L252.941 40.3181L246.786 20.188L241.042 12.7838L220.29 2.37166L212.436 1.33044L181.485 0.636298L112.373 2.14028L89.5699 0L40.5057 1.33044L24.7958 4.39624L11.8996 12.6681L2.75504 29.0962L0.703369 37.5416C1.93437 34.9385 3.16537 32.3355 4.80671 29.906C7.5618 24.7578 10.4341 19.6674 14.4202 14.9241C17.8201 11.7426 21.5131 8.79248 25.7923 6.24729C30.8336 4.97469 35.9334 4.28055 41.0333 4.56978C56.6846 2.54519 74.3876 1.90889 89.4527 1.96674Z" fill="#EBFAFF"/>
<path opacity="0.5" fill-rule="evenodd" clip-rule="evenodd" d="M207.863 37.4259C207.16 37.368 206.281 37.6573 205.812 38.1779C204.874 39.3348 204.17 40.7809 203.819 42.227C203.467 43.7889 206.163 45.235 207.453 45.2928C208.508 45.3507 209.68 44.9458 210.325 44.1359C211.322 42.8055 209.915 37.5994 207.863 37.4259Z" fill="#C8FAFF"/>
<path fill-rule="evenodd" clip-rule="evenodd" d="M207.453 36.9053C206.749 36.8474 205.87 37.1367 205.401 37.6573C204.463 38.8142 203.76 40.2603 203.408 41.7064C203.056 43.2683 205.753 44.7144 207.043 44.7722C208.098 44.8301 209.27 44.4252 209.915 43.6153C210.853 42.3427 209.446 37.1367 207.453 36.9053Z" fill="url(#paint33_radial_2_86)"/>
<path opacity="0.5" fill-rule="evenodd" clip-rule="evenodd" d="M34.937 24.9313C33.2371 25.1627 31.4199 25.6833 30.0716 26.7824C28.3717 28.1128 26.0269 32.3934 26.9062 34.4758C27.4338 35.6327 28.5475 36.7318 29.8372 36.9053C31.7716 37.1945 33.9405 36.8474 35.6404 35.8641C37.2818 34.8807 38.2197 33.3189 39.5093 31.9884C40.33 31.1208 41.3265 30.2531 42.0299 29.2697C43.2609 27.5922 41.7368 25.6255 40.5058 25.2784C38.4542 24.6999 37.0473 24.6421 34.937 24.9313Z" fill="#C8FAFF"/>
<path fill-rule="evenodd" clip-rule="evenodd" d="M34.5853 24.5264C32.8853 24.7578 31.0681 25.2784 29.7199 26.3774C28.0785 27.65 25.7338 31.9884 26.6131 34.0709C27.1406 35.2278 28.2544 36.3268 29.544 36.5004C31.4785 36.7896 33.6474 36.4425 35.3473 35.4592C36.9887 34.4758 37.9266 32.914 39.2162 31.5835C40.0955 30.7158 41.0334 29.8482 41.7954 28.8648C42.9678 27.2451 41.5023 25.2205 40.2127 24.8735C38.1024 24.295 36.7542 24.2372 34.5853 24.5264Z" fill="url(#paint34_radial_2_86)"/>
<path opacity="0.5" fill-rule="evenodd" clip-rule="evenodd" d="M216.891 36.3847C215.132 35.1121 213.842 33.6081 212.26 32.1041C211.029 30.8315 208.918 29.8481 208.332 28.1706C207.57 26.0304 209.68 23.7744 212.963 23.543C215.718 23.3116 219.235 23.7744 220.584 24.1793C223.632 25.1627 226.856 26.6088 228.38 29.4432C229.552 31.5835 228.849 35.5748 226.563 36.6739C224.218 37.8308 219.177 38.0622 216.891 36.3847Z" fill="#C8FAFF"/>
<path fill-rule="evenodd" clip-rule="evenodd" d="M217.184 35.6905C215.425 34.4179 214.136 32.914 212.553 31.41C211.263 30.1952 209.212 29.2119 208.625 27.5343C207.863 25.3941 209.974 23.1381 213.256 22.9067C216.011 22.6753 219.528 23.1381 220.877 23.543C223.925 24.5264 227.149 25.9725 228.673 28.8069C229.845 30.9472 229.142 34.9385 226.856 36.0376C224.511 37.1945 219.47 37.368 217.184 35.6905Z" fill="url(#paint35_radial_2_86)"/>
<path fill-rule="evenodd" clip-rule="evenodd" d="M41.1505 12.4367C26.613 13.073 12.5444 23.6009 12.5444 39.2769C12.5444 43.0947 14.1271 48.6479 14.8306 49.6891C18.1132 57.0354 30.1302 66.4642 41.1505 66.0593C51.4089 65.7122 62.3707 67.6211 72.2773 68.778C76.5565 67.6211 81.8322 67.3897 86.9907 67.5054C111.728 68.026 135.996 67.8525 159.737 66.2328C175.154 65.9436 197.019 66.5799 211.967 67.1584C216.949 65.8279 224.042 63.2827 229.142 59.5228C230.842 58.2502 232.425 56.6884 233.831 55.0109C237.642 50.3254 240.338 41.0123 240.338 39.2769C240.338 37.773 238.697 31.6414 236.118 27.5922C232.366 21.7498 226.856 16.3124 222.459 14.7505C215.542 13.1309 192.036 11.9161 182.95 10.0651C152.644 11.8583 116.183 13.4201 86.17 12.8417C70.8704 13.1887 52.7571 12.8417 41.1505 12.4367ZM41.3264 15.6761C34.5852 15.9653 27.3751 17.7585 22.5683 22.0969C15.3581 28.6913 12.5444 39.7397 16.9995 48.9371C21.1614 57.4982 31.6543 62.82 41.3264 63.2249C51.3503 63.6298 62.1948 65.3073 72.2187 65.6544C74.3289 65.0759 81.9494 64.7867 86.8734 64.4975C108.973 65.7701 134.12 66.2328 157.861 64.4396C174.157 64.9602 194.205 64.8445 211.791 64.0347C217.008 63.8033 223.221 61.4895 227.618 58.6551C233.89 54.5481 237.349 47.491 237.349 39.2191C237.349 28.8069 230.256 21.1135 221.346 17.6428C214.194 14.8662 190.922 13.3044 183.126 13.1309C150.358 12.4946 117.59 14.4613 85.0562 15.0976C70.2842 15.4447 56.0984 15.0398 41.3264 15.6761Z" fill="url(#paint36_linear_2_86)"/>
<path fill-rule="evenodd" clip-rule="evenodd" d="M41.3264 15.6761C34.5852 15.9653 27.3751 17.7585 22.5683 22.0969C15.3581 28.6913 12.5444 39.7397 16.9995 48.9371C21.1614 57.4982 31.6542 62.82 41.3264 63.2249C51.3503 63.6298 62.1948 65.3073 72.2187 65.6544C74.3289 65.0759 81.9494 64.7867 86.8734 64.4975C108.973 65.7701 134.12 66.2328 157.861 64.4396C174.157 64.9602 194.205 64.8446 211.791 64.0347C217.008 63.8033 223.221 61.4895 227.618 58.6551C233.89 54.5481 237.349 47.491 237.349 39.2191C237.349 28.8069 230.256 21.1135 221.346 17.6428C214.194 14.8662 190.922 13.3044 183.126 13.1309C150.358 12.4946 117.59 14.4613 85.0562 15.0976C70.2842 15.4447 56.0984 15.0398 41.3264 15.6761Z" fill="url(#paint37_linear_2_86)"/>
<g filter="url(#filter0_di_2_86)">
<path d="M93.7975 46H90.985L96.1057 31.4545H99.3586L104.486 46H101.674L97.789 34.4375H97.6753L93.7975 46ZM93.8898 40.2969H101.56V42.4134H93.8898V40.2969ZM108.602 46V31.4545H114.057C115.174 31.4545 116.112 31.6629 116.869 32.0795C117.632 32.4962 118.207 33.0691 118.595 33.7983C118.988 34.5227 119.185 35.3466 119.185 36.2699C119.185 37.2027 118.988 38.0312 118.595 38.7557C118.202 39.4801 117.622 40.0507 116.855 40.4673C116.088 40.8793 115.143 41.0852 114.021 41.0852H110.406V38.919H113.666C114.32 38.919 114.855 38.8054 115.271 38.5781C115.688 38.3509 115.996 38.0384 116.195 37.6406C116.398 37.2429 116.5 36.786 116.5 36.2699C116.5 35.7538 116.398 35.2992 116.195 34.9062C115.996 34.5133 115.686 34.2079 115.264 33.9901C114.848 33.7675 114.31 33.6562 113.652 33.6562H111.237V46H108.602ZM123.673 46V31.4545H129.128C130.245 31.4545 131.183 31.6629 131.94 32.0795C132.703 32.4962 133.278 33.0691 133.666 33.7983C134.059 34.5227 134.256 35.3466 134.256 36.2699C134.256 37.2027 134.059 38.0312 133.666 38.7557C133.273 39.4801 132.693 40.0507 131.926 40.4673C131.159 40.8793 130.215 41.0852 129.092 41.0852H125.477V38.919H128.737C129.391 38.919 129.926 38.8054 130.342 38.5781C130.759 38.3509 131.067 38.0384 131.266 37.6406C131.469 37.2429 131.571 36.786 131.571 36.2699C131.571 35.7538 131.469 35.2992 131.266 34.9062C131.067 34.5133 130.757 34.2079 130.335 33.9901C129.919 33.7675 129.381 33.6562 128.723 33.6562H126.308V46H123.673ZM138.744 46V31.4545H141.379V43.7912H147.786V46H138.744ZM149.813 31.4545H152.789L156.347 37.8892H156.49L160.048 31.4545H163.024L157.732 40.5739V46H155.105V40.5739L149.813 31.4545Z" fill="white"/>
<path d="M93.7975 46V47H94.5168L94.7456 46.318L93.7975 46ZM90.985 46L90.0417 45.6679L89.5728 47H90.985V46ZM96.1057 31.4545V30.4545H95.3976L95.1625 31.1225L96.1057 31.4545ZM99.3586 31.4545L100.302 31.1221L100.066 30.4545H99.3586V31.4545ZM104.486 46V47H105.899L105.43 45.6675L104.486 46ZM101.674 46L100.726 46.3185L100.955 47H101.674V46ZM97.789 34.4375L98.7369 34.119L98.5079 33.4375H97.789V34.4375ZM97.6753 34.4375V33.4375H96.956L96.7272 34.1195L97.6753 34.4375ZM93.8898 40.2969V39.2969H92.8898V40.2969H93.8898ZM101.56 40.2969H102.56V39.2969H101.56V40.2969ZM101.56 42.4134V43.4134H102.56V42.4134H101.56ZM93.8898 42.4134H92.8898V43.4134H93.8898V42.4134ZM93.7975 45H90.985V47H93.7975V45ZM91.9282 46.3321L97.049 31.7866L95.1625 31.1225L90.0417 45.6679L91.9282 46.3321ZM96.1057 32.4545H99.3586V30.4545H96.1057V32.4545ZM98.4155 31.787L103.543 46.3325L105.43 45.6675L100.302 31.1221L98.4155 31.787ZM104.486 45H101.674V47H104.486V45ZM102.622 45.6815L98.7369 34.119L96.841 34.756L100.726 46.3185L102.622 45.6815ZM97.789 33.4375H97.6753V35.4375H97.789V33.4375ZM96.7272 34.1195L92.8494 45.682L94.7456 46.318L98.6234 34.7555L96.7272 34.1195ZM93.8898 41.2969H101.56V39.2969H93.8898V41.2969ZM100.56 40.2969V42.4134H102.56V40.2969H100.56ZM101.56 41.4134H93.8898V43.4134H101.56V41.4134ZM94.8898 42.4134V40.2969H92.8898V42.4134H94.8898ZM108.602 46H107.602V47H108.602V46ZM108.602 31.4545V30.4545H107.602V31.4545H108.602ZM116.869 32.0795L116.387 32.9558L116.39 32.957L116.869 32.0795ZM118.595 33.7983L117.712 34.2683L117.716 34.2751L118.595 33.7983ZM118.595 38.7557L119.474 39.2325L118.595 38.7557ZM116.855 40.4673L117.328 41.3483L117.332 41.3461L116.855 40.4673ZM110.406 41.0852H109.406V42.0852H110.406V41.0852ZM110.406 38.919V37.919H109.406V38.919H110.406ZM115.271 38.5781L115.75 39.456L115.271 38.5781ZM116.195 37.6406L115.304 37.1849L115.3 37.1934L116.195 37.6406ZM116.195 34.9062L115.302 35.3578L115.307 35.3663L116.195 34.9062ZM115.264 33.9901L114.793 34.8722L114.805 34.8784L115.264 33.9901ZM111.237 33.6562V32.6562H110.237V33.6562H111.237ZM111.237 46V47H112.237V46H111.237ZM109.602 46V31.4545H107.602V46H109.602ZM108.602 32.4545H114.057V30.4545H108.602V32.4545ZM114.057 32.4545C115.054 32.4545 115.814 32.6406 116.387 32.9558L117.351 31.2033C116.409 30.6851 115.295 30.4545 114.057 30.4545V32.4545ZM116.39 32.957C116.99 33.2852 117.421 33.7205 117.712 34.2683L119.478 33.3283C118.993 32.4178 118.273 31.7072 117.349 31.2021L116.39 32.957ZM117.716 34.2751C118.021 34.8363 118.185 35.4928 118.185 36.2699H120.185C120.185 35.2004 119.956 34.2092 119.474 33.3215L117.716 34.2751ZM118.185 36.2699C118.185 37.0584 118.02 37.7192 117.716 38.2788L119.474 39.2325C119.957 38.3433 120.185 37.347 120.185 36.2699H118.185ZM117.716 38.2788C117.421 38.823 116.985 39.2585 116.378 39.5886L117.332 41.3461C118.259 40.8428 118.983 40.1372 119.474 39.2325L117.716 38.2788ZM116.382 39.5863C115.796 39.9008 115.025 40.0852 114.021 40.0852V42.0852C115.262 42.0852 116.38 41.8577 117.328 41.3483L116.382 39.5863ZM114.021 40.0852H110.406V42.0852H114.021V40.0852ZM111.406 41.0852V38.919H109.406V41.0852H111.406ZM110.406 39.919H113.666V37.919H110.406V39.919ZM113.666 39.919C114.427 39.919 115.142 39.7879 115.75 39.456L114.792 37.7002C114.568 37.8229 114.212 37.919 113.666 37.919V39.919ZM115.75 39.456C116.333 39.1379 116.793 38.6807 117.089 38.0878L115.3 37.1934C115.199 37.396 115.043 37.5638 114.792 37.7002L115.75 39.456ZM117.085 38.0963C117.371 37.5371 117.5 36.9198 117.5 36.2699H115.5C115.5 36.6522 115.425 36.9487 115.304 37.185L117.085 38.0963ZM117.5 36.2699C117.5 35.6203 117.371 35.0033 117.082 34.4462L115.307 35.3663C115.425 35.5952 115.5 35.8873 115.5 36.2699H117.5ZM117.087 34.4547C116.786 33.8595 116.316 33.4081 115.723 33.1017L114.805 34.8784C115.055 35.0076 115.206 35.167 115.302 35.3578L117.087 34.4547ZM115.735 33.108C115.128 32.7836 114.413 32.6562 113.652 32.6562V34.6562C114.207 34.6562 114.567 34.7514 114.793 34.8721L115.735 33.108ZM113.652 32.6562H111.237V34.6562H113.652V32.6562ZM110.237 33.6562V46H112.237V33.6562H110.237ZM111.237 45H108.602V47H111.237V45ZM123.673 46H122.673V47H123.673V46ZM123.673 31.4545V30.4545H122.673V31.4545H123.673ZM131.94 32.0795L131.458 32.9558L131.461 32.957L131.94 32.0795ZM133.666 33.7983L132.784 34.2683L132.787 34.2751L133.666 33.7983ZM133.666 38.7557L134.545 39.2325L133.666 38.7557ZM131.926 40.4673L132.399 41.3483L132.403 41.3461L131.926 40.4673ZM125.477 41.0852H124.477V42.0852H125.477V41.0852ZM125.477 38.919V37.919H124.477V38.919H125.477ZM130.342 38.5781L130.821 39.456L130.342 38.5781ZM131.266 37.6406L130.375 37.1849L130.371 37.1934L131.266 37.6406ZM131.266 34.9062L130.373 35.3578L130.378 35.3663L131.266 34.9062ZM130.335 33.9901L129.864 34.8722L129.876 34.8784L130.335 33.9901ZM126.308 33.6562V32.6562H125.308V33.6562H126.308ZM126.308 46V47H127.308V46H126.308ZM124.673 46V31.4545H122.673V46H124.673ZM123.673 32.4545H129.128V30.4545H123.673V32.4545ZM129.128 32.4545C130.125 32.4545 130.886 32.6406 131.458 32.9558L132.422 31.2033C131.48 30.6851 130.366 30.4545 129.128 30.4545V32.4545ZM131.461 32.957C132.061 33.2852 132.492 33.7205 132.784 34.2683L134.549 33.3283C134.064 32.4178 133.344 31.7072 132.42 31.2021L131.461 32.957ZM132.787 34.2751C133.092 34.8363 133.256 35.4928 133.256 36.2699H135.256C135.256 35.2004 135.027 34.2092 134.545 33.3215L132.787 34.2751ZM133.256 36.2699C133.256 37.0584 133.091 37.7192 132.787 38.2788L134.545 39.2325C135.028 38.3433 135.256 37.347 135.256 36.2699H133.256ZM132.787 38.2788C132.492 38.823 132.057 39.2585 131.449 39.5886L132.403 41.3461C133.33 40.8428 134.054 40.1372 134.545 39.2325L132.787 38.2788ZM131.453 39.5863C130.867 39.9008 130.096 40.0852 129.092 40.0852V42.0852C130.333 42.0852 131.451 41.8577 132.399 41.3483L131.453 39.5863ZM129.092 40.0852H125.477V42.0852H129.092V40.0852ZM126.477 41.0852V38.919H124.477V41.0852H126.477ZM125.477 39.919H128.737V37.919H125.477V39.919ZM128.737 39.919C129.498 39.919 130.213 39.7879 130.821 39.456L129.864 37.7002C129.639 37.8229 129.283 37.919 128.737 37.919V39.919ZM130.821 39.456C131.404 39.1379 131.864 38.6807 132.16 38.0878L130.371 37.1934C130.27 37.396 130.114 37.5638 129.864 37.7002L130.821 39.456ZM132.156 38.0963C132.442 37.5371 132.571 36.9198 132.571 36.2699H130.571C130.571 36.6522 130.496 36.9487 130.376 37.185L132.156 38.0963ZM132.571 36.2699C132.571 35.6203 132.442 35.0033 132.154 34.4462L130.378 35.3663C130.496 35.5952 130.571 35.8873 130.571 36.2699H132.571ZM132.158 34.4547C131.857 33.8595 131.387 33.4081 130.794 33.1017L129.876 34.8784C130.126 35.0076 130.277 35.167 130.373 35.3578L132.158 34.4547ZM130.806 33.108C130.199 32.7836 129.484 32.6562 128.723 32.6562V34.6562C129.278 34.6562 129.638 34.7514 129.864 34.8721L130.806 33.108ZM128.723 32.6562H126.308V34.6562H128.723V32.6562ZM125.308 33.6562V46H127.308V33.6562H125.308ZM126.308 45H123.673V47H126.308V45ZM138.744 46H137.744V47H138.744V46ZM138.744 31.4545V30.4545H137.744V31.4545H138.744ZM141.379 31.4545H142.379V30.4545H141.379V31.4545ZM141.379 43.7912H140.379V44.7912H141.379V43.7912ZM147.786 43.7912H148.786V42.7912H147.786V43.7912ZM147.786 46V47H148.786V46H147.786ZM139.744 46V31.4545H137.744V46H139.744ZM138.744 32.4545H141.379V30.4545H138.744V32.4545ZM140.379 31.4545V43.7912H142.379V31.4545H140.379ZM141.379 44.7912H147.786V42.7912H141.379V44.7912ZM146.786 43.7912V46H148.786V43.7912H146.786ZM147.786 45H138.744V47H147.786V45ZM149.813 31.4545V30.4545H148.077L148.948 31.9564L149.813 31.4545ZM152.789 31.4545L153.664 30.9706L153.379 30.4545H152.789V31.4545ZM156.347 37.8892L155.472 38.3731L155.758 38.8892H156.347V37.8892ZM156.49 37.8892V38.8892H157.079L157.365 38.3731L156.49 37.8892ZM160.048 31.4545V30.4545H159.458L159.173 30.9706L160.048 31.4545ZM163.024 31.4545L163.889 31.9564L164.76 30.4545H163.024V31.4545ZM157.732 40.5739L156.867 40.072L156.732 40.3048V40.5739H157.732ZM157.732 46V47H158.732V46H157.732ZM155.105 46H154.105V47H155.105V46ZM155.105 40.5739H156.105V40.3048L155.97 40.072L155.105 40.5739ZM149.813 32.4545H152.789V30.4545H149.813V32.4545ZM151.914 31.9385L155.472 38.3731L157.223 37.4053L153.664 30.9706L151.914 31.9385ZM156.347 38.8892H156.49V36.8892H156.347V38.8892ZM157.365 38.3731L160.923 31.9385L159.173 30.9706L155.614 37.4053L157.365 38.3731ZM160.048 32.4545H163.024V30.4545H160.048V32.4545ZM162.159 30.9527L156.867 40.072L158.597 41.0757L163.889 31.9564L162.159 30.9527ZM156.732 40.5739V46H158.732V40.5739H156.732ZM157.732 45H155.105V47H157.732V45ZM156.105 46V40.5739H154.105V46H156.105ZM155.97 40.072L150.678 30.9527L148.948 31.9564L154.24 41.0757L155.97 40.072Z" fill="#6ECFF9"/>
</g>
<defs>
<filter id="filter0_di_2_86" x="85.985" y="27.4545" width="82.0386" height="24.5455" filterUnits="userSpaceOnUse" color-interpolation-filters="sRGB">
<feFlood flood-opacity="0" result="BackgroundImageFix"/>
<feColorMatrix in="SourceAlpha" type="matrix" values="0 0 0 0 0 0 0 0 0 0 0 0 0 0 0 0 0 0 127 0" result="hardAlpha"/>
<feOffset dy="1"/>
<feGaussianBlur stdDeviation="2.5"/>
<feComposite in2="hardAlpha" operator="out"/>
<feColorMatrix type="matrix" values="0 0 0 0 0.784314 0 0 0 0 0.980392 0 0 0 0 1 0 0 0 0.38 0"/>
<feBlend mode="normal" in2="BackgroundImageFix" result="effect1_dropShadow_2_86"/>
<feBlend mode="normal" in="SourceGraphic" in2="effect1_dropShadow_2_86" result="shape"/>
<feColorMatrix in="SourceAlpha" type="matrix" values="0 0 0 0 0 0 0 0 0 0 0 0 0 0 0 0 0 0 127 0" result="hardAlpha"/>
<feOffset dy="4"/>
<feGaussianBlur stdDeviation="2"/>
<feComposite in2="hardAlpha" operator="arithmetic" k2="-1" k3="1"/>
<feColorMatrix type="matrix" values="0 0 0 0 0.784314 0 0 0 0 0.980392 0 0 0 0 1 0 0 0 1 0"/>
<feBlend mode="normal" in2="shape" result="effect2_innerShadow_2_86"/>
</filter>
<radialGradient id="paint0_radial_2_86" cx="0" cy="0" r="1" gradientUnits="userSpaceOnUse" gradientTransform="translate(-11.8581 21.8372) scale(49.3731 48.7213)">
<stop stop-color="#B0E4FF"/>
<stop offset="1" stop-color="#739FF4"/>
</radialGradient>
<radialGradient id="paint1_radial_2_86" cx="0" cy="0" r="1" gradientUnits="userSpaceOnUse" gradientTransform="translate(-11.4301 6.62155) scale(34.41 33.9557)">
<stop stop-color="#E5FAFF"/>
<stop offset="1" stop-color="#9BCFFF"/>
</radialGradient>
<radialGradient id="paint2_radial_2_86" cx="0" cy="0" r="1" gradientUnits="userSpaceOnUse" gradientTransform="translate(9.26942 -6.46305) scale(28.0463 27.6761)">
<stop stop-color="#E5FAFF"/>
<stop offset="1" stop-color="#9BCFFF"/>
</radialGradient>
<radialGradient id="paint3_radial_2_86" cx="0" cy="0" r="1" gradientUnits="userSpaceOnUse" gradientTransform="translate(18.4943 -39.2671) scale(51.5737 50.8928)">
<stop stop-color="#E5FAFF"/>
<stop offset="1" stop-color="#B7ECFF"/>
</radialGradient>
<radialGradient id="paint4_radial_2_86" cx="0" cy="0" r="1" gradientUnits="userSpaceOnUse" gradientTransform="translate(67.7138 -54.4978) scale(65.7999 64.9313)">
<stop stop-color="#E5FAFF"/>
<stop offset="1" stop-color="#AEE4FF"/>
</radialGradient>
<radialGradient id="paint5_radial_2_86" cx="0" cy="0" r="1" gradientUnits="userSpaceOnUse" gradientTransform="translate(110.482 -54.4249) scale(64.2354 63.3874)">
<stop stop-color="#E5FAFF"/>
<stop offset="1" stop-color="#A8DCFF"/>
</radialGradient>
<radialGradient id="paint6_radial_2_86" cx="0" cy="0" r="1" gradientUnits="userSpaceOnUse" gradientTransform="translate(179.394 -73.9737) scale(86.2486 85.1101)">
<stop stop-color="#E5FAFF"/>
<stop offset="1" stop-color="#A8DCFF"/>
</radialGradient>
<radialGradient id="paint7_radial_2_86" cx="0" cy="0" r="1" gradientUnits="userSpaceOnUse" gradientTransform="translate(197.651 -42.1617) scale(54.9947 54.2687)">
<stop stop-color="#C8FAFF"/>
<stop offset="1" stop-color="#9BC9FF"/>
</radialGradient>
<radialGradient id="paint8_radial_2_86" cx="0" cy="0" r="1" gradientUnits="userSpaceOnUse" gradientTransform="translate(218.311 -11.6587) scale(27.7333 27.3672)">
<stop stop-color="#E5FAFF"/>
<stop offset="1" stop-color="#B7ECFF"/>
</radialGradient>
<radialGradient id="paint9_radial_2_86" cx="0" cy="0" r="1" gradientUnits="userSpaceOnUse" gradientTransform="translate(237.291 -34.1952) scale(50.9113 50.2392)">
<stop stop-color="#E5FAFF"/>
<stop offset="1" stop-color="#B7ECFF"/>
</radialGradient>
<radialGradient id="paint10_radial_2_86" cx="0" cy="0" r="1" gradientUnits="userSpaceOnUse" gradientTransform="translate(255.012 -20.4067) scale(45.992 45.3848)">
<stop stop-color="#E5FAFF"/>
<stop offset="1" stop-color="#A8DCFF"/>
</radialGradient>
<radialGradient id="paint11_radial_2_86" cx="0" cy="0" r="1" gradientUnits="userSpaceOnUse" gradientTransform="translate(252.062 13.9268) scale(46.893 46.2739)">
<stop stop-color="#B0E4FF"/>
<stop offset="1" stop-color="#739FF4"/>
</radialGradient>
<radialGradient id="paint12_radial_2_86" cx="0" cy="0" r="1" gradientUnits="userSpaceOnUse" gradientTransform="translate(258.002 35.2515) scale(25.8376 25.4965)">
<stop stop-color="#B0E4FF"/>
<stop offset="1" stop-color="#739FF4"/>
</radialGradient>
<radialGradient id="paint13_radial_2_86" cx="0" cy="0" r="1" gradientUnits="userSpaceOnUse" gradientTransform="translate(231.39 36.1134) scale(44.1794 43.5962)">
<stop stop-color="#B0E4FF"/>
<stop offset="1" stop-color="#739FF4"/>
</radialGradient>
<radialGradient id="paint14_radial_2_86" cx="0" cy="0" r="1" gradientUnits="userSpaceOnUse" gradientTransform="translate(207.34 39.1462) scale(49.5196 48.866)">
<stop stop-color="#B0E4FF"/>
<stop offset="1" stop-color="#739FF4"/>
</radialGradient>
<radialGradient id="paint15_radial_2_86" cx="0" cy="0" r="1" gradientUnits="userSpaceOnUse" gradientTransform="translate(213.922 112.513) scale(62.7013 61.8736)">
<stop stop-color="#B0E4FF"/>
<stop offset="1" stop-color="#739FF4"/>
</radialGradient>
<radialGradient id="paint16_radial_2_86" cx="0" cy="0" r="1" gradientUnits="userSpaceOnUse" gradientTransform="translate(155.257 97.2934) scale(41.8388 41.2865)">
<stop stop-color="#B0E4FF"/>
<stop offset="1" stop-color="#739FF4"/>
</radialGradient>
<radialGradient id="paint17_radial_2_86" cx="0" cy="0" r="1" gradientUnits="userSpaceOnUse" gradientTransform="translate(153.366 114.656) scale(92.8204 91.595)">
<stop stop-color="#B0E4FF"/>
<stop offset="1" stop-color="#739FF4"/>
</radialGradient>
<radialGradient id="paint18_radial_2_86" cx="0" cy="0" r="1" gradientUnits="userSpaceOnUse" gradientTransform="translate(96.1559 49.74) scale(42.1946 41.6376)">
<stop stop-color="#B0E4FF"/>
<stop offset="1" stop-color="#739FF4"/>
</radialGradient>
<radialGradient id="paint19_radial_2_86" cx="0" cy="0" r="1" gradientUnits="userSpaceOnUse" gradientTransform="translate(79.6006 49.0852) scale(30.9216 30.5134)">
<stop stop-color="#B0E4FF"/>
<stop offset="1" stop-color="#739FF4"/>
</radialGradient>
<radialGradient id="paint20_radial_2_86" cx="0" cy="0" r="1" gradientUnits="userSpaceOnUse" gradientTransform="translate(62.1662 112.965) scale(53.4178 52.7126)">
<stop stop-color="#B0E4FF"/>
<stop offset="1" stop-color="#739FF4"/>
</radialGradient>
<radialGradient id="paint21_radial_2_86" cx="0" cy="0" r="1" gradientUnits="userSpaceOnUse" gradientTransform="translate(25.0473 102.474) scale(51.2765 50.5996)">
<stop stop-color="#B0E4FF"/>
<stop offset="1" stop-color="#739FF4"/>
</radialGradient>
<radialGradient id="paint22_radial_2_86" cx="0" cy="0" r="1" gradientUnits="userSpaceOnUse" gradientTransform="translate(32.3566 43.0936) scale(36.3427 35.8629)">
<stop stop-color="#B0E4FF"/>
<stop offset="1" stop-color="#739FF4"/>
</radialGradient>
<radialGradient id="paint23_radial_2_86" cx="0" cy="0" r="1" gradientUnits="userSpaceOnUse" gradientTransform="translate(-16.3289 57.0852) scale(55.3933 54.6621)">
<stop stop-color="#B0E4FF"/>
<stop offset="1" stop-color="#739FF4"/>
</radialGradient>
<radialGradient id="paint24_radial_2_86" cx="0" cy="0" r="1" gradientUnits="userSpaceOnUse" gradientTransform="translate(-7.44932 40.4888) scale(38.1094 37.6064)">
<stop stop-color="#B0E4FF"/>
<stop offset="1" stop-color="#739FF4"/>
</radialGradient>
<radialGradient id="paint25_radial_2_86" cx="0" cy="0" r="1" gradientUnits="userSpaceOnUse" gradientTransform="translate(43.0527 -68.8897) scale(276.518 272.868)">
<stop stop-color="#FFFAFF"/>
<stop offset="1" stop-color="#CFF2FF"/>
</radialGradient>
<radialGradient id="paint26_radial_2_86" cx="0" cy="0" r="1" gradientUnits="userSpaceOnUse" gradientTransform="translate(37.2366 72.2383) scale(115.801 114.272)">
<stop stop-color="#D9F3FF"/>
<stop offset="1" stop-color="#73AEF5"/>
</radialGradient>
<radialGradient id="paint27_radial_2_86" cx="0" cy="0" r="1" gradientUnits="userSpaceOnUse" gradientTransform="translate(69.6301 124.6) scale(181.468 179.072)">
<stop stop-color="#8FBCFF"/>
<stop offset="1" stop-color="#B0E4FF"/>
</radialGradient>
<radialGradient id="paint28_radial_2_86" cx="0" cy="0" r="1" gradientUnits="userSpaceOnUse" gradientTransform="translate(113.235 102.369) scale(177.009 174.672)">
<stop stop-color="#D9F3FF"/>
<stop offset="1" stop-color="#73AEF5"/>
</radialGradient>
<radialGradient id="paint29_radial_2_86" cx="0" cy="0" r="1" gradientUnits="userSpaceOnUse" gradientTransform="translate(163.103 -7.58005) scale(108.479 107.047)">
<stop stop-color="#C2EAFF"/>
<stop offset="1" stop-color="#6CAFF0"/>
</radialGradient>
<radialGradient id="paint30_radial_2_86" cx="0" cy="0" r="1" gradientUnits="userSpaceOnUse" gradientTransform="translate(171.971 49.4849) scale(89.8941 88.7074)">
<stop stop-color="#C2EAFF"/>
<stop offset="1" stop-color="#6CAFF0"/>
</radialGradient>
<radialGradient id="paint31_radial_2_86" cx="0" cy="0" r="1" gradientUnits="userSpaceOnUse" gradientTransform="translate(90.3695 6.05173) scale(171.552 169.288)">
<stop stop-color="#FFFAFF"/>
<stop offset="1" stop-color="#CFF2FF"/>
</radialGradient>
<radialGradient id="paint32_radial_2_86" cx="0" cy="0" r="1" gradientUnits="userSpaceOnUse" gradientTransform="translate(86.0962 4.09775) scale(152.29 150.28)">
<stop stop-color="#FFFAFF"/>
<stop offset="1" stop-color="#CFF2FF"/>
</radialGradient>
<radialGradient id="paint33_radial_2_86" cx="0" cy="0" r="1" gradientUnits="userSpaceOnUse" gradientTransform="translate(211.537 47.9179) scale(12.1096 11.9497)">
<stop stop-color="#C2EAFF"/>
<stop offset="1" stop-color="#6CAFF0"/>
</radialGradient>
<radialGradient id="paint34_radial_2_86" cx="0" cy="0" r="1" gradientUnits="userSpaceOnUse" gradientTransform="translate(39.7888 38.3638) rotate(5.72067) scale(19.9592 19.701)">
<stop stop-color="#C2EAFF"/>
<stop offset="1" stop-color="#6CAFF0"/>
</radialGradient>
<radialGradient id="paint35_radial_2_86" cx="0" cy="0" r="1" gradientUnits="userSpaceOnUse" gradientTransform="translate(217.263 40.9695) scale(18.4879 18.2438)">
<stop stop-color="#B4E5FF"/>
<stop offset="0.126" stop-color="#B0E0FF"/>
<stop offset="1" stop-color="#94C1FF"/>
</radialGradient>
<linearGradient id="paint36_linear_2_86" x1="126.501" y1="68.7815" x2="126.501" y2="10.1004" gradientUnits="userSpaceOnUse">
<stop stop-color="#79ADFC"/>
<stop offset="1" stop-color="#699CED"/>
</linearGradient>
<linearGradient id="paint37_linear_2_86" x1="104.5" y1="89.5001" x2="176.456" y2="12.4919" gradientUnits="userSpaceOnUse">
<stop stop-color="#000080"/>
<stop offset="0.424373" stop-color="#2945DF"/>
<stop offset="0.982292" stop-color="#000080"/>
</linearGradient>
</defs>
</svg>
