<svg width="109" height="53" viewBox="0 0 109 53" fill="none" xmlns="http://www.w3.org/2000/svg">
<rect opacity="0.2" x="10.1733" y="0.28186" width="88.8333" height="30.1359" rx="15.068" fill="white"/>
<g filter="url(#filter0_d_14_2600)">
<rect x="12.2685" y="2.37463" width="84.6431" height="25.9504" rx="12.9752" fill="url(#paint0_linear_14_2600)"/>
</g>
<ellipse cx="26.0963" cy="15.3498" rx="10.8947" ry="10.8824" fill="white"/>
<path fill-rule="evenodd" clip-rule="evenodd" d="M25.7983 11.5358L29.0824 13.9428H29.0831C29.5761 14.3037 29.8674 14.8776 29.8674 15.4882C29.8674 16.0987 29.5761 16.6727 29.0831 17.0336L25.7972 19.4406C25.2145 19.8692 24.4398 19.9334 23.7943 19.6067C23.1489 19.28 22.7426 18.618 22.744 17.8952V13.0812C22.7439 12.3587 23.1506 11.6976 23.7958 11.3711C24.441 11.0446 25.2152 11.1083 25.7983 11.5358ZM25.158 18.5684L28.4422 16.1614H28.4407C28.6555 16.0042 28.7824 15.7541 28.7824 15.488C28.7824 15.222 28.6555 14.9719 28.4407 14.8146L25.1566 12.4077C25.0144 12.302 24.8422 12.2445 24.665 12.2436C24.5328 12.2442 24.4026 12.276 24.285 12.3363C24.0015 12.4758 23.8233 12.7654 23.8267 13.0811V17.895C23.8265 18.21 24.0038 18.4982 24.2851 18.6405C24.5664 18.7828 24.9039 18.7549 25.158 18.5684Z" fill="#000080"/>
<path d="M49.1092 19.3272V12.0544H52.1135C52.658 12.0544 53.1279 12.161 53.5233 12.374C53.921 12.5847 54.2276 12.8795 54.443 13.2583C54.6585 13.6347 54.7662 14.0727 54.7662 14.5722C54.7662 15.0741 54.6561 15.5132 54.4359 15.8897C54.2181 16.2637 53.9068 16.5537 53.502 16.7597C53.0972 16.9657 52.6166 17.0686 52.0602 17.0686H50.2065V15.6837H51.7335C51.9987 15.6837 52.22 15.6375 52.3976 15.5452C52.5775 15.4529 52.7136 15.3238 52.806 15.1581C52.8983 14.99 52.9445 14.7947 52.9445 14.5722C52.9445 14.3473 52.8983 14.1532 52.806 13.9898C52.7136 13.8241 52.5775 13.6962 52.3976 13.6063C52.2177 13.5163 51.9963 13.4713 51.7335 13.4713H50.867V19.3272H49.1092ZM55.6327 19.3272V12.0544H57.3905V17.8996H60.4161V19.3272H55.6327ZM62.9968 19.3272H61.1076L63.5615 12.0544H65.9017L68.3555 19.3272H66.4663L64.7582 13.8868H64.7014L62.9968 19.3272ZM62.7447 16.4649H66.6936V17.8002H62.7447V16.4649ZM68.0341 12.0544H69.9979L71.5355 15.0978H71.5995L73.1371 12.0544H75.1009L72.4411 16.8982V19.3272H70.6939V16.8982L68.0341 12.0544Z" fill="white"/>
<defs>
<filter id="filter0_d_14_2600" x="0.268494" y="2.37463" width="108.643" height="49.9504" filterUnits="userSpaceOnUse" color-interpolation-filters="sRGB">
<feFlood flood-opacity="0" result="BackgroundImageFix"/>
<feColorMatrix in="SourceAlpha" type="matrix" values="0 0 0 0 0 0 0 0 0 0 0 0 0 0 0 0 0 0 127 0" result="hardAlpha"/>
<feOffset dy="12"/>
<feGaussianBlur stdDeviation="6"/>
<feColorMatrix type="matrix" values="0 0 0 0 0 0 0 0 0 0 0 0 0 0 0 0 0 0 0.3 0"/>
<feBlend mode="normal" in2="BackgroundImageFix" result="effect1_dropShadow_14_2600"/>
<feBlend mode="normal" in="SourceGraphic" in2="effect1_dropShadow_14_2600" result="shape"/>
</filter>
<linearGradient id="paint0_linear_14_2600" x1="66.6025" y1="35.6907" x2="66.6025" y2="2.37463" gradientUnits="userSpaceOnUse">
<stop stop-color="#739FF4"/>
<stop offset="1" stop-color="#B0E4FF"/>
</linearGradient>
</defs>
</svg>
