<svg width="58" height="33" viewBox="0 0 58 33" fill="none" xmlns="http://www.w3.org/2000/svg">
<g opacity="0.28" clip-path="url(#clip0_14_2566)">
<path d="M11.4683 22.036C11.4683 22.2234 10.945 22.3766 9.89856 22.4958C8.85216 22.598 7.79705 22.6491 6.73345 22.6491C5.68697 22.6491 5.01791 22.6065 4.72628 22.5214C4.43464 22.4192 4.28882 22.2574 4.28882 22.036V6.14758C4.28882 5.77293 4.78632 5.4068 5.78133 5.04918C6.77633 4.67453 7.89141 4.48721 9.1266 4.48721C10.2246 4.48721 10.945 4.71711 11.2882 5.1769C11.4083 5.3472 11.4683 5.51749 11.4683 5.68779V22.036Z" fill="white"/>
<path d="M26.4288 22.4703C25.7426 22.6236 25.0392 22.7258 24.3187 22.7768C23.6153 22.845 22.9205 22.879 22.2343 22.879C21.5652 22.879 21.042 22.862 20.6646 22.8279C20.3043 22.7939 19.824 22.7087 19.2235 22.5725C18.6231 22.4363 18.0741 22.2489 17.5766 22.0105C17.0792 21.7721 16.5473 21.423 15.9812 20.9632C15.4322 20.5034 14.969 19.9585 14.5916 19.3284C13.7167 17.8638 13.2792 15.9736 13.2792 13.6576C13.2792 12.1079 13.5194 10.737 13.9998 9.54499C14.4972 8.35292 15.0891 7.43334 15.7754 6.78619C16.4787 6.13908 17.2764 5.61968 18.1685 5.228C19.6095 4.58088 21.0592 4.25732 22.5174 4.25732C24.6103 4.25732 26.1114 4.42762 27.0206 4.76821C27.4324 4.92147 27.8012 5.15988 28.1272 5.48344C28.4531 5.807 28.6161 6.27531 28.6161 6.88837C28.6161 7.50145 28.4617 8.27625 28.1529 9.21289C27.8612 10.1495 27.4324 10.6178 26.8662 10.6178C26.6947 10.6178 26.06 10.4816 24.962 10.2091C23.864 9.93664 23.1178 9.80043 22.7233 9.80043C22.1228 9.80043 21.6081 10.1325 21.1793 10.7966C20.7675 11.4607 20.5616 12.4059 20.5616 13.632C20.5616 14.8581 20.7418 15.8118 21.102 16.493C21.4794 17.1742 21.9684 17.5147 22.5689 17.5147C22.9977 17.5147 23.7697 17.3444 24.8848 17.0038C26.017 16.6462 26.6775 16.4674 26.8662 16.4674C27.3981 16.4674 27.8098 16.9528 28.1014 17.9234C28.4102 18.8941 28.5646 19.6775 28.5646 20.2735C28.5646 20.8695 28.3759 21.3464 27.9985 21.7039C27.6382 22.0445 27.115 22.3 26.4288 22.4703Z" fill="white"/>
<path d="M43.4704 22.6491H32.5596C31.7191 22.6491 31.1529 22.5895 30.8613 22.4703C30.5696 22.3511 30.4238 22.1638 30.4238 21.9083V5.73887C30.4238 5.29611 30.6211 4.98106 31.0156 4.79374C31.4274 4.60641 32.1565 4.51276 33.2029 4.51276H43.5476C43.9078 4.51276 44.088 5.10879 44.088 6.30084C44.088 7.47588 44.0108 8.37847 43.8564 9.00856C43.702 9.62158 43.4962 9.92813 43.2388 9.92813C42.1237 9.92813 40.2452 9.81741 37.6033 9.59603V11.3075C40.1423 11.2053 41.7978 11.1543 42.5697 11.1543C43.033 11.1543 43.2645 11.6907 43.2645 12.7635C43.2645 13.8364 43.1702 14.6538 42.9815 15.2157C42.8099 15.7607 42.5697 16.0331 42.261 16.0331L37.6033 15.931V17.5658C40.5883 17.3444 42.647 17.2337 43.7792 17.2337C44.1395 17.2337 44.3196 17.8297 44.3196 19.0218C44.3196 20.2139 44.2424 21.1165 44.088 21.7295C43.9336 22.3426 43.7278 22.6491 43.4704 22.6491Z" fill="white"/>
<path fill-rule="evenodd" clip-rule="evenodd" d="M10.3876 26.7255C10.3645 26.7281 10.3415 26.7306 10.3184 26.7328C9.13083 26.8487 7.93567 26.9065 6.73345 26.9065C6.16321 26.9065 5.63396 26.8952 5.17245 26.8659C4.80652 26.8426 4.15453 26.7921 3.51612 26.6058C3.4431 26.5845 3.37066 26.5612 3.29888 26.5361C2.73868 26.3398 1.9136 25.9518 1.20198 25.1622C0.41025 24.2839 0 23.1713 0 22.0361V6.14763C0 3.93434 1.467 2.64357 2.10771 2.17205C2.83394 1.63759 3.64259 1.29174 4.29139 1.05695C5.83448 0.48075 7.4651 0.229898 9.12658 0.229898C10.3816 0.229898 12.8606 0.413331 14.5186 2.37127C15.119 1.97794 15.7526 1.63467 16.4168 1.34196C18.3609 0.471377 20.4052 0 22.5174 0C24.668 0 26.8419 0.152058 28.5303 0.783364C28.7109 0.850691 28.8873 0.924548 29.0596 1.0046C29.0949 0.98696 29.1301 0.969786 29.1652 0.953075C29.1863 0.94307 29.2075 0.933233 29.2287 0.923572C30.5687 0.313944 32.1431 0.255441 33.203 0.255441H43.5476C45.0081 0.255441 46.2005 0.925734 46.9719 1.77653C47.6328 2.50542 47.9243 3.28437 48.0609 3.73648C48.3354 4.64468 48.3769 5.59613 48.3769 6.30089C48.3769 7.5886 48.2991 8.89083 48.0237 10.0148C48.0216 10.0236 48.0194 10.0324 48.0172 10.0411C47.9234 10.4138 47.7653 10.9512 47.4751 11.5156C47.5402 11.9907 47.5534 12.4221 47.5534 12.7636C47.5534 13.4112 47.5266 14.0977 47.4409 14.7808C47.9369 15.4216 48.1735 16.0636 48.2925 16.4575C48.5669 17.3657 48.6085 18.3171 48.6085 19.0219C48.6085 20.3128 48.5329 21.6339 48.2488 22.7621C48.125 23.2538 47.8894 24.0318 47.3864 24.7808C46.8663 25.5551 45.6021 26.9065 43.4704 26.9065H32.5596C32.0521 26.9065 31.538 26.8892 31.0523 26.8381C30.6336 26.794 29.9397 26.6978 29.2283 26.407C29.0787 26.3459 28.9183 26.2726 28.7519 26.1848C28.3139 26.3643 27.8799 26.4986 27.469 26.6006C27.4362 26.6087 27.4032 26.6165 27.3703 26.6238C26.4875 26.821 25.5902 26.9522 24.6808 27.0193C23.8614 27.097 23.0457 27.1364 22.2343 27.1364C21.5174 27.1364 20.8445 27.1191 20.2763 27.0678L20.258 27.0661C19.6293 27.0067 18.9427 26.876 18.268 26.7228C17.3889 26.5234 16.5306 26.2368 15.7121 25.8445C15.278 25.6365 14.8596 25.3961 14.4573 25.133C14.1555 25.4328 13.8773 25.6293 13.722 25.7304C13.1378 26.1107 12.5716 26.2922 12.2897 26.3748C11.6639 26.5581 10.9746 26.6586 10.3876 26.7255ZM11.3473 22.1842C11.1374 22.3059 10.6545 22.4097 9.89862 22.4959C8.85214 22.5981 7.79711 22.6492 6.73345 22.6492C5.68698 22.6492 5.01793 22.6065 4.72629 22.5214C4.43465 22.4192 4.28882 22.2574 4.28882 22.0361V6.14763C4.28882 5.77298 4.78633 5.40685 5.78133 5.04922C6.77634 4.67458 7.89147 4.48726 9.12658 4.48726C10.2246 4.48726 10.9451 4.71715 11.2882 5.17695C11.3342 5.24218 11.3714 5.3074 11.3998 5.37263C11.4455 5.4777 11.4683 5.58276 11.4683 5.68783V22.0361C11.4683 22.0881 11.428 22.1375 11.3473 22.1842ZM15.7571 20.7664C15.8302 20.8337 15.9049 20.8993 15.9813 20.9632C16.5473 21.423 17.0792 21.7721 17.5767 22.0105C18.0741 22.249 18.6232 22.4363 19.2236 22.5725C19.824 22.7088 20.3044 22.7939 20.6646 22.8279C21.042 22.862 21.5653 22.879 22.2343 22.879C22.9205 22.879 23.6153 22.845 24.3187 22.7769C24.9505 22.7321 25.569 22.648 26.1744 22.5247C26.2595 22.5073 26.3442 22.4892 26.4288 22.4703C26.9701 22.336 27.41 22.1487 27.7485 21.9083C27.8391 21.844 27.9225 21.7759 27.9985 21.704C28.3759 21.3464 28.5646 20.8696 28.5646 20.2735C28.5646 19.6775 28.4102 18.8942 28.1014 17.9235C27.8098 16.9528 27.3981 16.4675 26.8662 16.4675C26.7632 16.4675 26.5194 16.5208 26.135 16.6274C25.8154 16.716 25.3988 16.8416 24.8848 17.0039C23.7697 17.3444 22.9977 17.5148 22.5689 17.5148C21.9684 17.5148 21.4795 17.1742 21.1021 16.493C20.7418 15.8118 20.5617 14.8581 20.5617 13.6321C20.5617 12.406 20.7675 11.4608 21.1793 10.7967C21.6082 10.1325 22.1228 9.80044 22.7233 9.80044C23.1178 9.80044 23.8641 9.93665 24.962 10.2091C25.4413 10.3281 25.8323 10.421 26.135 10.4881C26.5259 10.5746 26.7696 10.6179 26.8662 10.6179C27.4324 10.6179 27.8613 10.1495 28.1529 9.2129C28.4617 8.27633 28.6161 7.50146 28.6161 6.88841C28.6161 6.42116 28.5214 6.038 28.3321 5.73892C28.273 5.64558 28.2047 5.56043 28.1272 5.48348C27.8012 5.15992 27.4324 4.92151 27.0206 4.76824C26.8024 4.68648 26.55 4.61453 26.2635 4.55239C25.3566 4.35571 24.1079 4.25736 22.5174 4.25736C21.0592 4.25736 19.6096 4.58091 18.1685 5.22804C17.2764 5.61971 16.4787 6.13911 15.7754 6.78623C15.7693 6.79196 15.7632 6.79773 15.7571 6.80351C15.0787 7.44965 14.4929 8.36353 13.9998 9.545C13.5194 10.7371 13.2792 12.1079 13.2792 13.6576C13.2792 15.9736 13.7167 17.8639 14.5917 19.3284C14.9165 19.8708 15.3051 20.3502 15.7571 20.7664ZM30.4238 21.9083C30.4238 22.1638 30.5697 22.3511 30.8613 22.4703C31.1353 22.5823 31.6513 22.6417 32.4096 22.6485C32.4586 22.649 32.5086 22.6492 32.5596 22.6492H43.4704C43.7278 22.6492 43.9337 22.3426 44.0881 21.7295C44.2051 21.2645 44.2778 20.6328 44.3061 19.8345C44.3151 19.5805 44.3196 19.3096 44.3196 19.0219C44.3196 17.8298 44.1395 17.2338 43.7793 17.2338C43.3853 17.2338 42.8792 17.2472 42.261 17.274C42.2518 17.2744 42.2426 17.2748 42.2333 17.2752C42.1231 17.28 42.0094 17.2853 41.8921 17.2909C40.7798 17.3447 39.3502 17.4363 37.6033 17.5658V15.9312L42.261 16.0332C42.5698 16.0332 42.8099 15.7607 42.9815 15.2158C43.0755 14.9358 43.1461 14.5923 43.1933 14.1854C43.2123 14.022 43.2275 13.8483 43.2389 13.6643C43.2521 13.4507 43.2602 13.2231 43.2633 12.9818C43.2641 12.9102 43.2646 12.8375 43.2646 12.7636C43.2646 12.5571 43.256 12.3704 43.2389 12.2038C43.1669 11.5041 42.9438 11.1543 42.5698 11.1543C42.3912 11.1543 42.1653 11.157 41.8921 11.1625C40.9846 11.1807 39.5549 11.229 37.6033 11.3076V9.59605C39.3771 9.74469 40.8066 9.84348 41.8921 9.89228C42.1353 9.90323 42.3611 9.91166 42.5698 9.91762C42.8171 9.92465 43.0401 9.92816 43.2389 9.92816C43.4962 9.92816 43.702 9.62161 43.8564 9.00858C43.972 8.53689 44.0444 7.91249 44.0734 7.13544C44.0832 6.87448 44.0881 6.5963 44.0881 6.30089C44.0881 5.10883 43.9079 4.5128 43.5476 4.5128H33.203C32.9465 4.5128 32.709 4.51842 32.4907 4.52968C31.8182 4.56434 31.3265 4.65238 31.0157 4.79378C30.6211 4.9811 30.4238 5.29615 30.4238 5.73892V21.9083Z" fill="url(#paint0_linear_14_2566)"/>
<path d="M20.5694 18.6073C21.3819 18.3621 22.256 18.1068 23.1004 18.3599C23.6945 18.4593 24.2146 18.7948 24.6163 19.2308C25.4506 20.0217 25.9706 21.1899 25.7885 22.3433C25.6975 22.7093 25.8705 23.1375 26.2347 23.2787C26.567 23.3228 26.9301 23.3601 27.243 23.2109C27.7198 22.9906 28.2331 22.846 28.7555 22.7861C29.2085 22.7567 29.65 22.9002 30.0746 23.0403C30.6595 22.5353 31.6246 22.5975 32.1288 23.1883C32.5089 23.534 32.5715 24.0604 32.7194 24.5214C32.7968 24.8208 33.1883 24.8807 33.4205 24.7371C33.7585 24.3678 33.8097 23.8469 34.0669 23.4323C34.4834 22.7218 35.2129 22.1659 36.0392 22.0337C36.5536 21.9241 37.1431 22.0755 37.513 22.4551C37.7918 22.8381 37.9034 23.3601 37.7691 23.8187C37.7122 24.1712 37.5164 24.4807 37.4311 24.8241C37.4106 25.4037 37.4174 25.9934 37.5324 26.5639C38.0912 25.4444 38.6739 24.3282 39.4182 23.3171C39.8267 22.8245 39.7026 22.1162 40.0623 21.5977C40.4037 21.0046 41.107 20.6351 41.7922 20.712C42.8153 20.8295 43.6006 21.7716 43.6973 22.7624C44.0512 22.445 44.5804 22.332 45.0323 22.4947C45.3942 22.5929 45.6355 22.9002 45.8562 23.1815C46.6028 22.6788 47.585 22.3015 48.4693 22.6709C49.2784 23.0064 49.7473 23.8605 49.8417 24.6965C50.5382 23.6606 51.5955 22.7793 52.8577 22.5556C53.7454 22.3207 54.7799 22.5523 55.4001 23.2493C55.7689 23.673 56.1979 24.0503 56.5064 24.5248C56.7715 24.9382 56.767 25.4489 56.9104 25.9042C57.1551 26.2217 57.4021 26.6046 57.287 27.0238C57.2427 27.4711 56.9024 27.7897 56.5598 28.0416C56.0409 29.6459 55.0519 31.1789 53.5747 32.0634C52.3125 32.8192 50.5713 32.6385 49.5174 31.6059C48.7424 32.2498 47.7534 32.6329 46.7439 32.6758C45.9097 32.6385 45.0027 32.4114 44.4678 31.7245C44.0706 31.2862 43.9852 30.6875 43.8748 30.1316C43.5607 30.8287 43.2512 31.528 42.9451 32.2284C42.8039 32.5718 42.4489 32.8102 42.0733 32.7978C41.6545 32.8294 41.3062 32.5537 40.909 32.4826C40.2705 32.5504 39.6583 32.8452 39.0039 32.7831C38.4212 32.7187 37.8191 32.5876 37.3582 32.2046C35.7023 33.0824 33.4865 33.2158 31.9251 32.0714C31.1819 32.6362 30.2748 33.0022 29.3314 33C28.6736 32.9412 27.9964 32.7707 27.4922 32.3233C26.7024 32.7842 25.7522 33.1491 24.8303 32.9028C23.8709 32.7537 23.0982 31.9708 22.8181 31.0693C21.7541 32.3526 20.0572 33.0282 18.399 32.957C17.5387 32.8678 16.6532 32.6531 15.9681 32.0996C14.6331 31.0614 14.0789 29.2956 14.1529 27.6598C14.2769 25.9753 14.8346 24.3214 15.7781 22.9138C16.3767 22.0202 17.0459 21.1627 17.8368 20.4273C18.6699 19.7223 19.5257 18.9846 20.5694 18.6073Z" fill="url(#paint1_linear_14_2566)"/>
<path d="M21.762 19.4976C22.4152 19.3383 23.1755 19.345 23.7297 19.7709C24.2328 20.1879 24.6721 20.7154 24.8689 21.3447C25.0522 21.931 24.9065 22.5625 24.6413 23.1003C24.3739 23.6527 24.1565 24.2278 23.9562 24.8073C23.8902 25.0275 23.6364 25.1812 23.4111 25.0965C22.8523 24.8965 22.5223 24.2842 22.5518 23.7114C22.5917 22.7918 23.1527 22.0044 23.3029 21.1097C23.3291 20.9278 23.3302 20.6849 23.1356 20.5923C22.8193 20.5098 22.5018 20.6713 22.2195 20.7979C21.3204 21.2599 20.5476 21.931 19.8545 22.6551C18.7097 23.8628 17.814 25.3394 17.4817 26.9775C17.2769 27.9841 17.1767 29.0799 17.5875 30.0492C17.7992 30.5485 18.2784 31.0208 18.8644 30.9575C19.7214 30.857 20.3884 30.2277 20.9335 29.612C21.4695 28.9906 21.894 28.2857 22.2741 27.5627C22.3754 27.2927 22.7794 27.1797 22.9695 27.4237C23.2483 27.7943 23.2597 28.3026 23.155 28.7376C22.9626 29.4696 22.4904 30.0955 21.9555 30.6186C20.9358 31.6433 19.3527 32.0691 17.9495 31.7088C17.2211 31.5257 16.5894 31.0445 16.19 30.4175C15.4934 29.3748 15.3854 28.0553 15.5959 26.8487C15.9601 24.7429 17.1721 22.8619 18.6926 21.3865C19.5712 20.5674 20.5568 19.7608 21.762 19.4976Z" fill="white"/>
<path d="M41.2971 21.7943C42.2974 21.7129 42.9347 23.2335 42.1415 23.8718C41.6362 24.2006 40.9534 23.8492 40.7086 23.3567C40.3866 22.8099 40.654 21.9581 41.2971 21.7943Z" fill="white"/>
<path d="M34.8271 24.0922C35.0991 23.5906 35.5828 23.1545 36.1654 23.0664C36.3873 23.0235 36.6912 23.1025 36.7162 23.3657C36.7766 23.9001 36.2713 24.2933 36.3123 24.8231C36.269 26.0748 36.516 27.3107 36.5786 28.558C36.6115 29.1748 36.5216 29.795 36.3032 30.3734C36.8085 29.9441 37.4218 29.5069 37.5596 28.8178C38.0125 27.4791 38.692 26.2262 39.3919 25.0004C39.6445 24.6141 39.8346 24.1633 40.201 23.8673C40.4195 23.7024 40.6677 23.9058 40.794 24.0842C41.1604 24.5836 41.1217 25.267 40.9192 25.8229C40.6198 26.5821 40.2102 27.2916 39.8368 28.0169C39.4692 28.724 39.0504 29.4414 38.9867 30.2526C38.9811 30.4514 38.9628 30.6909 39.1233 30.84C39.4078 30.9371 39.6991 30.7655 39.9267 30.6084C40.4651 30.187 40.9294 29.6346 41.1092 28.9658C41.8649 27.191 42.8277 25.51 43.844 23.8718C43.9727 23.673 44.1581 23.377 44.4415 23.4843C44.9082 23.8221 44.9605 24.4672 44.9468 24.9959C45.5921 24.3949 46.3012 23.7702 47.1877 23.577C47.8216 23.4516 48.3155 24.0514 48.4385 24.6073C48.591 25.1484 48.2996 25.667 48.0651 26.137C47.4585 27.3469 46.6084 28.4699 46.341 29.8198C46.3 30.1272 46.2898 30.5802 46.638 30.7158C46.9669 30.7372 47.2434 30.518 47.4779 30.3147C48.08 29.7555 48.5204 29.0516 48.9244 28.3456C49.1281 28.0032 49.1429 27.5943 49.2783 27.2272C49.6459 26.1641 50.2343 25.1529 51.0788 24.3927C51.715 23.8244 52.5742 23.4166 53.4471 23.542C54.0993 23.6414 54.4145 24.2786 54.8697 24.6751C55.4057 25.1518 55.4194 25.9178 55.3739 26.5764C55.5321 26.6148 55.6891 26.6566 55.8462 26.7018V26.7809C55.7733 27.0566 55.499 27.1662 55.2601 27.2633C54.9243 28.5094 54.2893 29.7013 53.3288 30.5824C52.7529 31.1055 51.9835 31.5099 51.1801 31.3925C50.3368 31.2998 49.6323 30.6976 49.2624 29.9599C48.6501 30.7045 47.8193 31.3235 46.8531 31.5054C46.1794 31.6025 45.3623 31.5088 44.9252 30.9304C44.5087 30.3554 44.586 29.5872 44.775 28.9432C45.1483 27.6993 45.7787 26.5493 46.4604 25.4478C46.6073 25.2151 46.7302 24.9665 46.8121 24.7033C46.0132 25.049 45.3861 25.6738 44.7966 26.294C43.4696 27.705 42.7537 29.5352 41.9628 31.2671C41.89 31.4387 41.7477 31.6353 41.5326 31.5856C41.2481 31.502 41.0956 31.2298 40.9294 31.0095C40.1749 31.5246 39.1916 31.8432 38.2914 31.5348C37.9021 31.4094 37.621 31.0863 37.4605 30.7214C36.4499 31.5981 35.0262 31.9415 33.7163 31.6862C32.9834 31.5552 32.3358 31.1111 31.9204 30.5034C31.225 31.345 30.1496 32.042 29.0092 31.8296C28.4072 31.7426 27.9303 31.2749 27.7744 30.7022C27.2885 31.1586 26.7387 31.5732 26.0935 31.7743C25.4413 31.9754 24.6447 31.8127 24.2168 31.258C23.7502 30.6581 23.7274 29.8391 23.8719 29.124C24.128 27.8214 24.9406 26.7176 25.7952 25.7325C26.5453 24.9168 27.4352 24.1215 28.5505 23.873C29.2015 23.716 29.9436 24.0052 30.203 24.6435C30.3828 24.352 30.5104 24.0041 30.7926 23.7928C31.043 23.6323 31.3366 23.8357 31.4538 24.0627C31.8236 24.718 31.6883 25.5303 31.3695 26.1776C30.7675 27.383 29.9401 28.4789 29.4906 29.7577C29.3722 30.1283 29.263 30.535 29.3688 30.9213C29.4553 31.179 29.7786 31.0818 29.9538 30.9824C30.5638 30.622 30.961 30.0085 31.3411 29.4301C31.5642 29.1228 31.4367 28.7195 31.5597 28.3772C31.6905 27.9457 31.9682 27.4904 32.4223 27.348C32.6727 27.2859 32.7603 27.5615 32.8331 27.7378C33.3885 26.8939 33.9553 26.0567 34.472 25.1891C34.6689 24.8513 34.6279 24.4322 34.8271 24.0922ZM53.5792 25.0479C53.5643 25.4648 53.6645 25.8873 53.8887 26.242C54.04 25.8647 54.1505 25.4625 54.1447 25.0535C54.1413 24.9021 54.0651 24.7282 53.9046 24.6853C53.7055 24.6683 53.5973 24.883 53.5792 25.0479ZM27.5411 26.3324C26.6454 27.4034 25.826 28.6201 25.5893 30.0176C25.5506 30.3531 25.488 30.7688 25.7714 31.0219C26.5089 30.8863 26.9322 30.1972 27.3465 29.6447C27.9838 28.7025 28.5585 27.7129 28.9944 26.6634C29.164 26.2194 29.3484 25.7562 29.3154 25.2727C29.3256 25.1021 29.1389 24.9587 28.9808 25.0626C28.3992 25.3507 27.969 25.8602 27.5411 26.3324ZM50.5803 29.1318C50.5427 29.5092 50.4881 29.9351 50.6998 30.274C50.8694 30.5192 51.2154 30.4288 51.4293 30.2955C51.9403 29.9814 52.2999 29.4821 52.622 28.9895C53.0067 28.3546 53.3754 27.7005 53.5962 26.9888C53.018 26.6442 52.5537 26.1053 52.3785 25.4501C51.41 26.4499 50.7863 27.7626 50.5803 29.1318ZM34.6199 26.9029C34.1158 27.7084 33.6161 28.5161 33.0779 29.3002C33.2315 29.7996 33.4079 30.3271 33.7971 30.6976C33.9462 30.8412 34.2273 30.9484 34.3775 30.7474C34.5972 30.4435 34.6256 30.0515 34.6723 29.6922C34.7485 28.7636 34.6859 27.8304 34.6199 26.9029Z" fill="white"/>
</g>
<defs>
<linearGradient id="paint0_linear_14_2566" x1="0" y1="0" x2="24.1044" y2="27.3127" gradientUnits="userSpaceOnUse">
<stop stop-color="#17B9FF"/>
<stop offset="1" stop-color="#1769FF"/>
</linearGradient>
<linearGradient id="paint1_linear_14_2566" x1="14.1464" y1="18.2553" x2="25.183" y2="38.6955" gradientUnits="userSpaceOnUse">
<stop stop-color="#17B9FF"/>
<stop offset="1" stop-color="#1769FF"/>
</linearGradient>
<clipPath id="clip0_14_2566">
<rect width="58" height="33" fill="white"/>
</clipPath>
</defs>
</svg>
