<svg width="332" height="124" viewBox="0 0 332 124" fill="none" xmlns="http://www.w3.org/2000/svg">
<path opacity="0.25" fill-rule="evenodd" clip-rule="evenodd" d="M59.4478 25.2085C48.998 23.6361 41.6111 20.6484 31.7738 20.727C16.9999 20.8449 3.37911 27.1741 0.388301 46.7906C-0.584614 53.1198 0.424334 59.6848 1.72155 65.9354C3.52325 74.3874 8.02748 81.9745 9.61298 90.5052C10.4057 94.7901 10.2256 99.2324 10.1535 103.635C10.0454 109.414 10.0814 120.5 15.8468 123.095C15.1622 116.608 14.4776 110.082 13.7569 103.596C11.5948 81.1097 25.9003 88.8148 38.1158 84.0581C60.8171 75.1736 63.2674 53.8274 90.6172 51.9011C100.31 51.2328 109.679 53.1591 116.489 55.4392C130.002 59.96 142.434 68.5693 155.947 74.5053C175.981 83.3111 193.926 82.1318 210.322 74.8591C238.032 62.5546 256.085 50.4073 271.868 67.9403C285.921 83.547 294.713 73.0508 307.109 73.7191C314.856 74.1515 320.982 76.0385 320.91 85.1195C320.838 95.8909 321.666 105.994 322.567 117.001C335.539 115.154 326.387 95.3405 325.306 88.1465C324.333 81.6994 327.18 71.9894 328.585 65.6602C329.702 60.589 331.684 55.6357 331.972 50.4466C332.549 39.7538 324.189 21.2774 306.208 25.523C286.822 30.1225 271.759 30.7908 253.779 24.3044C239.725 19.2332 227.041 10.1129 212.808 5.63133C186.359 -2.70274 167.369 0.1277 143.119 11.7246C123.048 21.3167 77.5369 27.921 59.4478 25.2085Z" fill="#37506B"/>
<path fill-rule="evenodd" clip-rule="evenodd" d="M59.4478 25.2086C48.998 23.6361 41.6111 20.6484 31.7738 20.7271C16.9999 20.845 3.37911 27.1742 0.388301 46.7907C-0.584614 53.1199 0.424334 59.6849 1.72155 65.9354C3.52325 74.3875 8.02748 81.9746 9.61298 90.5052C10.4057 94.7902 10.2256 99.2324 10.1535 103.635C10.0454 109.414 10.0814 120.5 15.8468 123.095C15.1622 116.608 14.4776 110.082 13.7569 103.596C11.5948 81.1097 23.486 85.1982 35.7375 80.4021C58.4389 71.5177 63.2674 53.7882 90.6172 51.8619C100.31 51.1936 110.003 52.255 116.994 53.8668C131.011 57.0903 144.164 63.8126 157.964 68.0976C178.72 74.6233 195.908 75.8027 212.304 68.53C240.014 56.2255 255.148 49.6211 272.48 65.2672C285.741 77.2179 293.884 71.4784 306.28 72.1467C314.027 72.5791 320.946 76.0385 320.91 85.1588C320.838 95.9302 321.666 106.033 322.567 117.041C335.539 115.193 326.387 95.3799 325.306 88.1858C324.333 81.7387 327.18 72.0287 328.585 65.6996C329.702 60.6284 331.684 55.6751 331.972 50.486C332.549 39.7932 324.189 21.3167 306.208 25.5624C286.822 30.1618 271.759 30.8301 253.779 24.3437C239.725 19.2725 227.041 10.1522 212.808 5.6707C186.359 -2.66337 167.369 0.167068 143.119 11.764C123.048 21.3167 77.5369 27.9211 59.4478 25.2086Z" fill="url(#paint0_radial_2_57)"/>
<path fill-rule="evenodd" clip-rule="evenodd" d="M21.1075 80.3628C9.2163 79.8517 3.48691 70.3383 0.67627 60.2352C0.964541 62.1615 1.32488 64.0877 1.72125 65.9747C3.52295 74.4267 8.02718 82.0139 9.61267 90.5445C10.4054 94.8295 10.2253 99.2717 10.1532 103.675C10.0451 109.453 10.0811 120.539 15.8465 123.134C15.1619 116.647 14.4772 110.122 13.7566 103.635C11.5945 81.149 23.4857 85.2374 35.7372 80.4414C58.4386 71.557 63.2671 53.8274 90.6169 51.9011C100.31 51.2328 110.003 52.2943 116.994 53.906C131.011 57.1296 144.163 63.8519 157.964 68.1369C178.72 74.6233 195.908 75.8026 212.303 68.53C240.013 56.2254 255.148 49.6211 272.48 65.2671C285.74 77.2178 293.884 71.4783 306.28 72.1466C314.027 72.5791 320.945 76.0385 320.909 85.1588C320.837 95.9302 321.666 106.033 322.567 117.041C335.539 115.193 326.387 95.3798 325.306 88.1858C324.333 81.7387 327.179 72.0287 328.585 65.6995C329.702 60.6283 331.684 55.6751 331.972 50.4859C332.188 46.083 330.927 40.3828 328.116 35.4689C332.044 45.4933 330.567 56.0682 324.225 66.2892C322.027 69.8272 319.324 70.299 312.874 69.9845C309.126 69.8273 304.622 69.5914 302.748 69.7879C295.938 70.3776 288.623 72.8542 282.389 67.5865C274.21 60.6676 271.327 50.8004 259.328 49.6604C249.346 48.7169 238.464 54.7316 229.383 58.5055C208.123 67.3506 190.611 74.6626 167.261 68.3334C145.533 62.4367 119.3 48.2452 99.0488 45.7292C74.7619 42.7415 71.1586 50.8397 54.9433 65.8568C44.3854 75.5668 35.2688 80.9918 21.1075 80.3628Z" fill="url(#paint1_radial_2_57)"/>
<path fill-rule="evenodd" clip-rule="evenodd" d="M143.047 11.764C123.048 21.3167 77.5372 27.9211 59.4482 25.2086C48.9984 23.6361 41.6114 20.6484 31.7742 20.7271C24.135 20.8057 16.7841 22.5354 11.0547 26.899C27.306 18.4863 33.8641 23.3609 56.025 28.157C73.5375 31.9702 81.8973 31.4985 99.0134 28.7859C120.454 25.3265 131.84 19.6656 151.695 11.3709C176.775 0.874677 189.458 -0.108114 215.295 8.18664C230.357 13.022 242.681 22.9285 256.482 28.5501C277.958 37.3559 288.083 31.4591 308.478 26.7811C313.92 25.4838 317.163 25.9162 320.478 27.4494C316.658 25.1693 311.902 24.1865 306.172 25.5624C286.786 30.1619 271.724 30.8302 253.743 24.3437C239.69 19.2725 227.006 10.1522 212.772 5.6707C186.324 -2.66337 167.298 0.167068 143.047 11.764Z" fill="url(#paint2_radial_2_57)"/>
<path fill-rule="evenodd" clip-rule="evenodd" d="M155.766 63.2621C164.631 67.4291 178.251 70.0237 187.909 69.7485C198.647 69.434 210.43 65.8173 222.105 59.9992C224.987 58.584 228.23 57.326 230.861 55.3997C235.149 52.2548 232.482 49.4243 229.131 50.2499C222.897 51.7437 216.88 54.2204 210.646 55.7142C195.187 59.4095 183.224 60.1957 167.73 60.3923C163.586 60.4316 159.045 59.9206 156.235 59.724C151.442 59.3702 152.235 61.611 155.766 63.2621Z" fill="white"/>
<path fill-rule="evenodd" clip-rule="evenodd" d="M168.089 7.98991C154.505 12.3142 125.389 24.776 113.606 32.7956C109.714 35.4294 107.877 40.1861 112.705 43.0952C120.525 47.8126 129.857 50.6037 139.478 52.019C159.657 54.928 205.168 49.0706 224.338 40.6579C251.544 28.7071 248.913 24.0291 222.104 12.9039C204.448 5.5919 186.539 2.13248 168.089 7.98991Z" fill="white"/>
<path fill-rule="evenodd" clip-rule="evenodd" d="M277.489 39.9503C275.039 41.5228 273.994 45.8864 275.904 48.1664C280.372 53.4735 289.633 55.3605 298.641 55.3998C307.037 55.3998 318.063 54.6135 324.081 47.3016C330.783 39.1641 321.486 26.545 311.685 28.2747C305.668 29.3755 282.642 36.6088 277.489 39.9503Z" fill="white"/>
<path fill-rule="evenodd" clip-rule="evenodd" d="M16.7475 27.5279C11.4145 29.2576 7.41469 34.4468 4.74819 40.3435C2.73029 44.825 1.1448 51.4687 1.72134 57.1296C2.69425 66.4858 11.5586 70.8493 18.5131 67.3113C27.1252 62.987 30.8367 57.2475 43.5927 51.4687C51.34 47.97 71.4469 46.7906 71.9154 42.7415C72.2036 40.4614 69.5011 36.6875 63.4834 33.7785C61.6817 32.9136 59.844 32.1667 57.9702 31.4591C46.1511 26.781 29.1071 23.5181 16.7475 27.5279Z" fill="white"/>
<defs>
<radialGradient id="paint0_radial_2_57" cx="0" cy="0" r="1" gradientUnits="userSpaceOnUse" gradientTransform="translate(124.495 -13.0983) scale(278.847 304.212)">
<stop stop-color="#E8FBFF"/>
<stop offset="0.9331" stop-color="#C9F6FF"/>
</radialGradient>
<radialGradient id="paint1_radial_2_57" cx="0" cy="0" r="1" gradientUnits="userSpaceOnUse" gradientTransform="translate(171.602 21.5341) scale(182.581 199.189)">
<stop stop-color="white"/>
<stop offset="1" stop-color="#91D7FF"/>
</radialGradient>
<radialGradient id="paint2_radial_2_57" cx="0" cy="0" r="1" gradientUnits="userSpaceOnUse" gradientTransform="translate(165.754 82.4334) scale(165.148 180.171)">
<stop stop-color="white"/>
<stop offset="1" stop-color="#91D7FF"/>
</radialGradient>
</defs>
</svg>
