<svg width="262" height="83" viewBox="0 0 262 83" fill="none" xmlns="http://www.w3.org/2000/svg">
<path opacity="0.15" fill-rule="evenodd" clip-rule="evenodd" d="M130.66 2.59439C85.4012 2.59439 40.1427 3.65581 31.6387 5.73932C32.8638 11.9113 42.7731 77.719 42.7731 77.719C56.3579 67.6159 82.0501 57.4341 130.516 57.4341C130.552 57.4341 130.588 57.4341 130.66 57.4341C130.696 57.4341 130.732 57.4341 130.804 57.4341C179.27 57.4341 204.962 67.6159 218.546 77.719C218.546 77.719 228.492 11.9113 229.681 5.73932C221.177 3.61649 175.918 2.59439 130.66 2.59439Z" fill="url(#paint0_radial_2_65)"/>
<path fill-rule="evenodd" clip-rule="evenodd" d="M16.0719 79.5667C23.4228 85.5421 42.2325 81.0998 46.4845 74.2203C47.2772 72.923 47.8177 71.4292 47.5655 69.4636C47.7096 68.8739 38.5931 41.1592 37.8364 34.2404C37.2959 42.2992 16.1079 43.9503 10.8109 42.3386C9.08131 50.5547 9.47768 74.6527 16.0719 79.5667Z" fill="#000080"/>
<path fill-rule="evenodd" clip-rule="evenodd" d="M16.7926 29.4837C18.8466 38.6433 25.6209 59.7537 29.4766 67.6553C25.8732 62.5055 18.0538 64.3139 15.099 69.2278C13.4775 71.9403 13.1172 76.8543 16.072 79.5275C15.063 78.8985 12.2884 76.5005 10.9912 70.8003C9.18949 62.82 4.36095 48.2354 0.685492 39.9406C-3.026 31.6066 9.18949 23.9408 16.7926 29.4837Z" fill="url(#paint1_linear_2_65)"/>
<path fill-rule="evenodd" clip-rule="evenodd" d="M31.1698 59.4391C29.6925 52.2844 35.5299 48.196 42.2683 47.9208C44.3582 58.3384 45.9798 63.4882 47.5292 69.5029C45.5834 62.1123 32.7193 67.0656 31.1698 59.4391Z" fill="url(#paint2_linear_2_65)"/>
<path fill-rule="evenodd" clip-rule="evenodd" d="M19.063 11.3218C17.6577 13.0122 17.5856 15.6853 18.9189 18.3979C25.0086 30.8596 29.8011 50.83 31.2065 59.4392C30.6659 56.255 33.0081 53.6211 37.6565 51.6162C48.0703 47.0954 67.3845 45.9553 84.2844 45.9553H130.624V0H83.2754C65.0062 0 25.9815 3.10562 19.063 11.3218Z" fill="url(#paint3_radial_2_65)"/>
<path fill-rule="evenodd" clip-rule="evenodd" d="M17.8386 33.6507C17.6584 32.9038 17.4782 32.2355 17.2981 31.5672C12.7218 28.3043 6.41582 29.8768 3.1007 33.5328C1.29901 35.4984 0.36213 38.1323 1.04677 40.8054C1.29901 41.3558 1.51521 41.9455 1.76745 42.5352C1.29901 40.0192 2.19986 37.5819 3.85742 35.7342C7.10047 32.0783 13.3343 30.4665 17.8386 33.6507ZM27.1713 62.2696C24.7571 60.0288 20.9735 59.9895 17.7665 61.4048C12.6136 63.6848 9.73094 69.4243 12.3254 74.8493C11.4966 70.0926 14.7036 65.5718 18.5953 63.7635C21.9104 62.2303 25.766 62.191 28.1443 64.7069C27.856 63.96 27.4956 63.1345 27.1713 62.2696Z" fill="url(#paint4_linear_2_65)"/>
<path fill-rule="evenodd" clip-rule="evenodd" d="M245.212 79.5667C237.861 85.5421 219.051 81.0998 214.799 74.2203C214.007 72.923 213.466 71.4292 213.718 69.4636C213.574 68.8739 222.691 41.1592 223.447 34.2404C223.988 42.2992 245.176 43.9503 250.473 42.3386C252.203 50.5547 251.77 74.6527 245.212 79.5667Z" fill="#000080"/>
<path fill-rule="evenodd" clip-rule="evenodd" d="M244.454 29.4837C242.401 38.6433 235.626 59.7537 231.771 67.6553C235.374 62.5055 243.193 64.3139 246.148 69.2278C247.77 71.9403 248.13 76.8543 245.175 79.5275C246.184 78.8985 248.959 76.5005 250.256 70.8003C252.058 62.82 256.886 48.2354 260.562 39.9406C264.273 31.6066 252.058 23.9408 244.454 29.4837Z" fill="url(#paint5_linear_2_65)"/>
<path fill-rule="evenodd" clip-rule="evenodd" d="M230.077 59.4391C231.555 52.2844 225.717 48.196 218.979 47.9208C216.889 58.3384 215.267 63.4882 213.718 69.5029C215.7 62.1123 228.528 67.0656 230.077 59.4391Z" fill="url(#paint6_linear_2_65)"/>
<path fill-rule="evenodd" clip-rule="evenodd" d="M258.148 33.4936C254.833 29.8376 248.527 28.2651 243.951 31.528C243.771 32.1963 243.591 32.9039 243.411 33.6115C247.915 30.4666 254.149 32.039 257.392 35.7343C259.049 37.582 259.95 40.0193 259.482 42.5353C259.734 41.9456 259.986 41.3559 260.202 40.8055C260.887 38.093 259.95 35.4985 258.148 33.4936ZM243.483 61.4048C240.276 59.9896 236.528 60.0683 234.078 62.2697C233.717 63.1346 233.393 63.9601 233.069 64.7463C235.483 62.1911 239.303 62.2697 242.618 63.8029C246.509 65.5719 249.717 70.132 248.888 74.8887C251.518 69.4244 248.635 63.6849 243.483 61.4048Z" fill="url(#paint7_linear_2_65)"/>
<path fill-rule="evenodd" clip-rule="evenodd" d="M35.6748 47.3706C32.4317 48.8644 30.4138 50.7514 29.9094 52.9135C30.1256 53.8963 30.3057 54.8005 30.4859 55.6653C30.8102 53.228 32.9362 51.1445 36.6477 49.4934C46.8813 44.776 67.2405 43.518 84.2124 43.518C99.707 43.518 115.166 43.518 130.66 43.518V41.0807C115.166 41.0807 99.671 41.0807 84.1764 41.0807C67.1324 41.12 45.7282 42.4566 35.6748 47.3706ZM21.009 15.5675C28.3239 7.74445 65.2586 4.83539 83.3837 4.83539C99.1305 4.83539 114.877 4.83539 130.624 4.83539V2.43738C114.841 2.43738 99.0944 2.43738 83.3116 2.43738C65.1145 2.43738 27.1347 5.46437 20 13.4839C18.883 14.6633 18.4506 16.3537 18.7749 18.2013C18.8109 18.28 18.847 18.3586 18.883 18.4372C19.0632 18.791 19.2433 19.1841 19.4235 19.5773C19.4235 18.0048 19.964 16.5896 21.009 15.5675Z" fill="url(#paint8_linear_2_65)"/>
<path fill-rule="evenodd" clip-rule="evenodd" d="M242.22 11.3218C243.626 13.0122 243.698 15.6853 242.365 18.3979C236.275 30.8596 231.482 50.83 230.077 59.4392C230.618 56.255 228.275 53.6211 223.627 51.6162C213.213 47.0954 193.899 45.9553 176.999 45.9553H130.624V0H177.972C196.241 0 235.266 3.10562 242.22 11.3218Z" fill="url(#paint9_radial_2_65)"/>
<path fill-rule="evenodd" clip-rule="evenodd" d="M225.609 47.3706C228.852 48.8644 230.87 50.7514 231.374 52.9135C231.158 53.8963 230.978 54.8005 230.798 55.6653C230.473 53.228 228.347 51.1445 224.636 49.4934C214.402 44.776 194.043 43.518 177.071 43.518C161.577 43.518 146.118 43.518 130.624 43.518V41.0807C146.118 41.0807 161.613 41.0807 177.107 41.0807C194.151 41.12 215.555 42.4566 225.609 47.3706ZM240.275 15.5675C232.96 7.74445 195.989 4.83539 177.864 4.83539C162.117 4.83539 146.37 4.83539 130.624 4.83539V2.43738C146.406 2.43738 162.153 2.43738 177.936 2.43738C196.133 2.43738 234.113 5.46437 241.248 13.4839C242.365 14.6633 242.797 16.3537 242.473 18.2013C242.437 18.28 242.401 18.3586 242.365 18.4372C242.184 18.791 242.004 19.1841 241.824 19.5773C241.824 18.0048 241.32 16.5896 240.275 15.5675Z" fill="url(#paint10_linear_2_65)"/>
<g filter="url(#filter0_di_2_65)">
<path d="M51.8229 30V16.1818H57.531C58.5655 16.1818 59.4584 16.3842 60.2096 16.7891C60.9653 17.1894 61.5478 17.7494 61.9571 18.4691C62.3664 19.1843 62.5711 20.0165 62.5711 20.9656C62.5711 21.9192 62.3619 22.7536 61.9436 23.4688C61.5298 24.1795 60.9383 24.7305 60.1691 25.1218C59.3999 25.5131 58.4868 25.7088 57.4298 25.7088H53.9077V23.0774H56.809C57.3128 23.0774 57.7334 22.9897 58.0707 22.8143C58.4126 22.6388 58.6712 22.3937 58.8467 22.0788C59.0221 21.7595 59.1098 21.3884 59.1098 20.9656C59.1098 20.5382 59.0221 20.1694 58.8467 19.859C58.6712 19.5442 58.4126 19.3013 58.0707 19.1303C57.7289 18.9594 57.3083 18.8739 56.809 18.8739H55.1627V30H51.8229ZM65.1674 30V16.1818H70.8755C71.9101 16.1818 72.8029 16.3685 73.5541 16.7418C74.3098 17.1107 74.8923 17.6415 75.3016 18.3342C75.711 19.0224 75.9156 19.8388 75.9156 20.7834C75.9156 21.7415 75.7065 22.5556 75.2881 23.2259C74.8698 23.8916 74.2761 24.3999 73.5069 24.7507C72.7377 25.0971 71.8268 25.2702 70.7743 25.2702H67.1646V22.6388H70.1535C70.6573 22.6388 71.0779 22.5736 71.4153 22.4432C71.7571 22.3082 72.0158 22.1058 72.1912 21.8359C72.3666 21.5616 72.4543 21.2107 72.4543 20.7834C72.4543 20.3561 72.3666 20.003 72.1912 19.7241C72.0158 19.4407 71.7571 19.2293 71.4153 19.0898C71.0734 18.9459 70.6528 18.8739 70.1535 18.8739H68.5072V30H65.1674ZM72.9469 23.6847L76.3879 30H72.7445L69.3709 23.6847H72.9469ZM82.0373 16.1818V30H78.6975V16.1818H82.0373ZM88.2214 16.1818L91.3116 26.3026H91.4263L94.5165 16.1818H98.2544L93.5922 30H89.1458L84.4835 16.1818H88.2214ZM101.622 30H98.0321L102.694 16.1818H107.141L111.803 30H108.214L104.968 19.6634H104.86L101.622 30ZM101.143 24.5618H108.645V27.0987H101.143V24.5618ZM126.134 21.1882H122.761C122.716 20.8419 122.624 20.5292 122.484 20.2504C122.345 19.9715 122.16 19.7331 121.931 19.5352C121.702 19.3372 121.429 19.1866 121.115 19.0831C120.804 18.9751 120.46 18.9212 120.082 18.9212C119.412 18.9212 118.834 19.0853 118.348 19.4137C117.867 19.7421 117.496 20.2166 117.235 20.8374C116.978 21.4581 116.85 22.2093 116.85 23.0909C116.85 24.0085 116.981 24.7777 117.242 25.3984C117.507 26.0147 117.878 26.4802 118.355 26.7951C118.836 27.1055 119.405 27.2607 120.062 27.2607C120.431 27.2607 120.766 27.2134 121.067 27.119C121.373 27.0245 121.641 26.8873 121.87 26.7074C122.104 26.523 122.295 26.3003 122.444 26.0394C122.597 25.774 122.702 25.4749 122.761 25.142L126.134 25.1623C126.076 25.774 125.898 26.3768 125.601 26.9705C125.309 27.5643 124.906 28.1063 124.394 28.5966C123.881 29.0824 123.256 29.4692 122.518 29.7571C121.785 30.045 120.944 30.1889 119.994 30.1889C118.744 30.1889 117.624 29.9145 116.634 29.3658C115.649 28.8125 114.871 28.0073 114.3 26.9503C113.729 25.8932 113.443 24.6068 113.443 23.0909C113.443 21.5705 113.733 20.2818 114.313 19.2248C114.894 18.1677 115.679 17.3648 116.668 16.8161C117.658 16.2673 118.766 15.9929 119.994 15.9929C120.831 15.9929 121.605 16.1098 122.315 16.3438C123.026 16.5732 123.651 16.9105 124.191 17.3558C124.731 17.7966 125.17 18.3387 125.507 18.9819C125.844 19.6251 126.053 20.3606 126.134 21.1882ZM128.307 16.1818H132.038L134.96 21.9641H135.081L138.003 16.1818H141.734L136.681 25.3849V30H133.361V25.3849L128.307 16.1818ZM149.116 30V16.1818H154.824C155.859 16.1818 156.752 16.3842 157.503 16.7891C158.259 17.1894 158.841 17.7494 159.25 18.4691C159.66 19.1843 159.864 20.0165 159.864 20.9656C159.864 21.9192 159.655 22.7536 159.237 23.4688C158.823 24.1795 158.232 24.7305 157.462 25.1218C156.693 25.5131 155.78 25.7088 154.723 25.7088H151.201V23.0774H154.102C154.606 23.0774 155.027 22.9897 155.364 22.8143C155.706 22.6388 155.965 22.3937 156.14 22.0788C156.315 21.7595 156.403 21.3884 156.403 20.9656C156.403 20.5382 156.315 20.1694 156.14 19.859C155.965 19.5442 155.706 19.3013 155.364 19.1303C155.022 18.9594 154.602 18.8739 154.102 18.8739H152.456V30H149.116ZM175.503 23.0909C175.503 24.6113 175.211 25.9 174.626 26.957C174.041 28.0141 173.249 28.817 172.251 29.3658C171.257 29.9145 170.141 30.1889 168.904 30.1889C167.663 30.1889 166.545 29.9123 165.551 29.359C164.557 28.8058 163.767 28.0028 163.183 26.9503C162.602 25.8932 162.312 24.6068 162.312 23.0909C162.312 21.5705 162.602 20.2818 163.183 19.2248C163.767 18.1677 164.557 17.3648 165.551 16.8161C166.545 16.2673 167.663 15.9929 168.904 15.9929C170.141 15.9929 171.257 16.2673 172.251 16.8161C173.249 17.3648 174.041 18.1677 174.626 19.2248C175.211 20.2818 175.503 21.5705 175.503 23.0909ZM172.089 23.0909C172.089 22.1913 171.961 21.4311 171.704 20.8104C171.452 20.1896 171.088 19.7196 170.611 19.4002C170.139 19.0808 169.57 18.9212 168.904 18.9212C168.243 18.9212 167.674 19.0808 167.197 19.4002C166.72 19.7196 166.354 20.1896 166.097 20.8104C165.846 21.4311 165.72 22.1913 165.72 23.0909C165.72 23.9905 165.846 24.7507 166.097 25.3714C166.354 25.9922 166.72 26.4622 167.197 26.7816C167.674 27.101 168.243 27.2607 168.904 27.2607C169.57 27.2607 170.139 27.101 170.611 26.7816C171.088 26.4622 171.452 25.9922 171.704 25.3714C171.961 24.7507 172.089 23.9905 172.089 23.0909ZM178.403 30V16.1818H181.743V27.2876H187.491V30H178.403ZM193.51 16.1818V30H190.17V16.1818H193.51ZM195.869 16.1818H199.6L202.521 21.9641H202.643L205.564 16.1818H209.295L204.242 25.3849V30H200.922V25.3849L195.869 16.1818Z" fill="white"/>
<path d="M51.8229 30H50.8229V31H51.8229V30ZM51.8229 16.1818V15.1818H50.8229V16.1818H51.8229ZM60.2096 16.7891L59.7352 17.6694L59.7415 17.6727L60.2096 16.7891ZM61.9571 18.4691L61.0878 18.9635L61.0892 18.9658L61.9571 18.4691ZM61.9436 23.4688L61.0804 22.9639L61.0794 22.9656L61.9436 23.4688ZM60.1691 25.1218L60.6226 26.0131V26.0131L60.1691 25.1218ZM53.9077 25.7088H52.9077V26.7088H53.9077V25.7088ZM53.9077 23.0774V22.0774H52.9077V23.0774H53.9077ZM58.0707 22.8143L57.6142 21.9246L57.6094 21.9271L58.0707 22.8143ZM58.8467 22.0788L59.7202 22.5655L59.7231 22.5603L58.8467 22.0788ZM58.8467 19.859L57.9731 20.3457L57.9761 20.3511L58.8467 19.859ZM58.0707 19.1303L57.6235 20.0248L57.6235 20.0248L58.0707 19.1303ZM55.1627 18.8739V17.8739H54.1627V18.8739H55.1627ZM55.1627 30V31H56.1627V30H55.1627ZM52.8229 30V16.1818H50.8229V30H52.8229ZM51.8229 17.1818H57.531V15.1818H51.8229V17.1818ZM57.531 17.1818C58.4348 17.1818 59.1577 17.3581 59.7352 17.6694L60.684 15.9088C59.7591 15.4103 58.6962 15.1818 57.531 15.1818V17.1818ZM59.7415 17.6727C60.335 17.9871 60.7757 18.4147 61.0879 18.9635L62.8263 17.9747C62.3198 17.0841 61.5956 16.3916 60.6777 15.9054L59.7415 17.6727ZM61.0892 18.9658C61.3996 19.5081 61.5711 20.1639 61.5711 20.9656H63.5711C63.5711 19.869 63.3333 18.8605 62.825 17.9724L61.0892 18.9658ZM61.5711 20.9656C61.5711 21.7689 61.3964 22.4237 61.0804 22.9639L62.8068 23.9736C63.3275 23.0834 63.5711 22.0694 63.5711 20.9656H61.5711ZM61.0794 22.9656C60.7673 23.5017 60.3223 23.9219 59.7156 24.2305L60.6226 26.0131C61.5542 25.5391 62.2923 24.8572 62.8078 23.9719L61.0794 22.9656ZM59.7156 24.2305C59.115 24.5361 58.3641 24.7088 57.4298 24.7088V26.7088C58.6095 26.7088 59.6848 26.4902 60.6226 26.0131L59.7156 24.2305ZM57.4298 24.7088H53.9077V26.7088H57.4298V24.7088ZM54.9077 25.7088V23.0774H52.9077V25.7088H54.9077ZM53.9077 24.0774H56.809V22.0774H53.9077V24.0774ZM56.809 24.0774C57.4233 24.0774 58.0136 23.9711 58.5321 23.7015L57.6094 21.9271C57.4532 22.0083 57.2023 22.0774 56.809 22.0774V24.0774ZM58.5273 23.704C59.0327 23.4446 59.4422 23.0646 59.7202 22.5655L57.9731 21.5921C57.9003 21.7228 57.7925 21.8331 57.6142 21.9246L58.5273 23.704ZM59.7231 22.5603C59.9917 22.0713 60.1098 21.5295 60.1098 20.9656H58.1098C58.1098 21.2472 58.0524 21.4477 57.9702 21.5974L59.7231 22.5603ZM60.1098 20.9656C60.1098 20.4 59.9929 19.8547 59.7172 19.367L57.9761 20.3511C58.0513 20.4841 58.1098 20.6764 58.1098 20.9656H60.1098ZM59.7202 19.3723C59.4409 18.8709 59.0282 18.491 58.5179 18.2359L57.6235 20.0248C57.7969 20.1115 57.9016 20.2174 57.9731 20.3457L59.7202 19.3723ZM58.5179 18.2359C58.0014 17.9776 57.4178 17.8739 56.809 17.8739V19.8739C57.1988 19.8739 57.4564 19.9412 57.6235 20.0248L58.5179 18.2359ZM56.809 17.8739H55.1627V19.8739H56.809V17.8739ZM54.1627 18.8739V30H56.1627V18.8739H54.1627ZM55.1627 29H51.8229V31H55.1627V29ZM65.1674 30H64.1674V31H65.1674V30ZM65.1674 16.1818V15.1818H64.1674V16.1818H65.1674ZM73.5541 16.7418L73.109 17.6374L73.1155 17.6405L73.5541 16.7418ZM75.3016 18.3342L74.4407 18.8429L74.4422 18.8453L75.3016 18.3342ZM75.2881 23.2259L76.1348 23.7579L76.1365 23.7553L75.2881 23.2259ZM73.5069 24.7507L73.9175 25.6625L73.9219 25.6605L73.5069 24.7507ZM67.1646 25.2702H66.1646V26.2702H67.1646V25.2702ZM67.1646 22.6388V21.6388H66.1646V22.6388H67.1646ZM71.4153 22.4432L71.7759 23.3759L71.7824 23.3733L71.4153 22.4432ZM72.1912 21.8359L73.0297 22.3809L73.0337 22.3746L72.1912 21.8359ZM72.1912 19.7241L71.3409 20.2504L71.3447 20.2565L72.1912 19.7241ZM71.4153 19.0898L71.0272 20.0115L71.0376 20.0158L71.4153 19.0898ZM68.5072 18.8739V17.8739H67.5072V18.8739H68.5072ZM68.5072 30V31H69.5072V30H68.5072ZM72.9469 23.6847L73.825 23.2062L73.5408 22.6847H72.9469V23.6847ZM76.3879 30V31H78.0716L77.266 29.5215L76.3879 30ZM72.7445 30L71.8624 30.4712L72.1449 31H72.7445V30ZM69.3709 23.6847V22.6847H67.703L68.4888 24.1558L69.3709 23.6847ZM66.1674 30V16.1818H64.1674V30H66.1674ZM65.1674 17.1818H70.8755V15.1818H65.1674V17.1818ZM70.8755 17.1818C71.791 17.1818 72.5247 17.3469 73.109 17.6373L73.9992 15.8463C73.0812 15.3901 72.0292 15.1818 70.8755 15.1818V17.1818ZM73.1155 17.6405C73.7036 17.9276 74.1356 18.3265 74.4407 18.8429L76.1626 17.8254C75.649 16.9564 74.916 16.2938 73.9927 15.8432L73.1155 17.6405ZM74.4422 18.8453C74.7442 19.3531 74.9156 19.9861 74.9156 20.7834H76.9156C76.9156 19.6915 76.6778 18.6916 76.1611 17.823L74.4422 18.8453ZM74.9156 20.7834C74.9156 21.5943 74.7398 22.2158 74.4398 22.6964L76.1365 23.7553C76.6731 22.8955 76.9156 21.8887 76.9156 20.7834H74.9156ZM74.4414 22.6938C74.1349 23.1816 73.6973 23.5647 73.0919 23.8409L73.9219 25.6605C74.8548 25.235 75.6047 24.6016 76.1348 23.7579L74.4414 22.6938ZM73.0963 23.8389C72.484 24.1146 71.7193 24.2702 70.7743 24.2702V26.2702C71.9344 26.2702 72.9914 26.0795 73.9175 25.6625L73.0963 23.8389ZM70.7743 24.2702H67.1646V26.2702H70.7743V24.2702ZM68.1646 25.2702V22.6388H66.1646V25.2702H68.1646ZM67.1646 23.6388H70.1535V21.6388H67.1646V23.6388ZM70.1535 23.6388C70.7357 23.6388 71.288 23.5646 71.7759 23.3759L71.0546 21.5105C70.8679 21.5827 70.5789 21.6388 70.1535 21.6388V23.6388ZM71.7824 23.3733C72.2891 23.1733 72.7254 22.849 73.0296 22.3809L71.3527 21.2909C71.3062 21.3626 71.2251 21.4432 71.0481 21.513L71.7824 23.3733ZM73.0337 22.3746C73.3395 21.8963 73.4543 21.3431 73.4543 20.7834H71.4543C71.4543 21.0783 71.3937 21.2268 71.3487 21.2973L73.0337 22.3746ZM73.4543 20.7834C73.4543 20.2227 73.3391 19.6709 73.0376 19.1916L71.3447 20.2565C71.3941 20.335 71.4543 20.4894 71.4543 20.7834H73.4543ZM73.0415 19.1977C72.7428 18.7152 72.3085 18.3742 71.7929 18.1639L71.0376 20.0158C71.2058 20.0844 71.2888 20.1662 71.3409 20.2504L73.0415 19.1977ZM71.8033 18.1682C71.3041 17.958 70.7426 17.8739 70.1535 17.8739V19.8739C70.563 19.8739 70.8428 19.9338 71.0272 20.0115L71.8033 18.1682ZM70.1535 17.8739H68.5072V19.8739H70.1535V17.8739ZM67.5072 18.8739V30H69.5072V18.8739H67.5072ZM68.5072 29H65.1674V31H68.5072V29ZM72.0688 24.1631L75.5098 30.4785L77.266 29.5215L73.825 23.2062L72.0688 24.1631ZM76.3879 29H72.7445V31H76.3879V29ZM73.6265 29.5288L70.2529 23.2135L68.4888 24.1558L71.8624 30.4712L73.6265 29.5288ZM69.3709 24.6847H72.9469V22.6847H69.3709V24.6847ZM82.0373 16.1818H83.0373V15.1818H82.0373V16.1818ZM82.0373 30V31H83.0373V30H82.0373ZM78.6975 30H77.6975V31H78.6975V30ZM78.6975 16.1818V15.1818H77.6975V16.1818H78.6975ZM81.0373 16.1818V30H83.0373V16.1818H81.0373ZM82.0373 29H78.6975V31H82.0373V29ZM79.6975 30V16.1818H77.6975V30H79.6975ZM78.6975 17.1818H82.0373V15.1818H78.6975V17.1818ZM88.2214 16.1818L89.1778 15.8898L88.9617 15.1818H88.2214V16.1818ZM91.3116 26.3026L90.3552 26.5946L90.5714 27.3026H91.3116V26.3026ZM91.4263 26.3026V27.3026H92.1666L92.3827 26.5946L91.4263 26.3026ZM94.5165 16.1818V15.1818H93.7763L93.5601 15.8898L94.5165 16.1818ZM98.2544 16.1818L99.202 16.5015L99.6472 15.1818H98.2544V16.1818ZM93.5922 30V31H94.3101L94.5397 30.3197L93.5922 30ZM89.1458 30L88.1983 30.3197L88.4278 31H89.1458V30ZM84.4835 16.1818V15.1818H83.0907L83.536 16.5015L84.4835 16.1818ZM87.265 16.4738L90.3552 26.5946L92.268 26.0105L89.1778 15.8898L87.265 16.4738ZM91.3116 27.3026H91.4263V25.3026H91.3116V27.3026ZM92.3827 26.5946L95.4729 16.4738L93.5601 15.8898L90.4699 26.0105L92.3827 26.5946ZM94.5165 17.1818H98.2544V15.1818H94.5165V17.1818ZM97.3069 15.8621L92.6446 29.6803L94.5397 30.3197L99.202 16.5015L97.3069 15.8621ZM93.5922 29H89.1458V31H93.5922V29ZM90.0933 29.6803L85.431 15.8621L83.536 16.5015L88.1983 30.3197L90.0933 29.6803ZM84.4835 17.1818H88.2214V15.1818H84.4835V17.1818ZM101.622 30V31H102.356L102.576 30.299L101.622 30ZM98.0321 30L97.0846 29.6803L96.6393 31H98.0321V30ZM102.694 16.1818V15.1818H101.976L101.747 15.8621L102.694 16.1818ZM107.141 16.1818L108.088 15.8621L107.859 15.1818H107.141V16.1818ZM111.803 30V31H113.196L112.751 29.6803L111.803 30ZM108.214 30L107.26 30.2996L107.479 31H108.214V30ZM104.968 19.6634L105.922 19.3638L105.702 18.6634H104.968V19.6634ZM104.86 19.6634V18.6634H104.126L103.906 19.3644L104.86 19.6634ZM101.143 24.5618V23.5618H100.143V24.5618H101.143ZM108.645 24.5618H109.645V23.5618H108.645V24.5618ZM108.645 27.0987V28.0987H109.645V27.0987H108.645ZM101.143 27.0987H100.143V28.0987H101.143V27.0987ZM101.622 29H98.0321V31H101.622V29ZM98.9797 30.3197L103.642 16.5015L101.747 15.8621L97.0846 29.6803L98.9797 30.3197ZM102.694 17.1818H107.141V15.1818H102.694V17.1818ZM106.193 16.5015L110.856 30.3197L112.751 29.6803L108.088 15.8621L106.193 16.5015ZM111.803 29H108.214V31H111.803V29ZM109.168 29.7004L105.922 19.3638L104.014 19.9629L107.26 30.2996L109.168 29.7004ZM104.968 18.6634H104.86V20.6634H104.968V18.6634ZM103.906 19.3644L100.667 29.701L102.576 30.299L105.815 19.9623L103.906 19.3644ZM101.143 25.5618H108.645V23.5618H101.143V25.5618ZM107.645 24.5618V27.0987H109.645V24.5618H107.645ZM108.645 26.0987H101.143V28.0987H108.645V26.0987ZM102.143 27.0987V24.5618H100.143V27.0987H102.143ZM126.134 21.1882V22.1882H127.237L127.13 21.0908L126.134 21.1882ZM122.761 21.1882L121.769 21.317L121.882 22.1882H122.761V21.1882ZM122.484 20.2504L121.59 20.6976V20.6976L122.484 20.2504ZM121.931 19.5352L122.584 18.778L122.584 18.778L121.931 19.5352ZM121.115 19.0831L120.786 20.0276L120.794 20.0304L120.802 20.0331L121.115 19.0831ZM118.348 19.4137L117.788 18.5852L117.785 18.5876L118.348 19.4137ZM117.235 20.8374L116.313 20.4499L116.311 20.4556L117.235 20.8374ZM117.242 25.3984L116.32 25.7859L116.323 25.794L117.242 25.3984ZM118.355 26.7951L117.804 27.6296L117.813 27.6355L118.355 26.7951ZM121.067 27.119L120.772 26.1635L120.768 26.1647L121.067 27.119ZM121.87 26.7074L122.487 27.4942L122.489 27.4927L121.87 26.7074ZM122.444 26.0394L121.577 25.5401L121.575 25.5449L122.444 26.0394ZM122.761 25.142L122.767 24.1421L121.922 24.137L121.776 24.969L122.761 25.142ZM126.134 25.1623L127.13 25.2574L127.234 24.1689L126.14 24.1623L126.134 25.1623ZM125.601 26.9705L124.707 26.5233L124.704 26.5288L125.601 26.9705ZM124.394 28.5966L125.081 29.3226L125.085 29.3194L124.394 28.5966ZM122.518 29.7571L122.154 28.8255L122.152 28.8263L122.518 29.7571ZM116.634 29.3658L116.145 30.2377L116.149 30.2403L116.634 29.3658ZM114.3 26.9503L115.18 26.4748L114.3 26.9503ZM114.313 19.2248L113.437 18.7436V18.7436L114.313 19.2248ZM122.315 16.3438L122.003 17.2936L122.008 17.2954L122.315 16.3438ZM124.191 17.3558L123.555 18.1272L123.559 18.1304L124.191 17.3558ZM126.134 20.1882H122.761V22.1882H126.134V20.1882ZM123.752 21.0594C123.695 20.6154 123.574 20.1932 123.379 19.8031L121.59 20.6976C121.674 20.8652 121.737 21.0683 121.769 21.317L123.752 21.0594ZM123.379 19.8031C123.182 19.4095 122.917 19.0648 122.584 18.778L121.278 20.2923C121.404 20.4013 121.508 20.5334 121.59 20.6976L123.379 19.8031ZM122.584 18.778C122.246 18.4861 121.855 18.2738 121.427 18.1331L120.802 20.0331C121.004 20.0993 121.157 20.1883 121.278 20.2923L122.584 18.778ZM121.443 18.1386C121.013 17.9889 120.555 17.9212 120.082 17.9212V19.9212C120.365 19.9212 120.596 19.9614 120.786 20.0276L121.443 18.1386ZM120.082 17.9212C119.242 17.9212 118.462 18.1297 117.788 18.5852L118.908 20.2422C119.206 20.041 119.582 19.9212 120.082 19.9212V17.9212ZM117.785 18.5876C117.12 19.0407 116.637 19.6798 116.313 20.4499L118.157 21.2248C118.355 20.7534 118.613 20.4434 118.912 20.2398L117.785 18.5876ZM116.311 20.4556C115.991 21.2288 115.85 22.1172 115.85 23.0909H117.85C117.85 22.3013 117.966 21.6874 118.159 21.2191L116.311 20.4556ZM115.85 23.0909C115.85 24.0963 115.992 25.0067 116.32 25.7859L118.164 25.011C117.969 24.5487 117.85 23.9208 117.85 23.0909H115.85ZM116.323 25.794C116.652 26.5574 117.138 27.1897 117.804 27.6296L118.906 25.9606C118.618 25.7708 118.362 25.472 118.16 25.0029L116.323 25.794ZM117.813 27.6355C118.479 28.0647 119.242 28.2607 120.062 28.2607V26.2607C119.569 26.2607 119.194 26.1462 118.897 25.9547L117.813 27.6355ZM120.062 28.2607C120.516 28.2607 120.954 28.2026 121.366 28.0732L120.768 26.1647C120.578 26.2243 120.346 26.2607 120.062 26.2607V28.2607ZM121.362 28.0744C121.774 27.9475 122.153 27.7566 122.487 27.4942L121.253 25.9205C121.129 26.018 120.973 26.1015 120.772 26.1635L121.362 28.0744ZM122.489 27.4927C122.825 27.2277 123.101 26.9061 123.313 26.5339L121.575 25.5449C121.489 25.6945 121.383 25.8182 121.251 25.9221L122.489 27.4927ZM123.31 26.5387C123.527 26.1624 123.669 25.7509 123.746 25.3151L121.776 24.969C121.736 25.1989 121.666 25.3857 121.577 25.5401L123.31 26.5387ZM122.755 26.142L126.128 26.1623L126.14 24.1623L122.767 24.1421L122.755 26.142ZM125.139 25.0671C125.093 25.5468 124.953 26.0308 124.707 26.5233L126.496 27.4177C126.843 26.7227 127.059 26.0013 127.13 25.2574L125.139 25.0671ZM124.704 26.5288C124.467 27.0102 124.137 27.4586 123.703 27.8738L125.085 29.3194C125.676 28.754 126.151 28.1184 126.498 27.4123L124.704 26.5288ZM123.706 27.8706C123.298 28.2575 122.786 28.5789 122.154 28.8255L122.881 30.6887C123.725 30.3595 124.464 29.9073 125.081 29.3225L123.706 27.8706ZM122.152 28.8263C121.557 29.0601 120.843 29.1889 119.994 29.1889V31.1889C121.044 31.1889 122.013 31.0298 122.883 30.6879L122.152 28.8263ZM119.994 29.1889C118.895 29.1889 117.945 28.9493 117.119 28.4912L116.149 30.2403C117.303 30.8798 118.593 31.1889 119.994 31.1889V29.1889ZM117.124 28.4939C116.314 28.0392 115.667 27.3766 115.18 26.4748L113.42 27.4257C114.075 28.6381 114.984 29.5858 116.145 30.2377L117.124 28.4939ZM115.18 26.4748C114.705 25.5972 114.443 24.4833 114.443 23.0909H112.443C112.443 24.7302 112.752 26.1893 113.42 27.4257L115.18 26.4748ZM114.443 23.0909C114.443 21.6957 114.709 20.582 115.19 19.706L113.437 18.7436C112.757 19.9817 112.443 21.4454 112.443 23.0909H114.443ZM115.19 19.706C115.686 18.803 116.34 18.1417 117.153 17.6906L116.183 15.9415C115.018 16.5879 114.102 17.5324 113.437 18.7436L115.19 19.706ZM117.153 17.6906C117.982 17.231 118.921 16.9929 119.994 16.9929V14.9929C118.612 14.9929 117.334 15.3035 116.183 15.9415L117.153 17.6906ZM119.994 16.9929C120.737 16.9929 121.404 17.0966 122.003 17.2936L122.628 15.3939C121.805 15.1231 120.925 14.9929 119.994 14.9929V16.9929ZM122.008 17.2954C122.607 17.4887 123.119 17.7675 123.555 18.1272L124.828 16.5844C124.184 16.0535 123.445 15.6576 122.623 15.3921L122.008 17.2954ZM123.559 18.1304C123.99 18.4823 124.344 18.9173 124.621 19.4464L126.392 18.5174C125.995 17.76 125.472 17.1109 124.824 16.5813L123.559 18.1304ZM124.621 19.4464C124.891 19.9601 125.069 20.5678 125.139 21.2856L127.13 21.0908C127.038 20.1533 126.798 19.2901 126.392 18.5174L124.621 19.4464ZM128.307 16.1818V15.1818H126.617L127.431 16.6631L128.307 16.1818ZM132.038 16.1818L132.931 15.7309L132.654 15.1818H132.038V16.1818ZM134.96 21.9641L134.067 22.4151L134.345 22.9641H134.96V21.9641ZM135.081 21.9641V22.9641H135.697L135.974 22.4151L135.081 21.9641ZM138.003 16.1818V15.1818H137.388L137.11 15.7309L138.003 16.1818ZM141.734 16.1818L142.611 16.6631L143.424 15.1818H141.734V16.1818ZM136.681 25.3849L135.804 24.9036L135.681 25.1284V25.3849H136.681ZM136.681 30V31H137.681V30H136.681ZM133.361 30H132.361V31H133.361V30ZM133.361 25.3849H134.361V25.1284L134.237 24.9036L133.361 25.3849ZM128.307 17.1818H132.038V15.1818H128.307V17.1818ZM131.146 16.6328L134.067 22.4151L135.853 21.5132L132.931 15.7309L131.146 16.6328ZM134.96 22.9641H135.081V20.9641H134.96V22.9641ZM135.974 22.4151L138.896 16.6328L137.11 15.7309L134.189 21.5132L135.974 22.4151ZM138.003 17.1818H141.734V15.1818H138.003V17.1818ZM140.858 15.7005L135.804 24.9036L137.557 25.8663L142.611 16.6631L140.858 15.7005ZM135.681 25.3849V30H137.681V25.3849H135.681ZM136.681 29H133.361V31H136.681V29ZM134.361 30V25.3849H132.361V30H134.361ZM134.237 24.9036L129.184 15.7005L127.431 16.6631L132.484 25.8663L134.237 24.9036ZM149.116 30H148.116V31H149.116V30ZM149.116 16.1818V15.1818H148.116V16.1818H149.116ZM157.503 16.7891L157.029 17.6694L157.035 17.6727L157.503 16.7891ZM159.25 18.4691L158.381 18.9635L158.383 18.9658L159.25 18.4691ZM159.237 23.4688L158.374 22.9639L158.373 22.9656L159.237 23.4688ZM157.462 25.1218L157.916 26.0131V26.0131L157.462 25.1218ZM151.201 25.7088H150.201V26.7088H151.201V25.7088ZM151.201 23.0774V22.0774H150.201V23.0774H151.201ZM155.364 22.8143L154.908 21.9246L154.903 21.9271L155.364 22.8143ZM156.14 22.0788L157.014 22.5655L157.016 22.5603L156.14 22.0788ZM156.14 19.859L155.266 20.3457L155.269 20.3511L156.14 19.859ZM155.364 19.1303L154.917 20.0248V20.0248L155.364 19.1303ZM152.456 18.8739V17.8739H151.456V18.8739H152.456ZM152.456 30V31H153.456V30H152.456ZM150.116 30V16.1818H148.116V30H150.116ZM149.116 17.1818H154.824V15.1818H149.116V17.1818ZM154.824 17.1818C155.728 17.1818 156.451 17.3581 157.029 17.6694L157.977 15.9088C157.052 15.4103 155.99 15.1818 154.824 15.1818V17.1818ZM157.035 17.6727C157.628 17.9871 158.069 18.4147 158.381 18.9635L160.12 17.9747C159.613 17.0841 158.889 16.3916 157.971 15.9054L157.035 17.6727ZM158.383 18.9658C158.693 19.5081 158.864 20.1639 158.864 20.9656H160.864C160.864 19.869 160.627 18.8605 160.118 17.9724L158.383 18.9658ZM158.864 20.9656C158.864 21.7689 158.69 22.4237 158.374 22.9639L160.1 23.9736C160.621 23.0834 160.864 22.0694 160.864 20.9656H158.864ZM158.373 22.9656C158.061 23.5017 157.616 23.9219 157.009 24.2305L157.916 26.0131C158.848 25.5391 159.586 24.8572 160.101 23.9719L158.373 22.9656ZM157.009 24.2305C156.408 24.5361 155.657 24.7088 154.723 24.7088V26.7088C155.903 26.7088 156.978 26.4902 157.916 26.0131L157.009 24.2305ZM154.723 24.7088H151.201V26.7088H154.723V24.7088ZM152.201 25.7088V23.0774H150.201V25.7088H152.201ZM151.201 24.0774H154.102V22.0774H151.201V24.0774ZM154.102 24.0774C154.717 24.0774 155.307 23.9711 155.825 23.7015L154.903 21.9271C154.747 22.0083 154.496 22.0774 154.102 22.0774V24.0774ZM155.821 23.704C156.326 23.4446 156.736 23.0646 157.014 22.5655L155.266 21.5921C155.194 21.7228 155.086 21.8331 154.908 21.9246L155.821 23.704ZM157.016 22.5603C157.285 22.0713 157.403 21.5295 157.403 20.9656H155.403C155.403 21.2472 155.346 21.4477 155.264 21.5974L157.016 22.5603ZM157.403 20.9656C157.403 20.4 157.286 19.8547 157.011 19.367L155.269 20.3511C155.345 20.4841 155.403 20.6764 155.403 20.9656H157.403ZM157.014 19.3723C156.734 18.8709 156.322 18.491 155.811 18.2359L154.917 20.0248C155.09 20.1115 155.195 20.2174 155.266 20.3457L157.014 19.3723ZM155.811 18.2359C155.295 17.9776 154.711 17.8739 154.102 17.8739V19.8739C154.492 19.8739 154.75 19.9412 154.917 20.0248L155.811 18.2359ZM154.102 17.8739H152.456V19.8739H154.102V17.8739ZM151.456 18.8739V30H153.456V18.8739H151.456ZM152.456 29H149.116V31H152.456V29ZM174.626 26.957L173.751 26.473L174.626 26.957ZM172.251 29.3658L171.769 28.4894L171.768 28.4903L172.251 29.3658ZM165.551 29.359L166.037 28.4852L165.551 29.359ZM163.183 26.9503L162.306 27.4315L162.309 27.4359L163.183 26.9503ZM163.183 19.2248L162.308 18.7407L162.306 18.7436L163.183 19.2248ZM165.551 16.8161L166.034 17.6915L165.551 16.8161ZM172.251 16.8161L171.768 17.6915L171.769 17.6924L172.251 16.8161ZM174.626 19.2248L173.751 19.7088L174.626 19.2248ZM171.704 20.8104L170.778 21.1864L170.78 21.1921L171.704 20.8104ZM170.611 19.4002L170.051 20.2286L170.055 20.2311L170.611 19.4002ZM167.197 19.4002L167.754 20.2311V20.2311L167.197 19.4002ZM166.097 20.8104L165.173 20.4286L165.171 20.4344L166.097 20.8104ZM166.097 25.3714L165.171 25.7475L165.173 25.7532L166.097 25.3714ZM167.197 26.7816L167.754 25.9508L167.197 26.7816ZM170.611 26.7816L170.055 25.9508L170.051 25.9532L170.611 26.7816ZM171.704 25.3714L170.78 24.9897L170.778 24.9954L171.704 25.3714ZM174.503 23.0909C174.503 24.4849 174.235 25.5976 173.751 26.473L175.501 27.4411C176.186 26.2023 176.503 24.7376 176.503 23.0909H174.503ZM173.751 26.473C173.252 27.3751 172.592 28.0372 171.769 28.4894L172.732 30.2421C173.907 29.5968 174.83 28.653 175.501 27.4411L173.751 26.473ZM171.768 28.4903C170.935 28.9502 169.988 29.1889 168.904 29.1889V31.1889C170.295 31.1889 171.579 30.8789 172.734 30.2412L171.768 28.4903ZM168.904 29.1889C167.817 29.1889 166.869 28.9483 166.037 28.4852L165.065 30.2328C166.221 30.8763 167.509 31.1889 168.904 31.1889V29.1889ZM166.037 28.4852C165.216 28.028 164.557 27.3641 164.057 26.4646L162.309 27.4359C162.978 28.6416 163.898 29.5835 165.065 30.2328L166.037 28.4852ZM164.059 26.4691C163.578 25.5927 163.312 24.481 163.312 23.0909H161.312C161.312 24.7325 161.627 26.1937 162.306 27.4315L164.059 26.4691ZM163.312 23.0909C163.312 21.6957 163.578 20.582 164.059 19.706L162.306 18.7436C161.626 19.9817 161.312 21.4454 161.312 23.0909H163.312ZM164.058 19.7088C164.557 18.8055 165.216 18.1434 166.034 17.6915L165.068 15.9406C163.898 16.5862 162.977 17.5299 162.308 18.7407L164.058 19.7088ZM166.034 17.6915C166.867 17.2319 167.816 16.9929 168.904 16.9929V14.9929C167.51 14.9929 166.223 15.3027 165.068 15.9406L166.034 17.6915ZM168.904 16.9929C169.988 16.9929 170.935 17.2316 171.768 17.6915L172.734 15.9406C171.579 15.303 170.295 14.9929 168.904 14.9929V16.9929ZM171.769 17.6924C172.592 18.1447 173.252 18.8067 173.751 19.7088L175.501 18.7407C174.83 17.5288 173.907 16.585 172.732 15.9397L171.769 17.6924ZM173.751 19.7088C174.235 20.5842 174.503 21.6969 174.503 23.0909H176.503C176.503 21.4442 176.186 19.9795 175.501 18.7407L173.751 19.7088ZM173.089 23.0909C173.089 22.1023 172.949 21.2039 172.629 20.4286L170.78 21.1921C170.973 21.6583 171.089 22.2803 171.089 23.0909H173.089ZM172.631 20.4344C172.317 19.6602 171.837 19.0176 171.168 18.5694L170.055 20.2311C170.339 20.4215 170.588 20.7191 170.778 21.1864L172.631 20.4344ZM171.171 18.5718C170.507 18.1228 169.735 17.9212 168.904 17.9212V19.9212C169.405 19.9212 169.771 20.0389 170.051 20.2286L171.171 18.5718ZM168.904 17.9212C168.076 17.9212 167.306 18.1236 166.641 18.5694L167.754 20.2311C168.042 20.038 168.41 19.9212 168.904 19.9212V17.9212ZM166.641 18.5694C165.973 19.0165 165.492 19.6569 165.173 20.4286L167.022 21.1921C167.216 20.7223 167.468 20.4227 167.754 20.2311L166.641 18.5694ZM165.171 20.4344C164.857 21.2078 164.72 22.104 164.72 23.0909H166.72C166.72 22.2786 166.834 21.6544 167.024 21.1864L165.171 20.4344ZM164.72 23.0909C164.72 24.0778 164.857 24.974 165.171 25.7475L167.024 24.9954C166.834 24.5274 166.72 23.9033 166.72 23.0909H164.72ZM165.173 25.7532C165.492 26.5249 165.973 27.1653 166.641 27.6124L167.754 25.9508C167.468 25.7592 167.216 25.4595 167.022 24.9897L165.173 25.7532ZM166.641 27.6124C167.306 28.0582 168.076 28.2607 168.904 28.2607V26.2607C168.41 26.2607 168.042 26.1438 167.754 25.9508L166.641 27.6124ZM168.904 28.2607C169.735 28.2607 170.507 28.059 171.171 27.61L170.051 25.9532C169.771 26.143 169.405 26.2607 168.904 26.2607V28.2607ZM171.168 27.6124C171.837 27.1642 172.317 26.5216 172.631 25.7475L170.778 24.9954C170.588 25.4628 170.339 25.7603 170.055 25.9508L171.168 27.6124ZM172.629 25.7532C172.949 24.9779 173.089 24.0796 173.089 23.0909H171.089C171.089 23.9015 170.973 24.5235 170.78 24.9897L172.629 25.7532ZM178.403 30H177.403V31H178.403V30ZM178.403 16.1818V15.1818H177.403V16.1818H178.403ZM181.743 16.1818H182.743V15.1818H181.743V16.1818ZM181.743 27.2876H180.743V28.2876H181.743V27.2876ZM187.491 27.2876H188.491V26.2876H187.491V27.2876ZM187.491 30V31H188.491V30H187.491ZM179.403 30V16.1818H177.403V30H179.403ZM178.403 17.1818H181.743V15.1818H178.403V17.1818ZM180.743 16.1818V27.2876H182.743V16.1818H180.743ZM181.743 28.2876H187.491V26.2876H181.743V28.2876ZM186.491 27.2876V30H188.491V27.2876H186.491ZM187.491 29H178.403V31H187.491V29ZM193.51 16.1818H194.51V15.1818H193.51V16.1818ZM193.51 30V31H194.51V30H193.51ZM190.17 30H189.17V31H190.17V30ZM190.17 16.1818V15.1818H189.17V16.1818H190.17ZM192.51 16.1818V30H194.51V16.1818H192.51ZM193.51 29H190.17V31H193.51V29ZM191.17 30V16.1818H189.17V30H191.17ZM190.17 17.1818H193.51V15.1818H190.17V17.1818ZM195.869 16.1818V15.1818H194.179L194.992 16.6631L195.869 16.1818ZM199.6 16.1818L200.492 15.7309L200.215 15.1818H199.6V16.1818ZM202.521 21.9641L201.629 22.4151L201.906 22.9641H202.521V21.9641ZM202.643 21.9641V22.9641H203.258L203.535 22.4151L202.643 21.9641ZM205.564 16.1818V15.1818H204.949L204.672 15.7309L205.564 16.1818ZM209.295 16.1818L210.172 16.6631L210.985 15.1818H209.295V16.1818ZM204.242 25.3849L203.365 24.9036L203.242 25.1284V25.3849H204.242ZM204.242 30V31H205.242V30H204.242ZM200.922 30H199.922V31H200.922V30ZM200.922 25.3849H201.922V25.1284L201.799 24.9036L200.922 25.3849ZM195.869 17.1818H199.6V15.1818H195.869V17.1818ZM198.707 16.6328L201.629 22.4151L203.414 21.5132L200.492 15.7309L198.707 16.6328ZM202.521 22.9641H202.643V20.9641H202.521V22.9641ZM203.535 22.4151L206.457 16.6328L204.672 15.7309L201.75 21.5132L203.535 22.4151ZM205.564 17.1818H209.295V15.1818H205.564V17.1818ZM208.419 15.7005L203.365 24.9036L205.118 25.8663L210.172 16.6631L208.419 15.7005ZM203.242 25.3849V30H205.242V25.3849H203.242ZM204.242 29H200.922V31H204.242V29ZM201.922 30V25.3849H199.922V30H201.922ZM201.799 24.9036L196.745 15.7005L194.992 16.6631L200.046 25.8663L201.799 24.9036Z" fill="#6ECFF9"/>
</g>
<defs>
<filter id="filter0_di_2_65" x="46.8229" y="11.9929" width="167.473" height="24.196" filterUnits="userSpaceOnUse" color-interpolation-filters="sRGB">
<feFlood flood-opacity="0" result="BackgroundImageFix"/>
<feColorMatrix in="SourceAlpha" type="matrix" values="0 0 0 0 0 0 0 0 0 0 0 0 0 0 0 0 0 0 127 0" result="hardAlpha"/>
<feOffset dy="1"/>
<feGaussianBlur stdDeviation="2.5"/>
<feComposite in2="hardAlpha" operator="out"/>
<feColorMatrix type="matrix" values="0 0 0 0 0.784314 0 0 0 0 0.980392 0 0 0 0 1 0 0 0 0.38 0"/>
<feBlend mode="normal" in2="BackgroundImageFix" result="effect1_dropShadow_2_65"/>
<feBlend mode="normal" in="SourceGraphic" in2="effect1_dropShadow_2_65" result="shape"/>
<feColorMatrix in="SourceAlpha" type="matrix" values="0 0 0 0 0 0 0 0 0 0 0 0 0 0 0 0 0 0 127 0" result="hardAlpha"/>
<feOffset dy="4"/>
<feGaussianBlur stdDeviation="2"/>
<feComposite in2="hardAlpha" operator="arithmetic" k2="-1" k3="1"/>
<feColorMatrix type="matrix" values="0 0 0 0 0.784314 0 0 0 0 0.980392 0 0 0 0 1 0 0 0 1 0"/>
<feBlend mode="normal" in2="shape" result="effect2_innerShadow_2_65"/>
</filter>
<radialGradient id="paint0_radial_2_65" cx="0" cy="0" r="1" gradientUnits="userSpaceOnUse" gradientTransform="translate(136.717 279.48) scale(385.232 420.274)">
<stop offset="0.4535" stop-color="white"/>
<stop offset="0.5465" stop-color="#3771A8"/>
<stop offset="0.5699" stop-color="#5F8DB9"/>
<stop offset="0.6026" stop-color="#8FB0CE"/>
<stop offset="0.6351" stop-color="#B7CCE0"/>
<stop offset="0.6668" stop-color="#D7E2ED"/>
<stop offset="0.6974" stop-color="#EDF2F7"/>
<stop offset="0.7266" stop-color="#FAFCFD"/>
<stop offset="0.7528" stop-color="white"/>
</radialGradient>
<linearGradient id="paint1_linear_2_65" x1="-0.022408" y1="53.5021" x2="29.4755" y2="53.5021" gradientUnits="userSpaceOnUse">
<stop stop-color="#3C7CDC"/>
<stop offset="1" stop-color="#000080"/>
</linearGradient>
<linearGradient id="paint2_linear_2_65" x1="30.9264" y1="58.6859" x2="47.5286" y2="58.6859" gradientUnits="userSpaceOnUse">
<stop stop-color="#3C7CDC"/>
<stop offset="1" stop-color="#000080"/>
</linearGradient>
<radialGradient id="paint3_radial_2_65" cx="0" cy="0" r="1" gradientUnits="userSpaceOnUse" gradientTransform="translate(-45.3569 60.0686) scale(222.198 242.41)">
<stop offset="0.0159349" stop-color="#1B41CB"/>
<stop offset="0.0254425" stop-color="#1B41CB"/>
<stop offset="0.180733" stop-color="#2946E0"/>
<stop offset="0.339193" stop-color="#3451E7"/>
<stop offset="0.542022" stop-color="#000080"/>
<stop offset="0.877957" stop-color="#000080"/>
</radialGradient>
<linearGradient id="paint4_linear_2_65" x1="4.90384" y1="54.9132" x2="23.4015" y2="48.0629" gradientUnits="userSpaceOnUse">
<stop stop-color="#2286C7"/>
<stop offset="0.2004" stop-color="#75B6DE"/>
<stop offset="0.3765" stop-color="#B7DCF0"/>
<stop offset="0.5034" stop-color="#E0F3FB"/>
<stop offset="0.5688" stop-color="#F0FCFF"/>
<stop offset="0.6152" stop-color="#EAF8FE"/>
<stop offset="0.677" stop-color="#D9ECF9"/>
<stop offset="0.7474" stop-color="#BED8F3"/>
<stop offset="0.8242" stop-color="#97BCE9"/>
<stop offset="0.9052" stop-color="#6699DD"/>
<stop offset="0.9294" stop-color="#568ED9"/>
</linearGradient>
<linearGradient id="paint5_linear_2_65" x1="231.748" y1="53.5021" x2="261.246" y2="53.5021" gradientUnits="userSpaceOnUse">
<stop stop-color="#3C7CDC"/>
<stop offset="1" stop-color="#000080"/>
</linearGradient>
<linearGradient id="paint6_linear_2_65" x1="213.705" y1="58.6859" x2="230.307" y2="58.6859" gradientUnits="userSpaceOnUse">
<stop stop-color="#3C7CDC"/>
<stop offset="1" stop-color="#000080"/>
</linearGradient>
<linearGradient id="paint7_linear_2_65" x1="238.275" y1="46.9425" x2="256.773" y2="53.7928" gradientUnits="userSpaceOnUse">
<stop offset="0.0706" stop-color="#568ED9"/>
<stop offset="0.0948" stop-color="#6699DD"/>
<stop offset="0.1758" stop-color="#97BCE9"/>
<stop offset="0.2526" stop-color="#BED8F3"/>
<stop offset="0.323" stop-color="#D9ECF9"/>
<stop offset="0.3848" stop-color="#EAF8FE"/>
<stop offset="0.4312" stop-color="#F0FCFF"/>
<stop offset="0.4966" stop-color="#E0F3FB"/>
<stop offset="0.6235" stop-color="#B7DCF0"/>
<stop offset="0.7996" stop-color="#75B6DE"/>
<stop offset="1" stop-color="#2286C7"/>
</linearGradient>
<linearGradient id="paint8_linear_2_65" x1="18.697" y1="29.0506" x2="130.631" y2="29.0506" gradientUnits="userSpaceOnUse">
<stop stop-color="#6E9CC7"/>
<stop offset="0.0669" stop-color="#E1F1FF"/>
<stop offset="0.1766" stop-color="#B2D3DE"/>
<stop offset="1" stop-color="white"/>
</linearGradient>
<radialGradient id="paint9_radial_2_65" cx="0" cy="0" r="1" gradientUnits="userSpaceOnUse" gradientTransform="translate(315.213 8) rotate(-180) scale(224 244.298)">
<stop stop-color="#1B41CB"/>
<stop offset="0.172929" stop-color="#1B41CB"/>
<stop offset="0.295533" stop-color="#3451E7"/>
<stop offset="0.377269" stop-color="#2946E0"/>
<stop offset="0.534455" stop-color="#000080"/>
<stop offset="0.8369" stop-color="#000080"/>
</radialGradient>
<linearGradient id="paint10_linear_2_65" x1="130.63" y1="29.0506" x2="242.563" y2="29.0506" gradientUnits="userSpaceOnUse">
<stop stop-color="white"/>
<stop offset="0.8234" stop-color="#B2D3DE"/>
<stop offset="0.9331" stop-color="#E1F1FF"/>
<stop offset="1" stop-color="#6E9CC7"/>
</linearGradient>
</defs>
</svg>
