<svg width="129" height="63" viewBox="0 0 129 63" fill="none" xmlns="http://www.w3.org/2000/svg">
<path d="M128.989 31.6375C128.989 31.7444 128.989 31.8417 128.97 31.9389C128.82 33.9612 128.091 35.8668 126.987 37.7238C125.883 39.6391 124.405 41.5155 122.778 43.4503C121.749 44.6656 120.682 45.8615 119.56 47.0477C119.485 47.1157 119.429 47.2032 119.335 47.2713C116.772 49.945 113.928 52.5214 110.767 55.0007C109.663 55.8854 108.409 56.7702 106.988 57.5868C105.117 58.6952 102.947 59.7161 100.496 60.4939C94.7522 62.3509 87.3623 62.6231 80.6646 62.837C73.1812 63.0509 65.6417 63.0509 58.1396 62.8565C50.9929 62.6814 43.8275 62.5648 37.0738 61.1647C29.8336 59.6675 23.9029 56.9257 19.1136 53.902C19.0949 53.8826 19.0574 53.8729 19.0387 53.8534C15.5215 51.6172 12.472 49.138 9.79671 46.6782C9.02966 45.9879 8.30003 45.3073 7.5891 44.6268C7.12139 44.1698 6.65368 43.7226 6.20467 43.2753C5.64341 42.7211 5.13828 42.1767 4.63315 41.6225C2.27588 38.9488 0.760486 36.2362 0.217938 33.5042C-0.0813983 31.9292 -0.0813983 30.3638 0.274064 28.7791C0.479858 27.904 0.779194 27.029 1.19078 26.154C1.6772 25.1331 2.332 24.1025 3.11776 23.0622C3.34226 22.79 3.54806 22.4983 3.79127 22.2261C4.48349 21.3122 5.21312 20.4177 5.99888 19.5232C6.42917 19.0274 6.85947 18.551 7.28977 18.0551C8.18778 17.0537 9.16062 16.0523 10.1896 15.0703C10.8631 14.4189 11.574 13.7772 12.3224 13.1453C13.2391 12.3286 14.2119 11.5411 15.2409 10.7535C15.297 10.6952 15.3531 10.6563 15.428 10.598C15.9331 10.2091 16.4569 9.82017 16.9808 9.441C17.4298 9.1396 17.8601 8.82848 18.3278 8.52708C18.3839 8.46875 18.4775 8.42013 18.5523 8.3618C22.4811 5.68811 27.1582 3.32554 33.7436 2.17828C47.7376 -0.271788 62.2929 -0.232898 77.4468 0.282395C83.5458 0.49629 90.337 1.08936 95.1451 3.07275C105.154 7.23399 113.891 12.0855 120.832 17.5496C120.925 17.6079 121 17.6662 121.075 17.7246C123.807 19.8635 125.864 22.2164 127.193 24.6567C127.193 24.6664 127.212 24.6762 127.212 24.6956C127.473 25.1526 127.679 25.6095 127.866 26.0665C128.016 26.4165 128.147 26.7665 128.278 27.1165C128.278 27.136 128.297 27.1457 128.297 27.1651C128.297 27.1651 128.297 27.1651 128.297 27.1749C128.633 28.1471 128.839 29.1388 128.951 30.1305C129.008 30.6555 129.008 31.1514 128.989 31.6375Z" fill="url(#paint0_linear_140_57)"/>
<path d="M122.46 31.6182C122.46 31.7154 122.46 31.8029 122.442 31.8904C122.311 33.6891 121.637 35.3905 120.664 37.0433C119.673 38.7448 118.345 40.4268 116.885 42.1477C115.969 43.2269 114.996 44.2963 113.985 45.3561C113.929 45.4241 113.855 45.4922 113.78 45.5505C111.479 47.9326 108.915 50.2271 106.09 52.4341C105.099 53.2216 103.958 54.0091 102.686 54.7383C101.002 55.7203 99.0561 56.6342 96.8485 57.3342C91.6849 58.987 85.0434 59.2301 79.0192 59.4148C72.2841 59.6093 65.5304 59.6093 58.7766 59.4343C52.3595 59.2787 45.9051 59.1718 39.8435 57.9273C33.333 56.5953 28.001 54.155 23.6981 51.4521C23.6794 51.4327 23.6606 51.4327 23.6419 51.4132C20.4802 49.4201 17.73 47.2131 15.3353 45.0158C14.6431 44.4033 13.9883 43.7908 13.3522 43.188C12.9219 42.7796 12.5104 42.381 12.1175 41.9921C11.6123 41.4963 11.1446 41.0101 10.7143 40.524C8.60027 38.142 7.23455 35.7308 6.74813 33.3002C6.4675 31.9001 6.4675 30.5001 6.78554 29.0903C6.97263 28.3125 7.25326 27.5347 7.60872 26.7569C8.05773 25.8527 8.63769 24.9291 9.32991 24.0055C9.5357 23.7624 9.70408 23.4999 9.92858 23.2568C10.5647 22.4499 11.2195 21.6429 11.9117 20.8456C12.2859 20.4081 12.6787 19.9803 13.0716 19.5428C13.8761 18.6484 14.7554 17.7636 15.6721 16.8886C16.2895 16.3052 16.9069 15.7316 17.5804 15.1677C18.4035 14.4482 19.2828 13.7385 20.1996 13.0385C20.237 12.9899 20.3118 12.951 20.3679 12.9024C20.8357 12.5523 21.2847 12.2121 21.7524 11.8718C22.1453 11.5898 22.5381 11.3079 22.9497 11.0356C23.0058 10.987 23.0807 10.9384 23.1555 10.8898C26.6914 8.50778 30.8821 6.40772 36.794 5.37714C49.441 3.20902 62.5183 3.23819 76.1381 3.69514C81.6197 3.88959 87.7187 4.41461 92.0591 6.18411C101.058 9.88838 108.897 14.2149 115.145 19.0762C115.22 19.1345 115.295 19.1831 115.351 19.2317C117.802 21.1373 119.654 23.2277 120.852 25.4055C120.852 25.4152 120.87 25.4249 120.87 25.4347C121.095 25.843 121.301 26.2416 121.469 26.6597C121.6 26.9708 121.731 27.2819 121.843 27.6028C121.843 27.6222 121.862 27.6222 121.862 27.6417C121.862 27.6417 121.862 27.6417 121.862 27.6514C122.161 28.5167 122.348 29.4015 122.442 30.2862C122.46 30.7432 122.46 31.1904 122.46 31.6182Z" fill="url(#paint1_linear_140_57)"/>
<path d="M115.351 19.2413C117.802 21.1469 119.654 23.2372 120.852 25.415C120.571 25.1234 120.253 24.8414 119.972 24.5789C119 23.6358 117.952 22.6927 116.867 21.7788C114.771 20.0385 112.47 18.3565 110.001 16.762C108.953 16.0814 107.7 15.4689 107.101 14.6328C106.577 13.9328 105.473 13.3883 104.482 12.8633C101.152 11.0938 97.2228 9.70347 93.5934 8.1187C91.498 7.20479 89.4401 6.22281 86.9893 5.60057C84.5759 4.99778 81.8818 4.78388 79.2252 4.7061C78.2524 4.67693 77.2795 4.66721 76.3067 4.65749C75.9138 4.65749 75.5209 4.66721 75.1468 4.58943C74.7165 4.52137 74.2675 4.51165 73.8185 4.48248C72.5837 4.41443 71.3489 4.35609 70.1142 4.30748C59.8245 3.90886 49.4038 4.36581 39.376 5.65891C37.5426 5.90197 35.6905 6.16448 34.0067 6.63116C33.7635 6.69922 33.539 6.777 33.2958 6.84505C31.7243 7.35062 30.3398 8.00203 28.918 8.61455C28.207 8.92567 27.4961 9.22707 26.7291 9.4993C26.4297 9.60625 26.1304 9.69375 25.7936 9.77153C25.2511 9.90764 24.9518 10.1993 24.6337 10.4521C23.9415 10.9966 23.5112 11.5702 22.9874 12.1535C22.8938 12.2508 22.819 12.3188 22.7816 12.4355C22.6506 12.7466 22.5571 13.0675 22.4261 13.3786C21.6778 13.3591 20.9294 13.2522 20.2933 13.048C20.3308 12.9994 20.4056 12.9605 20.4617 12.9119C20.9294 12.5619 21.3784 12.2216 21.8461 11.8813C22.239 11.5994 22.6319 11.3174 23.0435 11.0452C23.0996 10.9966 23.1744 10.948 23.2493 10.8993C26.7852 8.51732 30.9759 6.41726 36.8878 5.38668C49.4412 3.20884 62.5185 3.238 76.1383 3.69496C81.6199 3.88941 87.7189 4.41443 92.0593 6.18392C101.133 9.92709 109.065 14.3119 115.351 19.2413Z" fill="#DEFCFF"/>
<path d="M121.824 27.6121C121.786 27.7191 121.749 27.8066 121.693 27.9135C121.562 27.5149 121.375 27.1163 121.45 26.7177V26.6788C121.599 26.9899 121.712 27.301 121.824 27.6121Z" fill="#DEFCFF"/>
<path d="M117.015 29.5857C117.108 29.7121 117.314 29.8288 117.501 29.926C118.137 30.276 118.774 30.626 119.41 30.976C119.634 31.1024 119.896 31.1705 120.139 31.2872C120.626 31.5108 120.962 31.89 121.224 32.1913C121.468 32.4539 121.542 32.5414 121.486 32.8233C121.43 33.0469 121.393 33.2705 121.318 33.4942C121.206 33.9414 121.075 34.3886 120.925 34.8359C120.626 35.7303 120.251 36.6151 119.802 37.4901C118.923 39.2402 117.745 40.9513 116.323 42.6042C116.304 42.6236 116.285 42.6333 116.285 42.6528C116.622 42.2639 117.09 41.9041 117.445 41.525C117.819 41.1361 118.175 40.7374 118.512 40.3388C119.185 39.5416 119.784 38.7249 120.308 37.8887C121.355 36.2262 122.066 34.515 122.44 32.7747C122.534 32.3761 122.59 31.9775 122.646 31.5691C122.665 31.3844 122.74 31.1705 122.702 30.9858C122.665 30.801 122.609 30.6163 122.59 30.4316C122.478 29.4788 122.253 28.5357 121.898 27.6023C120.551 28.0107 119.204 28.4287 117.876 28.8371C117.464 28.9635 116.996 29.1385 116.959 29.3913C116.94 29.4496 116.959 29.5177 117.015 29.5857Z" fill="#DEFCFF"/>
<path d="M14.2482 18.2204C13.5934 18.8718 12.9948 19.5427 12.4896 20.233C11.9658 20.9233 11.311 21.5844 10.731 22.2747C10.2633 22.8483 9.79559 23.4219 9.3653 24.0053C8.65437 24.9289 8.07441 25.8526 7.64411 26.7568C5.41779 31.4138 6.7461 36.032 10.731 40.5238C11.18 41.0197 11.629 41.5058 12.1342 41.9919C13.1444 42.9836 14.2108 44.0045 15.3707 45.0254C17.7841 47.2324 20.5343 49.4588 23.7335 51.4617C28.0364 54.1548 33.3684 56.5951 39.8789 57.9368C45.9405 59.1813 52.3762 59.2786 58.812 59.4438C65.5658 59.6188 72.3195 59.6188 79.0546 59.4244C85.0788 59.2397 91.7203 58.9966 96.8839 57.3438C100.719 56.1187 103.769 54.2909 106.107 52.4436C107.23 51.5686 108.296 50.6839 109.344 49.7797C109.886 49.313 110.41 48.8463 110.915 48.3796C111.308 48.0102 111.645 47.6115 112.15 47.281C112.468 47.0671 112.73 46.8435 112.973 46.6101C113.516 46.0948 113.946 45.5406 114.245 44.967C114.227 45.0059 113.609 45.0448 113.516 45.0448C113.254 45.0642 112.992 45.0837 112.73 45.0837C112.543 45.0837 112.393 45.0642 112.206 45.0448C111.963 45.0254 111.72 45.0448 111.477 45.0545C109.4 45.1615 107.323 45.2879 105.228 45.3851C107.305 45.5893 109.344 45.8518 111.346 46.1921C111.14 47.7574 109.475 49.1574 107.791 50.4602C105.022 52.6089 101.973 54.777 97.6509 56.0604C95.1252 56.8188 92.2815 57.2368 89.4379 57.5674C78.9611 58.7924 68.1288 58.9285 57.4088 58.5883C52.264 58.423 47.0817 58.141 42.1427 57.3535C39.6918 56.9646 37.3346 56.4493 35.1082 55.7785C33.5554 55.302 32.0775 54.7576 30.7304 54.1256C30.1318 53.8437 29.6079 53.4742 28.897 53.2798C28.7286 53.2312 28.5977 53.1923 28.448 53.1339C27.6061 52.7839 26.8578 52.3659 26.1094 51.9672C24.5192 51.1019 23.0412 50.1783 21.6755 49.206C20.2911 48.2143 18.8131 47.2518 17.6532 46.1823C17.3913 45.949 16.9984 45.7254 17.0358 45.4434C17.0545 45.2684 17.1106 45.1031 17.2416 44.9379C17.5222 44.5976 18.0835 44.3351 18.6634 44.1309C19.5802 43.8295 20.6465 43.6253 21.4136 43.217C21.3201 43.2656 20.2724 43.11 20.1227 43.1003C19.6737 43.0517 19.2247 43.0128 18.7757 42.9545C17.8777 42.8572 16.9797 42.7406 16.1004 42.6239C15.7449 42.5753 15.4269 42.5267 15.0527 42.5364C14.7721 42.5461 14.5476 42.5364 14.2856 42.4781C13.5934 42.3128 13.2005 41.9628 12.9012 41.6128C12.8451 41.5544 12.789 41.4864 12.7328 41.428C12.3774 41.0002 12.0032 40.5627 11.6477 40.1349C10.2072 38.414 9.04725 36.5959 8.67308 34.7195C8.61695 34.4084 8.48599 34.0389 8.56083 33.7278C8.59825 33.5722 8.84146 33.407 8.97242 33.2708C9.30917 32.9306 9.64592 32.5903 9.98268 32.25C10.0762 32.1528 10.1885 32.0458 10.1511 31.9291C10.0949 31.7152 9.62722 31.6083 9.21563 31.5694C8.82275 31.5402 8.54212 31.4722 8.16795 31.4041C8.01828 31.375 7.8312 31.4041 7.73765 31.3458C7.58798 31.2486 7.68153 30.9472 7.68153 30.8402C7.68153 30.4416 7.73765 30.043 7.77507 29.6346C7.8499 29.0902 8.07441 28.536 7.98086 28.0012C7.8499 27.3207 8.44858 26.5429 8.80404 25.9109C9.23434 25.1623 9.75818 24.4331 10.3194 23.7039C10.6749 23.2567 11.0491 22.8191 11.4419 22.3816C11.6103 22.1872 11.76 21.9733 12.0032 21.7983C12.1342 21.7011 12.3025 21.6233 12.4148 21.5163C12.7515 21.176 12.9573 20.7969 13.238 20.4371C13.8179 19.7177 14.454 19.0176 15.2585 18.3565C15.3146 18.3176 15.352 18.2787 15.4082 18.2398C16.7739 17.1704 18.6634 16.2467 21.002 15.8481C21.7129 15.7314 22.4613 15.6148 23.2096 15.6828C23.5651 15.712 23.9018 15.7314 24.276 15.6925C25.4359 15.5759 26.5772 15.362 27.6997 15.1578C28.2235 15.0606 28.7473 14.9536 29.2712 14.8467C27.1197 14.2925 24.9682 13.7383 22.8167 13.1841C22.2555 13.2814 21.6942 13.4175 21.1891 13.573C21.0207 13.6217 20.871 13.68 20.7027 13.7286C20.5904 13.7578 20.4595 13.7772 20.3285 13.8161C19.9543 13.9328 19.655 14.1856 19.3744 14.3606C18.9628 14.6036 18.5512 14.8467 18.1583 15.0995C17.9525 15.2259 17.7467 15.3425 17.5409 15.4689C17.4287 15.5564 17.3538 15.6342 17.2416 15.7412C16.9423 16.0037 16.5681 16.237 16.25 16.4898C15.932 16.7426 15.6139 16.9954 15.3146 17.2579C14.9404 17.569 14.585 17.8996 14.2482 18.2204Z" fill="#DEFCFF"/>
<path d="M117.183 29.6053C117.202 29.6831 117.389 29.722 117.539 29.7512C118.231 29.8581 118.942 29.9651 119.634 30.0623C120.158 30.1401 120.813 30.179 121.224 30.3734C122.085 30.772 122.815 31.1512 122.833 31.754C122.833 31.7248 122.833 31.7054 122.852 31.6859C122.964 31.4526 122.777 31.297 122.983 31.0734C123.114 30.9276 123.245 30.772 123.395 30.6262C123.675 30.3345 123.937 30.0331 124.049 29.7123C124.255 29.1581 123.881 28.4678 122.852 28.2831C122.235 28.1761 121.542 28.2733 120.944 28.4095C120.57 28.497 120.214 28.5942 119.84 28.6817C119.559 28.74 119.297 28.7497 118.998 28.7886C118.381 28.8664 117.763 29.2553 117.333 29.4789C117.239 29.5081 117.165 29.547 117.183 29.6053Z" fill="url(#paint2_linear_140_57)"/>
<path d="M14.4928 44.014C14.3993 43.9946 14.3058 43.9751 14.2309 43.9362C13.8006 43.732 13.5574 43.3529 13.2768 43.0904C12.9026 42.7306 12.5097 42.3612 12.1356 41.9917C11.6304 41.4959 11.1627 41.0097 10.7324 40.5236C10.8634 40.5917 10.9943 40.6403 11.1066 40.6889C13.1832 41.6223 15.7837 42.2056 18.1971 42.8667C18.4029 42.9251 18.6274 42.9834 18.7584 43.0806C18.9081 43.1779 18.9642 43.314 18.8332 43.4209C18.721 43.5182 18.4965 43.5473 18.272 43.5765C17.4675 43.6834 16.6817 43.7904 15.8773 43.8973C15.4844 43.9654 14.9231 44.0918 14.4928 44.014Z" fill="url(#paint3_linear_140_57)"/>
<path d="M114.583 43.2947C111.627 44.3934 107.773 44.8795 104.069 45.3268C107.343 45.317 110.635 45.3365 113.909 45.3754C113.517 45.667 113.386 46.0365 113.573 46.3671C114.227 45.5893 114.882 44.8115 115.518 44.0337C116.154 43.2753 116.66 42.4683 117.445 41.7489C117.427 42.0017 116.603 42.3614 116.248 42.5558C115.743 42.8281 115.182 43.0711 114.583 43.2947Z" fill="url(#paint4_linear_140_57)"/>
<path d="M26.7471 14.4091C26.6349 14.5064 26.5226 14.6036 26.3917 14.7008C25.4937 14.7689 24.6144 14.8466 23.7164 14.905C23.1177 14.9439 22.65 14.8661 22.07 14.8175C21.3591 14.7689 20.6856 14.9244 20.1243 15.1189C19.3386 15.3814 18.5902 15.6536 17.8045 15.9258C17.0187 16.2078 16.3265 16.5189 15.7091 16.8884C17.1497 15.5175 18.7025 14.1952 20.4049 12.9021C20.8727 12.5521 21.3217 12.2118 21.7894 11.8716C21.7707 11.9396 21.752 11.9979 21.7707 12.066C21.9765 12.9313 23.2299 13.291 24.4834 13.6994C25.2505 13.9327 25.9988 14.1758 26.7471 14.4091Z" fill="url(#paint5_linear_140_57)"/>
<path d="M6.61613 29.5665C6.59743 29.6832 6.48517 29.7902 6.48517 29.9263C6.48517 30.1013 6.59743 30.2666 6.74709 30.4221C6.80322 30.4805 6.85935 30.5291 6.91547 30.5874C6.99031 30.6652 7.08385 30.7527 7.1961 30.8207C7.43931 30.9666 7.79477 31.0055 8.15024 31.0346C9.45983 31.1513 10.732 31.3263 11.9481 31.618C11.8545 31.5985 11.2933 31.7638 11.181 31.7833C10.8817 31.8416 10.6011 31.8902 10.283 31.9291C9.70304 32.0069 9.10437 32.0555 8.5057 32.075C8.01928 32.0944 7.66381 32.0263 7.30835 32.2597C7.02772 32.4444 6.95289 32.6972 6.95289 32.9208C6.9716 33.2417 7.10256 33.5625 6.9716 33.8736C6.35422 32.4541 6.33551 31.0249 6.61613 29.5665Z" fill="url(#paint6_linear_140_57)"/>
<path d="M46.2605 51.2285C44.1652 52.4341 42.3504 53.7758 42.8556 55.2147C43.3794 56.7314 44.8013 57.9856 47.7572 58.1412C39.7874 58.8315 31.2002 56.4981 26.6914 53.0077C23.3613 50.441 19.3202 47.7965 15.9901 45.2297C20.9292 46.1242 26.5604 45.1325 30.5828 43.3922C34.6051 41.6518 37.3366 39.2601 39.9932 36.9072C46.8779 30.821 53.7627 24.7347 60.6661 18.6484C62.6492 16.908 64.6323 15.1385 65.68 13.1843C66.7277 11.2301 66.7464 9.05226 64.8568 7.28276C62.9673 5.51326 58.9075 4.29795 55.1284 4.76463C54.7355 4.81324 54.5484 3.98683 54.829 3.83127C55.091 3.67571 55.5587 3.67571 55.9703 3.68543C65.5303 3.99655 75.0904 4.31739 84.6505 4.62851C95.4266 4.98825 102.985 10.9384 109.552 15.4011C104.762 12.144 99.0186 16.2761 96.6239 18.0261C90.7682 22.2846 84.7253 26.4458 78.6076 30.5779C72.7518 34.535 66.8025 38.4531 60.7596 42.3324C57.1863 44.6269 53.5569 46.902 49.9274 49.1673C48.9358 49.7993 47.5514 50.4896 46.2605 51.2285Z" fill="url(#paint7_linear_140_57)"/>
<path d="M103.321 29.2267C102.591 27.1169 101.207 24.9196 99.3547 22.8293C97.6896 20.9529 95.5381 19.057 93.0499 17.4236C90.7862 15.9458 87.1567 15.0221 84.0511 14.1082C82.6854 13.7096 81.5254 13.1943 80.1036 12.8735C51.7414 6.30104 18.3841 19.0472 21.2465 34.506C21.7329 37.1019 23.3232 39.6298 25.8862 41.8951C32.9768 48.1662 45.9418 52.1621 60.1603 52.8621C65.4174 53.1149 70.768 52.9982 75.8941 52.3663C86.2961 51.0829 94.8085 47.6606 99.8785 42.9257C104.181 38.9103 104.892 33.6504 103.321 29.2267ZM90.5991 40.8548C86.8012 44.4133 80.3842 46.9897 72.5827 47.9523C68.7288 48.4287 64.7064 48.5162 60.7777 48.3217C50.1138 47.8064 40.3666 44.8022 35.016 40.0867C33.089 38.3756 31.8917 36.4797 31.5362 34.5352C31.424 33.9324 31.3865 33.3296 31.424 32.7171C31.4427 32.4546 31.5175 32.1824 31.4801 31.9101C31.4614 31.7643 31.3865 31.6379 31.3117 31.5018C31.0872 31.1032 31.1433 30.6365 31.3117 30.2379C31.4988 29.8003 31.9291 29.3725 32.6774 29.1392C33.2387 28.9545 33.9309 28.9059 34.5857 28.867C36.1385 28.7795 37.71 28.7503 39.2815 28.7698C37.2984 28.6142 35.3153 28.4489 33.3322 28.2933C33.2387 28.2836 33.987 27.0586 34.0806 26.9516C34.3986 26.5336 34.8663 26.1447 35.2405 25.7363C35.8579 25.0752 36.7559 24.453 37.5978 23.8696C39.3377 22.6737 41.3769 21.6043 43.6406 20.6806C45.9044 19.7473 48.4113 18.9695 51.0492 18.3667C53.7058 17.7639 56.4934 17.3361 59.3745 17.1125C62.2743 16.8888 65.2303 16.8888 68.1488 17.1125C70.7867 17.3166 73.3498 17.7055 75.7819 18.2694C76.8296 18.5222 77.7276 18.9014 78.7566 19.1931C81.0951 19.8834 83.8266 20.5834 85.5103 21.6918C87.3999 22.9168 88.9901 24.3363 90.2623 25.7461C91.6467 27.3211 92.6757 28.9642 93.237 30.549C93.8731 32.3476 93.9666 34.1171 93.1808 35.9061C89.1398 36.0227 85.08 36.0519 81.039 35.9839C84.7246 36.1977 88.4102 36.4019 92.0957 36.6158C93.2557 36.6839 92.6383 37.2283 92.3951 37.6075C92.1893 37.9381 92.077 38.2686 92.077 38.6187C92.077 38.9395 92.0209 39.2312 91.8151 39.5326C91.6655 39.7562 91.4784 39.9701 91.2726 40.1937C91.179 40.3006 91.0668 40.4173 90.9545 40.5243C90.861 40.6118 90.5991 40.7673 90.5991 40.8548Z" fill="url(#paint8_linear_140_57)"/>
<path d="M94.2665 46.085C97.6714 44.3349 99.9913 42.0793 101.357 39.707C102.723 37.3347 103.153 34.836 103.097 32.3568C103.097 31.9971 103.022 31.6276 102.779 31.2971C102.423 30.8304 101.75 30.6554 100.833 30.5387C99.4675 30.3637 98.083 30.1887 96.7173 30.0137C99.9539 30.0817 103.49 29.9942 106.726 29.9165C106.184 30.0137 105.641 30.1109 105.099 30.2081C104.968 30.2276 104.818 30.2567 104.725 30.3054C104.612 30.3637 104.556 30.4317 104.519 30.5095C104.313 30.9082 104.425 31.3359 104.481 31.754C104.594 32.4249 104.556 33.0957 104.481 33.7568C104.444 34.0874 104.388 34.418 104.332 34.7485C104.201 35.4777 103.92 36.1875 103.639 36.9069C103.116 38.2681 102.76 39.6487 102.049 40.9904C101.338 42.3321 100.197 43.6446 98.3262 44.6266C98.5508 44.9086 98.9623 45.1419 99.5049 45.2683C98.8501 45.2877 98.1579 45.3169 97.5966 45.4919C97.2786 45.5891 97.0166 45.735 96.7734 45.8711C95.8754 46.3669 94.9961 46.8628 94.0794 47.3489C93.7801 47.5045 93.462 47.6114 93.1066 47.7281C92.3208 47.9809 91.7783 48.4087 91.1422 48.749C88.2236 50.2851 84.351 51.2476 80.4035 51.9088C80.1041 51.9574 79.8048 52.006 79.5055 52.0546C76.774 52.4727 73.9864 52.7643 71.1427 52.9102C68.3177 53.056 65.4553 53.0755 62.6304 52.9491C61.2085 52.8907 59.8054 52.7935 58.4022 52.6574C57.71 52.5893 56.9991 52.5213 56.3069 52.4338C54.0993 52.1713 51.8729 51.9768 49.7028 51.6171C43.3419 50.5476 37.7667 48.5448 32.6406 46.3669C32.0232 46.1044 31.4058 45.8419 30.7884 45.5697C30.5265 45.453 30.1897 45.3266 29.9465 45.2002C29.7407 45.0933 29.5911 44.9572 29.3479 44.86C28.8989 44.6558 28.3376 44.5294 27.7576 44.4516C26.8409 44.3252 25.8681 44.3155 24.9139 44.2474C25.0449 44.0919 25.4004 44.0335 25.7184 44.0044C26.448 43.9266 27.1777 43.8877 27.9073 43.878C28.2628 43.8683 28.6556 43.8974 29.0111 43.878C29.3104 43.8585 29.5537 43.8488 29.8717 43.8683C31.3123 43.9363 32.7341 44.1113 34.1747 44.1988C35.0353 44.2474 35.9333 44.2669 36.7939 44.2085C34.7172 44.3058 32.6219 44.403 30.5265 44.4905C31.3123 45.4822 33.2579 46.085 35.1101 46.5711C35.4843 46.6683 35.8959 46.7558 36.2139 46.8822C36.3636 46.9406 36.4945 46.9989 36.6442 47.0572C36.9248 47.1739 37.2242 47.2906 37.5048 47.4072C38.0848 47.6406 38.6647 47.8739 39.2447 48.0975C40.4233 48.5448 41.6207 48.9823 42.8554 49.3809C44.5766 49.9351 46.41 50.4115 48.2996 50.8004C51.2181 51.3935 54.3238 51.7629 57.4668 51.8796C63.1355 52.0935 68.6358 52.4727 74.2484 52.0157C74.9032 51.9574 75.5767 51.9088 76.2315 51.831C80.6654 51.3449 84.669 50.1393 88.4107 48.8267C90.6932 48.0392 92.3208 47.0864 94.2665 46.085Z" fill="#DEFCFF"/>
<path d="M106.99 36.4476C107.035 37.2941 106.923 38.1192 106.699 38.9122C106.093 41.0232 104.659 42.9413 102.596 44.6559C102.596 44.6666 102.573 44.6773 102.551 44.688C93.5603 52.0605 72.5747 55.5645 54.6158 53.3356C43.428 51.9426 33.9889 48.2135 28.2044 43.4557C27.756 43.0914 27.3524 42.727 26.9489 42.352C24.0566 39.6302 22.3078 36.619 22.0388 33.5543C21.9267 32.397 22.0612 31.2397 22.3975 30.0717C22.4872 29.7502 22.5993 29.4394 22.7114 29.1394C24.662 24.2101 31.1191 20.3525 39.1232 17.3949C41.1859 16.6341 43.3383 15.9268 45.5579 15.2946C58.2704 11.6191 73.9872 12.6157 86.0046 16.4626C93.9863 19.0344 99.5915 22.517 102.955 26.514C103.268 26.8891 103.56 27.2641 103.851 27.6499C103.896 27.7249 103.963 27.8106 104.031 27.8964C104.233 28.1857 104.434 28.4857 104.636 28.7858C104.883 29.1823 105.107 29.6002 105.309 30.0074C105.398 30.1574 105.466 30.3181 105.533 30.4682C105.6 30.6289 105.667 30.7896 105.735 30.9397C105.802 31.1111 105.869 31.2718 105.936 31.4433C106.026 31.679 106.116 31.9148 106.206 32.1613C106.206 32.1827 106.228 32.2041 106.228 32.2255C106.295 32.4291 106.34 32.622 106.43 32.8149C106.43 32.8578 106.43 32.8899 106.452 32.9328C106.519 33.19 106.564 33.4471 106.654 33.715C106.676 33.7579 106.699 33.8008 106.699 33.8436C106.878 34.7116 106.968 35.5796 106.99 36.4476Z" fill="url(#paint9_linear_140_57)"/>
<defs>
<linearGradient id="paint0_linear_140_57" x1="104.752" y1="-3.733" x2="94.1564" y2="30.6971" gradientUnits="userSpaceOnUse">
<stop stop-color="#93E6ED"/>
<stop offset="1" stop-color="#2190B5"/>
</linearGradient>
<linearGradient id="paint1_linear_140_57" x1="105.334" y1="-7.86725" x2="72.2562" y2="110.2" gradientUnits="userSpaceOnUse">
<stop stop-color="#93E6ED"/>
<stop offset="1" stop-color="#2190B5"/>
</linearGradient>
<linearGradient id="paint2_linear_140_57" x1="119.328" y1="5.42801" x2="119.239" y2="31.1869" gradientUnits="userSpaceOnUse">
<stop stop-color="#93E6ED"/>
<stop offset="1" stop-color="#2190B5"/>
</linearGradient>
<linearGradient id="paint3_linear_140_57" x1="14.1933" y1="10.4932" x2="14.317" y2="33.5774" gradientUnits="userSpaceOnUse">
<stop stop-color="#93E6ED"/>
<stop offset="1" stop-color="#2190B5"/>
</linearGradient>
<linearGradient id="paint4_linear_140_57" x1="109.922" y1="1.58685" x2="110.08" y2="31.1265" gradientUnits="userSpaceOnUse">
<stop stop-color="#93E6ED"/>
<stop offset="1" stop-color="#2190B5"/>
</linearGradient>
<linearGradient id="paint5_linear_140_57" x1="33.6341" y1="4.43782" x2="31.0673" y2="13.0228" gradientUnits="userSpaceOnUse">
<stop stop-color="#93E6ED"/>
<stop offset="1" stop-color="#2190B5"/>
</linearGradient>
<linearGradient id="paint6_linear_140_57" x1="20.0427" y1="9.53672" x2="17.0153" y2="31.4859" gradientUnits="userSpaceOnUse">
<stop stop-color="#93E6ED"/>
<stop offset="1" stop-color="#2190B5"/>
</linearGradient>
<linearGradient id="paint7_linear_140_57" x1="95.7281" y1="-7.32134" x2="58.1953" y2="103.855" gradientUnits="userSpaceOnUse">
<stop stop-color="#93E6ED"/>
<stop offset="1" stop-color="#2190B5"/>
</linearGradient>
<linearGradient id="paint8_linear_140_57" x1="66.0673" y1="90.3065" x2="65.135" y2="33.6658" gradientUnits="userSpaceOnUse">
<stop stop-color="#93E6ED"/>
<stop offset="1" stop-color="#2190B5"/>
</linearGradient>
<linearGradient id="paint9_linear_140_57" x1="56.2462" y1="72.5698" x2="102.478" y2="48.2965" gradientUnits="userSpaceOnUse">
<stop stop-color="#000080"/>
<stop offset="0.424373" stop-color="#2945DF"/>
<stop offset="0.982292" stop-color="#000080"/>
</linearGradient>
</defs>
</svg>
