<svg width="71" height="66" viewBox="0 0 71 66" fill="none" xmlns="http://www.w3.org/2000/svg">
<path d="M70.2254 33.144C70.2254 33.2561 70.2254 33.3579 70.2152 33.4598C70.1337 35.5784 69.7365 37.5747 69.1355 39.5201C68.5346 41.5267 67.7299 43.4925 66.8438 45.5194C66.2836 46.7926 65.703 48.0454 65.0919 49.288C65.0511 49.3593 65.0206 49.451 64.9696 49.5223C63.5742 52.3233 62.026 55.0225 60.3047 57.6198C59.7037 58.5466 59.0213 59.4735 58.2472 60.3291C57.2287 61.4902 56.0472 62.5597 54.7129 63.3746C51.5859 65.32 47.5626 65.6052 43.9162 65.8293C39.842 66.0533 35.7373 66.0533 31.6529 65.8496C27.7621 65.6663 23.861 65.5441 20.1841 64.0774C16.2423 62.5088 13.0135 59.6365 10.406 56.4688C10.3958 56.4484 10.3754 56.4382 10.3653 56.4179C8.45038 54.0752 6.79015 51.4779 5.33362 48.901C4.91602 48.1778 4.51878 47.4648 4.13173 46.7518C3.8771 46.2731 3.62246 45.8046 3.37801 45.3361C3.07244 44.7555 2.79744 44.1851 2.52243 43.6045C1.23906 40.8035 0.414031 37.9618 0.118652 35.0996C-0.0443157 33.4496 -0.0443157 31.8097 0.149209 30.1495C0.261249 29.2328 0.424217 28.3161 0.648297 27.3994C0.91312 26.3299 1.26961 25.2503 1.6974 24.1604C1.81963 23.8752 1.93167 23.5697 2.06408 23.2845C2.44094 22.3271 2.83818 21.39 3.26597 20.4529C3.50023 19.9335 3.7345 19.4344 3.96877 18.9149C4.45767 17.8658 4.98731 16.8167 5.54752 15.788C5.91419 15.1055 6.30124 14.4333 6.70866 13.7712C7.20775 12.9157 7.7374 12.0906 8.2976 11.2656C8.32815 11.2045 8.35871 11.1638 8.39945 11.1026C8.67446 10.6952 8.95965 10.2878 9.24485 9.89057C9.4893 9.57482 9.72357 9.24889 9.9782 8.93314C10.0088 8.87202 10.0597 8.82109 10.1004 8.75998C12.2394 5.95897 14.7858 3.4839 18.371 2.28201C25.9898 -0.28473 33.9141 -0.243988 42.1643 0.295843C45.4848 0.519923 49.1821 1.14124 51.7998 3.21908C57.249 7.57847 62.0057 12.661 65.7845 18.3853C65.8354 18.4464 65.8762 18.5075 65.9169 18.5686C67.404 20.8094 68.5244 23.2743 69.2476 25.8309C69.2476 25.841 69.2577 25.8512 69.2577 25.8716C69.4003 26.3503 69.5124 26.829 69.6142 27.3078C69.6957 27.6744 69.767 28.0411 69.8383 28.4078C69.8383 28.4282 69.8485 28.4383 69.8485 28.4587C69.8485 28.4587 69.8485 28.4587 69.8485 28.4689C70.0318 29.4874 70.1439 30.5264 70.205 31.5653C70.2355 32.1153 70.2355 32.6348 70.2254 33.144Z" fill="url(#paint0_linear_47_554)"/>
<path d="M66.671 33.1236C66.671 33.2254 66.671 33.3171 66.6608 33.4088C66.5895 35.2931 66.2229 37.0755 65.6932 38.8071C65.1534 40.5895 64.4302 42.3516 63.6357 44.1545C63.1367 45.285 62.607 46.4055 62.057 47.5157C62.0264 47.587 61.9857 47.6583 61.9449 47.7194C60.6921 50.2148 59.2967 52.6186 57.7587 54.9307C57.2189 55.7557 56.5976 56.5807 55.905 57.3447C54.9883 58.3734 53.929 59.3308 52.7271 60.0642C49.9159 61.7957 46.3 62.0504 43.0203 62.2439C39.3535 62.4476 35.6766 62.4476 31.9996 62.2643C28.506 62.1013 24.992 61.9892 21.6919 60.6855C18.1474 59.2901 15.2445 56.7335 12.9018 53.902C12.8916 53.8816 12.8815 53.8816 12.8713 53.8612C11.1499 51.7732 9.65266 49.4611 8.34891 47.1592C7.97205 46.5175 7.61556 45.8758 7.26925 45.2443C7.03499 44.8165 6.8109 44.3989 6.59701 43.9915C6.322 43.472 6.06736 42.9628 5.8331 42.4535C4.68214 39.958 3.9386 37.432 3.67377 34.8857C3.52099 33.419 3.52099 31.9522 3.69415 30.4754C3.796 29.6605 3.94878 28.8457 4.14231 28.0308C4.38676 27.0836 4.70251 26.116 5.07937 25.1483C5.19141 24.8937 5.28308 24.6187 5.40531 24.3641C5.75161 23.5187 6.10811 22.6733 6.48497 21.8381C6.68868 21.3797 6.90257 20.9316 7.11647 20.4732C7.55445 19.5361 8.03316 18.6093 8.53225 17.6926C8.86837 17.0814 9.20449 16.4805 9.57117 15.8897C10.0193 15.136 10.4981 14.3925 10.9971 13.6591C11.0175 13.6082 11.0583 13.5674 11.0888 13.5165C11.3434 13.1498 11.5879 12.7933 11.8425 12.4369C12.0564 12.1415 12.2703 11.8461 12.4944 11.5609C12.525 11.51 12.5657 11.459 12.6064 11.4081C14.5315 8.91268 16.8131 6.71261 20.0317 5.63295C26.9171 3.36159 34.0367 3.39215 41.4517 3.87086C44.4361 4.07457 47.7566 4.62459 50.1196 6.47835C55.0188 10.359 59.2865 14.8916 62.6885 19.9843C62.7292 20.0454 62.77 20.0963 62.8005 20.1473C64.1348 22.1436 65.1432 24.3335 65.7951 26.6151C65.7951 26.6252 65.8052 26.6354 65.8052 26.6456C65.9275 27.0734 66.0395 27.491 66.1312 27.929C66.2025 28.2549 66.2738 28.5809 66.3349 28.917C66.3349 28.9373 66.3451 28.9373 66.3451 28.9577C66.3451 28.9577 66.3451 28.9577 66.3451 28.9679C66.508 29.8744 66.6099 30.8013 66.6608 31.7282C66.671 32.2069 66.671 32.6754 66.671 33.1236Z" fill="url(#paint1_linear_47_554)"/>
<path d="M62.8007 20.1574C64.135 22.1537 65.1434 24.3436 65.7952 26.6251C65.6425 26.3196 65.4693 26.0242 65.3165 25.7492C64.7869 24.7612 64.2165 23.7732 63.6257 22.8158C62.485 20.9926 61.2321 19.2305 59.8877 17.56C59.3173 16.8471 58.6348 16.2054 58.3089 15.3294C58.0237 14.5961 57.4228 14.0257 56.8829 13.4757C55.0699 11.6219 52.931 10.1654 50.955 8.50515C49.8142 7.54772 48.6938 6.51898 47.3595 5.86711C46.0456 5.23561 44.5789 5.01153 43.1325 4.93005C42.6029 4.89949 42.0733 4.88931 41.5436 4.87912C41.3297 4.87912 41.1158 4.8893 40.9121 4.80782C40.6778 4.73652 40.4334 4.72634 40.1889 4.69578C39.5167 4.62448 38.8445 4.56337 38.1722 4.51244C32.5702 4.09484 26.8969 4.57356 21.4375 5.92823C20.4393 6.18286 19.4309 6.45787 18.5142 6.94677C18.3818 7.01807 18.2596 7.09956 18.1272 7.17085C17.2716 7.7005 16.5179 8.38293 15.7438 9.02461C15.3567 9.35055 14.9697 9.6663 14.5521 9.95149C14.3891 10.0635 14.2261 10.1552 14.0428 10.2367C13.7474 10.3793 13.5844 10.6848 13.4113 10.9497C13.0344 11.5201 12.8002 12.121 12.515 12.7321C12.464 12.834 12.4233 12.9053 12.4029 13.0275C12.3316 13.3534 12.2807 13.6896 12.2094 14.0155C11.802 13.9951 11.3946 13.8831 11.0483 13.6692C11.0686 13.6183 11.1094 13.5775 11.1399 13.5266C11.3946 13.1599 11.639 12.8034 11.8937 12.4469C12.1076 12.1516 12.3214 11.8562 12.5455 11.571C12.5761 11.5201 12.6168 11.4691 12.6576 11.4182C14.5826 8.92276 16.8642 6.72269 20.0828 5.64303C26.9172 3.36148 34.0369 3.39204 41.4519 3.87076C44.4363 4.07447 47.7568 4.62448 50.1198 6.47824C55.0597 10.3997 59.3784 14.9933 62.8007 20.1574Z" fill="#DEFCFF"/>
<path d="M66.3245 28.9272C66.3041 29.0392 66.2837 29.1309 66.2532 29.2429C66.1819 28.8253 66.08 28.4077 66.1208 27.9901V27.9494C66.2022 28.2753 66.2633 28.6013 66.3245 28.9272Z" fill="#DEFCFF"/>
<path d="M63.7064 30.9946C63.7574 31.127 63.8694 31.2492 63.9713 31.3511C64.3176 31.7178 64.6639 32.0845 65.0102 32.4511C65.1324 32.5835 65.275 32.6548 65.4074 32.7771C65.6722 33.0113 65.8556 33.4086 65.9982 33.7243C66.1306 33.9993 66.1713 34.091 66.1408 34.3864C66.1102 34.6206 66.0898 34.8549 66.0491 35.0892C65.988 35.5577 65.9167 36.0262 65.8352 36.4948C65.6722 37.4318 65.4685 38.3587 65.2241 39.2754C64.7454 41.1088 64.1037 42.9014 63.3296 44.633C63.3194 44.6533 63.3092 44.6635 63.3092 44.6839C63.4925 44.2765 63.7472 43.8996 63.9407 43.5024C64.1444 43.095 64.3379 42.6774 64.5213 42.2598C64.888 41.4245 65.2139 40.569 65.4991 39.693C66.0695 37.9513 66.4565 36.1586 66.6602 34.3354C66.7112 33.9178 66.7417 33.5002 66.7723 33.0724C66.7825 32.8789 66.8232 32.6548 66.8028 32.4613C66.7825 32.2678 66.7519 32.0743 66.7417 31.8807C66.6806 30.8826 66.5584 29.8946 66.3648 28.9168C65.6315 29.3446 64.8981 29.7825 64.175 30.2103C63.9509 30.3427 63.6963 30.5261 63.6759 30.7909C63.6657 30.852 63.6759 30.9233 63.7064 30.9946Z" fill="#DEFCFF"/>
<path d="M7.75717 19.0881C7.40068 19.7705 7.07474 20.4733 6.79973 21.1965C6.51454 21.9197 6.15805 22.6123 5.8423 23.3355C5.58766 23.9364 5.33302 24.5373 5.09876 25.1485C4.71171 26.1161 4.39596 27.0837 4.16169 28.031C2.94962 32.9098 3.67279 37.7479 5.8423 42.4536C6.08675 42.9731 6.3312 43.4823 6.60621 43.9916C7.15623 45.0305 7.7368 46.1 8.3683 47.1695C9.68223 49.4816 11.1795 51.8141 12.9212 53.9123C15.2639 56.7337 18.1667 59.2902 21.7113 60.6958C25.0114 61.9996 28.5152 62.1014 32.019 62.2746C35.696 62.4579 39.3729 62.4579 43.0397 62.2542C46.3194 62.0607 49.9353 61.806 52.7465 60.0745C54.8345 58.7911 56.4947 56.8763 57.7679 54.941C58.379 54.0243 58.9596 53.0974 59.53 52.1502C59.8254 51.6613 60.1106 51.1724 60.3856 50.6835C60.5995 50.2964 60.7828 49.8788 61.0578 49.5325C61.231 49.3084 61.3736 49.0742 61.506 48.8297C61.8014 48.2899 62.0356 47.7093 62.1986 47.1084C62.1884 47.1491 61.8523 47.1899 61.8014 47.1899C61.6588 47.2102 61.5162 47.2306 61.3736 47.2306C61.2717 47.2306 61.1902 47.2102 61.0884 47.1899C60.956 47.1695 60.8236 47.1899 60.6912 47.2001C59.5606 47.3121 58.43 47.4445 57.2892 47.5464C58.4198 47.7603 59.53 48.0353 60.6199 48.3918C60.5078 50.0316 59.6013 51.4983 58.6846 52.8632C57.1772 55.1142 55.5169 57.3855 53.1641 58.73C51.789 59.5245 50.2408 59.9625 48.6926 60.3088C42.9888 61.5921 37.0914 61.7347 31.2551 61.3782C28.4541 61.2051 25.6327 60.9097 22.9437 60.0847C21.6094 59.6773 20.3261 59.1374 19.114 58.4346C18.2686 57.9356 17.4639 57.3652 16.7306 56.7031C16.4046 56.4077 16.1195 56.0207 15.7324 55.817C15.6407 55.766 15.5694 55.7253 15.488 55.6642C15.0296 55.2975 14.6222 54.8595 14.2148 54.4419C13.349 53.5354 12.5443 52.5678 11.8008 51.5493C11.0471 50.5103 10.2424 49.502 9.61093 48.3816C9.46833 48.1371 9.25444 47.9028 9.27481 47.6075C9.28499 47.4241 9.31555 47.251 9.38685 47.0778C9.53963 46.7213 9.8452 46.4463 10.1609 46.2324C10.66 45.9167 11.2406 45.7028 11.6582 45.275C11.6073 45.3259 11.0369 45.163 10.9554 45.1528C10.711 45.1018 10.4665 45.0611 10.2221 45C9.73316 44.8981 9.24425 44.7759 8.76553 44.6537C8.57201 44.6028 8.39886 44.5518 8.19515 44.562C8.04236 44.5722 7.92014 44.562 7.77754 44.5009C7.40068 44.3277 7.18678 43.9611 7.02382 43.5944C6.99326 43.5333 6.9627 43.462 6.93215 43.4009C6.73862 42.9527 6.53491 42.4944 6.34139 42.0462C5.55711 40.2434 4.9256 38.3387 4.7219 36.3729C4.69134 36.0469 4.62004 35.6599 4.66078 35.334C4.68115 35.171 4.81356 34.9978 4.88486 34.8552C5.0682 34.4987 5.25154 34.1423 5.43488 33.7858C5.48581 33.6839 5.54692 33.5719 5.52655 33.4496C5.49599 33.2256 5.24136 33.1135 5.01727 33.0728C4.80338 33.0422 4.6506 32.9709 4.44689 32.8996C4.3654 32.8691 4.26355 32.8996 4.21262 32.8385C4.13114 32.7367 4.18206 32.4209 4.18206 32.3089C4.18206 31.8913 4.21262 31.4737 4.23299 31.0459C4.27373 30.4755 4.39596 29.8949 4.34503 29.3347C4.27373 28.6217 4.59967 27.8069 4.79319 27.1448C5.02746 26.3605 5.31265 25.5966 5.61822 24.8327C5.81174 24.3642 6.01545 23.9058 6.22935 23.4475C6.32102 23.2438 6.4025 23.0197 6.53491 22.8364C6.60621 22.7345 6.69788 22.653 6.75899 22.541C6.94233 22.1845 7.05437 21.7873 7.20715 21.4104C7.5229 20.6567 7.86921 19.9233 8.30719 19.2307C8.33774 19.19 8.35811 19.1492 8.38867 19.1085C9.13221 17.9881 10.1609 17.0205 11.4341 16.6028C11.8212 16.4806 12.2286 16.3584 12.636 16.4297C12.8295 16.4603 13.0129 16.4806 13.2166 16.4399C13.8481 16.3177 14.4694 16.0936 15.0805 15.8797C15.3657 15.7778 15.6509 15.6658 15.9361 15.5537C14.7648 14.9732 13.5935 14.3926 12.4221 13.812C12.1166 13.9139 11.811 14.0565 11.536 14.2194C11.4443 14.2704 11.3628 14.3315 11.2712 14.3824C11.2101 14.413 11.1388 14.4333 11.0675 14.4741C10.8637 14.5963 10.7008 14.8611 10.548 15.0445C10.3239 15.2991 10.0998 15.5537 9.88594 15.8186C9.7739 15.951 9.66186 16.0732 9.54982 16.2056C9.4887 16.2973 9.44796 16.3788 9.38685 16.4908C9.22388 16.7658 9.02017 17.0103 8.84702 17.2751C8.67386 17.5399 8.50071 17.8047 8.33774 18.0797C8.13403 18.4057 7.94051 18.752 7.75717 19.0881Z" fill="#DEFCFF"/>
<path d="M63.7981 31.0151C63.8083 31.0965 63.9102 31.1373 63.9917 31.1678C64.3685 31.2799 64.7556 31.3919 65.1324 31.4938C65.4176 31.5753 65.7741 31.616 65.9982 31.8197C66.4667 32.2373 66.864 32.6345 66.8742 33.266C66.8742 33.2355 66.8742 33.2151 66.8843 33.1947C66.9455 32.9503 66.8436 32.7873 66.9556 32.5531C67.0269 32.4003 67.0982 32.2373 67.1797 32.0845C67.3325 31.779 67.4751 31.4632 67.5362 31.1271C67.6483 30.5465 67.4445 29.8233 66.8843 29.6298C66.5482 29.5178 66.1714 29.6196 65.8454 29.7622C65.6417 29.8539 65.4482 29.9558 65.2445 30.0474C65.0917 30.1085 64.9491 30.1187 64.7861 30.1595C64.45 30.241 64.1139 30.6484 63.8796 30.8826C63.8287 30.9132 63.788 30.9539 63.7981 31.0151Z" fill="url(#paint2_linear_47_554)"/>
<path d="M7.89039 46.11C7.83946 46.0896 7.78854 46.0692 7.7478 46.0285C7.51353 45.8146 7.38112 45.4174 7.22834 45.1424C7.02463 44.7655 6.81073 44.3784 6.60702 43.9914C6.33201 43.4719 6.07738 42.9627 5.84311 42.4534C5.91441 42.5247 5.98571 42.5756 6.04682 42.6265C7.17741 43.6043 8.59319 44.2155 9.90712 44.9081C10.0192 44.9692 10.1414 45.0303 10.2127 45.1322C10.2942 45.234 10.3247 45.3766 10.2534 45.4887C10.1923 45.5905 10.0701 45.6211 9.94786 45.6516C9.50988 45.7637 9.08209 45.8757 8.64412 45.9877C8.43022 46.059 8.12466 46.1915 7.89039 46.11Z" fill="url(#paint3_linear_47_554)"/>
<path d="M62.3824 45.3564C60.7731 46.5073 58.6749 47.0166 56.6582 47.4852C58.4406 47.475 60.2333 47.4953 62.0157 47.5361C61.8018 47.8416 61.7305 48.2287 61.8324 48.575C62.1889 47.7602 62.5454 46.9453 62.8917 46.1305C63.238 45.336 63.513 44.4906 63.9408 43.7369C63.9306 44.0017 63.4824 44.3786 63.2889 44.5823C63.0139 44.8675 62.7083 45.1221 62.3824 45.3564Z" fill="url(#paint4_linear_47_554)"/>
<path d="M14.562 15.0953C14.5008 15.1971 14.4397 15.299 14.3684 15.4008C13.8795 15.4721 13.4008 15.5536 12.9119 15.6147C12.586 15.6555 12.3313 15.574 12.0156 15.523C11.6285 15.4721 11.2619 15.6351 10.9563 15.8388C10.5285 16.1138 10.1211 16.399 9.6933 16.6842C9.2655 16.9796 8.88864 17.3055 8.55252 17.6926C9.3368 16.2564 10.1822 14.8712 11.1091 13.5165C11.3637 13.1498 11.6082 12.7933 11.8628 12.4368C11.8526 12.5081 11.8424 12.5693 11.8526 12.6406C11.9647 13.5471 12.6471 13.9239 13.3295 14.3517C13.7471 14.5962 14.1545 14.8508 14.562 15.0953Z" fill="url(#paint5_linear_47_554)"/>
<path d="M3.60198 30.9746C3.59179 31.0968 3.53068 31.2089 3.53068 31.3515C3.53068 31.5348 3.59179 31.708 3.67327 31.8709C3.70383 31.932 3.73439 31.983 3.76494 32.0441C3.80569 32.1256 3.85661 32.2172 3.91773 32.2885C4.05014 32.4413 4.24366 32.4821 4.43719 32.5126C5.15017 32.6348 5.84278 32.8182 6.50484 33.1237C6.45391 33.1034 6.14835 33.2765 6.08724 33.2969C5.92427 33.358 5.77149 33.4089 5.59833 33.4497C5.28258 33.5312 4.95665 33.5821 4.63071 33.6025C4.36589 33.6228 4.17236 33.5515 3.97884 33.796C3.82606 33.9895 3.78532 34.2543 3.78532 34.4886C3.7955 34.8247 3.8668 35.1608 3.7955 35.4868C3.45938 33.9997 3.44919 32.5024 3.60198 30.9746Z" fill="url(#paint6_linear_47_554)"/>
<path d="M25.1856 53.6678C24.0448 54.9308 23.0568 56.3364 23.3318 57.8438C23.617 59.4328 24.3911 60.7467 26.0004 60.9097C21.6614 61.6328 16.9863 59.1883 14.5316 55.5317C12.7186 52.8428 10.5185 50.0723 8.70549 47.3833C11.3945 48.3204 14.4603 47.2815 16.6502 45.4583C18.84 43.6351 20.3271 41.1294 21.7735 38.6646C25.5217 32.2884 29.27 25.9123 33.0284 19.5362C34.1081 17.713 35.1878 15.8593 35.7581 13.812C36.3285 11.7647 36.3387 9.48314 35.31 7.62938C34.2812 5.77562 32.071 4.50244 30.0135 4.99134C29.7996 5.04227 29.6978 4.1765 29.8506 4.01354C29.9932 3.85057 30.2478 3.85057 30.4719 3.86075C35.6767 4.18669 40.8814 4.52281 46.0862 4.84875C51.9531 5.22561 56.068 11.4591 59.6431 16.1343C57.0356 12.7221 53.9087 17.051 52.6049 18.8843C49.4169 23.3456 46.127 27.705 42.7963 32.0338C39.6083 36.1793 36.3693 40.2841 33.0794 44.3481C31.1339 46.7518 29.1579 49.1352 27.182 51.5085C26.6421 52.1705 25.8884 52.8937 25.1856 53.6678Z" fill="url(#paint7_linear_47_554)"/>
<path d="M56.251 30.6183C55.8537 28.4081 55.1 26.1061 54.0917 23.9163C53.1852 21.9505 52.0138 19.9643 50.6591 18.2531C49.4267 16.7049 47.4507 15.7373 45.7599 14.7799C45.0164 14.3623 44.3849 13.8224 43.6108 13.4863C28.1696 6.60093 10.0089 19.9541 11.5673 36.149C11.8321 38.8685 12.6978 41.5168 14.0933 43.89C17.9536 50.4596 25.0121 54.6459 32.7531 55.3792C35.6152 55.644 38.5282 55.5218 41.3191 54.8598C46.9822 53.5153 51.6166 49.93 54.3769 44.9697C56.7195 40.7631 57.1066 35.2527 56.251 30.6183ZM49.3248 42.8001C47.2572 46.528 43.7636 49.2272 39.5162 50.2355C37.418 50.7346 35.2281 50.8263 33.0892 50.6226C27.2835 50.0828 21.9768 46.9355 19.0638 41.9955C18.0147 40.2028 17.3628 38.2167 17.1693 36.1796C17.1082 35.5481 17.0878 34.9166 17.1082 34.2749C17.1183 33.9999 17.1591 33.7147 17.1387 33.4295C17.1285 33.2767 17.0878 33.1443 17.047 33.0017C16.9248 32.5841 16.9554 32.0952 17.047 31.6776C17.1489 31.2192 17.3832 30.7711 17.7906 30.5266C18.0961 30.3331 18.473 30.2822 18.8295 30.2414C19.6749 30.1498 20.5305 30.1192 21.3861 30.1396C20.3064 29.9766 19.2267 29.8035 18.1471 29.6405C18.0961 29.6303 18.5036 28.3469 18.5545 28.2349C18.7276 27.7969 18.9823 27.3895 19.186 26.9617C19.5221 26.2691 20.011 25.6172 20.4694 25.0061C21.4166 23.7533 22.5268 22.6329 23.7593 21.6653C24.9917 20.6875 26.3566 19.8726 27.7927 19.2411C29.2391 18.6096 30.7567 18.1615 32.3253 17.9272C33.904 17.6929 35.5133 17.6929 37.1023 17.9272C38.5384 18.1411 39.9338 18.5485 41.2579 19.1393C41.8283 19.4041 42.3172 19.8013 42.8774 20.1069C44.1506 20.8301 45.6377 21.5634 46.5544 22.7246C47.5831 24.0079 48.4489 25.495 49.1415 26.9719C49.8952 28.6219 50.4554 30.3433 50.761 32.0035C51.1073 33.8878 51.1582 35.7416 50.7304 37.6157C48.5304 37.738 46.3201 37.7685 44.1201 37.6972C46.1266 37.9213 48.1331 38.1352 50.1397 38.3593C50.7712 38.4306 50.4351 39.001 50.3027 39.3982C50.1906 39.7445 50.1295 40.0908 50.1295 40.4575C50.1295 40.7936 50.0989 41.0992 49.9869 41.4149C49.9054 41.6492 49.8036 41.8733 49.6915 42.1075C49.6406 42.2196 49.5795 42.3418 49.5184 42.4538C49.4674 42.5455 49.3248 42.7085 49.3248 42.8001Z" fill="url(#paint8_linear_47_554)"/>
<path d="M51.3216 48.2796C53.1753 46.4462 54.4383 44.0832 55.1819 41.5979C55.9254 39.1126 56.1597 36.495 56.1291 33.8977C56.1291 33.5208 56.0884 33.1338 55.956 32.7875C55.7624 32.2986 55.3958 32.1152 54.8967 31.993C54.1531 31.8097 53.3994 31.6263 52.6559 31.443C54.418 31.5143 56.343 31.4226 58.1051 31.3411C57.8097 31.443 57.5144 31.5448 57.219 31.6467C57.1477 31.6671 57.0662 31.6976 57.0153 31.7485C56.9542 31.8097 56.9236 31.881 56.9032 31.9624C56.7912 32.38 56.8523 32.8282 56.8829 33.2662C56.944 33.969 56.9236 34.6718 56.8829 35.3644C56.8625 35.7107 56.8319 36.057 56.8014 36.4033C56.7301 37.1672 56.5773 37.9108 56.4245 38.6645C56.1393 40.0905 55.9458 41.5368 55.5587 42.9424C55.1717 44.348 54.5504 45.723 53.5318 46.7518C53.6541 47.0471 53.8781 47.2916 54.1735 47.424C53.817 47.4444 53.4402 47.4749 53.1346 47.6583C52.9614 47.7601 52.8188 47.9129 52.6864 48.0555C52.1975 48.575 51.7188 49.0944 51.2197 49.6037C51.0568 49.7667 50.8836 49.8787 50.6901 50.0009C50.2623 50.2658 49.9669 50.7139 49.6206 51.0704C48.0317 52.6797 45.9233 53.6881 43.7741 54.3807C43.6112 54.4316 43.4482 54.4825 43.2852 54.5335C41.7981 54.9715 40.2805 55.277 38.7323 55.4298C37.1943 55.5826 35.6359 55.6029 34.0979 55.4705C33.3238 55.4094 32.5599 55.3076 31.796 55.165C31.4191 55.0937 31.0321 55.0224 30.6552 54.9307C29.4533 54.6557 28.2413 54.452 27.0597 54.0751C23.5967 52.9547 20.5614 50.8565 17.7706 48.575C17.4345 48.3 17.0983 48.0249 16.7622 47.7398C16.6196 47.6175 16.4363 47.4851 16.3039 47.3527C16.1918 47.2407 16.1104 47.0981 15.9779 46.9962C15.7335 46.7823 15.4279 46.6499 15.1122 46.5684C14.6131 46.436 14.0834 46.4258 13.564 46.3545C13.6353 46.1916 13.8288 46.1304 14.002 46.0999C14.3992 46.0184 14.7964 45.9777 15.1937 45.9675C15.3872 45.9573 15.6011 45.9879 15.7946 45.9675C15.9576 45.9471 16.09 45.9369 16.2631 45.9573C17.0474 46.0286 17.8215 46.2119 18.6058 46.3036C19.0743 46.3545 19.5632 46.3749 20.0318 46.3138C18.9012 46.4156 17.7604 46.5175 16.6196 46.6092C17.0474 47.6481 18.1067 48.2796 19.1151 48.7889C19.3188 48.8907 19.5429 48.9824 19.716 49.1148C19.7975 49.1759 19.8688 49.237 19.9503 49.2981C20.1031 49.4204 20.266 49.5426 20.4188 49.6648C20.7346 49.9093 21.0503 50.1537 21.3661 50.388C22.0077 50.8565 22.6596 51.3149 23.3319 51.7325C24.2689 52.313 25.2671 52.8121 26.2958 53.2195C27.8848 53.8409 29.5756 54.2279 31.2867 54.3501C34.3729 54.5742 37.3675 54.9715 40.4231 54.4927C40.7796 54.4316 41.1463 54.3807 41.5028 54.2992C43.9167 53.7899 46.0964 52.5269 48.1335 51.1519C49.3762 50.3269 50.2623 49.3287 51.3216 48.2796Z" fill="#DEFCFF"/>
<path d="M53.8157 36.6781C53.836 37.4828 53.7851 38.2671 53.6833 39.0208C53.4083 41.0273 52.7564 42.8505 51.8193 44.4802C51.8193 44.4904 51.8091 44.5006 51.7989 44.5108C47.7146 51.5184 38.181 54.849 30.0224 52.7304C24.9398 51.4063 20.6517 47.8618 18.0239 43.3394C17.8202 42.9931 17.6368 42.6468 17.4535 42.2903C16.1396 39.7032 15.3451 36.8411 15.2229 33.928C15.1719 32.828 15.2331 31.728 15.3858 30.6177C15.4266 30.3122 15.4775 30.0168 15.5284 29.7316C16.4146 25.0463 19.348 21.3795 22.9842 18.5683C23.9213 17.8451 24.8991 17.1729 25.9074 16.572C31.6826 13.0783 38.8226 14.0256 44.2821 17.6822C47.9081 20.1267 50.4545 23.437 51.9823 27.2362C52.1249 27.5927 52.2573 27.9492 52.3897 28.3158C52.4101 28.3871 52.4406 28.4686 52.4712 28.5501C52.5629 28.8251 52.6545 29.1103 52.7462 29.3955C52.8582 29.7724 52.9601 30.1696 53.0518 30.5566C53.0925 30.6992 53.1231 30.852 53.1536 30.9946C53.1842 31.1474 53.2147 31.3002 53.2453 31.4428C53.2758 31.6057 53.3064 31.7585 53.337 31.9215C53.3777 32.1456 53.4184 32.3697 53.4592 32.6039C53.4592 32.6243 53.4694 32.6447 53.4694 32.665C53.4999 32.8586 53.5203 33.0419 53.561 33.2252C53.561 33.266 53.561 33.2965 53.5712 33.3373C53.6018 33.5817 53.6221 33.8262 53.6629 34.0808C53.6731 34.1216 53.6833 34.1623 53.6833 34.203C53.7647 35.0281 53.8055 35.8531 53.8157 36.6781Z" fill="url(#paint9_radial_47_554)"/>
<path d="M49.6025 36.2068C49.6127 36.8179 49.5821 37.4087 49.5006 37.9791C49.2969 39.4967 48.7978 40.8819 48.0849 42.1144C48.0849 42.1245 48.0747 42.1347 48.0747 42.1347C44.9783 47.4312 37.767 49.9572 31.5945 48.3581C27.7444 47.3599 24.5055 44.6811 22.5193 41.2486C22.3665 40.994 22.2239 40.7291 22.0813 40.4541C21.0933 38.4985 20.4822 36.329 20.4007 34.1289C20.36 33.3039 20.4109 32.4585 20.5229 31.6233C20.5535 31.3992 20.5942 31.1752 20.635 30.9511C21.3072 27.4065 23.5175 24.6259 26.2777 22.5073C26.9907 21.9573 27.7241 21.4582 28.488 20.9998C32.8575 18.3618 38.266 19.0748 42.4014 21.8452C45.1412 23.6888 47.0663 26.2046 48.2274 29.0769C48.3395 29.3519 48.4413 29.6168 48.533 29.8918C48.5534 29.9427 48.5738 30.0038 48.5941 30.0649C48.6654 30.2788 48.7367 30.4927 48.7978 30.7066C48.8793 30.9918 48.9608 31.2872 49.0321 31.5826C49.0627 31.6946 49.083 31.8067 49.1136 31.9085C49.134 32.0205 49.1645 32.1326 49.1849 32.2548C49.2053 32.377 49.2358 32.4993 49.2562 32.6113C49.2867 32.7845 49.3173 32.9576 49.3479 33.1308C49.3479 33.1511 49.358 33.1613 49.358 33.1817C49.3784 33.3243 49.3988 33.4669 49.4293 33.6095C49.4293 33.64 49.4293 33.6604 49.4395 33.691C49.4599 33.8743 49.4803 34.0678 49.5006 34.2512C49.5108 34.2817 49.5108 34.3123 49.5108 34.3428C49.5617 34.954 49.6025 35.5855 49.6025 36.2068Z" fill="url(#paint10_radial_47_554)"/>
<path d="M28.5039 27.0938C29.6854 30.4957 32.2318 33.3986 35.4504 35.0181C38.9847 36.8005 45.5544 37.6561 48.5795 34.4069C50.1277 32.7467 50.0666 30.4346 50.2703 28.3058C50.7694 23.1418 45.4423 19.0472 41.2052 17.4175C38.7505 16.4703 33.9939 14.9119 31.529 16.3888C30.1845 17.2037 28.9928 18.7315 28.4122 20.1676C27.6177 22.1436 27.6992 24.3742 28.2798 26.391C28.3511 26.6354 28.4224 26.8595 28.5039 27.0938Z" fill="url(#paint11_radial_47_554)"/>
<path d="M53.8152 36.6778C53.8356 37.4825 53.7847 38.2668 53.6828 39.0205C53.4078 41.0271 52.7559 42.8502 51.8189 44.4799C51.8189 44.4697 51.8189 44.4596 51.8087 44.4494C51.5235 43.7771 50.8818 43.278 50.2299 43.0234C49.3132 42.6771 48.3151 42.6873 47.3474 42.6873C40.0241 42.7077 32.7109 41.9132 25.5709 40.2937C24.3588 40.0187 23.1263 39.7233 21.8939 39.7742C20.6513 39.8353 19.3781 40.3039 18.6345 41.3122C18.2068 41.8826 18.003 42.616 18.0336 43.3392C17.8299 42.9928 17.6466 42.6465 17.4632 42.29C16.1493 39.7029 15.3548 36.8408 15.2326 33.9278C15.2122 32.8277 15.253 31.7073 15.3956 30.6175C15.4363 30.3119 15.4872 30.0165 15.5382 29.7313C16.4243 25.046 19.3577 21.3792 22.9939 18.5681C21.9958 19.8514 21.1402 21.257 20.4577 22.7339C19.5716 24.6488 18.8484 26.5433 19.2457 28.6721C19.5614 30.3323 20.3864 31.911 21.5476 33.1333L21.6189 33.2046C23.8597 35.5371 27.007 36.739 30.0932 37.6862C32.4563 38.3992 34.8498 39.0103 37.2638 39.5094C39.525 39.9779 41.8371 40.3344 44.139 40.1104C48.0604 39.7131 52.3994 37.0242 52.0124 32.5527C51.88 31.0147 52.5726 28.6721 52.0022 27.2461C52.1448 27.6026 52.2772 27.9591 52.4096 28.3257C52.43 28.397 52.4605 28.4785 52.4911 28.56C52.5828 28.835 52.6744 29.1202 52.7661 29.4054C52.8782 29.7823 52.98 30.1795 53.0717 30.5666C53.1124 30.7092 53.143 30.8619 53.1735 31.0045C53.2041 31.1573 53.2346 31.3101 53.2652 31.4527C53.2958 31.6157 53.3263 31.7684 53.3569 31.9314C53.3976 32.1555 53.4384 32.3796 53.4791 32.6138C53.4791 32.6342 53.4893 32.6546 53.4893 32.675C53.5198 32.8685 53.5402 33.0518 53.5809 33.2352C53.5809 33.2759 53.5809 33.3065 53.5911 33.3472C53.6217 33.5916 53.6421 33.8361 53.6828 34.0907C53.693 34.1315 53.7032 34.1722 53.7032 34.213C53.7643 35.0278 53.805 35.8528 53.8152 36.6778Z" fill="url(#paint12_radial_47_554)"/>
<path d="M31.6113 49.6237C32.3141 49.471 33.1188 49.0635 33.1493 48.3506C33.1595 48.045 33.0169 47.7598 32.8641 47.495C31.3057 44.7449 28.3723 42.83 25.225 42.4939C24.6241 42.4328 24.0027 42.4226 23.412 42.5245C23.0861 42.5754 22.7601 42.6671 22.5055 42.881C21.7314 43.5226 22.1082 44.5616 22.3833 45.3458C22.6277 46.0486 23.0555 46.5885 23.575 47.1283C24.8787 48.4728 26.6204 49.3793 28.464 49.695C29.4927 49.8682 30.5724 49.8478 31.6113 49.6237Z" fill="url(#paint13_radial_47_554)"/>
<defs>
<linearGradient id="paint0_linear_47_554" x1="57.0302" y1="-3.91076" x2="39.7184" y2="25.3232" gradientUnits="userSpaceOnUse">
<stop stop-color="#93E6ED"/>
<stop offset="1" stop-color="#2190B5"/>
</linearGradient>
<linearGradient id="paint1_linear_47_554" x1="57.3468" y1="-8.24212" x2="1.6262" y2="95.1174" gradientUnits="userSpaceOnUse">
<stop stop-color="#93E6ED"/>
<stop offset="1" stop-color="#2190B5"/>
</linearGradient>
<linearGradient id="paint2_linear_47_554" x1="64.9657" y1="5.68643" x2="64.7867" y2="32.671" gradientUnits="userSpaceOnUse">
<stop stop-color="#93E6ED"/>
<stop offset="1" stop-color="#2190B5"/>
</linearGradient>
<linearGradient id="paint3_linear_47_554" x1="7.72732" y1="10.993" x2="7.97656" y2="35.1745" gradientUnits="userSpaceOnUse">
<stop stop-color="#93E6ED"/>
<stop offset="1" stop-color="#2190B5"/>
</linearGradient>
<linearGradient id="paint4_linear_47_554" x1="59.8446" y1="1.66238" x2="60.1637" y2="32.6063" gradientUnits="userSpaceOnUse">
<stop stop-color="#93E6ED"/>
<stop offset="1" stop-color="#2190B5"/>
</linearGradient>
<linearGradient id="paint5_linear_47_554" x1="18.3114" y1="4.64912" x2="14.0763" y2="12.0103" gradientUnits="userSpaceOnUse">
<stop stop-color="#93E6ED"/>
<stop offset="1" stop-color="#2190B5"/>
</linearGradient>
<linearGradient id="paint6_linear_47_554" x1="10.9118" y1="9.99098" x2="5.10209" y2="31.8809" gradientUnits="userSpaceOnUse">
<stop stop-color="#93E6ED"/>
<stop offset="1" stop-color="#2190B5"/>
</linearGradient>
<linearGradient id="paint7_linear_47_554" x1="52.1172" y1="-7.67015" x2="-7.15454" y2="83.5704" gradientUnits="userSpaceOnUse">
<stop stop-color="#93E6ED"/>
<stop offset="1" stop-color="#2190B5"/>
</linearGradient>
<linearGradient id="paint8_linear_47_554" x1="35.969" y1="94.6067" x2="34.0909" y2="35.3122" gradientUnits="userSpaceOnUse">
<stop stop-color="#93E6ED"/>
<stop offset="1" stop-color="#2190B5"/>
</linearGradient>
<radialGradient id="paint9_radial_47_554" cx="0" cy="0" r="1" gradientUnits="userSpaceOnUse" gradientTransform="translate(39.9184 21.3194) scale(98.3889 98.4106)">
<stop stop-color="#41D163"/>
<stop offset="0.2659" stop-color="#30B95A"/>
<stop offset="0.3737" stop-color="#239D5F"/>
<stop offset="0.5305" stop-color="#117966"/>
<stop offset="0.6143" stop-color="#0B6B68"/>
<stop offset="0.6593" stop-color="#107568"/>
<stop offset="0.7349" stop-color="#1E8F66"/>
<stop offset="0.8314" stop-color="#34B964"/>
<stop offset="0.8801" stop-color="#41D163"/>
</radialGradient>
<radialGradient id="paint10_radial_47_554" cx="0" cy="0" r="1" gradientUnits="userSpaceOnUse" gradientTransform="translate(39.0858 24.594) scale(74.4452)">
<stop stop-color="#41D163"/>
<stop offset="0.2659" stop-color="#30B95A"/>
<stop offset="0.3737" stop-color="#239D5F"/>
<stop offset="0.5305" stop-color="#117966"/>
<stop offset="0.6143" stop-color="#0B6B68"/>
<stop offset="0.6593" stop-color="#107568"/>
<stop offset="0.7349" stop-color="#1E8F66"/>
<stop offset="0.8314" stop-color="#34B964"/>
<stop offset="0.8801" stop-color="#41D163"/>
</radialGradient>
<radialGradient id="paint11_radial_47_554" cx="0" cy="0" r="1" gradientUnits="userSpaceOnUse" gradientTransform="translate(42.2125 19.4821) scale(57.2595 52.5749)">
<stop stop-color="#41D163"/>
<stop offset="0.2659" stop-color="#30B95A"/>
<stop offset="0.3737" stop-color="#239D5F"/>
<stop offset="0.5305" stop-color="#117966"/>
<stop offset="0.6143" stop-color="#0B6B68"/>
<stop offset="0.6593" stop-color="#107568"/>
<stop offset="0.7349" stop-color="#1E8F66"/>
<stop offset="0.8314" stop-color="#34B964"/>
<stop offset="0.8801" stop-color="#41D163"/>
</radialGradient>
<radialGradient id="paint12_radial_47_554" cx="0" cy="0" r="1" gradientUnits="userSpaceOnUse" gradientTransform="translate(39.9262 23.1748) scale(98.3306 65.4333)">
<stop stop-color="#41D163"/>
<stop offset="0.2659" stop-color="#30B95A"/>
<stop offset="0.3737" stop-color="#239D5F"/>
<stop offset="0.5305" stop-color="#117966"/>
<stop offset="0.6143" stop-color="#0B6B68"/>
<stop offset="0.6593" stop-color="#107568"/>
<stop offset="0.7349" stop-color="#1E8F66"/>
<stop offset="0.8314" stop-color="#34B964"/>
<stop offset="0.8801" stop-color="#41D163"/>
</radialGradient>
<radialGradient id="paint13_radial_47_554" cx="0" cy="0" r="1" gradientUnits="userSpaceOnUse" gradientTransform="translate(29.1521 43.7568) scale(28.2936 18.592)">
<stop stop-color="#41D163"/>
<stop offset="0.2659" stop-color="#30B95A"/>
<stop offset="0.3737" stop-color="#239D5F"/>
<stop offset="0.5305" stop-color="#117966"/>
<stop offset="0.6143" stop-color="#0B6B68"/>
<stop offset="0.6593" stop-color="#107568"/>
<stop offset="0.7349" stop-color="#1E8F66"/>
<stop offset="0.8314" stop-color="#34B964"/>
<stop offset="0.8801" stop-color="#41D163"/>
</radialGradient>
</defs>
</svg>
