<svg width="155" height="56" viewBox="0 0 155 56" fill="none" xmlns="http://www.w3.org/2000/svg">
<path fill-rule="evenodd" clip-rule="evenodd" d="M24.8158 0.914678L54.8749 0L68.845 1.47144L111.186 0.437455L130.184 0.914678L134.997 1.63051L147.71 8.78887L151.229 13.8792L155 27.7187L153.025 35.5531L147.71 46.6884L135.427 53.9263L130.184 54.483L115.568 55L100.556 53.4888L58.5021 54.5625L53.2229 53.2502L45.9685 54.5625L25.57 54.9602L17.31 53.6081L7.29032 46.6884L2.19069 37.1837L0 27.7187L1.68791 20.0036L7.29032 8.70933L15.1911 3.02242L24.8158 0.914678Z" fill="#B3DEFF"/>
<path fill-rule="evenodd" clip-rule="evenodd" d="M25.3545 4.65292L16.8072 6.52204L10.307 11.8113L4.1659 21.1171L2.83713 27.2017L5.24329 35.7122L9.76831 44.6601L18.2797 50.5061L25.8573 50.5459L45.5375 51.739L53.3306 50.4266L58.8971 51.222L100.7 49.0745L115.675 50.5857L129.897 50.0687L134.242 49.5915L144.765 43.4273L150.295 33.9624L151.84 27.8778L148.967 16.2654L144.693 10.7773L134.386 5.56759L130.076 4.295L111.438 3.85754L68.5577 6.48227L54.5876 5.16991L25.3545 4.65292Z" fill="#B3DEFF"/>
<path fill-rule="evenodd" clip-rule="evenodd" d="M2.83712 27.2017L4.16589 21.1171L1.68791 20.0036L0 27.7187L2.83712 27.2017Z" fill="url(#paint0_linear_47_607)"/>
<path fill-rule="evenodd" clip-rule="evenodd" d="M4.16589 21.1171L10.307 11.8113L7.29031 8.70932L1.6879 20.0036L4.16589 21.1171Z" fill="url(#paint1_linear_47_607)"/>
<path fill-rule="evenodd" clip-rule="evenodd" d="M7.29031 8.70931L10.307 11.8113L16.8072 6.52204L15.1911 3.0224L7.29031 8.70931Z" fill="url(#paint2_linear_47_607)"/>
<path fill-rule="evenodd" clip-rule="evenodd" d="M16.8072 6.52205L25.3545 4.65292L24.8158 0.914673L15.1911 3.02241L16.8072 6.52205Z" fill="url(#paint3_linear_47_607)"/>
<path fill-rule="evenodd" clip-rule="evenodd" d="M24.8158 0.914678L25.3545 4.65293L54.5876 5.16992L54.8749 0L24.8158 0.914678Z" fill="url(#paint4_linear_47_607)"/>
<path fill-rule="evenodd" clip-rule="evenodd" d="M54.8749 0L54.5876 5.16992L68.5577 6.48229L68.845 1.47144L54.8749 0Z" fill="url(#paint5_linear_47_607)"/>
<path fill-rule="evenodd" clip-rule="evenodd" d="M68.845 1.47145L68.5577 6.4823L111.438 3.85757L111.186 0.437469L68.845 1.47145Z" fill="url(#paint6_linear_47_607)"/>
<path fill-rule="evenodd" clip-rule="evenodd" d="M111.186 0.437469L111.438 3.85757L130.076 4.29503L130.184 0.914693L111.186 0.437469Z" fill="url(#paint7_linear_47_607)"/>
<path fill-rule="evenodd" clip-rule="evenodd" d="M130.184 0.914673L130.076 4.29501L134.386 5.5676L134.997 1.63051L130.184 0.914673Z" fill="url(#paint8_linear_47_607)"/>
<path fill-rule="evenodd" clip-rule="evenodd" d="M134.997 1.63052L134.386 5.56762L144.693 10.7773L147.71 8.78888L134.997 1.63052Z" fill="url(#paint9_linear_47_607)"/>
<path fill-rule="evenodd" clip-rule="evenodd" d="M147.71 8.78888L144.693 10.7773L148.967 16.2654L151.229 13.8793L147.71 8.78888Z" fill="url(#paint10_linear_47_607)"/>
<path fill-rule="evenodd" clip-rule="evenodd" d="M151.229 13.8792L148.967 16.2654L151.84 27.8778L155 27.7187L151.229 13.8792Z" fill="url(#paint11_linear_47_607)"/>
<path fill-rule="evenodd" clip-rule="evenodd" d="M155 27.7187L151.84 27.8778L150.295 33.9624L153.025 35.5531L155 27.7187Z" fill="url(#paint12_linear_47_607)"/>
<path fill-rule="evenodd" clip-rule="evenodd" d="M153.025 35.5531L150.295 33.9624L144.765 43.4273L147.71 46.6884L153.025 35.5531Z" fill="url(#paint13_linear_47_607)"/>
<path fill-rule="evenodd" clip-rule="evenodd" d="M144.765 43.4273L134.242 49.5915L135.427 53.9263L147.71 46.6884L144.765 43.4273Z" fill="url(#paint14_linear_47_607)"/>
<path fill-rule="evenodd" clip-rule="evenodd" d="M134.242 49.5915L129.897 50.0687L115.675 50.5857L115.568 55L130.184 54.483L135.427 53.9262L134.242 49.5915Z" fill="url(#paint15_linear_47_607)"/>
<path fill-rule="evenodd" clip-rule="evenodd" d="M115.568 55L115.675 50.5857L100.7 49.0745L100.556 53.4888L115.568 55Z" fill="url(#paint16_linear_47_607)"/>
<path fill-rule="evenodd" clip-rule="evenodd" d="M100.556 53.4888L100.7 49.0745L58.8971 51.222L58.5021 54.5625L100.556 53.4888Z" fill="url(#paint17_linear_47_607)"/>
<path fill-rule="evenodd" clip-rule="evenodd" d="M58.5021 54.5625L58.8971 51.222L53.3306 50.4266L53.2229 53.2502L58.5021 54.5625Z" fill="url(#paint18_linear_47_607)"/>
<path fill-rule="evenodd" clip-rule="evenodd" d="M53.2229 53.2502L53.3306 50.4266L45.5375 51.739L45.9685 54.5625L53.2229 53.2502Z" fill="url(#paint19_linear_47_607)"/>
<path fill-rule="evenodd" clip-rule="evenodd" d="M45.449 55.0166L45.0181 52.1931L25.3378 51L25.0505 55.4143L45.449 55.0166Z" fill="url(#paint20_linear_47_607)"/>
<path fill-rule="evenodd" clip-rule="evenodd" d="M25.57 54.9602L25.8573 50.5459L18.2797 50.5061L17.31 53.6081L25.57 54.9602Z" fill="url(#paint21_linear_47_607)"/>
<path fill-rule="evenodd" clip-rule="evenodd" d="M17.31 53.6081L18.2797 50.5061L9.7683 44.6602L7.29031 46.6884L17.31 53.6081Z" fill="url(#paint22_linear_47_607)"/>
<path fill-rule="evenodd" clip-rule="evenodd" d="M9.76829 44.6602L5.24327 35.7122L2.19067 37.1837L7.2903 46.6884L9.76829 44.6602Z" fill="url(#paint23_linear_47_607)"/>
<path fill-rule="evenodd" clip-rule="evenodd" d="M5.24328 35.7122L2.83712 27.2017L0 27.7187L2.19069 37.1836L5.24328 35.7122Z" fill="url(#paint24_linear_47_607)"/>
<path fill-rule="evenodd" clip-rule="evenodd" d="M5.02782 34.9566C5.17147 35.1157 5.27921 35.1952 5.42286 35.2748C6.17703 35.5532 14.9039 31.5365 16.3404 30.94C22.8406 28.2755 29.4845 25.8496 36.3798 23.9407C39.4324 21.7137 42.5927 19.6457 46.3276 18.0947C47.7641 17.3789 53.9771 7.8742 53.582 6.56184C53.5102 6.12438 53.5461 5.64716 53.1511 5.16994L25.3545 4.65294L16.8072 6.52207L10.307 11.8113L4.16591 21.1172L2.83713 27.2018L5.02782 34.9566ZM55.8446 5.28924C55.234 5.52785 54.5876 5.96531 54.1566 6.76068C52.792 9.34564 50.8527 13.402 48.6979 16.4642C47.1177 18.6913 47.1536 18.0947 48.8415 18.6515C52.6483 19.8843 66.2234 25.7701 76.9972 31.3377C80.0498 32.9284 86.2268 36.3088 91.3983 39.8879C92.0807 40.3652 92.9785 40.7231 93.8404 40.2856C100.7 36.6667 108.529 33.4852 116.214 32.4114C118.153 32.1331 118.548 31.7354 119.231 29.3095C120.847 23.4635 123.073 17.6971 125.623 12.2885C126.772 11.8511 132.985 7.71513 133.596 5.56762C133.704 5.2097 130.436 4.37456 130.041 4.25526L111.402 3.77803L68.5577 6.4823L55.8446 5.28924ZM120.452 32.4114C128.496 34.2806 142.287 41.3992 143.939 42.3934C144.298 42.632 144.909 42.3934 145.591 42.0354L150.331 33.9624L151.876 27.838L149.038 16.2256L144.765 10.7375L135.858 6.28346C135.392 6.00508 134.602 6.04485 133.704 6.68114C133.165 7.07883 132.698 7.51628 132.339 7.8742C131.8 8.39119 131.262 8.86842 130.723 9.34564C129.322 10.5785 127.814 11.692 126.162 12.7657C123.038 18.4129 121.098 24.4179 119.59 30.3832C119.123 32.1331 118.872 32.0535 120.452 32.4114ZM143.328 44.2625C143.508 43.9046 143.508 43.6262 143.4 43.3876C142.035 40.9617 122.894 33.0477 119.015 32.8091C110.719 32.9284 101.669 36.6667 94.0559 40.8822C93.4094 41.2401 95.0255 42.5127 95.3846 42.8308C97.4676 44.5011 99.335 46.2112 101.346 47.8019C102.567 48.7563 106.158 49.2336 110.468 50.0289C107.2 49.7108 103.896 49.3926 100.628 49.0347C97.1444 49.2336 93.6249 49.3926 90.1413 49.5915C92.1166 49.3926 99.335 48.8359 99.4069 48.12C99.4428 47.8019 99.2632 47.4042 98.7964 46.927C93.1939 40.8026 83.7848 35.5134 76.6381 31.6956C66.0438 26.0087 53.3666 20.799 47.3332 19.089C46.184 18.7708 45.4298 19.089 44.4243 19.6059C41.8744 20.8785 39.6119 22.5886 37.4931 24.4975C30.3823 26.3268 23.4152 28.713 16.484 31.4172C14.9398 32.0138 6.21294 35.1952 5.63834 36.0702C5.60242 36.1099 5.56651 36.1895 5.5306 36.3088L9.76832 44.6602L18.2438 50.5062L25.8214 50.5459C23.9539 50.5857 21.5477 50.5062 19.7162 50.7448C18.4951 50.9039 18.0642 52.0571 17.4537 53.0514C17.5255 52.6934 17.9565 50.7845 17.5614 50.4664C15.2989 48.7961 13.0005 47.2451 10.7021 45.6942C9.55284 44.9386 8.79867 45.7737 7.7572 46.3305C8.25998 45.7737 9.4451 44.8988 8.97824 43.9046C7.86494 41.5185 6.67981 39.1323 5.45877 36.786C4.99191 35.8315 3.48356 36.7065 2.72939 36.9053C3.33991 36.4678 4.88417 35.6327 4.77643 35.0362C4.38139 32.9284 3.62722 30.9002 3.0167 28.8323C2.478 27.0427 1.97522 27.5994 0.430969 27.6392C1.0774 27.4404 1.72383 27.2813 2.33435 27.0427C3.05261 26.7245 3.37583 22.5886 3.44765 21.7932C3.48356 21.5944 3.48356 21.316 3.33991 21.1569C2.98078 20.7592 2.51392 20.4809 2.08296 20.1627C2.62165 20.282 3.16035 20.4411 3.69904 20.4809C4.63278 20.5604 9.73241 12.2885 9.12189 11.2148C8.65502 10.3796 8.08041 9.70356 7.54172 8.94796C8.40363 9.58425 9.1578 10.4194 10.0915 10.8568C11.0253 11.2943 16.3045 6.72091 16.0531 5.36878C15.8735 4.65294 15.5503 3.97688 15.2989 3.30081C15.8376 4.05641 16.2686 4.89155 16.8791 5.60739C17.4178 6.28346 24.6003 5.05063 24.7799 3.53942C24.8517 2.78382 24.8517 2.02821 24.8876 1.27261C25.139 2.18729 25.2109 3.1815 25.6777 3.93711C26.0728 4.57341 50.6013 4.37456 53.187 4.57341C53.4743 4.61317 54.1566 4.37456 54.3721 3.65873C54.6594 2.62474 54.6953 1.51122 54.839 0.437469C54.8749 1.55099 54.9108 2.62474 54.9826 3.73827C55.0545 4.41433 55.4136 4.73248 55.7727 4.77225C59.7231 5.28924 63.7095 5.56762 67.6958 5.88577C67.9472 5.92554 68.3422 5.80623 68.4141 5.48808C68.5936 4.33479 68.7014 3.14174 68.8091 1.94868C68.8809 3.14174 68.9168 4.33479 69.0605 5.48808C69.0964 5.92554 69.3837 6.04485 69.7428 6.00508C83.282 4.57341 96.8211 3.61896 110.324 3.53942C110.719 3.53942 111.079 3.10197 111.114 2.70428C111.186 2.02821 111.15 1.35215 111.186 0.676081C111.33 1.43169 111.438 2.18729 111.653 2.90312C111.725 3.14174 112.048 3.42012 112.3 3.42012C118.117 3.02243 123.684 3.30081 129.107 3.93711C129.286 3.97688 129.681 3.93711 129.789 3.53942C130.005 2.74405 130.041 1.86914 130.148 1.07377C130.22 1.90891 130.256 2.78382 130.364 3.61896C130.4 3.77803 130.364 4.09618 130.759 4.21549C131.657 4.49387 132.59 4.77225 133.488 4.97109C134.602 5.2097 134.709 2.78382 134.925 1.90891C134.889 2.54521 134.35 5.32901 135.032 5.56762C138.372 6.72091 141.497 8.23212 144.37 10.0615C145.196 10.5785 146.668 9.38541 147.458 8.94796C146.884 9.46495 146.309 9.9024 145.77 10.4592C145.555 10.6978 145.519 11.2148 145.735 11.4136C146.884 12.5271 147.853 13.76 148.608 15.1916C148.751 15.47 149.218 15.5495 149.469 15.3905C149.972 15.0723 150.403 14.6746 150.834 14.3167C150.439 14.9132 149.936 15.5098 149.613 16.1461C149.505 16.3449 149.469 16.5835 149.505 16.7824C150.619 20.1229 151.409 23.384 151.876 26.6052C152.055 27.838 153.492 27.6392 154.39 27.7983C152.989 28.196 151.876 27.8778 151.66 29.6276C151.516 30.7809 151.157 31.974 150.798 33.167C150.762 33.3261 150.798 33.525 150.87 33.7238C150.906 33.8829 150.942 34.042 151.05 34.1613C151.409 34.5192 151.876 34.7976 152.271 35.1555C151.804 34.9964 151.373 34.7578 150.906 34.718C150.726 34.6783 150.511 34.7578 150.403 34.9169C148.536 37.5018 146.956 40.2061 145.555 42.9899C145.411 43.308 145.447 43.9046 145.663 44.183C146.13 44.859 146.632 45.4953 147.135 46.1714C146.453 45.6146 145.806 44.9783 145.088 44.4613C144.837 44.3023 144.19 44.2227 143.939 44.342C140.994 45.9725 138.085 47.6428 135.212 49.3926C134.35 49.9096 134.961 52.0174 135.104 52.8923C134.386 51.222 134.53 50.0289 132.734 50.0289C131.764 50.0289 130.831 50.1085 129.861 50.1482L134.206 49.671L143.328 44.2625Z" fill="url(#paint25_linear_47_607)"/>
<path fill-rule="evenodd" clip-rule="evenodd" d="M5.02781 34.9566C5.17147 35.1157 5.2792 35.1952 5.42286 35.2748C6.17703 35.5531 14.9039 31.5365 16.3404 30.94C22.8406 28.2755 29.4845 25.8496 36.3798 23.9407C39.4324 21.7137 42.5927 19.6457 46.3276 18.0947C47.7642 17.3789 53.9771 7.87418 53.582 6.56182C53.5102 6.12436 53.5461 5.64714 53.1511 5.16992L25.3545 4.65292L16.8072 6.52205L10.307 11.8113L4.1659 21.1171L2.83713 27.2017L5.02781 34.9566Z" fill="url(#paint26_linear_47_607)"/>
<path fill-rule="evenodd" clip-rule="evenodd" d="M16.484 31.4172C14.9398 32.0137 6.21292 35.1952 5.63832 36.0701C5.6024 36.1099 5.56649 36.1894 5.53058 36.3088L9.7683 44.6602L18.2437 50.5061L25.8214 50.5459L45.5016 51.739L53.2947 50.4266L58.8612 51.222L90.1772 49.6312C92.1525 49.4324 99.371 48.8756 99.4428 48.1598C99.4787 47.8416 99.2991 47.444 98.8323 46.9667C93.2298 40.8424 83.8207 35.5531 76.674 31.7354C66.0797 26.0484 53.4025 20.8388 47.3691 19.1287C46.2199 18.8106 45.4657 19.1287 44.4601 19.6457C41.9103 20.9183 39.6478 22.6283 37.529 24.5372C30.3823 26.3268 23.4152 28.7129 16.484 31.4172Z" fill="url(#paint27_linear_47_607)"/>
<path fill-rule="evenodd" clip-rule="evenodd" d="M48.8774 18.6912C52.6842 19.9241 66.2593 25.8098 77.0331 31.3774C80.0857 32.9682 86.2628 36.3485 91.4342 39.9277C92.1166 40.4049 93.0144 40.7628 93.8763 40.3254C100.736 36.7064 108.565 33.5249 116.25 32.4512C118.189 32.1728 118.584 31.7751 119.267 29.3492C120.883 23.5032 123.109 17.7368 125.659 12.3283C126.808 11.8908 133.021 7.75487 133.632 5.60737C133.668 5.48806 133.237 5.28922 132.662 5.05061L130.076 4.295L111.438 3.81778L68.5577 6.48228L55.8445 5.28922C55.234 5.52783 54.5876 5.96529 54.1566 6.76066C52.7919 9.34562 50.8526 13.402 48.6979 16.4642C47.1536 18.6912 47.1895 18.1345 48.8774 18.6912Z" fill="url(#paint28_linear_47_607)"/>
<path fill-rule="evenodd" clip-rule="evenodd" d="M119.015 32.8091C110.719 32.9284 101.669 36.6667 94.0558 40.8821C93.4094 41.2401 95.0255 42.5127 95.3846 42.8308C97.4675 44.5011 99.335 46.2111 101.346 47.8019C102.567 48.7563 106.158 49.2336 110.468 50.0289L115.639 50.5459L129.861 50.0289L134.206 49.5517L143.292 44.1829C143.472 43.825 143.472 43.5466 143.364 43.308C142.035 40.9617 122.894 33.0477 119.015 32.8091Z" fill="url(#paint29_linear_47_607)"/>
<path fill-rule="evenodd" clip-rule="evenodd" d="M119.554 30.423C119.123 32.133 118.908 32.0535 120.452 32.4512C128.496 34.3203 142.287 41.4389 143.939 42.4331C144.298 42.6717 144.908 42.4331 145.591 42.0752L150.331 34.0022L151.876 27.8778L149.038 16.2654L144.765 10.7773L135.858 6.32321L135.715 6.24367C135.248 6.04483 134.53 6.12436 133.704 6.72089C133.165 7.11858 132.698 7.55603 132.339 7.91395C131.8 8.43094 131.262 8.90817 130.723 9.38539C129.322 10.6182 127.814 11.7317 126.162 12.8055C122.966 18.4526 121.026 24.4577 119.554 30.423Z" fill="url(#paint30_linear_47_607)"/>
<path fill-rule="evenodd" clip-rule="evenodd" d="M129.933 46.1714C120.775 45.7737 107.38 45.2965 97.9344 45.5351C83.3538 46.6486 68.5218 46.7679 53.3665 46.41C50.1703 46.3304 46.974 46.4895 44.3524 47.2849C38.2831 46.5293 31.5315 45.1772 25.2827 45.4158C19.2134 45.6544 12.6413 40.4447 9.91196 35.7122C12.3181 40.7231 19.2134 46.6884 25.57 46.4498C32.5371 45.5748 39.0732 47.5235 44.6038 48.7961C47.3691 47.4837 50.3139 47.4042 53.5102 47.4837C68.5936 47.8417 83.1383 47.3644 97.6471 46.2111C107.02 46.0123 120.56 46.8474 129.645 47.2451C132.698 46.3304 137.008 44.5011 140.096 41.8366C141.138 40.9617 142.107 39.8482 142.969 38.6153C143.436 37.979 143.867 37.1837 144.262 36.3485C143.975 36.8655 143.687 37.3427 143.364 37.7802C142.502 38.9732 141.533 40.047 140.491 40.8821C137.331 43.5069 132.985 45.2567 129.933 46.1714Z" fill="url(#paint31_radial_47_607)"/>
<path fill-rule="evenodd" clip-rule="evenodd" d="M54.8031 1.35213C59.6872 1.94866 64.6432 3.18149 68.6654 4.53362C82.1328 3.18149 97.288 2.50542 111.294 2.14751C117.579 1.90889 123.971 2.06797 130.112 2.62473C131.764 2.38612 133.309 2.58496 134.745 3.14172C138.731 4.85177 142.969 7.19812 146.201 9.78308C147.638 10.8966 149.326 13.2827 150.08 15.0723C151.696 18.6117 153.384 23.9805 154.21 27.7585C154.246 28.9118 154.174 30.1048 154.066 31.2581L154.964 27.7187L151.193 13.8792L147.674 8.78887L134.961 1.63051L130.148 0.914678L111.186 0.437455L68.845 1.47144L54.8749 0L24.8158 0.914678L15.1912 3.02242L7.29033 8.70933L1.68792 20.0036L0.430969 25.8098C1.18514 24.0202 1.93931 22.2307 2.94487 20.5604C4.63278 17.021 6.39251 13.5213 8.83458 10.2603C10.9175 8.07303 13.18 6.04483 15.8017 4.29501C18.8902 3.4201 22.0146 2.94288 25.139 3.14172C34.7278 1.74982 45.5735 1.31236 54.8031 1.35213Z" fill="url(#paint32_linear_47_607)"/>
<path opacity="0.5" fill-rule="evenodd" clip-rule="evenodd" d="M127.347 25.7303C126.916 25.6905 126.377 25.8894 126.09 26.2473C125.516 27.0427 125.085 28.0369 124.869 29.0311C124.654 30.1048 126.306 31.0991 127.096 31.1388C127.742 31.1786 128.46 30.9002 128.855 30.3435C129.466 29.4288 128.604 25.8496 127.347 25.7303Z" fill="#C8FAFF"/>
<path fill-rule="evenodd" clip-rule="evenodd" d="M127.096 25.3724C126.665 25.3326 126.126 25.5315 125.839 25.8894C125.264 26.6848 124.833 27.679 124.618 28.6732C124.402 29.7469 126.054 30.7412 126.844 30.7809C127.491 30.8207 128.209 30.5423 128.604 29.9855C129.179 29.1106 128.317 25.5315 127.096 25.3724Z" fill="url(#paint33_radial_47_607)"/>
<path opacity="0.5" fill-rule="evenodd" clip-rule="evenodd" d="M21.4041 17.1403C20.3626 17.2993 19.2493 17.6573 18.4233 18.4129C17.3818 19.3275 15.9453 22.2704 16.484 23.7021C16.8072 24.4975 17.4896 25.2531 18.2797 25.3724C19.4648 25.5712 20.7936 25.3326 21.835 24.6565C22.8406 23.9805 23.4152 22.9067 24.2053 21.992C24.7081 21.3955 25.3186 20.799 25.7495 20.1229C26.5037 18.9696 25.57 17.6175 24.8158 17.3789C23.5589 16.9812 22.6969 16.9414 21.4041 17.1403Z" fill="#C8FAFF"/>
<path fill-rule="evenodd" clip-rule="evenodd" d="M21.1886 16.8619C20.1471 17.021 19.0338 17.3789 18.2078 18.1345C17.2023 19.0094 15.7658 21.992 16.3044 23.4237C16.6277 24.2191 17.31 24.9747 18.1001 25.094C19.2852 25.2928 20.614 25.0542 21.6555 24.3782C22.661 23.7021 23.2356 22.6283 24.0257 21.7137C24.5644 21.1171 25.139 20.5206 25.6059 19.8445C26.3241 18.731 25.4263 17.3391 24.6362 17.1005C23.3434 16.7028 22.5174 16.663 21.1886 16.8619Z" fill="url(#paint34_radial_47_607)"/>
<path opacity="0.5" fill-rule="evenodd" clip-rule="evenodd" d="M132.878 25.0145C131.8 24.1396 131.01 23.1056 130.041 22.0716C129.286 21.1967 127.994 20.5206 127.634 19.3673C127.168 17.8959 128.46 16.3449 130.472 16.1858C132.159 16.0268 134.314 16.3449 135.14 16.6233C137.008 17.2994 138.983 18.2936 139.917 20.2422C140.635 21.7137 140.204 24.4577 138.803 25.2133C137.367 26.0087 134.278 26.1678 132.878 25.0145Z" fill="#C8FAFF"/>
<path fill-rule="evenodd" clip-rule="evenodd" d="M133.057 24.5372C131.98 23.6623 131.19 22.6283 130.22 21.5944C129.43 20.7592 128.173 20.0832 127.814 18.9299C127.347 17.4584 128.64 15.9074 130.651 15.7484C132.339 15.5893 134.494 15.9074 135.32 16.1858C137.187 16.8619 139.162 17.8561 140.096 19.8048C140.814 21.2762 140.383 24.0202 138.983 24.7758C137.546 25.5712 134.458 25.6905 133.057 24.5372Z" fill="url(#paint35_radial_47_607)"/>
<path fill-rule="evenodd" clip-rule="evenodd" d="M25.2108 8.55025C16.3045 8.98771 7.68536 16.2256 7.68536 27.0029C7.68536 29.6276 8.65501 33.4454 9.08597 34.1612C11.0971 39.2119 18.4592 45.6942 25.2108 45.4158C31.4956 45.1772 38.2113 46.4895 44.2806 47.2849C46.9022 46.4895 50.1344 46.3304 53.2947 46.41C68.45 46.7679 83.3179 46.6486 97.8626 45.5351C107.308 45.3362 120.703 45.7737 129.861 46.1714C132.914 45.2567 137.259 43.5069 140.383 40.9219C141.425 40.047 142.395 38.9733 143.256 37.82C145.591 34.5987 147.243 28.196 147.243 27.0029C147.243 25.9689 146.237 21.7534 144.657 18.9696C142.359 14.953 138.983 11.2148 136.289 10.141C132.052 9.02748 117.651 8.19233 112.084 6.91974C93.5171 8.15257 71.1793 9.22632 52.7919 8.82863C43.4187 9.06724 32.3216 8.82863 25.2108 8.55025ZM25.3186 10.7773C21.1886 10.9761 16.7713 12.209 13.8265 15.1916C9.40918 19.7252 7.68536 27.321 10.4147 33.6443C12.9646 39.53 19.393 43.1887 25.3186 43.4671C31.4597 43.7455 38.1036 44.8988 44.2447 45.1374C45.5375 44.7397 50.2062 44.5409 53.2229 44.342C66.762 45.2169 82.1687 45.5351 96.7134 44.3022C106.697 44.6602 118.979 44.5806 129.753 44.0239C132.949 43.8648 136.756 42.2741 139.45 40.3254C143.292 37.5018 145.411 32.65 145.411 26.9631C145.411 19.8048 141.066 14.5155 135.607 12.1294C131.226 10.2205 116.968 9.14678 112.192 9.02748C92.1165 8.59002 72.0412 9.94215 52.1096 10.3796C43.0595 10.6182 34.3686 10.3398 25.3186 10.7773Z" fill="#2291B6"/>
<path fill-rule="evenodd" clip-rule="evenodd" d="M25.3186 10.7773C21.1886 10.9761 16.7713 12.209 13.8265 15.1916C9.40918 19.7252 7.68537 27.321 10.4147 33.6443C12.9646 39.53 19.393 43.1887 25.3186 43.4671C31.4597 43.7455 38.1036 44.8988 44.2447 45.1374C45.5375 44.7397 50.2062 44.5409 53.2229 44.342C66.7621 45.2169 82.1687 45.5351 96.7134 44.3023C106.697 44.6602 118.979 44.5806 129.753 44.0239C132.949 43.8648 136.756 42.2741 139.45 40.3254C143.292 37.5018 145.411 32.65 145.411 26.9631C145.411 19.8048 141.066 14.5156 135.607 12.1294C131.226 10.2205 116.968 9.14679 112.192 9.02748C92.1165 8.59003 72.0412 9.94216 52.1096 10.3796C43.0596 10.6182 34.3686 10.3398 25.3186 10.7773Z" fill="url(#paint36_linear_47_607)"/>
<defs>
<linearGradient id="paint0_linear_47_607" x1="3.38281" y1="19.5464" x2="1.10222" y2="21.5006" gradientUnits="userSpaceOnUse">
<stop stop-color="#93E6ED"/>
<stop offset="1" stop-color="#2190B5"/>
</linearGradient>
<linearGradient id="paint1_linear_47_607" x1="8.68681" y1="7.97411" x2="4.99277" y2="12.0462" gradientUnits="userSpaceOnUse">
<stop stop-color="#93E6ED"/>
<stop offset="1" stop-color="#2190B5"/>
</linearGradient>
<linearGradient id="paint2_linear_47_607" x1="15.0183" y1="2.50162" x2="12.7325" y2="6.42949" gradientUnits="userSpaceOnUse">
<stop stop-color="#93E6ED"/>
<stop offset="1" stop-color="#2190B5"/>
</linearGradient>
<linearGradient id="paint3_linear_47_607" x1="23.444" y1="0.582413" x2="22.4035" y2="3.57535" gradientUnits="userSpaceOnUse">
<stop stop-color="#93E6ED"/>
<stop offset="1" stop-color="#2190B5"/>
</linearGradient>
<linearGradient id="paint4_linear_47_607" x1="49.2245" y1="-0.306339" x2="48.8932" y2="2.75074" gradientUnits="userSpaceOnUse">
<stop stop-color="#93E6ED"/>
<stop offset="1" stop-color="#2190B5"/>
</linearGradient>
<linearGradient id="paint5_linear_47_607" x1="66.165" y1="-0.384101" x2="65.1381" y2="3.19984" gradientUnits="userSpaceOnUse">
<stop stop-color="#93E6ED"/>
<stop offset="1" stop-color="#2190B5"/>
</linearGradient>
<linearGradient id="paint6_linear_47_607" x1="103.377" y1="0.079289" x2="103.059" y2="3.66739" gradientUnits="userSpaceOnUse">
<stop stop-color="#93E6ED"/>
<stop offset="1" stop-color="#2190B5"/>
</linearGradient>
<linearGradient id="paint7_linear_47_607" x1="126.613" y1="0.208894" x2="126.323" y2="2.47957" gradientUnits="userSpaceOnUse">
<stop stop-color="#93E6ED"/>
<stop offset="1" stop-color="#2190B5"/>
</linearGradient>
<linearGradient id="paint8_linear_47_607" x1="134.072" y1="0.638968" x2="132.848" y2="2.69313" gradientUnits="userSpaceOnUse">
<stop stop-color="#93E6ED"/>
<stop offset="1" stop-color="#2190B5"/>
</linearGradient>
<linearGradient id="paint9_linear_47_607" x1="145.205" y1="1.08854" x2="143.211" y2="5.6981" gradientUnits="userSpaceOnUse">
<stop stop-color="#93E6ED"/>
<stop offset="1" stop-color="#2190B5"/>
</linearGradient>
<linearGradient id="paint10_linear_47_607" x1="150.001" y1="8.34587" x2="147.879" y2="11.2894" gradientUnits="userSpaceOnUse">
<stop stop-color="#93E6ED"/>
<stop offset="1" stop-color="#2190B5"/>
</linearGradient>
<linearGradient id="paint11_linear_47_607" x1="153.866" y1="13.0498" x2="149.963" y2="15.7189" gradientUnits="userSpaceOnUse">
<stop stop-color="#93E6ED"/>
<stop offset="1" stop-color="#2190B5"/>
</linearGradient>
<linearGradient id="paint12_linear_47_607" x1="154.116" y1="27.2545" x2="151.775" y2="29.4852" gradientUnits="userSpaceOnUse">
<stop stop-color="#93E6ED"/>
<stop offset="1" stop-color="#2190B5"/>
</linearGradient>
<linearGradient id="paint13_linear_47_607" x1="151.472" y1="33.2083" x2="147.667" y2="37.1276" gradientUnits="userSpaceOnUse">
<stop stop-color="#93E6ED"/>
<stop offset="1" stop-color="#2190B5"/>
</linearGradient>
<linearGradient id="paint14_linear_47_607" x1="145.178" y1="42.8052" x2="142.692" y2="47.8652" gradientUnits="userSpaceOnUse">
<stop stop-color="#93E6ED"/>
<stop offset="1" stop-color="#2190B5"/>
</linearGradient>
<linearGradient id="paint15_linear_47_607" x1="131.694" y1="49.271" x2="131.155" y2="52.4142" gradientUnits="userSpaceOnUse">
<stop stop-color="#93E6ED"/>
<stop offset="1" stop-color="#2190B5"/>
</linearGradient>
<linearGradient id="paint16_linear_47_607" x1="112.833" y1="48.7234" x2="112.008" y2="52.0646" gradientUnits="userSpaceOnUse">
<stop stop-color="#93E6ED"/>
<stop offset="1" stop-color="#2190B5"/>
</linearGradient>
<linearGradient id="paint17_linear_47_607" x1="92.7676" y1="48.7493" x2="92.5003" y2="52.0107" gradientUnits="userSpaceOnUse">
<stop stop-color="#93E6ED"/>
<stop offset="1" stop-color="#2190B5"/>
</linearGradient>
<linearGradient id="paint18_linear_47_607" x1="57.8305" y1="50.1815" x2="56.892" y2="52.2248" gradientUnits="userSpaceOnUse">
<stop stop-color="#93E6ED"/>
<stop offset="1" stop-color="#2190B5"/>
</linearGradient>
<linearGradient id="paint19_linear_47_607" x1="51.8657" y1="50.1815" x2="51.1214" y2="52.407" gradientUnits="userSpaceOnUse">
<stop stop-color="#93E6ED"/>
<stop offset="1" stop-color="#2190B5"/>
</linearGradient>
<linearGradient id="paint20_linear_47_607" x1="41.6146" y1="50.7384" x2="41.261" y2="53.3312" gradientUnits="userSpaceOnUse">
<stop stop-color="#93E6ED"/>
<stop offset="1" stop-color="#2190B5"/>
</linearGradient>
<linearGradient id="paint21_linear_47_607" x1="24.2506" y1="50.2422" x2="23.4607" y2="52.6476" gradientUnits="userSpaceOnUse">
<stop stop-color="#93E6ED"/>
<stop offset="1" stop-color="#2190B5"/>
</linearGradient>
<linearGradient id="paint22_linear_47_607" x1="16.2139" y1="44.13" x2="14.0396" y2="48.3676" gradientUnits="userSpaceOnUse">
<stop stop-color="#93E6ED"/>
<stop offset="1" stop-color="#2190B5"/>
</linearGradient>
<linearGradient id="paint23_linear_47_607" x1="8.34389" y1="35.0618" x2="5.07418" y2="38.644" gradientUnits="userSpaceOnUse">
<stop stop-color="#93E6ED"/>
<stop offset="1" stop-color="#2190B5"/>
</linearGradient>
<linearGradient id="paint24_linear_47_607" x1="4.25767" y1="26.6103" x2="1.32055" y2="29.0586" gradientUnits="userSpaceOnUse">
<stop stop-color="#93E6ED"/>
<stop offset="1" stop-color="#2190B5"/>
</linearGradient>
<linearGradient id="paint25_linear_47_607" x1="125.449" y1="-2.68011" x2="118.971" y2="27.402" gradientUnits="userSpaceOnUse">
<stop stop-color="#93E6ED"/>
<stop offset="1" stop-color="#2190B5"/>
</linearGradient>
<linearGradient id="paint26_linear_47_607" x1="46.1" y1="-1.52314" x2="24.4612" y2="60.4342" gradientUnits="userSpaceOnUse">
<stop stop-color="#93E6ED"/>
<stop offset="1" stop-color="#2190B5"/>
</linearGradient>
<linearGradient id="paint27_linear_47_607" x1="85.5714" y1="12.4017" x2="71.1723" y2="83.781" gradientUnits="userSpaceOnUse">
<stop stop-color="#93E6ED"/>
<stop offset="1" stop-color="#2190B5"/>
</linearGradient>
<linearGradient id="paint28_linear_47_607" x1="120.919" y1="-3.58193" x2="101.542" y2="74.9228" gradientUnits="userSpaceOnUse">
<stop stop-color="#93E6ED"/>
<stop offset="1" stop-color="#2190B5"/>
</linearGradient>
<linearGradient id="paint29_linear_47_607" x1="136.119" y1="29.2334" x2="128.123" y2="67.8226" gradientUnits="userSpaceOnUse">
<stop stop-color="#93E6ED"/>
<stop offset="1" stop-color="#2190B5"/>
</linearGradient>
<linearGradient id="paint30_linear_47_607" x1="147.054" y1="-1.18865" x2="109.446" y2="57.1052" gradientUnits="userSpaceOnUse">
<stop stop-color="#93E6ED"/>
<stop offset="1" stop-color="#2190B5"/>
</linearGradient>
<radialGradient id="paint31_radial_47_607" cx="0" cy="0" r="1" gradientUnits="userSpaceOnUse" gradientTransform="translate(55.3647 4.16057) scale(105.101 116.385)">
<stop stop-color="#FFFAFF"/>
<stop offset="1" stop-color="#CFF2FF"/>
</radialGradient>
<linearGradient id="paint32_linear_47_607" x1="125.916" y1="-1.85217" x2="123.57" y2="16.5496" gradientUnits="userSpaceOnUse">
<stop stop-color="#93E6ED"/>
<stop offset="1" stop-color="#2190B5"/>
</linearGradient>
<radialGradient id="paint33_radial_47_607" cx="0" cy="0" r="1" gradientUnits="userSpaceOnUse" gradientTransform="translate(129.598 32.9435) scale(7.41891 8.2154)">
<stop stop-color="#C2EAFF"/>
<stop offset="1" stop-color="#6CAFF0"/>
</radialGradient>
<radialGradient id="paint34_radial_47_607" cx="0" cy="0" r="1" gradientUnits="userSpaceOnUse" gradientTransform="translate(24.3765 26.3751) rotate(6.41409) scale(12.2437 13.527)">
<stop stop-color="#C2EAFF"/>
<stop offset="1" stop-color="#6CAFF0"/>
</radialGradient>
<radialGradient id="paint35_radial_47_607" cx="0" cy="0" r="1" gradientUnits="userSpaceOnUse" gradientTransform="translate(133.106 28.1665) scale(11.3266 12.5426)">
<stop stop-color="#B4E5FF"/>
<stop offset="0.126" stop-color="#B0E0FF"/>
<stop offset="1" stop-color="#94C1FF"/>
</radialGradient>
<linearGradient id="paint36_linear_47_607" x1="64.0218" y1="61.5313" x2="113.55" y2="14.2969" gradientUnits="userSpaceOnUse">
<stop stop-color="#000080"/>
<stop offset="0.424373" stop-color="#2945DF"/>
<stop offset="0.982292" stop-color="#000080"/>
</linearGradient>
</defs>
</svg>
