<svg width="34" height="37" viewBox="0 0 34 37" fill="none" xmlns="http://www.w3.org/2000/svg">
<path d="M21.9709 18.0421H0.00276053V21.2552C-0.000981213 21.2866 -0.000981213 21.3184 0.00276053 21.3498C0.00276053 24.9845 4.91263 27.9723 10.9868 27.9723C17.0611 27.9723 21.9709 25.0063 21.9709 21.3498C21.9709 21.3134 21.9709 21.2843 21.9709 21.2552V18.0421Z" fill="url(#paint0_linear_47_656)"/>
<g style="mix-blend-mode:multiply">
<path style="mix-blend-mode:multiply" d="M0.00288959 20.8335V20.9206C-0.000841125 20.8917 -0.000841125 20.8624 0.00288959 20.8335H0.00288959Z" fill="url(#paint1_linear_47_656)"/>
<path opacity="0.5" d="M10.9868 27.2671C4.91263 27.2671 0.00276053 24.3012 0.00276053 20.6373V21.2552C-0.000981213 21.2866 -0.000981213 21.3183 0.00276053 21.3497C0.00276053 24.9845 4.91263 27.9723 10.9868 27.9723C17.0611 27.9723 21.9709 25.0063 21.9709 21.3497C21.9709 21.3134 21.9709 21.2843 21.9709 21.2552V20.6373C21.9709 24.3012 17.0541 27.2671 10.9868 27.2671Z" fill="url(#paint2_linear_47_656)"/>
</g>
<g style="mix-blend-mode:multiply">
<g style="mix-blend-mode:multiply">
<path d="M14.3537 27.6241L14.6553 27.5586V19.1696H14.3537V27.6241Z" fill="#FDD65B"/>
</g>
<g style="mix-blend-mode:multiply">
<path d="M15.7284 27.3188L16.037 27.2315V19.1696H15.7284V27.3188Z" fill="#FDD65B"/>
</g>
<g style="mix-blend-mode:multiply">
<path d="M17.1103 26.8535L17.4189 26.7154V19.1696H17.1103V26.8535Z" fill="#FDD65B"/>
</g>
<g style="mix-blend-mode:multiply">
<path d="M12.972 27.864H13.2807V19.1696H12.972V27.864Z" fill="#FDD65B"/>
</g>
<g style="mix-blend-mode:multiply">
<path d="M19.8667 25.2314L20.1753 24.9697V19.1541H19.8667V25.2314Z" fill="#FDD65B"/>
</g>
<g style="mix-blend-mode:multiply">
<path d="M21.2486 23.6912C21.3649 23.5104 21.4681 23.3209 21.5572 23.1242V19.1696H21.2486V23.6912Z" fill="#FDD65B"/>
</g>
<g style="mix-blend-mode:multiply">
<path d="M18.492 26.1693L18.8006 25.9949V19.1615H18.492V26.1693Z" fill="#FDD65B"/>
</g>
<g style="mix-blend-mode:multiply">
<path d="M11.5901 27.9584H11.9268V19.1696H11.6182L11.5901 27.9584Z" fill="#FDD65B"/>
</g>
<g style="mix-blend-mode:multiply">
<path d="M10.2084 27.9512H10.517V19.1696H10.2084V27.9512Z" fill="#FDD65B"/>
</g>
<g style="mix-blend-mode:multiply">
<path d="M7.45183 27.624C7.55704 27.624 7.65525 27.6749 7.76046 27.6895V19.1696H7.45183V27.624Z" fill="#FDD65B"/>
</g>
<g style="mix-blend-mode:multiply">
<path d="M8.83353 27.8487H9.14216V19.1252H8.83353V27.8487Z" fill="#FDD65B"/>
</g>
<g style="mix-blend-mode:multiply">
<path d="M6.07014 27.2679L6.37876 27.3624V19.1696H6.07014V27.2679Z" fill="#FDD65B"/>
</g>
<g style="mix-blend-mode:multiply">
<path d="M0.549973 23.4077C0.648168 23.5822 0.746363 23.7567 0.858587 23.9166V19.1696H0.549973V23.4077Z" fill="#FDD65B"/>
</g>
<g style="mix-blend-mode:multiply">
<path d="M1.93167 25.0943L2.24031 25.3487V19.1696H1.93167V25.0943Z" fill="#FDD65B"/>
</g>
<g style="mix-blend-mode:multiply">
<path d="M4.69524 26.7735L4.99683 26.9044V19.1696H4.69524V26.7735Z" fill="#FDD65B"/>
</g>
<g style="mix-blend-mode:multiply">
<path d="M3.31355 26.0829L3.62219 26.2574V19.1696H3.31355V26.0829Z" fill="#FDD65B"/>
</g>
</g>
<path d="M10.9872 24.7227C17.0536 24.7227 21.9713 21.7545 21.9713 18.0929C21.9713 14.4313 17.0536 11.4631 10.9872 11.4631C4.92086 11.4631 0.00311279 14.4313 0.00311279 18.0929C0.00311279 21.7545 4.92086 24.7227 10.9872 24.7227Z" fill="url(#paint3_linear_47_656)"/>
<path style="mix-blend-mode:screen" d="M10.9869 24.5411C5.04594 24.5411 0.227248 21.6987 0.0027972 18.1729C-0.000993436 18.2504 -0.000993436 18.3281 0.0027972 18.4056C0.0027972 22.0404 4.91267 25.0282 10.9869 25.0282C17.0611 25.0282 21.971 22.0622 21.971 18.4056C21.9748 18.3281 21.9748 18.2504 21.971 18.1729C21.7465 21.6987 16.9208 24.5411 10.9869 24.5411Z" fill="url(#paint4_radial_47_656)"/>
<path d="M19.1935 18.0929C19.1935 20.8263 15.5181 23.0435 10.9869 23.0435C6.45583 23.0435 2.80849 20.8263 2.80849 18.0929C2.80849 15.3596 6.48388 13.1351 11.022 13.1351C15.5601 13.1351 19.1935 15.3523 19.1935 18.0929Z" fill="url(#paint5_linear_47_656)"/>
<path style="mix-blend-mode:screen" d="M11.2604 13.3823C15.6442 13.3823 19.2144 15.4614 19.4458 18.0711C19.4458 17.9839 19.4458 17.8967 19.4458 17.8022C19.4458 15.0688 15.7704 12.8516 11.2393 12.8516C6.70822 12.8516 3.04685 15.0688 3.04685 17.8022C3.0396 17.8917 3.0396 17.9816 3.04685 18.0711C3.29936 15.4614 6.87656 13.3823 11.2604 13.3823Z" fill="url(#paint6_radial_47_656)"/>
<path style="mix-blend-mode:multiply" d="M10.9868 13.6658C15.3706 13.6658 18.9408 15.7449 19.1722 18.3547C19.1722 18.2675 19.1722 18.1802 19.1722 18.0857C19.1722 15.3524 15.4968 13.1351 10.9657 13.1351C6.43461 13.1351 2.80831 15.3524 2.80831 18.0857C2.80106 18.1752 2.80106 18.2652 2.80831 18.3547C3.02575 15.7449 6.60295 13.6658 10.9868 13.6658Z" fill="url(#paint7_linear_47_656)"/>
<path style="mix-blend-mode:color-dodge" d="M16.7526 11.7031C19.2215 12.5754 20.8839 14.3056 20.47 15.5777C20.0562 16.8499 17.7135 17.1625 15.2445 16.3047C12.7756 15.4469 11.1132 13.7022 11.5341 12.4373C11.9549 11.1724 14.2836 10.8307 16.7526 11.7031Z" fill="url(#paint8_radial_47_656)"/>
<g style="mix-blend-mode:multiply">
<path style="mix-blend-mode:multiply" d="M11.6182 16.53L10.9869 16.6826C10.7975 16.7335 10.5941 16.7917 10.3767 16.8644C10.1592 16.9371 9.95581 17.0243 9.75941 17.1115L10.4187 17.5041L10.6362 17.4241L10.8817 17.3369C11.2534 17.1988 11.5831 17.0825 11.9338 16.9952C12.2414 16.9048 12.5558 16.8416 12.8737 16.8062C13.1484 16.7695 13.4266 16.7695 13.7014 16.8062C13.9703 16.8573 14.2289 16.9556 14.4659 17.097C14.7009 17.2153 14.8928 17.4091 15.013 17.6495C15.0512 17.7439 15.0709 17.8452 15.0709 17.9475C15.0709 18.0499 15.0512 18.1512 15.013 18.2456C14.9207 18.4765 14.7792 18.6827 14.5992 18.8489C14.3855 19.0612 14.1503 19.2489 13.8977 19.4087L14.7885 19.9394L14.0871 20.3828L13.1823 19.8449C12.7092 20.0871 12.222 20.2983 11.7234 20.4773C11.2289 20.6616 10.7227 20.8098 10.2083 20.9208L9.73136 19.7068C9.97685 19.6559 10.2364 19.5977 10.5029 19.525L11.2464 19.3069C11.5111 19.2172 11.771 19.1128 12.025 18.9943L11.3797 18.6091C11.1482 18.6963 10.9097 18.7835 10.6783 18.8635C10.3513 18.98 10.0188 19.0795 9.68226 19.1615C9.41101 19.2311 9.13376 19.2725 8.85459 19.2851C8.61965 19.2997 8.38387 19.2826 8.15318 19.2342C7.94099 19.1847 7.7375 19.1013 7.54997 18.9871C7.32898 18.8704 7.14422 18.6915 7.01689 18.4709C6.92246 18.2911 6.89501 18.0815 6.93974 17.8821C6.99999 17.6568 7.1078 17.4483 7.25537 17.2715C7.44714 17.0466 7.66643 16.8486 7.90769 16.6826L7.16419 16.2392L7.90067 15.803L8.65118 16.2465C8.87563 16.1374 9.10009 16.0356 9.3526 15.9484C9.6051 15.8612 9.80851 15.7739 10.054 15.7012L10.7063 15.4977L11.2885 15.345L11.6182 16.53ZM9.12113 17.7512C9.20412 17.7998 9.30057 17.8178 9.39468 17.8021C9.53064 17.7884 9.66471 17.7591 9.79449 17.7149L9.24037 17.3805C9.03696 17.5477 9.00189 17.6713 9.12113 17.7512ZM12.6282 18.3619C12.5361 18.3183 12.4338 18.3031 12.3336 18.3183C12.1883 18.3388 12.0451 18.3728 11.9057 18.42L12.4458 18.7399C12.5861 18.6454 12.6633 18.5727 12.6843 18.5073C12.7053 18.4419 12.7334 18.3982 12.6703 18.3619H12.6282Z" fill="url(#paint9_linear_47_656)"/>
</g>
<path d="M11.6182 16.2465L10.9869 16.3991C10.7975 16.45 10.5941 16.5082 10.3767 16.5809C10.1593 16.6536 9.95585 16.7408 9.75946 16.828L10.4188 17.2206L10.6362 17.1406L10.8817 17.0534C11.2535 16.9153 11.5831 16.7989 11.9338 16.7117C12.2414 16.6213 12.5558 16.5581 12.8737 16.5227C13.1485 16.486 13.4266 16.486 13.7014 16.5227C13.9704 16.5738 14.2289 16.6721 14.4659 16.8135C14.7009 16.9318 14.8928 17.1256 15.013 17.366C15.0512 17.4604 15.0709 17.5617 15.0709 17.664C15.0709 17.7664 15.0512 17.8677 15.013 17.9621C14.9189 18.1919 14.7777 18.3978 14.5992 18.5655C14.3855 18.7777 14.1504 18.9654 13.8978 19.1252L14.7886 19.6559L14.0872 20.0993L13.1823 19.5614C12.7093 19.8036 12.222 20.0148 11.7234 20.1938C11.229 20.3781 10.7227 20.5263 10.2084 20.6373L9.7314 19.4233C9.97689 19.3724 10.2364 19.3142 10.503 19.2415L11.2254 19.0452C11.4901 18.9555 11.75 18.8512 12.004 18.7327L11.3587 18.3474C11.1272 18.4346 10.8887 18.5218 10.6573 18.6018C10.3303 18.7183 9.99785 18.8178 9.66126 18.8999C9.39001 18.9694 9.11276 19.0108 8.83359 19.0234C8.59865 19.0381 8.36287 19.021 8.13218 18.9725C7.91999 18.923 7.71651 18.8396 7.52897 18.7254C7.30798 18.6087 7.12322 18.4298 6.9959 18.2092C6.90147 18.0294 6.87401 17.8199 6.91874 17.6204C6.979 17.3951 7.08681 17.1866 7.23438 17.0098C7.42614 16.7849 7.64544 16.5869 7.88669 16.4209L7.12916 15.992L7.86565 15.5559L8.61616 15.9993C8.84061 15.8903 9.06506 15.7885 9.31757 15.7012C9.57007 15.614 9.77348 15.5268 10.019 15.4541L10.6713 15.2505L11.2535 15.0979L11.6182 16.2465ZM9.12117 17.4459C9.20416 17.4945 9.30061 17.5125 9.39472 17.4968C9.53876 17.4971 9.68235 17.48 9.82258 17.4459L9.26847 17.1115C9.037 17.2642 9.00193 17.3878 9.12117 17.4459ZM12.6282 18.0566C12.5361 18.013 12.4338 17.9978 12.3336 18.013C12.1937 18.0536 12.0575 18.1071 11.9268 18.1729L12.4669 18.4928C12.6072 18.3983 12.6843 18.3256 12.7054 18.2601C12.7264 18.1947 12.7334 18.1147 12.6703 18.0784L12.6282 18.0566Z" fill="url(#paint10_linear_47_656)"/>
<path style="mix-blend-mode:color-dodge" d="M11.6182 16.2465L10.9869 16.3991C10.7975 16.45 10.5941 16.5082 10.3767 16.5809C10.1593 16.6536 9.95585 16.7408 9.75946 16.828L10.4188 17.2206L10.6362 17.1406L10.8817 17.0534C11.2535 16.9153 11.5831 16.7989 11.9338 16.7117C12.2414 16.6213 12.5558 16.5581 12.8737 16.5227C13.1485 16.486 13.4266 16.486 13.7014 16.5227C13.9704 16.5738 14.2289 16.6721 14.4659 16.8135C14.7009 16.9318 14.8928 17.1256 15.013 17.366C15.0512 17.4604 15.0709 17.5617 15.0709 17.664C15.0709 17.7664 15.0512 17.8677 15.013 17.9621C14.9189 18.1919 14.7777 18.3978 14.5992 18.5655C14.3855 18.7777 14.1504 18.9654 13.8978 19.1252L14.7886 19.6559L14.0872 20.0993L13.1823 19.5614C12.7093 19.8036 12.222 20.0148 11.7234 20.1938C11.229 20.3781 10.7227 20.5263 10.2084 20.6373L9.7314 19.4233C9.97689 19.3724 10.2364 19.3142 10.503 19.2415L11.2254 19.0452C11.4901 18.9555 11.75 18.8512 12.004 18.7327L11.3587 18.3474C11.1272 18.4346 10.8887 18.5218 10.6573 18.6018C10.3303 18.7183 9.99785 18.8178 9.66126 18.8999C9.39001 18.9694 9.11276 19.0108 8.83359 19.0234C8.59865 19.0381 8.36287 19.021 8.13218 18.9725C7.91999 18.923 7.71651 18.8396 7.52897 18.7254C7.30798 18.6087 7.12322 18.4298 6.9959 18.2092C6.90147 18.0294 6.87401 17.8199 6.91874 17.6204C6.979 17.3951 7.08681 17.1866 7.23438 17.0098C7.42614 16.7849 7.64544 16.5869 7.88669 16.4209L7.12916 15.992L7.86565 15.5559L8.61616 15.9993C8.84061 15.8903 9.06506 15.7885 9.31757 15.7012C9.57007 15.614 9.77348 15.5268 10.019 15.4541L10.6713 15.2505L11.2535 15.0979L11.6182 16.2465ZM9.12117 17.4459C9.20416 17.4945 9.30061 17.5125 9.39472 17.4968C9.53876 17.4971 9.68235 17.48 9.82258 17.4459L9.26847 17.1115C9.037 17.2642 9.00193 17.3878 9.12117 17.4459ZM12.6282 18.0566C12.5361 18.013 12.4338 17.9978 12.3336 18.013C12.1937 18.0536 12.0575 18.1071 11.9268 18.1729L12.4669 18.4928C12.6072 18.3983 12.6843 18.3256 12.7054 18.2601C12.7264 18.1947 12.7334 18.1147 12.6703 18.0784L12.6282 18.0566Z" fill="url(#paint11_radial_47_656)"/>
<path d="M21.9711 14.4509H0.00289152V17.664C-0.000556939 17.693 -0.000556939 17.7223 0.00289152 17.7512C0.00289152 21.386 4.91277 24.381 10.987 24.381C17.0612 24.381 21.9711 21.4151 21.9711 17.7512C21.9711 17.7512 21.9711 17.6931 21.9711 17.664V14.4509Z" fill="url(#paint12_linear_47_656)"/>
<g style="mix-blend-mode:multiply">
<path style="mix-blend-mode:multiply" d="M0.00291145 17.2366V17.3319C-0.000848411 17.3002 -0.000848411 17.2683 0.00291145 17.2366Z" fill="url(#paint13_linear_47_656)"/>
<path opacity="0.5" d="M10.9868 23.6759C4.91263 23.6759 0.00275419 20.7027 0.00275419 17.0461V17.664C-0.000694267 17.6929 -0.000694267 17.7222 0.00275419 17.7512C0.00275419 21.386 4.91263 24.3811 10.9868 24.3811C17.0611 24.3811 21.9709 21.4151 21.9709 17.7512C21.9709 17.7512 21.9709 17.693 21.9709 17.664V17.0461C21.9709 20.7027 17.054 23.6759 10.9868 23.6759Z" fill="url(#paint14_linear_47_656)"/>
</g>
<g style="mix-blend-mode:multiply">
<g style="mix-blend-mode:multiply">
<path d="M14.3537 24.0605L14.6553 23.995V15.5769H14.3537V24.0605Z" fill="#FDD65B"/>
</g>
<g style="mix-blend-mode:multiply">
<path d="M15.7284 23.7261L16.037 23.6388V15.5769H15.7284V23.7261Z" fill="#FDD65B"/>
</g>
<g style="mix-blend-mode:multiply">
<path d="M17.1103 23.2608L17.4189 23.1227V15.5769H17.1103V23.2608Z" fill="#FDD65B"/>
</g>
<g style="mix-blend-mode:multiply">
<path d="M12.972 24.2713H13.2807V15.5769H12.972V24.2713Z" fill="#FDD65B"/>
</g>
<g style="mix-blend-mode:multiply">
<path d="M19.8667 21.6404L20.1753 21.3787V15.5631H19.8667V21.6404Z" fill="#FDD65B"/>
</g>
<g style="mix-blend-mode:multiply">
<path d="M21.2486 20.0985C21.3635 19.9168 21.4666 19.7274 21.5572 19.5315V15.5769H21.2486V20.0985Z" fill="#FDD65B"/>
</g>
<g style="mix-blend-mode:multiply">
<path d="M18.492 22.5848L18.8006 22.4103V15.5769H18.492V22.5848Z" fill="#FDD65B"/>
</g>
<g style="mix-blend-mode:multiply">
<path d="M11.5901 24.3658H11.8987V15.5769H11.5901V24.3658Z" fill="#FDD65B"/>
</g>
<g style="mix-blend-mode:multiply">
<path d="M10.2084 24.3585H10.5241V15.5769H10.2154L10.2084 24.3585Z" fill="#FDD65B"/>
</g>
<g style="mix-blend-mode:multiply">
<path d="M7.45183 24.0241L7.76046 24.0895V15.5769H7.45183V24.0241Z" fill="#FDD65B"/>
</g>
<g style="mix-blend-mode:multiply">
<path d="M8.83353 24.2503H9.14216V15.5268H8.83353V24.2503Z" fill="#FDD65B"/>
</g>
<g style="mix-blend-mode:multiply">
<path d="M6.07014 23.6752L6.37876 23.7624V15.5769H6.07014V23.6752Z" fill="#FDD65B"/>
</g>
<g style="mix-blend-mode:multiply">
<path d="M0.549973 19.815C0.648168 19.9895 0.746363 20.1567 0.858587 20.3239V15.5769H0.549973V19.815Z" fill="#FDD65B"/>
</g>
<g style="mix-blend-mode:multiply">
<path d="M1.93167 21.5016C2.02987 21.5888 2.13509 21.6688 2.24031 21.7488V15.5769H1.93167V21.5016Z" fill="#FDD65B"/>
</g>
<g style="mix-blend-mode:multiply">
<path d="M4.69524 23.1809L4.99683 23.3045V15.5769H4.69524V23.1809Z" fill="#FDD65B"/>
</g>
<g style="mix-blend-mode:multiply">
<path d="M3.31355 22.4903L3.62219 22.6575V15.5769H3.31355V22.4903Z" fill="#FDD65B"/>
</g>
</g>
<path d="M10.9872 21.1244C17.0536 21.1244 21.9713 18.1561 21.9713 14.4945C21.9713 10.833 17.0536 7.86469 10.9872 7.86469C4.92086 7.86469 0.00311279 10.833 0.00311279 14.4945C0.00311279 18.1561 4.92086 21.1244 10.9872 21.1244Z" fill="url(#paint15_linear_47_656)"/>
<path style="mix-blend-mode:screen" d="M10.9872 20.9499C5.04626 20.9499 0.227564 18.1002 0.00311279 14.5381C0.00311279 14.6108 0.00311279 14.6908 0.00311279 14.7635C0.00311279 18.3983 4.91299 21.3934 10.9872 21.3934C17.0614 21.3934 21.9713 18.4274 21.9713 14.7635C21.9713 14.6908 21.9713 14.6108 21.9713 14.5381C21.7468 18.1002 16.9211 20.9499 10.9872 20.9499Z" fill="url(#paint16_radial_47_656)"/>
<path d="M19.1935 14.4945C19.1935 17.2351 15.5181 19.4523 10.9869 19.4523C6.45583 19.4523 2.80849 17.2351 2.80849 14.4945C2.80849 11.7538 6.48388 9.54388 11.022 9.54388C15.5601 9.54388 19.1935 11.7611 19.1935 14.4945Z" fill="url(#paint17_linear_47_656)"/>
<path style="mix-blend-mode:screen" d="M11.2604 9.79111C15.6443 9.79111 19.2144 11.8629 19.4459 14.4799C19.4459 14.3927 19.4459 14.3055 19.4459 14.211C19.4459 11.4776 15.7705 9.26044 11.2394 9.26044C6.70828 9.26044 3.02587 11.4413 3.02587 14.211C3.01862 14.3005 3.01862 14.3904 3.02587 14.4799C3.29942 11.8629 6.87662 9.79111 11.2604 9.79111Z" fill="url(#paint18_radial_47_656)"/>
<path style="mix-blend-mode:multiply" d="M10.9868 10.0746C15.3706 10.0746 18.9408 12.1537 19.1722 14.7635C19.1722 14.6762 19.1722 14.589 19.1722 14.4945C19.1722 11.7611 15.4968 9.54388 10.9657 9.54388C6.43461 9.54388 2.80831 11.7611 2.80831 14.4945C2.80106 14.584 2.80106 14.674 2.80831 14.7635C3.02575 12.1537 6.60295 10.0746 10.9868 10.0746Z" fill="url(#paint19_linear_47_656)"/>
<path style="mix-blend-mode:color-dodge" d="M16.7526 8.11189C19.2215 8.98423 20.8839 10.7144 20.47 11.9793C20.0562 13.2442 17.7135 13.5713 15.2445 12.7062C12.7756 11.8412 11.1132 10.1037 11.5341 8.83884C11.9549 7.57394 14.2836 7.26862 16.7526 8.11189Z" fill="url(#paint20_radial_47_656)"/>
<g style="mix-blend-mode:multiply">
<path style="mix-blend-mode:multiply" d="M11.6182 12.9388L10.9869 13.0915C10.7975 13.1424 10.5941 13.2005 10.3767 13.2732C10.1667 13.3436 9.96058 13.4261 9.75944 13.5204L10.4188 13.9129L10.6362 13.833L10.8817 13.7457C11.2558 13.6052 11.6065 13.4889 11.9338 13.3968C12.2423 13.3121 12.5565 13.2513 12.8737 13.2151C13.1485 13.1784 13.4266 13.1784 13.7014 13.2151C13.9703 13.2661 14.2289 13.3645 14.4659 13.5058C14.7009 13.6242 14.8928 13.8179 15.013 14.0583C15.0512 14.1527 15.0709 14.254 15.0709 14.3564C15.0709 14.4587 15.0512 14.56 15.013 14.6544C14.9202 14.8829 14.7787 15.0867 14.5992 15.2505C14.3858 15.4652 14.1506 15.6553 13.8978 15.8175L14.7886 16.3482L14.0871 16.7917L13.1823 16.2464C12.7107 16.4941 12.2233 16.7078 11.7234 16.8862C11.2279 17.0671 10.7219 17.2152 10.2083 17.3296L9.73139 16.1156C9.97688 16.0647 10.2364 16.0066 10.5029 15.9339L11.2464 15.7158C11.5111 15.626 11.771 15.5217 12.025 15.4032L11.3797 15.0179C11.1482 15.1051 10.9098 15.1924 10.6783 15.2723C10.3513 15.3888 10.0189 15.4883 9.68229 15.5704C9.4104 15.6365 9.13346 15.6778 8.85463 15.694C8.61934 15.7101 8.38304 15.6905 8.15322 15.6358C7.94143 15.5885 7.73796 15.5076 7.55 15.3959C7.32693 15.279 7.14165 15.0971 7.01693 14.8725C6.92168 14.6956 6.89413 14.488 6.93978 14.2909C6.99598 14.064 7.10427 13.8545 7.25541 13.6803C7.44718 13.4554 7.66647 13.2575 7.90772 13.0915L7.16423 12.648L7.90071 12.2046L8.65122 12.6553C8.87567 12.5463 9.10012 12.4445 9.35263 12.3573C9.60513 12.27 9.80854 12.1828 10.054 12.1101C10.2995 12.0374 10.5029 11.9647 10.7063 11.9065L11.2885 11.7466L11.6182 12.9388ZM9.12116 14.1601C9.20531 14.2053 9.30066 14.223 9.39471 14.211C9.53067 14.1972 9.66475 14.168 9.79452 14.1237L9.26144 13.8112C9.03699 13.9493 9.00192 14.0729 9.12116 14.1601ZM12.6282 14.7707C12.5372 14.7235 12.4338 14.7082 12.3336 14.7271C12.1885 14.7448 12.0452 14.7764 11.9058 14.8216L12.4458 15.1487C12.5443 15.0952 12.6268 15.0147 12.6843 14.9161C12.7545 14.858 12.7334 14.8071 12.6703 14.7707H12.6282Z" fill="url(#paint21_linear_47_656)"/>
</g>
<path d="M11.6182 12.6553L10.9869 12.808C10.7975 12.8589 10.5941 12.917 10.3767 12.9897C10.1592 13.0624 9.95584 13.1424 9.75944 13.2296L10.4188 13.6294L10.6362 13.5495L10.8817 13.4622C11.2558 13.3217 11.6065 13.2054 11.9338 13.1133C12.2423 13.0286 12.5565 12.9678 12.8737 12.9315C13.1485 12.8949 13.4266 12.8949 13.7014 12.9315C13.9703 12.9826 14.2289 13.081 14.4659 13.2223C14.7009 13.3407 14.8928 13.5344 15.013 13.7748C15.0512 13.8692 15.0709 13.9705 15.0709 14.0729C15.0709 14.1752 15.0512 14.2766 15.013 14.3709C14.9202 14.5995 14.7787 14.8032 14.5992 14.967C14.3858 15.1817 14.1506 15.3718 13.8978 15.5341L14.7886 16.0648L14.0871 16.5082L13.1473 15.9921C12.6757 16.2397 12.1882 16.4534 11.6883 16.6318C11.1929 16.8127 10.6868 16.9608 10.1733 17.0752L9.69632 15.8612C9.94181 15.8103 10.2013 15.7522 10.4679 15.6795L11.2114 15.4614C11.4761 15.3716 11.736 15.2673 11.9899 15.1488L11.3446 14.7635C11.1132 14.8507 10.8747 14.938 10.6432 15.0179C10.2785 15.1415 9.94181 15.2433 9.64722 15.316C9.37533 15.3821 9.09839 15.4234 8.81956 15.4396C8.58427 15.4557 8.34797 15.4361 8.11815 15.3814C7.90636 15.3341 7.70289 15.2532 7.51493 15.1415C7.30383 15.017 7.13115 14.833 7.01693 14.6108C6.92168 14.4339 6.89413 14.2263 6.93978 14.0293C6.99598 13.8023 7.10427 13.5928 7.25541 13.4186C7.44718 13.1937 7.66647 12.9958 7.90772 12.8298L7.12916 12.3572L7.86564 11.9138L8.61615 12.3645C8.8406 12.2555 9.06505 12.1537 9.31756 12.0665C9.57006 11.9792 9.77347 11.892 10.019 11.8193C10.2645 11.7466 10.4679 11.6739 10.6713 11.6157L11.2254 11.4849L11.6182 12.6553ZM9.12116 13.8766C9.20531 13.9218 9.30066 13.9395 9.39471 13.9275C9.54129 13.9065 9.68493 13.8675 9.82257 13.8112L9.26846 13.4768C9.03699 13.6658 9.00192 13.8112 9.12116 13.8766ZM12.6282 14.4872C12.5372 14.44 12.4338 14.4247 12.3336 14.4436C12.1956 14.4626 12.0594 14.4942 11.9268 14.5381L12.4669 14.8653C12.5653 14.8117 12.6478 14.7313 12.7054 14.6326C12.7545 14.5745 12.7334 14.5381 12.6703 14.4872H12.6282Z" fill="url(#paint22_linear_47_656)"/>
<path style="mix-blend-mode:color-dodge" d="M11.6182 12.6553L10.9869 12.808C10.7975 12.8589 10.5941 12.917 10.3767 12.9897C10.1592 13.0624 9.95584 13.1424 9.75944 13.2296L10.4188 13.6294L10.6362 13.5495L10.8817 13.4622C11.2558 13.3217 11.6065 13.2054 11.9338 13.1133C12.2423 13.0286 12.5565 12.9678 12.8737 12.9315C13.1485 12.8949 13.4266 12.8949 13.7014 12.9315C13.9703 12.9826 14.2289 13.081 14.4659 13.2223C14.7009 13.3407 14.8928 13.5344 15.013 13.7748C15.0512 13.8692 15.0709 13.9705 15.0709 14.0729C15.0709 14.1752 15.0512 14.2766 15.013 14.3709C14.9202 14.5995 14.7787 14.8032 14.5992 14.967C14.3858 15.1817 14.1506 15.3718 13.8978 15.5341L14.7886 16.0648L14.0871 16.5082L13.1473 15.9921C12.6757 16.2397 12.1882 16.4534 11.6883 16.6318C11.1929 16.8127 10.6868 16.9608 10.1733 17.0752L9.69632 15.8612C9.94181 15.8103 10.2013 15.7522 10.4679 15.6795L11.2114 15.4614C11.4761 15.3716 11.736 15.2673 11.9899 15.1488L11.3446 14.7635C11.1132 14.8507 10.8747 14.938 10.6432 15.0179C10.2785 15.1415 9.94181 15.2433 9.64722 15.316C9.37533 15.3821 9.09839 15.4234 8.81956 15.4396C8.58427 15.4557 8.34797 15.4361 8.11815 15.3814C7.90636 15.3341 7.70289 15.2532 7.51493 15.1415C7.30383 15.017 7.13115 14.833 7.01693 14.6108C6.92168 14.4339 6.89413 14.2263 6.93978 14.0293C6.99598 13.8023 7.10427 13.5928 7.25541 13.4186C7.44718 13.1937 7.66647 12.9958 7.90772 12.8298L7.12916 12.3572L7.86564 11.9138L8.61615 12.3645C8.8406 12.2555 9.06505 12.1537 9.31756 12.0665C9.57006 11.9792 9.77347 11.892 10.019 11.8193C10.2645 11.7466 10.4679 11.6739 10.6713 11.6157L11.2254 11.4849L11.6182 12.6553ZM9.12116 13.8766C9.20531 13.9218 9.30066 13.9395 9.39471 13.9275C9.54129 13.9065 9.68493 13.8675 9.82257 13.8112L9.26846 13.4768C9.03699 13.6658 9.00192 13.8112 9.12116 13.8766ZM12.6282 14.4872C12.5372 14.44 12.4338 14.4247 12.3336 14.4436C12.1956 14.4626 12.0594 14.4942 11.9268 14.5381L12.4669 14.8653C12.5653 14.8117 12.6478 14.7313 12.7054 14.6326C12.7545 14.5745 12.7334 14.5381 12.6703 14.4872H12.6282Z" fill="url(#paint23_radial_47_656)"/>
<path d="M21.9711 10.6707H0.00289152V13.8838C-0.000556939 13.9128 -0.000556939 13.9421 0.00289152 13.9711C0.00289152 17.6058 4.91277 20.6009 10.987 20.6009C17.0612 20.6009 21.9711 17.6349 21.9711 13.9711C21.9711 13.9711 21.9711 13.9129 21.9711 13.8838V10.6707Z" fill="url(#paint24_linear_47_656)"/>
<g style="mix-blend-mode:multiply">
<path style="mix-blend-mode:multiply" d="M0.00294694 13.455V13.5502C-0.00110438 13.5186 -0.00110438 13.4866 0.00294694 13.455Z" fill="url(#paint25_linear_47_656)"/>
<path opacity="0.5" d="M10.987 19.8885C4.91283 19.8885 0.00295255 16.9225 0.00295255 13.266V13.8839C-0.000495903 13.9128 -0.000495903 13.9421 0.00295255 13.9711C0.00295255 17.6058 4.91283 20.6009 10.987 20.6009C17.0613 20.6009 21.9711 17.6349 21.9711 13.9711C21.9711 13.9711 21.9711 13.9129 21.9711 13.8839V13.266C21.9711 16.9225 17.0542 19.8885 10.987 19.8885Z" fill="url(#paint26_linear_47_656)"/>
</g>
<g style="mix-blend-mode:multiply">
<g style="mix-blend-mode:multiply">
<path d="M14.3537 20.2815L14.6553 20.216V11.7979H14.3537V20.2815Z" fill="#FDD65B"/>
</g>
<g style="mix-blend-mode:multiply">
<path d="M15.7284 19.9471L16.037 19.8525V11.7979H15.7284V19.9471Z" fill="#FDD65B"/>
</g>
<g style="mix-blend-mode:multiply">
<path d="M17.1103 19.4746L17.4189 19.3365V11.7979H17.1103V19.4746Z" fill="#FDD65B"/>
</g>
<g style="mix-blend-mode:multiply">
<path d="M12.972 20.485H13.2807V11.7979H12.972V20.485Z" fill="#FDD65B"/>
</g>
<g style="mix-blend-mode:multiply">
<path d="M19.8667 17.8602L20.1753 17.5985V11.7829H19.8667V17.8602Z" fill="#FDD65B"/>
</g>
<g style="mix-blend-mode:multiply">
<path d="M21.2486 16.3196C21.362 16.137 21.4651 15.9477 21.5572 15.7526V11.7979H21.2486V16.3196Z" fill="#FDD65B"/>
</g>
<g style="mix-blend-mode:multiply">
<path d="M18.492 18.8058L18.8006 18.6313V11.7979H18.492V18.8058Z" fill="#FDD65B"/>
</g>
<g style="mix-blend-mode:multiply">
<path d="M11.5901 20.5795H11.9268V11.7979H11.6182L11.5901 20.5795Z" fill="#FDD65B"/>
</g>
<g style="mix-blend-mode:multiply">
<path d="M10.2084 20.5795H10.5241V11.7979H10.2154L10.2084 20.5795Z" fill="#FDD65B"/>
</g>
<g style="mix-blend-mode:multiply">
<path d="M7.45183 20.2451L7.76046 20.3105V11.7979H7.45183V20.2451Z" fill="#FDD65B"/>
</g>
<g style="mix-blend-mode:multiply">
<path d="M8.83353 20.47H9.14216V11.7466H8.83353V20.47Z" fill="#FDD65B"/>
</g>
<g style="mix-blend-mode:multiply">
<path d="M6.07014 19.8962L6.37876 19.9834V11.7979H6.07014V19.8962Z" fill="#FDD65B"/>
</g>
<g style="mix-blend-mode:multiply">
<path d="M0.549973 16.036C0.648168 16.2105 0.746363 16.3777 0.858587 16.5449V11.7979H0.549973V16.036Z" fill="#FDD65B"/>
</g>
<g style="mix-blend-mode:multiply">
<path d="M1.93167 17.7226C2.02987 17.8098 2.13509 17.8898 2.24031 17.9698V11.7979H1.93167V17.7226Z" fill="#FDD65B"/>
</g>
<g style="mix-blend-mode:multiply">
<path d="M4.69524 19.4018L4.99683 19.5254V11.7979H4.69524V19.4018Z" fill="#FDD65B"/>
</g>
<g style="mix-blend-mode:multiply">
<path d="M3.31355 18.7112L3.62219 18.8784V11.7979H3.31355V18.7112Z" fill="#FDD65B"/>
</g>
</g>
<path d="M10.9872 17.3442C17.0536 17.3442 21.9713 14.3759 21.9713 10.7144C21.9713 7.05279 17.0536 4.0845 10.9872 4.0845C4.92086 4.0845 0.00311279 7.05279 0.00311279 10.7144C0.00311279 14.3759 4.92086 17.3442 10.9872 17.3442Z" fill="url(#paint27_linear_47_656)"/>
<path style="mix-blend-mode:screen" d="M10.9872 17.1625C5.04626 17.1625 0.227564 14.32 0.00311279 10.7652C0.00311279 10.8452 0.00311279 10.9179 0.00311279 10.9978C0.00311279 14.6326 4.91299 17.6277 10.9872 17.6277C17.0614 17.6277 21.9713 14.6617 21.9713 10.9978C21.9713 10.9179 21.9713 10.8452 21.9713 10.7652C21.7468 14.32 16.9211 17.1625 10.9872 17.1625Z" fill="url(#paint28_radial_47_656)"/>
<path d="M19.1935 10.7144C19.1935 13.4477 15.5181 15.6722 10.9869 15.6722C6.45583 15.6722 2.80849 13.4477 2.80849 10.7144C2.80849 7.98104 6.44881 5.75656 10.9869 5.75656C15.5251 5.75656 19.1935 7.99558 19.1935 10.7144Z" fill="url(#paint29_linear_47_656)"/>
<path style="mix-blend-mode:screen" d="M11.2605 6.01097C15.6443 6.01097 19.2145 8.08277 19.446 10.6998C19.446 10.6053 19.446 10.5181 19.446 10.4308C19.446 7.69749 15.7706 5.47302 11.2395 5.47302C6.70836 5.47302 3.047 7.69749 3.047 10.4308C3.04049 10.5204 3.04049 10.6103 3.047 10.6998C3.29951 8.08277 6.8767 6.01097 11.2605 6.01097Z" fill="url(#paint30_radial_47_656)"/>
<path style="mix-blend-mode:multiply" d="M10.9869 6.2945C15.3708 6.2945 18.9409 8.36631 19.1724 10.9833C19.1724 10.8888 19.1724 10.8016 19.1724 10.7144C19.1724 7.98103 15.497 5.75656 10.9659 5.75656C6.43477 5.75656 2.80848 7.99557 2.80848 10.7144C2.80196 10.8039 2.80196 10.8938 2.80848 10.9833C3.02591 8.36631 6.60311 6.2945 10.9869 6.2945Z" fill="url(#paint31_linear_47_656)"/>
<path style="mix-blend-mode:color-dodge" d="M20.467 8.2002C20.8827 6.93458 19.219 5.2027 16.751 4.33194C14.283 3.46118 11.9454 3.78128 11.5296 5.04689C11.1139 6.31251 12.7776 8.04439 15.2456 8.91515C17.7136 9.78591 20.0512 9.46582 20.467 8.2002Z" fill="url(#paint32_radial_47_656)"/>
<g style="mix-blend-mode:multiply">
<path style="mix-blend-mode:multiply" d="M11.6182 9.15869C11.4052 9.19736 11.1944 9.24833 10.9869 9.31135C10.7975 9.35497 10.5941 9.4204 10.3767 9.49309C10.1593 9.56579 9.95585 9.64575 9.75945 9.73299L10.4188 10.1328L10.6362 10.0456L10.8817 9.95834C11.2535 9.82749 11.5831 9.71118 11.9338 9.61667C12.242 9.5334 12.5564 9.47746 12.8737 9.44947C13.148 9.40551 13.4271 9.40551 13.7014 9.44947C13.9712 9.49727 14.2303 9.59582 14.4659 9.74025C14.7009 9.85857 14.8928 10.0523 15.013 10.2927C15.0512 10.3871 15.0709 10.4884 15.0709 10.5908C15.0709 10.6931 15.0512 10.7945 15.013 10.8888C14.9202 11.1174 14.7788 11.3211 14.5992 11.4849C14.384 11.6974 14.149 11.8874 13.8978 12.052L14.7886 12.5826L14.0871 13.0188L13.1823 12.4809C12.7107 12.7285 12.2233 12.9422 11.7234 13.1206C11.2279 13.3015 10.7219 13.4496 10.2084 13.564L9.69632 12.3573C9.94182 12.3064 10.2013 12.2482 10.4679 12.1755C10.7344 12.1028 10.9378 12.0447 11.2114 11.9502C11.4785 11.8645 11.7387 11.7576 11.9899 11.6303L11.3446 11.245C11.1108 11.3371 10.877 11.4244 10.6432 11.5067C10.2785 11.6303 9.94182 11.7321 9.64723 11.8048C9.37469 11.8673 9.09803 11.9086 8.81956 11.9284C8.58431 11.9407 8.34852 11.9211 8.11815 11.8702C7.90596 11.8206 7.70248 11.7373 7.51494 11.6231C7.29114 11.5106 7.10533 11.3307 6.98187 11.1069C6.88727 10.9298 6.85976 10.7224 6.90471 10.5254C6.96092 10.2984 7.0692 10.0889 7.22035 9.91472C7.41212 9.68984 7.63141 9.49189 7.87266 9.32589L7.12917 8.88245L7.86565 8.43901L8.61615 8.88972C8.8406 8.78068 9.06506 8.67891 9.31756 8.5844L10.019 8.33724L10.6713 8.14096L11.2254 7.99557L11.6182 9.15869ZM9.12117 10.38C9.20532 10.4251 9.30067 10.4429 9.39472 10.4309C9.53067 10.4171 9.66475 10.3878 9.79452 10.3436L9.24041 10.0092C9.037 10.1764 9.00193 10.2927 9.12117 10.38ZM12.6282 10.9906C12.5372 10.9434 12.4338 10.9281 12.3336 10.947C12.1885 10.9647 12.0452 10.9963 11.9058 11.0415L12.4458 11.3686C12.5443 11.315 12.6268 11.2346 12.6843 11.136C12.7545 11.0778 12.7334 11.027 12.6703 10.9906H12.6282Z" fill="url(#paint33_linear_47_656)"/>
</g>
<path d="M11.6181 8.87519C11.4051 8.91386 11.1944 8.96483 10.9869 9.02785C10.7975 9.07147 10.5941 9.1369 10.3766 9.20959C10.1592 9.28229 9.95577 9.36225 9.75938 9.44949L10.4187 9.84931L10.6361 9.76208L10.8816 9.67484C11.2534 9.54399 11.5831 9.42768 11.9338 9.33317C12.2415 9.24499 12.5559 9.18419 12.8736 9.15144C13.1479 9.10747 13.4271 9.10747 13.7013 9.15144C13.9711 9.19923 14.2302 9.29778 14.4659 9.44222C14.7009 9.56053 14.8927 9.7543 15.013 9.9947C15.0512 10.0891 15.0708 10.1904 15.0708 10.2927C15.0708 10.3951 15.0512 10.4964 15.013 10.5908C14.9202 10.8193 14.7787 11.0231 14.5991 11.1869C14.3839 11.3994 14.149 11.5893 13.8977 11.7539L14.7885 12.2846L14.0871 12.7208L13.1823 12.1828C12.7107 12.4305 12.2232 12.6442 11.7233 12.8225C11.2279 13.0034 10.7218 13.1516 10.2083 13.266L9.73132 12.052C9.97682 12.0011 10.2363 11.9429 10.5029 11.8702C10.7694 11.7975 10.9728 11.7394 11.2464 11.6449C11.5133 11.5616 11.7735 11.457 12.0249 11.3323L11.3796 10.947C11.1458 11.0439 10.912 11.1312 10.6782 11.2087C10.3135 11.3323 9.97682 11.4341 9.68222 11.5068C9.40968 11.5692 9.13303 11.6105 8.85456 11.6303C8.61931 11.6427 8.38351 11.6231 8.15315 11.5722C7.94096 11.5226 7.73747 11.4392 7.54993 11.325C7.32906 11.2184 7.14358 11.0464 7.01686 10.8307C6.92226 10.6535 6.89475 10.4462 6.9397 10.2491C6.99591 10.0222 7.10419 9.81271 7.25534 9.63849C7.44711 9.41361 7.6664 9.21566 7.90765 9.04966L7.16415 8.60622L7.90064 8.16278L8.65115 8.61349C8.8756 8.50445 9.10005 8.40268 9.35256 8.30817C9.60507 8.21367 9.80848 8.1337 10.054 8.06101L10.7063 7.86473L11.2253 7.7048L11.6181 8.87519ZM9.12109 10.0965C9.20524 10.1416 9.3006 10.1594 9.39464 10.1474C9.5306 10.1336 9.66468 10.1043 9.79445 10.0601L9.24033 9.72573C9.03692 9.88566 9.00185 10.0092 9.12109 10.0965ZM12.6282 10.7071C12.5371 10.6599 12.4337 10.6446 12.3336 10.6635C12.1884 10.6812 12.0452 10.7128 11.9057 10.758L12.4458 11.0851C12.5442 11.0316 12.6267 10.9511 12.6843 10.8525C12.7544 10.7943 12.7334 10.7435 12.6702 10.7071H12.6282Z" fill="url(#paint34_linear_47_656)"/>
<path style="mix-blend-mode:color-dodge" d="M11.6181 8.87519C11.4051 8.91386 11.1944 8.96483 10.9869 9.02785C10.7975 9.07147 10.5941 9.1369 10.3766 9.20959C10.1592 9.28229 9.95577 9.36225 9.75938 9.44949L10.4187 9.84931L10.6361 9.76208L10.8816 9.67484C11.2534 9.54399 11.5831 9.42768 11.9338 9.33317C12.2415 9.24499 12.5559 9.18419 12.8736 9.15144C13.1479 9.10747 13.4271 9.10747 13.7013 9.15144C13.9711 9.19923 14.2302 9.29778 14.4659 9.44222C14.7009 9.56053 14.8927 9.7543 15.013 9.9947C15.0512 10.0891 15.0708 10.1904 15.0708 10.2927C15.0708 10.3951 15.0512 10.4964 15.013 10.5908C14.9202 10.8193 14.7787 11.0231 14.5991 11.1869C14.3839 11.3994 14.149 11.5893 13.8977 11.7539L14.7885 12.2846L14.0871 12.7208L13.1823 12.1828C12.7107 12.4305 12.2232 12.6442 11.7233 12.8225C11.2279 13.0034 10.7218 13.1516 10.2083 13.266L9.73132 12.052C9.97682 12.0011 10.2363 11.9429 10.5029 11.8702C10.7694 11.7975 10.9728 11.7394 11.2464 11.6449C11.5133 11.5616 11.7735 11.457 12.0249 11.3323L11.3796 10.947C11.1458 11.0439 10.912 11.1312 10.6782 11.2087C10.3135 11.3323 9.97682 11.4341 9.68222 11.5068C9.40968 11.5692 9.13303 11.6105 8.85456 11.6303C8.61931 11.6427 8.38351 11.6231 8.15315 11.5722C7.94096 11.5226 7.73747 11.4392 7.54993 11.325C7.32906 11.2184 7.14358 11.0464 7.01686 10.8307C6.92226 10.6535 6.89475 10.4462 6.9397 10.2491C6.99591 10.0222 7.10419 9.81271 7.25534 9.63849C7.44711 9.41361 7.6664 9.21566 7.90765 9.04966L7.16415 8.60622L7.90064 8.16278L8.65115 8.61349C8.8756 8.50445 9.10005 8.40268 9.35256 8.30817C9.60507 8.21367 9.80848 8.1337 10.054 8.06101L10.7063 7.86473L11.2253 7.7048L11.6181 8.87519ZM9.12109 10.0965C9.20524 10.1416 9.3006 10.1594 9.39464 10.1474C9.5306 10.1336 9.66468 10.1043 9.79445 10.0601L9.24033 9.72573C9.03692 9.88566 9.00185 10.0092 9.12109 10.0965ZM12.6282 10.7071C12.5371 10.6599 12.4337 10.6446 12.3336 10.6635C12.1884 10.6812 12.0452 10.7128 11.9057 10.758L12.4458 11.0851C12.5442 11.0316 12.6267 10.9511 12.6843 10.8525C12.7544 10.7943 12.7334 10.7435 12.6702 10.7071H12.6282Z" fill="url(#paint35_radial_47_656)"/>
<path d="M21.9709 6.82504H0.00274536V10.0382C-0.000732016 10.0696 -0.000732016 10.1013 0.00274536 10.1327C0.00274536 13.7675 4.91262 16.7625 10.9868 16.7625C17.0611 16.7625 21.9709 13.8111 21.9709 10.1327C21.9709 10.1327 21.9709 10.0673 21.9709 10.0382V6.82504Z" fill="url(#paint36_linear_47_656)"/>
<g style="mix-blend-mode:multiply">
<path style="mix-blend-mode:multiply" d="M0.00288959 9.61792V9.7051C-0.000841125 9.67615 -0.000841125 9.64687 0.00288959 9.61792H0.00288959Z" fill="url(#paint37_linear_47_656)"/>
<path opacity="0.5" d="M10.9868 16.0503C4.91262 16.0503 0.00274536 13.0843 0.00274536 9.44946V10.0674C-0.000732016 10.0988 -0.000732016 10.1305 0.00274536 10.1619C0.00274536 13.7967 4.91262 16.7918 10.9868 16.7918C17.0611 16.7918 21.9709 13.8112 21.9709 10.1328C21.9709 10.1328 21.9709 10.0674 21.9709 10.0383V9.44946C21.9709 13.0843 17.0541 16.0503 10.9868 16.0503Z" fill="url(#paint38_linear_47_656)"/>
</g>
<g style="mix-blend-mode:multiply">
<g style="mix-blend-mode:multiply">
<path d="M14.3537 16.4436L14.6553 16.3709V7.95273H14.3537V16.4436Z" fill="#FDD65B"/>
</g>
<g style="mix-blend-mode:multiply">
<path d="M15.7284 16.1019L16.037 16.0146V7.95273H15.7284V16.1019Z" fill="#FDD65B"/>
</g>
<g style="mix-blend-mode:multiply">
<path d="M17.1103 15.6367L17.4189 15.4986V7.95273H17.1103V15.6367Z" fill="#FDD65B"/>
</g>
<g style="mix-blend-mode:multiply">
<path d="M12.972 16.6471H13.2807V7.95273H12.972V16.6471Z" fill="#FDD65B"/>
</g>
<g style="mix-blend-mode:multiply">
<path d="M19.8667 14.0145C19.9743 13.9335 20.0774 13.8461 20.1753 13.7528V7.9371H19.8667V14.0145Z" fill="#FDD65B"/>
</g>
<g style="mix-blend-mode:multiply">
<path d="M21.2486 12.4744C21.3634 12.2952 21.4665 12.1082 21.5572 11.9146V7.95273H21.2486V12.4744Z" fill="#FDD65B"/>
</g>
<g style="mix-blend-mode:multiply">
<path d="M18.492 14.9607L18.8006 14.7862V7.95273H18.492V14.9607Z" fill="#FDD65B"/>
</g>
<g style="mix-blend-mode:multiply">
<path d="M11.5901 16.7198H11.9268V7.95273H11.6182L11.5901 16.7198Z" fill="#FDD65B"/>
</g>
<g style="mix-blend-mode:multiply">
<path d="M10.2084 16.7198H10.5241V7.95273H10.2154L10.2084 16.7198Z" fill="#FDD65B"/>
</g>
<g style="mix-blend-mode:multiply">
<path d="M7.45183 16.4C7.55704 16.4 7.65525 16.4509 7.76046 16.4654V7.95273H7.45183V16.4Z" fill="#FDD65B"/>
</g>
<g style="mix-blend-mode:multiply">
<path d="M8.83353 16.6318H9.14216V7.90833H8.83353V16.6318Z" fill="#FDD65B"/>
</g>
<g style="mix-blend-mode:multiply">
<path d="M6.07014 16.051L6.37876 16.1455V7.95273H6.07014V16.051Z" fill="#FDD65B"/>
</g>
<g style="mix-blend-mode:multiply">
<path d="M0.549973 12.1982C0.648168 12.3654 0.746363 12.5399 0.858587 12.6998V7.95273H0.549973V12.1982Z" fill="#FDD65B"/>
</g>
<g style="mix-blend-mode:multiply">
<path d="M1.93167 13.8847L2.24031 14.1319V7.95273H1.93167V13.8847Z" fill="#FDD65B"/>
</g>
<g style="mix-blend-mode:multiply">
<path d="M4.69524 15.5567L4.99683 15.6875V7.95273H4.69524V15.5567Z" fill="#FDD65B"/>
</g>
<g style="mix-blend-mode:multiply">
<path d="M3.31355 14.8733L3.62219 15.0405V7.95273H3.31355V14.8733Z" fill="#FDD65B"/>
</g>
</g>
<path d="M10.9872 13.5062C17.0536 13.5062 21.9713 10.5379 21.9713 6.87633C21.9713 3.21476 17.0536 0.24646 10.9872 0.24646C4.92086 0.24646 0.00311279 3.21476 0.00311279 6.87633C0.00311279 10.5379 4.92086 13.5062 10.9872 13.5062Z" fill="url(#paint39_linear_47_656)"/>
<path style="mix-blend-mode:screen" d="M10.9872 13.3241C5.04626 13.3241 0.227564 10.4817 0.00311279 6.92682C0.00311279 7.00678 0.00311279 7.07948 0.00311279 7.15945C0.00311279 10.8161 4.91299 13.8112 10.9872 13.8112C17.0614 13.8112 21.9713 10.8379 21.9713 7.18126C21.9713 7.10129 21.9713 7.02859 21.9713 6.94863C21.7468 10.4817 16.9211 13.3241 10.9872 13.3241Z" fill="url(#paint40_radial_47_656)"/>
<path d="M19.1935 6.87599C19.1935 9.60934 15.5181 11.8266 10.9869 11.8266C6.45583 11.8266 2.80849 9.60934 2.80849 6.87599C2.80849 4.14264 6.44881 1.91815 10.9869 1.91815C15.5251 1.91815 19.1935 4.13537 19.1935 6.87599Z" fill="url(#paint41_linear_47_656)"/>
<path style="mix-blend-mode:screen" d="M11.2605 2.17991C15.6443 2.17991 19.2144 4.24444 19.4459 6.85417C19.4459 6.76694 19.4459 6.67971 19.4459 6.59247C19.4459 3.85189 15.7705 1.6347 11.2394 1.6347C6.7083 1.6347 3.04694 3.85189 3.04694 6.59247C3.04004 6.67956 3.04004 6.76709 3.04694 6.85417C3.29944 4.24444 6.87664 2.17991 11.2605 2.17991Z" fill="url(#paint42_radial_47_656)"/>
<path style="mix-blend-mode:multiply" d="M10.9868 2.44884C15.3706 2.44884 18.9408 4.52795 19.1723 7.13775C19.1723 7.05052 19.1723 6.96328 19.1723 6.87604C19.1723 4.13539 15.4969 1.91815 10.9658 1.91815C6.43468 1.91815 2.8084 4.13539 2.8084 6.87604C2.8015 6.96313 2.8015 7.05066 2.8084 7.13775C3.02583 4.52795 6.60302 2.44884 10.9868 2.44884Z" fill="url(#paint43_linear_47_656)"/>
<path style="mix-blend-mode:color-dodge" d="M6.31538 6.80327C8.5108 7.42845 9.48576 11.0196 8.48976 14.7998C7.49376 18.5799 4.89853 21.2043 2.6961 20.6154C0.493669 20.0266 -0.474278 16.3991 0.521726 12.6189C1.51773 8.83875 4.14101 6.18536 6.31538 6.80327Z" fill="url(#paint44_radial_47_656)"/>
<path style="mix-blend-mode:color-dodge" d="M16.7526 0.486071C19.2215 1.35842 20.8839 3.09586 20.47 4.36077C20.0562 5.62569 17.7135 5.94555 15.2445 5.08774C12.7756 4.22992 11.1132 2.47068 11.5341 1.20576C11.9549 -0.0591496 14.2836 -0.379013 16.7526 0.486071Z" fill="url(#paint45_radial_47_656)"/>
<g style="mix-blend-mode:multiply">
<path style="mix-blend-mode:multiply" d="M11.6182 5.32034C11.4147 5.32034 11.2043 5.40757 10.9869 5.46573C10.7694 5.52389 10.5941 5.57478 10.3767 5.65474C10.1592 5.73471 9.95581 5.8074 9.75941 5.89464L10.4187 6.2872L10.6362 6.20723L10.8817 6.12C11.2534 5.98187 11.5831 5.87283 11.9338 5.77832C12.2422 5.69142 12.5563 5.62824 12.8737 5.58931C13.1482 5.54885 13.4268 5.54885 13.7014 5.58931C13.9708 5.63438 14.23 5.73049 14.4659 5.87283C14.7017 5.99346 14.8936 6.18979 15.013 6.43259C15.0512 6.52697 15.0709 6.62829 15.0709 6.73064C15.0709 6.83299 15.0512 6.93431 15.013 7.0287C14.9186 7.25626 14.7773 7.4597 14.5992 7.6248C14.3855 7.83706 14.1503 8.02474 13.8977 8.18456L14.7885 8.71524L14.0871 9.15869L13.1823 8.62074C12.7094 8.86533 12.2221 9.07899 11.7234 9.26046C11.2288 9.44239 10.7226 9.58814 10.2083 9.69664L9.73136 8.48262L10.5029 8.30815C10.7203 8.24999 10.9729 8.17002 11.2464 8.08279C11.5122 7.99623 11.7723 7.89182 12.025 7.77019L11.3797 7.38491L10.6783 7.64661C10.3135 7.7702 9.97685 7.8647 9.68226 7.9374C9.41101 8.00697 9.13376 8.04836 8.85459 8.06098C8.61964 8.0794 8.38336 8.06225 8.15318 8.01009C7.94099 7.96051 7.7375 7.87713 7.54997 7.76293C7.33045 7.65417 7.1455 7.48265 7.01689 7.26859C6.92246 7.08873 6.89501 6.8792 6.93974 6.67975C6.99999 6.45448 7.1078 6.2459 7.25537 6.06911C7.44714 5.84422 7.66643 5.64627 7.90769 5.48027L7.16419 5.03682L7.90067 4.60065L8.61611 5.08771C8.84056 4.97867 9.06502 4.87689 9.31752 4.78966C9.57003 4.70242 9.77344 4.61519 10.0189 4.54249L10.6713 4.34621L11.2254 4.14993L11.6182 5.32034ZM9.12113 6.54163C9.20452 6.5893 9.29992 6.60958 9.39468 6.59979C9.53986 6.57866 9.683 6.54461 9.82254 6.49801L9.26843 6.17088C9.03696 6.33081 9.00189 6.4544 9.12113 6.54163ZM12.6282 7.15228C12.5353 7.11152 12.4331 7.09891 12.3336 7.11593C12.1879 7.13007 12.0443 7.16178 11.9057 7.21044L12.4458 7.5303C12.5861 7.43579 12.6633 7.3631 12.6843 7.30494C12.7053 7.24678 12.7334 7.18863 12.6703 7.14501L12.6282 7.15228Z" fill="url(#paint46_linear_47_656)"/>
</g>
<path d="M11.6182 5.03682C11.4147 5.07317 11.2043 5.12405 10.9869 5.18221C10.7694 5.24037 10.5941 5.29125 10.3767 5.37122C10.1592 5.45118 9.95581 5.52388 9.75941 5.61111L10.4187 6.00367L10.6362 5.9237L10.8817 5.81466C11.2534 5.67654 11.5831 5.5675 11.9338 5.47299C12.2422 5.38608 12.5563 5.32291 12.8737 5.28398C13.1482 5.24352 13.4268 5.24352 13.7014 5.28398C13.9708 5.32905 14.23 5.42516 14.4659 5.5675C14.7017 5.68813 14.8936 5.88445 15.013 6.12725C15.0512 6.22163 15.0709 6.32295 15.0709 6.4253C15.0709 6.52765 15.0512 6.62897 15.013 6.72335C14.9186 6.95091 14.7773 7.15435 14.5992 7.31945C14.3855 7.53171 14.1503 7.71939 13.8977 7.87921L14.7885 8.40988L14.0871 8.85333L13.1823 8.31538C12.7094 8.55997 12.2221 8.77363 11.7234 8.9551C11.2288 9.13702 10.7226 9.28277 10.2083 9.39127L9.73136 8.17726L10.5029 8.00279C10.7203 7.94463 10.9729 7.86467 11.2464 7.77743C11.5122 7.69088 11.7723 7.58646 12.025 7.46484L11.3797 7.07956L10.6783 7.34126C10.3135 7.46484 9.97685 7.55935 9.68226 7.63204C9.41101 7.70161 9.13376 7.74301 8.85459 7.75563C8.61965 7.77025 8.38387 7.75315 8.15318 7.70474C7.94099 7.65516 7.7375 7.57178 7.54997 7.45758C7.33408 7.35674 7.14951 7.19565 7.01689 6.99232C6.92246 6.81246 6.89501 6.60294 6.93974 6.40349C6.99237 6.18899 7.08796 5.98836 7.2203 5.81466C7.41207 5.58978 7.63136 5.39183 7.87262 5.22583L7.12912 4.78239L7.8656 4.36075L8.61611 4.80419C8.84056 4.69515 9.06502 4.59338 9.31752 4.50614C9.57003 4.41891 9.77344 4.33167 10.0189 4.25898L10.6713 4.0627L11.2254 3.86642L11.6182 5.03682ZM9.12113 6.25083C9.20452 6.2985 9.29992 6.31878 9.39468 6.30899C9.53965 6.29023 9.68279 6.25861 9.82254 6.21448L9.26141 5.88736C9.03696 6.04729 9.00189 6.17087 9.12113 6.25083ZM12.6282 6.86147C12.5319 6.83279 12.4298 6.83279 12.3336 6.86147C12.1879 6.87561 12.0443 6.90732 11.9057 6.95598L12.4458 7.27584C12.5861 7.18133 12.6633 7.10864 12.6843 7.05048C12.7053 6.99232 12.7334 6.90509 12.6703 6.86147H12.6282Z" fill="url(#paint47_linear_47_656)"/>
<path style="mix-blend-mode:color-dodge" d="M11.6182 5.03682C11.4147 5.07317 11.2043 5.12405 10.9869 5.18221C10.7694 5.24037 10.5941 5.29125 10.3767 5.37122C10.1592 5.45118 9.95581 5.52388 9.75941 5.61111L10.4187 6.00367L10.6362 5.9237L10.8817 5.81466C11.2534 5.67654 11.5831 5.5675 11.9338 5.47299C12.2422 5.38608 12.5563 5.32291 12.8737 5.28398C13.1482 5.24352 13.4268 5.24352 13.7014 5.28398C13.9708 5.32905 14.23 5.42516 14.4659 5.5675C14.7017 5.68813 14.8936 5.88445 15.013 6.12725C15.0512 6.22163 15.0709 6.32295 15.0709 6.4253C15.0709 6.52765 15.0512 6.62897 15.013 6.72335C14.9186 6.95091 14.7773 7.15435 14.5992 7.31945C14.3855 7.53171 14.1503 7.71939 13.8977 7.87921L14.7885 8.40988L14.0871 8.85333L13.1823 8.31538C12.7094 8.55997 12.2221 8.77363 11.7234 8.9551C11.2288 9.13702 10.7226 9.28277 10.2083 9.39127L9.73136 8.17726L10.5029 8.00279C10.7203 7.94463 10.9729 7.86467 11.2464 7.77743C11.5122 7.69088 11.7723 7.58646 12.025 7.46484L11.3797 7.07956L10.6783 7.34126C10.3135 7.46484 9.97685 7.55935 9.68226 7.63204C9.41101 7.70161 9.13376 7.74301 8.85459 7.75563C8.61965 7.77025 8.38387 7.75315 8.15318 7.70474C7.94099 7.65516 7.7375 7.57178 7.54997 7.45758C7.33408 7.35674 7.14951 7.19565 7.01689 6.99232C6.92246 6.81246 6.89501 6.60294 6.93974 6.40349C6.99237 6.18899 7.08796 5.98836 7.2203 5.81466C7.41207 5.58978 7.63136 5.39183 7.87262 5.22583L7.12912 4.78239L7.8656 4.36075L8.61611 4.80419C8.84056 4.69515 9.06502 4.59338 9.31752 4.50614C9.57003 4.41891 9.77344 4.33167 10.0189 4.25898L10.6713 4.0627L11.2254 3.86642L11.6182 5.03682ZM9.12113 6.25083C9.20452 6.2985 9.29992 6.31878 9.39468 6.30899C9.53965 6.29023 9.68279 6.25861 9.82254 6.21448L9.26141 5.88736C9.03696 6.04729 9.00189 6.17087 9.12113 6.25083ZM12.6282 6.86147C12.5319 6.83279 12.4298 6.83279 12.3336 6.86147C12.1879 6.87561 12.0443 6.90732 11.9057 6.95598L12.4458 7.27584C12.5861 7.18133 12.6633 7.10864 12.6843 7.05048C12.7053 6.99232 12.7334 6.90509 12.6703 6.86147H12.6282Z" fill="url(#paint48_radial_47_656)"/>
<path d="M33.1024 26.1695H11.1412V29.3753V29.4698C11.1412 33.1046 16.0511 36.0996 22.1253 36.0996C28.1995 36.0996 33.1024 33.1337 33.1024 29.4698V29.3753V26.1695Z" fill="url(#paint49_linear_47_656)"/>
<g style="mix-blend-mode:multiply">
<path opacity="0.5" d="M22.1253 35.4017C16.0581 35.4017 11.1412 32.4357 11.1412 28.7719V29.3898V29.4843C11.1412 33.1191 16.0511 36.1141 22.1253 36.1141C28.1995 36.1141 33.1024 33.1482 33.1024 29.4843V29.3898V28.7719C33.1024 32.4357 28.1855 35.4017 22.1253 35.4017Z" fill="url(#paint50_linear_47_656)"/>
</g>
<g style="mix-blend-mode:multiply">
<g style="mix-blend-mode:multiply">
<path d="M25.4852 35.7935L25.7938 35.7281V27.3099H25.4852V35.7935Z" fill="#FDD65B"/>
</g>
<g style="mix-blend-mode:multiply">
<path d="M26.8671 35.4591L27.1757 35.3646V27.3099H26.8671V35.4591Z" fill="#FDD65B"/>
</g>
<g style="mix-blend-mode:multiply">
<path d="M28.2488 34.9866L28.5574 34.8484V27.3099H28.2488V34.9866Z" fill="#FDD65B"/>
</g>
<g style="mix-blend-mode:multiply">
<path d="M24.1035 35.997H24.4122V27.3099H24.1035V35.997Z" fill="#FDD65B"/>
</g>
<g style="mix-blend-mode:multiply">
<path d="M31.0054 33.3734C31.1106 33.2861 31.2158 33.1989 31.314 33.1044V27.2887H31.0054V33.3734Z" fill="#FDD65B"/>
</g>
<g style="mix-blend-mode:multiply">
<path d="M32.3871 31.8316C32.4993 31.6426 32.6045 31.4536 32.6957 31.2645V27.3099H32.3871V31.8316Z" fill="#FDD65B"/>
</g>
<g style="mix-blend-mode:multiply">
<path d="M29.6235 34.3178L29.9322 34.1433V27.3099H29.6235V34.3178Z" fill="#FDD65B"/>
</g>
<g style="mix-blend-mode:multiply">
<path d="M22.7287 36.0915H23.0372V27.3099H22.7287V36.0915Z" fill="#FDD65B"/>
</g>
<g style="mix-blend-mode:multiply">
<path d="M21.3469 36.0915H21.6555V27.3099H21.3469V36.0915Z" fill="#FDD65B"/>
</g>
<g style="mix-blend-mode:multiply">
<path d="M18.5904 35.7571L18.899 35.8226V27.3099H18.5904V35.7571Z" fill="#FDD65B"/>
</g>
<g style="mix-blend-mode:multiply">
<path d="M19.9651 35.9833H20.2737V27.2598H19.9651V35.9833Z" fill="#FDD65B"/>
</g>
<g style="mix-blend-mode:multiply">
<path d="M17.2086 35.4082L17.5172 35.4955V27.3099H17.2086V35.4082Z" fill="#FDD65B"/>
</g>
<g style="mix-blend-mode:multiply">
<path d="M11.6885 31.5481C11.7796 31.7251 11.8827 31.8951 11.9971 32.0569V27.3099H11.6885V31.5481Z" fill="#FDD65B"/>
</g>
<g style="mix-blend-mode:multiply">
<path d="M13.0702 33.2345C13.1684 33.3218 13.2736 33.4017 13.3788 33.4817V27.3099H13.0702V33.2345Z" fill="#FDD65B"/>
</g>
<g style="mix-blend-mode:multiply">
<path d="M15.8268 34.8921L16.1354 35.0156V27.3099H15.8268V34.8921Z" fill="#FDD65B"/>
</g>
<g style="mix-blend-mode:multiply">
<path d="M14.4451 34.2232L14.7537 34.3904V27.3099H14.4451V34.2232Z" fill="#FDD65B"/>
</g>
</g>
<path d="M22.1253 32.8574C28.1916 32.8574 33.1094 29.8891 33.1094 26.2276C33.1094 22.566 28.1916 19.5977 22.1253 19.5977C16.0589 19.5977 11.1412 22.566 11.1412 26.2276C11.1412 29.8891 16.0589 32.8574 22.1253 32.8574Z" fill="url(#paint51_linear_47_656)"/>
<path style="mix-blend-mode:screen" d="M22.1253 32.712C16.1843 32.712 11.3586 29.8042 11.1552 26.2785C11.1552 26.3584 11.1552 26.4311 11.1552 26.5111C11.1552 30.1459 16.0651 33.1409 22.1393 33.1409C28.2135 33.1409 33.1164 30.1749 33.1164 26.5111C33.1164 26.4311 33.1164 26.3584 33.1164 26.2785C32.8849 29.8042 28.0592 32.712 22.1253 32.712Z" fill="url(#paint52_radial_47_656)"/>
<path d="M30.3318 26.2276C30.3318 28.961 26.6564 31.1855 22.1253 31.1855C17.5942 31.1855 13.9118 28.961 13.9118 26.2276C13.9118 23.4942 17.5872 21.2697 22.1253 21.2697C26.6634 21.2697 30.3318 23.4869 30.3318 26.2276Z" fill="url(#paint53_linear_47_656)"/>
<path style="mix-blend-mode:screen" d="M22.3989 21.5169C26.7827 21.5169 30.3529 23.596 30.5843 26.2058C30.5843 26.1186 30.5843 26.0313 30.5843 25.9441C30.5843 23.2034 26.9089 20.9862 22.3778 20.9862C17.8467 20.9862 14.1643 23.2034 14.1643 25.9441C14.1643 26.0313 14.1643 26.1186 14.1643 26.2058C14.4378 23.596 18.008 21.5169 22.3989 21.5169Z" fill="url(#paint54_radial_47_656)"/>
<path style="mix-blend-mode:multiply" d="M22.1254 21.8077C26.5092 21.8077 30.0793 23.8868 30.3108 26.5038C30.3108 26.4093 30.3108 26.3221 30.3108 26.2349C30.3108 23.4942 26.6354 21.277 22.1043 21.277C17.5732 21.277 13.8908 23.4942 13.8908 26.2349C13.8908 26.3221 13.8908 26.4093 13.8908 26.5038C14.1643 23.8795 17.7345 21.8077 22.1254 21.8077Z" fill="url(#paint55_linear_47_656)"/>
<path style="mix-blend-mode:color-dodge" d="M27.8908 19.8449C30.3598 20.71 32.0221 22.4474 31.6083 23.7123C31.1944 24.9772 28.8517 25.2971 26.3828 24.4393C23.9138 23.5814 22.2515 21.8367 22.6653 20.5646C23.0791 19.2924 25.4218 18.9725 27.8908 19.8449Z" fill="url(#paint56_radial_47_656)"/>
<g style="mix-blend-mode:multiply">
<path style="mix-blend-mode:multiply" d="M22.7565 24.6719C22.5435 24.7106 22.3328 24.7615 22.1253 24.8246C21.9359 24.8682 21.7325 24.9336 21.515 25.0063C21.2976 25.079 21.0942 25.159 20.8978 25.2462L21.5571 25.646L21.7746 25.5588L22.013 25.4715C22.3918 25.3407 22.7145 25.2244 23.0722 25.1299C23.3775 25.0417 23.6896 24.9809 24.0051 24.9481C24.2817 24.9042 24.5631 24.9042 24.8397 24.9481C25.1073 24.996 25.3641 25.0946 25.5973 25.2389C25.837 25.3527 26.0324 25.5475 26.1514 25.7914C26.1896 25.8858 26.2092 25.9871 26.2092 26.0895C26.2092 26.1918 26.1896 26.2931 26.1514 26.3875C26.0562 26.6146 25.915 26.8179 25.7375 26.9836C25.5209 27.1944 25.2861 27.3842 25.0361 27.5506L25.9269 28.0813L25.1834 28.5175L24.2856 27.9795C23.8134 28.2259 23.3261 28.4396 22.8267 28.6193C22.3316 28.7994 21.8254 28.9451 21.3116 29.0554L20.8277 27.8487C21.0802 27.7978 21.3397 27.7324 21.5992 27.6669C21.8587 27.6015 22.0692 27.5361 22.3427 27.4416C22.6185 27.3668 22.8882 27.2695 23.1493 27.1508L22.4479 26.7655C22.2235 26.86 21.985 26.9473 21.7465 27.0272C21.4174 27.1426 21.0826 27.2397 20.7435 27.318C20.4742 27.3867 20.1996 27.4305 19.9228 27.4489C19.6876 27.4608 19.4518 27.4413 19.2214 27.3907C19.0097 27.3395 18.8065 27.2562 18.6182 27.1435C18.3959 27.0289 18.2106 26.8495 18.0852 26.6274C17.9966 26.4481 17.9718 26.2422 18.015 26.0458C18.0693 25.8181 18.1778 25.6082 18.3306 25.4352C18.5216 25.2122 18.7384 25.0145 18.9759 24.8464L18.2395 24.4029L19.004 23.9886L19.7545 24.4393C19.983 24.3248 20.2171 24.2229 20.4559 24.134C20.6874 24.0467 20.9188 23.9595 21.1573 23.8868L21.8096 23.6905L22.3918 23.5306L22.7565 24.6719ZM20.2736 25.8932C20.3581 25.9371 20.4531 25.9548 20.5471 25.9441C20.6855 25.9311 20.822 25.9019 20.9539 25.8568L20.3998 25.5224C20.1754 25.6824 20.1333 25.8059 20.2736 25.8932ZM23.7806 26.5038C23.6921 26.4566 23.5909 26.4413 23.493 26.4602C23.3457 26.4785 23.2002 26.5102 23.0581 26.5547L23.6053 26.8818C23.7013 26.8249 23.7831 26.7452 23.8437 26.6492C23.8563 26.6241 23.859 26.5948 23.8511 26.5677C23.8432 26.5405 23.8255 26.5176 23.8016 26.5038H23.7806Z" fill="url(#paint57_linear_47_656)"/>
</g>
<path d="M22.7565 24.3884C22.5435 24.4271 22.3328 24.478 22.1253 24.541C21.9359 24.5847 21.7325 24.6501 21.515 24.7228C21.2976 24.7955 21.0942 24.8755 20.8978 24.9627L21.5571 25.3552L21.7746 25.2753L22.013 25.188C22.3918 25.0572 22.7145 24.9409 23.0722 24.8464C23.3775 24.7582 23.6896 24.6974 24.0051 24.6646C24.2817 24.6207 24.5631 24.6207 24.8397 24.6646C25.1073 24.7125 25.3641 24.8111 25.5973 24.9554C25.837 25.0692 26.0324 25.264 26.1514 25.5079C26.1896 25.6023 26.2092 25.7036 26.2092 25.806C26.2092 25.9083 26.1896 26.0096 26.1514 26.104C26.0562 26.3311 25.915 26.5344 25.7375 26.7001C25.5209 26.9109 25.2861 27.1007 25.0361 27.2671L25.9269 27.7978L25.1834 28.234L24.2856 27.6961C23.8134 27.9424 23.3261 28.1561 22.8267 28.3358C22.3316 28.5159 21.8254 28.6616 21.3116 28.772L20.8277 27.6234C21.0802 27.5725 21.3397 27.507 21.5992 27.4416C21.8587 27.3762 22.0692 27.3108 22.3427 27.2163C22.6194 27.132 22.8891 27.025 23.1493 26.8964L22.4479 26.482C22.2235 26.5765 21.985 26.6638 21.7465 26.7437C21.4174 26.8591 21.0826 26.9562 20.7435 27.0345C20.4742 27.1032 20.1996 27.147 19.9228 27.1654C19.6876 27.1774 19.4518 27.1578 19.2214 27.1072C19.0097 27.056 18.8065 26.9727 18.6182 26.86C18.3959 26.7454 18.2106 26.566 18.0852 26.3439C17.9966 26.1646 17.9718 25.9587 18.015 25.7623C18.0693 25.5346 18.1778 25.3247 18.3306 25.1517C18.5177 24.9247 18.735 24.7264 18.9759 24.5629L18.2395 24.1194L18.9759 23.676L19.7265 24.1267C19.9549 24.0122 20.1891 23.9103 20.4279 23.8214C20.6593 23.7341 20.8908 23.6469 21.1293 23.5742L21.7816 23.3779L22.3638 23.218L22.7565 24.3884ZM20.2736 25.6097C20.3581 25.6536 20.4531 25.6713 20.5471 25.6606C20.6855 25.6476 20.822 25.6184 20.9539 25.5733L20.3998 25.2389C20.1754 25.3989 20.1333 25.5224 20.2736 25.6097ZM23.7806 26.2203C23.6921 26.1731 23.5909 26.1578 23.493 26.1767C23.3457 26.1951 23.2002 26.2267 23.0581 26.2712L23.6053 26.5983C23.7013 26.5414 23.7831 26.4617 23.8437 26.3657C23.8563 26.3406 23.859 26.3113 23.8511 26.2842C23.8432 26.257 23.8255 26.2341 23.8016 26.2203H23.7806Z" fill="url(#paint58_linear_47_656)"/>
<path style="mix-blend-mode:color-dodge" d="M22.7565 24.3884C22.5435 24.4271 22.3328 24.478 22.1253 24.541C21.9359 24.5847 21.7325 24.6501 21.515 24.7228C21.2976 24.7955 21.0942 24.8755 20.8978 24.9627L21.5571 25.3552L21.7746 25.2753L22.013 25.188C22.3918 25.0572 22.7145 24.9409 23.0722 24.8464C23.3775 24.7582 23.6896 24.6974 24.0051 24.6646C24.2817 24.6207 24.5631 24.6207 24.8397 24.6646C25.1073 24.7125 25.3641 24.8111 25.5973 24.9554C25.837 25.0692 26.0324 25.264 26.1514 25.5079C26.1896 25.6023 26.2092 25.7036 26.2092 25.806C26.2092 25.9083 26.1896 26.0096 26.1514 26.104C26.0562 26.3311 25.915 26.5344 25.7375 26.7001C25.5209 26.9109 25.2861 27.1007 25.0361 27.2671L25.9269 27.7978L25.1834 28.234L24.2856 27.6961C23.8134 27.9424 23.3261 28.1561 22.8267 28.3358C22.3316 28.5159 21.8254 28.6616 21.3116 28.772L20.8277 27.6234C21.0802 27.5725 21.3397 27.507 21.5992 27.4416C21.8587 27.3762 22.0692 27.3108 22.3427 27.2163C22.6194 27.132 22.8891 27.025 23.1493 26.8964L22.4479 26.482C22.2235 26.5765 21.985 26.6638 21.7465 26.7437C21.4174 26.8591 21.0826 26.9562 20.7435 27.0345C20.4742 27.1032 20.1996 27.147 19.9228 27.1654C19.6876 27.1774 19.4518 27.1578 19.2214 27.1072C19.0097 27.056 18.8065 26.9727 18.6182 26.86C18.3959 26.7454 18.2106 26.566 18.0852 26.3439C17.9966 26.1646 17.9718 25.9587 18.015 25.7623C18.0693 25.5346 18.1778 25.3247 18.3306 25.1517C18.5177 24.9247 18.735 24.7264 18.9759 24.5629L18.2395 24.1194L18.9759 23.676L19.7265 24.1267C19.9549 24.0122 20.1891 23.9103 20.4279 23.8214C20.6593 23.7341 20.8908 23.6469 21.1293 23.5742L21.7816 23.3779L22.3638 23.218L22.7565 24.3884ZM20.2736 25.6097C20.3581 25.6536 20.4531 25.6713 20.5471 25.6606C20.6855 25.6476 20.822 25.6184 20.9539 25.5733L20.3998 25.2389C20.1754 25.3989 20.1333 25.5224 20.2736 25.6097ZM23.7806 26.2203C23.6921 26.1731 23.5909 26.1578 23.493 26.1767C23.3457 26.1951 23.2002 26.2267 23.0581 26.2712L23.6053 26.5983C23.7013 26.5414 23.7831 26.4617 23.8437 26.3657C23.8563 26.3406 23.859 26.3113 23.8511 26.2842C23.8432 26.257 23.8255 26.2341 23.8016 26.2203H23.7806Z" fill="url(#paint59_radial_47_656)"/>
<path d="M33.1024 22.5854H11.1412V25.7986V25.8931C11.1412 29.5279 16.0511 32.523 22.1253 32.523C28.1995 32.523 33.1024 29.5497 33.1024 25.8931V25.7986V22.5854Z" fill="url(#paint60_linear_47_656)"/>
<g style="mix-blend-mode:multiply">
<path opacity="0.5" d="M22.1253 31.8106C16.0581 31.8106 11.1412 28.8446 11.1412 25.1807V25.7986V25.8931C11.1412 29.5279 16.0511 32.523 22.1253 32.523C28.1995 32.523 33.1024 29.5497 33.1024 25.8931V25.7986V25.1807C33.1024 28.8446 28.1855 31.8106 22.1253 31.8106Z" fill="url(#paint61_linear_47_656)"/>
</g>
<g style="mix-blend-mode:multiply">
<g style="mix-blend-mode:multiply">
<path d="M25.4852 32.204L25.7938 32.1313V23.7131H25.4852V32.204Z" fill="#FDD65B"/>
</g>
<g style="mix-blend-mode:multiply">
<path d="M26.8671 31.8623L27.1757 31.775V23.7131H26.8671V31.8623Z" fill="#FDD65B"/>
</g>
<g style="mix-blend-mode:multiply">
<path d="M28.2488 31.397L28.5574 31.2589V23.7131H28.2488V31.397Z" fill="#FDD65B"/>
</g>
<g style="mix-blend-mode:multiply">
<path d="M24.1035 32.4074H24.4122V23.7131H24.1035V32.4074Z" fill="#FDD65B"/>
</g>
<g style="mix-blend-mode:multiply">
<path d="M31.0054 29.8036C31.1106 29.7164 31.2158 29.6291 31.314 29.5346V23.7189H31.0054V29.8036Z" fill="#FDD65B"/>
</g>
<g style="mix-blend-mode:multiply">
<path d="M32.3871 28.2348C32.4993 28.0539 32.6023 27.8671 32.6957 27.675V23.7131H32.3871V28.2348Z" fill="#FDD65B"/>
</g>
<g style="mix-blend-mode:multiply">
<path d="M29.6235 30.7209C29.7288 30.6628 29.834 30.6119 29.9322 30.5465V23.7131H29.6235V30.7209Z" fill="#FDD65B"/>
</g>
<g style="mix-blend-mode:multiply">
<path d="M22.7287 32.502H23.0372V23.7131H22.7287V32.502Z" fill="#FDD65B"/>
</g>
<g style="mix-blend-mode:multiply">
<path d="M21.3469 32.4947H21.6555V23.7131H21.3469V32.4947Z" fill="#FDD65B"/>
</g>
<g style="mix-blend-mode:multiply">
<path d="M18.5904 32.1676L18.899 32.233V23.7131H18.5904V32.1676Z" fill="#FDD65B"/>
</g>
<g style="mix-blend-mode:multiply">
<path d="M19.9651 32.3923H20.2737V23.6688H19.9651V32.3923Z" fill="#FDD65B"/>
</g>
<g style="mix-blend-mode:multiply">
<path d="M17.2086 31.8114L17.5172 31.9059V23.7131H17.2086V31.8114Z" fill="#FDD65B"/>
</g>
<g style="mix-blend-mode:multiply">
<path d="M11.6885 27.9586C11.7797 28.1332 11.8828 28.3008 11.9971 28.4602V23.7131H11.6885V27.9586Z" fill="#FDD65B"/>
</g>
<g style="mix-blend-mode:multiply">
<path d="M13.0702 29.6451L13.3788 29.8923V23.7131H13.0702V29.6451Z" fill="#FDD65B"/>
</g>
<g style="mix-blend-mode:multiply">
<path d="M15.8268 31.317L16.1354 31.4479V23.7131H15.8268V31.317Z" fill="#FDD65B"/>
</g>
<g style="mix-blend-mode:multiply">
<path d="M14.4451 30.6337L14.7537 30.8009V23.7131H14.4451V30.6337Z" fill="#FDD65B"/>
</g>
</g>
<path d="M22.1253 29.2662C28.1916 29.2662 33.1094 26.2979 33.1094 22.6364C33.1094 18.9749 28.1916 16.0066 22.1253 16.0066C16.0589 16.0066 11.1412 18.9749 11.1412 22.6364C11.1412 26.2979 16.0589 29.2662 22.1253 29.2662Z" fill="url(#paint62_linear_47_656)"/>
<path style="mix-blend-mode:screen" d="M22.1253 29.0772C16.1843 29.0772 11.3586 26.2349 11.1552 22.6801C11.1552 22.76 11.1552 22.8327 11.1552 22.9127C11.1552 26.5474 16.0651 29.5425 22.1393 29.5425C28.2135 29.5425 33.1164 26.5693 33.1164 22.9127C33.1164 22.8327 33.1164 22.76 33.1164 22.6801C32.8849 26.2421 28.0592 29.0772 22.1253 29.0772Z" fill="url(#paint63_radial_47_656)"/>
<path d="M30.3318 22.6364C30.3318 25.3698 26.6564 27.6233 22.1253 27.6233C17.5942 27.6233 13.9118 25.3698 13.9118 22.6364C13.9118 19.903 17.5872 17.6786 22.1253 17.6786C26.6634 17.6786 30.3318 19.8958 30.3318 22.6364Z" fill="url(#paint64_linear_47_656)"/>
<path style="mix-blend-mode:screen" d="M22.3988 17.9257C26.7826 17.9257 30.3528 20.0048 30.5843 22.6146C30.5843 22.5273 30.5843 22.4401 30.5843 22.3529C30.5843 19.6122 26.9089 17.395 22.3778 17.395C17.8466 17.395 14.1853 19.6268 14.1853 22.3529C14.1853 22.4401 14.1853 22.5273 14.1853 22.6146C14.4378 20.0048 18.008 17.9257 22.3988 17.9257Z" fill="url(#paint65_radial_47_656)"/>
<path style="mix-blend-mode:multiply" d="M22.1254 18.2092C26.5092 18.2092 30.0793 20.2883 30.3108 22.8981C30.3108 22.8109 30.3108 22.7236 30.3108 22.6364C30.3108 19.8958 26.6354 17.6786 22.1043 17.6786C17.5732 17.6786 13.8908 19.8958 13.8908 22.6364C13.8908 22.7236 13.8908 22.8109 13.8908 22.8981C14.1643 20.2883 17.7345 18.2092 22.1254 18.2092Z" fill="url(#paint66_linear_47_656)"/>
<path style="mix-blend-mode:color-dodge" d="M27.8908 16.2465C30.3598 17.1188 32.0221 18.8562 31.6083 20.1211C31.1944 21.386 28.8517 21.7059 26.3828 20.8481C23.9138 19.9903 22.2515 18.2456 22.6653 16.9807C23.0791 15.7158 25.4218 15.3814 27.8908 16.2465Z" fill="url(#paint67_radial_47_656)"/>
<g style="mix-blend-mode:multiply">
<path style="mix-blend-mode:multiply" d="M22.7565 21.0807C22.5531 21.1171 22.3427 21.1679 22.1253 21.2261C21.9078 21.2843 21.7325 21.3424 21.515 21.4151C21.2976 21.4878 21.0942 21.5678 20.8978 21.655L21.5571 22.0476L21.7746 21.9676L22.013 21.8804C22.3918 21.7422 22.7145 21.6332 23.0722 21.5387C23.3782 21.4518 23.69 21.3886 24.0051 21.3497C24.2819 21.3093 24.5629 21.3093 24.8397 21.3497C25.107 21.3948 25.3638 21.4909 25.5973 21.6332C25.8363 21.7517 26.031 21.9484 26.1514 22.1929C26.1896 22.2873 26.2092 22.3887 26.2092 22.491C26.2092 22.5933 26.1896 22.6947 26.1514 22.789C26.0543 23.0151 25.9135 23.218 25.7375 23.3851C25.5225 23.5957 25.2875 23.7832 25.0361 23.9449L25.9269 24.4756L25.1834 24.919L24.2856 24.3811C23.8121 24.6244 23.3249 24.838 22.8267 25.0208C22.3316 25.2009 21.8254 25.3466 21.3116 25.457L20.8277 24.2429L21.5992 24.0685C21.8237 24.0103 22.0692 23.9304 22.3427 23.8431C22.6174 23.7673 22.8868 23.6725 23.1493 23.5596L22.4479 23.1743L21.7465 23.436C21.4174 23.5514 21.0826 23.6485 20.7435 23.7268C20.4747 23.7969 20.1997 23.8383 19.9228 23.8504C19.6879 23.8684 19.4517 23.8513 19.2214 23.7995C19.0097 23.7483 18.8065 23.665 18.6182 23.5523C18.3972 23.4357 18.2125 23.2568 18.0852 23.0362C17.9966 22.8569 17.9718 22.651 18.015 22.4547C18.0693 22.227 18.1778 22.017 18.3306 21.844C18.5193 21.6166 18.7363 21.4161 18.9759 21.2479L18.2395 20.8117L19.004 20.3538L19.7545 20.7972C19.9831 20.6851 20.2172 20.5856 20.4559 20.4992C20.6874 20.4119 20.9188 20.3247 21.1573 20.252L21.8096 20.0557L22.3918 19.8958L22.7565 21.0807ZM20.2736 22.2947C20.3563 22.3442 20.4522 22.3646 20.5471 22.3529C20.6851 22.3334 20.8212 22.3018 20.9539 22.2584L20.3998 21.9312C20.1754 22.0912 20.1333 22.2148 20.2736 22.2947ZM23.7806 22.9054C23.6902 22.8644 23.5903 22.8518 23.493 22.869C23.3457 22.8874 23.2002 22.919 23.0581 22.9635L23.6053 23.2834C23.7006 23.2285 23.7822 23.1513 23.8437 23.058C23.8858 22.9926 23.8507 22.949 23.8016 22.9054H23.7806Z" fill="url(#paint68_linear_47_656)"/>
</g>
<path d="M22.7565 20.7973C22.5531 20.8336 22.3427 20.8845 22.1252 20.9426C21.9078 21.0008 21.7325 21.0517 21.515 21.1317C21.2976 21.2116 21.0942 21.2843 20.8978 21.3716L21.5571 21.7641L21.7745 21.6842L22.013 21.5969C22.3918 21.4588 22.7144 21.3497 23.0722 21.2552C23.3785 21.1733 23.6903 21.115 24.005 21.0808C24.2819 21.0404 24.5628 21.0404 24.8397 21.0808C25.107 21.1259 25.3638 21.222 25.5972 21.3643C25.8362 21.4828 26.0309 21.6795 26.1513 21.9241C26.1895 22.0184 26.2092 22.1198 26.2092 22.2221C26.2092 22.3245 26.1895 22.4258 26.1513 22.5202C26.0543 22.7462 25.9135 22.9491 25.7375 23.1163C25.5225 23.3268 25.2875 23.5144 25.0361 23.676L25.9269 24.2067L25.1834 24.6502L24.2856 24.1122C23.8121 24.3555 23.3249 24.5692 22.8267 24.752C22.3316 24.9321 21.8254 25.0778 21.3116 25.1881L20.8276 23.9886L21.5992 23.8142C21.8236 23.756 22.0691 23.676 22.3427 23.5888C22.6184 23.4987 22.8879 23.3894 23.1493 23.2617L22.4479 22.8909L21.7465 23.1526C21.3818 23.2762 21.0451 23.3707 20.7435 23.4434C20.4747 23.5135 20.1997 23.5549 19.9228 23.567C19.6879 23.585 19.4516 23.5679 19.2214 23.5161C19.0097 23.4649 18.8064 23.3816 18.6182 23.2689C18.3972 23.1523 18.2124 22.9734 18.0851 22.7528C17.9961 22.571 17.9713 22.3627 18.015 22.164C18.0712 21.937 18.1795 21.7275 18.3306 21.5533C18.5216 21.3303 18.7383 21.1326 18.9759 20.9645L18.2394 20.521L18.9759 20.0848L19.7264 20.5283C19.955 20.4162 20.1891 20.3167 20.4278 20.2302C20.6593 20.143 20.8908 20.0557 21.1292 19.983L21.7816 19.7868L22.3637 19.6268L22.7565 20.7973ZM20.2735 22.0113C20.3562 22.0608 20.4522 22.0812 20.5471 22.0694C20.685 22.05 20.8211 22.0184 20.9539 21.9749L20.3998 21.6478C20.1753 21.8077 20.1332 21.9313 20.2735 22.0113ZM23.7806 22.6219C23.6902 22.581 23.5902 22.5683 23.493 22.5856C23.3451 22.6004 23.1993 22.6321 23.0581 22.6801L23.6052 23C23.7005 22.9451 23.7822 22.8679 23.8437 22.7746C23.8858 22.7092 23.8507 22.6656 23.8016 22.6219H23.7806Z" fill="url(#paint69_linear_47_656)"/>
<path style="mix-blend-mode:color-dodge" d="M22.7565 20.7973C22.5531 20.8336 22.3427 20.8845 22.1252 20.9426C21.9078 21.0008 21.7325 21.0517 21.515 21.1317C21.2976 21.2116 21.0942 21.2843 20.8978 21.3716L21.5571 21.7641L21.7745 21.6842L22.013 21.5969C22.3918 21.4588 22.7144 21.3497 23.0722 21.2552C23.3785 21.1733 23.6903 21.115 24.005 21.0808C24.2819 21.0404 24.5628 21.0404 24.8397 21.0808C25.107 21.1259 25.3638 21.222 25.5972 21.3643C25.8362 21.4828 26.0309 21.6795 26.1513 21.9241C26.1895 22.0184 26.2092 22.1198 26.2092 22.2221C26.2092 22.3245 26.1895 22.4258 26.1513 22.5202C26.0543 22.7462 25.9135 22.9491 25.7375 23.1163C25.5225 23.3268 25.2875 23.5144 25.0361 23.676L25.9269 24.2067L25.1834 24.6502L24.2856 24.1122C23.8121 24.3555 23.3249 24.5692 22.8267 24.752C22.3316 24.9321 21.8254 25.0778 21.3116 25.1881L20.8276 23.9886L21.5992 23.8142C21.8236 23.756 22.0691 23.676 22.3427 23.5888C22.6184 23.4987 22.8879 23.3894 23.1493 23.2617L22.4479 22.8909L21.7465 23.1526C21.3818 23.2762 21.0451 23.3707 20.7435 23.4434C20.4747 23.5135 20.1997 23.5549 19.9228 23.567C19.6879 23.585 19.4516 23.5679 19.2214 23.5161C19.0097 23.4649 18.8064 23.3816 18.6182 23.2689C18.3972 23.1523 18.2124 22.9734 18.0851 22.7528C17.9961 22.571 17.9713 22.3627 18.015 22.164C18.0712 21.937 18.1795 21.7275 18.3306 21.5533C18.5216 21.3303 18.7383 21.1326 18.9759 20.9645L18.2394 20.521L18.9759 20.0848L19.7264 20.5283C19.955 20.4162 20.1891 20.3167 20.4278 20.2302C20.6593 20.143 20.8908 20.0557 21.1292 19.983L21.7816 19.7868L22.3637 19.6268L22.7565 20.7973ZM20.2735 22.0113C20.3562 22.0608 20.4522 22.0812 20.5471 22.0694C20.685 22.05 20.8211 22.0184 20.9539 21.9749L20.3998 21.6478C20.1753 21.8077 20.1332 21.9313 20.2735 22.0113ZM23.7806 22.6219C23.6902 22.581 23.5902 22.5683 23.493 22.5856C23.3451 22.6004 23.1993 22.6321 23.0581 22.6801L23.6052 23C23.7005 22.9451 23.7822 22.8679 23.8437 22.7746C23.8858 22.7092 23.8507 22.6656 23.8016 22.6219H23.7806Z" fill="url(#paint70_radial_47_656)"/>
<defs>
<linearGradient id="paint0_linear_47_656" x1="1.96672" y1="20.1717" x2="9.91144" y2="32.3997" gradientUnits="userSpaceOnUse">
<stop stop-color="#F5CB16"/>
<stop offset="0.2764" stop-color="#FEF687"/>
<stop offset="0.338" stop-color="#F5E063"/>
<stop offset="0.4168" stop-color="#EBC83C"/>
<stop offset="0.4796" stop-color="#E5B924"/>
<stop offset="0.5182" stop-color="#E3B31B"/>
<stop offset="0.6535" stop-color="#F0D24E"/>
<stop offset="0.7911" stop-color="#FFF585"/>
<stop offset="0.8728" stop-color="#FBE254"/>
<stop offset="0.9573" stop-color="#F7D227"/>
<stop offset="1" stop-color="#F5CB16"/>
</linearGradient>
<linearGradient id="paint1_linear_47_656" x1="9.15527e-05" y1="23.3347" x2="0.000119533" y2="23.3347" gradientUnits="userSpaceOnUse">
<stop stop-color="#FFBB96"/>
<stop offset="0.23" stop-color="#FFFBC9"/>
<stop offset="0.54" stop-color="#F9B673"/>
<stop offset="0.64" stop-color="#F9B876"/>
<stop offset="0.72" stop-color="#FABE81"/>
<stop offset="0.81" stop-color="#FCC993"/>
<stop offset="0.86" stop-color="#FED2A3"/>
<stop offset="0.97" stop-color="#FFC28C"/>
</linearGradient>
<linearGradient id="paint2_linear_47_656" x1="9.92466" y1="24.4687" x2="10.2243" y2="23.6453" gradientUnits="userSpaceOnUse">
<stop stop-color="#A37903"/>
<stop offset="0.0669" stop-color="#B28E2B"/>
<stop offset="0.1603" stop-color="#C4A95C"/>
<stop offset="0.2587" stop-color="#D4C088"/>
<stop offset="0.3602" stop-color="#E1D3AD"/>
<stop offset="0.4659" stop-color="#ECE3CB"/>
<stop offset="0.5769" stop-color="#F4EFE2"/>
<stop offset="0.6958" stop-color="#FAF8F2"/>
<stop offset="0.8279" stop-color="#FEFDFC"/>
<stop offset="1" stop-color="white"/>
</linearGradient>
<linearGradient id="paint3_linear_47_656" x1="31.279" y1="-3.07603" x2="9.02171" y2="18.5324" gradientUnits="userSpaceOnUse">
<stop offset="0.04" stop-color="#FFBA78"/>
<stop offset="0.4" stop-color="#FFC987"/>
<stop offset="1" stop-color="#FEECA8"/>
</linearGradient>
<radialGradient id="paint4_radial_47_656" cx="0" cy="0" r="1" gradientUnits="userSpaceOnUse" gradientTransform="translate(6.26639 22.9636) scale(13.8037 14.3066)">
<stop stop-color="white"/>
<stop offset="1"/>
</radialGradient>
<linearGradient id="paint5_linear_47_656" x1="465.52" y1="134.215" x2="265.273" y2="467.524" gradientUnits="userSpaceOnUse">
<stop offset="0.04" stop-color="#FFBA78"/>
<stop offset="0.4" stop-color="#FFC987"/>
<stop offset="1" stop-color="#FEECA8"/>
</linearGradient>
<radialGradient id="paint6_radial_47_656" cx="0" cy="0" r="1" gradientUnits="userSpaceOnUse" gradientTransform="translate(350.323 103.776) scale(142.062 45.2014)">
<stop stop-color="white"/>
<stop offset="1"/>
</radialGradient>
<linearGradient id="paint7_linear_47_656" x1="534.152" y1="50.8725" x2="469.201" y2="255.889" gradientUnits="userSpaceOnUse">
<stop stop-color="#FFBB96"/>
<stop offset="0.23" stop-color="#FFFBC9"/>
<stop offset="0.54" stop-color="#F9B673"/>
<stop offset="0.64" stop-color="#F9B876"/>
<stop offset="0.72" stop-color="#FABE81"/>
<stop offset="0.81" stop-color="#FCC993"/>
<stop offset="0.86" stop-color="#FED2A3"/>
<stop offset="0.97" stop-color="#FFC28C"/>
</linearGradient>
<radialGradient id="paint8_radial_47_656" cx="0" cy="0" r="1" gradientUnits="userSpaceOnUse" gradientTransform="translate(11.8352 19.7281) rotate(-70.9864) scale(2.39191 4.79941)">
<stop stop-color="#F49587"/>
<stop offset="0.12" stop-color="#BD7368"/>
<stop offset="0.24" stop-color="#8B554D"/>
<stop offset="0.36" stop-color="#603B35"/>
<stop offset="0.48" stop-color="#3E2622"/>
<stop offset="0.61" stop-color="#231513"/>
<stop offset="0.74" stop-color="#0F0908"/>
<stop offset="0.86" stop-color="#040202"/>
<stop offset="1"/>
</radialGradient>
<linearGradient id="paint9_linear_47_656" x1="86.8906" y1="154.571" x2="182.025" y2="154.571" gradientUnits="userSpaceOnUse">
<stop stop-color="#FFBB96"/>
<stop offset="0.23" stop-color="#FFFBC9"/>
<stop offset="0.54" stop-color="#F9B673"/>
<stop offset="0.64" stop-color="#F9B876"/>
<stop offset="0.72" stop-color="#FABE81"/>
<stop offset="0.81" stop-color="#FCC993"/>
<stop offset="0.86" stop-color="#FED2A3"/>
<stop offset="0.97" stop-color="#FFC28C"/>
</linearGradient>
<linearGradient id="paint10_linear_47_656" x1="228.225" y1="116.303" x2="164.196" y2="167.859" gradientUnits="userSpaceOnUse">
<stop offset="0.04" stop-color="#FFBA78"/>
<stop offset="0.4" stop-color="#FFC987"/>
<stop offset="1" stop-color="#FEECA8"/>
</linearGradient>
<radialGradient id="paint11_radial_47_656" cx="0" cy="0" r="1" gradientUnits="userSpaceOnUse" gradientTransform="translate(69.5037 155.522) scale(85.3271 57.8314)">
<stop stop-color="#F49587"/>
<stop offset="0.12" stop-color="#BD7368"/>
<stop offset="0.24" stop-color="#8B554D"/>
<stop offset="0.36" stop-color="#603B35"/>
<stop offset="0.48" stop-color="#3E2622"/>
<stop offset="0.61" stop-color="#231513"/>
<stop offset="0.74" stop-color="#0F0908"/>
<stop offset="0.86" stop-color="#040202"/>
<stop offset="1"/>
</radialGradient>
<linearGradient id="paint12_linear_47_656" x1="1.96705" y1="16.5805" x2="9.9118" y2="28.8084" gradientUnits="userSpaceOnUse">
<stop stop-color="#F5CB16"/>
<stop offset="0.2764" stop-color="#FEF687"/>
<stop offset="0.338" stop-color="#F5E063"/>
<stop offset="0.4168" stop-color="#EBC83C"/>
<stop offset="0.4796" stop-color="#E5B924"/>
<stop offset="0.5182" stop-color="#E3B31B"/>
<stop offset="0.6535" stop-color="#F0D24E"/>
<stop offset="0.7911" stop-color="#FFF585"/>
<stop offset="0.8728" stop-color="#FBE254"/>
<stop offset="0.9573" stop-color="#F7D227"/>
<stop offset="1" stop-color="#F5CB16"/>
</linearGradient>
<linearGradient id="paint13_linear_47_656" x1="9.15527e-05" y1="19.502" x2="0.000119752" y2="19.502" gradientUnits="userSpaceOnUse">
<stop stop-color="#FFBB96"/>
<stop offset="0.23" stop-color="#FFFBC9"/>
<stop offset="0.54" stop-color="#F9B673"/>
<stop offset="0.64" stop-color="#F9B876"/>
<stop offset="0.72" stop-color="#FABE81"/>
<stop offset="0.81" stop-color="#FCC993"/>
<stop offset="0.86" stop-color="#FED2A3"/>
<stop offset="0.97" stop-color="#FFC28C"/>
</linearGradient>
<linearGradient id="paint14_linear_47_656" x1="9.92478" y1="20.8775" x2="10.2244" y2="20.0541" gradientUnits="userSpaceOnUse">
<stop stop-color="#A37903"/>
<stop offset="0.0669" stop-color="#B28E2B"/>
<stop offset="0.1603" stop-color="#C4A95C"/>
<stop offset="0.2587" stop-color="#D4C088"/>
<stop offset="0.3602" stop-color="#E1D3AD"/>
<stop offset="0.4659" stop-color="#ECE3CB"/>
<stop offset="0.5769" stop-color="#F4EFE2"/>
<stop offset="0.6958" stop-color="#FAF8F2"/>
<stop offset="0.8279" stop-color="#FEFDFC"/>
<stop offset="1" stop-color="white"/>
</linearGradient>
<linearGradient id="paint15_linear_47_656" x1="979.565" y1="-113.727" x2="621.233" y2="483.627" gradientUnits="userSpaceOnUse">
<stop offset="0.04" stop-color="#FFBA78"/>
<stop offset="0.4" stop-color="#FFC987"/>
<stop offset="1" stop-color="#FEECA8"/>
</linearGradient>
<radialGradient id="paint16_radial_47_656" cx="0" cy="0" r="1" gradientUnits="userSpaceOnUse" gradientTransform="translate(196.179 197.23) scale(432.334 134.911)">
<stop stop-color="white"/>
<stop offset="1"/>
</radialGradient>
<linearGradient id="paint17_linear_47_656" x1="465.52" y1="81.6774" x2="265.27" y2="414.988" gradientUnits="userSpaceOnUse">
<stop offset="0.04" stop-color="#FFBA78"/>
<stop offset="0.4" stop-color="#FFC987"/>
<stop offset="1" stop-color="#FEECA8"/>
</linearGradient>
<radialGradient id="paint18_radial_47_656" cx="0" cy="0" r="1" gradientUnits="userSpaceOnUse" gradientTransform="translate(350.748 74.3478) scale(142.245 45.201)">
<stop stop-color="white"/>
<stop offset="1"/>
</radialGradient>
<linearGradient id="paint19_linear_47_656" x1="534.152" y1="21.4968" x2="469.176" y2="226.497" gradientUnits="userSpaceOnUse">
<stop stop-color="#FFBB96"/>
<stop offset="0.23" stop-color="#FFFBC9"/>
<stop offset="0.54" stop-color="#F9B673"/>
<stop offset="0.64" stop-color="#F9B876"/>
<stop offset="0.72" stop-color="#FABE81"/>
<stop offset="0.81" stop-color="#FCC993"/>
<stop offset="0.86" stop-color="#FED2A3"/>
<stop offset="0.97" stop-color="#FFC28C"/>
</linearGradient>
<radialGradient id="paint20_radial_47_656" cx="0" cy="0" r="1" gradientUnits="userSpaceOnUse" gradientTransform="translate(137184 -51648.6) scale(201.409 123.369)">
<stop stop-color="#F49587"/>
<stop offset="0.12" stop-color="#BD7368"/>
<stop offset="0.24" stop-color="#8B554D"/>
<stop offset="0.36" stop-color="#603B35"/>
<stop offset="0.48" stop-color="#3E2622"/>
<stop offset="0.61" stop-color="#231513"/>
<stop offset="0.74" stop-color="#0F0908"/>
<stop offset="0.86" stop-color="#040202"/>
<stop offset="1"/>
</radialGradient>
<linearGradient id="paint21_linear_47_656" x1="86.8954" y1="123.574" x2="182.036" y2="123.574" gradientUnits="userSpaceOnUse">
<stop stop-color="#FFBB96"/>
<stop offset="0.23" stop-color="#FFFBC9"/>
<stop offset="0.54" stop-color="#F9B673"/>
<stop offset="0.64" stop-color="#F9B876"/>
<stop offset="0.72" stop-color="#FABE81"/>
<stop offset="0.81" stop-color="#FCC993"/>
<stop offset="0.86" stop-color="#FED2A3"/>
<stop offset="0.97" stop-color="#FFC28C"/>
</linearGradient>
<linearGradient id="paint22_linear_47_656" x1="227.691" y1="86.0041" x2="163.238" y2="137.3" gradientUnits="userSpaceOnUse">
<stop offset="0.04" stop-color="#FFBA78"/>
<stop offset="0.4" stop-color="#FFC987"/>
<stop offset="1" stop-color="#FEECA8"/>
</linearGradient>
<radialGradient id="paint23_radial_47_656" cx="0" cy="0" r="1" gradientUnits="userSpaceOnUse" gradientTransform="translate(69.3673 125.584) scale(85.1133 58.3631)">
<stop stop-color="#F49587"/>
<stop offset="0.12" stop-color="#BD7368"/>
<stop offset="0.24" stop-color="#8B554D"/>
<stop offset="0.36" stop-color="#603B35"/>
<stop offset="0.48" stop-color="#3E2622"/>
<stop offset="0.61" stop-color="#231513"/>
<stop offset="0.74" stop-color="#0F0908"/>
<stop offset="0.86" stop-color="#040202"/>
<stop offset="1"/>
</radialGradient>
<linearGradient id="paint24_linear_47_656" x1="1.96705" y1="12.8003" x2="9.91185" y2="25.0282" gradientUnits="userSpaceOnUse">
<stop stop-color="#F5CB16"/>
<stop offset="0.2764" stop-color="#FEF687"/>
<stop offset="0.338" stop-color="#F5E063"/>
<stop offset="0.4168" stop-color="#EBC83C"/>
<stop offset="0.4796" stop-color="#E5B924"/>
<stop offset="0.5182" stop-color="#E3B31B"/>
<stop offset="0.6535" stop-color="#F0D24E"/>
<stop offset="0.7911" stop-color="#FFF585"/>
<stop offset="0.8728" stop-color="#FBE254"/>
<stop offset="0.9573" stop-color="#F7D227"/>
<stop offset="1" stop-color="#F5CB16"/>
</linearGradient>
<linearGradient id="paint25_linear_47_656" x1="-9.15527e-05" y1="15.2233" x2="-6.11678e-05" y2="15.2233" gradientUnits="userSpaceOnUse">
<stop stop-color="#FFBB96"/>
<stop offset="0.23" stop-color="#FFFBC9"/>
<stop offset="0.54" stop-color="#F9B673"/>
<stop offset="0.64" stop-color="#F9B876"/>
<stop offset="0.72" stop-color="#FABE81"/>
<stop offset="0.81" stop-color="#FCC993"/>
<stop offset="0.86" stop-color="#FED2A3"/>
<stop offset="0.97" stop-color="#FFC28C"/>
</linearGradient>
<linearGradient id="paint26_linear_47_656" x1="9.92497" y1="17.0974" x2="10.2246" y2="16.2739" gradientUnits="userSpaceOnUse">
<stop stop-color="#A37903"/>
<stop offset="0.0669" stop-color="#B28E2B"/>
<stop offset="0.1603" stop-color="#C4A95C"/>
<stop offset="0.2587" stop-color="#D4C088"/>
<stop offset="0.3602" stop-color="#E1D3AD"/>
<stop offset="0.4659" stop-color="#ECE3CB"/>
<stop offset="0.5769" stop-color="#F4EFE2"/>
<stop offset="0.6958" stop-color="#FAF8F2"/>
<stop offset="0.8279" stop-color="#FEFDFC"/>
<stop offset="1" stop-color="white"/>
</linearGradient>
<linearGradient id="paint27_linear_47_656" x1="979.565" y1="-186.59" x2="621.287" y2="410.868" gradientUnits="userSpaceOnUse">
<stop offset="0.04" stop-color="#FFBA78"/>
<stop offset="0.4" stop-color="#FFC987"/>
<stop offset="1" stop-color="#FEECA8"/>
</linearGradient>
<radialGradient id="paint28_radial_47_656" cx="0" cy="0" r="1" gradientUnits="userSpaceOnUse" gradientTransform="translate(196.179 157.966) scale(432.334 135.055)">
<stop stop-color="white"/>
<stop offset="1"/>
</radialGradient>
<linearGradient id="paint29_linear_47_656" x1="465.52" y1="26.3811" x2="265.056" y2="359.805" gradientUnits="userSpaceOnUse">
<stop offset="0.04" stop-color="#FFBA78"/>
<stop offset="0.4" stop-color="#FFC987"/>
<stop offset="1" stop-color="#FEECA8"/>
</linearGradient>
<radialGradient id="paint30_radial_47_656" cx="0" cy="0" r="1" gradientUnits="userSpaceOnUse" gradientTransform="translate(350.311 43.4716) scale(142.057 45.2638)">
<stop stop-color="white"/>
<stop offset="1"/>
</radialGradient>
<linearGradient id="paint31_linear_47_656" x1="534.135" y1="-9.45333" x2="468.995" y2="195.776" gradientUnits="userSpaceOnUse">
<stop stop-color="#FFBB96"/>
<stop offset="0.23" stop-color="#FFFBC9"/>
<stop offset="0.54" stop-color="#F9B673"/>
<stop offset="0.64" stop-color="#F9B876"/>
<stop offset="0.72" stop-color="#FABE81"/>
<stop offset="0.81" stop-color="#FCC993"/>
<stop offset="0.86" stop-color="#FED2A3"/>
<stop offset="0.97" stop-color="#FFC28C"/>
</linearGradient>
<radialGradient id="paint32_radial_47_656" cx="0" cy="0" r="1" gradientUnits="userSpaceOnUse" gradientTransform="translate(-20160.7 -17002.1) rotate(-71.8164) scale(16.0788 63.1605)">
<stop stop-color="#F49587"/>
<stop offset="0.12" stop-color="#BD7368"/>
<stop offset="0.24" stop-color="#8B554D"/>
<stop offset="0.36" stop-color="#603B35"/>
<stop offset="0.48" stop-color="#3E2622"/>
<stop offset="0.61" stop-color="#231513"/>
<stop offset="0.74" stop-color="#0F0908"/>
<stop offset="0.86" stop-color="#040202"/>
<stop offset="1"/>
</radialGradient>
<linearGradient id="paint33_linear_47_656" x1="87.2005" y1="90.5755" x2="182.746" y2="90.5755" gradientUnits="userSpaceOnUse">
<stop stop-color="#FFBB96"/>
<stop offset="0.23" stop-color="#FFFBC9"/>
<stop offset="0.54" stop-color="#F9B673"/>
<stop offset="0.64" stop-color="#F9B876"/>
<stop offset="0.72" stop-color="#FABE81"/>
<stop offset="0.81" stop-color="#FCC993"/>
<stop offset="0.86" stop-color="#FED2A3"/>
<stop offset="0.97" stop-color="#FFC28C"/>
</linearGradient>
<linearGradient id="paint34_linear_47_656" x1="227.68" y1="52.9172" x2="163.489" y2="104.269" gradientUnits="userSpaceOnUse">
<stop offset="0.04" stop-color="#FFBA78"/>
<stop offset="0.4" stop-color="#FFC987"/>
<stop offset="1" stop-color="#FEECA8"/>
</linearGradient>
<radialGradient id="paint35_radial_47_656" cx="0" cy="0" r="1" gradientUnits="userSpaceOnUse" gradientTransform="translate(69.3645 92.2347) scale(85.109 58.0587)">
<stop stop-color="#F49587"/>
<stop offset="0.12" stop-color="#BD7368"/>
<stop offset="0.24" stop-color="#8B554D"/>
<stop offset="0.36" stop-color="#603B35"/>
<stop offset="0.48" stop-color="#3E2622"/>
<stop offset="0.61" stop-color="#231513"/>
<stop offset="0.74" stop-color="#0F0908"/>
<stop offset="0.86" stop-color="#040202"/>
<stop offset="1"/>
</radialGradient>
<linearGradient id="paint36_linear_47_656" x1="1.96689" y1="8.9562" x2="9.91985" y2="21.1878" gradientUnits="userSpaceOnUse">
<stop stop-color="#F5CB16"/>
<stop offset="0.2764" stop-color="#FEF687"/>
<stop offset="0.338" stop-color="#F5E063"/>
<stop offset="0.4168" stop-color="#EBC83C"/>
<stop offset="0.4796" stop-color="#E5B924"/>
<stop offset="0.5182" stop-color="#E3B31B"/>
<stop offset="0.6535" stop-color="#F0D24E"/>
<stop offset="0.7911" stop-color="#FFF585"/>
<stop offset="0.8728" stop-color="#FBE254"/>
<stop offset="0.9573" stop-color="#F7D227"/>
<stop offset="1" stop-color="#F5CB16"/>
</linearGradient>
<linearGradient id="paint37_linear_47_656" x1="9.15527e-05" y1="10.7765" x2="0.000119533" y2="10.7765" gradientUnits="userSpaceOnUse">
<stop stop-color="#FFBB96"/>
<stop offset="0.23" stop-color="#FFFBC9"/>
<stop offset="0.54" stop-color="#F9B673"/>
<stop offset="0.64" stop-color="#F9B876"/>
<stop offset="0.72" stop-color="#FABE81"/>
<stop offset="0.81" stop-color="#FCC993"/>
<stop offset="0.86" stop-color="#FED2A3"/>
<stop offset="0.97" stop-color="#FFC28C"/>
</linearGradient>
<linearGradient id="paint38_linear_47_656" x1="9.92477" y1="13.2847" x2="10.2249" y2="12.4607" gradientUnits="userSpaceOnUse">
<stop stop-color="#A37903"/>
<stop offset="0.0669" stop-color="#B28E2B"/>
<stop offset="0.1603" stop-color="#C4A95C"/>
<stop offset="0.2587" stop-color="#D4C088"/>
<stop offset="0.3602" stop-color="#E1D3AD"/>
<stop offset="0.4659" stop-color="#ECE3CB"/>
<stop offset="0.5769" stop-color="#F4EFE2"/>
<stop offset="0.6958" stop-color="#FAF8F2"/>
<stop offset="0.8279" stop-color="#FEFDFC"/>
<stop offset="1" stop-color="white"/>
</linearGradient>
<linearGradient id="paint39_linear_47_656" x1="1.96963" y1="3.09009" x2="13.4639" y2="16.3373" gradientUnits="userSpaceOnUse">
<stop stop-color="#F5CB16"/>
<stop offset="0.2764" stop-color="#FEF687"/>
<stop offset="0.338" stop-color="#F5E063"/>
<stop offset="0.4168" stop-color="#EBC83C"/>
<stop offset="0.4796" stop-color="#E5B924"/>
<stop offset="0.5182" stop-color="#E3B31B"/>
<stop offset="0.6535" stop-color="#F0D24E"/>
<stop offset="0.7911" stop-color="#FFF585"/>
<stop offset="0.8728" stop-color="#FBE254"/>
<stop offset="0.9573" stop-color="#F7D227"/>
<stop offset="1" stop-color="#F5CB16"/>
</linearGradient>
<radialGradient id="paint40_radial_47_656" cx="0" cy="0" r="1" gradientUnits="userSpaceOnUse" gradientTransform="translate(196.179 118.178) scale(432.334 135.484)">
<stop stop-color="white"/>
<stop offset="1"/>
</radialGradient>
<linearGradient id="paint41_linear_47_656" x1="14.4825" y1="11.3569" x2="11.6035" y2="1.2276" gradientUnits="userSpaceOnUse">
<stop stop-color="#E8BC03"/>
<stop offset="0.1099" stop-color="#DBAC02"/>
<stop offset="0.2171" stop-color="#D3A102"/>
<stop offset="0.3653" stop-color="#E4BB1F"/>
<stop offset="0.5691" stop-color="#F7D942"/>
<stop offset="0.6791" stop-color="#FFE54F"/>
<stop offset="0.7447" stop-color="#FDE24A"/>
<stop offset="0.8267" stop-color="#F9DA3A"/>
<stop offset="0.9172" stop-color="#F1CC21"/>
<stop offset="1" stop-color="#E8BC03"/>
</linearGradient>
<radialGradient id="paint42_radial_47_656" cx="0" cy="0" r="1" gradientUnits="userSpaceOnUse" gradientTransform="translate(350.318 12.0214) scale(142.06 45.2006)">
<stop stop-color="white"/>
<stop offset="1"/>
</radialGradient>
<linearGradient id="paint43_linear_47_656" x1="534.143" y1="-40.8826" x2="469.19" y2="164.135" gradientUnits="userSpaceOnUse">
<stop stop-color="#FFBB96"/>
<stop offset="0.23" stop-color="#FFFBC9"/>
<stop offset="0.54" stop-color="#F9B673"/>
<stop offset="0.64" stop-color="#F9B876"/>
<stop offset="0.72" stop-color="#FABE81"/>
<stop offset="0.81" stop-color="#FCC993"/>
<stop offset="0.86" stop-color="#FED2A3"/>
<stop offset="0.97" stop-color="#FFC28C"/>
</linearGradient>
<radialGradient id="paint44_radial_47_656" cx="0" cy="0" r="1" gradientUnits="userSpaceOnUse" gradientTransform="translate(-28589 -37810.1) rotate(-74.9298) scale(89.7766 80.9614)">
<stop stop-color="#F49587"/>
<stop offset="0.12" stop-color="#BD7368"/>
<stop offset="0.24" stop-color="#8B554D"/>
<stop offset="0.36" stop-color="#603B35"/>
<stop offset="0.48" stop-color="#3E2622"/>
<stop offset="0.61" stop-color="#231513"/>
<stop offset="0.74" stop-color="#0F0908"/>
<stop offset="0.86" stop-color="#040202"/>
<stop offset="1"/>
</radialGradient>
<radialGradient id="paint45_radial_47_656" cx="0" cy="0" r="1" gradientUnits="userSpaceOnUse" gradientTransform="translate(137784 -51867.6) scale(201.409 123.726)">
<stop stop-color="#F49587"/>
<stop offset="0.12" stop-color="#BD7368"/>
<stop offset="0.24" stop-color="#8B554D"/>
<stop offset="0.36" stop-color="#603B35"/>
<stop offset="0.48" stop-color="#3E2622"/>
<stop offset="0.61" stop-color="#231513"/>
<stop offset="0.74" stop-color="#0F0908"/>
<stop offset="0.86" stop-color="#040202"/>
<stop offset="1"/>
</radialGradient>
<linearGradient id="paint46_linear_47_656" x1="86.8906" y1="57.0655" x2="182.025" y2="57.0655" gradientUnits="userSpaceOnUse">
<stop stop-color="#FFBB96"/>
<stop offset="0.23" stop-color="#FFFBC9"/>
<stop offset="0.54" stop-color="#F9B673"/>
<stop offset="0.64" stop-color="#F9B876"/>
<stop offset="0.72" stop-color="#FABE81"/>
<stop offset="0.81" stop-color="#FCC993"/>
<stop offset="0.86" stop-color="#FED2A3"/>
<stop offset="0.97" stop-color="#FFC28C"/>
</linearGradient>
<linearGradient id="paint47_linear_47_656" x1="227.677" y1="19.557" x2="163.815" y2="70.9809" gradientUnits="userSpaceOnUse">
<stop offset="0.04" stop-color="#FFBA78"/>
<stop offset="0.4" stop-color="#FFC987"/>
<stop offset="1" stop-color="#FEECA8"/>
</linearGradient>
<radialGradient id="paint48_radial_47_656" cx="0" cy="0" r="1" gradientUnits="userSpaceOnUse" gradientTransform="translate(69.3636 58.6729) scale(85.1076 57.6794)">
<stop stop-color="#F49587"/>
<stop offset="0.12" stop-color="#BD7368"/>
<stop offset="0.24" stop-color="#8B554D"/>
<stop offset="0.36" stop-color="#603B35"/>
<stop offset="0.48" stop-color="#3E2622"/>
<stop offset="0.61" stop-color="#231513"/>
<stop offset="0.74" stop-color="#0F0908"/>
<stop offset="0.86" stop-color="#040202"/>
<stop offset="1"/>
</radialGradient>
<linearGradient id="paint49_linear_47_656" x1="13.1071" y1="28.2991" x2="21.0532" y2="40.5238" gradientUnits="userSpaceOnUse">
<stop stop-color="#F5CB16"/>
<stop offset="0.2764" stop-color="#FEF687"/>
<stop offset="0.338" stop-color="#F5E063"/>
<stop offset="0.4168" stop-color="#EBC83C"/>
<stop offset="0.4796" stop-color="#E5B924"/>
<stop offset="0.5182" stop-color="#E3B31B"/>
<stop offset="0.6535" stop-color="#F0D24E"/>
<stop offset="0.7911" stop-color="#FFF585"/>
<stop offset="0.8728" stop-color="#FBE254"/>
<stop offset="0.9573" stop-color="#F7D227"/>
<stop offset="1" stop-color="#F5CB16"/>
</linearGradient>
<linearGradient id="paint50_linear_47_656" x1="21.0615" y1="32.6071" x2="21.3617" y2="31.7832" gradientUnits="userSpaceOnUse">
<stop stop-color="#A37903"/>
<stop offset="0.0669" stop-color="#B28E2B"/>
<stop offset="0.1603" stop-color="#C4A95C"/>
<stop offset="0.2587" stop-color="#D4C088"/>
<stop offset="0.3602" stop-color="#E1D3AD"/>
<stop offset="0.4659" stop-color="#ECE3CB"/>
<stop offset="0.5769" stop-color="#F4EFE2"/>
<stop offset="0.6958" stop-color="#FAF8F2"/>
<stop offset="0.8279" stop-color="#FEFDFC"/>
<stop offset="1" stop-color="white"/>
</linearGradient>
<linearGradient id="paint51_linear_47_656" x1="1339.56" y1="111.885" x2="981.281" y2="709.34" gradientUnits="userSpaceOnUse">
<stop offset="0.04" stop-color="#FFBA78"/>
<stop offset="0.4" stop-color="#FFC987"/>
<stop offset="1" stop-color="#FEECA8"/>
</linearGradient>
<radialGradient id="paint52_radial_47_656" cx="0" cy="0" r="1" gradientUnits="userSpaceOnUse" gradientTransform="translate(556.012 319.922) scale(432.196 135.053)">
<stop stop-color="white"/>
<stop offset="1"/>
</radialGradient>
<linearGradient id="paint53_linear_47_656" x1="738.364" y1="253.497" x2="537.97" y2="587.368" gradientUnits="userSpaceOnUse">
<stop offset="0.04" stop-color="#FFBA78"/>
<stop offset="0.4" stop-color="#FFC987"/>
<stop offset="1" stop-color="#FEECA8"/>
</linearGradient>
<radialGradient id="paint54_radial_47_656" cx="0" cy="0" r="1" gradientUnits="userSpaceOnUse" gradientTransform="translate(622.527 170.319) scale(142.198 45.2017)">
<stop stop-color="white"/>
<stop offset="1"/>
</radialGradient>
<linearGradient id="paint55_linear_47_656" x1="807.47" y1="117.608" x2="742.548" y2="322.88" gradientUnits="userSpaceOnUse">
<stop stop-color="#FFBB96"/>
<stop offset="0.23" stop-color="#FFFBC9"/>
<stop offset="0.54" stop-color="#F9B673"/>
<stop offset="0.64" stop-color="#F9B876"/>
<stop offset="0.72" stop-color="#FABE81"/>
<stop offset="0.81" stop-color="#FCC993"/>
<stop offset="0.86" stop-color="#FED2A3"/>
<stop offset="0.97" stop-color="#FFC28C"/>
</linearGradient>
<radialGradient id="paint56_radial_47_656" cx="0" cy="0" r="1" gradientUnits="userSpaceOnUse" gradientTransform="translate(136658 -51394.4) scale(201.521 123.678)">
<stop stop-color="#F49587"/>
<stop offset="0.12" stop-color="#BD7368"/>
<stop offset="0.24" stop-color="#8B554D"/>
<stop offset="0.36" stop-color="#603B35"/>
<stop offset="0.48" stop-color="#3E2622"/>
<stop offset="0.61" stop-color="#231513"/>
<stop offset="0.74" stop-color="#0F0908"/>
<stop offset="0.86" stop-color="#040202"/>
<stop offset="1"/>
</radialGradient>
<linearGradient id="paint57_linear_47_656" x1="229.037" y1="223.364" x2="324.905" y2="223.364" gradientUnits="userSpaceOnUse">
<stop stop-color="#FFBB96"/>
<stop offset="0.23" stop-color="#FFFBC9"/>
<stop offset="0.54" stop-color="#F9B673"/>
<stop offset="0.64" stop-color="#F9B876"/>
<stop offset="0.72" stop-color="#FABE81"/>
<stop offset="0.81" stop-color="#FCC993"/>
<stop offset="0.86" stop-color="#FED2A3"/>
<stop offset="0.97" stop-color="#FFC28C"/>
</linearGradient>
<linearGradient id="paint58_linear_47_656" x1="370.909" y1="186.893" x2="306.678" y2="238.741" gradientUnits="userSpaceOnUse">
<stop offset="0.04" stop-color="#FFBA78"/>
<stop offset="0.4" stop-color="#FFC987"/>
<stop offset="1" stop-color="#FEECA8"/>
</linearGradient>
<radialGradient id="paint59_radial_47_656" cx="0" cy="0" r="1" gradientUnits="userSpaceOnUse" gradientTransform="translate(211.374 226.16) scale(85.7642 57.9834)">
<stop stop-color="#F49587"/>
<stop offset="0.12" stop-color="#BD7368"/>
<stop offset="0.24" stop-color="#8B554D"/>
<stop offset="0.36" stop-color="#603B35"/>
<stop offset="0.48" stop-color="#3E2622"/>
<stop offset="0.61" stop-color="#231513"/>
<stop offset="0.74" stop-color="#0F0908"/>
<stop offset="0.86" stop-color="#040202"/>
<stop offset="1"/>
</radialGradient>
<linearGradient id="paint60_linear_47_656" x1="13.1071" y1="24.7166" x2="21.0615" y2="36.945" gradientUnits="userSpaceOnUse">
<stop stop-color="#F5CB16"/>
<stop offset="0.2764" stop-color="#FEF687"/>
<stop offset="0.338" stop-color="#F5E063"/>
<stop offset="0.4168" stop-color="#EBC83C"/>
<stop offset="0.4796" stop-color="#E5B924"/>
<stop offset="0.5182" stop-color="#E3B31B"/>
<stop offset="0.6535" stop-color="#F0D24E"/>
<stop offset="0.7911" stop-color="#FFF585"/>
<stop offset="0.8728" stop-color="#FBE254"/>
<stop offset="0.9573" stop-color="#F7D227"/>
<stop offset="1" stop-color="#F5CB16"/>
</linearGradient>
<linearGradient id="paint61_linear_47_656" x1="21.0615" y1="29.016" x2="21.3617" y2="28.192" gradientUnits="userSpaceOnUse">
<stop stop-color="#A37903"/>
<stop offset="0.0669" stop-color="#B28E2B"/>
<stop offset="0.1603" stop-color="#C4A95C"/>
<stop offset="0.2587" stop-color="#D4C088"/>
<stop offset="0.3602" stop-color="#E1D3AD"/>
<stop offset="0.4659" stop-color="#ECE3CB"/>
<stop offset="0.5769" stop-color="#F4EFE2"/>
<stop offset="0.6958" stop-color="#FAF8F2"/>
<stop offset="0.8279" stop-color="#FEFDFC"/>
<stop offset="1" stop-color="white"/>
</linearGradient>
<linearGradient id="paint62_linear_47_656" x1="13.1077" y1="18.8502" x2="24.6019" y2="32.0974" gradientUnits="userSpaceOnUse">
<stop stop-color="#F5CB16"/>
<stop offset="0.2764" stop-color="#FEF687"/>
<stop offset="0.338" stop-color="#F5E063"/>
<stop offset="0.4168" stop-color="#EBC83C"/>
<stop offset="0.4796" stop-color="#E5B924"/>
<stop offset="0.5182" stop-color="#E3B31B"/>
<stop offset="0.6535" stop-color="#F0D24E"/>
<stop offset="0.7911" stop-color="#FFF585"/>
<stop offset="0.8728" stop-color="#FBE254"/>
<stop offset="0.9573" stop-color="#F7D227"/>
<stop offset="1" stop-color="#F5CB16"/>
</linearGradient>
<radialGradient id="paint63_radial_47_656" cx="0" cy="0" r="1" gradientUnits="userSpaceOnUse" gradientTransform="translate(556.012 282.355) scale(432.196 135.053)">
<stop stop-color="white"/>
<stop offset="1"/>
</radialGradient>
<linearGradient id="paint64_linear_47_656" x1="25.6107" y1="27.1519" x2="22.7175" y2="16.9878" gradientUnits="userSpaceOnUse">
<stop stop-color="#E8BC03"/>
<stop offset="0.1099" stop-color="#DBAC02"/>
<stop offset="0.2171" stop-color="#D3A102"/>
<stop offset="0.3653" stop-color="#E4BB1F"/>
<stop offset="0.5691" stop-color="#F7D942"/>
<stop offset="0.6791" stop-color="#FFE54F"/>
<stop offset="0.7447" stop-color="#FDE24A"/>
<stop offset="0.8267" stop-color="#F9DA3A"/>
<stop offset="0.9172" stop-color="#F1CC21"/>
<stop offset="1" stop-color="#E8BC03"/>
</linearGradient>
<radialGradient id="paint65_radial_47_656" cx="0" cy="0" r="1" gradientUnits="userSpaceOnUse" gradientTransform="translate(621.768 140.942) scale(142.015 45.2014)">
<stop stop-color="white"/>
<stop offset="1"/>
</radialGradient>
<linearGradient id="paint66_linear_47_656" x1="807.47" y1="88.0382" x2="742.737" y2="293.093" gradientUnits="userSpaceOnUse">
<stop stop-color="#FFBB96"/>
<stop offset="0.23" stop-color="#FFFBC9"/>
<stop offset="0.54" stop-color="#F9B673"/>
<stop offset="0.64" stop-color="#F9B876"/>
<stop offset="0.72" stop-color="#FABE81"/>
<stop offset="0.81" stop-color="#FCC993"/>
<stop offset="0.86" stop-color="#FED2A3"/>
<stop offset="0.97" stop-color="#FFC28C"/>
</linearGradient>
<radialGradient id="paint67_radial_47_656" cx="0" cy="0" r="1" gradientUnits="userSpaceOnUse" gradientTransform="translate(136940 -51403.4) scale(201.521 123.621)">
<stop stop-color="#F49587"/>
<stop offset="0.12" stop-color="#BD7368"/>
<stop offset="0.24" stop-color="#8B554D"/>
<stop offset="0.36" stop-color="#603B35"/>
<stop offset="0.48" stop-color="#3E2622"/>
<stop offset="0.61" stop-color="#231513"/>
<stop offset="0.74" stop-color="#0F0908"/>
<stop offset="0.86" stop-color="#040202"/>
<stop offset="1"/>
</radialGradient>
<linearGradient id="paint68_linear_47_656" x1="229.037" y1="193.516" x2="324.905" y2="193.516" gradientUnits="userSpaceOnUse">
<stop stop-color="#FFBB96"/>
<stop offset="0.23" stop-color="#FFFBC9"/>
<stop offset="0.54" stop-color="#F9B673"/>
<stop offset="0.64" stop-color="#F9B876"/>
<stop offset="0.72" stop-color="#FABE81"/>
<stop offset="0.81" stop-color="#FCC993"/>
<stop offset="0.86" stop-color="#FED2A3"/>
<stop offset="0.97" stop-color="#FFC28C"/>
</linearGradient>
<linearGradient id="paint69_linear_47_656" x1="370.923" y1="155.99" x2="306.624" y2="207.825" gradientUnits="userSpaceOnUse">
<stop offset="0.04" stop-color="#FFBA78"/>
<stop offset="0.4" stop-color="#FFC987"/>
<stop offset="1" stop-color="#FEECA8"/>
</linearGradient>
<radialGradient id="paint70_radial_47_656" cx="0" cy="0" r="1" gradientUnits="userSpaceOnUse" gradientTransform="translate(211.382 195.364) scale(85.7676 58.0601)">
<stop stop-color="#F49587"/>
<stop offset="0.12" stop-color="#BD7368"/>
<stop offset="0.24" stop-color="#8B554D"/>
<stop offset="0.36" stop-color="#603B35"/>
<stop offset="0.48" stop-color="#3E2622"/>
<stop offset="0.61" stop-color="#231513"/>
<stop offset="0.74" stop-color="#0F0908"/>
<stop offset="0.86" stop-color="#040202"/>
<stop offset="1"/>
</radialGradient>
</defs>
</svg>
