<svg width="66" height="58" viewBox="0 0 66 58" fill="none" xmlns="http://www.w3.org/2000/svg">
<path d="M21.2265 24.1281C11.0004 26.5371 6.10352e-05 16.939 6.10352e-05 16.939C6.10352e-05 16.939 5.57058 3.44304 15.7967 1.03944C26.0175 -1.36417 37.0232 8.23401 37.0232 8.23401C37.0232 8.23401 31.4473 21.7245 21.2265 24.1281Z" fill="#7C9E4A"/>
<path d="M2.25142 12.6298C6.21412 14.6219 11.3028 16.2352 16.2129 15.0767C22.6496 13.5609 27.2403 7.65474 29.763 3.48632C25.7949 1.49956 20.7116 -0.119089 15.8015 1.03399C9.35938 2.55519 4.76871 8.46135 2.25142 12.6298Z" fill="#B1D664"/>
<path d="M38.1603 42.583C38.1603 50.9415 31.3825 57.7247 23.024 57.7247C14.6601 57.7247 7.88239 50.9469 7.88239 42.583C7.88239 34.2191 14.6601 27.4414 23.024 27.4414C31.3825 27.4414 38.1603 34.2191 38.1603 42.583Z" fill="#CA2301"/>
<path d="M26.44 27.8365C25.341 27.5821 24.1988 27.4467 23.024 27.4467C14.6601 27.4467 7.88239 34.2245 7.88239 42.5884C7.88239 43.7631 8.02314 44.9053 8.27216 46.0043C10.6162 49.6151 14.6764 52.0133 19.2995 52.0133C26.5591 52.0133 32.4436 46.1288 32.4436 38.8693C32.4436 34.2407 30.0508 30.1805 26.44 27.8365Z" fill="#EA3D03"/>
<path d="M27.9719 29.8448C27.9719 30.7217 25.7578 31.4309 23.0239 31.4309C20.2901 31.4309 18.076 30.7217 18.076 29.8448C18.076 28.9678 20.2901 28.2586 23.0239 28.2586C25.7524 28.2586 27.9719 28.9732 27.9719 29.8448Z" fill="#CA2301"/>
<path d="M65.72 42.2579C65.72 50.6164 58.9423 57.3942 50.5784 57.3942C42.2145 57.3942 35.4422 50.6164 35.4422 42.2579C35.4422 33.894 42.2199 27.1163 50.5784 27.1163C58.9423 27.1163 65.72 33.894 65.72 42.2579Z" fill="#CA2301"/>
<path d="M53.9993 27.5114C52.9003 27.257 51.7581 27.1162 50.5833 27.1162C42.2194 27.1162 35.4471 33.894 35.4471 42.2579C35.4471 43.4326 35.5879 44.5749 35.8369 45.6738C38.1809 49.2846 42.2411 51.6828 46.8642 51.6828C54.1238 51.6828 60.0083 45.7983 60.0083 38.5388C60.0083 33.9102 57.6101 29.8501 53.9993 27.5114Z" fill="#EA3D03"/>
<path d="M55.5318 29.5198C55.5318 30.3968 53.3177 31.1059 50.5838 31.1059C47.85 31.1059 45.6359 30.3968 45.6359 29.5198C45.6359 28.6428 47.85 27.9336 50.5838 27.9336C53.3122 27.9336 55.5318 28.6428 55.5318 29.5198Z" fill="#CA2301"/>
<path d="M49.1974 35.989C49.1974 38.6849 47.0103 40.872 44.3144 40.872C41.6184 40.872 39.4314 38.6849 39.4314 35.989C39.4314 33.293 41.6184 31.1059 44.3144 31.1059C47.0103 31.1059 49.1974 33.293 49.1974 35.989Z" fill="#FF8F8F"/>
<path d="M21.6383 36.3139C21.6383 39.0099 19.4512 41.1969 16.7553 41.1969C14.0593 41.1969 11.8723 39.0099 11.8723 36.3139C11.8723 33.618 14.0593 31.4309 16.7553 31.4309C19.4512 31.4309 21.6383 33.618 21.6383 36.3139Z" fill="#FF8F8F"/>
<path d="M38.5281 5.35939V0H34.744V5.35939C34.744 6.61533 34.089 8.40721 33.3257 9.4033C29.2439 14.7031 20.7988 21.064 20.7988 29.1031C20.7988 29.4388 21.6487 29.7094 22.6935 29.7094C23.7383 29.7094 24.5883 29.4388 24.5883 29.1031C24.5883 23.2673 30.2292 18.8986 35.1555 12.8138C35.9458 11.8394 37.3317 11.8394 38.1221 12.8138C43.0538 18.8932 48.6947 23.2619 48.6947 29.1031C48.6947 29.4388 49.5392 29.7094 50.5894 29.7094C51.6342 29.7094 52.4842 29.4388 52.4842 29.1031C52.4842 21.0586 44.0445 14.7031 39.9573 9.4033C39.1831 8.41263 38.5281 6.61533 38.5281 5.35939Z" fill="#B1D664"/>
</svg>
