<svg width="360" height="148" viewBox="0 0 360 148" fill="none" xmlns="http://www.w3.org/2000/svg">
<path opacity="0.5" d="M385.918 121.893L387 141.95L297.341 145.452L255.11 148L226.523 143.861L51.7527 147.364L3.8918 142.904L-2 134.202L21.8815 119L385.918 121.893Z" fill="#CDDDD9"/>
<path d="M341.698 16H254.298L253 5H343L341.698 16Z" fill="#049CAC"/>
<path d="M381.218 16L341 15.5L342 5H382L381.218 16Z" fill="#06868C"/>
<path d="M332.793 131H242V14L341 14.9556L332.793 131Z" fill="#33BFCB"/>
<path d="M317.822 41.1639L314.842 84.3978L246.455 84.8893L247.649 43.3873L317.822 41.1639Z" fill="#21475B"/>
<path d="M274 42V85L251 84.6617L252.738 42.7517L274 42Z" fill="#06868C"/>
<path d="M65.3504 131H10.5213L7 102H67L65.3504 131Z" fill="#33BFCB"/>
<path d="M17.1812 84H79.2927L81 101.668L17.2418 102C11.988 102.027 7.57183 98.5145 7.05145 93.8933C6.45264 88.5941 11.1575 84 17.1812 84Z" fill="#21475B"/>
<path d="M394.497 15.4131L386.368 131.129H332.453L341.123 15.4131H394.497Z" fill="#049CAC"/>
<path d="M26.3924 84H315L314.015 101.999H25.3931C24.8987 102.082 16.3708 97.6885 17.5114 93.3402L16 89.8601C16.8899 86.47 21.2721 84 26.3924 84Z" fill="#049CAC"/>
<path d="M15.0091 92.6212C14.7692 97.7344 19.3187 102 25.0144 102H313.903L315 84H25.0144C19.6467 83.9965 15.2312 87.7986 15.0091 92.6212ZM19.026 92.8011C19.153 90.0784 21.7839 87.9439 25.0109 87.9439H310.722L310.108 98.0492H25.0144C23.2193 98.0492 21.5335 97.3746 20.3873 96.1949C19.4527 95.2366 18.9696 94.0327 19.026 92.8011Z" fill="#122A35"/>
<path d="M314 102.04L312.54 130.685L65 131V102C64.9969 102 314 102.126 314 102.04Z" fill="#049CAC"/>
<path d="M300.21 90.7538C301.258 90.7538 302.108 91.7501 302.108 92.9805C302.108 94.2109 301.258 95.2072 300.21 95.2072C299.161 95.2072 298.312 94.2109 298.312 92.9805C298.312 91.7501 299.161 90.7538 300.21 90.7538Z" fill="#21475B"/>
<path d="M282.869 90.7538C283.918 90.7538 284.767 91.7501 284.767 92.9805C284.767 94.2109 283.918 95.2072 282.869 95.2072C281.821 95.2072 280.972 94.2109 280.972 92.9805C280.975 91.7501 281.824 90.7538 282.869 90.7538Z" fill="#21475B"/>
<path d="M265.529 90.7538C266.577 90.7538 267.427 91.7501 267.427 92.9805C267.427 94.2109 266.577 95.2072 265.529 95.2072C264.48 95.2072 263.631 94.2109 263.631 92.9805C263.634 91.7501 264.483 90.7538 265.529 90.7538Z" fill="#21475B"/>
<path d="M248.189 95.2072C249.237 95.2072 250.087 94.2103 250.087 92.9805C250.087 91.7507 249.237 90.7538 248.189 90.7538C247.141 90.7538 246.292 91.7507 246.292 92.9805C246.292 94.2103 247.141 95.2072 248.189 95.2072Z" fill="#21475B"/>
<path d="M230.85 90.7533C231.898 90.7533 232.747 91.7496 232.747 92.98C232.747 94.2104 231.898 95.2067 230.85 95.2067C229.801 95.2067 228.952 94.2104 228.952 92.98C228.955 91.7496 229.804 90.7533 230.85 90.7533Z" fill="#21475B"/>
<path d="M213.512 95.2067C214.56 95.2067 215.41 94.2098 215.41 92.98C215.41 91.7502 214.56 90.7533 213.512 90.7533C212.464 90.7533 211.615 91.7502 211.615 92.98C211.615 94.2098 212.464 95.2067 213.512 95.2067Z" fill="#21475B"/>
<path d="M196.172 90.7533C197.22 90.7533 198.069 91.7496 198.069 92.98C198.069 94.2104 197.22 95.2067 196.172 95.2067C195.123 95.2067 194.274 94.2104 194.274 92.98C194.274 91.7496 195.123 90.7533 196.172 90.7533Z" fill="#21475B"/>
<path d="M180.73 92.9854C180.733 91.7556 179.887 90.7553 178.839 90.7512C177.791 90.7471 176.938 91.7407 176.935 92.9705C176.931 94.2003 177.778 95.2006 178.826 95.2047C179.874 95.2088 180.727 94.2151 180.73 92.9854Z" fill="#21475B"/>
<path d="M163.391 92.9856C163.394 91.7558 162.547 90.7559 161.499 90.7521C160.451 90.7484 159.599 91.7424 159.596 92.9721C159.592 94.2019 160.439 95.2019 161.487 95.2056C162.535 95.2093 163.388 94.2154 163.391 92.9856Z" fill="#21475B"/>
<path d="M144.152 95.207C145.2 95.207 146.049 94.2101 146.049 92.9803C146.049 91.7505 145.2 90.7536 144.152 90.7536C143.104 90.7536 142.254 91.7505 142.254 92.9803C142.254 94.2101 143.104 95.207 144.152 95.207Z" fill="#21475B"/>
<path d="M128.709 93.0259C128.72 91.7962 127.879 90.7892 126.831 90.7767C125.783 90.7641 124.925 91.7508 124.914 92.9804C124.904 94.2101 125.744 95.2171 126.792 95.2297C127.84 95.2422 128.698 94.2555 128.709 93.0259Z" fill="#21475B"/>
<path d="M109.471 95.207C110.519 95.207 111.368 94.2101 111.368 92.9803C111.368 91.7505 110.519 90.7536 109.471 90.7536C108.423 90.7536 107.573 91.7505 107.573 92.9803C107.573 94.2101 108.423 95.207 109.471 95.207Z" fill="#21475B"/>
<path d="M92.131 90.7536C93.1795 90.7536 94.0286 91.7499 94.0286 92.9803C94.0286 94.2107 93.1795 95.207 92.131 95.207C91.0825 95.207 90.2334 94.2107 90.2334 92.9803C90.2363 91.7499 91.0853 90.7536 92.131 90.7536Z" fill="#21475B"/>
<path d="M74.8976 90.7536C75.9461 90.7536 76.7952 91.75 76.7952 92.9804C76.7952 94.2107 75.9461 95.2071 74.8976 95.2071C73.8491 95.2071 73 94.2107 73 92.9804C73.0029 91.75 73.852 90.7536 74.8976 90.7536Z" fill="#21475B"/>
<path d="M57.8976 90.7536C58.9461 90.7536 59.7952 91.75 59.7952 92.9804C59.7952 94.2107 58.9461 95.2071 57.8976 95.2071C56.8491 95.2071 56 94.2107 56 92.9804C56.0029 91.75 56.852 90.7536 57.8976 90.7536Z" fill="#21475B"/>
<path d="M40.8976 90.7536C41.9461 90.7536 42.7952 91.75 42.7952 92.9804C42.7952 94.2107 41.9461 95.2071 40.8976 95.2071C39.8491 95.2071 39 94.2107 39 92.9804C39.0029 91.75 39.852 90.7536 40.8976 90.7536Z" fill="#21475B"/>
<path d="M318.092 41.1639L308.069 84.3978L307.092 84.4145L310.234 48.476L318.092 41.1639Z" fill="#06868C"/>
<path d="M318.093 41.1639L315.112 84.3978H308.069L311.049 48.7936L318.093 41.1639Z" fill="#049CAC"/>
<path d="M248 43L245.328 84H239L241.588 51.2628L248 43Z" fill="#06868C"/>
<path d="M253 43L251.177 84H245L247.525 51.2628V43H253Z" fill="#049CAC"/>
<path d="M315.924 36.0786H287.207L286.663 33.2167L316.195 32.5814L315.924 36.0786Z" fill="#21475B"/>
<path d="M316.469 27.1749L316.195 30.6722H286.937L287.478 27.4926L316.469 27.1749Z" fill="#21475B"/>
<path d="M316.468 25.5871L287.207 25.2694V22.0898H316.739L316.468 25.5871Z" fill="#21475B"/>
<path d="M291.27 36.0785H287.207L286.663 33.2165L291.27 33.1396V36.0785Z" fill="#122A35"/>
<path d="M291.27 27.4628V30.6725H286.937L287.478 27.4929L291.27 27.4628Z" fill="#122A35"/>
<path d="M291.27 25.3029L287.207 25.2694V22.0898H291.27V25.3029Z" fill="#122A35"/>
<path d="M277.452 36.0787H248.735L248.19 33.2167L277.722 32.5814L277.452 36.0787Z" fill="#21475B"/>
<path d="M277.993 27.175L277.723 30.6723H248.462L249.006 27.4927L277.993 27.175Z" fill="#21475B"/>
<path d="M277.993 25.5872L248.735 25.2696V22.09H278.267L277.993 25.5872Z" fill="#21475B"/>
<path d="M252.798 36.0785H248.735L248.19 33.2166L252.798 33.1396V36.0785Z" fill="#122A35"/>
<path d="M252.798 27.4629V30.6726H248.462L249.006 27.493L252.798 27.4629Z" fill="#122A35"/>
<path d="M252.798 25.303L248.735 25.2696V22.09H252.798V25.303Z" fill="#122A35"/>
<path d="M379.737 99.4967L378.105 131.136L377.834 131.119L379.449 99.8143H340.977L339.091 131.139L338.82 131.115L340.726 99.4967H379.737Z" fill="#21475B"/>
<path d="M340.183 98.8615H380.279L378.917 131.136L378.647 131.119L379.994 99.1791H340.436L338.547 131.139L338.279 131.115L340.174 99.0086L340.183 98.8615Z" fill="#06868C"/>
<path d="M341.664 101.406C341.664 102.018 342.088 102.52 342.612 102.52C343.134 102.52 343.561 102.022 343.561 101.406C343.561 100.794 343.137 100.293 342.612 100.293C342.088 100.293 341.664 100.791 341.664 101.406ZM341.934 101.406C341.934 100.968 342.239 100.611 342.612 100.611C342.986 100.611 343.291 100.968 343.291 101.406C343.291 101.844 342.986 102.202 342.612 102.202C342.239 102.199 341.934 101.844 341.934 101.406Z" fill="#21475B"/>
<path d="M342.212 100.606L341.998 100.8L343 102.321L343.214 102.127L342.212 100.606Z" fill="#21475B"/>
<path d="M339.767 129.381C339.767 129.992 340.192 130.494 340.716 130.494C341.237 130.494 341.665 129.996 341.665 129.381C341.665 128.769 341.24 128.267 340.716 128.267C340.195 128.267 339.767 128.765 339.767 129.381ZM340.041 129.381C340.041 128.943 340.346 128.585 340.719 128.585C341.092 128.585 341.397 128.943 341.397 129.381C341.397 129.819 341.092 130.176 340.719 130.176C340.343 130.173 340.041 129.819 340.041 129.381Z" fill="#21475B"/>
<path d="M340.315 128.571L340.101 128.766L341.103 130.287L341.317 130.093L340.315 128.571Z" fill="#21475B"/>
<path d="M368.942 111.503L368.856 112.794L350.453 112.85L350.539 111.556L368.942 111.503Z" fill="#21475B"/>
<path d="M368.652 113.924L368.566 115.218L350.163 115.271L350.249 113.981L368.652 113.924Z" fill="#21475B"/>
<path d="M368.501 116.184L368.415 117.478L350.012 117.535L350.098 116.241L368.501 116.184Z" fill="#21475B"/>
<path d="M65.2219 108.361L22.5891 121.923L20.8474 122.476L16.0586 123.575L9.76762 126L6.99997 102L314 102.04L65.2219 108.361Z" fill="#CDDDD9"/>
<path d="M44.7168 104.743L43.6341 123.499H40.6111L40.6539 104.743H44.7168Z" fill="#7C86B2"/>
<path d="M40.6115 123.499H33.8817L32.5255 104.743H40.6543L40.6115 123.499Z" fill="#6E779E"/>
<path d="M44.7181 104.743L43.6354 123.499H40.6124L40.6551 104.743H44.7181Z" fill="#067777"/>
<path d="M40.6122 123.499H33.8824L32.5262 104.743H40.655L40.6122 123.499Z" fill="#06868C"/>
<path d="M34.6282 110.333L34.6111 109.828H36.2009V109.841C37.768 109.888 39.0273 111.389 39.0273 113.238C39.0273 115.117 37.7309 116.639 36.1297 116.639V116.659H34.8419L34.8276 116.274C33.8817 115.716 33.2292 114.566 33.2292 113.238C33.2321 112.005 33.7934 110.931 34.6282 110.333Z" fill="#C1586C"/>
<path d="M34.6116 109.838C36.2129 109.838 37.5093 111.359 37.5093 113.238C37.5093 115.117 36.2129 116.638 34.6116 116.638C33.0104 116.638 31.714 115.117 31.714 113.238C31.714 111.359 33.0104 109.838 34.6116 109.838Z" fill="#C43155"/>
<path d="M40.6551 121.908L43.7323 121.841L43.6354 123.499H40.6124L40.6152 121.941L40.6551 121.908Z" fill="#06868C"/>
<path d="M40.6119 123.499L37.965 123.486L40.6148 121.931L40.6119 123.499Z" fill="#049CAC"/>
<path fill-rule="evenodd" clip-rule="evenodd" d="M315 8.1641C314.696 3.63227 309.98 -0.567481 304.809 0.401588C295.927 2.11171 290.086 3.45131 281.021 2.68175C272.626 1.9977 264.351 -0.0829466 255.925 0.00255951C247.378 0.0880656 237.674 3.4228 238.008 12.857C238.313 20.6095 240.32 21.8636 239.438 32.3524C239.043 37.0837 236.7 45.4633 242.298 48C242.115 44.3802 241.933 40.7605 241.75 37.1122C241.933 35.6301 241.963 34.1195 242.328 32.6659C245.218 21.8921 249.111 20.0965 260.245 21.6641C265.964 22.4622 273.051 22.7472 278.375 20.2105C281.995 18.5004 287.44 13.7405 291.881 11.2894C300.855 6.33001 305.035 9.06976 315 8.1641Z" fill="url(#paint0_radial_47_110)"/>
<defs>
<radialGradient id="paint0_radial_47_110" cx="0" cy="0" r="1" gradientUnits="userSpaceOnUse" gradientTransform="translate(259.761 2.29526) scale(62.9971 59.0266)">
<stop stop-color="#E8FBFF"/>
<stop offset="0.9331" stop-color="#C9F6FF"/>
</radialGradient>
</defs>
</svg>
