<svg width="90" height="72" viewBox="0 0 90 72" fill="none" xmlns="http://www.w3.org/2000/svg">
<path d="M57.8632 23.903C57.8632 22.3542 54.2063 15.7288 52.3779 12.6097L73.0284 0.025823C73.1359 -0.0817317 73.351 0.0903557 73.351 1.63914C73.351 3.18793 71.415 6.58666 70.4471 8.09243L64.3164 12.6097C64.6391 13.1475 65.2844 14.7393 65.2844 16.8044C65.2844 19.3857 57.8632 25.839 57.8632 23.903Z" fill="#32D9D7"/>
<path d="M79.1591 61.332L75.9324 57.4601L82.7084 53.5881L85.935 56.4921L84.6444 60.364L79.1591 61.332Z" fill="#32D9D7"/>
<path d="M49.4738 68.1079C50.2482 65.2685 48.8285 61.332 47.8605 59.396L49.7965 57.46L71.7376 63.9133C71.7376 63.9133 70.447 66.8172 70.1243 66.8172C69.8016 66.8172 54.1202 68.1079 49.4738 68.1079Z" fill="#1C9996"/>
<path d="M50.7644 67.1399C51.5388 62.7517 49.5813 59.7187 48.5058 58.7507L56.5724 48.7481L57.5404 45.8441H55.6044L54.3137 47.7801L37.2125 47.1348L28.8233 32.9375L24.6286 38.1002V30.6789L19.7887 28.0976H35.2766C36.0294 28.4202 38.4387 29.3882 42.0525 30.6789C46.5698 32.2922 51.4098 30.0336 51.4098 30.6789C51.4098 31.1952 56.7875 35.8415 59.4764 38.1002C59.1537 36.1642 58.5084 31.4533 58.5084 28.0976C62.1222 28.0976 72.7056 24.2256 77.5456 22.2896H84.3215L87.8708 19.7083H89.4841V22.2896C87.5481 23.6878 83.418 26.4843 82.3855 26.4843C81.0949 26.4843 69.8016 41.6495 67.2203 44.8761C65.1553 47.4574 68.0807 46.597 69.8016 45.8441C72.4905 42.725 78.7717 35.1962 82.3855 30.0336C85.9994 24.8709 87.5481 26.5918 87.8708 28.0976C82.6006 40.8966 71.6085 66.4301 69.8016 66.1719C67.543 65.8493 55.6044 67.1399 50.7644 67.1399Z" fill="url(#paint0_linear_47_576)"/>
<path d="M4.30092 45.8441H0.428955L4.30092 35.1962V45.8441Z" fill="#32D9D7"/>
<path d="M3.0103 60.3641L2.36497 48.7482L11.7222 53.2655L3.0103 60.3641Z" fill="#1C9996"/>
<path d="M3.01017 59.0734L2.04218 48.4255L10.4314 52.6201L3.01017 59.0734Z" fill="#32D9D7"/>
<path d="M14.9755 65.7863L13.9808 45.5512L27.9057 42.9402C32.2158 48.8149 49.1246 62.1962 50.1192 71.3346C49.4561 71.3346 47.4668 70.6166 44.8145 67.7445C41.499 64.1544 35.1997 67.0918 33.8735 65.7863C32.5473 64.4808 25.9164 67.0918 25.2533 65.7863C24.7229 64.7419 18.1804 65.3511 14.9755 65.7863Z" fill="#1C9996"/>
<path d="M14.9488 62.6227L13.9808 42.6175L27.5327 40.0362C31.7273 45.8442 48.1832 59.0734 49.1512 68.108C48.5059 68.108 46.5699 67.3981 43.9886 64.5587C40.7619 61.0094 34.6313 63.9134 33.3407 62.6227C32.05 61.3321 25.5967 63.9134 24.9514 62.6227C24.4351 61.5902 18.0679 62.1925 14.9488 62.6227Z" fill="#32D9D7"/>
<path d="M35.5993 26.9914H22.7953L23.6607 25.1937L36.5673 25.8851L53.3458 28.743C53.3458 28.743 52.7005 30.6789 52.3779 30.6789H44.3112L35.5993 26.9914Z" fill="#1C9996"/>
<path d="M23.0153 26.4843H35.5992L41.7298 6.15643L27.5326 12.9324L23.0153 26.4843Z" fill="#A2F5F2"/>
<path d="M44.6339 29.7109L35.5993 26.4843L41.7299 6.15643L55.9271 21.3216C55.0667 24.1181 53.2168 29.7109 52.7005 29.7109H44.6339Z" fill="#32D9D7"/>
<defs>
<linearGradient id="paint0_linear_47_576" x1="59.9997" y1="48.1381" x2="46.7617" y2="39.1122" gradientUnits="userSpaceOnUse">
<stop stop-color="#52EFEA"/>
<stop offset="1" stop-color="#A2F5F2"/>
</linearGradient>
</defs>
</svg>
