<svg width="137" height="130" viewBox="0 0 137 130" fill="none" xmlns="http://www.w3.org/2000/svg">
<path d="M123.853 52.0682L19.1575 81.1905C19.1575 81.1905 17.4275 81.3714 18.3845 85.3321C19.3445 89.2907 21.7506 89.3692 21.7506 89.3692L126.194 62.5188L123.853 52.0682Z" fill="#ECE2DF"/>
<path d="M123.842 53.443L19.5583 81.9032C19.5583 81.9032 17.155 83.1928 18.03 87.034C18.9079 90.8732 22.5494 90.5311 22.5494 90.5311L126.194 62.5187L123.842 53.443Z" fill="#924E1F"/>
<path d="M18.5272 87.7368C17.7454 84.1331 19.9053 82.8018 20.0821 82.7021C20.0993 82.7909 21.1179 82.3281 21.1371 82.4199C21.9674 86.196 24.5838 86.371 24.5838 86.371L125.054 58.4874L125.751 61.2476L22.5414 89.8935C22.5414 89.8935 19.7843 90.1776 18.5272 87.7368Z" fill="#744635"/>
<path d="M122.629 58.6746C123.249 61.1377 124.847 62.858 126.195 62.5182C127.541 62.1755 128.165 58.81 127.543 56.3439C126.923 53.8809 125.103 51.7503 123.755 52.0901C122.408 52.4299 122.012 56.2095 122.629 58.6746Z" fill="#B06B52"/>
<rect x="21.764" y="81.8391" width="14.8354" height="10.2013" rx="2" transform="rotate(-18.8238 21.764 81.8391)" fill="#562C1D" stroke="#562C1D" stroke-width="2"/>
<path d="M52.3361 121.33C33.1533 108.338 26.3861 90.3395 24.9427 74.6983C24.1857 66.4948 24.8957 58.9468 26.0533 53.1326C26.6319 50.2258 27.3204 47.7629 27.9874 45.8771C28.0213 45.7813 28.0551 45.6873 28.0886 45.5949C29.7588 75.5586 40.9295 98.1435 48.7508 113.957C50.0598 116.603 51.275 119.06 52.3361 121.33Z" fill="#BAB6AD" stroke="#562C1D" stroke-width="2"/>
<path d="M54.8669 122.801C22.2624 88.8546 28.2358 49.9657 29.653 42.9332L30.4512 43.2351C30.4516 43.2355 30.452 43.2361 30.4525 43.2369C30.4543 43.2395 30.4559 43.2427 30.457 43.2462C30.4581 43.2495 30.4584 43.2522 30.4584 43.2542C30.9221 87.4465 61.5667 108.836 68.4527 113.35C66.9047 114.482 64.0411 116.565 61.2665 118.523C58.5908 120.411 56.0722 122.128 54.8669 122.801Z" fill="#755E44" stroke="#562C1D" stroke-width="2"/>
<path d="M28.8715 41.8105C28.9062 41.661 28.8732 41.5926 29.026 41.5791C29.2572 41.5587 29.5968 41.7372 29.5627 41.9668C27.8225 53.6927 25.7203 88.8895 55.6385 119.948C55.8752 120.194 56.2138 120.276 56.5066 120.101C58.4145 118.958 64.8782 114.225 65.9759 113.506C66.0756 113.437 66.5628 113.392 67.1733 113.362C68.1366 113.314 68.5433 114.523 67.7633 115.09C64.0543 117.788 57.2162 122.702 55.1322 123.794C54.8293 123.953 54.4849 123.852 54.2476 123.605C19.2325 87.2469 28.0814 45.2178 28.8715 41.8105Z" fill="#8A7E70"/>
<path d="M24.9081 82.8823C24.5515 81.8363 25.1108 80.6994 26.157 80.3435L36.0752 76.9693C37.0065 76.6525 38.0299 77.06 38.4886 77.9302L39.3732 77.4639L38.4886 77.9302L41.5347 83.7095C42.1145 84.8096 41.5606 86.1664 40.3766 86.5464L29.4299 90.0597C28.3915 90.393 27.2775 89.833 26.9256 88.8007L24.9081 82.8823Z" fill="#63544C" fill-opacity="0.63" stroke="#562C1D" stroke-width="2"/>
</svg>
