<svg width="64" height="54" viewBox="0 0 64 54" fill="none" xmlns="http://www.w3.org/2000/svg">
<path d="M0.937044 8.95088L30.0845 19.7513L32.6928 53.1203L10.6857 49.1613C10.6753 49.1613 0.574062 25.0351 0.937044 8.95088Z" fill="#2FD3CF"/>
<path d="M30.0793 19.7567L63.3544 7.87471C63.3544 7.87471 54.4648 45.4434 54.4648 51.2085L32.6876 53.1257L30.0793 19.7567Z" fill="#52EFEA"/>
<path d="M34.8707 23.2861C34.8707 23.2861 34.8914 23.3896 34.9225 23.581C34.9536 23.7725 35.0158 24.052 35.0625 24.4142C35.1559 25.1284 35.3322 26.1531 35.4618 27.3847C35.5344 28.0006 35.607 28.663 35.664 29.372C35.7263 30.0758 35.7989 30.821 35.8455 31.5869C35.8922 32.358 35.9648 33.1498 35.9959 33.9623C36.0322 34.7696 36.0737 35.5924 36.11 36.4153C36.1307 37.2381 36.1515 38.0609 36.1722 38.8683C36.1981 39.6756 36.1826 40.4725 36.1878 41.2436C36.1981 42.0147 36.1774 42.7599 36.1618 43.4689C36.1566 44.1779 36.1255 44.8455 36.0996 45.4613C36.0581 46.6982 35.9544 47.728 35.9129 48.4525C35.8922 48.8148 35.8507 49.0994 35.8351 49.2909C35.8144 49.4824 35.804 49.5859 35.804 49.5859L35.7159 49.591C35.7159 49.591 35.4618 43.0187 35.2025 36.4463C34.9899 29.874 34.7773 23.2964 34.7773 23.2964L34.8707 23.2861Z" fill="#D7F9F8"/>
<path d="M0.937744 8.95099C0.937744 8.95099 15.2963 1.36949 35.504 0.412099L63.3603 7.87458L30.08 19.7566L0.937744 8.95099Z" fill="#87F9F0"/>
<path opacity="0.4" d="M10.6755 49.1615L32.6878 53.1204L30.3854 23.6172L8.30057 42.9514C9.66953 46.755 10.6755 49.1615 10.6755 49.1615Z" fill="#37E2E2"/>
<path opacity="0.4" d="M32.6873 53.1254L54.104 50.4886C54.104 47.306 57.256 31.1209 59.6568 21.7954C52.4957 27.224 39.2158 37.2948 31.8887 42.889L32.6873 53.1254Z" fill="#52EFEA"/>
<path opacity="0.4" d="M35.1097 0.432705C15.1146 1.4729 0.937561 8.9509 0.937561 8.9509C0.854594 12.708 1.34203 16.8998 2.1354 21.1227C14.3938 17.8417 31.5784 11.3884 35.1097 0.432705Z" fill="#C1F7F3"/>
<path opacity="0.4" d="M13.0504 23.5964C14.1445 22.7891 15.3735 22.344 16.6854 22.8305C17.9143 23.2911 18.8114 24.3727 20.0352 24.7763C20.8286 25.0402 22.4361 25.2783 23.1931 24.7556C24.1058 24.1294 23.8102 23.1669 23.9813 22.2871C24.2873 20.6932 26.1229 21.1382 27.3104 21.5367C28.3423 21.8834 29.3638 21.899 30.2246 21.5678L30.0846 19.7513L0.937153 8.95088C0.771218 16.2529 2.76762 25.2162 4.99218 32.8287C5.95668 32.8908 6.89006 32.8443 7.65232 32.6735C12.3555 31.5971 9.70576 26.0494 13.0504 23.5964Z" fill="#D7F9F8"/>
<path opacity="0.6" d="M30.0793 19.7565L30.2401 21.8162C30.6808 23.0996 31.4742 24.0674 32.4231 25.2576C34.6633 28.0677 39.7657 30.1015 43.3022 28.7664C46.7609 27.4622 44.5104 21.604 48.5032 20.8381C50.2456 20.5017 50.9456 21.5678 52.2679 22.3544C53.2376 22.934 54.7776 23.2135 55.571 22.1785C56.5822 20.8588 56.3385 18.7733 57.0229 17.3087C58.0186 15.1869 59.4342 15.72 61.1506 16.0408C62.4158 11.2642 63.3544 7.86417 63.3544 7.86417L30.0793 19.7565Z" fill="#D7F9F8"/>
</svg>
