<svg width="48" height="50" viewBox="0 0 48 50" fill="none" xmlns="http://www.w3.org/2000/svg">
<path fill-rule="evenodd" clip-rule="evenodd" d="M23.5167 0C36.5016 0 47.0333 11.0842 47.0333 24.7502C47.0333 38.4162 36.5016 49.5004 23.5167 49.5004C10.5318 49.5004 0 38.4162 0 24.7502C0 11.0745 10.5318 0 23.5167 0Z" fill="url(#paint0_linear_27_24685)"/>
<path opacity="0.5" fill-rule="evenodd" clip-rule="evenodd" d="M23.517 3.85277C34.5652 3.85277 43.52 13.4035 43.52 25.1768C43.52 36.9501 34.5652 46.5008 23.517 46.5008C12.4687 46.5008 3.51398 36.9501 3.51398 25.1768C3.51398 13.4035 12.4687 3.85277 23.517 3.85277Z" fill="url(#paint1_linear_27_24685)"/>
<path fill-rule="evenodd" clip-rule="evenodd" d="M23.517 3.54262C34.6482 3.54262 43.6676 13.035 43.6676 24.7501C43.6676 36.4652 34.6482 45.9576 23.517 45.9576C12.3858 45.9576 3.36646 36.4652 3.36646 24.7501C3.36646 13.035 12.3858 3.54262 23.517 3.54262Z" fill="url(#paint2_linear_27_24685)"/>
<path fill-rule="evenodd" clip-rule="evenodd" d="M46.7013 28.904C44.1283 39.862 34.7216 47.9762 23.5166 47.9762C12.3116 47.9762 2.90497 39.8523 0.33197 28.904C2.2133 40.5997 11.8782 49.5001 23.5166 49.5001C35.1551 49.5001 44.8292 40.59 46.7013 28.904Z" fill="url(#paint3_radial_27_24685)"/>
<path fill-rule="evenodd" clip-rule="evenodd" d="M23.517 4.49368C34.141 4.49368 42.7546 13.559 42.7546 24.7403C42.7546 35.9216 34.141 44.9869 23.517 44.9869C12.893 44.9869 4.27943 35.9216 4.27943 24.7403C4.2702 13.559 12.893 4.49368 23.517 4.49368Z" fill="url(#paint4_linear_27_24685)"/>
<path fill-rule="evenodd" clip-rule="evenodd" d="M23.5168 42.9975C33.0895 42.9975 40.8546 34.8251 40.8546 24.7503C40.8546 14.6755 33.0895 6.50307 23.5168 6.50307C13.9442 6.50307 6.17908 14.6755 6.17908 24.7503C6.17908 34.8251 13.9442 42.9975 23.5168 42.9975Z" fill="url(#paint5_linear_27_24685)"/>
<path fill-rule="evenodd" clip-rule="evenodd" d="M23.5167 6.50327C28.2846 6.50327 32.6006 8.53178 35.7361 11.8027C36.6215 12.7248 37.4146 13.7536 38.0878 14.8601C37.4515 13.7633 36.7229 12.7345 35.9022 11.8027C32.7758 8.26002 28.386 6.05678 23.5167 6.05678C18.6474 6.05678 14.2576 8.26002 11.1313 11.8027C10.3105 12.7345 9.57273 13.7633 8.94562 14.8601C9.62806 13.7536 10.4119 12.7248 11.2973 11.8027C14.4328 8.52208 18.7488 6.50327 23.5167 6.50327Z" fill="url(#paint6_linear_27_24685)"/>
<path d="M14.2109 22.149H12.2189L11.9515 23.5272H9.8949L12.0344 15.481L11.8685 14.8792H14.7642L17.1066 23.5272H14.5336L14.2109 22.149ZM12.5048 20.6446H13.8604L13.1134 17.4222L12.5048 20.6446Z" fill="white"/>
<path d="M19.2648 23.5375C18.896 23.4404 18.5916 23.3045 18.3519 23.1395C18.1121 22.9745 17.9184 22.761 17.7708 22.5183C17.6233 22.266 17.5126 22.0039 17.4481 21.7322C17.3835 21.4604 17.3558 21.1498 17.3558 20.8198V14.8894H19.8458V20.4898C19.8458 21.111 19.9104 21.5477 20.0303 21.7807C20.1502 22.0136 20.3346 22.1301 20.5744 22.1301C20.7035 22.1301 20.8234 22.1107 20.9156 22.0621C21.0078 22.0136 21.1001 21.936 21.1923 21.8195C21.2753 21.703 21.3398 21.5381 21.3859 21.3148C21.4321 21.0916 21.4505 20.8295 21.4505 20.5189V14.8991H23.6638V20.8683C23.6638 21.1983 23.6362 21.4992 23.5808 21.7613C23.5255 22.0233 23.4333 22.2854 23.2857 22.5281C23.1474 22.7804 22.9537 22.9842 22.7232 23.1492C22.4926 23.3142 22.1883 23.4501 21.8194 23.5472C21.4505 23.6442 21.0171 23.6927 20.5283 23.6927C20.0672 23.683 19.6337 23.6345 19.2648 23.5375Z" fill="white"/>
<path d="M25.9137 16.8403H24.2722V14.8894H29.9162V16.8403H28.2746V23.5278H25.9045V16.8403H25.9137Z" fill="white"/>
<path d="M32.5262 23.576C32.2127 23.4983 31.9452 23.4013 31.7239 23.2654C31.5026 23.1295 31.3089 22.9645 31.1429 22.7607C30.9769 22.5569 30.8478 22.3336 30.7464 22.1007C30.6449 21.8678 30.5619 21.5863 30.5066 21.2757C30.442 20.9554 30.4051 20.6448 30.3774 20.3245C30.3498 20.0042 30.3406 19.6451 30.3406 19.2471C30.3406 18.6551 30.3682 18.1406 30.4328 17.7039C30.4881 17.2671 30.5988 16.8594 30.7556 16.4712C30.9123 16.083 31.1245 15.7724 31.3919 15.5297C31.6593 15.2871 32.0006 15.1027 32.4156 14.9571C32.8306 14.8212 33.3286 14.7533 33.9003 14.7533C34.2969 14.7533 34.6473 14.7921 34.9609 14.8697C35.2745 14.9474 35.5419 15.0542 35.7632 15.1803C35.9846 15.3162 36.1782 15.4812 36.3442 15.6947C36.5102 15.9083 36.6394 16.1315 36.7408 16.3742C36.8423 16.6168 36.9252 16.8886 36.9806 17.2089C37.0451 17.5292 37.082 17.8495 37.1097 18.1601C37.1374 18.4707 37.1466 18.8298 37.1466 19.2277C37.1466 19.8198 37.1189 20.3342 37.0544 20.771C36.9898 21.2078 36.8791 21.6154 36.7223 22.0036C36.5656 22.3821 36.3535 22.6928 36.086 22.9354C35.8186 23.1781 35.4774 23.3625 35.0624 23.4984C34.6474 23.6343 34.1493 23.7022 33.5776 23.7022C33.181 23.6827 32.8306 23.6536 32.5262 23.576ZM33.0888 21.8969C33.2087 22.2172 33.4208 22.3724 33.7159 22.3724C33.9373 22.3724 34.1032 22.3142 34.2139 22.1977C34.3246 22.0813 34.4076 21.8483 34.4721 21.4795C34.5275 21.1204 34.5551 20.5769 34.5551 19.8489V18.0727C34.5551 17.3739 34.4906 16.8498 34.3615 16.5003C34.2323 16.1606 34.011 15.9859 33.7159 15.9859C33.4208 15.9859 33.2087 16.1509 33.0888 16.4906C32.9689 16.8303 32.9136 17.4418 32.9136 18.3348V20.1886C32.9136 21.0039 32.9689 21.5766 33.0888 21.8969Z" fill="white"/>
<path d="M13.9433 34.6504C13.6298 34.5825 13.3715 34.4951 13.1594 34.3883C12.9473 34.2816 12.7813 34.1748 12.643 34.0777C12.5139 33.9807 12.4032 33.8836 12.311 33.7866L12.4862 31.991C12.6799 32.2627 12.9381 32.4957 13.2609 32.6995C13.5836 32.9033 13.9341 33.0004 14.303 33.0004C14.6719 33.0004 14.9485 32.9616 15.1145 32.8742C15.2805 32.7868 15.3635 32.6413 15.3635 32.418C15.3635 32.1851 15.2713 31.9812 15.0776 31.8162C14.8932 31.6512 14.5612 31.4474 14.1001 31.2145C13.9341 31.1271 13.7865 31.0495 13.6759 30.9718C13.556 30.9039 13.3992 30.7874 13.2055 30.6127C13.0119 30.4477 12.8551 30.273 12.7352 30.0983C12.6153 29.9139 12.5047 29.6906 12.4124 29.4092C12.3202 29.1277 12.2741 28.8268 12.2741 28.4968C12.2741 26.74 13.2148 25.8665 15.0961 25.8665C15.3912 25.8665 15.6771 25.8956 15.9445 25.9636C16.212 26.0315 16.4149 26.0994 16.5624 26.1771C16.71 26.2547 16.8483 26.3518 16.9682 26.4586C17.0881 26.5653 17.1711 26.643 17.1988 26.6818C17.2357 26.7206 17.2541 26.7594 17.2725 26.7788L16.9221 28.2056C16.7376 27.9824 16.5163 27.8077 16.2397 27.7009C15.963 27.5941 15.7048 27.5359 15.4558 27.5359C14.8563 27.5359 14.5612 27.73 14.5612 28.128C14.5612 28.2347 14.5796 28.3221 14.6165 28.4095C14.6534 28.4968 14.718 28.5648 14.801 28.6424C14.884 28.7104 14.967 28.7686 15.0315 28.8171C15.1053 28.8656 15.2068 28.9239 15.3359 29.0015C15.465 29.0695 15.5572 29.1277 15.631 29.1762C16.3134 29.4771 16.8114 29.8459 17.1342 30.2633C17.457 30.6806 17.6138 31.1854 17.6138 31.7871C17.6138 32.7577 17.3832 33.5051 16.9313 34.0098C16.4794 34.5145 15.8154 34.7766 14.9485 34.7766C14.5889 34.7475 14.2477 34.7183 13.9433 34.6504Z" fill="white"/>
<path d="M18.3425 34.592V25.9439H19.2647C19.5137 25.9439 19.8826 25.9342 20.3899 25.9148C20.8879 25.8954 21.3029 25.8857 21.6256 25.8857C22.5294 25.8857 23.2211 26.1381 23.6822 26.6428C24.1525 27.1475 24.3831 27.9045 24.3831 28.9237C24.3831 29.5351 24.3093 30.0884 24.1525 30.5834C23.9957 31.0784 23.7929 31.4957 23.5346 31.816C23.2764 32.1363 22.9813 32.379 22.6585 32.5537C22.3357 32.7284 21.9853 32.8158 21.6256 32.8158C21.5795 32.8158 21.5334 32.8158 21.4781 32.8158C21.432 32.8158 21.3859 32.8158 21.349 32.8158C21.3121 32.8158 21.266 32.806 21.2106 32.806C21.1553 32.806 21.1184 32.806 21.0815 32.7963C21.0539 32.7963 21.0077 32.7866 20.9524 32.7866C20.8971 32.7866 20.8602 32.7866 20.8417 32.7866C20.8233 32.7866 20.7864 32.7867 20.7403 32.777C20.685 32.7673 20.6573 32.7672 20.6573 32.7672V34.592H18.3425ZM21.8101 27.7104C21.6256 27.4872 21.3582 27.3707 21.0077 27.3707H20.6757V31.2046H20.934C21.3029 31.2046 21.5887 31.0784 21.7916 30.8163C21.9945 30.5543 22.096 30.1757 22.096 29.6904V28.6033C22.0867 28.2345 21.9945 27.9434 21.8101 27.7104Z" fill="white"/>
<path d="M24.9361 25.9539H27.3247V34.6019H24.9361V25.9539Z" fill="white"/>
<path d="M28.2837 34.5922V26.643L27.9424 25.9539H30.5247L31.8158 28.7589L33.0516 31.5542L32.7103 28.2736V25.9539H34.9421V34.6019H32.8026L31.1333 31.1854L30.1004 29.0501L30.5155 31.8842V34.6019H28.2837V34.5922Z" fill="white"/>
<defs>
<linearGradient id="paint0_linear_27_24685" x1="23.5159" y1="49.4985" x2="23.5159" y2="-0.0019414" gradientUnits="userSpaceOnUse">
<stop stop-color="#B35E07"/>
<stop offset="0.1318" stop-color="#C07216"/>
<stop offset="0.4012" stop-color="#E3A73D"/>
<stop offset="0.5985" stop-color="#FFD15C"/>
<stop offset="0.8564" stop-color="#FFDA64"/>
<stop offset="1" stop-color="#FFE16B"/>
</linearGradient>
<linearGradient id="paint1_linear_27_24685" x1="23.5161" y1="46.5043" x2="23.5161" y2="3.85306" gradientUnits="userSpaceOnUse">
<stop stop-color="#FFF9B3"/>
<stop offset="1" stop-color="#9E9752"/>
</linearGradient>
<linearGradient id="paint2_linear_27_24685" x1="23.5214" y1="45.9394" x2="23.5214" y2="3.54344" gradientUnits="userSpaceOnUse">
<stop stop-color="#5F208C"/>
<stop offset="0.5" stop-color="#3C0073"/>
<stop offset="1" stop-color="#230652"/>
</linearGradient>
<radialGradient id="paint3_radial_27_24685" cx="0" cy="0" r="1" gradientUnits="userSpaceOnUse" gradientTransform="translate(23.3189 14.218) scale(36.414 38.3242)">
<stop offset="0.2602" stop-color="white"/>
<stop offset="0.3364" stop-color="#FCFAF5"/>
<stop offset="0.4667" stop-color="#F4EBDA"/>
<stop offset="0.6351" stop-color="#E8D4AD"/>
<stop offset="0.833" stop-color="#D7B571"/>
<stop offset="1" stop-color="#C79738"/>
</radialGradient>
<linearGradient id="paint4_linear_27_24685" x1="23.5162" y1="44.9991" x2="23.5162" y2="4.49708" gradientUnits="userSpaceOnUse">
<stop stop-color="#510054"/>
<stop offset="1" stop-color="#AE2ED9"/>
</linearGradient>
<linearGradient id="paint5_linear_27_24685" x1="23.5161" y1="6.50074" x2="23.5161" y2="42.9958" gradientUnits="userSpaceOnUse">
<stop stop-color="#AE4AFF"/>
<stop offset="1" stop-color="#73007D"/>
</linearGradient>
<linearGradient id="paint6_linear_27_24685" x1="23.516" y1="18.3794" x2="23.516" y2="5.99223" gradientUnits="userSpaceOnUse">
<stop stop-color="#4E1A54"/>
<stop offset="1" stop-color="#DDA6FF"/>
</linearGradient>
</defs>
</svg>
