<svg width="82" height="86" viewBox="0 0 82 86" fill="none" xmlns="http://www.w3.org/2000/svg">
<path fill-rule="evenodd" clip-rule="evenodd" d="M40.9995 0.367325C63.3357 0.367325 81.4389 19.4201 81.4389 42.9279C81.4389 66.4358 63.3357 85.4886 40.9995 85.4886C18.6632 85.4886 0.559998 66.4358 0.559998 42.9279C0.559998 19.4298 18.6632 0.367325 40.9995 0.367325Z" fill="url(#paint0_linear_27_24665)"/>
<path opacity="0.5" fill-rule="evenodd" clip-rule="evenodd" d="M40.9996 7.00633C59.9974 7.00633 75.3985 23.4289 75.3985 43.6852C75.3985 63.9415 59.9974 80.364 40.9996 80.364C22.0018 80.364 6.60071 63.9415 6.60071 43.6852C6.60071 23.4289 22.0018 7.00633 40.9996 7.00633Z" fill="url(#paint1_linear_27_24665)"/>
<path fill-rule="evenodd" clip-rule="evenodd" d="M80.8758 50.0816C76.4399 68.9208 60.2733 82.8877 40.9989 82.8877C21.7244 82.8877 5.5579 68.9208 1.12201 50.0816C4.34979 70.1826 20.9774 85.4986 40.9989 85.4986C61.0203 85.4986 77.648 70.1826 80.8758 50.0816Z" fill="url(#paint2_radial_27_24665)"/>
<path fill-rule="evenodd" clip-rule="evenodd" d="M41.0002 8.11296C59.2786 8.11296 74.0895 23.7104 74.0895 42.938C74.0895 62.1752 59.2786 77.763 41.0002 77.763C22.7217 77.763 7.91083 62.1752 7.91083 42.938C7.91083 23.7007 22.7309 8.11296 41.0002 8.11296Z" fill="url(#paint3_linear_27_24665)"/>
<path fill-rule="evenodd" clip-rule="evenodd" d="M41 74.317C57.4709 74.317 70.8154 60.2628 70.8154 42.9377C70.8154 25.6028 57.4617 11.5583 41 11.5583C24.5383 11.5583 11.1846 25.6125 11.1846 42.9377C11.1846 60.2628 24.5383 74.317 41 74.317Z" fill="url(#paint4_linear_27_24665)"/>
<path fill-rule="evenodd" clip-rule="evenodd" d="M41.0003 11.5584C49.1988 11.5584 56.6227 15.0429 62.0177 20.682C63.5394 22.2738 64.895 24.0403 66.0663 25.9426C64.978 24.05 63.7146 22.2835 62.3036 20.682C56.927 14.5964 49.374 10.8014 41.0003 10.8014C32.6265 10.8014 25.0735 14.5867 19.6969 20.682C18.2859 22.2835 17.0225 24.05 15.9343 25.9426C17.1055 24.0403 18.4611 22.2738 19.9828 20.682C25.3778 15.0332 32.8017 11.5584 41.0003 11.5584Z" fill="url(#paint5_linear_27_24665)"/>
<g opacity="0.75">
<path opacity="0.75" d="M20.6654 53.11C20.0106 52.9741 19.4665 52.7897 19.0239 52.5568C18.5812 52.3335 18.2215 52.1103 17.9356 51.9065C17.6589 51.7027 17.4192 51.4891 17.2347 51.2853L17.6036 47.5097C18.0094 48.0824 18.5443 48.5773 19.2267 48.9947C19.9092 49.4121 20.6377 49.6256 21.4216 49.6256C22.2055 49.6256 22.7773 49.5382 23.1277 49.3635C23.4782 49.1888 23.6534 48.8685 23.6534 48.4026C23.6534 47.9076 23.4505 47.4806 23.054 47.1312C22.6574 46.7818 21.9657 46.3547 20.9974 45.8597C20.6469 45.6753 20.3426 45.5006 20.0936 45.355C19.8446 45.2094 19.5218 44.957 19.1161 44.6076C18.7103 44.2582 18.3783 43.8991 18.1201 43.5205C17.8618 43.142 17.6405 42.6567 17.4376 42.0646C17.244 41.4726 17.1425 40.832 17.1425 40.1429C17.1425 36.4449 19.1253 34.6007 23.0909 34.6007C23.718 34.6007 24.3174 34.6687 24.8707 34.8143C25.4241 34.9502 25.8575 35.1055 26.1803 35.2705C26.4938 35.4355 26.7797 35.6296 27.0472 35.8528C27.3054 36.0761 27.4714 36.2314 27.5452 36.3187C27.6097 36.4061 27.6651 36.474 27.6927 36.5323L26.9549 39.5314C26.5676 39.0558 26.088 38.6967 25.5163 38.4638C24.9445 38.2308 24.3912 38.1143 23.8747 38.1143C22.6113 38.1143 21.9842 38.5317 21.9842 39.3567C21.9842 39.5702 22.0211 39.774 22.1041 39.9487C22.1871 40.1234 22.3069 40.2884 22.4914 40.434C22.6666 40.5796 22.8326 40.7058 22.9894 40.8029C23.1462 40.9096 23.3491 41.0358 23.6257 41.1814C23.8932 41.327 24.0961 41.4532 24.2344 41.5502C25.6731 42.1908 26.7244 42.9576 27.3976 43.8311C28.0708 44.7144 28.4121 45.782 28.4121 47.0438C28.4121 49.0917 27.9325 50.6544 26.9734 51.7221C26.0143 52.7897 24.6217 53.3333 22.8049 53.3333C22.021 53.3139 21.3202 53.2459 20.6654 53.11Z" fill="#960000"/>
<path opacity="0.75" d="M29.9337 52.9936V34.7949H31.8796C32.396 34.7949 33.1891 34.7755 34.2404 34.7269C35.2918 34.6784 36.1586 34.659 36.8411 34.659C38.7501 34.659 40.198 35.1928 41.1755 36.2605C42.1623 37.3281 42.6511 38.9296 42.6511 41.0552C42.6511 42.3364 42.4943 43.5108 42.1715 44.5591C41.8488 45.6073 41.4245 46.4712 40.8804 47.1409C40.3363 47.8106 39.7277 48.3347 39.036 48.6938C38.3443 49.0529 37.6158 49.2374 36.8503 49.2374C36.7489 49.2374 36.6474 49.2374 36.546 49.2374C36.4446 49.2374 36.3523 49.2373 36.2693 49.2276C36.1863 49.2276 36.0849 49.218 35.9742 49.2083C35.8635 49.2083 35.7713 49.1985 35.7068 49.1888C35.6422 49.1888 35.55 49.1791 35.4393 49.1694C35.3287 49.1597 35.2457 49.1597 35.2088 49.1597C35.1719 49.1597 35.0981 49.15 34.9874 49.1403C34.8768 49.1306 34.8214 49.1209 34.8122 49.1209V52.9741H29.9337V52.9936ZM37.2284 38.5026C36.8319 38.027 36.2693 37.7843 35.5316 37.7843H34.8214V45.8597H35.3656C36.1402 45.8597 36.7489 45.5879 37.1731 45.0347C37.5973 44.4911 37.8186 43.6953 37.8186 42.6567V40.3564C37.8186 39.5993 37.6158 38.9782 37.2284 38.5026Z" fill="#960000"/>
<path opacity="0.75" d="M43.8221 34.7852H48.8575V52.9838H43.8221V34.7852Z" fill="#960000"/>
<path opacity="0.75" d="M50.8589 52.9936V36.2508L50.1395 34.7949H55.5714L58.2827 40.6961L60.8834 46.5779L60.1641 39.6673V34.7949H64.8674V52.9936H60.367L56.8533 45.8015L54.6861 41.2979L55.553 47.2574V52.9838H50.8589V52.9936Z" fill="#960000"/>
</g>
<path d="M20.6658 52.091C20.0111 51.9552 19.467 51.7707 19.0243 51.5378C18.5816 51.3146 18.2219 51.0913 17.936 50.8875C17.6594 50.6837 17.4196 50.4701 17.2352 50.2663L17.6041 46.4907C18.0098 47.0633 18.5447 47.5584 19.2272 47.9757C19.9096 48.3931 20.6382 48.6066 21.422 48.6066C22.2059 48.6066 22.7777 48.5193 23.1282 48.3445C23.4786 48.1698 23.6538 47.8496 23.6538 47.3837C23.6538 46.8887 23.4509 46.4616 23.0544 46.1122C22.6578 45.7628 21.9662 45.3357 20.9978 44.8407C20.6474 44.6563 20.3431 44.4816 20.0941 44.336C19.8451 44.1904 19.5223 43.938 19.1165 43.5886C18.7107 43.2392 18.3787 42.8801 18.1205 42.5015C17.8623 42.123 17.641 41.6377 17.4381 41.0456C17.2444 40.4536 17.1429 39.813 17.1429 39.1239C17.1429 35.4259 19.1257 33.5818 23.0913 33.5818C23.7184 33.5818 24.3178 33.6497 24.8712 33.7953C25.4245 33.9312 25.8579 34.0865 26.1807 34.2515C26.4943 34.4165 26.7802 34.6106 27.0476 34.8339C27.3058 35.0571 27.4718 35.2124 27.5456 35.2997C27.6102 35.3871 27.6655 35.455 27.6932 35.5132L26.9554 38.5124C26.568 38.0368 26.0885 37.6777 25.5167 37.4447C24.9449 37.2118 24.3916 37.0953 23.8752 37.0953C22.6117 37.0953 21.9846 37.5127 21.9846 38.3377C21.9846 38.5512 22.0215 38.755 22.1045 38.9298C22.1875 39.1045 22.3074 39.2695 22.4918 39.415C22.667 39.5606 22.8331 39.6868 22.9898 39.7839C23.1466 39.8906 23.3495 40.0168 23.6262 40.1624C23.8936 40.308 24.0965 40.4342 24.2348 40.5313C25.6735 41.1719 26.7248 41.9386 27.398 42.8121C28.0713 43.6954 28.4125 44.763 28.4125 46.0248C28.4125 48.0728 27.9329 49.6354 26.9738 50.7031C26.0147 51.7707 24.6221 52.3143 22.8054 52.3143C22.0215 52.3045 21.3206 52.2269 20.6658 52.091Z" fill="url(#paint6_linear_27_24665)"/>
<path d="M29.9341 51.9746V33.7759H31.88C32.3964 33.7759 33.1895 33.7565 34.2409 33.7079C35.2922 33.6594 36.1591 33.64 36.8415 33.64C38.7505 33.64 40.1984 34.1739 41.176 35.2415C42.1628 36.3092 42.6515 37.9106 42.6515 40.0363C42.6515 41.3174 42.4947 42.4918 42.172 43.5401C41.8492 44.5883 41.425 45.4521 40.8809 46.1218C40.3367 46.7916 39.7281 47.3157 39.0364 47.6748C38.3447 48.034 37.6162 48.2184 36.8508 48.2184C36.7493 48.2184 36.6479 48.2184 36.5464 48.2184C36.445 48.2184 36.3527 48.2184 36.2697 48.2086C36.1867 48.2086 36.0853 48.1989 35.9746 48.1892C35.864 48.1892 35.7718 48.1796 35.7072 48.1698C35.6426 48.1698 35.5504 48.1601 35.4398 48.1504C35.3291 48.1407 35.2461 48.1407 35.2092 48.1407C35.1723 48.1407 35.0985 48.131 34.9879 48.1213C34.8772 48.1116 34.8219 48.1019 34.8126 48.1019V51.9551H29.9341V51.9746ZM37.2289 37.4836C36.8323 37.008 36.2698 36.7653 35.532 36.7653H34.8218V44.8407H35.366C36.1407 44.8407 36.7493 44.5689 37.1735 44.0157C37.5978 43.4721 37.8191 42.6762 37.8191 41.6377V39.3374C37.8191 38.5803 37.6162 37.9592 37.2289 37.4836Z" fill="url(#paint7_linear_27_24665)"/>
<path d="M43.8226 33.7761H48.8579V51.9748H43.8226V33.7761Z" fill="url(#paint8_linear_27_24665)"/>
<path d="M50.8593 51.9748V35.232L50.14 33.7761H55.5718L58.2832 39.6774L60.8838 45.5592L60.1645 38.6485V33.7761H64.8678V51.9748H60.3674L56.8537 44.7827L54.6865 40.2791L55.5534 46.2386V51.9651H50.8593V51.9748Z" fill="url(#paint9_linear_27_24665)"/>
<defs>
<linearGradient id="paint0_linear_27_24665" x1="41.0019" y1="85.5003" x2="41.0019" y2="0.37111" gradientUnits="userSpaceOnUse">
<stop stop-color="#B35E07"/>
<stop offset="0.1318" stop-color="#C07216"/>
<stop offset="0.4012" stop-color="#E3A73D"/>
<stop offset="0.5985" stop-color="#FFD15C"/>
<stop offset="0.8564" stop-color="#FFDA64"/>
<stop offset="1" stop-color="#FFE16B"/>
</linearGradient>
<linearGradient id="paint1_linear_27_24665" x1="41.0019" y1="80.3521" x2="41.0019" y2="7.00177" gradientUnits="userSpaceOnUse">
<stop stop-color="#FFF9B3"/>
<stop offset="1" stop-color="#9E9752"/>
</linearGradient>
<radialGradient id="paint2_radial_27_24665" cx="0" cy="0" r="1" gradientUnits="userSpaceOnUse" gradientTransform="translate(40.6626 24.8272) scale(62.6235 65.9083)">
<stop offset="0.2602" stop-color="white"/>
<stop offset="0.3364" stop-color="#FCFAF5"/>
<stop offset="0.4667" stop-color="#F4EBDA"/>
<stop offset="0.6351" stop-color="#E8D4AD"/>
<stop offset="0.833" stop-color="#D7B571"/>
<stop offset="1" stop-color="#C79738"/>
</radialGradient>
<linearGradient id="paint3_linear_27_24665" x1="41.0026" y1="77.7631" x2="41.0026" y2="8.10888" gradientUnits="userSpaceOnUse">
<stop stop-color="#540000"/>
<stop offset="1" stop-color="#FF3636"/>
</linearGradient>
<linearGradient id="paint4_linear_27_24665" x1="41.0024" y1="11.5541" x2="41.0024" y2="74.3172" gradientUnits="userSpaceOnUse">
<stop stop-color="#FF4A4A"/>
<stop offset="1" stop-color="#910000"/>
</linearGradient>
<linearGradient id="paint5_linear_27_24665" x1="41.0027" y1="31.9823" x2="41.0027" y2="10.6795" gradientUnits="userSpaceOnUse">
<stop stop-color="#541A1A"/>
<stop offset="1" stop-color="#FF8C8C"/>
</linearGradient>
<linearGradient id="paint6_linear_27_24665" x1="22.7659" y1="52.3007" x2="22.7659" y2="33.5721" gradientUnits="userSpaceOnUse">
<stop stop-color="#FFC4C4"/>
<stop offset="1" stop-color="white"/>
</linearGradient>
<linearGradient id="paint7_linear_27_24665" x1="36.2963" y1="51.9747" x2="36.2963" y2="33.6338" gradientUnits="userSpaceOnUse">
<stop stop-color="#FFC4C4"/>
<stop offset="1" stop-color="white"/>
</linearGradient>
<linearGradient id="paint8_linear_27_24665" x1="46.3379" y1="51.9749" x2="46.3379" y2="33.7742" gradientUnits="userSpaceOnUse">
<stop stop-color="#FFC4C4"/>
<stop offset="1" stop-color="white"/>
</linearGradient>
<linearGradient id="paint9_linear_27_24665" x1="57.4993" y1="51.9749" x2="57.4993" y2="33.7742" gradientUnits="userSpaceOnUse">
<stop stop-color="#FFC4C4"/>
<stop offset="1" stop-color="white"/>
</linearGradient>
</defs>
</svg>
