<svg width="62" height="65" viewBox="0 0 62 65" fill="none" xmlns="http://www.w3.org/2000/svg">
<path fill-rule="evenodd" clip-rule="evenodd" d="M4.78203 54.2116C6.15356 55.9709 7.78226 57.4745 9.59669 58.8127C13.8685 61.9553 19.7832 61.7297 24.855 59.6998C30.3126 57.5195 34.8701 51.9562 38.6847 44.3328C44.0566 33.612 44.3994 23.2069 40.2562 16.4256C39.0276 14.4257 37.356 12.877 35.4559 11.7192C31.9699 9.58406 28.2124 8.78708 24.5122 9.02766C4.85346 10.3509 -7.21892 38.7093 4.78203 54.2116Z" fill="url(#paint0_radial_27_24891)"/>
<path fill-rule="evenodd" clip-rule="evenodd" d="M46.3854 6.03548C42.0565 9.76446 43.4995 18.0946 45.7282 22.6956C48.2141 27.8681 52.8288 32.0031 59.215 34.7998C59.3436 34.8599 59.4436 34.905 59.515 34.875C59.5722 34.8449 59.6007 34.7697 59.6436 34.6795C62.801 26.1239 63.0439 18.0194 56.6862 11.7192C53.9431 9.02773 50.3 6.75722 46.3854 6.03548Z" fill="url(#paint1_radial_27_24891)"/>
<path fill-rule="evenodd" clip-rule="evenodd" d="M59.5149 34.875C51.2714 29.9731 46.0281 21.8085 49.1855 13.4183C47.9854 11.3734 47.1425 9.49381 46.3996 6.03548C42.0706 9.76446 43.5136 18.0946 45.7424 22.6956C48.2283 27.8681 52.8429 32.0031 59.2292 34.7998C59.3292 34.8599 59.4434 34.905 59.5149 34.875Z" fill="url(#paint2_radial_27_24891)"/>
<path fill-rule="evenodd" clip-rule="evenodd" d="M45.8997 2.15619C43.8852 8.57666 51.6287 17.5383 54.8004 23.7031C56.7005 27.4021 57.9149 30.6348 59.3721 34.5142C58.1578 29.868 57.5149 27.7028 55.4576 23.3423C52.7859 17.7187 47.0283 9.8698 46.8283 3.96056L45.8997 2.15619Z" fill="url(#paint3_radial_27_24891)"/>
<path fill-rule="evenodd" clip-rule="evenodd" d="M39.4705 15.1776C39.5562 14.7265 39.9134 13.9145 40.2705 13.3883C42.4707 10.1104 44.9566 7.41885 46.8282 3.96051C46.8139 2.6674 44.9709 -0.55029 44.0994 0.0812319C43.4994 4.02072 40.8849 8.83225 38.1847 11.4786C37.4989 12.1252 36.7274 12.471 35.4416 12.7267C36.0559 13.8393 38.599 15.7489 39.4705 15.1776Z" fill="url(#paint4_radial_27_24891)"/>
<path fill-rule="evenodd" clip-rule="evenodd" d="M40.414 11.3884C39.5711 11.8997 38.7139 11.7343 38.1424 11.5238C37.4709 12.1403 36.6994 12.4711 35.4565 12.7267C36.0708 13.8393 38.6139 15.749 39.4711 15.1776C39.5568 14.7265 39.914 13.9145 40.2711 13.3883C42.4713 10.1104 44.9572 7.41885 46.8288 3.96051C46.8288 3.23877 46.243 1.90058 45.5715 0.983368C45.8858 1.64496 46.2573 2.50206 46.2001 3.08848C45.943 5.70478 42.4427 10.1554 40.414 11.3884Z" fill="url(#paint5_radial_27_24891)"/>
<path fill-rule="evenodd" clip-rule="evenodd" d="M40.5561 14.2C30.3982 8.68172 17.04 14.4105 10.0394 27.7176C3.03887 41.0246 5.06759 56.6925 14.8255 62.3912C19.5544 65.1579 25.2263 64.8271 30.5839 62.8573C36.3415 60.7372 41.4562 56.1662 45.5137 48.4526C53.1428 33.9727 50.7283 19.7183 40.5561 14.2Z" fill="url(#paint6_radial_27_24891)"/>
<defs>
<radialGradient id="paint0_radial_27_24891" cx="0" cy="0" r="1" gradientUnits="userSpaceOnUse" gradientTransform="translate(15.6615 49.5057) scale(43.2361 45.504)">
<stop stop-color="#380061"/>
<stop offset="0.316" stop-color="#551C9C"/>
<stop offset="1" stop-color="#954AFF"/>
</radialGradient>
<radialGradient id="paint1_radial_27_24891" cx="0" cy="0" r="1" gradientUnits="userSpaceOnUse" gradientTransform="translate(46.5851 8.41676) scale(31.3129 32.9553)">
<stop stop-color="#386E02"/>
<stop offset="1" stop-color="#599100"/>
</radialGradient>
<radialGradient id="paint2_radial_27_24891" cx="0" cy="0" r="1" gradientUnits="userSpaceOnUse" gradientTransform="translate(61.7789 19.8789) scale(25.9493 27.3104)">
<stop offset="0.4015" stop-color="white"/>
<stop offset="0.4396" stop-color="#F0F5E3"/>
<stop offset="0.5256" stop-color="#D0E2A9"/>
<stop offset="0.6118" stop-color="#B4D178"/>
<stop offset="0.6962" stop-color="#9EC34F"/>
<stop offset="0.7784" stop-color="#8CB830"/>
<stop offset="0.8577" stop-color="#80B019"/>
<stop offset="0.933" stop-color="#79AC0C"/>
<stop offset="1" stop-color="#76AA07"/>
</radialGradient>
<radialGradient id="paint3_radial_27_24891" cx="0" cy="0" r="1" gradientUnits="userSpaceOnUse" gradientTransform="translate(60.116 29.1518) scale(28.5965 30.0966)">
<stop stop-color="#499100"/>
<stop offset="1" stop-color="#2C4701"/>
</radialGradient>
<radialGradient id="paint4_radial_27_24891" cx="0" cy="0" r="1" gradientUnits="userSpaceOnUse" gradientTransform="translate(38.5553 0.0558194) scale(12.9962 13.6778)">
<stop stop-color="#76B000"/>
<stop offset="0.7125" stop-color="#314F01"/>
</radialGradient>
<radialGradient id="paint5_radial_27_24891" cx="0" cy="0" r="1" gradientUnits="userSpaceOnUse" gradientTransform="translate(35.3595 0.244637) scale(17.0499 17.9443)">
<stop offset="0.4015" stop-color="white"/>
<stop offset="0.4396" stop-color="#F0F5E3"/>
<stop offset="0.5256" stop-color="#D0E2A9"/>
<stop offset="0.6118" stop-color="#B4D178"/>
<stop offset="0.6962" stop-color="#9EC34F"/>
<stop offset="0.7784" stop-color="#8CB830"/>
<stop offset="0.8577" stop-color="#80B019"/>
<stop offset="0.933" stop-color="#79AC0C"/>
<stop offset="1" stop-color="#76AA07"/>
</radialGradient>
<radialGradient id="paint6_radial_27_24891" cx="0" cy="0" r="1" gradientUnits="userSpaceOnUse" gradientTransform="translate(18.6318 22.5793) scale(41.307 43.4737)">
<stop stop-color="#954AFF"/>
<stop offset="0.5799" stop-color="#591DA3"/>
<stop offset="0.7695" stop-color="#410078"/>
</radialGradient>
</defs>
</svg>
