<svg width="332" height="99" viewBox="0 0 332 99" fill="none" xmlns="http://www.w3.org/2000/svg">
<path opacity="0.5" fill-rule="evenodd" clip-rule="evenodd" d="M6.79667 18.3629H127.949C131.647 18.3629 134.829 17.1789 137.706 14.7135C145.434 8.10378 155.284 4.14374 166.009 4.14374C176.735 4.14374 186.584 8.10378 194.312 14.7135C197.18 17.1692 200.362 18.3629 204.069 18.3629H325.212C327.721 18.3629 329.759 20.5177 329.759 23.148V79.7046C329.759 82.3446 327.712 84.4896 325.212 84.4896H204.06C200.362 84.4896 197.18 85.6738 194.303 88.1391C186.575 94.7489 176.725 98.7089 166 98.7089C155.274 98.7089 145.425 94.7489 137.697 88.1391C134.829 85.6835 131.647 84.4896 127.94 84.4896H6.79667C4.28823 84.4896 2.25012 82.3349 2.25012 79.7046V23.1577C2.25012 20.5177 4.29745 18.3629 6.79667 18.3629Z" fill="#110D1F"/>
<path fill-rule="evenodd" clip-rule="evenodd" d="M4.61111 14.4134H127.423C131.177 14.4134 134.395 13.2098 137.31 10.7154C145.139 4.0183 155.127 0 166 0C176.873 0 186.861 4.0183 194.69 10.7154C197.605 13.2001 200.823 14.4134 204.577 14.4134H327.389C329.925 14.4134 332 16.5972 332 19.2664V76.5994C332 79.2685 329.925 81.4524 327.389 81.4524H204.586C200.832 81.4524 197.614 82.6559 194.7 85.1504C186.87 91.8475 176.882 95.8658 166.009 95.8658C155.136 95.8658 145.149 91.8475 137.319 85.1504C134.405 82.6559 131.186 81.4524 127.433 81.4524H4.61111C2.075 81.4524 0 79.2685 0 76.5994V19.2664C0 16.5972 2.075 14.4134 4.61111 14.4134Z" fill="url(#paint0_linear_27_24661)"/>
<path fill-rule="evenodd" clip-rule="evenodd" d="M4.61111 22.5368H121.623C126.234 22.5368 130.209 20.6732 133.289 17.0529C141.331 7.61869 153.006 1.67861 166 1.67861C178.994 1.67861 190.669 7.61869 198.711 17.0529C201.791 20.6635 205.766 22.5368 210.377 22.5368H327.389C329.925 22.5368 332 24.7206 332 27.3898V68.4945C332 71.1636 329.925 73.3475 327.389 73.3475H210.387C205.775 73.3475 201.801 75.211 198.72 78.8313C190.679 88.2655 179.003 94.2056 166.009 94.2056C153.015 94.2056 141.34 88.2655 133.298 78.8313C130.218 75.2207 126.243 73.3475 121.632 73.3475H4.61111C2.075 73.3475 0 71.1636 0 68.4945V27.3898C0 24.7109 2.075 22.5368 4.61111 22.5368Z" fill="url(#paint1_linear_27_24661)"/>
<defs>
<linearGradient id="paint0_linear_27_24661" x1="166.01" y1="95.8687" x2="166.01" y2="-0.00590887" gradientUnits="userSpaceOnUse">
<stop stop-color="#4449B8"/>
<stop offset="0.95625" stop-color="#4B51F4"/>
<stop offset="1" stop-color="#4B52F7"/>
</linearGradient>
<linearGradient id="paint1_linear_27_24661" x1="166.01" y1="94.2083" x2="166.01" y2="1.67291" gradientUnits="userSpaceOnUse">
<stop stop-color="#7C81F7"/>
<stop offset="1" stop-color="#4B52F7"/>
</linearGradient>
</defs>
</svg>
