<svg width="61" height="72" viewBox="0 0 61 72" fill="none" xmlns="http://www.w3.org/2000/svg">
<path fill-rule="evenodd" clip-rule="evenodd" d="M0.728659 48.9312C-0.189488 58.7382 7.78079 66.4892 15.7315 67.3322C23.7018 68.1751 32.1215 63.9399 33.528 52.8788C34.0554 48.6846 33.0786 43.7297 29.6991 41.0364C28.3512 39.9672 26.7884 39.556 25.2256 39.4532C22.6861 39.2887 20.3223 39.3298 18.5837 39.1653C16.6106 38.9803 13.739 38.2196 10.7697 38.1168C9.53896 38.0757 8.24964 38.2608 6.92126 38.8364C3.13146 40.5635 1.08029 45.2099 0.728659 48.9312Z" fill="url(#paint0_radial_27_24939)"/>
<path fill-rule="evenodd" clip-rule="evenodd" d="M14.1889 39.3098C12.0596 38.6108 11.4931 39.7828 12.8019 41.2836C14.6968 43.4835 18.9554 43.9769 21.3387 43.0723C23.5657 42.2293 24.6401 39.721 21.8271 40.2145C17.9396 40.8929 16.8066 40.1733 14.1889 39.3098Z" fill="#A10505"/>
<path fill-rule="evenodd" clip-rule="evenodd" d="M16.2202 40.1946C14.9895 39.8039 14.5988 40.4824 15.3412 41.3459C16.4351 42.6 18.5059 42.8263 19.8733 42.3123C21.1822 41.8188 21.5924 40.4825 19.971 40.647C18.291 40.8114 17.5682 40.6263 16.2202 40.1946Z" fill="#8A0505"/>
<path fill-rule="evenodd" clip-rule="evenodd" d="M11.2576 41.6948C12.1562 43.9359 15.946 45.1488 18.4465 44.4704C18.9739 44.3264 19.5014 44.018 19.5014 43.8124C19.5014 43.6685 19.2279 43.6891 18.6223 43.6891C16.7079 43.6685 13.8167 43.134 12.3125 40.9957C11.7264 40.1939 10.8669 40.708 11.2576 41.6948Z" fill="url(#paint1_radial_27_24939)"/>
<path fill-rule="evenodd" clip-rule="evenodd" d="M43.9204 6.90793C40.912 9.02558 38.8804 14.2478 39.6032 17.5168C41.4786 26.0285 48.7652 33.1422 54.5085 36.2261C54.6257 36.2878 54.7233 36.3496 54.8015 36.3084C54.8601 36.2879 54.8992 36.2261 54.9382 36.1233C58.6499 27.9406 59.4704 19.984 53.6489 13.3021C51.1484 10.4443 47.7102 7.91536 43.9204 6.90793Z" fill="url(#paint2_radial_27_24939)"/>
<path opacity="0.5" fill-rule="evenodd" clip-rule="evenodd" d="M53.9227 30.2847C55.4269 23.2122 53.8446 15.8313 47.7887 12.9735C50.465 18.0928 52.692 24.3841 53.9227 30.2847Z" fill="url(#paint3_radial_27_24939)"/>
<path fill-rule="evenodd" clip-rule="evenodd" d="M54.8015 36.3289C47.0265 30.86 44.0767 20.9914 47.7689 12.9731C46.5577 10.6704 45.2488 8.59383 43.9204 6.90793C40.912 9.02558 38.8804 14.2478 39.6032 17.5168C41.4786 26.0285 48.7652 33.1421 54.5085 36.2261C54.6257 36.2878 54.7233 36.3494 54.8015 36.3289Z" fill="url(#paint4_radial_27_24939)"/>
<path fill-rule="evenodd" clip-rule="evenodd" d="M42.182 2.28131C42.7876 4.76904 46.05 8.98387 47.4956 11.7594C51.3244 19.1198 54.6063 27.5287 54.7235 35.9171C53.5709 27.5287 50.7579 19.531 46.8509 12.1295C45.2099 9.02498 42.0257 5.36535 41.3029 2.36363L42.182 2.28131Z" fill="url(#paint5_radial_27_24939)"/>
<path fill-rule="evenodd" clip-rule="evenodd" d="M3.13123 59.0887C-1.30322 50.4125 2.27168 38.6318 12.5276 38.344C10.7694 38.015 8.87452 37.9945 6.94055 38.8786C3.13122 40.585 1.08006 45.2314 0.728432 48.9322C0.376801 52.7152 1.35354 56.1898 3.13123 59.0887Z" fill="url(#paint6_radial_27_24939)"/>
<path fill-rule="evenodd" clip-rule="evenodd" d="M7.74161 39.5563C1.29504 42.7636 -0.326357 52.8174 3.26809 58.533C3.60019 59.047 3.69784 58.903 3.58063 58.574C1.60759 52.6117 2.2132 43.9972 8.21046 39.6797C8.42534 39.5357 8.56208 39.4125 8.54255 39.3713C8.52301 39.2891 7.85882 39.4946 7.74161 39.5563Z" fill="url(#paint7_radial_27_24939)"/>
<path fill-rule="evenodd" clip-rule="evenodd" d="M26.1236 54.4214C26.1627 64.7835 35.2661 71.9999 43.6661 71.9999C52.0662 71.9999 60.4662 66.6132 60.8374 54.9148C60.9741 50.4739 59.4308 45.375 55.641 42.949C51.6168 40.379 46.6354 42.8667 43.6661 42.9078C40.6968 42.949 36.0474 40.6257 31.5934 43.1957C27.7841 45.4161 26.1041 50.4944 26.1236 54.4214Z" fill="url(#paint8_radial_27_24939)"/>
<path fill-rule="evenodd" clip-rule="evenodd" d="M39.232 42.8658C36.9269 42.3518 36.458 43.6471 37.9622 45.0863C40.1697 47.1834 44.6628 47.2245 47.0656 46.0115C49.3121 44.8807 50.1912 42.1258 47.3 42.9687C43.3148 44.0995 42.045 43.4826 39.232 42.8658Z" fill="#A10505"/>
<path fill-rule="evenodd" clip-rule="evenodd" d="M41.4394 43.5657C40.111 43.2778 39.7593 44.0385 40.6384 44.8609C41.9082 46.0534 44.0962 46.0739 45.4832 45.3749C46.792 44.717 47.1046 43.2573 45.4245 43.6068C43.6664 43.9769 42.885 43.8741 41.4394 43.5657Z" fill="#8A0505"/>
<path fill-rule="evenodd" clip-rule="evenodd" d="M29.6401 64.7832C24.1312 56.1893 26.6903 43.4833 37.3955 42.0236C35.5201 41.8797 33.5471 42.0647 31.5936 43.1955C27.7843 45.3954 26.1042 50.4943 26.1042 54.4212C26.1238 58.4303 27.4912 61.9666 29.6401 64.7832Z" fill="url(#paint9_radial_27_24939)"/>
<path fill-rule="evenodd" clip-rule="evenodd" d="M32.5116 43.833C26.0846 47.9244 25.4009 58.6154 29.7377 64.2077C30.1284 64.7217 30.226 64.5572 30.0697 64.2077C27.3934 58.1837 27.1786 49.0963 33.0196 43.9152C33.2149 43.7302 33.3712 43.5863 33.3517 43.5657C33.2931 43.4835 32.6288 43.7713 32.5116 43.833Z" fill="url(#paint10_radial_27_24939)"/>
<path fill-rule="evenodd" clip-rule="evenodd" d="M36.3987 45.6837C37.5513 47.9452 41.6341 48.7675 44.1932 47.7807C44.7206 47.5751 45.2481 47.1844 45.2285 46.9788C45.2285 46.8349 44.9355 46.8967 44.2908 46.9584C42.2787 47.1434 39.2118 46.9172 37.4145 44.8407C36.7503 44.0594 35.8908 44.6968 36.3987 45.6837Z" fill="url(#paint11_radial_27_24939)"/>
<path d="M16.7666 41.6749C16.6494 41.4076 17.216 41.1197 17.216 40.7085C17.3332 24.5486 26.2998 11.0821 38.9585 2.89929C39.4859 4.37959 39.6227 6.18877 39.3101 7.9569C38.6264 11.781 37.9622 13.8164 38.2161 20.5189C38.5482 29.0717 40.6385 37.4396 44.2134 44.0804C44.2915 44.2243 44.7994 44.5532 44.7408 44.6971C44.5259 45.3139 43.1194 45.5195 42.3966 45.2317C42.0059 45.0672 42.5725 44.6149 42.3771 44.2037C37.3566 33.3687 35.7938 19.347 37.2394 5.90093C27.3156 11.7399 18.603 26.6868 18.8374 40.359C18.8569 41.0786 19.4039 41.4487 19.2867 41.7777C19.0718 42.3533 17.0401 42.3123 16.7666 41.6749Z" fill="url(#paint12_radial_27_24939)"/>
<path fill-rule="evenodd" clip-rule="evenodd" d="M36.4007 4.62566C37.944 4.37894 39.2138 5.46856 39.4482 6.24983C39.5068 6.43487 39.8193 6.08539 39.8975 5.90035C40.0147 5.65364 39.9365 5.32473 40.0342 5.05746C40.3077 4.27619 41.2259 3.02201 41.9487 2.44634C42.0268 2.38466 42.2026 2.36404 42.1831 2.26124C41.9487 0.26695 39.1942 -0.45256 38.237 0.28759C38.0417 0.431508 38.0026 0.760393 37.9245 0.98655C37.651 2.01454 37.0844 2.91924 36.3812 3.76219C36.303 3.86499 36.1663 3.94715 36.1663 4.07051C36.1858 4.29666 36.2054 4.52286 36.4007 4.62566Z" fill="url(#paint13_radial_27_24939)"/>
<path fill-rule="evenodd" clip-rule="evenodd" d="M39.9546 1.72711C40.1891 0.637435 38.4114 0.246761 37.923 1.0486C37.63 2.05604 37.083 2.96061 36.3993 3.80356C36.3212 3.8858 36.2039 3.96807 36.1844 4.09143C36.5165 4.07087 36.829 4.07089 37.1416 4.11201C38.0402 4.23537 38.7826 4.66713 39.271 5.26337C39.271 4.99609 39.1537 4.50261 38.6653 4.19421C38.8607 4.02973 39.0365 3.82419 39.1928 3.61859C39.5444 3.1046 39.7984 2.46727 39.9546 1.72711Z" fill="url(#paint14_radial_27_24939)"/>
<path fill-rule="evenodd" clip-rule="evenodd" d="M39.5636 4.13254C39.2901 4.37926 39.7199 5.3045 39.7394 5.59233C39.7589 5.79793 39.6221 5.79782 39.4659 5.73614C39.2901 5.67446 39.0752 5.5306 38.9189 5.40724C39.2119 5.67452 39.3877 5.98286 39.4659 6.25014C39.5245 6.43518 39.8371 6.08569 39.9152 5.90066C40.0324 5.65394 39.9543 5.32504 40.052 5.05776C40.3255 4.27649 41.2436 3.0223 41.9664 2.44662C42.0445 2.38494 42.2204 2.36433 42.2008 2.26153C42.025 0.822342 40.5794 0.0616794 39.4073 0C40.6575 0.246718 41.8492 1.35691 41.2241 2.40546C41.0483 2.6933 40.5012 2.94002 40.3254 3.3101C40.2668 3.43346 40.4231 3.59796 40.384 3.72132C40.2668 3.9886 39.7003 3.98862 39.5636 4.13254Z" fill="url(#paint15_radial_27_24939)"/>
<path fill-rule="evenodd" clip-rule="evenodd" d="M18.7398 33.8822C18.3101 36.2465 18.1733 37.5212 18.2515 39.166C18.271 39.5567 18.3101 39.9884 18.3491 40.4613C18.3491 40.5435 18.3687 40.6257 18.3687 40.6874C18.3882 40.8519 18.4077 41.0369 18.4273 41.2014C18.5249 42.1677 17.6654 42.0444 17.1379 41.9827C17.8217 42.2911 19.1305 42.2089 19.2673 41.7566C19.3454 41.4893 19.0133 41.1809 18.8766 40.708C18.857 40.6463 18.8375 40.5641 18.8375 40.4819C18.8375 40.4408 18.8375 40.3791 18.818 40.3379C18.818 39.9679 18.818 39.5978 18.818 39.2072C19.0524 25.8434 27.5501 11.5543 37.22 5.87981C37.3176 5.69477 37.4153 5.48924 37.513 5.3042C27.472 10.4853 20.6152 23.4995 18.7398 33.8822Z" fill="url(#paint16_radial_27_24939)"/>
<path fill-rule="evenodd" clip-rule="evenodd" d="M38.2753 4.97488C38.8809 5.73559 38.7051 6.04399 38.4121 7.54485C38.0605 9.37466 37.7088 10.8961 37.533 12.9521C36.693 23.0263 38.3534 31.8259 42.0846 41.3656C42.2995 41.9002 42.5926 42.3936 42.9051 42.887C43.0419 43.1132 43.1982 43.36 43.3349 43.6067C43.3544 43.6478 43.3935 43.7095 43.4131 43.7506C43.4326 43.7917 43.4521 43.8123 43.4717 43.8534C44.0577 44.9636 43.7842 45.1897 42.8856 45.3542C43.6279 45.4159 44.5266 45.1897 44.7024 44.6963C44.7415 44.5729 44.253 44.2234 44.1749 44.0795C44.1358 43.9973 44.0772 43.915 44.0381 43.8328C43.9991 43.7506 43.96 43.6684 43.9209 43.6067C43.8037 43.3805 43.6865 43.1543 43.5889 42.9282C40.3851 36.4724 38.4902 28.5774 38.1972 20.518C37.9432 13.8156 38.6074 11.7802 39.2911 7.95607C39.3888 7.40096 39.4475 6.84585 39.4475 6.29074C39.3693 6.02346 39.174 5.71512 38.9005 5.44784C38.7247 5.26281 38.5098 5.09824 38.2753 4.97488Z" fill="url(#paint17_radial_27_24939)"/>
<path opacity="0.5" fill-rule="evenodd" clip-rule="evenodd" d="M17.7834 37.912C18.3304 28.2695 21.9248 19.9018 26.2616 15.2347C21.1044 23.9315 19.3657 27.7555 17.7834 37.912Z" fill="url(#paint18_radial_27_24939)"/>
<defs>
<radialGradient id="paint0_radial_27_24939" cx="0" cy="0" r="1" gradientUnits="userSpaceOnUse" gradientTransform="translate(12.0572 44.436) scale(25.2895 26.616)">
<stop stop-color="#FA2931"/>
<stop offset="0.513" stop-color="#A6001A"/>
<stop offset="1" stop-color="#570012"/>
</radialGradient>
<radialGradient id="paint1_radial_27_24939" cx="0" cy="0" r="1" gradientUnits="userSpaceOnUse" gradientTransform="translate(11.5606 42.387) scale(9.82945 10.3451)">
<stop stop-color="#FF5252"/>
<stop offset="1"/>
</radialGradient>
<radialGradient id="paint2_radial_27_24939" cx="0" cy="0" r="1" gradientUnits="userSpaceOnUse" gradientTransform="translate(44.7427 6.8516) scale(33.595 35.3573)">
<stop stop-color="#386E02"/>
<stop offset="1" stop-color="#599100"/>
</radialGradient>
<radialGradient id="paint3_radial_27_24939" cx="0" cy="0" r="1" gradientUnits="userSpaceOnUse" gradientTransform="translate(48.4095 28.4438) scale(23.8453 25.096)">
<stop stop-color="#91D600"/>
<stop offset="1"/>
</radialGradient>
<radialGradient id="paint4_radial_27_24939" cx="0" cy="0" r="1" gradientUnits="userSpaceOnUse" gradientTransform="translate(70.0566 18.9204) scale(41.6939 43.8808)">
<stop offset="0.4015" stop-color="white"/>
<stop offset="0.4396" stop-color="#F0F5E3"/>
<stop offset="0.5256" stop-color="#D0E2A9"/>
<stop offset="0.6118" stop-color="#B4D178"/>
<stop offset="0.6962" stop-color="#9EC34F"/>
<stop offset="0.7784" stop-color="#8CB830"/>
<stop offset="0.8577" stop-color="#80B019"/>
<stop offset="0.933" stop-color="#79AC0C"/>
<stop offset="1" stop-color="#76AA07"/>
</radialGradient>
<radialGradient id="paint5_radial_27_24939" cx="0" cy="0" r="1" gradientUnits="userSpaceOnUse" gradientTransform="translate(63.6694 29.1846) scale(48.1238 50.6482)">
<stop stop-color="#499100"/>
<stop offset="1" stop-color="#2C4701"/>
</radialGradient>
<radialGradient id="paint6_radial_27_24939" cx="0" cy="0" r="1" gradientUnits="userSpaceOnUse" gradientTransform="translate(14.5582 46.6005) scale(19.9962 21.0451)">
<stop offset="0.342" stop-color="white"/>
<stop offset="0.4026" stop-color="#F8F1F1"/>
<stop offset="0.5175" stop-color="#E6CCCC"/>
<stop offset="0.6746" stop-color="#C89090"/>
<stop offset="0.8656" stop-color="#A03E3E"/>
<stop offset="1" stop-color="#820000"/>
</radialGradient>
<radialGradient id="paint7_radial_27_24939" cx="0" cy="0" r="1" gradientUnits="userSpaceOnUse" gradientTransform="translate(14.2843 58.9166) scale(23.3432 24.5676)">
<stop/>
<stop offset="1" stop-color="#FF3838"/>
</radialGradient>
<radialGradient id="paint8_radial_27_24939" cx="0" cy="0" r="1" gradientUnits="userSpaceOnUse" gradientTransform="translate(40.1355 50.8622) scale(21.0996 22.2064)">
<stop stop-color="#FA2931"/>
<stop offset="0.6245" stop-color="#A6001A"/>
<stop offset="1" stop-color="#570012"/>
</radialGradient>
<radialGradient id="paint9_radial_27_24939" cx="0" cy="0" r="1" gradientUnits="userSpaceOnUse" gradientTransform="translate(42.4348 47.9177) scale(23.9306 25.1859)">
<stop offset="0.342" stop-color="white"/>
<stop offset="0.4026" stop-color="#F8F1F1"/>
<stop offset="0.5175" stop-color="#E6CCCC"/>
<stop offset="0.6746" stop-color="#C89090"/>
<stop offset="0.8656" stop-color="#A03E3E"/>
<stop offset="1" stop-color="#820000"/>
</radialGradient>
<radialGradient id="paint10_radial_27_24939" cx="0" cy="0" r="1" gradientUnits="userSpaceOnUse" gradientTransform="translate(38.1523 65.9542) scale(25.6034 26.9462)">
<stop/>
<stop offset="1" stop-color="#FF3838"/>
</radialGradient>
<radialGradient id="paint11_radial_27_24939" cx="0" cy="0" r="1" gradientUnits="userSpaceOnUse" gradientTransform="translate(37.0475 47.0722) scale(13.6391 14.3544)">
<stop stop-color="#FF5252"/>
<stop offset="1"/>
</radialGradient>
<radialGradient id="paint12_radial_27_24939" cx="0" cy="0" r="1" gradientUnits="userSpaceOnUse" gradientTransform="translate(23.7959 21.4746) scale(45.5303 47.9185)">
<stop stop-color="#76B000"/>
<stop offset="0.7125" stop-color="#314F01"/>
</radialGradient>
<radialGradient id="paint13_radial_27_24939" cx="0" cy="0" r="1" gradientUnits="userSpaceOnUse" gradientTransform="translate(38.5753 1.08138) scale(9.37707 9.86878)">
<stop stop-color="#774E34"/>
<stop offset="1" stop-color="#563D2B"/>
</radialGradient>
<radialGradient id="paint14_radial_27_24939" cx="0" cy="0" r="1" gradientUnits="userSpaceOnUse" gradientTransform="translate(29.4839 -3.24449) scale(13.646 14.3618)">
<stop stop-color="#FFAA00"/>
<stop offset="1"/>
</radialGradient>
<radialGradient id="paint15_radial_27_24939" cx="0" cy="0" r="1" gradientUnits="userSpaceOnUse" gradientTransform="translate(38.1748 -1.00763) scale(8.76751 9.22718)">
<stop stop-color="white"/>
<stop offset="1" stop-color="#CA9E67"/>
</radialGradient>
<radialGradient id="paint16_radial_27_24939" cx="0" cy="0" r="1" gradientUnits="userSpaceOnUse" gradientTransform="translate(23.8437 33.4348) scale(32.8458 34.5687)">
<stop stop-color="#76AA07"/>
<stop offset="0.1119" stop-color="#79AC0C"/>
<stop offset="0.2377" stop-color="#80B019"/>
<stop offset="0.3703" stop-color="#8CB830"/>
<stop offset="0.5076" stop-color="#9EC34F"/>
<stop offset="0.6485" stop-color="#B4D178"/>
<stop offset="0.7925" stop-color="#D0E2A9"/>
<stop offset="0.9364" stop-color="#F0F5E3"/>
<stop offset="1" stop-color="white"/>
</radialGradient>
<radialGradient id="paint17_radial_27_24939" cx="0" cy="0" r="1" gradientUnits="userSpaceOnUse" gradientTransform="translate(47.4902 32.5833) scale(40.5994 42.7289)">
<stop stop-color="#76AA07"/>
<stop offset="0.1119" stop-color="#79AC0C"/>
<stop offset="0.2377" stop-color="#80B019"/>
<stop offset="0.3703" stop-color="#8CB830"/>
<stop offset="0.5076" stop-color="#9EC34F"/>
<stop offset="0.6485" stop-color="#B4D178"/>
<stop offset="0.7925" stop-color="#D0E2A9"/>
<stop offset="0.9364" stop-color="#F0F5E3"/>
<stop offset="1" stop-color="white"/>
</radialGradient>
<radialGradient id="paint18_radial_27_24939" cx="0" cy="0" r="1" gradientUnits="userSpaceOnUse" gradientTransform="translate(18.7877 14.9925) scale(22.7303 23.9224)">
<stop stop-color="#91D600"/>
<stop offset="1"/>
</radialGradient>
</defs>
</svg>
