<svg width="103" height="20" viewBox="0 0 103 20" fill="none" xmlns="http://www.w3.org/2000/svg">
<path fill-rule="evenodd" clip-rule="evenodd" d="M3.23956 0.416504H100.322C101.733 0.416504 102.886 1.62978 102.886 3.11479V16.7225C102.886 18.2075 101.733 19.4208 100.322 19.4208H3.23956C1.82856 19.4208 0.675781 18.2075 0.675781 16.7225V3.11479C0.685003 1.62978 1.83778 0.416504 3.23956 0.416504Z" fill="url(#paint0_linear_47_852)"/>
<path fill-rule="evenodd" clip-rule="evenodd" d="M3.23886 2.3577H100.321C100.718 2.3577 101.041 2.69743 101.041 3.11479V16.7225C101.041 17.1399 100.718 17.4796 100.321 17.4796H3.23886C2.84231 17.4796 2.51953 17.1399 2.51953 16.7225V3.11479C2.51953 2.69743 2.84231 2.3577 3.23886 2.3577Z" fill="url(#paint1_linear_47_852)"/>
<path fill-rule="evenodd" clip-rule="evenodd" d="M100.782 18.7222H2.77737C2.05803 18.7222 1.40325 18.4018 0.942139 17.8971C1.35714 18.7901 2.23325 19.4112 3.23848 19.4112H100.321C101.326 19.4112 102.202 18.7901 102.617 17.8971C102.156 18.4115 101.501 18.7222 100.782 18.7222Z" fill="url(#paint2_linear_47_852)"/>
<path d="M6.79311 8.77632H6V7.83481H8.72977V8.77632H7.93666V12.0084H6.79311V8.77632Z" fill="#DCBDFF"/>
<path d="M9.98383 12.0181C9.83627 11.9792 9.70716 11.9308 9.5965 11.8725C9.48583 11.8143 9.39361 11.7269 9.31061 11.6299C9.22761 11.5328 9.16306 11.426 9.11695 11.3096C9.07084 11.1931 9.03395 11.0572 8.99706 10.9116C8.96939 10.7563 8.95094 10.6107 8.9325 10.4554C8.92327 10.3001 8.91406 10.1352 8.91406 9.94104C8.91406 9.65957 8.92327 9.4072 8.96016 9.19367C8.98783 8.98014 9.04317 8.78602 9.11695 8.5919C9.19073 8.40749 9.29216 8.25216 9.42127 8.13569C9.55038 8.01922 9.71639 7.9319 9.91928 7.86396C10.1222 7.79601 10.3619 7.76686 10.6386 7.76686C10.8323 7.76686 10.9983 7.78633 11.1458 7.82515C11.2934 7.86398 11.4225 7.91248 11.5332 7.98042C11.6438 8.04836 11.736 8.12602 11.819 8.23279C11.902 8.33955 11.9666 8.44628 12.0127 8.56276C12.0588 8.67923 12.0957 8.81515 12.1326 8.97045C12.1603 9.12574 12.1787 9.28101 12.1972 9.4266C12.2064 9.58189 12.2156 9.74692 12.2156 9.94104C12.2156 10.2225 12.1972 10.4748 12.1695 10.6884C12.1418 10.9019 12.0865 11.0961 12.0127 11.2805C11.9389 11.4649 11.8375 11.6104 11.7084 11.7269C11.5793 11.8434 11.4133 11.9308 11.2104 11.9987C11.0075 12.0666 10.7677 12.0957 10.491 12.0957C10.3066 12.0763 10.1406 12.0569 9.98383 12.0181ZM10.2605 11.2125C10.3158 11.3678 10.4173 11.4455 10.5648 11.4455C10.6755 11.4455 10.7493 11.4163 10.8046 11.3581C10.8599 11.2998 10.8968 11.1834 10.9245 11.0087C10.9522 10.834 10.9706 10.5719 10.9706 10.2225V9.36837C10.9706 9.02866 10.9429 8.77633 10.8784 8.61133C10.8138 8.44633 10.7124 8.35897 10.5648 8.35897C10.4173 8.35897 10.3158 8.43662 10.2605 8.60162C10.2052 8.76662 10.1775 9.05777 10.1775 9.48483V10.3778C10.1775 10.7854 10.2052 11.0572 10.2605 11.2125Z" fill="#DCBDFF"/>
<path d="M13.2023 8.77632H12.4092V7.83481H15.139V8.77632H14.3459V12.0084H13.2023V8.77632Z" fill="#DCBDFF"/>
<path d="M17.2239 11.3387H16.2648L16.1357 12.0084H15.1396L16.1725 8.12603L16.0895 7.83481H17.4821L18.6072 12.0084H17.3622L17.2239 11.3387ZM16.4031 10.6108H17.0579L16.6982 9.05777L16.4031 10.6108Z" fill="#DCBDFF"/>
<path d="M18.7455 7.83481H19.8614V11.0475H20.8667V11.9987H18.7363V7.83481H18.7455Z" fill="#DCBDFF"/>
<path d="M23.4667 12.0181C23.19 12.0083 22.9871 11.9987 22.8672 11.9987H22.5444V7.82515H23.1254C23.2638 7.82515 23.4298 7.81542 23.6142 7.80572C23.7986 7.79601 23.9278 7.78629 24.0108 7.78629C24.2782 7.78629 24.4995 7.8057 24.6748 7.85423C24.8592 7.90276 24.9975 7.97073 25.099 8.05808C25.2004 8.14543 25.2742 8.25221 25.3203 8.36868C25.3664 8.48515 25.3849 8.63074 25.3849 8.79574C25.3849 9.04809 25.3295 9.26161 25.2189 9.44602C25.1082 9.63043 24.9514 9.73717 24.7393 9.7857C25.2742 9.83423 25.5417 10.1643 25.5417 10.7757C25.5417 10.9601 25.514 11.1251 25.4679 11.2707C25.4125 11.4163 25.3388 11.5522 25.2281 11.6687C25.1174 11.7851 24.9791 11.8725 24.7947 11.9404C24.6102 12.0084 24.3981 12.0375 24.1491 12.0375C23.9739 12.0375 23.7433 12.0278 23.4667 12.0181ZM24.2229 8.60161C24.1491 8.54337 24.0384 8.51423 23.9001 8.51423H23.6511V9.54306H23.9278C24.0569 9.54306 24.1583 9.49454 24.2321 9.37807C24.3059 9.27131 24.3335 9.13539 24.3335 8.9801V8.89277C24.3335 8.75689 24.2966 8.65984 24.2229 8.60161ZM24.269 11.1639C24.3428 11.0669 24.3796 10.9601 24.3796 10.8242V10.5719C24.3796 10.4166 24.3335 10.3099 24.2413 10.2419C24.1491 10.174 24.0384 10.1448 23.9185 10.1448H23.6511V11.2998H23.9185C24.0845 11.2998 24.1952 11.261 24.269 11.1639Z" fill="#DCBDFF"/>
<path d="M25.8555 11.9987V7.8251H28.1979L28.1334 8.66952L26.9714 8.63066V9.43627H27.8844V10.271L26.9714 10.203V11.1445L28.2533 11.1057V11.9987H25.8555Z" fill="#DCBDFF"/>
<path d="M29.1937 8.77632H28.4006V7.83481H31.1304V8.77632H30.3373V12.0084H29.1937V8.77632Z" fill="#DCBDFF"/>
<path d="M31.2502 9.67882V9.55264L31.8036 8.97031H31.9327L32.5137 9.55264V9.67882L31.9327 10.2611H31.8036L31.2502 9.67882ZM31.2502 11.4841V11.3579L31.8036 10.7756H31.9327L32.5137 11.3579V11.4841L31.9327 12.0665H31.8036L31.2502 11.4841Z" fill="#DCBDFF"/>
<defs>
<linearGradient id="paint0_linear_47_852" x1="51.7812" y1="19.4159" x2="51.7812" y2="0.419998" gradientUnits="userSpaceOnUse">
<stop stop-color="#C26E17"/>
<stop offset="0.1871" stop-color="#D28213"/>
<stop offset="0.5576" stop-color="#F9B50A"/>
<stop offset="0.622" stop-color="#F9BA13"/>
<stop offset="0.726" stop-color="#FBC92B"/>
<stop offset="0.8568" stop-color="#FDE051"/>
<stop offset="1" stop-color="#FFFF84"/>
</linearGradient>
<linearGradient id="paint1_linear_47_852" x1="51.7807" y1="17.4755" x2="51.7807" y2="2.36041" gradientUnits="userSpaceOnUse">
<stop stop-color="#5F208C"/>
<stop offset="0.5" stop-color="#3C0073"/>
<stop offset="1" stop-color="#230652"/>
</linearGradient>
<linearGradient id="paint2_linear_47_852" x1="51.7803" y1="19.4161" x2="51.7803" y2="17.9009" gradientUnits="userSpaceOnUse">
<stop stop-color="#C79738"/>
<stop offset="0.2257" stop-color="#D7B571"/>
<stop offset="0.4932" stop-color="#E8D4AD"/>
<stop offset="0.7209" stop-color="#F4EBDA"/>
<stop offset="0.897" stop-color="#FCFAF5"/>
<stop offset="1" stop-color="white"/>
</linearGradient>
</defs>
</svg>
