<svg width="51" height="61" viewBox="0 0 51 61" fill="none" xmlns="http://www.w3.org/2000/svg">
<path fill-rule="evenodd" clip-rule="evenodd" d="M35.669 12.2567L36.8119 13.0789C39.5895 8.89187 41.991 6.69937 45.6655 5.63358C46.2586 4.84185 45.8102 2.93862 44.3635 2.74069C40.8481 4.15667 37.9258 7.26268 35.669 12.2567Z" fill="url(#paint0_radial_27_24819)"/>
<path fill-rule="evenodd" clip-rule="evenodd" d="M44.8549 4.82646C44.1461 5.42025 43.0177 5.90747 42.222 6.44036C40.2545 7.76498 39.8639 8.29784 38.2871 9.92697C37.5637 10.6578 37.231 10.8557 36.3775 10.8252C36.1315 11.282 35.9 11.7692 35.683 12.2564L36.8259 13.0787C39.6035 8.89165 42.005 6.69915 45.6795 5.63336C46.2437 4.88731 45.8821 3.18208 44.6379 2.80144C45.5638 3.2582 45.694 4.12608 44.8549 4.82646Z" fill="url(#paint1_radial_27_24819)"/>
<path opacity="0.5" fill-rule="evenodd" clip-rule="evenodd" d="M42.1207 4.09577C41.1803 4.67434 38.4895 7.21702 38.1568 8.20667C38.1278 8.29803 38.2436 8.48077 38.3159 8.43509C40.5582 6.82119 41.325 6.18171 43.7409 4.90277C45.6216 3.89788 44.9127 2.39051 42.1207 4.09577Z" fill="url(#paint2_radial_27_24819)"/>
<path fill-rule="evenodd" clip-rule="evenodd" d="M39.2853 17.3874C44.2329 14.4489 48.0811 17.8746 50.2656 22.4118C48.6019 21.5744 47.1842 21.5287 45.7375 21.3155C42.468 20.8283 40.949 19.3972 39.2853 17.3874Z" fill="url(#paint3_radial_27_24819)"/>
<path opacity="0.65" fill-rule="evenodd" clip-rule="evenodd" d="M39.2853 17.3874C44.5078 17.0829 47.705 19.1231 50.2656 22.4119C48.0666 17.8899 44.2329 14.4489 39.2853 17.3874Z" fill="url(#paint4_radial_27_24819)"/>
<path fill-rule="evenodd" clip-rule="evenodd" d="M46.36 19.5346C45.0724 17.4335 43.4956 16.5961 39.9223 17.0528C39.7053 17.1594 39.4883 17.2812 39.2713 17.403C39.5606 17.7532 39.85 18.0729 40.1393 18.3927C41.8319 19.7021 43.4522 20.235 46.36 19.5346Z" fill="url(#paint5_radial_27_24819)"/>
<path fill-rule="evenodd" clip-rule="evenodd" d="M33.3544 15.1187C35.0325 12.4694 37.3761 10.2618 39.2568 9.77458C41.7161 9.11988 44.2912 10.6728 48.3997 11.8147C47.1556 14.327 45.3617 16.0323 44.2767 16.2454C41.3834 16.7935 36.2332 15.073 33.3544 15.1187Z" fill="url(#paint6_radial_27_24819)"/>
<path opacity="0.65" fill-rule="evenodd" clip-rule="evenodd" d="M33.3544 15.1188C36.1464 13.1243 38.3309 12.8046 40.472 12.7741C41.8897 12.7589 44.1465 13.2461 44.7397 13.2461C45.463 13.2309 46.9965 12.8655 48.3997 11.8301C44.2912 10.6882 41.7161 9.13517 39.2568 9.78986C37.3906 10.2771 35.0325 12.4848 33.3544 15.1188Z" fill="url(#paint7_radial_27_24819)"/>
<path fill-rule="evenodd" clip-rule="evenodd" d="M38.8083 12.424C36.6672 12.2565 35.2784 12.896 34.1356 13.9922C33.8607 14.3576 33.6003 14.7383 33.3544 15.1341C35.047 14.723 35.481 14.7992 37.2025 15.058C40.6456 15.5909 42.5552 15.8041 44.3491 13.1701C41.8752 13.2005 40.9783 12.5915 38.8083 12.424Z" fill="url(#paint8_radial_27_24819)"/>
<path fill-rule="evenodd" clip-rule="evenodd" d="M27.1189 10.4901C26.41 9.33295 25.8892 8.41938 25.4263 7.68855C24.1532 5.66356 23.3286 4.09535 20.58 4.004C21.8096 5.40475 22.2147 7.35361 22.5763 8.37372C23.1839 10.0333 25.7156 10.7794 27.1189 10.4901Z" fill="url(#paint9_radial_27_24819)"/>
<path fill-rule="evenodd" clip-rule="evenodd" d="M20.58 4.004C22.0411 4.46076 22.6776 5.05454 23.7047 6.83592C24.891 8.89137 25.325 9.82017 27.1189 10.4901C26.41 9.33295 25.8892 8.41938 25.4263 7.68855C24.1388 5.66355 23.3142 4.09535 20.58 4.004Z" fill="url(#paint10_radial_27_24819)"/>
<path fill-rule="evenodd" clip-rule="evenodd" d="M26.8447 10.0335C25.6584 8.37393 25.1376 7.35378 23.474 6.18141C23.3293 8.96768 24.3564 10.475 27.1196 10.4903C27.0183 10.338 26.9315 10.1858 26.8447 10.0335Z" fill="url(#paint11_radial_27_24819)"/>
<path fill-rule="evenodd" clip-rule="evenodd" d="M36.002 15.8194C34.7723 14.4491 33.2822 13.2767 32.2985 11.6932C30.2442 8.40448 29.3328 3.89774 30.1864 0C31.7343 0.563345 35.6258 3.0451 36.5373 5.22235C37.5933 7.68888 36.8844 13.4442 36.002 15.8194Z" fill="url(#paint12_radial_27_24819)"/>
<path fill-rule="evenodd" clip-rule="evenodd" d="M30.186 0C31.6905 1.4312 34.063 4.03476 34.7719 6.09021C35.4374 8.02385 35.9582 12.7742 35.9871 15.6366C35.9871 15.6671 35.9871 15.6976 35.9871 15.7432C36.045 15.6519 36.0884 15.5453 36.1173 15.4539C36.9419 12.8961 37.5351 7.5823 36.5368 5.22234C35.6254 3.04509 31.7484 0.548119 30.186 0Z" fill="url(#paint13_radial_27_24819)"/>
<path fill-rule="evenodd" clip-rule="evenodd" d="M30.7643 4.9024C30.6341 8.32815 32.0229 11.2209 33.9181 13.6875C34.6125 14.4031 35.3358 15.073 36.0012 15.8191C36.1604 13.2612 35.5817 9.85065 34.164 7.7952C33.2815 6.54671 31.8348 5.4962 30.7643 4.9024Z" fill="url(#paint14_radial_27_24819)"/>
<path fill-rule="evenodd" clip-rule="evenodd" d="M32.6453 12.2264C31.9364 8.37431 28.7393 5.51192 25.3251 2.05573C24.7899 4.33956 25.3251 6.89739 25.6289 7.52164C26.8875 10.0339 30.0557 11.9523 32.6453 12.2264Z" fill="url(#paint15_radial_27_24819)"/>
<path opacity="0.75" fill-rule="evenodd" clip-rule="evenodd" d="M25.3249 2.05573C26.2074 6.65384 28.6956 9.47055 32.645 12.2264C32.5872 11.9371 32.5293 11.663 32.4425 11.3737C32.0085 9.89687 31.2273 8.54176 30.2002 7.24759C28.8548 5.52711 27.1188 3.86756 25.3249 2.05573Z" fill="url(#paint16_radial_27_24819)"/>
<path fill-rule="evenodd" clip-rule="evenodd" d="M32.1239 10.4598C31.5742 9.57667 31.1113 8.92201 30.6049 8.31299C30.0407 7.64307 29.4187 7.01878 28.5507 6.18138C28.0733 5.70938 27.5814 5.25263 27.1184 4.76541C26.8146 8.40432 28.3626 10.4445 30.5905 11.7083C31.2849 11.9671 31.9793 12.1498 32.6303 12.2107C32.5724 11.9214 32.5145 11.6474 32.4277 11.3581C32.3554 11.0688 32.2541 10.7643 32.1239 10.4598Z" fill="url(#paint17_radial_27_24819)"/>
<path fill-rule="evenodd" clip-rule="evenodd" d="M10.4102 58.0243C-0.902721 50.7921 -2.32048 23.7212 5.62174 14.053C9.67242 9.10472 14.9383 5.73985 22.9384 7.55169C23.6039 7.68872 24.2838 7.9628 24.8914 8.23686C25.3254 8.43479 25.7305 8.52615 26.1934 8.52615C27.0759 8.52615 28.0017 8.58703 28.9421 8.69361C29.8969 8.81541 30.8661 8.99811 31.8499 9.25694C37.9259 10.8404 41.6149 14.2357 43.9151 18.9251C44.4214 19.9605 45.0001 20.7979 45.7234 21.6809C47.9513 24.4215 49.6439 27.1165 50.0924 30.7859C50.4685 33.968 49.7018 37.1349 48.3419 40.0278C42.7433 52.0103 22.7214 65.8959 10.4102 58.0243Z" fill="url(#paint18_radial_27_24819)"/>
<path fill-rule="evenodd" clip-rule="evenodd" d="M9.84556 10.2618C9.8311 10.5664 9.51282 11.1298 8.84736 11.6779C8.18189 12.226 7.48749 12.698 7.24155 12.2412C6.99562 11.7845 7.32835 10.7339 8.05168 10.1554C8.76055 9.56155 9.84556 9.95734 9.84556 10.2618Z" fill="url(#paint19_linear_27_24819)"/>
<path fill-rule="evenodd" clip-rule="evenodd" d="M1.3827 26.0814C1.58523 26.3098 1.67202 26.995 1.59969 27.8324C1.51289 28.6546 1.2959 29.5681 0.818498 29.4158C0.341096 29.2636 -0.107376 28.2739 0.0228243 27.3147C0.153025 26.3555 1.19463 25.853 1.3827 26.0814Z" fill="url(#paint20_linear_27_24819)"/>
<path fill-rule="evenodd" clip-rule="evenodd" d="M1.52708 40.9258C1.83088 41.0781 2.32275 41.7937 2.53975 42.7224C2.75675 43.6664 2.68441 44.6409 2.23594 44.717C1.773 44.7931 0.789263 43.8948 0.557795 42.829C0.311861 41.7785 1.22328 40.7736 1.52708 40.9258Z" fill="url(#paint21_linear_27_24819)"/>
<path fill-rule="evenodd" clip-rule="evenodd" d="M15.8926 27.0863C16.616 27.3756 16.7751 28.3957 16.2977 29.3549C15.8203 30.3141 15.097 30.9993 14.5762 30.7861C14.0698 30.5882 13.9686 29.5833 14.1711 28.5175C14.3736 27.4517 15.1693 26.797 15.8926 27.0863Z" fill="url(#paint22_linear_27_24819)"/>
<path fill-rule="evenodd" clip-rule="evenodd" d="M17.4126 18.0574C18.0202 18.5599 17.89 19.58 17.1522 20.3565C16.4289 21.1178 15.5319 21.5441 15.0979 21.1787C14.6639 20.8285 14.852 19.8389 15.3584 18.8796C15.8647 17.9357 16.805 17.5702 17.4126 18.0574Z" fill="url(#paint23_linear_27_24819)"/>
<path fill-rule="evenodd" clip-rule="evenodd" d="M7.58845 46.6965C8.39858 46.5443 9.06407 47.3816 9.12194 48.5235C9.1798 49.6654 8.86153 50.7008 8.29733 50.8073C7.73312 50.9139 7.12553 50.0614 6.76386 48.9804C6.40219 47.8841 6.79278 46.8488 7.58845 46.6965Z" fill="url(#paint24_linear_27_24819)"/>
<path fill-rule="evenodd" clip-rule="evenodd" d="M9.05008 22.4427C9.65769 22.8385 9.62875 23.7978 9.02114 24.5743C8.42801 25.3508 7.64681 25.8228 7.21281 25.5335C6.77881 25.2595 6.86561 24.3307 7.24175 23.4019C7.61788 22.4731 8.45695 22.0468 9.05008 22.4427Z" fill="url(#paint25_linear_27_24819)"/>
<path fill-rule="evenodd" clip-rule="evenodd" d="M33.6868 16.7481C34.5114 17.2353 34.5982 18.3925 33.9328 19.3212C33.2673 20.25 32.3414 20.7981 31.7628 20.4479C31.1841 20.0977 31.1696 18.9863 31.5168 17.8748C31.864 16.7786 32.8767 16.2609 33.6868 16.7481Z" fill="url(#paint26_linear_27_24819)"/>
<path fill-rule="evenodd" clip-rule="evenodd" d="M25.5707 12.6829C26.0625 13.368 25.6719 14.3577 24.7461 14.8906C23.8202 15.4387 22.822 15.5757 22.4748 15.0885C22.1276 14.6013 22.5616 13.6725 23.2994 12.8808C24.0372 12.0738 25.0788 11.9977 25.5707 12.6829Z" fill="url(#paint27_linear_27_24819)"/>
<path fill-rule="evenodd" clip-rule="evenodd" d="M16.9199 10.2009C17.2237 10.886 16.5872 11.7539 15.6758 12.0584C14.7789 12.3477 13.8819 12.2868 13.6649 11.7995C13.4479 11.3123 13.8675 10.5358 14.721 10.0029C15.589 9.45482 16.6161 9.51573 16.9199 10.2009Z" fill="url(#paint28_linear_27_24819)"/>
<path fill-rule="evenodd" clip-rule="evenodd" d="M25.7733 23.4318C26.4098 23.8886 26.3809 24.9086 25.7154 25.7917C25.0355 26.6748 24.1241 27.0402 23.6756 26.7205C23.2271 26.4007 23.0825 25.4872 23.5888 24.4366C24.1096 23.3708 25.1368 22.975 25.7733 23.4318Z" fill="url(#paint29_linear_27_24819)"/>
<path fill-rule="evenodd" clip-rule="evenodd" d="M10.916 37.3634C11.6683 37.5766 11.8708 38.7337 11.4802 39.7386C11.0896 40.7435 10.4676 41.3372 9.94677 41.1849C9.42597 41.0327 9.18003 40.0583 9.28129 38.9773C9.38256 37.8963 10.1638 37.1502 10.916 37.3634Z" fill="url(#paint30_linear_27_24819)"/>
<path fill-rule="evenodd" clip-rule="evenodd" d="M4.73937 32.217C5.01424 32.4758 5.37591 33.2827 5.30357 34.3638C5.24571 35.4295 4.84065 36.4953 4.18965 36.3431C3.55312 36.1908 2.91658 35.186 2.98891 33.8309C3.06124 32.4758 4.4645 31.9429 4.73937 32.217Z" fill="url(#paint31_linear_27_24819)"/>
<path fill-rule="evenodd" clip-rule="evenodd" d="M4.85455 16.0779C4.97028 16.3824 4.98474 17.1742 4.57967 18.0421C4.17461 18.9099 3.52362 19.6407 3.07515 19.3057C2.64115 18.9555 2.52541 17.7527 3.00281 16.824C3.48021 15.88 4.73881 15.7582 4.85455 16.0779Z" fill="url(#paint32_linear_27_24819)"/>
<path fill-rule="evenodd" clip-rule="evenodd" d="M45.1883 33.5269C44.8989 33.6639 44.3781 34.2272 44.1177 35.1408C43.8573 36.0543 43.8573 37.0592 44.3926 37.1201C44.9279 37.181 45.7959 36.3892 46.0563 35.3843C46.3167 34.3794 45.4776 33.3898 45.1883 33.5269Z" fill="url(#paint33_linear_27_24819)"/>
<path fill-rule="evenodd" clip-rule="evenodd" d="M40.0087 45.1287C39.7339 45.1591 39.1118 45.4636 38.5187 46.1335C37.94 46.8034 37.5783 47.6714 37.8821 47.8388C38.2004 48.0063 39.0684 48.1129 39.9943 47.0623C40.9201 46.0118 40.2836 45.0982 40.0087 45.1287Z" fill="url(#paint34_linear_27_24819)"/>
<path fill-rule="evenodd" clip-rule="evenodd" d="M49.2239 29.2326C49.0503 29.4762 48.978 30.131 49.1805 30.9836C49.3975 31.8514 49.658 32.6736 50.1209 32.4757C50.5838 32.2777 50.931 31.2272 50.714 30.2984C50.497 29.3697 49.3975 28.9738 49.2239 29.2326Z" fill="url(#paint35_linear_27_24819)"/>
<path fill-rule="evenodd" clip-rule="evenodd" d="M37.4914 52.3907C37.202 52.3298 36.5944 52.5886 35.9434 53.0758C35.3069 53.563 34.6704 54.2178 35.032 54.5832C35.3937 54.9486 36.4353 54.8572 37.1586 54.2634C37.882 53.6696 37.7662 52.4516 37.4914 52.3907Z" fill="url(#paint36_linear_27_24819)"/>
<path fill-rule="evenodd" clip-rule="evenodd" d="M23.8208 59.3335C23.6327 59.166 23.0396 58.9985 22.3596 59.0898C21.6797 59.1964 21.0576 59.5162 21.13 59.8663C21.2023 60.2165 22.0703 60.6886 22.837 60.5668C23.6038 60.4602 24.0088 59.5162 23.8208 59.3335Z" fill="url(#paint37_linear_27_24819)"/>
<path fill-rule="evenodd" clip-rule="evenodd" d="M46.9098 41.992C46.6494 42.0225 46.1141 42.3422 45.7091 42.9969C45.2895 43.6516 45.0725 44.4433 45.4776 44.626C45.8827 44.8087 46.7362 44.3976 47.1702 43.6668C47.5897 42.936 47.1558 41.9464 46.9098 41.992Z" fill="url(#paint38_linear_27_24819)"/>
<path fill-rule="evenodd" clip-rule="evenodd" d="M23.2134 8.02368C23.0109 8.19116 22.4177 8.23683 21.7233 8.11503C21.0289 7.99322 20.2766 7.71918 20.4358 7.27764C20.5949 6.8361 21.4629 6.47064 22.2586 6.65334C23.0398 6.83605 23.4159 7.8562 23.2134 8.02368Z" fill="url(#paint39_linear_27_24819)"/>
<path fill-rule="evenodd" clip-rule="evenodd" d="M33.2242 10.2012C33.311 10.4601 33.7306 10.8407 34.4395 11.1147C35.1483 11.3888 35.8572 11.602 35.9584 11.1452C36.0452 10.6884 35.4955 9.88146 34.7432 9.59217C33.9765 9.28766 33.1374 9.9424 33.2242 10.2012Z" fill="url(#paint40_linear_27_24819)"/>
<path fill-rule="evenodd" clip-rule="evenodd" d="M45.9546 22.2291C45.8967 22.4574 46.0559 23.0055 46.3741 23.4318C46.6924 23.8582 47.1987 24.2997 47.4447 24.0257C47.6761 23.7516 47.6182 22.975 47.2132 22.4574C46.8081 21.9245 46.0125 22.0007 45.9546 22.2291Z" fill="url(#paint41_linear_27_24819)"/>
<path fill-rule="evenodd" clip-rule="evenodd" d="M42.164 16.1845C42.0772 16.4281 42.164 16.9915 42.5401 17.6614C42.9163 18.3314 43.3213 18.9556 43.6541 18.6663C43.9868 18.377 44.0447 17.4178 43.6541 16.7022C43.249 15.9866 42.2508 15.9409 42.164 16.1845Z" fill="url(#paint42_linear_27_24819)"/>
<path fill-rule="evenodd" clip-rule="evenodd" d="M33.1521 40.0431C32.5589 39.5254 31.6331 39.8908 31.0834 40.8044C30.5336 41.7179 30.3311 42.7228 30.7506 43.0882C31.1702 43.4536 32.0382 43.0425 32.8194 42.3269C33.6006 41.6113 33.7452 40.5607 33.1521 40.0431Z" fill="url(#paint43_linear_27_24819)"/>
<path fill-rule="evenodd" clip-rule="evenodd" d="M36.4355 27.5127C35.6543 27.1778 34.8152 27.8781 34.5259 29.0201C34.2366 30.162 34.3523 31.2734 34.902 31.5018C35.4518 31.7302 36.233 31.0146 36.8116 29.9945C37.3903 28.9744 37.2167 27.8477 36.4355 27.5127Z" fill="url(#paint44_linear_27_24819)"/>
<path fill-rule="evenodd" clip-rule="evenodd" d="M18.0633 52.9546C17.6872 52.1934 16.6311 52.1476 15.7487 52.8176C14.8517 53.4723 14.2731 54.3706 14.5479 54.9035C14.8228 55.4364 15.8355 55.4212 16.8626 55.0405C17.9042 54.6751 18.4539 53.7159 18.0633 52.9546Z" fill="url(#paint45_linear_27_24819)"/>
<path fill-rule="evenodd" clip-rule="evenodd" d="M39.531 37.0437C38.9668 36.5869 38.1277 36.9676 37.6503 37.8354C37.1729 38.7033 37.0282 39.632 37.4333 39.9517C37.8384 40.2714 38.6196 39.8604 39.314 39.16C40.0084 38.4597 40.0952 37.4852 39.531 37.0437Z" fill="url(#paint46_linear_27_24819)"/>
<path fill-rule="evenodd" clip-rule="evenodd" d="M39.9367 19.8996C39.3581 20.0519 39.1411 20.798 39.4159 21.5592C39.7053 22.3205 40.1971 22.8991 40.6167 22.7925C41.0218 22.6859 41.1954 21.9551 41.1375 21.1329C41.0652 20.3259 40.5154 19.7626 39.9367 19.8996Z" fill="url(#paint47_linear_27_24819)"/>
<path fill-rule="evenodd" clip-rule="evenodd" d="M45.0718 26.3863C44.4497 26.4472 44.117 27.315 44.2906 28.1524C44.4642 28.9898 44.8982 29.6598 45.3467 29.6294C45.7807 29.5837 46.1568 28.929 46.1713 28.0307C46.1713 27.1172 45.6939 26.3254 45.0718 26.3863Z" fill="url(#paint48_linear_27_24819)"/>
<path fill-rule="evenodd" clip-rule="evenodd" d="M25.5706 46.1636C25.0209 45.5851 23.9648 45.9657 23.3283 46.8336C22.6918 47.6862 22.5182 48.5541 22.9088 48.9652C23.2994 49.3763 24.2108 49.1022 25.0498 48.4627C25.8889 47.8232 26.1059 46.7422 25.5706 46.1636Z" fill="url(#paint49_linear_27_24819)"/>
<path fill-rule="evenodd" clip-rule="evenodd" d="M23.0826 35.3688C23.777 35.6886 23.8928 36.6782 23.372 37.5765C22.8512 38.4748 22.0989 39.0686 21.607 38.8402C21.1151 38.6118 20.8981 37.7897 21.2019 36.6934C21.5057 35.6124 22.3738 35.0491 23.0826 35.3688Z" fill="url(#paint50_linear_27_24819)"/>
<path fill-rule="evenodd" clip-rule="evenodd" d="M15.7911 45.0068C16.471 45.4179 16.5145 46.3467 15.9937 47.1385C15.4729 47.915 14.6772 48.3565 14.1998 48.0672C13.7224 47.7779 13.65 46.834 13.9972 45.9357C14.3589 45.0526 15.1112 44.5958 15.7911 45.0068Z" fill="url(#paint51_linear_27_24819)"/>
<path fill-rule="evenodd" clip-rule="evenodd" d="M8.42803 55.908C8.67397 55.8623 9.16583 56.0297 9.71557 56.5169C10.2653 57.0042 10.7717 57.5219 10.4534 57.8112C10.1351 58.1005 9.25263 58.0091 8.67396 57.4914C8.08083 56.989 8.19657 55.9689 8.42803 55.908Z" fill="url(#paint52_linear_27_24819)"/>
<path fill-rule="evenodd" clip-rule="evenodd" d="M5.28885 51.9649C5.37565 51.7213 5.23098 51.0971 4.92718 50.5947C4.60891 50.0922 4.07366 49.5593 3.78432 49.8334C3.49499 50.1227 3.50945 50.9753 3.91452 51.5995C4.31958 52.2085 5.20205 52.2085 5.28885 51.9649Z" fill="url(#paint53_linear_27_24819)"/>
<path fill-rule="evenodd" clip-rule="evenodd" d="M30.2 52.8022C29.9107 52.6956 29.2018 52.7718 28.493 53.259C27.7841 53.7614 27.2343 54.5074 27.596 54.9338C27.9721 55.3601 28.9125 55.4209 29.8094 54.7967C30.7063 54.1724 30.4893 52.8935 30.2 52.8022Z" fill="url(#paint54_linear_27_24819)"/>
<defs>
<radialGradient id="paint0_radial_27_24819" cx="0" cy="0" r="1" gradientUnits="userSpaceOnUse" gradientTransform="translate(40.8581 2.48734) scale(13.8565 14.5834)">
<stop stop-color="#76B000"/>
<stop offset="0.7125" stop-color="#314F01"/>
</radialGradient>
<radialGradient id="paint1_radial_27_24819" cx="0" cy="0" r="1" gradientUnits="userSpaceOnUse" gradientTransform="translate(42.577 12.3052) scale(14.2326 14.9792)">
<stop stop-color="#76AA07"/>
<stop offset="0.0953" stop-color="#79AC0C"/>
<stop offset="0.2024" stop-color="#80B019"/>
<stop offset="0.3153" stop-color="#8CB830"/>
<stop offset="0.4321" stop-color="#9EC34F"/>
<stop offset="0.5521" stop-color="#B4D178"/>
<stop offset="0.6747" stop-color="#D0E2A9"/>
<stop offset="0.7972" stop-color="#F0F5E3"/>
<stop offset="0.8513" stop-color="white"/>
</radialGradient>
<radialGradient id="paint2_radial_27_24819" cx="0" cy="0" r="1" gradientUnits="userSpaceOnUse" gradientTransform="translate(41.5094 2.82703) scale(8.86621 9.33134)">
<stop stop-color="#91D600"/>
<stop offset="1"/>
</radialGradient>
<radialGradient id="paint3_radial_27_24819" cx="0" cy="0" r="1" gradientUnits="userSpaceOnUse" gradientTransform="translate(41.5932 21.0586) scale(10.109 10.6393)">
<stop stop-color="#386E02"/>
<stop offset="1" stop-color="#6CB000"/>
</radialGradient>
<radialGradient id="paint4_radial_27_24819" cx="0" cy="0" r="1" gradientUnits="userSpaceOnUse" gradientTransform="translate(50.3171 16.3137) scale(8.90584 9.37297)">
<stop stop-color="#91D600"/>
<stop offset="1"/>
</radialGradient>
<radialGradient id="paint5_radial_27_24819" cx="0" cy="0" r="1" gradientUnits="userSpaceOnUse" gradientTransform="translate(40.5898 19.4027) scale(6.75869 7.11324)">
<stop stop-color="#76AA07"/>
<stop offset="1" stop-color="white"/>
</radialGradient>
<radialGradient id="paint6_radial_27_24819" cx="0" cy="0" r="1" gradientUnits="userSpaceOnUse" gradientTransform="translate(39.3248 16.6025) scale(10.4995 11.0502)">
<stop stop-color="#386E02"/>
<stop offset="1" stop-color="#6CB000"/>
</radialGradient>
<radialGradient id="paint7_radial_27_24819" cx="0" cy="0" r="1" gradientUnits="userSpaceOnUse" gradientTransform="translate(48.5191 6.65417) scale(12.9692 13.6495)">
<stop stop-color="#91D600"/>
<stop offset="1"/>
</radialGradient>
<radialGradient id="paint8_radial_27_24819" cx="0" cy="0" r="1" gradientUnits="userSpaceOnUse" gradientTransform="translate(37.4105 15.8112) scale(7.61903 8.01861)">
<stop stop-color="#76AA07"/>
<stop offset="1" stop-color="white"/>
</radialGradient>
<radialGradient id="paint9_radial_27_24819" cx="0" cy="0" r="1" gradientUnits="userSpaceOnUse" gradientTransform="translate(22.2277 8.77371) scale(4.98203 5.24338)">
<stop stop-color="#386E02"/>
<stop offset="1" stop-color="#6CB000"/>
</radialGradient>
<radialGradient id="paint10_radial_27_24819" cx="0" cy="0" r="1" gradientUnits="userSpaceOnUse" gradientTransform="translate(24.5696 9.24296) scale(8.44449 8.88747)">
<stop/>
<stop offset="1" stop-color="#91D600"/>
</radialGradient>
<radialGradient id="paint11_radial_27_24819" cx="0" cy="0" r="1" gradientUnits="userSpaceOnUse" gradientTransform="translate(24.0343 10.2214) scale(4.80872 5.06099)">
<stop stop-color="#76AA07"/>
<stop offset="1" stop-color="white"/>
</radialGradient>
<radialGradient id="paint12_radial_27_24819" cx="0" cy="0" r="1" gradientUnits="userSpaceOnUse" gradientTransform="translate(36.0606 14.4529) scale(13.0853 13.7717)">
<stop stop-color="#386E02"/>
<stop offset="1" stop-color="#6CB000"/>
</radialGradient>
<radialGradient id="paint13_radial_27_24819" cx="0" cy="0" r="1" gradientUnits="userSpaceOnUse" gradientTransform="translate(32.2612 9.10413) scale(12.0568 12.6893)">
<stop/>
<stop offset="1" stop-color="#91D600"/>
</radialGradient>
<radialGradient id="paint14_radial_27_24819" cx="0" cy="0" r="1" gradientUnits="userSpaceOnUse" gradientTransform="translate(32.3872 12.6735) scale(7.55884 7.95532)">
<stop stop-color="#76AA07"/>
<stop offset="1" stop-color="white"/>
</radialGradient>
<radialGradient id="paint15_radial_27_24819" cx="0" cy="0" r="1" gradientUnits="userSpaceOnUse" gradientTransform="translate(30.0996 10.2052) scale(7.39307 7.78085)">
<stop stop-color="#386E02"/>
<stop offset="1" stop-color="#6CB000"/>
</radialGradient>
<radialGradient id="paint16_radial_27_24819" cx="0" cy="0" r="1" gradientUnits="userSpaceOnUse" gradientTransform="translate(27.8814 11.5367) scale(11.8783 12.5014)">
<stop/>
<stop offset="1" stop-color="#91D600"/>
</radialGradient>
<radialGradient id="paint17_radial_27_24819" cx="0" cy="0" r="1" gradientUnits="userSpaceOnUse" gradientTransform="translate(29.8346 10.4787) scale(6.13927 6.46129)">
<stop stop-color="#76AA07"/>
<stop offset="1" stop-color="white"/>
</radialGradient>
<radialGradient id="paint18_radial_27_24819" cx="0" cy="0" r="1" gradientUnits="userSpaceOnUse" gradientTransform="translate(15.7395 17.1527) scale(41.3674 43.5372)">
<stop stop-color="#FF3129"/>
<stop offset="0.6729" stop-color="#AB0012"/>
<stop offset="1" stop-color="#5C000A"/>
</radialGradient>
<linearGradient id="paint19_linear_27_24819" x1="8.92606" y1="11.643" x2="7.70078" y2="10.479" gradientUnits="userSpaceOnUse">
<stop stop-color="#BA4A25"/>
<stop offset="1" stop-color="#DB7F00"/>
</linearGradient>
<linearGradient id="paint20_linear_27_24819" x1="1.84519" y1="28.5836" x2="0.0452968" y2="26.8734" gradientUnits="userSpaceOnUse">
<stop stop-color="#BA4A25"/>
<stop offset="1" stop-color="#DB7F00"/>
</linearGradient>
<linearGradient id="paint21_linear_27_24819" x1="2.89925" y1="44.1084" x2="0.45099" y2="41.7822" gradientUnits="userSpaceOnUse">
<stop stop-color="#BA4A25"/>
<stop offset="1" stop-color="#DB7F00"/>
</linearGradient>
<linearGradient id="paint22_linear_27_24819" x1="16.117" y1="29.8261" x2="14.1742" y2="27.9801" gradientUnits="userSpaceOnUse">
<stop stop-color="#E36339"/>
<stop offset="1" stop-color="#FFAD3B"/>
</linearGradient>
<linearGradient id="paint23_linear_27_24819" x1="17.0615" y1="20.4579" x2="15.3212" y2="18.8045" gradientUnits="userSpaceOnUse">
<stop stop-color="#E36339"/>
<stop offset="1" stop-color="#FFAD3B"/>
</linearGradient>
<linearGradient id="paint24_linear_27_24819" x1="9.24013" y1="49.9872" x2="6.59105" y2="47.4702" gradientUnits="userSpaceOnUse">
<stop stop-color="#9C3E1F"/>
<stop offset="1" stop-color="#D47B00"/>
</linearGradient>
<linearGradient id="paint25_linear_27_24819" x1="8.87981" y1="24.7561" x2="7.23438" y2="23.1927" gradientUnits="userSpaceOnUse">
<stop stop-color="#E36339"/>
<stop offset="1" stop-color="#FFAD3B"/>
</linearGradient>
<linearGradient id="paint26_linear_27_24819" x1="33.7145" y1="19.6232" x2="31.5259" y2="17.5437" gradientUnits="userSpaceOnUse">
<stop stop-color="#BA4A25"/>
<stop offset="1" stop-color="#DB7F00"/>
</linearGradient>
<linearGradient id="paint27_linear_27_24819" x1="24.9305" y1="14.8352" x2="23.0985" y2="13.0946" gradientUnits="userSpaceOnUse">
<stop stop-color="#E36339"/>
<stop offset="1" stop-color="#FFAD3B"/>
</linearGradient>
<linearGradient id="paint28_linear_27_24819" x1="16.1824" y1="11.9094" x2="14.3884" y2="10.2048" gradientUnits="userSpaceOnUse">
<stop stop-color="#E36339"/>
<stop offset="1" stop-color="#FFAD3B"/>
</linearGradient>
<linearGradient id="paint29_linear_27_24819" x1="25.577" y1="25.9621" x2="23.681" y2="24.1607" gradientUnits="userSpaceOnUse">
<stop stop-color="#E36339"/>
<stop offset="1" stop-color="#FFAD3B"/>
</linearGradient>
<linearGradient id="paint30_linear_27_24819" x1="11.3782" y1="40.2492" x2="9.29875" y2="38.2733" gradientUnits="userSpaceOnUse">
<stop stop-color="#E36339"/>
<stop offset="1" stop-color="#FFAD3B"/>
</linearGradient>
<linearGradient id="paint31_linear_27_24819" x1="5.42972" y1="35.402" x2="3.04231" y2="33.1335" gradientUnits="userSpaceOnUse">
<stop stop-color="#BA4A25"/>
<stop offset="1" stop-color="#DB7F00"/>
</linearGradient>
<linearGradient id="paint32_linear_27_24819" x1="4.58821" y1="18.3369" x2="2.94646" y2="16.777" gradientUnits="userSpaceOnUse">
<stop stop-color="#BA4A25"/>
<stop offset="1" stop-color="#DB7F00"/>
</linearGradient>
<linearGradient id="paint33_linear_27_24819" x1="45.7235" y1="36.2486" x2="44.0414" y2="34.6502" gradientUnits="userSpaceOnUse">
<stop stop-color="#B83E16"/>
<stop offset="1" stop-color="#DB6E00"/>
</linearGradient>
<linearGradient id="paint34_linear_27_24819" x1="39.7748" y1="47.2998" x2="38.5319" y2="46.1189" gradientUnits="userSpaceOnUse">
<stop stop-color="#A1330E"/>
<stop offset="1" stop-color="#C76400"/>
</linearGradient>
<linearGradient id="paint35_linear_27_24819" x1="50.8105" y1="31.8159" x2="48.6845" y2="29.7957" gradientUnits="userSpaceOnUse">
<stop stop-color="#802110"/>
<stop offset="1" stop-color="#A84A00"/>
</linearGradient>
<linearGradient id="paint36_linear_27_24819" x1="37.0935" y1="54.345" x2="35.8024" y2="53.1183" gradientUnits="userSpaceOnUse">
<stop stop-color="#802110"/>
<stop offset="1" stop-color="#A84A00"/>
</linearGradient>
<linearGradient id="paint37_linear_27_24819" x1="23.2612" y1="60.4647" x2="21.7489" y2="59.0279" gradientUnits="userSpaceOnUse">
<stop stop-color="#802110"/>
<stop offset="1" stop-color="#A84A00"/>
</linearGradient>
<linearGradient id="paint38_linear_27_24819" x1="46.8943" y1="44.0275" x2="45.71" y2="42.9022" gradientUnits="userSpaceOnUse">
<stop stop-color="#802110"/>
<stop offset="1" stop-color="#A84A00"/>
</linearGradient>
<linearGradient id="paint39_linear_27_24819" x1="22.7788" y1="8.48121" x2="20.9092" y2="6.7047" gradientUnits="userSpaceOnUse">
<stop stop-color="#E36339"/>
<stop offset="1" stop-color="#FFAD3B"/>
</linearGradient>
<linearGradient id="paint40_linear_27_24819" x1="35.6413" y1="11.5418" x2="33.6269" y2="9.62777" gradientUnits="userSpaceOnUse">
<stop stop-color="#BA4A25"/>
<stop offset="1" stop-color="#DB7F00"/>
</linearGradient>
<linearGradient id="paint41_linear_27_24819" x1="47.6287" y1="23.8355" x2="45.9375" y2="22.2286" gradientUnits="userSpaceOnUse">
<stop stop-color="#B83E16"/>
<stop offset="1" stop-color="#DB6E00"/>
</linearGradient>
<linearGradient id="paint42_linear_27_24819" x1="44.0235" y1="18.2687" x2="41.9936" y2="16.3401" gradientUnits="userSpaceOnUse">
<stop stop-color="#BA4A25"/>
<stop offset="1" stop-color="#DB7F00"/>
</linearGradient>
<linearGradient id="paint43_linear_27_24819" x1="32.7498" y1="42.4064" x2="31.023" y2="40.7659" gradientUnits="userSpaceOnUse">
<stop stop-color="#BA4A25"/>
<stop offset="1" stop-color="#DB7F00"/>
</linearGradient>
<linearGradient id="paint44_linear_27_24819" x1="36.5873" y1="30.4494" x2="34.5239" y2="28.489" gradientUnits="userSpaceOnUse">
<stop stop-color="#BA4A25"/>
<stop offset="1" stop-color="#DB7F00"/>
</linearGradient>
<linearGradient id="paint45_linear_27_24819" x1="17.3007" y1="54.9493" x2="15.3621" y2="53.1072" gradientUnits="userSpaceOnUse">
<stop stop-color="#9C3E1F"/>
<stop offset="1" stop-color="#D47B00"/>
</linearGradient>
<linearGradient id="paint46_linear_27_24819" x1="39.222" y1="39.2597" x2="37.6219" y2="37.7395" gradientUnits="userSpaceOnUse">
<stop stop-color="#B83E16"/>
<stop offset="1" stop-color="#DB6E00"/>
</linearGradient>
<linearGradient id="paint47_linear_27_24819" x1="41.2253" y1="22.2537" x2="39.2887" y2="20.4137" gradientUnits="userSpaceOnUse">
<stop stop-color="#BA4A25"/>
<stop offset="1" stop-color="#DB7F00"/>
</linearGradient>
<linearGradient id="paint48_linear_27_24819" x1="46.1713" y1="28.9552" x2="44.1859" y2="27.0688" gradientUnits="userSpaceOnUse">
<stop stop-color="#B83E16"/>
<stop offset="1" stop-color="#DB6E00"/>
</linearGradient>
<linearGradient id="paint49_linear_27_24819" x1="25.0918" y1="48.4617" x2="23.3382" y2="46.7955" gradientUnits="userSpaceOnUse">
<stop stop-color="#BA4A25"/>
<stop offset="1" stop-color="#DB7F00"/>
</linearGradient>
<linearGradient id="paint50_linear_27_24819" x1="23.1675" y1="37.9637" x2="21.3018" y2="36.1909" gradientUnits="userSpaceOnUse">
<stop stop-color="#BA4A25"/>
<stop offset="1" stop-color="#DB7F00"/>
</linearGradient>
<linearGradient id="paint51_linear_27_24819" x1="15.8202" y1="47.382" x2="14.0259" y2="45.6772" gradientUnits="userSpaceOnUse">
<stop stop-color="#E36339"/>
<stop offset="1" stop-color="#FFAD3B"/>
</linearGradient>
<linearGradient id="paint52_linear_27_24819" x1="10.2179" y1="58.0729" x2="8.18791" y2="56.1441" gradientUnits="userSpaceOnUse">
<stop stop-color="#A13410"/>
<stop offset="1" stop-color="#DB6600"/>
</linearGradient>
<linearGradient id="paint53_linear_27_24819" x1="5.29087" y1="51.9774" x2="3.42639" y2="50.2058" gradientUnits="userSpaceOnUse">
<stop stop-color="#A13410"/>
<stop offset="1" stop-color="#DB6600"/>
</linearGradient>
<linearGradient id="paint54_linear_27_24819" x1="29.8223" y1="54.8275" x2="28.2826" y2="53.3645" gradientUnits="userSpaceOnUse">
<stop stop-color="#A1330E"/>
<stop offset="1" stop-color="#C76400"/>
</linearGradient>
</defs>
</svg>
