<svg width="60" height="63" viewBox="0 0 60 63" fill="none" xmlns="http://www.w3.org/2000/svg">
<path fill-rule="evenodd" clip-rule="evenodd" d="M16.0488 4.05691C0.460979 14.0212 -4.54337 34.4835 6.90237 50.3552C23.7582 73.7178 60.2595 60.1237 59.4311 32.5618C59.2113 25.2843 56.7936 17.8289 52.567 12.1172C43.9616 0.498179 28.5935 -3.9501 16.0488 4.05691Z" fill="url(#paint0_radial_27_25266)"/>
<path fill-rule="evenodd" clip-rule="evenodd" d="M29.709 19.5725C29.5569 18.8251 29.7766 15.7291 30.4529 13.3092C31.0954 11.0316 32.245 8.82532 34.8486 9.83954C37.0972 10.7114 37.672 10.8538 39.0245 9.83954C40.3771 8.84311 41.8479 7.98902 43.3526 7.93564C46.531 7.82888 48.4753 10.569 48.7627 13.4337C48.8811 14.6437 48.5429 16.0316 48.8472 17.4372C49.1008 18.6294 52.0933 21.3517 52.9386 24.3054C53.412 25.9424 53.3951 27.6684 52.1778 28.7894C51.3156 29.5723 49.9462 30.0171 49.3545 30.7823C48.5599 31.8321 48.9149 33.7359 48.3739 34.8747C46.8015 38.1487 40.9519 35.9423 39.2274 34.7858C35.2206 29.8926 30.2838 22.3126 29.709 19.5725Z" fill="url(#paint1_radial_27_25266)"/>
<path fill-rule="evenodd" clip-rule="evenodd" d="M29.7943 21.3518C29.9633 20.8003 30.2677 20.2665 30.4367 19.7149C30.9608 18.0423 30.9777 15.6046 32.9727 14.6437C34.1731 14.0565 35.5256 14.1277 36.8105 14.0032C37.808 13.9142 39.0928 13.6118 40.0734 13.8253C43.1335 14.5192 44.0972 16.7078 45.3821 19.1811C46.312 20.9426 46.9206 21.8678 48.104 23.5404C49.6425 25.729 48.6958 30.2129 46.6839 32.3481C45.2637 33.8428 44.4015 33.309 42.6094 33.398C41.8824 33.4336 41.1893 33.6293 40.4623 33.7361C39.5324 33.8784 38.7716 33.8784 38.1292 33.7894C35.5932 33.4335 33.9702 31.3873 32.7867 29.181C32.0259 27.7397 30.9608 27.0279 30.3353 25.4621C29.8112 24.1098 29.5069 22.3483 29.7943 21.3518Z" fill="url(#paint2_radial_27_25266)"/>
<path opacity="0.3" fill-rule="evenodd" clip-rule="evenodd" d="M36.9797 19.5373C36.8445 19.0035 36.6416 18.4698 36.4556 17.936C36.2528 17.331 35.3736 15.3737 34.4437 16.5125C33.9535 17.0997 34.4437 18.025 34.8157 18.8435C35.6272 20.5694 33.8351 21.032 32.6517 21.2633C31.4513 21.4946 31.0117 22.1886 31.0624 22.9359C31.2146 25.3558 33.8351 25.1067 34.7818 26.0141C35.0016 26.2276 35.2214 26.4945 35.2721 26.797C35.5257 28.2383 34.2578 29.377 35.4412 30.8717C35.9484 31.5122 36.6078 31.9749 37.3686 32.0994C39.5665 32.4909 39.1268 29.5906 40.1243 29.2169C40.6991 29.0034 42.2376 30.8362 42.8125 31.281C45.1625 33.0603 47.2927 29.5372 46.0078 28.1493C44.8244 26.8682 42.3222 25.943 42.7449 24.822C43.2014 23.6298 45.1625 24.2703 45.6528 22.9892C45.9909 22.1174 45.4499 21.2455 44.8751 20.8363C44.0635 20.2669 42.9985 20.3558 42.1024 20.3024C41.7474 20.2846 41.3754 20.3202 41.0373 20.2135C40.6992 20.1067 40.3779 19.8932 40.0905 19.6441C39.7693 19.3594 39.5157 18.9857 39.279 18.6298C38.9916 18.2206 38.8225 17.7046 38.5013 17.3131C37.8758 16.6192 36.9459 17.0463 37.0135 17.669C37.0981 18.4163 37.3855 19.1281 37.6729 19.8043C38.4168 21.5658 39.5326 22.3131 41.2233 22.4198C41.8996 22.4554 42.17 22.9359 41.8319 23.274C41.3416 23.79 40.3948 24.3949 41.0711 25.6582C41.443 26.3522 41.9841 26.7436 42.4067 27.1173C43.252 27.8824 42.7449 28.7187 41.7474 27.7756C41.0035 27.0817 39.8369 26.2633 38.8056 26.8327C38.1124 27.2241 38.1463 28.3273 38.0449 28.8433C37.7236 30.4803 36.2189 29.7863 36.8783 28.3629C37.9772 26.0319 36.4218 24.7864 34.8326 23.6121C34.4099 23.2918 34.579 22.6512 35.1369 22.58C36.4725 22.4377 37.5038 21.548 36.9797 19.5373Z" fill="url(#paint3_radial_27_25266)"/>
<path fill-rule="evenodd" clip-rule="evenodd" d="M38.5851 22.9709C38.2808 22.8464 37.9089 22.793 37.6215 22.9176C36.9621 23.1845 36.8776 24.0741 37.0974 24.6791C37.3172 25.3019 38.0779 25.9425 38.7204 25.9069C39.0247 25.8891 39.3121 25.6578 39.515 25.4087C40.1236 24.5724 39.4473 23.3446 38.5851 22.9709Z" fill="#644746"/>
<defs>
<radialGradient id="paint0_radial_27_25266" cx="0" cy="0" r="1" gradientUnits="userSpaceOnUse" gradientTransform="translate(20.1808 12.157) scale(51.4889 54.1896)">
<stop stop-color="#706BE8"/>
<stop offset="0.6059" stop-color="#4434BF"/>
<stop offset="1" stop-color="#3B1880"/>
</radialGradient>
<radialGradient id="paint1_radial_27_25266" cx="0" cy="0" r="1" gradientUnits="userSpaceOnUse" gradientTransform="translate(53.9037 34.1623) scale(33.2004 34.9418)">
<stop stop-color="#706BE8"/>
<stop offset="1" stop-color="#2F188D"/>
</radialGradient>
<radialGradient id="paint2_radial_27_25266" cx="0" cy="0" r="1" gradientUnits="userSpaceOnUse" gradientTransform="translate(41.0976 33.8586) scale(20.3845 21.4538)">
<stop stop-color="#4F43BA"/>
<stop offset="1" stop-color="#311E80"/>
</radialGradient>
<radialGradient id="paint3_radial_27_25266" cx="0" cy="0" r="1" gradientUnits="userSpaceOnUse" gradientTransform="translate(49.4534 28.4835) rotate(39.0824) scale(2.09521 2.11992)">
<stop stop-color="#7490DE"/>
<stop offset="1"/>
</radialGradient>
</defs>
</svg>
