<svg width="16" height="20" viewBox="0 0 16 20" fill="none" xmlns="http://www.w3.org/2000/svg">
<path d="M15.6875 12.8821H0.00212578V15.1763C-0.000545834 15.1987 -0.000545834 15.2214 0.00212578 15.2438C0.00212578 17.839 3.50779 19.9723 7.84479 19.9723C12.1818 19.9723 15.6875 17.8546 15.6875 15.2438C15.6875 15.2178 15.6875 15.1971 15.6875 15.1763V12.8821Z" fill="url(#paint0_linear_101_5)"/>
<g style="mix-blend-mode:multiply">
<path style="mix-blend-mode:multiply" d="M0.00218091 14.8752V14.9373C-0.000482829 14.9167 -0.000482829 14.8958 0.00218091 14.8752H0.00218091Z" fill="url(#paint1_linear_101_5)"/>
<path opacity="0.5" d="M7.84467 19.4688C3.50767 19.4688 0.00200371 17.3511 0.00200371 14.7351V15.1763C-0.000667904 15.1987 -0.000667904 15.2213 0.00200371 15.2437C0.00200371 17.839 3.50767 19.9723 7.84467 19.9723C12.1817 19.9723 15.6873 17.8546 15.6873 15.2437C15.6873 15.2178 15.6873 15.197 15.6873 15.1763V14.7351C15.6873 17.3511 12.1767 19.4688 7.84467 19.4688Z" fill="url(#paint2_linear_101_5)"/>
</g>
<g style="mix-blend-mode:multiply">
<g style="mix-blend-mode:multiply">
<path d="M10.2488 19.7236L10.4641 19.6769V13.6871H10.2488V19.7236Z" fill="#FDD65B"/>
</g>
<g style="mix-blend-mode:multiply">
<path d="M11.2303 19.5056L11.4507 19.4434V13.6871H11.2303V19.5056Z" fill="#FDD65B"/>
</g>
<g style="mix-blend-mode:multiply">
<path d="M12.217 19.1734L12.4373 19.0748V13.6871H12.217V19.1734Z" fill="#FDD65B"/>
</g>
<g style="mix-blend-mode:multiply">
<path d="M9.26233 19.8949H9.48271V13.6871H9.26233V19.8949Z" fill="#FDD65B"/>
</g>
<g style="mix-blend-mode:multiply">
<path d="M14.185 18.0153L14.4053 17.8284V13.6761H14.185V18.0153Z" fill="#FDD65B"/>
</g>
<g style="mix-blend-mode:multiply">
<path d="M15.1718 16.9156C15.2549 16.7865 15.3285 16.6512 15.3921 16.5107V13.6871H15.1718V16.9156Z" fill="#FDD65B"/>
</g>
<g style="mix-blend-mode:multiply">
<path d="M13.2036 18.685L13.424 18.5604V13.6814H13.2036V18.685Z" fill="#FDD65B"/>
</g>
<g style="mix-blend-mode:multiply">
<path d="M8.2757 19.9624H8.51606V13.6871H8.29573L8.2757 19.9624Z" fill="#FDD65B"/>
</g>
<g style="mix-blend-mode:multiply">
<path d="M7.28906 19.9572H7.50941V13.6871H7.28906V19.9572Z" fill="#FDD65B"/>
</g>
<g style="mix-blend-mode:multiply">
<path d="M5.3208 19.7236C5.39593 19.7236 5.46604 19.7599 5.54117 19.7703V13.6871H5.3208V19.7236Z" fill="#FDD65B"/>
</g>
<g style="mix-blend-mode:multiply">
<path d="M6.30743 19.884H6.5278V13.6554H6.30743V19.884Z" fill="#FDD65B"/>
</g>
<g style="mix-blend-mode:multiply">
<path d="M4.33435 19.4693L4.5547 19.5368V13.6871H4.33435V19.4693Z" fill="#FDD65B"/>
</g>
<g style="mix-blend-mode:multiply">
<path d="M0.392883 16.7131C0.462995 16.8377 0.533107 16.9623 0.613235 17.0765V13.6871H0.392883V16.7131Z" fill="#FDD65B"/>
</g>
<g style="mix-blend-mode:multiply">
<path d="M1.37952 17.9174L1.59988 18.099V13.6871H1.37952V17.9174Z" fill="#FDD65B"/>
</g>
<g style="mix-blend-mode:multiply">
<path d="M3.3526 19.1164L3.56794 19.2098V13.6871H3.3526V19.1164Z" fill="#FDD65B"/>
</g>
<g style="mix-blend-mode:multiply">
<path d="M2.36615 18.6232L2.58652 18.7478V13.6871H2.36615V18.6232Z" fill="#FDD65B"/>
</g>
</g>
<path d="M7.84505 17.6521C12.1764 17.6521 15.6877 15.5327 15.6877 12.9184C15.6877 10.304 12.1764 8.18466 7.84505 8.18466C3.51366 8.18466 0.00238037 10.304 0.00238037 12.9184C0.00238037 15.5327 3.51366 17.6521 7.84505 17.6521Z" fill="url(#paint3_linear_101_5)"/>
<path style="mix-blend-mode:screen" d="M7.84481 17.5224C3.60297 17.5224 0.162411 15.4929 0.00215196 12.9755C-0.000554561 13.0309 -0.000554561 13.0863 0.00215196 13.1416C0.00215196 15.7369 3.50781 17.8702 7.84481 17.8702C12.1818 17.8702 15.6875 15.7524 15.6875 13.1416C15.6902 13.0863 15.6902 13.0309 15.6875 12.9755C15.5272 15.4929 12.0817 17.5224 7.84481 17.5224Z" fill="url(#paint4_radial_101_5)"/>
<path d="M13.7043 12.9184C13.7043 14.87 11.0801 16.4531 7.84487 16.4531C4.60964 16.4531 2.00543 14.87 2.00543 12.9184C2.00543 10.9668 4.62967 9.37851 7.86991 9.37851C11.1102 9.37851 13.7043 10.9616 13.7043 12.9184Z" fill="url(#paint5_linear_101_5)"/>
<path style="mix-blend-mode:screen" d="M8.04011 9.55498C11.1702 9.55498 13.7193 11.0395 13.8846 12.9028C13.8846 12.8406 13.8846 12.7783 13.8846 12.7108C13.8846 10.7592 11.2603 9.17607 8.02509 9.17607C4.78986 9.17607 2.17564 10.7592 2.17564 12.7108C2.17046 12.7747 2.17046 12.8389 2.17564 12.9028C2.35593 11.0395 4.91006 9.55498 8.04011 9.55498Z" fill="url(#paint6_radial_101_5)"/>
<path style="mix-blend-mode:multiply" d="M7.84479 9.75742C10.9748 9.75742 13.524 11.2419 13.6892 13.1053C13.6892 13.043 13.6892 12.9807 13.6892 12.9132C13.6892 10.9616 11.065 9.37851 7.82976 9.37851C4.59453 9.37851 2.00535 10.9616 2.00535 12.9132C2.00017 12.9771 2.00017 13.0414 2.00535 13.1053C2.1606 11.2419 4.71473 9.75742 7.84479 9.75742Z" fill="url(#paint7_linear_101_5)"/>
<path style="mix-blend-mode:color-dodge" d="M11.9615 8.35601C13.7243 8.97887 14.9113 10.2142 14.6158 11.1225C14.3203 12.0309 12.6476 12.2541 10.8848 11.6416C9.12191 11.0291 7.93499 9.78339 8.23548 8.88025C8.53596 7.9771 10.1986 7.73315 11.9615 8.35601Z" fill="url(#paint8_radial_101_5)"/>
<g style="mix-blend-mode:multiply">
<path style="mix-blend-mode:multiply" d="M8.29542 11.8024L7.84469 11.9114C7.70947 11.9478 7.56424 11.9893 7.40899 12.0412C7.25374 12.0931 7.1085 12.1554 6.96827 12.2177L7.43904 12.4979L7.59429 12.4408L7.76957 12.3786C8.035 12.2799 8.27038 12.1969 8.52079 12.1346C8.7404 12.0701 8.9649 12.0249 9.19187 11.9997C9.38805 11.9735 9.58665 11.9735 9.78283 11.9997C9.97488 12.0361 10.1595 12.1063 10.3287 12.2073C10.4965 12.2918 10.6335 12.4301 10.7193 12.6018C10.7466 12.6691 10.7607 12.7415 10.7607 12.8146C10.7607 12.8876 10.7466 12.96 10.7193 13.0274C10.6534 13.1922 10.5524 13.3395 10.4239 13.4582C10.2713 13.6097 10.1034 13.7437 9.92305 13.8578L10.5591 14.2368L10.0583 14.5534L9.41223 14.1693C9.07445 14.3422 8.72653 14.493 8.37054 14.6208C8.01752 14.7524 7.65606 14.8582 7.28879 14.9375L6.94824 14.0707C7.12353 14.0343 7.30883 13.9928 7.49913 13.9409L8.02999 13.7852C8.219 13.7211 8.40456 13.6466 8.58589 13.562L8.12515 13.2869C7.95988 13.3492 7.7896 13.4115 7.62434 13.4686C7.39086 13.5517 7.15351 13.6228 6.91319 13.6814C6.71952 13.731 6.52155 13.7606 6.32223 13.7696C6.15448 13.7801 5.98613 13.7678 5.82142 13.7333C5.66992 13.6979 5.52462 13.6383 5.39072 13.5568C5.23294 13.4735 5.10102 13.3458 5.01011 13.1883C4.94268 13.0599 4.92308 12.9103 4.95502 12.7678C4.99804 12.607 5.07502 12.4581 5.18038 12.3318C5.3173 12.1713 5.47388 12.0299 5.64614 11.9114L5.11528 11.5948L5.64113 11.2834L6.17699 11.6C6.33725 11.5221 6.49751 11.4495 6.6778 11.3872C6.8581 11.3249 7.00333 11.2626 7.17861 11.2107L7.64437 11.0654L8.06004 10.9564L8.29542 11.8024ZM6.51254 12.6744C6.57179 12.7091 6.64066 12.7219 6.70785 12.7108C6.80493 12.7009 6.90066 12.68 6.99331 12.6485L6.59768 12.4097C6.45244 12.5291 6.4274 12.6173 6.51254 12.6744ZM9.01659 13.1104C8.95083 13.0793 8.87779 13.0685 8.80625 13.0793C8.70251 13.0939 8.60026 13.1182 8.50075 13.1519L8.88638 13.3803C8.98654 13.3128 9.04163 13.2609 9.05665 13.2142C9.07168 13.1675 9.09171 13.1364 9.04664 13.1104H9.01659Z" fill="url(#paint9_linear_101_5)"/>
</g>
<path d="M8.29549 11.6L7.84476 11.709C7.70954 11.7454 7.56431 11.7869 7.40905 11.8388C7.2538 11.8907 7.10857 11.953 6.96834 12.0153L7.4391 12.2955L7.59435 12.2384L7.76964 12.1762C8.03507 12.0775 8.27045 11.9945 8.52085 11.9322C8.74047 11.8677 8.96496 11.8225 9.19194 11.7973C9.38811 11.7711 9.58672 11.7711 9.78289 11.7973C9.97494 11.8337 10.1596 11.9039 10.3288 12.0049C10.4966 12.0894 10.6336 12.2277 10.7194 12.3994C10.7467 12.4667 10.7607 12.5391 10.7607 12.6122C10.7607 12.6852 10.7467 12.7576 10.7194 12.825C10.6522 12.9891 10.5514 13.1361 10.4239 13.2558C10.2714 13.4073 10.1035 13.5413 9.92312 13.6555L10.5591 14.0344L10.0583 14.351L9.41229 13.9669C9.07451 14.1398 8.7266 14.2906 8.37061 14.4185C8.01759 14.55 7.65613 14.6558 7.28886 14.7351L6.94831 13.8683C7.12359 13.8319 7.30889 13.7904 7.4992 13.7385L8.01503 13.5984C8.20404 13.5343 8.3896 13.4598 8.57093 13.3752L8.11019 13.1001C7.94492 13.1624 7.77464 13.2246 7.60938 13.2817C7.3759 13.3649 7.13855 13.4359 6.89823 13.4945C6.70456 13.5442 6.5066 13.5738 6.30727 13.5828C6.13952 13.5932 5.97118 13.581 5.80646 13.5465C5.65496 13.5111 5.50967 13.4515 5.37577 13.37C5.21798 13.2867 5.08606 13.1589 4.99515 13.0015C4.92773 12.873 4.90813 12.7234 4.94006 12.581C4.98309 12.4202 5.06007 12.2713 5.16543 12.145C5.30235 11.9845 5.45893 11.8431 5.63118 11.7246L5.09031 11.4184L5.61616 11.1069L6.15202 11.4235C6.31228 11.3457 6.47254 11.273 6.65283 11.2107C6.83312 11.1484 6.97836 11.0862 7.15364 11.0343L7.61939 10.8889L8.03507 10.7799L8.29549 11.6ZM6.51261 12.4564C6.57186 12.4911 6.64072 12.5039 6.70792 12.4928C6.81077 12.493 6.91329 12.4808 7.01342 12.4564L6.61778 12.2177C6.45251 12.3267 6.42747 12.4149 6.51261 12.4564ZM9.01665 12.8925C8.95089 12.8613 8.87786 12.8505 8.80631 12.8613C8.70639 12.8903 8.60918 12.9285 8.51584 12.9755L8.90147 13.2039C9.00163 13.1364 9.05672 13.0845 9.07174 13.0378C9.08677 12.9911 9.09177 12.934 9.0467 12.908L9.01665 12.8925Z" fill="url(#paint10_linear_101_5)"/>
<path style="mix-blend-mode:color-dodge" d="M8.29549 11.6L7.84476 11.709C7.70954 11.7454 7.56431 11.7869 7.40905 11.8388C7.2538 11.8907 7.10857 11.953 6.96834 12.0153L7.4391 12.2955L7.59435 12.2384L7.76964 12.1762C8.03507 12.0775 8.27045 11.9945 8.52085 11.9322C8.74047 11.8677 8.96496 11.8225 9.19194 11.7973C9.38811 11.7711 9.58672 11.7711 9.78289 11.7973C9.97494 11.8337 10.1596 11.9039 10.3288 12.0049C10.4966 12.0894 10.6336 12.2277 10.7194 12.3994C10.7467 12.4667 10.7607 12.5391 10.7607 12.6122C10.7607 12.6852 10.7467 12.7576 10.7194 12.825C10.6522 12.9891 10.5514 13.1361 10.4239 13.2558C10.2714 13.4073 10.1035 13.5413 9.92312 13.6555L10.5591 14.0344L10.0583 14.351L9.41229 13.9669C9.07451 14.1398 8.7266 14.2906 8.37061 14.4185C8.01759 14.55 7.65613 14.6558 7.28886 14.7351L6.94831 13.8683C7.12359 13.8319 7.30889 13.7904 7.4992 13.7385L8.01503 13.5984C8.20404 13.5343 8.3896 13.4598 8.57093 13.3752L8.11019 13.1001C7.94492 13.1624 7.77464 13.2246 7.60938 13.2817C7.3759 13.3649 7.13855 13.4359 6.89823 13.4945C6.70456 13.5442 6.5066 13.5738 6.30727 13.5828C6.13952 13.5932 5.97118 13.581 5.80646 13.5465C5.65496 13.5111 5.50967 13.4515 5.37577 13.37C5.21798 13.2867 5.08606 13.1589 4.99515 13.0015C4.92773 12.873 4.90813 12.7234 4.94006 12.581C4.98309 12.4202 5.06007 12.2713 5.16543 12.145C5.30235 11.9845 5.45893 11.8431 5.63118 11.7246L5.09031 11.4184L5.61616 11.1069L6.15202 11.4235C6.31228 11.3457 6.47254 11.273 6.65283 11.2107C6.83312 11.1484 6.97836 11.0862 7.15364 11.0343L7.61939 10.8889L8.03507 10.7799L8.29549 11.6ZM6.51261 12.4564C6.57186 12.4911 6.64072 12.5039 6.70792 12.4928C6.81077 12.493 6.91329 12.4808 7.01342 12.4564L6.61778 12.2177C6.45251 12.3267 6.42747 12.4149 6.51261 12.4564ZM9.01665 12.8925C8.95089 12.8613 8.87786 12.8505 8.80631 12.8613C8.70639 12.8903 8.60918 12.9285 8.51584 12.9755L8.90147 13.2039C9.00163 13.1364 9.05672 13.0845 9.07174 13.0378C9.08677 12.9911 9.09177 12.934 9.0467 12.908L9.01665 12.8925Z" fill="url(#paint11_radial_101_5)"/>
<path d="M15.6875 10.3179H0.00215183V12.6121C-0.000310376 12.6328 -0.000310376 12.6537 0.00215183 12.6744C0.00215183 15.2696 3.50782 17.4081 7.84483 17.4081C12.1818 17.4081 15.6875 15.2904 15.6875 12.6744C15.6875 12.6744 15.6875 12.6329 15.6875 12.6121V10.3179Z" fill="url(#paint12_linear_101_5)"/>
<g style="mix-blend-mode:multiply">
<path style="mix-blend-mode:multiply" d="M0.00237962 12.307V12.375C-0.000304926 12.3524 -0.000304926 12.3296 0.00237962 12.307Z" fill="url(#paint13_linear_101_5)"/>
<path opacity="0.5" d="M7.84482 16.9047C3.50781 16.9047 0.00215183 14.7817 0.00215183 12.1709V12.6121C-0.000310376 12.6328 -0.000310376 12.6537 0.00215183 12.6744C0.00215183 15.2697 3.50781 17.4082 7.84482 17.4082C12.1818 17.4082 15.6875 15.2904 15.6875 12.6744C15.6875 12.6744 15.6875 12.6329 15.6875 12.6121V12.1709C15.6875 14.7817 12.1768 16.9047 7.84482 16.9047Z" fill="url(#paint14_linear_101_5)"/>
</g>
<g style="mix-blend-mode:multiply">
<g style="mix-blend-mode:multiply">
<path d="M10.2488 17.1792L10.4641 17.1325V11.1219H10.2488V17.1792Z" fill="#FDD65B"/>
</g>
<g style="mix-blend-mode:multiply">
<path d="M11.2303 16.9405L11.4507 16.8782V11.1219H11.2303V16.9405Z" fill="#FDD65B"/>
</g>
<g style="mix-blend-mode:multiply">
<path d="M12.217 16.6083L12.4373 16.5097V11.1219H12.217V16.6083Z" fill="#FDD65B"/>
</g>
<g style="mix-blend-mode:multiply">
<path d="M9.26233 17.3298H9.48271V11.1219H9.26233V17.3298Z" fill="#FDD65B"/>
</g>
<g style="mix-blend-mode:multiply">
<path d="M14.185 15.4513L14.4053 15.2645V11.1121H14.185V15.4513Z" fill="#FDD65B"/>
</g>
<g style="mix-blend-mode:multiply">
<path d="M15.1718 14.3504C15.2539 14.2207 15.3275 14.0854 15.3921 13.9456V11.1219H15.1718V14.3504Z" fill="#FDD65B"/>
</g>
<g style="mix-blend-mode:multiply">
<path d="M13.2036 16.1256L13.424 16.001V11.1219H13.2036V16.1256Z" fill="#FDD65B"/>
</g>
<g style="mix-blend-mode:multiply">
<path d="M8.2757 17.3972H8.49603V11.1219H8.2757V17.3972Z" fill="#FDD65B"/>
</g>
<g style="mix-blend-mode:multiply">
<path d="M7.28906 17.392H7.51442V11.1219H7.29407L7.28906 17.392Z" fill="#FDD65B"/>
</g>
<g style="mix-blend-mode:multiply">
<path d="M5.3208 17.1533L5.54117 17.2V11.1219H5.3208V17.1533Z" fill="#FDD65B"/>
</g>
<g style="mix-blend-mode:multiply">
<path d="M6.30743 17.3148H6.5278V11.0862H6.30743V17.3148Z" fill="#FDD65B"/>
</g>
<g style="mix-blend-mode:multiply">
<path d="M4.33435 16.9041L4.5547 16.9664V11.1219H4.33435V16.9041Z" fill="#FDD65B"/>
</g>
<g style="mix-blend-mode:multiply">
<path d="M0.392883 14.148C0.462995 14.2726 0.533107 14.3919 0.613235 14.5113V11.1219H0.392883V14.148Z" fill="#FDD65B"/>
</g>
<g style="mix-blend-mode:multiply">
<path d="M1.37952 15.3522C1.44963 15.4145 1.52476 15.4716 1.59988 15.5287V11.1219H1.37952V15.3522Z" fill="#FDD65B"/>
</g>
<g style="mix-blend-mode:multiply">
<path d="M3.3526 16.5512L3.56794 16.6395V11.1219H3.3526V16.5512Z" fill="#FDD65B"/>
</g>
<g style="mix-blend-mode:multiply">
<path d="M2.36615 16.0581L2.58652 16.1775V11.1219H2.36615V16.0581Z" fill="#FDD65B"/>
</g>
</g>
<path d="M7.84505 15.0828C12.1764 15.0828 15.6877 12.9635 15.6877 10.3491C15.6877 7.73475 12.1764 5.61539 7.84505 5.61539C3.51366 5.61539 0.00238037 7.73475 0.00238037 10.3491C0.00238037 12.9635 3.51366 15.0828 7.84505 15.0828Z" fill="url(#paint15_linear_101_5)"/>
<path style="mix-blend-mode:screen" d="M7.84505 14.9583C3.6032 14.9583 0.162639 12.9236 0.00238037 10.3803C0.00238037 10.4322 0.00238037 10.4893 0.00238037 10.5412C0.00238037 13.1364 3.50804 15.2749 7.84505 15.2749C12.1821 15.2749 15.6877 13.1572 15.6877 10.5412C15.6877 10.4893 15.6877 10.4322 15.6877 10.3803C15.5275 12.9236 12.0819 14.9583 7.84505 14.9583Z" fill="url(#paint16_radial_101_5)"/>
<path d="M13.7043 10.3491C13.7043 12.3059 11.0801 13.889 7.84487 13.889C4.60964 13.889 2.00543 12.3059 2.00543 10.3491C2.00543 8.39226 4.62967 6.81435 7.86991 6.81435C11.1102 6.81435 13.7043 8.39745 13.7043 10.3491Z" fill="url(#paint17_linear_101_5)"/>
<path style="mix-blend-mode:screen" d="M8.04013 6.99087C11.1702 6.99087 13.7193 8.47015 13.8846 10.3387C13.8846 10.2764 13.8846 10.2141 13.8846 10.1467C13.8846 8.19506 11.2603 6.61197 8.0251 6.61197C4.78987 6.61197 2.16062 8.1691 2.16062 10.1467C2.15544 10.2106 2.15544 10.2748 2.16062 10.3387C2.35594 8.47015 4.91007 6.99087 8.04013 6.99087Z" fill="url(#paint18_radial_101_5)"/>
<path style="mix-blend-mode:multiply" d="M7.84479 7.19326C10.9748 7.19326 13.524 8.67775 13.6892 10.5412C13.6892 10.4789 13.6892 10.4166 13.6892 10.3491C13.6892 8.39746 11.065 6.81435 7.82976 6.81435C4.59453 6.81435 2.00535 8.39746 2.00535 10.3491C2.00017 10.413 2.00017 10.4772 2.00535 10.5412C2.1606 8.67775 4.71473 7.19326 7.84479 7.19326Z" fill="url(#paint19_linear_101_5)"/>
<path style="mix-blend-mode:color-dodge" d="M11.9615 5.7919C13.7243 6.41476 14.9113 7.65009 14.6158 8.55323C14.3203 9.45637 12.6476 9.68994 10.8848 9.07227C9.12191 8.45461 7.93499 7.21409 8.23548 6.31095C8.53596 5.40781 10.1986 5.18981 11.9615 5.7919Z" fill="url(#paint20_radial_101_5)"/>
<g style="mix-blend-mode:multiply">
<path style="mix-blend-mode:multiply" d="M8.29545 9.23833L7.84473 9.34734C7.70951 9.38367 7.56427 9.42519 7.40902 9.4771C7.25906 9.52736 7.11193 9.58628 6.96831 9.65357L7.43907 9.93386L7.59432 9.87676L7.7696 9.81448C8.0367 9.71413 8.28711 9.63108 8.52082 9.56533C8.74109 9.50485 8.9654 9.46147 9.1919 9.43557C9.38808 9.40939 9.58668 9.40939 9.78286 9.43557C9.9749 9.47203 10.1595 9.54224 10.3287 9.64319C10.4965 9.72767 10.6335 9.86602 10.7194 10.0377C10.7466 10.1051 10.7607 10.1774 10.7607 10.2505C10.7607 10.3236 10.7466 10.3959 10.7194 10.4633C10.6531 10.6264 10.5521 10.772 10.4239 10.8889C10.2715 11.0422 10.1036 11.1779 9.92308 11.2938L10.5591 11.6727L10.0583 11.9893L9.41226 11.6C9.07554 11.7768 8.72749 11.9294 8.37057 12.0568C8.01682 12.1859 7.65551 12.2917 7.28883 12.3734L6.94828 11.5066C7.12356 11.4702 7.30886 11.4287 7.49917 11.3768L8.03003 11.2211C8.21903 11.157 8.40459 11.0825 8.58592 10.9979L8.12518 10.7228C7.95991 10.7851 7.78964 10.8474 7.62437 10.9045C7.39089 10.9877 7.15355 11.0587 6.91322 11.1173C6.71909 11.1645 6.52136 11.194 6.32227 11.2055C6.15427 11.217 5.98555 11.2031 5.82146 11.164C5.67024 11.1302 5.52497 11.0724 5.39076 10.9927C5.23149 10.9092 5.0992 10.7793 5.01015 10.619C4.94214 10.4927 4.92247 10.3444 4.95506 10.2038C4.99519 10.0417 5.07251 9.89215 5.18043 9.76776C5.31735 9.6072 5.47392 9.46586 5.64618 9.34734L5.11532 9.03072L5.64117 8.7141L6.17703 9.03591C6.33729 8.95805 6.49755 8.88538 6.67784 8.8231C6.85813 8.76081 7.00337 8.69853 7.17865 8.64662C7.35393 8.59472 7.49917 8.54281 7.6444 8.50129L8.06007 8.3871L8.29545 9.23833ZM6.51258 10.1103C6.57266 10.1426 6.64074 10.1552 6.70789 10.1467C6.80496 10.1368 6.9007 10.116 6.99335 10.0844L6.61274 9.86119C6.45248 9.95981 6.42744 10.048 6.51258 10.1103ZM9.01662 10.5463C8.95161 10.5126 8.8778 10.5017 8.80628 10.5152C8.70265 10.5278 8.60038 10.5504 8.50078 10.5827L8.88641 10.8162C8.95671 10.778 9.01559 10.7206 9.05668 10.6501C9.10676 10.6086 9.09174 10.5723 9.04667 10.5463H9.01662Z" fill="url(#paint21_linear_101_5)"/>
</g>
<path d="M8.29545 9.0359L7.84473 9.1449C7.70951 9.18124 7.56427 9.22276 7.40902 9.27467C7.25377 9.32657 7.10854 9.38367 6.96831 9.44595L7.43907 9.73143L7.59432 9.67434L7.7696 9.61205C8.0367 9.5117 8.28711 9.42865 8.52082 9.3629C8.74109 9.30242 8.9654 9.25904 9.1919 9.23314C9.38808 9.20696 9.58668 9.20696 9.78286 9.23314C9.9749 9.2696 10.1595 9.33981 10.3287 9.44076C10.4965 9.52524 10.6335 9.66359 10.7194 9.83524C10.7466 9.90263 10.7607 9.97498 10.7607 10.0481C10.7607 10.1211 10.7466 10.1935 10.7194 10.2609C10.6531 10.424 10.5521 10.5695 10.4239 10.6865C10.2715 10.8398 10.1036 10.9755 9.92308 11.0914L10.5591 11.4703L10.0583 11.7869L9.38722 11.4184C9.0505 11.5952 8.70245 11.7478 8.34553 11.8751C7.99178 12.0043 7.63047 12.11 7.26379 12.1917L6.92324 11.3249C7.09852 11.2886 7.28382 11.2471 7.47413 11.1952L8.00498 11.0394C8.19399 10.9754 8.37955 10.9009 8.56088 10.8163L8.10014 10.5412C7.93487 10.6034 7.7646 10.6657 7.59933 10.7228C7.33891 10.8111 7.09852 10.8837 6.88818 10.9356C6.69405 10.9828 6.49632 11.0123 6.29723 11.0239C6.12923 11.0354 5.96051 11.0214 5.79642 10.9823C5.6452 10.9486 5.49993 10.8908 5.36572 10.8111C5.215 10.7222 5.0917 10.5908 5.01015 10.4322C4.94214 10.3058 4.92247 10.1576 4.95506 10.0169C4.99519 9.85488 5.07251 9.7053 5.18043 9.58091C5.31735 9.42034 5.47392 9.279 5.64618 9.16047L5.09028 8.82309L5.61613 8.50647L6.15199 8.82828C6.31225 8.75042 6.47251 8.67775 6.6528 8.61547C6.83309 8.55318 6.97833 8.4909 7.15361 8.43899C7.32889 8.38708 7.47413 8.33518 7.61936 8.29366L8.015 8.20023L8.29545 9.0359ZM6.51258 9.90791C6.57266 9.94015 6.64074 9.95282 6.70789 9.94424C6.81255 9.92926 6.91511 9.90138 7.01338 9.86119L6.61775 9.62243C6.45248 9.75738 6.42744 9.86119 6.51258 9.90791ZM9.01662 10.3439C8.95161 10.3102 8.8778 10.2993 8.80628 10.3128C8.70772 10.3263 8.61052 10.3489 8.51581 10.3802L8.90143 10.6138C8.97173 10.5756 9.03061 10.5181 9.07171 10.4477C9.10676 10.4062 9.09174 10.3802 9.04667 10.3439H9.01662Z" fill="url(#paint22_linear_101_5)"/>
<path style="mix-blend-mode:color-dodge" d="M8.29545 9.0359L7.84473 9.1449C7.70951 9.18124 7.56427 9.22276 7.40902 9.27467C7.25377 9.32657 7.10854 9.38367 6.96831 9.44595L7.43907 9.73143L7.59432 9.67434L7.7696 9.61205C8.0367 9.5117 8.28711 9.42865 8.52082 9.3629C8.74109 9.30242 8.9654 9.25904 9.1919 9.23314C9.38808 9.20696 9.58668 9.20696 9.78286 9.23314C9.9749 9.2696 10.1595 9.33981 10.3287 9.44076C10.4965 9.52524 10.6335 9.66359 10.7194 9.83524C10.7466 9.90263 10.7607 9.97498 10.7607 10.0481C10.7607 10.1211 10.7466 10.1935 10.7194 10.2609C10.6531 10.424 10.5521 10.5695 10.4239 10.6865C10.2715 10.8398 10.1036 10.9755 9.92308 11.0914L10.5591 11.4703L10.0583 11.7869L9.38722 11.4184C9.0505 11.5952 8.70245 11.7478 8.34553 11.8751C7.99178 12.0043 7.63047 12.11 7.26379 12.1917L6.92324 11.3249C7.09852 11.2886 7.28382 11.2471 7.47413 11.1952L8.00498 11.0394C8.19399 10.9754 8.37955 10.9009 8.56088 10.8163L8.10014 10.5412C7.93487 10.6034 7.7646 10.6657 7.59933 10.7228C7.33891 10.8111 7.09852 10.8837 6.88818 10.9356C6.69405 10.9828 6.49632 11.0123 6.29723 11.0239C6.12923 11.0354 5.96051 11.0214 5.79642 10.9823C5.6452 10.9486 5.49993 10.8908 5.36572 10.8111C5.215 10.7222 5.0917 10.5908 5.01015 10.4322C4.94214 10.3058 4.92247 10.1576 4.95506 10.0169C4.99519 9.85488 5.07251 9.7053 5.18043 9.58091C5.31735 9.42034 5.47392 9.279 5.64618 9.16047L5.09028 8.82309L5.61613 8.50647L6.15199 8.82828C6.31225 8.75042 6.47251 8.67775 6.6528 8.61547C6.83309 8.55318 6.97833 8.4909 7.15361 8.43899C7.32889 8.38708 7.47413 8.33518 7.61936 8.29366L8.015 8.20023L8.29545 9.0359ZM6.51258 9.90791C6.57266 9.94015 6.64074 9.95282 6.70789 9.94424C6.81255 9.92926 6.91511 9.90138 7.01338 9.86119L6.61775 9.62243C6.45248 9.75738 6.42744 9.86119 6.51258 9.90791ZM9.01662 10.3439C8.95161 10.3102 8.8778 10.2993 8.80628 10.3128C8.70772 10.3263 8.61052 10.3489 8.51581 10.3802L8.90143 10.6138C8.97173 10.5756 9.03061 10.5181 9.07171 10.4477C9.10676 10.4062 9.09174 10.3802 9.04667 10.3439H9.01662Z" fill="url(#paint23_radial_101_5)"/>
<path d="M15.6875 7.61888H0.00215183V9.91308C-0.000310376 9.93376 -0.000310376 9.95468 0.00215183 9.97536C0.00215183 12.5706 3.50782 14.7091 7.84483 14.7091C12.1818 14.7091 15.6875 12.5914 15.6875 9.97536C15.6875 9.97536 15.6875 9.93384 15.6875 9.91308V7.61888Z" fill="url(#paint24_linear_101_5)"/>
<g style="mix-blend-mode:multiply">
<path style="mix-blend-mode:multiply" d="M0.00216949 9.60689V9.67488C-0.000723163 9.6523 -0.000723163 9.62946 0.00216949 9.60689Z" fill="url(#paint25_linear_101_5)"/>
<path opacity="0.5" d="M7.84494 14.2004C3.50794 14.2004 0.0022739 12.0827 0.0022739 9.47191V9.9131C-0.000188306 9.93378 -0.000188305 9.9547 0.0022739 9.97538C0.0022739 12.5706 3.50794 14.7091 7.84494 14.7091C12.1819 14.7091 15.6876 12.5914 15.6876 9.97538C15.6876 9.97538 15.6876 9.93386 15.6876 9.9131V9.47191C15.6876 12.0827 12.1769 14.2004 7.84494 14.2004Z" fill="url(#paint26_linear_101_5)"/>
</g>
<g style="mix-blend-mode:multiply">
<g style="mix-blend-mode:multiply">
<path d="M10.2488 14.481L10.4641 14.4343V8.42372H10.2488V14.481Z" fill="#FDD65B"/>
</g>
<g style="mix-blend-mode:multiply">
<path d="M11.2303 14.2422L11.4507 14.1748V8.42372H11.2303V14.2422Z" fill="#FDD65B"/>
</g>
<g style="mix-blend-mode:multiply">
<path d="M12.217 13.9049L12.4373 13.8063V8.42372H12.217V13.9049Z" fill="#FDD65B"/>
</g>
<g style="mix-blend-mode:multiply">
<path d="M9.26233 14.6263H9.48271V8.42372H9.26233V14.6263Z" fill="#FDD65B"/>
</g>
<g style="mix-blend-mode:multiply">
<path d="M14.185 12.7522L14.4053 12.5654V8.41299H14.185V12.7522Z" fill="#FDD65B"/>
</g>
<g style="mix-blend-mode:multiply">
<path d="M15.1718 11.6522C15.2528 11.5218 15.3264 11.3867 15.3921 11.2474V8.42372H15.1718V11.6522Z" fill="#FDD65B"/>
</g>
<g style="mix-blend-mode:multiply">
<path d="M13.2036 13.4273L13.424 13.3028V8.42372H13.2036V13.4273Z" fill="#FDD65B"/>
</g>
<g style="mix-blend-mode:multiply">
<path d="M8.2757 14.6938H8.51606V8.42372H8.29573L8.2757 14.6938Z" fill="#FDD65B"/>
</g>
<g style="mix-blend-mode:multiply">
<path d="M7.28906 14.6938H7.51442V8.42372H7.29407L7.28906 14.6938Z" fill="#FDD65B"/>
</g>
<g style="mix-blend-mode:multiply">
<path d="M5.3208 14.455L5.54117 14.5018V8.42372H5.3208V14.455Z" fill="#FDD65B"/>
</g>
<g style="mix-blend-mode:multiply">
<path d="M6.30743 14.6156H6.5278V8.38707H6.30743V14.6156Z" fill="#FDD65B"/>
</g>
<g style="mix-blend-mode:multiply">
<path d="M4.33435 14.2059L4.5547 14.2682V8.42372H4.33435V14.2059Z" fill="#FDD65B"/>
</g>
<g style="mix-blend-mode:multiply">
<path d="M0.392883 11.4498C0.462995 11.5743 0.533107 11.6937 0.613235 11.8131V8.42372H0.392883V11.4498Z" fill="#FDD65B"/>
</g>
<g style="mix-blend-mode:multiply">
<path d="M1.37952 12.654C1.44963 12.7162 1.52476 12.7733 1.59988 12.8304V8.42372H1.37952V12.654Z" fill="#FDD65B"/>
</g>
<g style="mix-blend-mode:multiply">
<path d="M3.3526 13.8529L3.56794 13.9412V8.42372H3.3526V13.8529Z" fill="#FDD65B"/>
</g>
<g style="mix-blend-mode:multiply">
<path d="M2.36615 13.3598L2.58652 13.4792V8.42372H2.36615V13.3598Z" fill="#FDD65B"/>
</g>
</g>
<path d="M7.84505 12.3838C12.1764 12.3838 15.6877 10.2644 15.6877 7.65005C15.6877 5.03568 12.1764 2.91632 7.84505 2.91632C3.51366 2.91632 0.00238037 5.03568 0.00238037 7.65005C0.00238037 10.2644 3.51366 12.3838 7.84505 12.3838Z" fill="url(#paint27_linear_101_5)"/>
<path style="mix-blend-mode:screen" d="M7.84505 12.254C3.6032 12.254 0.162639 10.2245 0.00238037 7.68637C0.00238037 7.74347 0.00238037 7.79537 0.00238037 7.85247C0.00238037 10.4477 3.50804 12.5862 7.84505 12.5862C12.1821 12.5862 15.6877 10.4685 15.6877 7.85247C15.6877 7.79537 15.6877 7.74347 15.6877 7.68637C15.5275 10.2245 12.0819 12.254 7.84505 12.254Z" fill="url(#paint28_radial_101_5)"/>
<path d="M13.7043 7.65009C13.7043 9.60171 11.0801 11.19 7.84487 11.19C4.60964 11.19 2.00543 9.60171 2.00543 7.65009C2.00543 5.69847 4.60463 4.11018 7.84487 4.11018C11.0851 4.11018 13.7043 5.70885 13.7043 7.65009Z" fill="url(#paint29_linear_101_5)"/>
<path style="mix-blend-mode:screen" d="M8.04007 4.29184C11.1701 4.29184 13.7192 5.77111 13.8845 7.63967C13.8845 7.5722 13.8845 7.50991 13.8845 7.44763C13.8845 5.49602 11.2603 3.90775 8.02505 3.90775C4.78983 3.90775 2.17561 5.49602 2.17561 7.44763C2.17096 7.51155 2.17096 7.57575 2.17561 7.63967C2.3559 5.77111 4.91002 4.29184 8.04007 4.29184Z" fill="url(#paint30_radial_101_5)"/>
<path style="mix-blend-mode:multiply" d="M7.8447 4.49428C10.9748 4.49428 13.5239 5.97355 13.6891 7.84211C13.6891 7.77463 13.6891 7.71235 13.6891 7.65006C13.6891 5.69846 11.0649 4.11018 7.82968 4.11018C4.59445 4.11018 2.00526 5.70884 2.00526 7.65006C2.00061 7.71399 2.00061 7.77819 2.00526 7.84211C2.16051 5.97355 4.71464 4.49428 7.8447 4.49428Z" fill="url(#paint31_linear_101_5)"/>
<path style="mix-blend-mode:color-dodge" d="M14.6135 5.85495C14.9103 4.9513 13.7225 3.71473 11.9603 3.09301C10.1982 2.47128 8.52909 2.69983 8.23227 3.60349C7.93544 4.50714 9.12332 5.74371 10.8855 6.36543C12.6476 6.98716 14.3167 6.75861 14.6135 5.85495Z" fill="url(#paint32_radial_101_5)"/>
<g style="mix-blend-mode:multiply">
<path style="mix-blend-mode:multiply" d="M8.29546 6.53932C8.14338 6.56693 7.9929 6.60332 7.84473 6.64832C7.70951 6.67946 7.56428 6.72617 7.40903 6.77808C7.25378 6.82998 7.10854 6.88708 6.96832 6.94936L7.43908 7.23484L7.59433 7.17255L7.76961 7.11027C8.03504 7.01684 8.27042 6.93379 8.52082 6.86631C8.74084 6.80686 8.96535 6.76692 9.19191 6.74694C9.38773 6.71555 9.58704 6.71555 9.78286 6.74694C9.97551 6.78106 10.1605 6.85143 10.3287 6.95455C10.4965 7.03903 10.6335 7.17738 10.7194 7.34903C10.7466 7.41641 10.7607 7.48876 10.7607 7.56183C10.7607 7.63491 10.7466 7.70725 10.7194 7.77464C10.6531 7.9378 10.5521 8.08331 10.4239 8.20026C10.2702 8.35198 10.1025 8.48759 9.92309 8.60511L10.5591 8.98401L10.0583 9.29544L9.41226 8.91135C9.07554 9.08815 8.72749 9.24077 8.37058 9.36811C8.01683 9.49727 7.65552 9.60302 7.28883 9.68472L6.92324 8.82311C7.09853 8.78678 7.28383 8.74525 7.47413 8.69335C7.66444 8.64145 7.80967 8.59992 8.00499 8.53245C8.19569 8.47127 8.38154 8.39492 8.56089 8.30407L8.10014 8.02897C7.93321 8.09472 7.76627 8.157 7.59934 8.21583C7.33892 8.30407 7.09853 8.37673 6.88819 8.42864C6.69359 8.47324 6.49606 8.50274 6.29723 8.51688C6.12927 8.52567 5.96091 8.51171 5.79643 8.47535C5.64492 8.43995 5.49963 8.38042 5.36573 8.29888C5.20594 8.21858 5.07327 8.09013 4.98512 7.93036C4.91757 7.80386 4.89793 7.65582 4.93003 7.51512C4.97016 7.35309 5.04747 7.20351 5.15539 7.07912C5.29231 6.91856 5.44889 6.77722 5.62114 6.6587L5.09029 6.34208L5.61614 6.02546L6.152 6.34727C6.31226 6.26941 6.47252 6.19675 6.65281 6.12927L7.15362 5.9528L7.61937 5.81266L8.01501 5.70885L8.29546 6.53932ZM6.51258 7.41131C6.57266 7.44355 6.64075 7.45622 6.7079 7.44764C6.80497 7.43782 6.9007 7.41693 6.99336 7.38536L6.59772 7.1466C6.45248 7.26598 6.42744 7.34903 6.51258 7.41131ZM9.01662 7.84731C8.95162 7.81359 8.8778 7.80266 8.80628 7.81617C8.70265 7.82879 8.60038 7.85138 8.50079 7.88364L8.88641 8.11721C8.95671 8.07896 9.01559 8.02153 9.05669 7.95112C9.10677 7.90959 9.09174 7.87326 9.04667 7.84731H9.01662Z" fill="url(#paint33_linear_101_5)"/>
</g>
<path d="M8.29552 6.3369C8.14343 6.36451 7.99295 6.4009 7.84479 6.4459C7.70957 6.47704 7.56433 6.52375 7.40908 6.57566C7.25383 6.62756 7.1086 6.68466 6.96837 6.74694L7.43913 7.03242L7.59438 6.97013L7.76967 6.90785C8.03509 6.81442 8.27048 6.73137 8.52088 6.6639C8.74061 6.60093 8.96512 6.55752 9.19197 6.53414C9.38779 6.50275 9.5871 6.50275 9.78292 6.53414C9.97558 6.56826 10.1606 6.63863 10.3288 6.74175C10.4966 6.82623 10.6336 6.96458 10.7194 7.13623C10.7467 7.20362 10.7608 7.27596 10.7608 7.34904C10.7608 7.42211 10.7467 7.49446 10.7194 7.56185C10.6532 7.72501 10.5522 7.87051 10.424 7.98746C10.2703 8.13919 10.1025 8.2748 9.92315 8.39232L10.5592 8.77122L10.0584 9.08265L9.41232 8.69855C9.0756 8.87536 8.72755 9.02797 8.37064 9.15531C8.01688 9.28448 7.65557 9.39023 7.28889 9.47193L6.94834 8.60513C7.12362 8.56879 7.30892 8.52727 7.49923 8.47536C7.68954 8.42346 7.83477 8.38194 8.03009 8.31446C8.22064 8.25496 8.40649 8.18035 8.58599 8.09127L8.12524 7.81618C7.9583 7.88538 7.79137 7.94767 7.62443 8.00303C7.36401 8.09127 7.12362 8.16394 6.91328 8.21584C6.71869 8.26045 6.52115 8.28994 6.32232 8.30408C6.15436 8.31288 5.986 8.29892 5.82151 8.26256C5.67001 8.22716 5.52472 8.16762 5.39082 8.08608C5.23312 8.00994 5.10069 7.88713 5.0102 7.73313C4.94266 7.60663 4.92302 7.45859 4.95511 7.31789C4.99524 7.15587 5.07256 7.00629 5.18048 6.8819C5.3174 6.72133 5.47398 6.57999 5.64623 6.46147L5.11537 6.14485L5.64122 5.82823L6.17709 6.15004C6.33735 6.07219 6.49761 5.99952 6.6779 5.93204C6.85819 5.86457 7.00343 5.80747 7.17871 5.75557L7.64446 5.61543L8.01506 5.50124L8.29552 6.3369ZM6.51263 7.20889C6.57271 7.24114 6.6408 7.2538 6.70795 7.24523C6.80502 7.2354 6.90075 7.21451 6.99341 7.18294L6.59777 6.94418C6.45254 7.05837 6.42749 7.14661 6.51263 7.20889ZM9.01668 7.64489C8.95167 7.61117 8.87786 7.60024 8.80634 7.61375C8.70271 7.62638 8.60044 7.64897 8.50085 7.68123L8.88647 7.9148C8.95677 7.87654 9.01565 7.81911 9.05675 7.7487C9.10683 7.70718 9.0918 7.67084 9.04673 7.64489H9.01668Z" fill="url(#paint34_linear_101_5)"/>
<path style="mix-blend-mode:color-dodge" d="M8.29552 6.3369C8.14343 6.36451 7.99295 6.4009 7.84479 6.4459C7.70957 6.47704 7.56433 6.52375 7.40908 6.57566C7.25383 6.62756 7.1086 6.68466 6.96837 6.74694L7.43913 7.03242L7.59438 6.97013L7.76967 6.90785C8.03509 6.81442 8.27048 6.73137 8.52088 6.6639C8.74061 6.60093 8.96512 6.55752 9.19197 6.53414C9.38779 6.50275 9.5871 6.50275 9.78292 6.53414C9.97558 6.56826 10.1606 6.63863 10.3288 6.74175C10.4966 6.82623 10.6336 6.96458 10.7194 7.13623C10.7467 7.20362 10.7608 7.27596 10.7608 7.34904C10.7608 7.42211 10.7467 7.49446 10.7194 7.56185C10.6532 7.72501 10.5522 7.87051 10.424 7.98746C10.2703 8.13919 10.1025 8.2748 9.92315 8.39232L10.5592 8.77122L10.0584 9.08265L9.41232 8.69855C9.0756 8.87536 8.72755 9.02797 8.37064 9.15531C8.01688 9.28448 7.65557 9.39023 7.28889 9.47193L6.94834 8.60513C7.12362 8.56879 7.30892 8.52727 7.49923 8.47536C7.68954 8.42346 7.83477 8.38194 8.03009 8.31446C8.22064 8.25496 8.40649 8.18035 8.58599 8.09127L8.12524 7.81618C7.9583 7.88538 7.79137 7.94767 7.62443 8.00303C7.36401 8.09127 7.12362 8.16394 6.91328 8.21584C6.71869 8.26045 6.52115 8.28994 6.32232 8.30408C6.15436 8.31288 5.986 8.29892 5.82151 8.26256C5.67001 8.22716 5.52472 8.16762 5.39082 8.08608C5.23312 8.00994 5.10069 7.88713 5.0102 7.73313C4.94266 7.60663 4.92302 7.45859 4.95511 7.31789C4.99524 7.15587 5.07256 7.00629 5.18048 6.8819C5.3174 6.72133 5.47398 6.57999 5.64623 6.46147L5.11537 6.14485L5.64122 5.82823L6.17709 6.15004C6.33735 6.07219 6.49761 5.99952 6.6779 5.93204C6.85819 5.86457 7.00343 5.80747 7.17871 5.75557L7.64446 5.61543L8.01506 5.50124L8.29552 6.3369ZM6.51263 7.20889C6.57271 7.24114 6.6408 7.2538 6.70795 7.24523C6.80502 7.2354 6.90075 7.21451 6.99341 7.18294L6.59777 6.94418C6.45254 7.05837 6.42749 7.14661 6.51263 7.20889ZM9.01668 7.64489C8.95167 7.61117 8.87786 7.60024 8.80634 7.61375C8.70271 7.62638 8.60044 7.64897 8.50085 7.68123L8.88647 7.9148C8.95677 7.87654 9.01565 7.81911 9.05675 7.7487C9.10683 7.70718 9.0918 7.67084 9.04673 7.64489H9.01668Z" fill="url(#paint35_radial_101_5)"/>
<path d="M15.6875 4.87309H0.00216732V7.16728C-0.000315539 7.1897 -0.000315539 7.21234 0.00216732 7.23476C0.00216732 9.83 3.50783 11.9685 7.84484 11.9685C12.1819 11.9685 15.6875 9.86114 15.6875 7.23476C15.6875 7.23476 15.6875 7.18805 15.6875 7.16728V4.87309Z" fill="url(#paint36_linear_101_5)"/>
<g style="mix-blend-mode:multiply">
<path style="mix-blend-mode:multiply" d="M0.00236401 6.86719V6.92943C-0.000299723 6.90876 -0.000299723 6.88786 0.00236401 6.86719H0.00236401Z" fill="url(#paint37_linear_101_5)"/>
<path opacity="0.5" d="M7.84484 11.4599C3.50783 11.4599 0.00216732 9.34219 0.00216732 6.74693V7.18813C-0.000315539 7.21055 -0.000315539 7.23318 0.00216732 7.2556C0.00216732 9.85086 3.50783 11.9894 7.84484 11.9894C12.1819 11.9894 15.6875 9.86124 15.6875 7.23484C15.6875 7.23484 15.6875 7.18813 15.6875 7.16737V6.74693C15.6875 9.34219 12.1768 11.4599 7.84484 11.4599Z" fill="url(#paint38_linear_101_5)"/>
</g>
<g style="mix-blend-mode:multiply">
<g style="mix-blend-mode:multiply">
<path d="M10.2488 11.7407L10.4641 11.6888V5.67825H10.2488V11.7407Z" fill="#FDD65B"/>
</g>
<g style="mix-blend-mode:multiply">
<path d="M11.2303 11.4968L11.4507 11.4345V5.67825H11.2303V11.4968Z" fill="#FDD65B"/>
</g>
<g style="mix-blend-mode:multiply">
<path d="M12.217 11.1646L12.4373 11.066V5.67825H12.217V11.1646Z" fill="#FDD65B"/>
</g>
<g style="mix-blend-mode:multiply">
<path d="M9.26233 11.8861H9.48271V5.67825H9.26233V11.8861Z" fill="#FDD65B"/>
</g>
<g style="mix-blend-mode:multiply">
<path d="M14.185 10.0064C14.2618 9.94852 14.3354 9.88613 14.4053 9.81951V5.66708H14.185V10.0064Z" fill="#FDD65B"/>
</g>
<g style="mix-blend-mode:multiply">
<path d="M15.1718 8.90673C15.2538 8.77877 15.3274 8.64525 15.3921 8.50707V5.67825H15.1718V8.90673Z" fill="#FDD65B"/>
</g>
<g style="mix-blend-mode:multiply">
<path d="M13.2036 10.6819L13.424 10.5574V5.67825H13.2036V10.6819Z" fill="#FDD65B"/>
</g>
<g style="mix-blend-mode:multiply">
<path d="M8.2757 11.938H8.51606V5.67825H8.29573L8.2757 11.938Z" fill="#FDD65B"/>
</g>
<g style="mix-blend-mode:multiply">
<path d="M7.28906 11.938H7.51442V5.67825H7.29407L7.28906 11.938Z" fill="#FDD65B"/>
</g>
<g style="mix-blend-mode:multiply">
<path d="M5.3208 11.7096C5.39593 11.7096 5.46604 11.746 5.54117 11.7563V5.67825H5.3208V11.7096Z" fill="#FDD65B"/>
</g>
<g style="mix-blend-mode:multiply">
<path d="M6.30743 11.8751H6.5278V5.64653H6.30743V11.8751Z" fill="#FDD65B"/>
</g>
<g style="mix-blend-mode:multiply">
<path d="M4.33435 11.4604L4.5547 11.5279V5.67825H4.33435V11.4604Z" fill="#FDD65B"/>
</g>
<g style="mix-blend-mode:multiply">
<path d="M0.392883 8.70953C0.462995 8.82892 0.533107 8.95349 0.613235 9.06768V5.67825H0.392883V8.70953Z" fill="#FDD65B"/>
</g>
<g style="mix-blend-mode:multiply">
<path d="M1.37952 9.9137L1.59988 10.0902V5.67825H1.37952V9.9137Z" fill="#FDD65B"/>
</g>
<g style="mix-blend-mode:multiply">
<path d="M3.3526 11.1075L3.56794 11.2009V5.67825H3.3526V11.1075Z" fill="#FDD65B"/>
</g>
<g style="mix-blend-mode:multiply">
<path d="M2.36615 10.6196L2.58652 10.739V5.67825H2.36615V10.6196Z" fill="#FDD65B"/>
</g>
</g>
<path d="M7.84505 9.64346C12.1764 9.64346 15.6877 7.52409 15.6877 4.90971C15.6877 2.29533 12.1764 0.175964 7.84505 0.175964C3.51366 0.175964 0.00238037 2.29533 0.00238037 4.90971C0.00238037 7.52409 3.51366 9.64346 7.84505 9.64346Z" fill="url(#paint39_linear_101_5)"/>
<path style="mix-blend-mode:screen" d="M7.84505 9.51341C3.6032 9.51341 0.162639 7.48391 0.00238037 4.94574C0.00238037 5.00284 0.00238037 5.05474 0.00238037 5.11184C0.00238037 7.72268 3.50804 9.86118 7.84505 9.86118C12.1821 9.86118 15.6877 7.73825 15.6877 5.12741C15.6877 5.07031 15.6877 5.01841 15.6877 4.96131C15.5275 7.48391 12.0819 9.51341 7.84505 9.51341Z" fill="url(#paint40_radial_101_5)"/>
<path d="M13.7043 4.90946C13.7043 6.86108 11.0801 8.44418 7.84487 8.44418C4.60964 8.44418 2.00543 6.86108 2.00543 4.90946C2.00543 2.95784 4.60463 1.36955 7.84487 1.36955C11.0851 1.36955 13.7043 2.95265 13.7043 4.90946Z" fill="url(#paint41_linear_101_5)"/>
<path style="mix-blend-mode:screen" d="M8.0401 1.55646C11.1702 1.55646 13.7193 3.03053 13.8845 4.89389C13.8845 4.8316 13.8845 4.76932 13.8845 4.70703C13.8845 2.75025 11.2603 1.16718 8.02508 1.16718C4.78985 1.16718 2.17563 2.75025 2.17563 4.70703C2.1707 4.76921 2.1707 4.83171 2.17563 4.89389C2.35592 3.03053 4.91005 1.55646 8.0401 1.55646Z" fill="url(#paint42_radial_101_5)"/>
<path style="mix-blend-mode:multiply" d="M7.84471 1.74846C10.9748 1.74846 13.5239 3.23296 13.6891 5.09636C13.6891 5.03407 13.6891 4.97179 13.6891 4.9095C13.6891 2.95267 11.0649 1.36955 7.82968 1.36955C4.59446 1.36955 2.00528 2.95267 2.00528 4.9095C2.00036 4.97168 2.00036 5.03418 2.00528 5.09636C2.16053 3.23296 4.71465 1.74846 7.84471 1.74846Z" fill="url(#paint43_linear_101_5)"/>
<path style="mix-blend-mode:color-dodge" d="M4.50935 4.85756C6.07689 5.30394 6.77301 7.86804 6.06186 10.5671C5.35071 13.2661 3.49772 15.1399 1.92517 14.7195C0.352631 14.299 -0.338486 11.709 0.372664 9.00994C1.08381 6.31089 2.95684 4.41637 4.50935 4.85756Z" fill="url(#paint44_radial_101_5)"/>
<path style="mix-blend-mode:color-dodge" d="M11.9615 0.347034C13.7243 0.969897 14.9113 2.21043 14.6158 3.11358C14.3203 4.01673 12.6476 4.24512 10.8848 3.63263C9.12191 3.02015 7.93499 1.76405 8.23548 0.860896C8.53596 -0.0422548 10.1986 -0.270638 11.9615 0.347034Z" fill="url(#paint45_radial_101_5)"/>
<g style="mix-blend-mode:multiply">
<path style="mix-blend-mode:multiply" d="M8.29542 3.79873C8.15019 3.79873 7.99994 3.86102 7.84469 3.90254C7.68944 3.94407 7.56424 3.9804 7.40899 4.0375C7.25374 4.09459 7.1085 4.1465 6.96827 4.20878L7.43904 4.48907L7.59429 4.43197L7.76957 4.36969C8.035 4.27107 8.27038 4.19321 8.52079 4.12573C8.74097 4.06368 8.96527 4.01857 9.19187 3.99078C9.38787 3.96189 9.58683 3.96189 9.78283 3.99078C9.97524 4.02296 10.1603 4.09158 10.3287 4.19321C10.4971 4.27934 10.6341 4.41952 10.7193 4.59288C10.7466 4.66027 10.7607 4.73261 10.7607 4.80569C10.7607 4.87877 10.7466 4.95111 10.7193 5.0185C10.6519 5.18098 10.5511 5.32624 10.4239 5.44412C10.2713 5.59568 10.1034 5.72968 9.92305 5.84379L10.5591 6.2227L10.0583 6.53932L9.41223 6.15522C9.07454 6.32987 8.72663 6.48242 8.37054 6.61199C8.01743 6.74189 7.65596 6.84595 7.28879 6.92342L6.94824 6.05661L7.49913 5.93203C7.65438 5.89051 7.83468 5.83341 8.02999 5.77113C8.21977 5.70933 8.40547 5.63477 8.58589 5.54793L8.12515 5.27284L7.62434 5.4597C7.36391 5.54793 7.12353 5.61541 6.91319 5.66732C6.71952 5.71699 6.52155 5.74655 6.32223 5.75556C6.15448 5.7687 5.98577 5.75647 5.82142 5.71922C5.66992 5.68382 5.52462 5.62429 5.39072 5.54274C5.23399 5.46509 5.10193 5.34263 5.01011 5.18979C4.94268 5.06137 4.92308 4.91176 4.95502 4.76936C4.99804 4.60851 5.07502 4.45959 5.18038 4.33335C5.3173 4.17279 5.47388 4.03145 5.64614 3.91292L5.11528 3.5963L5.64113 3.28487L6.15195 3.63263C6.31221 3.55478 6.47247 3.48211 6.65276 3.41982C6.83306 3.35754 6.97829 3.29525 7.15357 3.24335L7.61933 3.1032L8.01497 2.96306L8.29542 3.79873ZM6.51254 4.67074C6.57208 4.70477 6.64019 4.71925 6.70785 4.71226C6.81151 4.69717 6.91372 4.67286 7.01335 4.63959L6.61771 4.40602C6.45244 4.52021 6.4274 4.60845 6.51254 4.67074ZM9.01659 5.10674C8.95026 5.07764 8.87732 5.06864 8.80625 5.08079C8.70223 5.09088 8.5997 5.11353 8.50075 5.14827L8.88638 5.37665C8.98654 5.30917 9.04163 5.25727 9.05665 5.21574C9.07168 5.17422 9.09171 5.13269 9.04664 5.10155L9.01659 5.10674Z" fill="url(#paint46_linear_101_5)"/>
</g>
<path d="M8.29542 3.59629C8.15019 3.62224 7.99994 3.65857 7.84469 3.70009C7.68944 3.74162 7.56424 3.77795 7.40899 3.83505C7.25374 3.89214 7.1085 3.94405 6.96827 4.00633L7.43904 4.28662L7.59429 4.22952L7.76957 4.15167C8.035 4.05305 8.27038 3.97519 8.52079 3.90771C8.74097 3.84566 8.96527 3.80055 9.19187 3.77276C9.38787 3.74387 9.58683 3.74387 9.78283 3.77276C9.97524 3.80494 10.1603 3.87356 10.3287 3.97519C10.4971 4.06132 10.6341 4.2015 10.7193 4.37486C10.7466 4.44224 10.7607 4.51459 10.7607 4.58766C10.7607 4.66074 10.7466 4.73309 10.7193 4.80047C10.6519 4.96295 10.5511 5.10821 10.4239 5.22609C10.2713 5.37764 10.1034 5.51164 9.92305 5.62576L10.5591 6.00466L10.0583 6.32128L9.41223 5.93719C9.07454 6.11183 8.72663 6.26438 8.37054 6.39395C8.01743 6.52384 7.65596 6.62791 7.28879 6.70538L6.94824 5.83857L7.49913 5.714C7.65438 5.67247 7.83468 5.61538 8.02999 5.55309C8.21977 5.49129 8.40547 5.41674 8.58589 5.3299L8.12515 5.05481L7.62434 5.24166C7.36391 5.3299 7.12353 5.39738 6.91319 5.44928C6.71952 5.49896 6.52155 5.52851 6.32223 5.53752C6.15448 5.54796 5.98613 5.53575 5.82142 5.50119C5.66992 5.46579 5.52462 5.40625 5.39072 5.32471C5.23658 5.25271 5.1048 5.13769 5.01011 4.99252C4.94268 4.8641 4.92308 4.7145 4.95502 4.57209C4.9926 4.41894 5.06085 4.27569 5.15534 4.15167C5.29226 3.9911 5.44884 3.84976 5.6211 3.73124L5.09024 3.41462L5.61609 3.11357L6.15195 3.43019C6.31221 3.35233 6.47247 3.27967 6.65276 3.21738C6.83306 3.1551 6.97829 3.09281 7.15357 3.04091L7.61933 2.90076L8.01497 2.76062L8.29542 3.59629ZM6.51254 4.46309C6.57208 4.49713 6.64019 4.51161 6.70785 4.50462C6.81136 4.49123 6.91357 4.46865 7.01335 4.43714L6.6127 4.20357C6.45244 4.31776 6.4274 4.406 6.51254 4.46309ZM9.01659 4.89909C8.94787 4.87861 8.87497 4.87861 8.80625 4.89909C8.70223 4.90919 8.5997 4.93183 8.50075 4.96657L8.88638 5.19495C8.98654 5.12747 9.04163 5.07557 9.05665 5.03404C9.07168 4.99252 9.09171 4.93024 9.04664 4.89909H9.01659Z" fill="url(#paint47_linear_101_5)"/>
<path style="mix-blend-mode:color-dodge" d="M8.29542 3.59629C8.15019 3.62224 7.99994 3.65857 7.84469 3.70009C7.68944 3.74162 7.56424 3.77795 7.40899 3.83505C7.25374 3.89214 7.1085 3.94405 6.96827 4.00633L7.43904 4.28662L7.59429 4.22952L7.76957 4.15167C8.035 4.05305 8.27038 3.97519 8.52079 3.90771C8.74097 3.84566 8.96527 3.80055 9.19187 3.77276C9.38787 3.74387 9.58683 3.74387 9.78283 3.77276C9.97524 3.80494 10.1603 3.87356 10.3287 3.97519C10.4971 4.06132 10.6341 4.2015 10.7193 4.37486C10.7466 4.44224 10.7607 4.51459 10.7607 4.58766C10.7607 4.66074 10.7466 4.73309 10.7193 4.80047C10.6519 4.96295 10.5511 5.10821 10.4239 5.22609C10.2713 5.37764 10.1034 5.51164 9.92305 5.62576L10.5591 6.00466L10.0583 6.32128L9.41223 5.93719C9.07454 6.11183 8.72663 6.26438 8.37054 6.39395C8.01743 6.52384 7.65596 6.62791 7.28879 6.70538L6.94824 5.83857L7.49913 5.714C7.65438 5.67247 7.83468 5.61538 8.02999 5.55309C8.21977 5.49129 8.40547 5.41674 8.58589 5.3299L8.12515 5.05481L7.62434 5.24166C7.36391 5.3299 7.12353 5.39738 6.91319 5.44928C6.71952 5.49896 6.52155 5.52851 6.32223 5.53752C6.15448 5.54796 5.98613 5.53575 5.82142 5.50119C5.66992 5.46579 5.52462 5.40625 5.39072 5.32471C5.23658 5.25271 5.1048 5.13769 5.01011 4.99252C4.94268 4.8641 4.92308 4.7145 4.95502 4.57209C4.9926 4.41894 5.06085 4.27569 5.15534 4.15167C5.29226 3.9911 5.44884 3.84976 5.6211 3.73124L5.09024 3.41462L5.61609 3.11357L6.15195 3.43019C6.31221 3.35233 6.47247 3.27967 6.65276 3.21738C6.83306 3.1551 6.97829 3.09281 7.15357 3.04091L7.61933 2.90076L8.01497 2.76062L8.29542 3.59629ZM6.51254 4.46309C6.57208 4.49713 6.64019 4.51161 6.70785 4.50462C6.81136 4.49123 6.91357 4.46865 7.01335 4.43714L6.6127 4.20357C6.45244 4.31776 6.4274 4.406 6.51254 4.46309ZM9.01659 4.89909C8.94787 4.87861 8.87497 4.87861 8.80625 4.89909C8.70223 4.90919 8.5997 4.93183 8.50075 4.96657L8.88638 5.19495C8.98654 5.12747 9.04163 5.07557 9.05665 5.03404C9.07168 4.99252 9.09171 4.93024 9.04664 4.89909H9.01659Z" fill="url(#paint48_radial_101_5)"/>
<defs>
<linearGradient id="paint0_linear_101_5" x1="1.4044" y1="14.4026" x2="7.07695" y2="23.1334" gradientUnits="userSpaceOnUse">
<stop stop-color="#F5CB16"/>
<stop offset="0.2764" stop-color="#FEF687"/>
<stop offset="0.338" stop-color="#F5E063"/>
<stop offset="0.4168" stop-color="#EBC83C"/>
<stop offset="0.4796" stop-color="#E5B924"/>
<stop offset="0.5182" stop-color="#E3B31B"/>
<stop offset="0.6535" stop-color="#F0D24E"/>
<stop offset="0.7911" stop-color="#FFF585"/>
<stop offset="0.8728" stop-color="#FBE254"/>
<stop offset="0.9573" stop-color="#F7D227"/>
<stop offset="1" stop-color="#F5CB16"/>
</linearGradient>
<linearGradient id="paint1_linear_101_5" x1="0.000183105" y1="16.661" x2="0.000203083" y2="16.661" gradientUnits="userSpaceOnUse">
<stop stop-color="#FFBB96"/>
<stop offset="0.23" stop-color="#FFFBC9"/>
<stop offset="0.54" stop-color="#F9B673"/>
<stop offset="0.64" stop-color="#F9B876"/>
<stop offset="0.72" stop-color="#FABE81"/>
<stop offset="0.81" stop-color="#FCC993"/>
<stop offset="0.86" stop-color="#FED2A3"/>
<stop offset="0.97" stop-color="#FFC28C"/>
</linearGradient>
<linearGradient id="paint2_linear_101_5" x1="7.08627" y1="17.4707" x2="7.3002" y2="16.8828" gradientUnits="userSpaceOnUse">
<stop stop-color="#A37903"/>
<stop offset="0.0669" stop-color="#B28E2B"/>
<stop offset="0.1603" stop-color="#C4A95C"/>
<stop offset="0.2587" stop-color="#D4C088"/>
<stop offset="0.3602" stop-color="#E1D3AD"/>
<stop offset="0.4659" stop-color="#ECE3CB"/>
<stop offset="0.5769" stop-color="#F4EFE2"/>
<stop offset="0.6958" stop-color="#FAF8F2"/>
<stop offset="0.8279" stop-color="#FEFDFC"/>
<stop offset="1" stop-color="white"/>
</linearGradient>
<linearGradient id="paint3_linear_101_5" x1="22.3335" y1="-2.19629" x2="6.44168" y2="13.2322" gradientUnits="userSpaceOnUse">
<stop offset="0.04" stop-color="#FFBA78"/>
<stop offset="0.4" stop-color="#FFC987"/>
<stop offset="1" stop-color="#FEECA8"/>
</linearGradient>
<radialGradient id="paint4_radial_101_5" cx="0" cy="0" r="1" gradientUnits="userSpaceOnUse" gradientTransform="translate(4.47437 16.3961) scale(9.85591 10.2149)">
<stop stop-color="white"/>
<stop offset="1"/>
</radialGradient>
<linearGradient id="paint5_linear_101_5" x1="332.383" y1="95.83" x2="189.406" y2="333.813" gradientUnits="userSpaceOnUse">
<stop offset="0.04" stop-color="#FFBA78"/>
<stop offset="0.4" stop-color="#FFC987"/>
<stop offset="1" stop-color="#FEECA8"/>
</linearGradient>
<radialGradient id="paint6_radial_101_5" cx="0" cy="0" r="1" gradientUnits="userSpaceOnUse" gradientTransform="translate(250.132 74.0965) scale(101.433 32.2739)">
<stop stop-color="white"/>
<stop offset="1"/>
</radialGradient>
<linearGradient id="paint7_linear_101_5" x1="381.386" y1="36.3231" x2="335.011" y2="182.706" gradientUnits="userSpaceOnUse">
<stop stop-color="#FFBB96"/>
<stop offset="0.23" stop-color="#FFFBC9"/>
<stop offset="0.54" stop-color="#F9B673"/>
<stop offset="0.64" stop-color="#F9B876"/>
<stop offset="0.72" stop-color="#FABE81"/>
<stop offset="0.81" stop-color="#FCC993"/>
<stop offset="0.86" stop-color="#FED2A3"/>
<stop offset="0.97" stop-color="#FFC28C"/>
</linearGradient>
<radialGradient id="paint8_radial_101_5" cx="0" cy="0" r="1" gradientUnits="userSpaceOnUse" gradientTransform="translate(8.45053 14.0859) rotate(-70.9864) scale(1.70783 3.42679)">
<stop stop-color="#F49587"/>
<stop offset="0.12" stop-color="#BD7368"/>
<stop offset="0.24" stop-color="#8B554D"/>
<stop offset="0.36" stop-color="#603B35"/>
<stop offset="0.48" stop-color="#3E2622"/>
<stop offset="0.61" stop-color="#231513"/>
<stop offset="0.74" stop-color="#0F0908"/>
<stop offset="0.86" stop-color="#040202"/>
<stop offset="1"/>
</radialGradient>
<linearGradient id="paint9_linear_101_5" x1="62.0401" y1="110.364" x2="129.967" y2="110.364" gradientUnits="userSpaceOnUse">
<stop stop-color="#FFBB96"/>
<stop offset="0.23" stop-color="#FFFBC9"/>
<stop offset="0.54" stop-color="#F9B673"/>
<stop offset="0.64" stop-color="#F9B876"/>
<stop offset="0.72" stop-color="#FABE81"/>
<stop offset="0.81" stop-color="#FCC993"/>
<stop offset="0.86" stop-color="#FED2A3"/>
<stop offset="0.97" stop-color="#FFC28C"/>
</linearGradient>
<linearGradient id="paint10_linear_101_5" x1="162.953" y1="83.0405" x2="117.236" y2="119.852" gradientUnits="userSpaceOnUse">
<stop offset="0.04" stop-color="#FFBA78"/>
<stop offset="0.4" stop-color="#FFC987"/>
<stop offset="1" stop-color="#FEECA8"/>
</linearGradient>
<radialGradient id="paint11_radial_101_5" cx="0" cy="0" r="1" gradientUnits="userSpaceOnUse" gradientTransform="translate(49.6259 111.043) scale(60.9238 41.2918)">
<stop stop-color="#F49587"/>
<stop offset="0.12" stop-color="#BD7368"/>
<stop offset="0.24" stop-color="#8B554D"/>
<stop offset="0.36" stop-color="#603B35"/>
<stop offset="0.48" stop-color="#3E2622"/>
<stop offset="0.61" stop-color="#231513"/>
<stop offset="0.74" stop-color="#0F0908"/>
<stop offset="0.86" stop-color="#040202"/>
<stop offset="1"/>
</radialGradient>
<linearGradient id="paint12_linear_101_5" x1="1.40457" y1="11.8385" x2="7.07714" y2="20.5692" gradientUnits="userSpaceOnUse">
<stop stop-color="#F5CB16"/>
<stop offset="0.2764" stop-color="#FEF687"/>
<stop offset="0.338" stop-color="#F5E063"/>
<stop offset="0.4168" stop-color="#EBC83C"/>
<stop offset="0.4796" stop-color="#E5B924"/>
<stop offset="0.5182" stop-color="#E3B31B"/>
<stop offset="0.6535" stop-color="#F0D24E"/>
<stop offset="0.7911" stop-color="#FFF585"/>
<stop offset="0.8728" stop-color="#FBE254"/>
<stop offset="0.9573" stop-color="#F7D227"/>
<stop offset="1" stop-color="#F5CB16"/>
</linearGradient>
<linearGradient id="paint13_linear_101_5" x1="0.000366211" y1="13.9245" x2="0.000386345" y2="13.9245" gradientUnits="userSpaceOnUse">
<stop stop-color="#FFBB96"/>
<stop offset="0.23" stop-color="#FFFBC9"/>
<stop offset="0.54" stop-color="#F9B673"/>
<stop offset="0.64" stop-color="#F9B876"/>
<stop offset="0.72" stop-color="#FABE81"/>
<stop offset="0.81" stop-color="#FCC993"/>
<stop offset="0.86" stop-color="#FED2A3"/>
<stop offset="0.97" stop-color="#FFC28C"/>
</linearGradient>
<linearGradient id="paint14_linear_101_5" x1="7.0865" y1="14.9066" x2="7.30044" y2="14.3187" gradientUnits="userSpaceOnUse">
<stop stop-color="#A37903"/>
<stop offset="0.0669" stop-color="#B28E2B"/>
<stop offset="0.1603" stop-color="#C4A95C"/>
<stop offset="0.2587" stop-color="#D4C088"/>
<stop offset="0.3602" stop-color="#E1D3AD"/>
<stop offset="0.4659" stop-color="#ECE3CB"/>
<stop offset="0.5769" stop-color="#F4EFE2"/>
<stop offset="0.6958" stop-color="#FAF8F2"/>
<stop offset="0.8279" stop-color="#FEFDFC"/>
<stop offset="1" stop-color="white"/>
</linearGradient>
<linearGradient id="paint15_linear_101_5" x1="699.412" y1="-81.2012" x2="443.562" y2="345.311" gradientUnits="userSpaceOnUse">
<stop offset="0.04" stop-color="#FFBA78"/>
<stop offset="0.4" stop-color="#FFC987"/>
<stop offset="1" stop-color="#FEECA8"/>
</linearGradient>
<radialGradient id="paint16_radial_101_5" cx="0" cy="0" r="1" gradientUnits="userSpaceOnUse" gradientTransform="translate(140.072 140.823) scale(308.688 96.3267)">
<stop stop-color="white"/>
<stop offset="1"/>
</radialGradient>
<linearGradient id="paint17_linear_101_5" x1="332.383" y1="58.3178" x2="189.404" y2="296.302" gradientUnits="userSpaceOnUse">
<stop offset="0.04" stop-color="#FFBA78"/>
<stop offset="0.4" stop-color="#FFC987"/>
<stop offset="1" stop-color="#FEECA8"/>
</linearGradient>
<radialGradient id="paint18_radial_101_5" cx="0" cy="0" r="1" gradientUnits="userSpaceOnUse" gradientTransform="translate(250.435 53.0845) scale(101.563 32.2736)">
<stop stop-color="white"/>
<stop offset="1"/>
</radialGradient>
<linearGradient id="paint19_linear_101_5" x1="381.386" y1="15.3487" x2="334.993" y2="161.72" gradientUnits="userSpaceOnUse">
<stop stop-color="#FFBB96"/>
<stop offset="0.23" stop-color="#FFFBC9"/>
<stop offset="0.54" stop-color="#F9B673"/>
<stop offset="0.64" stop-color="#F9B876"/>
<stop offset="0.72" stop-color="#FABE81"/>
<stop offset="0.81" stop-color="#FCC993"/>
<stop offset="0.86" stop-color="#FED2A3"/>
<stop offset="0.97" stop-color="#FFC28C"/>
</linearGradient>
<radialGradient id="paint20_radial_101_5" cx="0" cy="0" r="1" gradientUnits="userSpaceOnUse" gradientTransform="translate(97949.9 -36877.2) scale(143.806 88.086)">
<stop stop-color="#F49587"/>
<stop offset="0.12" stop-color="#BD7368"/>
<stop offset="0.24" stop-color="#8B554D"/>
<stop offset="0.36" stop-color="#603B35"/>
<stop offset="0.48" stop-color="#3E2622"/>
<stop offset="0.61" stop-color="#231513"/>
<stop offset="0.74" stop-color="#0F0908"/>
<stop offset="0.86" stop-color="#040202"/>
<stop offset="1"/>
</radialGradient>
<linearGradient id="paint21_linear_101_5" x1="62.0436" y1="88.2321" x2="129.975" y2="88.2321" gradientUnits="userSpaceOnUse">
<stop stop-color="#FFBB96"/>
<stop offset="0.23" stop-color="#FFFBC9"/>
<stop offset="0.54" stop-color="#F9B673"/>
<stop offset="0.64" stop-color="#F9B876"/>
<stop offset="0.72" stop-color="#FABE81"/>
<stop offset="0.81" stop-color="#FCC993"/>
<stop offset="0.86" stop-color="#FED2A3"/>
<stop offset="0.97" stop-color="#FFC28C"/>
</linearGradient>
<linearGradient id="paint22_linear_101_5" x1="162.572" y1="61.4071" x2="116.552" y2="98.0323" gradientUnits="userSpaceOnUse">
<stop offset="0.04" stop-color="#FFBA78"/>
<stop offset="0.4" stop-color="#FFC987"/>
<stop offset="1" stop-color="#FEECA8"/>
</linearGradient>
<radialGradient id="paint23_radial_101_5" cx="0" cy="0" r="1" gradientUnits="userSpaceOnUse" gradientTransform="translate(49.5285 89.6671) scale(60.7711 41.6714)">
<stop stop-color="#F49587"/>
<stop offset="0.12" stop-color="#BD7368"/>
<stop offset="0.24" stop-color="#8B554D"/>
<stop offset="0.36" stop-color="#603B35"/>
<stop offset="0.48" stop-color="#3E2622"/>
<stop offset="0.61" stop-color="#231513"/>
<stop offset="0.74" stop-color="#0F0908"/>
<stop offset="0.86" stop-color="#040202"/>
<stop offset="1"/>
</radialGradient>
<linearGradient id="paint24_linear_101_5" x1="1.40457" y1="9.13942" x2="7.07717" y2="17.8702" gradientUnits="userSpaceOnUse">
<stop stop-color="#F5CB16"/>
<stop offset="0.2764" stop-color="#FEF687"/>
<stop offset="0.338" stop-color="#F5E063"/>
<stop offset="0.4168" stop-color="#EBC83C"/>
<stop offset="0.4796" stop-color="#E5B924"/>
<stop offset="0.5182" stop-color="#E3B31B"/>
<stop offset="0.6535" stop-color="#F0D24E"/>
<stop offset="0.7911" stop-color="#FFF585"/>
<stop offset="0.8728" stop-color="#FBE254"/>
<stop offset="0.9573" stop-color="#F7D227"/>
<stop offset="1" stop-color="#F5CB16"/>
</linearGradient>
<linearGradient id="paint25_linear_101_5" x1="0" y1="10.8694" x2="2.16949e-05" y2="10.8694" gradientUnits="userSpaceOnUse">
<stop stop-color="#FFBB96"/>
<stop offset="0.23" stop-color="#FFFBC9"/>
<stop offset="0.54" stop-color="#F9B673"/>
<stop offset="0.64" stop-color="#F9B876"/>
<stop offset="0.72" stop-color="#FABE81"/>
<stop offset="0.81" stop-color="#FCC993"/>
<stop offset="0.86" stop-color="#FED2A3"/>
<stop offset="0.97" stop-color="#FFC28C"/>
</linearGradient>
<linearGradient id="paint26_linear_101_5" x1="7.08662" y1="12.2075" x2="7.30055" y2="11.6196" gradientUnits="userSpaceOnUse">
<stop stop-color="#A37903"/>
<stop offset="0.0669" stop-color="#B28E2B"/>
<stop offset="0.1603" stop-color="#C4A95C"/>
<stop offset="0.2587" stop-color="#D4C088"/>
<stop offset="0.3602" stop-color="#E1D3AD"/>
<stop offset="0.4659" stop-color="#ECE3CB"/>
<stop offset="0.5769" stop-color="#F4EFE2"/>
<stop offset="0.6958" stop-color="#FAF8F2"/>
<stop offset="0.8279" stop-color="#FEFDFC"/>
<stop offset="1" stop-color="white"/>
</linearGradient>
<linearGradient id="paint27_linear_101_5" x1="699.412" y1="-133.226" x2="443.6" y2="293.361" gradientUnits="userSpaceOnUse">
<stop offset="0.04" stop-color="#FFBA78"/>
<stop offset="0.4" stop-color="#FFC987"/>
<stop offset="1" stop-color="#FEECA8"/>
</linearGradient>
<radialGradient id="paint28_radial_101_5" cx="0" cy="0" r="1" gradientUnits="userSpaceOnUse" gradientTransform="translate(140.072 112.788) scale(308.688 96.4293)">
<stop stop-color="white"/>
<stop offset="1"/>
</radialGradient>
<linearGradient id="paint29_linear_101_5" x1="332.383" y1="18.8362" x2="189.251" y2="256.902" gradientUnits="userSpaceOnUse">
<stop offset="0.04" stop-color="#FFBA78"/>
<stop offset="0.4" stop-color="#FFC987"/>
<stop offset="1" stop-color="#FEECA8"/>
</linearGradient>
<radialGradient id="paint30_radial_101_5" cx="0" cy="0" r="1" gradientUnits="userSpaceOnUse" gradientTransform="translate(250.123 31.0389) scale(101.429 32.3185)">
<stop stop-color="white"/>
<stop offset="1"/>
</radialGradient>
<linearGradient id="paint31_linear_101_5" x1="381.374" y1="-6.74972" x2="334.864" y2="139.785" gradientUnits="userSpaceOnUse">
<stop stop-color="#FFBB96"/>
<stop offset="0.23" stop-color="#FFFBC9"/>
<stop offset="0.54" stop-color="#F9B673"/>
<stop offset="0.64" stop-color="#F9B876"/>
<stop offset="0.72" stop-color="#FABE81"/>
<stop offset="0.81" stop-color="#FCC993"/>
<stop offset="0.86" stop-color="#FED2A3"/>
<stop offset="0.97" stop-color="#FFC28C"/>
</linearGradient>
<radialGradient id="paint32_radial_101_5" cx="0" cy="0" r="1" gradientUnits="userSpaceOnUse" gradientTransform="translate(-14394.8 -12139.6) rotate(-71.8164) scale(11.4803 45.0968)">
<stop stop-color="#F49587"/>
<stop offset="0.12" stop-color="#BD7368"/>
<stop offset="0.24" stop-color="#8B554D"/>
<stop offset="0.36" stop-color="#603B35"/>
<stop offset="0.48" stop-color="#3E2622"/>
<stop offset="0.61" stop-color="#231513"/>
<stop offset="0.74" stop-color="#0F0908"/>
<stop offset="0.86" stop-color="#040202"/>
<stop offset="1"/>
</radialGradient>
<linearGradient id="paint33_linear_101_5" x1="62.2614" y1="64.6711" x2="130.481" y2="64.6711" gradientUnits="userSpaceOnUse">
<stop stop-color="#FFBB96"/>
<stop offset="0.23" stop-color="#FFFBC9"/>
<stop offset="0.54" stop-color="#F9B673"/>
<stop offset="0.64" stop-color="#F9B876"/>
<stop offset="0.72" stop-color="#FABE81"/>
<stop offset="0.81" stop-color="#FCC993"/>
<stop offset="0.86" stop-color="#FED2A3"/>
<stop offset="0.97" stop-color="#FFC28C"/>
</linearGradient>
<linearGradient id="paint34_linear_101_5" x1="162.564" y1="37.783" x2="116.732" y2="74.4484" gradientUnits="userSpaceOnUse">
<stop offset="0.04" stop-color="#FFBA78"/>
<stop offset="0.4" stop-color="#FFC987"/>
<stop offset="1" stop-color="#FEECA8"/>
</linearGradient>
<radialGradient id="paint35_radial_101_5" cx="0" cy="0" r="1" gradientUnits="userSpaceOnUse" gradientTransform="translate(49.5266 65.8558) scale(60.768 41.4541)">
<stop stop-color="#F49587"/>
<stop offset="0.12" stop-color="#BD7368"/>
<stop offset="0.24" stop-color="#8B554D"/>
<stop offset="0.36" stop-color="#603B35"/>
<stop offset="0.48" stop-color="#3E2622"/>
<stop offset="0.61" stop-color="#231513"/>
<stop offset="0.74" stop-color="#0F0908"/>
<stop offset="0.86" stop-color="#040202"/>
<stop offset="1"/>
</radialGradient>
<linearGradient id="paint36_linear_101_5" x1="1.40457" y1="6.39474" x2="7.083" y2="15.1281" gradientUnits="userSpaceOnUse">
<stop stop-color="#F5CB16"/>
<stop offset="0.2764" stop-color="#FEF687"/>
<stop offset="0.338" stop-color="#F5E063"/>
<stop offset="0.4168" stop-color="#EBC83C"/>
<stop offset="0.4796" stop-color="#E5B924"/>
<stop offset="0.5182" stop-color="#E3B31B"/>
<stop offset="0.6535" stop-color="#F0D24E"/>
<stop offset="0.7911" stop-color="#FFF585"/>
<stop offset="0.8728" stop-color="#FBE254"/>
<stop offset="0.9573" stop-color="#F7D227"/>
<stop offset="1" stop-color="#F5CB16"/>
</linearGradient>
<linearGradient id="paint37_linear_101_5" x1="0.000366211" y1="7.69441" x2="0.000386189" y2="7.69441" gradientUnits="userSpaceOnUse">
<stop stop-color="#FFBB96"/>
<stop offset="0.23" stop-color="#FFFBC9"/>
<stop offset="0.54" stop-color="#F9B673"/>
<stop offset="0.64" stop-color="#F9B876"/>
<stop offset="0.72" stop-color="#FABE81"/>
<stop offset="0.81" stop-color="#FCC993"/>
<stop offset="0.86" stop-color="#FED2A3"/>
<stop offset="0.97" stop-color="#FFC28C"/>
</linearGradient>
<linearGradient id="paint38_linear_101_5" x1="7.08652" y1="9.48531" x2="7.30082" y2="8.89694" gradientUnits="userSpaceOnUse">
<stop stop-color="#A37903"/>
<stop offset="0.0669" stop-color="#B28E2B"/>
<stop offset="0.1603" stop-color="#C4A95C"/>
<stop offset="0.2587" stop-color="#D4C088"/>
<stop offset="0.3602" stop-color="#E1D3AD"/>
<stop offset="0.4659" stop-color="#ECE3CB"/>
<stop offset="0.5769" stop-color="#F4EFE2"/>
<stop offset="0.6958" stop-color="#FAF8F2"/>
<stop offset="0.8279" stop-color="#FEFDFC"/>
<stop offset="1" stop-color="white"/>
</linearGradient>
<linearGradient id="paint39_linear_101_5" x1="1.40648" y1="2.20633" x2="9.61344" y2="11.6649" gradientUnits="userSpaceOnUse">
<stop stop-color="#F5CB16"/>
<stop offset="0.2764" stop-color="#FEF687"/>
<stop offset="0.338" stop-color="#F5E063"/>
<stop offset="0.4168" stop-color="#EBC83C"/>
<stop offset="0.4796" stop-color="#E5B924"/>
<stop offset="0.5182" stop-color="#E3B31B"/>
<stop offset="0.6535" stop-color="#F0D24E"/>
<stop offset="0.7911" stop-color="#FFF585"/>
<stop offset="0.8728" stop-color="#FBE254"/>
<stop offset="0.9573" stop-color="#F7D227"/>
<stop offset="1" stop-color="#F5CB16"/>
</linearGradient>
<radialGradient id="paint40_radial_101_5" cx="0" cy="0" r="1" gradientUnits="userSpaceOnUse" gradientTransform="translate(140.072 84.3792) scale(308.688 96.7358)">
<stop stop-color="white"/>
<stop offset="1"/>
</radialGradient>
<linearGradient id="paint41_linear_101_5" x1="10.3407" y1="8.10882" x2="8.28511" y2="0.876496" gradientUnits="userSpaceOnUse">
<stop stop-color="#E8BC03"/>
<stop offset="0.1099" stop-color="#DBAC02"/>
<stop offset="0.2171" stop-color="#D3A102"/>
<stop offset="0.3653" stop-color="#E4BB1F"/>
<stop offset="0.5691" stop-color="#F7D942"/>
<stop offset="0.6791" stop-color="#FFE54F"/>
<stop offset="0.7447" stop-color="#FDE24A"/>
<stop offset="0.8267" stop-color="#F9DA3A"/>
<stop offset="0.9172" stop-color="#F1CC21"/>
<stop offset="1" stop-color="#E8BC03"/>
</linearGradient>
<radialGradient id="paint42_radial_101_5" cx="0" cy="0" r="1" gradientUnits="userSpaceOnUse" gradientTransform="translate(250.128 8.58333) scale(101.431 32.2733)">
<stop stop-color="white"/>
<stop offset="1"/>
</radialGradient>
<linearGradient id="paint43_linear_101_5" x1="381.38" y1="-29.1903" x2="335.003" y2="117.193" gradientUnits="userSpaceOnUse">
<stop stop-color="#FFBB96"/>
<stop offset="0.23" stop-color="#FFFBC9"/>
<stop offset="0.54" stop-color="#F9B673"/>
<stop offset="0.64" stop-color="#F9B876"/>
<stop offset="0.72" stop-color="#FABE81"/>
<stop offset="0.81" stop-color="#FCC993"/>
<stop offset="0.86" stop-color="#FED2A3"/>
<stop offset="0.97" stop-color="#FFC28C"/>
</linearGradient>
<radialGradient id="paint44_radial_101_5" cx="0" cy="0" r="1" gradientUnits="userSpaceOnUse" gradientTransform="translate(-20412.6 -26996.5) rotate(-74.9298) scale(64.1007 57.8067)">
<stop stop-color="#F49587"/>
<stop offset="0.12" stop-color="#BD7368"/>
<stop offset="0.24" stop-color="#8B554D"/>
<stop offset="0.36" stop-color="#603B35"/>
<stop offset="0.48" stop-color="#3E2622"/>
<stop offset="0.61" stop-color="#231513"/>
<stop offset="0.74" stop-color="#0F0908"/>
<stop offset="0.86" stop-color="#040202"/>
<stop offset="1"/>
</radialGradient>
<radialGradient id="paint45_radial_101_5" cx="0" cy="0" r="1" gradientUnits="userSpaceOnUse" gradientTransform="translate(98378.2 -37033.6) scale(143.806 88.3405)">
<stop stop-color="#F49587"/>
<stop offset="0.12" stop-color="#BD7368"/>
<stop offset="0.24" stop-color="#8B554D"/>
<stop offset="0.36" stop-color="#603B35"/>
<stop offset="0.48" stop-color="#3E2622"/>
<stop offset="0.61" stop-color="#231513"/>
<stop offset="0.74" stop-color="#0F0908"/>
<stop offset="0.86" stop-color="#040202"/>
<stop offset="1"/>
</radialGradient>
<linearGradient id="paint46_linear_101_5" x1="62.0401" y1="40.7449" x2="129.967" y2="40.7449" gradientUnits="userSpaceOnUse">
<stop stop-color="#FFBB96"/>
<stop offset="0.23" stop-color="#FFFBC9"/>
<stop offset="0.54" stop-color="#F9B673"/>
<stop offset="0.64" stop-color="#F9B876"/>
<stop offset="0.72" stop-color="#FABE81"/>
<stop offset="0.81" stop-color="#FCC993"/>
<stop offset="0.86" stop-color="#FED2A3"/>
<stop offset="0.97" stop-color="#FFC28C"/>
</linearGradient>
<linearGradient id="paint47_linear_101_5" x1="162.562" y1="13.9637" x2="116.964" y2="50.6805" gradientUnits="userSpaceOnUse">
<stop offset="0.04" stop-color="#FFBA78"/>
<stop offset="0.4" stop-color="#FFC987"/>
<stop offset="1" stop-color="#FEECA8"/>
</linearGradient>
<radialGradient id="paint48_radial_101_5" cx="0" cy="0" r="1" gradientUnits="userSpaceOnUse" gradientTransform="translate(49.5258 41.8926) scale(60.767 41.1832)">
<stop stop-color="#F49587"/>
<stop offset="0.12" stop-color="#BD7368"/>
<stop offset="0.24" stop-color="#8B554D"/>
<stop offset="0.36" stop-color="#603B35"/>
<stop offset="0.48" stop-color="#3E2622"/>
<stop offset="0.61" stop-color="#231513"/>
<stop offset="0.74" stop-color="#0F0908"/>
<stop offset="0.86" stop-color="#040202"/>
<stop offset="1"/>
</radialGradient>
</defs>
</svg>
